G04 #@! TF.GenerationSoftware,KiCad,Pcbnew,9.0.0*
G04 #@! TF.CreationDate,2025-04-02T18:04:16+02:00*
G04 #@! TF.ProjectId,CapyPower,43617079-506f-4776-9572-2e6b69636164,rev?*
G04 #@! TF.SameCoordinates,Original*
G04 #@! TF.FileFunction,Paste,Top*
G04 #@! TF.FilePolarity,Positive*
%FSLAX46Y46*%
G04 Gerber Fmt 4.6, Leading zero omitted, Abs format (unit mm)*
G04 Created by KiCad (PCBNEW 9.0.0) date 2025-04-02 18:04:16*
%MOMM*%
%LPD*%
G01*
G04 APERTURE LIST*
G04 Aperture macros list*
%AMRoundRect*
0 Rectangle with rounded corners*
0 $1 Rounding radius*
0 $2 $3 $4 $5 $6 $7 $8 $9 X,Y pos of 4 corners*
0 Add a 4 corners polygon primitive as box body*
4,1,4,$2,$3,$4,$5,$6,$7,$8,$9,$2,$3,0*
0 Add four circle primitives for the rounded corners*
1,1,$1+$1,$2,$3*
1,1,$1+$1,$4,$5*
1,1,$1+$1,$6,$7*
1,1,$1+$1,$8,$9*
0 Add four rect primitives between the rounded corners*
20,1,$1+$1,$2,$3,$4,$5,0*
20,1,$1+$1,$4,$5,$6,$7,0*
20,1,$1+$1,$6,$7,$8,$9,0*
20,1,$1+$1,$8,$9,$2,$3,0*%
G04 Aperture macros list end*
%ADD10RoundRect,0.147500X-0.147500X-0.172500X0.147500X-0.172500X0.147500X0.172500X-0.147500X0.172500X0*%
%ADD11RoundRect,0.135000X-0.135000X-0.185000X0.135000X-0.185000X0.135000X0.185000X-0.135000X0.185000X0*%
%ADD12RoundRect,0.135000X0.135000X0.185000X-0.135000X0.185000X-0.135000X-0.185000X0.135000X-0.185000X0*%
%ADD13RoundRect,0.135000X-0.185000X0.135000X-0.185000X-0.135000X0.185000X-0.135000X0.185000X0.135000X0*%
%ADD14RoundRect,0.147500X0.147500X0.172500X-0.147500X0.172500X-0.147500X-0.172500X0.147500X-0.172500X0*%
%ADD15RoundRect,0.147500X0.172500X-0.147500X0.172500X0.147500X-0.172500X0.147500X-0.172500X-0.147500X0*%
G04 APERTURE END LIST*
D10*
X69685000Y-52550000D03*
X68715000Y-52550000D03*
D11*
X72350000Y-52550000D03*
X71330000Y-52550000D03*
X71540000Y-48950000D03*
X72560000Y-48950000D03*
X71590000Y-45350000D03*
X72610000Y-45350000D03*
D12*
X120910000Y-96800000D03*
X119890000Y-96800000D03*
X120842500Y-94100000D03*
X119822500Y-94100000D03*
D11*
X130452500Y-55600000D03*
X131472500Y-55600000D03*
X130602500Y-52600000D03*
X131622500Y-52600000D03*
D12*
X131600000Y-49600000D03*
X130580000Y-49600000D03*
D13*
X82850000Y-86520000D03*
X82850000Y-87540000D03*
X82850000Y-91880000D03*
X82850000Y-92900000D03*
D10*
X68715000Y-48950000D03*
X69685000Y-48950000D03*
X68715000Y-45350000D03*
X69685000Y-45350000D03*
D14*
X124235000Y-96800000D03*
X123265000Y-96800000D03*
X124217500Y-94100000D03*
X123247500Y-94100000D03*
D10*
X127127500Y-55600000D03*
X128097500Y-55600000D03*
X127177500Y-52600000D03*
X128147500Y-52600000D03*
X127215000Y-49600000D03*
X128185000Y-49600000D03*
D15*
X82850000Y-90160000D03*
X82850000Y-89190000D03*
X82850000Y-95307500D03*
X82850000Y-94337500D03*
M02*
