M48
; DRILL file {KiCad 9.0.0} date 2025-04-02T18:04:12+0200
; FORMAT={-:-/ absolute / metric / decimal}
; #@! TF.CreationDate,2025-04-02T18:04:12+02:00
; #@! TF.GenerationSoftware,Kicad,Pcbnew,9.0.0
; #@! TF.FileFunction,Plated,1,2,PTH
FMAT,2
METRIC
; #@! TA.AperFunction,Plated,PTH,ViaDrill
T1C0.300
; #@! TA.AperFunction,Plated,PTH,ComponentDrill
T2C1.000
; #@! TA.AperFunction,Plated,PTH,ComponentDrill
T3C1.100
; #@! TA.AperFunction,Plated,PTH,ComponentDrill
T4C1.500
; #@! TA.AperFunction,Plated,PTH,ComponentDrill
T5C1.700
; #@! TA.AperFunction,Plated,PTH,ViaDrill
T6C3.000
%
G90
G05
T1
X68.715Y-51.35
X68.75Y-47.2
X83.95Y-90.15
X84.0Y-95.3
X119.9Y-95.85
X120.95Y-90.0
X125.8Y-95.65
X126.05Y-49.6
X126.062Y-52.6
X126.062Y-55.6
X132.41Y-62.785
X133.0Y-69.3
T2
X60.7Y-62.6
X60.7Y-73.6
X87.0Y-96.194
X98.0Y-96.194
X101.8Y-96.244
X112.8Y-96.244
X146.094Y-48.7
X146.094Y-59.7
X146.1Y-64.4
X146.1Y-75.4
X146.1Y-80.1
X146.1Y-91.1
T3
X65.11Y-89.05
X65.11Y-94.05
X67.65Y-89.05
X67.65Y-94.05
X74.6Y-89.1
X74.6Y-94.1
X77.06Y-45.9
X77.06Y-50.9
X77.14Y-89.1
X77.14Y-94.1
X79.6Y-45.9
X79.6Y-50.9
X81.15Y-62.44
X81.15Y-72.6
X87.91Y-45.9
X87.91Y-50.9
X90.45Y-45.9
X90.45Y-50.9
X98.45Y-45.85
X98.45Y-50.85
X100.99Y-45.85
X100.99Y-50.85
X109.28Y-45.85
X109.28Y-50.85
X111.82Y-45.85
X111.82Y-50.85
X114.36Y-45.85
X114.36Y-50.85
X116.9Y-45.85
X116.9Y-50.85
T4
X65.08Y-79.7
X67.62Y-79.7
X72.13Y-79.65
X74.67Y-79.65
T5
X70.7Y-65.6
X70.7Y-70.6
X90.0Y-86.194
X95.0Y-86.194
X104.8Y-86.244
X109.8Y-86.244
X136.094Y-51.7
X136.094Y-56.7
X136.1Y-67.4
X136.1Y-72.4
X136.1Y-83.1
X136.1Y-88.1
T6
X59.25Y-42.5
X59.25Y-97.4
X147.6Y-97.5
X147.65Y-42.5
T4
X88.35Y-70.9G85X94.35Y-70.9
G05
X97.85Y-62.5G85X103.85Y-62.5
G05
X97.85Y-79.3G85X103.85Y-79.3
G05
X101.35Y-73.9G85X101.35Y-67.9
G05
X108.85Y-73.9G85X108.85Y-67.9
G05
X118.15Y-62.575G85X118.15Y-61.575
G05
X118.15Y-68.575G85X118.15Y-67.575
G05
X118.15Y-74.575G85X118.15Y-73.575
G05
X118.15Y-80.575G85X118.15Y-79.575
G05
X118.15Y-86.575G85X118.15Y-85.575
G05
X121.85Y-62.575G85X121.85Y-61.575
G05
X121.85Y-68.575G85X121.85Y-67.575
G05
X121.85Y-74.575G85X121.85Y-73.575
G05
X121.85Y-80.575G85X121.85Y-79.575
G05
X121.85Y-86.575G85X121.85Y-85.575
G05
X125.85Y-62.575G85X125.85Y-61.575
G05
X125.85Y-68.575G85X125.85Y-67.575
G05
X125.85Y-74.575G85X125.85Y-73.575
G05
X125.85Y-80.575G85X125.85Y-79.575
G05
X125.85Y-86.575G85X125.85Y-85.575
G05
X129.55Y-62.575G85X129.55Y-61.575
G05
X129.55Y-68.575G85X129.55Y-67.575
G05
X129.55Y-74.575G85X129.55Y-73.575
G05
X129.55Y-80.575G85X129.55Y-79.575
G05
X129.55Y-86.575G85X129.55Y-85.575
G05
M30
