G04 #@! TF.GenerationSoftware,KiCad,Pcbnew,9.0.0*
G04 #@! TF.CreationDate,2025-04-02T18:04:16+02:00*
G04 #@! TF.ProjectId,CapyPower,43617079-506f-4776-9572-2e6b69636164,rev?*
G04 #@! TF.SameCoordinates,Original*
G04 #@! TF.FileFunction,Soldermask,Top*
G04 #@! TF.FilePolarity,Negative*
%FSLAX46Y46*%
G04 Gerber Fmt 4.6, Leading zero omitted, Abs format (unit mm)*
G04 Created by KiCad (PCBNEW 9.0.0) date 2025-04-02 18:04:16*
%MOMM*%
%LPD*%
G01*
G04 APERTURE LIST*
G04 Aperture macros list*
%AMRoundRect*
0 Rectangle with rounded corners*
0 $1 Rounding radius*
0 $2 $3 $4 $5 $6 $7 $8 $9 X,Y pos of 4 corners*
0 Add a 4 corners polygon primitive as box body*
4,1,4,$2,$3,$4,$5,$6,$7,$8,$9,$2,$3,0*
0 Add four circle primitives for the rounded corners*
1,1,$1+$1,$2,$3*
1,1,$1+$1,$4,$5*
1,1,$1+$1,$6,$7*
1,1,$1+$1,$8,$9*
0 Add four rect primitives between the rounded corners*
20,1,$1+$1,$2,$3,$4,$5,0*
20,1,$1+$1,$4,$5,$6,$7,0*
20,1,$1+$1,$6,$7,$8,$9,0*
20,1,$1+$1,$8,$9,$2,$3,0*%
G04 Aperture macros list end*
%ADD10O,1.800000X3.200000*%
%ADD11RoundRect,0.250000X-0.650000X-1.350000X0.650000X-1.350000X0.650000X1.350000X-0.650000X1.350000X0*%
%ADD12RoundRect,0.147500X-0.147500X-0.172500X0.147500X-0.172500X0.147500X0.172500X-0.147500X0.172500X0*%
%ADD13RoundRect,0.135000X-0.135000X-0.185000X0.135000X-0.185000X0.135000X0.185000X-0.135000X0.185000X0*%
%ADD14C,1.712000*%
%ADD15C,2.754000*%
%ADD16RoundRect,0.102000X-1.275000X1.275000X-1.275000X-1.275000X1.275000X-1.275000X1.275000X1.275000X0*%
%ADD17C,2.000000*%
%ADD18R,8.000000X2.000000*%
%ADD19R,2.000000X8.000000*%
%ADD20RoundRect,0.102000X1.275000X1.275000X-1.275000X1.275000X-1.275000X-1.275000X1.275000X-1.275000X0*%
%ADD21RoundRect,0.102000X1.275000X-1.275000X1.275000X1.275000X-1.275000X1.275000X-1.275000X-1.275000X0*%
%ADD22RoundRect,0.135000X0.135000X0.185000X-0.135000X0.185000X-0.135000X-0.185000X0.135000X-0.185000X0*%
%ADD23RoundRect,0.135000X-0.185000X0.135000X-0.185000X-0.135000X0.185000X-0.135000X0.185000X0.135000X0*%
%ADD24RoundRect,0.250000X0.650000X1.350000X-0.650000X1.350000X-0.650000X-1.350000X0.650000X-1.350000X0*%
%ADD25RoundRect,0.393701X0.606299X1.106299X-0.606299X1.106299X-0.606299X-1.106299X0.606299X-1.106299X0*%
%ADD26RoundRect,0.147500X0.147500X0.172500X-0.147500X0.172500X-0.147500X-0.172500X0.147500X-0.172500X0*%
%ADD27RoundRect,0.147500X0.172500X-0.147500X0.172500X0.147500X-0.172500X0.147500X-0.172500X-0.147500X0*%
%ADD28R,2.200000X2.200000*%
%ADD29O,2.200000X2.200000*%
%ADD30C,3.200000*%
G04 APERTURE END LIST*
D10*
X77140000Y-94100000D03*
X77140000Y-89100000D03*
D11*
X74600000Y-94100000D03*
X74600000Y-89100000D03*
D10*
X67650000Y-94050000D03*
X67650000Y-89050000D03*
D11*
X65110000Y-94050000D03*
X65110000Y-89050000D03*
D12*
X69685000Y-52550000D03*
X68715000Y-52550000D03*
D13*
X72350000Y-52550000D03*
X71330000Y-52550000D03*
D14*
X146100000Y-64400000D03*
X146100000Y-75400000D03*
D15*
X136100000Y-72400000D03*
D16*
X136100000Y-67400000D03*
D17*
X67620000Y-79700000D03*
X65080000Y-79700000D03*
X74670000Y-79650000D03*
X72130000Y-79650000D03*
D18*
X91350000Y-70900000D03*
X100850000Y-62500000D03*
X100850000Y-79300000D03*
D19*
X101350000Y-70900000D03*
X108850000Y-70900000D03*
D20*
X95000000Y-86194250D03*
D15*
X90000000Y-86194250D03*
D14*
X87000000Y-96194250D03*
X98000000Y-96194250D03*
D20*
X109800000Y-86244250D03*
D15*
X104800000Y-86244250D03*
D14*
X101800000Y-96244250D03*
X112800000Y-96244250D03*
D16*
X136100000Y-83100000D03*
D15*
X136100000Y-88100000D03*
D14*
X146100000Y-91100000D03*
X146100000Y-80100000D03*
D16*
X136094250Y-51700000D03*
D15*
X136094250Y-56700000D03*
D14*
X146094250Y-59700000D03*
X146094250Y-48700000D03*
D21*
X70700000Y-70600000D03*
D15*
X70700000Y-65600000D03*
D14*
X60700000Y-62600000D03*
X60700000Y-73600000D03*
D13*
X71540000Y-48950000D03*
X72560000Y-48950000D03*
X71590000Y-45350000D03*
X72610000Y-45350000D03*
D22*
X120910000Y-96800000D03*
X119890000Y-96800000D03*
X120842500Y-94100000D03*
X119822500Y-94100000D03*
D13*
X130452500Y-55600000D03*
X131472500Y-55600000D03*
X130602500Y-52600000D03*
X131622500Y-52600000D03*
D22*
X131600000Y-49600000D03*
X130580000Y-49600000D03*
D23*
X82850000Y-86520000D03*
X82850000Y-87540000D03*
X82850000Y-91880000D03*
X82850000Y-92900000D03*
D24*
X79600000Y-50900000D03*
X79600000Y-45900000D03*
D10*
X77060000Y-50900000D03*
X77060000Y-45900000D03*
D24*
X90450000Y-50900000D03*
X90450000Y-45900000D03*
D10*
X87910000Y-50900000D03*
X87910000Y-45900000D03*
D24*
X100990000Y-50850000D03*
X100990000Y-45850000D03*
D10*
X98450000Y-50850000D03*
X98450000Y-45850000D03*
D24*
X116900000Y-50850000D03*
X116900000Y-45850000D03*
D10*
X114360000Y-50850000D03*
X114360000Y-45850000D03*
X111820000Y-50850000D03*
X111820000Y-45850000D03*
X109280000Y-50850000D03*
X109280000Y-45850000D03*
D25*
X129550000Y-86075000D03*
X125850000Y-86075000D03*
X121850000Y-86075000D03*
X118150000Y-86075000D03*
X129550000Y-80075000D03*
X125850000Y-80075000D03*
X121850000Y-80075000D03*
X118150000Y-80075000D03*
X129550000Y-74075000D03*
X125850000Y-74075000D03*
X121850000Y-74075000D03*
X118150000Y-74075000D03*
X129550000Y-68075000D03*
X125850000Y-68075000D03*
X121850000Y-68075000D03*
X118150000Y-68075000D03*
X129550000Y-62075000D03*
X125850000Y-62075000D03*
X121850000Y-62075000D03*
X118150000Y-62075000D03*
D12*
X68715000Y-48950000D03*
X69685000Y-48950000D03*
X68715000Y-45350000D03*
X69685000Y-45350000D03*
D26*
X124235000Y-96800000D03*
X123265000Y-96800000D03*
X124217500Y-94100000D03*
X123247500Y-94100000D03*
D12*
X127127500Y-55600000D03*
X128097500Y-55600000D03*
X127177500Y-52600000D03*
X128147500Y-52600000D03*
X127215000Y-49600000D03*
X128185000Y-49600000D03*
D27*
X82850000Y-90160000D03*
X82850000Y-89190000D03*
X82850000Y-95307500D03*
X82850000Y-94337500D03*
D28*
X81150000Y-62440000D03*
D29*
X81150000Y-72600000D03*
D30*
X147650000Y-42500000D03*
X59250000Y-97400000D03*
X59250000Y-42500000D03*
X147600000Y-97500000D03*
M02*
