G04 #@! TF.GenerationSoftware,KiCad,Pcbnew,9.0.0*
G04 #@! TF.CreationDate,2025-04-02T18:04:16+02:00*
G04 #@! TF.ProjectId,CapyPower,43617079-506f-4776-9572-2e6b69636164,rev?*
G04 #@! TF.SameCoordinates,Original*
G04 #@! TF.FileFunction,Copper,L2,Bot*
G04 #@! TF.FilePolarity,Positive*
%FSLAX46Y46*%
G04 Gerber Fmt 4.6, Leading zero omitted, Abs format (unit mm)*
G04 Created by KiCad (PCBNEW 9.0.0) date 2025-04-02 18:04:16*
%MOMM*%
%LPD*%
G01*
G04 APERTURE LIST*
G04 Aperture macros list*
%AMRoundRect*
0 Rectangle with rounded corners*
0 $1 Rounding radius*
0 $2 $3 $4 $5 $6 $7 $8 $9 X,Y pos of 4 corners*
0 Add a 4 corners polygon primitive as box body*
4,1,4,$2,$3,$4,$5,$6,$7,$8,$9,$2,$3,0*
0 Add four circle primitives for the rounded corners*
1,1,$1+$1,$2,$3*
1,1,$1+$1,$4,$5*
1,1,$1+$1,$6,$7*
1,1,$1+$1,$8,$9*
0 Add four rect primitives between the rounded corners*
20,1,$1+$1,$2,$3,$4,$5,0*
20,1,$1+$1,$4,$5,$6,$7,0*
20,1,$1+$1,$6,$7,$8,$9,0*
20,1,$1+$1,$8,$9,$2,$3,0*%
G04 Aperture macros list end*
G04 #@! TA.AperFunction,ComponentPad*
%ADD10O,1.800000X3.200000*%
G04 #@! TD*
G04 #@! TA.AperFunction,ComponentPad*
%ADD11RoundRect,0.250000X-0.650000X-1.350000X0.650000X-1.350000X0.650000X1.350000X-0.650000X1.350000X0*%
G04 #@! TD*
G04 #@! TA.AperFunction,ComponentPad*
%ADD12C,1.508000*%
G04 #@! TD*
G04 #@! TA.AperFunction,ComponentPad*
%ADD13C,2.550000*%
G04 #@! TD*
G04 #@! TA.AperFunction,ComponentPad*
%ADD14R,2.550000X2.550000*%
G04 #@! TD*
G04 #@! TA.AperFunction,ComponentPad*
%ADD15C,2.000000*%
G04 #@! TD*
G04 #@! TA.AperFunction,ComponentPad*
%ADD16R,8.000000X2.000000*%
G04 #@! TD*
G04 #@! TA.AperFunction,ComponentPad*
%ADD17R,2.000000X8.000000*%
G04 #@! TD*
G04 #@! TA.AperFunction,ComponentPad*
%ADD18RoundRect,0.250000X0.650000X1.350000X-0.650000X1.350000X-0.650000X-1.350000X0.650000X-1.350000X0*%
G04 #@! TD*
G04 #@! TA.AperFunction,ComponentPad*
%ADD19RoundRect,0.393701X0.606299X1.106299X-0.606299X1.106299X-0.606299X-1.106299X0.606299X-1.106299X0*%
G04 #@! TD*
G04 #@! TA.AperFunction,ComponentPad*
%ADD20R,2.200000X2.200000*%
G04 #@! TD*
G04 #@! TA.AperFunction,ComponentPad*
%ADD21O,2.200000X2.200000*%
G04 #@! TD*
G04 #@! TA.AperFunction,ViaPad*
%ADD22C,3.200000*%
G04 #@! TD*
G04 #@! TA.AperFunction,ViaPad*
%ADD23C,0.600000*%
G04 #@! TD*
G04 #@! TA.AperFunction,Conductor*
%ADD24C,0.508000*%
G04 #@! TD*
G04 #@! TA.AperFunction,Conductor*
%ADD25C,0.254000*%
G04 #@! TD*
G04 APERTURE END LIST*
D10*
X77140000Y-94100000D03*
X77140000Y-89100000D03*
D11*
X74600000Y-94100000D03*
X74600000Y-89100000D03*
D10*
X67650000Y-94050000D03*
X67650000Y-89050000D03*
D11*
X65110000Y-94050000D03*
X65110000Y-89050000D03*
D12*
X146100000Y-64400000D03*
X146100000Y-75400000D03*
D13*
X136100000Y-72400000D03*
D14*
X136100000Y-67400000D03*
D15*
X67620000Y-79700000D03*
X65080000Y-79700000D03*
X74670000Y-79650000D03*
X72130000Y-79650000D03*
D16*
X91350000Y-70900000D03*
X100850000Y-62500000D03*
X100850000Y-79300000D03*
D17*
X101350000Y-70900000D03*
X108850000Y-70900000D03*
D14*
X95000000Y-86194250D03*
D13*
X90000000Y-86194250D03*
D12*
X87000000Y-96194250D03*
X98000000Y-96194250D03*
D14*
X109800000Y-86244250D03*
D13*
X104800000Y-86244250D03*
D12*
X101800000Y-96244250D03*
X112800000Y-96244250D03*
D14*
X136100000Y-83100000D03*
D13*
X136100000Y-88100000D03*
D12*
X146100000Y-91100000D03*
X146100000Y-80100000D03*
D14*
X136094250Y-51700000D03*
D13*
X136094250Y-56700000D03*
D12*
X146094250Y-59700000D03*
X146094250Y-48700000D03*
D14*
X70700000Y-70600000D03*
D13*
X70700000Y-65600000D03*
D12*
X60700000Y-62600000D03*
X60700000Y-73600000D03*
D18*
X79600000Y-50900000D03*
X79600000Y-45900000D03*
D10*
X77060000Y-50900000D03*
X77060000Y-45900000D03*
D18*
X90450000Y-50900000D03*
X90450000Y-45900000D03*
D10*
X87910000Y-50900000D03*
X87910000Y-45900000D03*
D18*
X100990000Y-50850000D03*
X100990000Y-45850000D03*
D10*
X98450000Y-50850000D03*
X98450000Y-45850000D03*
D18*
X116900000Y-50850000D03*
X116900000Y-45850000D03*
D10*
X114360000Y-50850000D03*
X114360000Y-45850000D03*
X111820000Y-50850000D03*
X111820000Y-45850000D03*
X109280000Y-50850000D03*
X109280000Y-45850000D03*
D19*
X129550000Y-86075000D03*
X125850000Y-86075000D03*
X121850000Y-86075000D03*
X118150000Y-86075000D03*
X129550000Y-80075000D03*
X125850000Y-80075000D03*
X121850000Y-80075000D03*
X118150000Y-80075000D03*
X129550000Y-74075000D03*
X125850000Y-74075000D03*
X121850000Y-74075000D03*
X118150000Y-74075000D03*
X129550000Y-68075000D03*
X125850000Y-68075000D03*
X121850000Y-68075000D03*
X118150000Y-68075000D03*
X129550000Y-62075000D03*
X125850000Y-62075000D03*
X121850000Y-62075000D03*
X118150000Y-62075000D03*
D20*
X81150000Y-62440000D03*
D21*
X81150000Y-72600000D03*
D22*
X147650000Y-42500000D03*
X59250000Y-97400000D03*
X59250000Y-42500000D03*
D23*
X132410000Y-62785000D03*
X133000000Y-69300000D03*
X126062500Y-55600000D03*
X126062500Y-52600000D03*
X126050000Y-49600000D03*
X119900000Y-95850000D03*
X120950000Y-90000000D03*
X125800000Y-95650000D03*
X68750000Y-47200000D03*
X68715000Y-51350000D03*
X83950000Y-90150000D03*
X84000000Y-95300000D03*
D22*
X147600000Y-97500000D03*
D24*
X132410000Y-66585000D02*
X132410000Y-62785000D01*
X133000000Y-67175000D02*
X132410000Y-66585000D01*
X133000000Y-69300000D02*
X133000000Y-67175000D01*
X122200000Y-91250000D02*
X120950000Y-90000000D01*
X122200000Y-94850000D02*
X122200000Y-91250000D01*
X119900000Y-95850000D02*
X121200000Y-95850000D01*
X121200000Y-95850000D02*
X122200000Y-94850000D01*
D25*
X76950000Y-66640000D02*
X81150000Y-62440000D01*
X76950000Y-77370000D02*
X76950000Y-66640000D01*
X74670000Y-79650000D02*
X76950000Y-77370000D01*
G04 #@! TA.AperFunction,Conductor*
G36*
X113847482Y-50637708D02*
G01*
X113810000Y-50777591D01*
X113810000Y-50922409D01*
X113847482Y-51062292D01*
X113869252Y-51100000D01*
X112310748Y-51100000D01*
X112332518Y-51062292D01*
X112370000Y-50922409D01*
X112370000Y-50777591D01*
X112332518Y-50637708D01*
X112310748Y-50600000D01*
X113869252Y-50600000D01*
X113847482Y-50637708D01*
G37*
G04 #@! TD.AperFunction*
G04 #@! TA.AperFunction,Conductor*
G36*
X98126313Y-43569685D02*
G01*
X98172068Y-43622489D01*
X98182012Y-43691647D01*
X98152987Y-43755203D01*
X98097592Y-43791931D01*
X97912396Y-43852103D01*
X97912393Y-43852104D01*
X97715974Y-43952187D01*
X97537641Y-44081752D01*
X97537636Y-44081756D01*
X97381756Y-44237636D01*
X97381752Y-44237641D01*
X97252187Y-44415974D01*
X97152104Y-44612393D01*
X97152103Y-44612396D01*
X97083985Y-44822047D01*
X97049500Y-45039778D01*
X97049500Y-46660221D01*
X97083985Y-46877952D01*
X97152103Y-47087603D01*
X97152104Y-47087606D01*
X97220122Y-47221096D01*
X97246912Y-47273674D01*
X97252187Y-47284025D01*
X97381752Y-47462358D01*
X97381756Y-47462363D01*
X97537636Y-47618243D01*
X97537641Y-47618247D01*
X97675416Y-47718345D01*
X97715978Y-47747815D01*
X97844375Y-47813237D01*
X97912393Y-47847895D01*
X97912396Y-47847896D01*
X98017221Y-47881955D01*
X98122049Y-47916015D01*
X98339778Y-47950500D01*
X98339779Y-47950500D01*
X98560221Y-47950500D01*
X98560222Y-47950500D01*
X98777951Y-47916015D01*
X98987606Y-47847895D01*
X99184022Y-47747815D01*
X99362365Y-47618242D01*
X99470683Y-47509923D01*
X99532002Y-47476441D01*
X99601694Y-47481425D01*
X99657628Y-47523296D01*
X99663900Y-47532510D01*
X99747684Y-47668345D01*
X99871654Y-47792315D01*
X100020875Y-47884356D01*
X100020880Y-47884358D01*
X100187302Y-47939505D01*
X100187309Y-47939506D01*
X100290019Y-47949999D01*
X100739999Y-47949999D01*
X100740000Y-47949998D01*
X100740000Y-46340747D01*
X100777708Y-46362518D01*
X100917591Y-46400000D01*
X101062409Y-46400000D01*
X101202292Y-46362518D01*
X101240000Y-46340747D01*
X101240000Y-47949999D01*
X101689972Y-47949999D01*
X101689986Y-47949998D01*
X101792697Y-47939505D01*
X101959119Y-47884358D01*
X101959124Y-47884356D01*
X102108345Y-47792315D01*
X102232315Y-47668345D01*
X102324356Y-47519124D01*
X102324358Y-47519119D01*
X102379505Y-47352697D01*
X102379506Y-47352690D01*
X102389999Y-47249986D01*
X102390000Y-47249973D01*
X102390000Y-46100000D01*
X101480748Y-46100000D01*
X101502518Y-46062292D01*
X101540000Y-45922409D01*
X101540000Y-45777591D01*
X101502518Y-45637708D01*
X101480748Y-45600000D01*
X102389999Y-45600000D01*
X102389999Y-44450028D01*
X102389998Y-44450013D01*
X102379505Y-44347302D01*
X102324358Y-44180880D01*
X102324356Y-44180875D01*
X102232315Y-44031654D01*
X102108345Y-43907684D01*
X101959124Y-43815643D01*
X101959119Y-43815641D01*
X101886886Y-43791706D01*
X101829441Y-43751934D01*
X101802618Y-43687418D01*
X101814933Y-43618642D01*
X101862476Y-43567442D01*
X101925890Y-43550000D01*
X108889274Y-43550000D01*
X108956313Y-43569685D01*
X109002068Y-43622489D01*
X109012012Y-43691647D01*
X108982987Y-43755203D01*
X108927592Y-43791931D01*
X108742396Y-43852103D01*
X108742393Y-43852104D01*
X108545974Y-43952187D01*
X108367641Y-44081752D01*
X108367636Y-44081756D01*
X108211756Y-44237636D01*
X108211752Y-44237641D01*
X108082187Y-44415974D01*
X107982104Y-44612393D01*
X107982103Y-44612396D01*
X107913985Y-44822047D01*
X107879500Y-45039778D01*
X107879500Y-46660221D01*
X107913985Y-46877952D01*
X107982103Y-47087603D01*
X107982104Y-47087606D01*
X108050122Y-47221096D01*
X108076912Y-47273674D01*
X108082187Y-47284025D01*
X108211752Y-47462358D01*
X108211756Y-47462363D01*
X108367636Y-47618243D01*
X108367641Y-47618247D01*
X108505416Y-47718345D01*
X108545978Y-47747815D01*
X108674375Y-47813237D01*
X108742393Y-47847895D01*
X108742396Y-47847896D01*
X108847221Y-47881955D01*
X108952049Y-47916015D01*
X109169778Y-47950500D01*
X109169779Y-47950500D01*
X109390221Y-47950500D01*
X109390222Y-47950500D01*
X109607951Y-47916015D01*
X109817606Y-47847895D01*
X110014022Y-47747815D01*
X110192365Y-47618242D01*
X110348242Y-47462365D01*
X110449991Y-47322317D01*
X110505320Y-47279653D01*
X110574933Y-47273674D01*
X110636729Y-47306279D01*
X110650627Y-47322318D01*
X110752142Y-47462041D01*
X110907958Y-47617857D01*
X111086239Y-47747386D01*
X111282589Y-47847432D01*
X111492163Y-47915526D01*
X111569999Y-47927854D01*
X111570000Y-47927854D01*
X111570000Y-46340747D01*
X111607708Y-46362518D01*
X111747591Y-46400000D01*
X111892409Y-46400000D01*
X112032292Y-46362518D01*
X112070000Y-46340747D01*
X112070000Y-47927854D01*
X112147834Y-47915526D01*
X112147837Y-47915526D01*
X112357410Y-47847432D01*
X112553760Y-47747386D01*
X112732041Y-47617857D01*
X112887857Y-47462041D01*
X112887862Y-47462035D01*
X112989682Y-47321893D01*
X113045012Y-47279227D01*
X113114625Y-47273248D01*
X113176420Y-47305854D01*
X113190318Y-47321893D01*
X113292137Y-47462035D01*
X113292142Y-47462041D01*
X113447958Y-47617857D01*
X113626239Y-47747386D01*
X113822589Y-47847432D01*
X114032163Y-47915526D01*
X114109999Y-47927854D01*
X114110000Y-47927854D01*
X114110000Y-46340747D01*
X114147708Y-46362518D01*
X114287591Y-46400000D01*
X114432409Y-46400000D01*
X114572292Y-46362518D01*
X114610000Y-46340747D01*
X114610000Y-47927854D01*
X114687834Y-47915526D01*
X114687837Y-47915526D01*
X114897410Y-47847432D01*
X115093760Y-47747386D01*
X115272037Y-47617860D01*
X115380046Y-47509851D01*
X115441369Y-47476366D01*
X115511061Y-47481350D01*
X115566995Y-47523221D01*
X115573263Y-47532430D01*
X115657288Y-47668656D01*
X115781344Y-47792712D01*
X115930666Y-47884814D01*
X116097203Y-47939999D01*
X116199991Y-47950500D01*
X117600008Y-47950499D01*
X117702797Y-47939999D01*
X117869334Y-47884814D01*
X118018656Y-47792712D01*
X118142712Y-47668656D01*
X118234814Y-47519334D01*
X118289999Y-47352797D01*
X118300500Y-47250009D01*
X118300499Y-44449992D01*
X118297024Y-44415978D01*
X118289999Y-44347203D01*
X118289998Y-44347200D01*
X118262499Y-44264214D01*
X118234814Y-44180666D01*
X118142712Y-44031344D01*
X118018656Y-43907288D01*
X117869334Y-43815186D01*
X117798473Y-43791705D01*
X117741030Y-43751933D01*
X117714207Y-43687417D01*
X117726522Y-43618642D01*
X117774065Y-43567442D01*
X117837479Y-43550000D01*
X137925888Y-43550000D01*
X137992927Y-43569685D01*
X138038682Y-43622489D01*
X138049888Y-43674111D01*
X138044096Y-50120090D01*
X138024351Y-50187112D01*
X137971506Y-50232820D01*
X137902339Y-50242701D01*
X137838809Y-50213619D01*
X137819140Y-50189186D01*
X137818362Y-50189769D01*
X137726797Y-50067455D01*
X137726794Y-50067452D01*
X137611585Y-49981206D01*
X137611578Y-49981202D01*
X137476732Y-49930908D01*
X137476733Y-49930908D01*
X137417133Y-49924501D01*
X137417131Y-49924500D01*
X137417123Y-49924500D01*
X137417114Y-49924500D01*
X134771379Y-49924500D01*
X134771373Y-49924501D01*
X134711766Y-49930908D01*
X134576921Y-49981202D01*
X134576914Y-49981206D01*
X134461705Y-50067452D01*
X134461702Y-50067455D01*
X134375456Y-50182664D01*
X134375452Y-50182671D01*
X134325158Y-50317517D01*
X134318751Y-50377116D01*
X134318750Y-50377135D01*
X134318750Y-53022870D01*
X134318751Y-53022876D01*
X134325158Y-53082483D01*
X134375452Y-53217328D01*
X134375456Y-53217335D01*
X134461702Y-53332544D01*
X134461705Y-53332547D01*
X134576914Y-53418793D01*
X134576921Y-53418797D01*
X134711767Y-53469091D01*
X134711766Y-53469091D01*
X134718694Y-53469835D01*
X134771377Y-53475500D01*
X137417122Y-53475499D01*
X137476733Y-53469091D01*
X137611581Y-53418796D01*
X137726796Y-53332546D01*
X137813046Y-53217331D01*
X137813046Y-53217328D01*
X137817986Y-53210731D01*
X137873920Y-53168860D01*
X137943612Y-53163876D01*
X138004935Y-53197361D01*
X138038419Y-53258685D01*
X138041253Y-53285153D01*
X138038673Y-56156848D01*
X138018928Y-56223870D01*
X137966083Y-56269578D01*
X137896916Y-56279459D01*
X137833386Y-56250377D01*
X137795665Y-56191565D01*
X137794898Y-56188831D01*
X137778657Y-56128220D01*
X137689617Y-55913259D01*
X137689613Y-55913249D01*
X137573279Y-55711752D01*
X137513697Y-55634104D01*
X137513696Y-55634104D01*
X136848364Y-56299436D01*
X136847510Y-56297374D01*
X136754488Y-56158156D01*
X136636094Y-56039762D01*
X136496876Y-55946740D01*
X136494810Y-55945884D01*
X137160144Y-55280551D01*
X137082498Y-55220970D01*
X136881000Y-55104636D01*
X136880990Y-55104632D01*
X136666029Y-55015592D01*
X136441274Y-54955369D01*
X136210591Y-54925000D01*
X135977909Y-54925000D01*
X135747225Y-54955369D01*
X135522470Y-55015592D01*
X135307509Y-55104632D01*
X135307499Y-55104636D01*
X135105997Y-55220973D01*
X135028354Y-55280550D01*
X135028354Y-55280551D01*
X135693688Y-55945885D01*
X135691624Y-55946740D01*
X135552406Y-56039762D01*
X135434012Y-56158156D01*
X135340990Y-56297374D01*
X135340135Y-56299438D01*
X134674801Y-55634104D01*
X134674800Y-55634104D01*
X134615223Y-55711747D01*
X134498886Y-55913249D01*
X134498882Y-55913259D01*
X134409842Y-56128220D01*
X134349619Y-56352975D01*
X134319250Y-56583659D01*
X134319250Y-56816340D01*
X134349619Y-57047024D01*
X134409842Y-57271779D01*
X134498882Y-57486740D01*
X134498886Y-57486750D01*
X134615220Y-57688248D01*
X134674801Y-57765894D01*
X135340134Y-57100560D01*
X135340990Y-57102626D01*
X135434012Y-57241844D01*
X135552406Y-57360238D01*
X135691624Y-57453260D01*
X135693687Y-57454114D01*
X135028354Y-58119446D01*
X135028354Y-58119447D01*
X135106002Y-58179029D01*
X135307499Y-58295363D01*
X135307509Y-58295367D01*
X135522470Y-58384407D01*
X135747225Y-58444630D01*
X135977909Y-58475000D01*
X136210591Y-58475000D01*
X136441274Y-58444630D01*
X136666029Y-58384407D01*
X136880990Y-58295367D01*
X136881000Y-58295363D01*
X137082505Y-58179024D01*
X137160144Y-58119447D01*
X137160144Y-58119446D01*
X136494812Y-57454114D01*
X136496876Y-57453260D01*
X136636094Y-57360238D01*
X136754488Y-57241844D01*
X136847510Y-57102626D01*
X136848364Y-57100562D01*
X137513696Y-57765894D01*
X137513697Y-57765894D01*
X137573274Y-57688255D01*
X137689613Y-57486750D01*
X137689617Y-57486740D01*
X137778658Y-57271776D01*
X137793918Y-57214826D01*
X137830282Y-57155165D01*
X137893129Y-57124635D01*
X137962504Y-57132929D01*
X138016383Y-57177414D01*
X138037658Y-57243966D01*
X138037693Y-57247029D01*
X138030015Y-65792376D01*
X138010270Y-65859398D01*
X137957425Y-65905106D01*
X137888258Y-65914987D01*
X137824728Y-65885905D01*
X137806751Y-65866580D01*
X137732546Y-65767454D01*
X137664267Y-65716340D01*
X137617335Y-65681206D01*
X137617328Y-65681202D01*
X137482482Y-65630908D01*
X137482483Y-65630908D01*
X137422883Y-65624501D01*
X137422881Y-65624500D01*
X137422873Y-65624500D01*
X137422864Y-65624500D01*
X134777129Y-65624500D01*
X134777123Y-65624501D01*
X134717516Y-65630908D01*
X134582671Y-65681202D01*
X134582664Y-65681206D01*
X134467455Y-65767452D01*
X134467452Y-65767455D01*
X134381206Y-65882664D01*
X134381202Y-65882671D01*
X134330908Y-66017517D01*
X134324501Y-66077116D01*
X134324500Y-66077135D01*
X134324500Y-68722870D01*
X134324501Y-68722876D01*
X134330908Y-68782483D01*
X134381202Y-68917328D01*
X134381206Y-68917335D01*
X134467452Y-69032544D01*
X134467455Y-69032547D01*
X134582664Y-69118793D01*
X134582671Y-69118797D01*
X134717517Y-69169091D01*
X134717516Y-69169091D01*
X134724444Y-69169835D01*
X134777127Y-69175500D01*
X137422872Y-69175499D01*
X137482483Y-69169091D01*
X137617331Y-69118796D01*
X137732546Y-69032546D01*
X137803858Y-68937285D01*
X137859790Y-68895416D01*
X137929482Y-68890432D01*
X137990805Y-68923917D01*
X138024289Y-68985240D01*
X138027123Y-69011709D01*
X138024631Y-71784951D01*
X138004886Y-71851973D01*
X137952041Y-71897681D01*
X137882874Y-71907562D01*
X137819344Y-71878480D01*
X137787655Y-71831269D01*
X137785961Y-71831971D01*
X137695367Y-71613259D01*
X137695363Y-71613249D01*
X137579029Y-71411752D01*
X137519447Y-71334104D01*
X137519446Y-71334104D01*
X136854114Y-71999436D01*
X136853260Y-71997374D01*
X136760238Y-71858156D01*
X136641844Y-71739762D01*
X136502626Y-71646740D01*
X136500560Y-71645884D01*
X137165894Y-70980551D01*
X137088248Y-70920970D01*
X136886750Y-70804636D01*
X136886740Y-70804632D01*
X136671779Y-70715592D01*
X136447024Y-70655369D01*
X136216341Y-70625000D01*
X135983659Y-70625000D01*
X135752975Y-70655369D01*
X135528220Y-70715592D01*
X135313259Y-70804632D01*
X135313249Y-70804636D01*
X135111747Y-70920973D01*
X135034104Y-70980550D01*
X135034104Y-70980551D01*
X135699438Y-71645885D01*
X135697374Y-71646740D01*
X135558156Y-71739762D01*
X135439762Y-71858156D01*
X135346740Y-71997374D01*
X135345885Y-71999438D01*
X134680551Y-71334104D01*
X134680550Y-71334104D01*
X134620973Y-71411747D01*
X134504636Y-71613249D01*
X134504632Y-71613259D01*
X134415592Y-71828220D01*
X134355369Y-72052975D01*
X134325000Y-72283659D01*
X134325000Y-72516340D01*
X134355369Y-72747024D01*
X134415592Y-72971779D01*
X134504632Y-73186740D01*
X134504636Y-73186750D01*
X134620970Y-73388248D01*
X134680551Y-73465894D01*
X135345884Y-72800560D01*
X135346740Y-72802626D01*
X135439762Y-72941844D01*
X135558156Y-73060238D01*
X135697374Y-73153260D01*
X135699437Y-73154114D01*
X135034104Y-73819446D01*
X135034104Y-73819447D01*
X135111752Y-73879029D01*
X135313249Y-73995363D01*
X135313259Y-73995367D01*
X135528220Y-74084407D01*
X135752975Y-74144630D01*
X135983659Y-74175000D01*
X136216341Y-74175000D01*
X136447024Y-74144630D01*
X136671779Y-74084407D01*
X136886740Y-73995367D01*
X136886750Y-73995363D01*
X137088255Y-73879024D01*
X137165894Y-73819447D01*
X137165894Y-73819446D01*
X136500562Y-73154114D01*
X136502626Y-73153260D01*
X136641844Y-73060238D01*
X136760238Y-72941844D01*
X136853260Y-72802626D01*
X136854114Y-72800562D01*
X137519446Y-73465894D01*
X137519447Y-73465894D01*
X137579024Y-73388255D01*
X137695363Y-73186750D01*
X137695370Y-73186735D01*
X137784962Y-72970440D01*
X137828803Y-72916036D01*
X137895097Y-72893971D01*
X137962796Y-72911250D01*
X138010407Y-72962387D01*
X138023523Y-73018003D01*
X138015926Y-81473555D01*
X137996181Y-81540577D01*
X137943336Y-81586285D01*
X137874169Y-81596166D01*
X137810639Y-81567084D01*
X137792660Y-81547755D01*
X137732547Y-81467455D01*
X137732544Y-81467452D01*
X137617335Y-81381206D01*
X137617328Y-81381202D01*
X137482482Y-81330908D01*
X137482483Y-81330908D01*
X137422883Y-81324501D01*
X137422881Y-81324500D01*
X137422873Y-81324500D01*
X137422864Y-81324500D01*
X134777129Y-81324500D01*
X134777123Y-81324501D01*
X134717516Y-81330908D01*
X134582671Y-81381202D01*
X134582664Y-81381206D01*
X134467455Y-81467452D01*
X134467452Y-81467455D01*
X134381206Y-81582664D01*
X134381202Y-81582671D01*
X134330908Y-81717517D01*
X134324501Y-81777116D01*
X134324500Y-81777135D01*
X134324500Y-84422870D01*
X134324501Y-84422876D01*
X134330908Y-84482483D01*
X134381202Y-84617328D01*
X134381206Y-84617335D01*
X134467452Y-84732544D01*
X134467455Y-84732547D01*
X134582664Y-84818793D01*
X134582671Y-84818797D01*
X134717517Y-84869091D01*
X134717516Y-84869091D01*
X134724444Y-84869835D01*
X134777127Y-84875500D01*
X137422872Y-84875499D01*
X137482483Y-84869091D01*
X137617331Y-84818796D01*
X137732546Y-84732546D01*
X137789734Y-84656151D01*
X137845667Y-84614282D01*
X137915359Y-84609298D01*
X137976682Y-84642783D01*
X138010166Y-84704107D01*
X138013000Y-84730575D01*
X138010556Y-87450912D01*
X137990811Y-87517934D01*
X137937966Y-87563642D01*
X137868799Y-87573523D01*
X137805269Y-87544441D01*
X137771995Y-87498254D01*
X137695367Y-87313259D01*
X137695363Y-87313249D01*
X137579029Y-87111752D01*
X137519447Y-87034104D01*
X137519446Y-87034104D01*
X136854114Y-87699436D01*
X136853260Y-87697374D01*
X136760238Y-87558156D01*
X136641844Y-87439762D01*
X136502626Y-87346740D01*
X136500560Y-87345884D01*
X137165894Y-86680551D01*
X137088248Y-86620970D01*
X136886750Y-86504636D01*
X136886740Y-86504632D01*
X136671779Y-86415592D01*
X136447024Y-86355369D01*
X136216341Y-86325000D01*
X135983659Y-86325000D01*
X135752975Y-86355369D01*
X135528220Y-86415592D01*
X135313259Y-86504632D01*
X135313249Y-86504636D01*
X135111747Y-86620973D01*
X135034104Y-86680550D01*
X135034104Y-86680551D01*
X135699438Y-87345885D01*
X135697374Y-87346740D01*
X135558156Y-87439762D01*
X135439762Y-87558156D01*
X135346740Y-87697374D01*
X135345885Y-87699438D01*
X134680551Y-87034104D01*
X134680550Y-87034104D01*
X134620973Y-87111747D01*
X134504636Y-87313249D01*
X134504632Y-87313259D01*
X134415592Y-87528220D01*
X134355369Y-87752975D01*
X134325000Y-87983659D01*
X134325000Y-88216340D01*
X134355369Y-88447024D01*
X134415592Y-88671779D01*
X134504632Y-88886740D01*
X134504636Y-88886750D01*
X134620970Y-89088248D01*
X134680551Y-89165894D01*
X135345884Y-88500560D01*
X135346740Y-88502626D01*
X135439762Y-88641844D01*
X135558156Y-88760238D01*
X135697374Y-88853260D01*
X135699437Y-88854114D01*
X135034104Y-89519446D01*
X135034104Y-89519447D01*
X135111752Y-89579029D01*
X135313249Y-89695363D01*
X135313259Y-89695367D01*
X135528220Y-89784407D01*
X135752975Y-89844630D01*
X135983659Y-89875000D01*
X136216341Y-89875000D01*
X136447024Y-89844630D01*
X136671779Y-89784407D01*
X136886740Y-89695367D01*
X136886750Y-89695363D01*
X137088255Y-89579024D01*
X137165894Y-89519447D01*
X137165894Y-89519446D01*
X136500562Y-88854114D01*
X136502626Y-88853260D01*
X136641844Y-88760238D01*
X136760238Y-88641844D01*
X136853260Y-88502626D01*
X136854114Y-88500562D01*
X137519446Y-89165894D01*
X137519447Y-89165894D01*
X137579024Y-89088255D01*
X137695363Y-88886750D01*
X137695367Y-88886740D01*
X137770826Y-88704568D01*
X137814667Y-88650165D01*
X137880961Y-88628100D01*
X137948660Y-88645379D01*
X137996271Y-88696516D01*
X138009387Y-88752132D01*
X138000291Y-98875611D01*
X137980546Y-98942633D01*
X137927701Y-98988341D01*
X137876291Y-98999500D01*
X61426748Y-98999500D01*
X61299452Y-99033608D01*
X61185326Y-99099500D01*
X61185322Y-99099503D01*
X61141389Y-99143436D01*
X61135938Y-99148568D01*
X61113086Y-99168814D01*
X61049854Y-99198536D01*
X61030857Y-99200000D01*
X60719523Y-99200000D01*
X60652484Y-99180315D01*
X60606729Y-99127511D01*
X60596785Y-99058353D01*
X60625810Y-98994797D01*
X60637770Y-98982767D01*
X60637923Y-98982631D01*
X60637928Y-98982628D01*
X60832628Y-98787928D01*
X61000249Y-98569479D01*
X61137923Y-98331021D01*
X61243295Y-98076632D01*
X61314560Y-97810666D01*
X61350500Y-97537674D01*
X61350500Y-97262326D01*
X61314560Y-96989334D01*
X61243295Y-96723368D01*
X61137923Y-96468979D01*
X61137921Y-96468976D01*
X61137919Y-96468971D01*
X61036310Y-96292981D01*
X61000249Y-96230521D01*
X60832628Y-96012072D01*
X60832623Y-96012066D01*
X60637933Y-95817376D01*
X60637926Y-95817370D01*
X60419483Y-95649754D01*
X60419482Y-95649753D01*
X60419479Y-95649751D01*
X60272122Y-95564674D01*
X60181028Y-95512080D01*
X60181017Y-95512075D01*
X59926630Y-95406704D01*
X59793649Y-95371072D01*
X59660666Y-95335440D01*
X59626683Y-95330966D01*
X59507814Y-95315316D01*
X59443918Y-95287049D01*
X59405447Y-95228724D01*
X59400000Y-95192377D01*
X59400000Y-92649983D01*
X63709500Y-92649983D01*
X63709500Y-95450001D01*
X63709501Y-95450018D01*
X63720000Y-95552796D01*
X63720001Y-95552799D01*
X63775185Y-95719331D01*
X63775187Y-95719336D01*
X63795809Y-95752769D01*
X63867288Y-95868656D01*
X63991344Y-95992712D01*
X64140666Y-96084814D01*
X64307203Y-96139999D01*
X64409991Y-96150500D01*
X65810008Y-96150499D01*
X65912797Y-96139999D01*
X66079334Y-96084814D01*
X66228656Y-95992712D01*
X66352712Y-95868656D01*
X66436463Y-95732872D01*
X66488410Y-95686149D01*
X66557372Y-95674926D01*
X66621454Y-95702769D01*
X66629682Y-95710289D01*
X66737636Y-95818243D01*
X66737641Y-95818247D01*
X66850835Y-95900486D01*
X66915978Y-95947815D01*
X67042076Y-96012066D01*
X67112393Y-96047895D01*
X67112396Y-96047896D01*
X67217221Y-96081955D01*
X67322049Y-96116015D01*
X67539778Y-96150500D01*
X67539779Y-96150500D01*
X67760221Y-96150500D01*
X67760222Y-96150500D01*
X67977951Y-96116015D01*
X68187606Y-96047895D01*
X68384022Y-95947815D01*
X68562365Y-95818242D01*
X68718242Y-95662365D01*
X68847815Y-95484022D01*
X68947895Y-95287606D01*
X69016015Y-95077951D01*
X69050500Y-94860222D01*
X69050500Y-93239778D01*
X69016015Y-93022049D01*
X68981955Y-92917221D01*
X68947896Y-92812396D01*
X68947895Y-92812393D01*
X68917698Y-92753129D01*
X68917697Y-92753127D01*
X68890618Y-92699983D01*
X73199500Y-92699983D01*
X73199500Y-95500001D01*
X73199501Y-95500018D01*
X73210000Y-95602796D01*
X73210001Y-95602799D01*
X73265185Y-95769331D01*
X73265187Y-95769336D01*
X73295353Y-95818243D01*
X73357288Y-95918656D01*
X73481344Y-96042712D01*
X73630666Y-96134814D01*
X73797203Y-96189999D01*
X73899991Y-96200500D01*
X75300008Y-96200499D01*
X75402797Y-96189999D01*
X75569334Y-96134814D01*
X75718656Y-96042712D01*
X75842712Y-95918656D01*
X75926463Y-95782872D01*
X75978410Y-95736149D01*
X76047372Y-95724926D01*
X76111454Y-95752769D01*
X76119682Y-95760289D01*
X76227636Y-95868243D01*
X76227641Y-95868247D01*
X76344219Y-95952945D01*
X76405978Y-95997815D01*
X76534375Y-96063237D01*
X76602393Y-96097895D01*
X76602396Y-96097896D01*
X76658159Y-96116014D01*
X76812049Y-96166015D01*
X77029778Y-96200500D01*
X77029779Y-96200500D01*
X77250221Y-96200500D01*
X77250222Y-96200500D01*
X77467951Y-96166015D01*
X77677606Y-96097895D01*
X77682281Y-96095513D01*
X85745500Y-96095513D01*
X85745500Y-96292986D01*
X85776389Y-96488013D01*
X85819190Y-96619738D01*
X85837409Y-96675811D01*
X85862886Y-96725811D01*
X85927058Y-96851754D01*
X86043115Y-97011496D01*
X86182753Y-97151134D01*
X86332234Y-97259736D01*
X86342499Y-97267194D01*
X86518439Y-97356841D01*
X86643637Y-97397520D01*
X86706236Y-97417860D01*
X86901264Y-97448750D01*
X86901269Y-97448750D01*
X87098736Y-97448750D01*
X87293763Y-97417860D01*
X87327676Y-97406841D01*
X87481561Y-97356841D01*
X87657501Y-97267194D01*
X87747192Y-97202029D01*
X87817246Y-97151134D01*
X87817248Y-97151131D01*
X87817252Y-97151129D01*
X87956879Y-97011502D01*
X87956881Y-97011498D01*
X87956884Y-97011496D01*
X88036617Y-96901751D01*
X88072944Y-96851751D01*
X88162591Y-96675811D01*
X88223610Y-96488013D01*
X88231839Y-96436056D01*
X88254500Y-96292986D01*
X88254500Y-96095513D01*
X96745500Y-96095513D01*
X96745500Y-96292986D01*
X96776389Y-96488013D01*
X96819190Y-96619738D01*
X96837409Y-96675811D01*
X96862886Y-96725811D01*
X96927058Y-96851754D01*
X97043115Y-97011496D01*
X97182753Y-97151134D01*
X97332234Y-97259736D01*
X97342499Y-97267194D01*
X97518439Y-97356841D01*
X97643637Y-97397520D01*
X97706236Y-97417860D01*
X97901264Y-97448750D01*
X97901269Y-97448750D01*
X98098736Y-97448750D01*
X98293763Y-97417860D01*
X98327676Y-97406841D01*
X98481561Y-97356841D01*
X98657501Y-97267194D01*
X98747192Y-97202029D01*
X98817246Y-97151134D01*
X98817248Y-97151131D01*
X98817252Y-97151129D01*
X98956879Y-97011502D01*
X98956881Y-97011498D01*
X98956884Y-97011496D01*
X99036617Y-96901751D01*
X99072944Y-96851751D01*
X99162591Y-96675811D01*
X99223610Y-96488013D01*
X99231839Y-96436056D01*
X99254500Y-96292986D01*
X99254500Y-96145513D01*
X100545500Y-96145513D01*
X100545500Y-96342986D01*
X100576389Y-96538013D01*
X100612939Y-96650500D01*
X100637409Y-96725811D01*
X100701581Y-96851754D01*
X100727058Y-96901754D01*
X100843115Y-97061496D01*
X100982753Y-97201134D01*
X101066987Y-97262332D01*
X101142499Y-97317194D01*
X101318439Y-97406841D01*
X101443637Y-97447520D01*
X101506236Y-97467860D01*
X101701264Y-97498750D01*
X101701269Y-97498750D01*
X101898736Y-97498750D01*
X102093763Y-97467860D01*
X102281561Y-97406841D01*
X102457501Y-97317194D01*
X102580592Y-97227764D01*
X102617246Y-97201134D01*
X102617248Y-97201131D01*
X102617252Y-97201129D01*
X102756879Y-97061502D01*
X102756881Y-97061498D01*
X102756884Y-97061496D01*
X102809314Y-96989331D01*
X102872944Y-96901751D01*
X102962591Y-96725811D01*
X103023610Y-96538013D01*
X103026680Y-96518630D01*
X103054500Y-96342986D01*
X103054500Y-96145513D01*
X111545500Y-96145513D01*
X111545500Y-96342986D01*
X111576389Y-96538013D01*
X111612939Y-96650500D01*
X111637409Y-96725811D01*
X111701581Y-96851754D01*
X111727058Y-96901754D01*
X111843115Y-97061496D01*
X111982753Y-97201134D01*
X112066987Y-97262332D01*
X112142499Y-97317194D01*
X112318439Y-97406841D01*
X112443637Y-97447520D01*
X112506236Y-97467860D01*
X112701264Y-97498750D01*
X112701269Y-97498750D01*
X112898736Y-97498750D01*
X113093763Y-97467860D01*
X113281561Y-97406841D01*
X113457501Y-97317194D01*
X113580592Y-97227764D01*
X113617246Y-97201134D01*
X113617248Y-97201131D01*
X113617252Y-97201129D01*
X113756879Y-97061502D01*
X113756881Y-97061498D01*
X113756884Y-97061496D01*
X113809314Y-96989331D01*
X113872944Y-96901751D01*
X113962591Y-96725811D01*
X114023610Y-96538013D01*
X114026680Y-96518630D01*
X114054500Y-96342986D01*
X114054500Y-96145513D01*
X114023610Y-95950488D01*
X114023610Y-95950487D01*
X113965341Y-95771153D01*
X119099500Y-95771153D01*
X119099500Y-95928846D01*
X119130261Y-96083489D01*
X119130264Y-96083501D01*
X119190602Y-96229172D01*
X119190609Y-96229185D01*
X119278210Y-96360288D01*
X119278213Y-96360292D01*
X119389707Y-96471786D01*
X119389711Y-96471789D01*
X119520814Y-96559390D01*
X119520827Y-96559397D01*
X119652503Y-96613938D01*
X119666503Y-96619737D01*
X119818076Y-96649887D01*
X119821153Y-96650499D01*
X119821156Y-96650500D01*
X119821158Y-96650500D01*
X119978844Y-96650500D01*
X119978845Y-96650499D01*
X120056408Y-96635071D01*
X120133488Y-96619739D01*
X120133489Y-96619738D01*
X120133497Y-96619737D01*
X120147498Y-96613937D01*
X120194947Y-96604500D01*
X121119554Y-96604500D01*
X121119574Y-96604501D01*
X121125688Y-96604501D01*
X121274314Y-96604501D01*
X121311009Y-96597200D01*
X121395894Y-96580315D01*
X121420080Y-96575505D01*
X121476955Y-96551946D01*
X121557389Y-96518630D01*
X121680966Y-96436059D01*
X122680963Y-95436060D01*
X122680966Y-95436059D01*
X122786059Y-95330966D01*
X122868629Y-95207390D01*
X122868630Y-95207389D01*
X122908916Y-95110130D01*
X122925505Y-95070080D01*
X122932846Y-95033174D01*
X122954501Y-94924312D01*
X122954501Y-94775688D01*
X122954501Y-94770578D01*
X122954500Y-94770552D01*
X122954500Y-91330446D01*
X122954501Y-91330425D01*
X122954501Y-91175685D01*
X122925506Y-91029925D01*
X122925504Y-91029919D01*
X122912236Y-90997887D01*
X122912231Y-90997877D01*
X122912206Y-90997815D01*
X122879418Y-90918656D01*
X122868630Y-90892611D01*
X122786059Y-90769034D01*
X122786057Y-90769031D01*
X122786056Y-90769030D01*
X121692072Y-89675047D01*
X121674024Y-89652153D01*
X121668925Y-89643831D01*
X121659394Y-89620821D01*
X121604304Y-89538373D01*
X121604296Y-89538360D01*
X121571789Y-89489711D01*
X121571786Y-89489707D01*
X121460292Y-89378213D01*
X121460288Y-89378210D01*
X121329185Y-89290609D01*
X121329172Y-89290602D01*
X121183501Y-89230264D01*
X121183489Y-89230261D01*
X121028845Y-89199500D01*
X121028842Y-89199500D01*
X120871158Y-89199500D01*
X120871155Y-89199500D01*
X120716510Y-89230261D01*
X120716498Y-89230264D01*
X120570827Y-89290602D01*
X120570814Y-89290609D01*
X120439711Y-89378210D01*
X120439707Y-89378213D01*
X120328213Y-89489707D01*
X120328210Y-89489711D01*
X120240609Y-89620814D01*
X120240602Y-89620827D01*
X120180264Y-89766498D01*
X120180261Y-89766510D01*
X120149500Y-89921153D01*
X120149500Y-90078846D01*
X120180261Y-90233489D01*
X120180264Y-90233501D01*
X120240602Y-90379172D01*
X120240609Y-90379185D01*
X120328210Y-90510288D01*
X120328213Y-90510292D01*
X120439710Y-90621789D01*
X120500434Y-90662363D01*
X120570821Y-90709394D01*
X120584759Y-90715167D01*
X120584819Y-90715192D01*
X120625047Y-90742072D01*
X121409181Y-91526206D01*
X121442666Y-91587529D01*
X121445500Y-91613887D01*
X121445500Y-94486113D01*
X121425815Y-94553152D01*
X121409181Y-94573794D01*
X120923794Y-95059181D01*
X120862471Y-95092666D01*
X120836113Y-95095500D01*
X120194947Y-95095500D01*
X120147498Y-95086062D01*
X120133497Y-95080263D01*
X120133493Y-95080262D01*
X120133488Y-95080260D01*
X119978845Y-95049500D01*
X119978842Y-95049500D01*
X119821158Y-95049500D01*
X119821155Y-95049500D01*
X119666510Y-95080261D01*
X119666498Y-95080264D01*
X119520827Y-95140602D01*
X119520814Y-95140609D01*
X119389711Y-95228210D01*
X119389707Y-95228213D01*
X119278213Y-95339707D01*
X119278210Y-95339711D01*
X119190609Y-95470814D01*
X119190602Y-95470827D01*
X119130264Y-95616498D01*
X119130261Y-95616510D01*
X119099500Y-95771153D01*
X113965341Y-95771153D01*
X113962591Y-95762689D01*
X113872944Y-95586749D01*
X113848276Y-95552796D01*
X113756884Y-95427003D01*
X113617246Y-95287365D01*
X113457504Y-95171308D01*
X113457503Y-95171307D01*
X113457501Y-95171306D01*
X113281561Y-95081659D01*
X113277265Y-95080263D01*
X113093763Y-95020639D01*
X112898736Y-94989750D01*
X112898731Y-94989750D01*
X112701269Y-94989750D01*
X112701264Y-94989750D01*
X112506236Y-95020639D01*
X112318441Y-95081658D01*
X112142495Y-95171308D01*
X111982753Y-95287365D01*
X111843115Y-95427003D01*
X111727058Y-95586745D01*
X111637408Y-95762691D01*
X111576389Y-95950486D01*
X111545500Y-96145513D01*
X103054500Y-96145513D01*
X103023610Y-95950486D01*
X102986798Y-95837192D01*
X102962591Y-95762689D01*
X102872944Y-95586749D01*
X102848276Y-95552796D01*
X102756884Y-95427003D01*
X102617246Y-95287365D01*
X102457504Y-95171308D01*
X102457503Y-95171307D01*
X102457501Y-95171306D01*
X102281561Y-95081659D01*
X102277265Y-95080263D01*
X102093763Y-95020639D01*
X101898736Y-94989750D01*
X101898731Y-94989750D01*
X101701269Y-94989750D01*
X101701264Y-94989750D01*
X101506236Y-95020639D01*
X101318441Y-95081658D01*
X101142495Y-95171308D01*
X100982753Y-95287365D01*
X100843115Y-95427003D01*
X100727058Y-95586745D01*
X100637408Y-95762691D01*
X100576389Y-95950486D01*
X100545500Y-96145513D01*
X99254500Y-96145513D01*
X99254500Y-96095513D01*
X99223610Y-95900486D01*
X99185395Y-95782874D01*
X99162591Y-95712689D01*
X99072944Y-95536749D01*
X99055019Y-95512077D01*
X98956884Y-95377003D01*
X98817246Y-95237365D01*
X98657504Y-95121308D01*
X98657503Y-95121307D01*
X98657501Y-95121306D01*
X98481561Y-95031659D01*
X98481558Y-95031658D01*
X98293763Y-94970639D01*
X98098736Y-94939750D01*
X98098731Y-94939750D01*
X97901269Y-94939750D01*
X97901264Y-94939750D01*
X97706236Y-94970639D01*
X97518441Y-95031658D01*
X97518439Y-95031658D01*
X97518439Y-95031659D01*
X97464425Y-95059181D01*
X97342495Y-95121308D01*
X97182753Y-95237365D01*
X97043115Y-95377003D01*
X96927058Y-95536745D01*
X96837408Y-95712691D01*
X96776389Y-95900486D01*
X96745500Y-96095513D01*
X88254500Y-96095513D01*
X88223610Y-95900486D01*
X88185395Y-95782874D01*
X88162591Y-95712689D01*
X88072944Y-95536749D01*
X88055019Y-95512077D01*
X87956884Y-95377003D01*
X87817246Y-95237365D01*
X87657504Y-95121308D01*
X87657503Y-95121307D01*
X87657501Y-95121306D01*
X87481561Y-95031659D01*
X87481558Y-95031658D01*
X87293763Y-94970639D01*
X87098736Y-94939750D01*
X87098731Y-94939750D01*
X86901269Y-94939750D01*
X86901264Y-94939750D01*
X86706236Y-94970639D01*
X86518441Y-95031658D01*
X86518439Y-95031658D01*
X86518439Y-95031659D01*
X86464425Y-95059181D01*
X86342495Y-95121308D01*
X86182753Y-95237365D01*
X86043115Y-95377003D01*
X85927058Y-95536745D01*
X85837408Y-95712691D01*
X85776389Y-95900486D01*
X85745500Y-96095513D01*
X77682281Y-96095513D01*
X77874022Y-95997815D01*
X77881046Y-95992712D01*
X77884328Y-95990328D01*
X77884328Y-95990327D01*
X77935781Y-95952945D01*
X78052365Y-95868242D01*
X78208242Y-95712365D01*
X78337815Y-95534022D01*
X78437895Y-95337606D01*
X78506015Y-95127951D01*
X78540500Y-94910222D01*
X78540500Y-93289778D01*
X78506015Y-93072049D01*
X78437895Y-92862394D01*
X78437895Y-92862393D01*
X78382220Y-92753127D01*
X78337815Y-92665978D01*
X78287848Y-92597204D01*
X78208247Y-92487641D01*
X78208243Y-92487636D01*
X78052363Y-92331756D01*
X78052358Y-92331752D01*
X77874025Y-92202187D01*
X77874024Y-92202186D01*
X77874022Y-92202185D01*
X77785908Y-92157288D01*
X77677606Y-92102104D01*
X77677603Y-92102103D01*
X77467952Y-92033985D01*
X77316516Y-92010000D01*
X77250222Y-91999500D01*
X77029778Y-91999500D01*
X76963484Y-92010000D01*
X76812047Y-92033985D01*
X76602396Y-92102103D01*
X76602393Y-92102104D01*
X76405974Y-92202187D01*
X76227642Y-92331751D01*
X76119682Y-92439711D01*
X76058359Y-92473195D01*
X75988667Y-92468211D01*
X75932734Y-92426339D01*
X75926462Y-92417125D01*
X75873806Y-92331756D01*
X75842712Y-92281344D01*
X75718656Y-92157288D01*
X75569334Y-92065186D01*
X75402797Y-92010001D01*
X75402795Y-92010000D01*
X75300010Y-91999500D01*
X73899998Y-91999500D01*
X73899981Y-91999501D01*
X73797203Y-92010000D01*
X73797200Y-92010001D01*
X73630668Y-92065185D01*
X73630663Y-92065187D01*
X73481342Y-92157289D01*
X73357289Y-92281342D01*
X73265187Y-92430663D01*
X73265185Y-92430668D01*
X73252745Y-92468211D01*
X73210001Y-92597203D01*
X73210001Y-92597204D01*
X73210000Y-92597204D01*
X73199500Y-92699983D01*
X68890618Y-92699983D01*
X68847814Y-92615976D01*
X68718247Y-92437641D01*
X68718243Y-92437636D01*
X68562363Y-92281756D01*
X68562358Y-92281752D01*
X68384025Y-92152187D01*
X68384024Y-92152186D01*
X68384022Y-92152185D01*
X68295908Y-92107288D01*
X68187606Y-92052104D01*
X68187603Y-92052103D01*
X67977952Y-91983985D01*
X67826516Y-91960000D01*
X67760222Y-91949500D01*
X67539778Y-91949500D01*
X67473484Y-91960000D01*
X67322047Y-91983985D01*
X67112396Y-92052103D01*
X67112393Y-92052104D01*
X66915974Y-92152187D01*
X66737642Y-92281751D01*
X66629682Y-92389711D01*
X66568359Y-92423195D01*
X66498667Y-92418211D01*
X66442734Y-92376339D01*
X66436462Y-92367125D01*
X66383806Y-92281756D01*
X66352712Y-92231344D01*
X66228656Y-92107288D01*
X66079334Y-92015186D01*
X65912797Y-91960001D01*
X65912795Y-91960000D01*
X65810010Y-91949500D01*
X64409998Y-91949500D01*
X64409981Y-91949501D01*
X64307203Y-91960000D01*
X64307200Y-91960001D01*
X64140668Y-92015185D01*
X64140663Y-92015187D01*
X63991342Y-92107289D01*
X63867289Y-92231342D01*
X63775187Y-92380663D01*
X63775185Y-92380668D01*
X63758617Y-92430668D01*
X63720001Y-92547203D01*
X63720001Y-92547204D01*
X63720000Y-92547204D01*
X63709500Y-92649983D01*
X59400000Y-92649983D01*
X59400000Y-87649983D01*
X63709500Y-87649983D01*
X63709500Y-90450001D01*
X63709501Y-90450018D01*
X63720000Y-90552796D01*
X63720001Y-90552799D01*
X63775185Y-90719331D01*
X63775187Y-90719336D01*
X63789211Y-90742072D01*
X63867288Y-90868656D01*
X63991344Y-90992712D01*
X64140666Y-91084814D01*
X64307203Y-91139999D01*
X64409991Y-91150500D01*
X65810008Y-91150499D01*
X65912797Y-91139999D01*
X66079334Y-91084814D01*
X66228656Y-90992712D01*
X66352712Y-90868656D01*
X66436463Y-90732872D01*
X66488410Y-90686149D01*
X66557372Y-90674926D01*
X66621454Y-90702769D01*
X66629682Y-90710289D01*
X66737636Y-90818243D01*
X66737641Y-90818247D01*
X66875842Y-90918655D01*
X66915978Y-90947815D01*
X67014249Y-90997887D01*
X67112393Y-91047895D01*
X67112396Y-91047896D01*
X67217221Y-91081955D01*
X67322049Y-91116015D01*
X67539778Y-91150500D01*
X67539779Y-91150500D01*
X67760221Y-91150500D01*
X67760222Y-91150500D01*
X67977951Y-91116015D01*
X68187606Y-91047895D01*
X68384022Y-90947815D01*
X68562365Y-90818242D01*
X68718242Y-90662365D01*
X68847815Y-90484022D01*
X68947895Y-90287606D01*
X69016015Y-90077951D01*
X69050500Y-89860222D01*
X69050500Y-88239778D01*
X69016015Y-88022049D01*
X68969425Y-87878657D01*
X68947896Y-87812396D01*
X68947895Y-87812393D01*
X68917698Y-87753129D01*
X68917697Y-87753127D01*
X68890618Y-87699983D01*
X73199500Y-87699983D01*
X73199500Y-90500001D01*
X73199501Y-90500018D01*
X73210000Y-90602796D01*
X73210001Y-90602799D01*
X73265185Y-90769331D01*
X73265187Y-90769336D01*
X73295353Y-90818243D01*
X73357288Y-90918656D01*
X73481344Y-91042712D01*
X73630666Y-91134814D01*
X73797203Y-91189999D01*
X73899991Y-91200500D01*
X75300008Y-91200499D01*
X75402797Y-91189999D01*
X75569334Y-91134814D01*
X75718656Y-91042712D01*
X75842712Y-90918656D01*
X75926463Y-90782872D01*
X75978410Y-90736149D01*
X76047372Y-90724926D01*
X76111454Y-90752769D01*
X76119682Y-90760289D01*
X76227636Y-90868243D01*
X76227641Y-90868247D01*
X76337154Y-90947812D01*
X76405978Y-90997815D01*
X76534375Y-91063237D01*
X76602393Y-91097895D01*
X76602396Y-91097896D01*
X76658159Y-91116014D01*
X76812049Y-91166015D01*
X77029778Y-91200500D01*
X77029779Y-91200500D01*
X77250221Y-91200500D01*
X77250222Y-91200500D01*
X77467951Y-91166015D01*
X77677606Y-91097895D01*
X77874022Y-90997815D01*
X78052365Y-90868242D01*
X78208242Y-90712365D01*
X78337815Y-90534022D01*
X78437895Y-90337606D01*
X78506015Y-90127951D01*
X78540500Y-89910222D01*
X78540500Y-88289778D01*
X78506015Y-88072049D01*
X78470597Y-87963043D01*
X78437896Y-87862396D01*
X78437895Y-87862393D01*
X78378816Y-87746446D01*
X78337815Y-87665978D01*
X78326200Y-87649991D01*
X78317945Y-87638628D01*
X78317944Y-87638627D01*
X78208247Y-87487641D01*
X78208243Y-87487636D01*
X78052363Y-87331756D01*
X78052358Y-87331752D01*
X77874025Y-87202187D01*
X77874024Y-87202186D01*
X77874022Y-87202185D01*
X77785908Y-87157288D01*
X77677606Y-87102104D01*
X77677603Y-87102103D01*
X77467952Y-87033985D01*
X77316516Y-87010000D01*
X77250222Y-86999500D01*
X77029778Y-86999500D01*
X76963484Y-87010000D01*
X76812047Y-87033985D01*
X76602396Y-87102103D01*
X76602393Y-87102104D01*
X76405974Y-87202187D01*
X76227642Y-87331751D01*
X76119682Y-87439711D01*
X76058359Y-87473195D01*
X75988667Y-87468211D01*
X75932734Y-87426339D01*
X75926462Y-87417125D01*
X75873806Y-87331756D01*
X75842712Y-87281344D01*
X75718656Y-87157288D01*
X75569334Y-87065186D01*
X75402797Y-87010001D01*
X75402795Y-87010000D01*
X75300010Y-86999500D01*
X73899998Y-86999500D01*
X73899981Y-86999501D01*
X73797203Y-87010000D01*
X73797200Y-87010001D01*
X73630668Y-87065185D01*
X73630663Y-87065187D01*
X73481342Y-87157289D01*
X73357289Y-87281342D01*
X73265187Y-87430663D01*
X73265185Y-87430668D01*
X73237349Y-87514670D01*
X73210001Y-87597203D01*
X73210001Y-87597204D01*
X73210000Y-87597204D01*
X73199500Y-87699983D01*
X68890618Y-87699983D01*
X68847814Y-87615976D01*
X68718247Y-87437641D01*
X68718243Y-87437636D01*
X68562363Y-87281756D01*
X68562358Y-87281752D01*
X68384025Y-87152187D01*
X68384024Y-87152186D01*
X68384022Y-87152185D01*
X68295908Y-87107288D01*
X68187606Y-87052104D01*
X68187603Y-87052103D01*
X67977952Y-86983985D01*
X67826516Y-86960000D01*
X67760222Y-86949500D01*
X67539778Y-86949500D01*
X67473484Y-86960000D01*
X67322047Y-86983985D01*
X67112396Y-87052103D01*
X67112393Y-87052104D01*
X66915974Y-87152187D01*
X66737642Y-87281751D01*
X66629682Y-87389711D01*
X66568359Y-87423195D01*
X66498667Y-87418211D01*
X66442734Y-87376339D01*
X66436462Y-87367125D01*
X66408600Y-87321953D01*
X66352712Y-87231344D01*
X66228656Y-87107288D01*
X66079334Y-87015186D01*
X65912797Y-86960001D01*
X65912795Y-86960000D01*
X65810010Y-86949500D01*
X64409998Y-86949500D01*
X64409981Y-86949501D01*
X64307203Y-86960000D01*
X64307200Y-86960001D01*
X64140668Y-87015185D01*
X64140663Y-87015187D01*
X63991342Y-87107289D01*
X63867289Y-87231342D01*
X63775187Y-87380663D01*
X63775185Y-87380668D01*
X63758617Y-87430668D01*
X63720001Y-87547203D01*
X63720001Y-87547204D01*
X63720000Y-87547204D01*
X63709500Y-87649983D01*
X59400000Y-87649983D01*
X59400000Y-86077909D01*
X88225000Y-86077909D01*
X88225000Y-86310590D01*
X88255369Y-86541274D01*
X88315592Y-86766029D01*
X88404632Y-86980990D01*
X88404636Y-86981000D01*
X88520970Y-87182498D01*
X88580551Y-87260144D01*
X89245884Y-86594810D01*
X89246740Y-86596876D01*
X89339762Y-86736094D01*
X89458156Y-86854488D01*
X89597374Y-86947510D01*
X89599437Y-86948364D01*
X88934104Y-87613696D01*
X88934104Y-87613697D01*
X89011752Y-87673279D01*
X89213249Y-87789613D01*
X89213259Y-87789617D01*
X89428220Y-87878657D01*
X89652975Y-87938880D01*
X89883659Y-87969250D01*
X90116341Y-87969250D01*
X90347024Y-87938880D01*
X90571779Y-87878657D01*
X90786740Y-87789617D01*
X90786750Y-87789613D01*
X90988255Y-87673274D01*
X91065894Y-87613697D01*
X91065894Y-87613696D01*
X90400562Y-86948364D01*
X90402626Y-86947510D01*
X90541844Y-86854488D01*
X90660238Y-86736094D01*
X90753260Y-86596876D01*
X90754114Y-86594812D01*
X91419446Y-87260144D01*
X91419447Y-87260144D01*
X91479024Y-87182505D01*
X91595363Y-86981000D01*
X91595367Y-86980990D01*
X91684407Y-86766029D01*
X91744630Y-86541274D01*
X91775000Y-86310590D01*
X91775000Y-86077909D01*
X91744630Y-85847225D01*
X91684407Y-85622470D01*
X91595367Y-85407509D01*
X91595363Y-85407499D01*
X91479029Y-85206002D01*
X91419447Y-85128354D01*
X91419446Y-85128354D01*
X90754114Y-85793686D01*
X90753260Y-85791624D01*
X90660238Y-85652406D01*
X90541844Y-85534012D01*
X90402626Y-85440990D01*
X90400560Y-85440134D01*
X90969311Y-84871385D01*
X93224500Y-84871385D01*
X93224500Y-87517120D01*
X93224501Y-87517126D01*
X93230908Y-87576733D01*
X93281202Y-87711578D01*
X93281206Y-87711585D01*
X93367452Y-87826794D01*
X93367455Y-87826797D01*
X93482664Y-87913043D01*
X93482671Y-87913047D01*
X93617517Y-87963341D01*
X93617516Y-87963341D01*
X93624444Y-87964085D01*
X93677127Y-87969750D01*
X96322872Y-87969749D01*
X96382483Y-87963341D01*
X96517331Y-87913046D01*
X96632546Y-87826796D01*
X96718796Y-87711581D01*
X96769091Y-87576733D01*
X96775500Y-87517123D01*
X96775499Y-86127909D01*
X103025000Y-86127909D01*
X103025000Y-86360590D01*
X103055369Y-86591274D01*
X103115592Y-86816029D01*
X103204632Y-87030990D01*
X103204636Y-87031000D01*
X103320970Y-87232498D01*
X103380551Y-87310144D01*
X104045884Y-86644810D01*
X104046740Y-86646876D01*
X104139762Y-86786094D01*
X104258156Y-86904488D01*
X104397374Y-86997510D01*
X104399437Y-86998364D01*
X103734104Y-87663696D01*
X103734104Y-87663697D01*
X103811752Y-87723279D01*
X104013249Y-87839613D01*
X104013259Y-87839617D01*
X104228220Y-87928657D01*
X104452975Y-87988880D01*
X104683659Y-88019250D01*
X104916341Y-88019250D01*
X105147024Y-87988880D01*
X105371779Y-87928657D01*
X105586740Y-87839617D01*
X105586750Y-87839613D01*
X105788255Y-87723274D01*
X105865894Y-87663697D01*
X105865894Y-87663696D01*
X105200562Y-86998364D01*
X105202626Y-86997510D01*
X105341844Y-86904488D01*
X105460238Y-86786094D01*
X105553260Y-86646876D01*
X105554114Y-86644812D01*
X106219446Y-87310144D01*
X106219447Y-87310144D01*
X106279024Y-87232505D01*
X106395363Y-87031000D01*
X106395367Y-87030990D01*
X106484407Y-86816029D01*
X106544630Y-86591274D01*
X106575000Y-86360590D01*
X106575000Y-86127909D01*
X106544630Y-85897225D01*
X106484407Y-85672470D01*
X106395367Y-85457509D01*
X106395363Y-85457499D01*
X106279029Y-85256002D01*
X106219447Y-85178354D01*
X106219446Y-85178354D01*
X105554114Y-85843686D01*
X105553260Y-85841624D01*
X105460238Y-85702406D01*
X105341844Y-85584012D01*
X105202626Y-85490990D01*
X105200560Y-85490134D01*
X105769311Y-84921385D01*
X108024500Y-84921385D01*
X108024500Y-87567120D01*
X108024501Y-87567126D01*
X108030908Y-87626733D01*
X108081202Y-87761578D01*
X108081206Y-87761585D01*
X108167452Y-87876794D01*
X108167455Y-87876797D01*
X108282664Y-87963043D01*
X108282671Y-87963047D01*
X108417517Y-88013341D01*
X108417516Y-88013341D01*
X108424444Y-88014085D01*
X108477127Y-88019750D01*
X111122872Y-88019749D01*
X111182483Y-88013341D01*
X111317331Y-87963046D01*
X111432546Y-87876796D01*
X111518796Y-87761581D01*
X111569091Y-87626733D01*
X111575500Y-87567123D01*
X111575499Y-84921378D01*
X111573857Y-84906106D01*
X116649500Y-84906106D01*
X116649500Y-87243893D01*
X116655643Y-87321950D01*
X116655643Y-87321951D01*
X116704293Y-87503515D01*
X116789629Y-87670998D01*
X116789629Y-87670999D01*
X116907920Y-87817077D01*
X116907922Y-87817079D01*
X117054000Y-87935370D01*
X117121472Y-87969748D01*
X117221483Y-88020706D01*
X117403047Y-88069356D01*
X117481112Y-88075500D01*
X117481118Y-88075500D01*
X118818882Y-88075500D01*
X118818888Y-88075500D01*
X118896953Y-88069356D01*
X119078517Y-88020706D01*
X119245999Y-87935370D01*
X119336117Y-87862394D01*
X119392077Y-87817079D01*
X119392079Y-87817077D01*
X119510370Y-87670999D01*
X119595706Y-87503517D01*
X119644356Y-87321953D01*
X119650500Y-87243888D01*
X119650500Y-84906112D01*
X119650500Y-84906106D01*
X120349500Y-84906106D01*
X120349500Y-87243893D01*
X120355643Y-87321950D01*
X120355643Y-87321951D01*
X120404293Y-87503515D01*
X120489629Y-87670998D01*
X120489629Y-87670999D01*
X120607920Y-87817077D01*
X120607922Y-87817079D01*
X120754000Y-87935370D01*
X120821472Y-87969748D01*
X120921483Y-88020706D01*
X121103047Y-88069356D01*
X121181112Y-88075500D01*
X121181118Y-88075500D01*
X122518882Y-88075500D01*
X122518888Y-88075500D01*
X122596953Y-88069356D01*
X122778517Y-88020706D01*
X122945999Y-87935370D01*
X123036117Y-87862394D01*
X123092077Y-87817079D01*
X123092079Y-87817077D01*
X123210370Y-87670999D01*
X123295706Y-87503517D01*
X123344356Y-87321953D01*
X123350500Y-87243888D01*
X123350500Y-84906112D01*
X123350500Y-84906106D01*
X124349500Y-84906106D01*
X124349500Y-87243893D01*
X124355643Y-87321950D01*
X124355643Y-87321951D01*
X124404293Y-87503515D01*
X124489629Y-87670998D01*
X124489629Y-87670999D01*
X124607920Y-87817077D01*
X124607922Y-87817079D01*
X124754000Y-87935370D01*
X124821472Y-87969748D01*
X124921483Y-88020706D01*
X125103047Y-88069356D01*
X125181112Y-88075500D01*
X125181118Y-88075500D01*
X126518882Y-88075500D01*
X126518888Y-88075500D01*
X126596953Y-88069356D01*
X126778517Y-88020706D01*
X126945999Y-87935370D01*
X127036117Y-87862394D01*
X127092077Y-87817079D01*
X127092079Y-87817077D01*
X127210370Y-87670999D01*
X127295706Y-87503517D01*
X127344356Y-87321953D01*
X127350500Y-87243888D01*
X127350500Y-84906112D01*
X127350500Y-84906106D01*
X128049500Y-84906106D01*
X128049500Y-87243893D01*
X128055643Y-87321950D01*
X128055643Y-87321951D01*
X128104293Y-87503515D01*
X128189629Y-87670998D01*
X128189629Y-87670999D01*
X128307920Y-87817077D01*
X128307922Y-87817079D01*
X128454000Y-87935370D01*
X128521472Y-87969748D01*
X128621483Y-88020706D01*
X128803047Y-88069356D01*
X128881112Y-88075500D01*
X128881118Y-88075500D01*
X130218882Y-88075500D01*
X130218888Y-88075500D01*
X130296953Y-88069356D01*
X130478517Y-88020706D01*
X130645999Y-87935370D01*
X130792078Y-87817078D01*
X130795870Y-87812396D01*
X130910370Y-87670999D01*
X130995706Y-87503517D01*
X131044356Y-87321953D01*
X131050500Y-87243888D01*
X131050500Y-84906112D01*
X131044356Y-84828047D01*
X130995706Y-84646483D01*
X130910370Y-84479001D01*
X130910370Y-84479000D01*
X130792079Y-84332922D01*
X130792077Y-84332920D01*
X130645999Y-84214629D01*
X130478515Y-84129293D01*
X130296950Y-84080643D01*
X130218893Y-84074500D01*
X130218888Y-84074500D01*
X128881112Y-84074500D01*
X128881106Y-84074500D01*
X128803049Y-84080643D01*
X128803048Y-84080643D01*
X128621484Y-84129293D01*
X128454001Y-84214629D01*
X128454000Y-84214629D01*
X128307922Y-84332920D01*
X128307920Y-84332922D01*
X128189629Y-84479000D01*
X128189629Y-84479001D01*
X128104293Y-84646484D01*
X128055643Y-84828048D01*
X128055643Y-84828049D01*
X128049500Y-84906106D01*
X127350500Y-84906106D01*
X127344356Y-84828047D01*
X127295706Y-84646483D01*
X127210370Y-84479001D01*
X127210370Y-84479000D01*
X127092079Y-84332922D01*
X127092077Y-84332920D01*
X126945999Y-84214629D01*
X126778515Y-84129293D01*
X126596950Y-84080643D01*
X126518893Y-84074500D01*
X126518888Y-84074500D01*
X125181112Y-84074500D01*
X125181106Y-84074500D01*
X125103049Y-84080643D01*
X125103048Y-84080643D01*
X124921484Y-84129293D01*
X124754001Y-84214629D01*
X124754000Y-84214629D01*
X124607922Y-84332920D01*
X124607920Y-84332922D01*
X124489629Y-84479000D01*
X124489629Y-84479001D01*
X124404293Y-84646484D01*
X124355643Y-84828048D01*
X124355643Y-84828049D01*
X124349500Y-84906106D01*
X123350500Y-84906106D01*
X123344356Y-84828047D01*
X123295706Y-84646483D01*
X123210370Y-84479001D01*
X123210370Y-84479000D01*
X123092079Y-84332922D01*
X123092077Y-84332920D01*
X122945999Y-84214629D01*
X122778515Y-84129293D01*
X122596950Y-84080643D01*
X122518893Y-84074500D01*
X122518888Y-84074500D01*
X121181112Y-84074500D01*
X121181106Y-84074500D01*
X121103049Y-84080643D01*
X121103048Y-84080643D01*
X120921484Y-84129293D01*
X120754001Y-84214629D01*
X120754000Y-84214629D01*
X120607922Y-84332920D01*
X120607920Y-84332922D01*
X120489629Y-84479000D01*
X120489629Y-84479001D01*
X120404293Y-84646484D01*
X120355643Y-84828048D01*
X120355643Y-84828049D01*
X120349500Y-84906106D01*
X119650500Y-84906106D01*
X119644356Y-84828047D01*
X119595706Y-84646483D01*
X119510370Y-84479001D01*
X119510370Y-84479000D01*
X119392079Y-84332922D01*
X119392077Y-84332920D01*
X119245999Y-84214629D01*
X119078515Y-84129293D01*
X118896950Y-84080643D01*
X118818893Y-84074500D01*
X118818888Y-84074500D01*
X117481112Y-84074500D01*
X117481106Y-84074500D01*
X117403049Y-84080643D01*
X117403048Y-84080643D01*
X117221484Y-84129293D01*
X117054001Y-84214629D01*
X117054000Y-84214629D01*
X116907922Y-84332920D01*
X116907920Y-84332922D01*
X116789629Y-84479000D01*
X116789629Y-84479001D01*
X116704293Y-84646484D01*
X116655643Y-84828048D01*
X116655643Y-84828049D01*
X116649500Y-84906106D01*
X111573857Y-84906106D01*
X111569091Y-84861767D01*
X111556514Y-84828047D01*
X111518797Y-84726921D01*
X111518793Y-84726914D01*
X111432547Y-84611705D01*
X111432544Y-84611702D01*
X111317335Y-84525456D01*
X111317328Y-84525452D01*
X111182482Y-84475158D01*
X111182483Y-84475158D01*
X111122883Y-84468751D01*
X111122881Y-84468750D01*
X111122873Y-84468750D01*
X111122864Y-84468750D01*
X108477129Y-84468750D01*
X108477123Y-84468751D01*
X108417516Y-84475158D01*
X108282671Y-84525452D01*
X108282664Y-84525456D01*
X108167455Y-84611702D01*
X108167452Y-84611705D01*
X108081206Y-84726914D01*
X108081202Y-84726921D01*
X108030908Y-84861767D01*
X108024978Y-84916930D01*
X108024501Y-84921373D01*
X108024500Y-84921385D01*
X105769311Y-84921385D01*
X105860321Y-84830375D01*
X105865894Y-84824801D01*
X105788248Y-84765220D01*
X105586750Y-84648886D01*
X105586740Y-84648882D01*
X105371779Y-84559842D01*
X105147024Y-84499619D01*
X104916341Y-84469250D01*
X104683659Y-84469250D01*
X104452975Y-84499619D01*
X104228220Y-84559842D01*
X104013259Y-84648882D01*
X104013249Y-84648886D01*
X103811747Y-84765223D01*
X103734104Y-84824800D01*
X103734104Y-84824801D01*
X104399438Y-85490135D01*
X104397374Y-85490990D01*
X104258156Y-85584012D01*
X104139762Y-85702406D01*
X104046740Y-85841624D01*
X104045885Y-85843688D01*
X103380551Y-85178354D01*
X103380550Y-85178354D01*
X103320973Y-85255997D01*
X103204636Y-85457499D01*
X103204632Y-85457509D01*
X103115592Y-85672470D01*
X103055369Y-85897225D01*
X103025000Y-86127909D01*
X96775499Y-86127909D01*
X96775499Y-84871378D01*
X96769091Y-84811767D01*
X96755303Y-84774800D01*
X96718797Y-84676921D01*
X96718793Y-84676914D01*
X96632547Y-84561705D01*
X96632544Y-84561702D01*
X96517335Y-84475456D01*
X96517328Y-84475452D01*
X96382482Y-84425158D01*
X96382483Y-84425158D01*
X96322883Y-84418751D01*
X96322881Y-84418750D01*
X96322873Y-84418750D01*
X96322864Y-84418750D01*
X93677129Y-84418750D01*
X93677123Y-84418751D01*
X93617516Y-84425158D01*
X93482671Y-84475452D01*
X93482664Y-84475456D01*
X93367455Y-84561702D01*
X93367452Y-84561705D01*
X93281206Y-84676914D01*
X93281202Y-84676921D01*
X93230908Y-84811767D01*
X93229158Y-84828049D01*
X93224501Y-84871373D01*
X93224500Y-84871385D01*
X90969311Y-84871385D01*
X91060321Y-84780375D01*
X91065894Y-84774801D01*
X90988248Y-84715220D01*
X90786750Y-84598886D01*
X90786740Y-84598882D01*
X90571779Y-84509842D01*
X90347024Y-84449619D01*
X90116341Y-84419250D01*
X89883659Y-84419250D01*
X89652975Y-84449619D01*
X89428220Y-84509842D01*
X89213259Y-84598882D01*
X89213249Y-84598886D01*
X89011747Y-84715223D01*
X88934104Y-84774800D01*
X88934104Y-84774801D01*
X89599438Y-85440135D01*
X89597374Y-85440990D01*
X89458156Y-85534012D01*
X89339762Y-85652406D01*
X89246740Y-85791624D01*
X89245885Y-85793688D01*
X88580551Y-85128354D01*
X88580550Y-85128354D01*
X88520973Y-85205997D01*
X88404636Y-85407499D01*
X88404632Y-85407509D01*
X88315592Y-85622470D01*
X88255369Y-85847225D01*
X88225000Y-86077909D01*
X59400000Y-86077909D01*
X59400000Y-79581902D01*
X63579500Y-79581902D01*
X63579500Y-79818097D01*
X63616446Y-80051368D01*
X63689433Y-80275996D01*
X63780538Y-80454798D01*
X63796657Y-80486433D01*
X63935483Y-80677510D01*
X64102490Y-80844517D01*
X64293567Y-80983343D01*
X64392991Y-81034002D01*
X64504003Y-81090566D01*
X64504005Y-81090566D01*
X64504008Y-81090568D01*
X64624412Y-81129689D01*
X64728631Y-81163553D01*
X64961903Y-81200500D01*
X64961908Y-81200500D01*
X65198097Y-81200500D01*
X65431368Y-81163553D01*
X65655992Y-81090568D01*
X65866433Y-80983343D01*
X66057510Y-80844517D01*
X66224517Y-80677510D01*
X66249682Y-80642872D01*
X66305011Y-80600207D01*
X66374625Y-80594228D01*
X66436420Y-80626833D01*
X66450315Y-80642870D01*
X66475483Y-80677510D01*
X66642490Y-80844517D01*
X66833567Y-80983343D01*
X66932991Y-81034002D01*
X67044003Y-81090566D01*
X67044005Y-81090566D01*
X67044008Y-81090568D01*
X67164412Y-81129689D01*
X67268631Y-81163553D01*
X67501903Y-81200500D01*
X67501908Y-81200500D01*
X67738097Y-81200500D01*
X67971368Y-81163553D01*
X68195992Y-81090568D01*
X68406433Y-80983343D01*
X68597510Y-80844517D01*
X68764517Y-80677510D01*
X68903343Y-80486433D01*
X69010568Y-80275992D01*
X69083553Y-80051368D01*
X69110289Y-79882563D01*
X69120500Y-79818097D01*
X69120500Y-79581903D01*
X69114882Y-79546435D01*
X69114882Y-79546434D01*
X69112580Y-79531902D01*
X70629500Y-79531902D01*
X70629500Y-79768097D01*
X70666446Y-80001368D01*
X70739433Y-80225996D01*
X70831850Y-80407372D01*
X70846657Y-80436433D01*
X70985483Y-80627510D01*
X71152490Y-80794517D01*
X71343567Y-80933343D01*
X71441696Y-80983342D01*
X71554003Y-81040566D01*
X71554005Y-81040566D01*
X71554008Y-81040568D01*
X71674412Y-81079689D01*
X71778631Y-81113553D01*
X72011903Y-81150500D01*
X72011908Y-81150500D01*
X72248097Y-81150500D01*
X72481368Y-81113553D01*
X72552114Y-81090566D01*
X72705992Y-81040568D01*
X72916433Y-80933343D01*
X73107510Y-80794517D01*
X73274517Y-80627510D01*
X73299682Y-80592872D01*
X73355011Y-80550207D01*
X73424625Y-80544228D01*
X73486420Y-80576833D01*
X73500315Y-80592870D01*
X73525483Y-80627510D01*
X73692490Y-80794517D01*
X73883567Y-80933343D01*
X73981696Y-80983342D01*
X74094003Y-81040566D01*
X74094005Y-81040566D01*
X74094008Y-81040568D01*
X74214412Y-81079689D01*
X74318631Y-81113553D01*
X74551903Y-81150500D01*
X74551908Y-81150500D01*
X74788097Y-81150500D01*
X75021368Y-81113553D01*
X75092114Y-81090566D01*
X75245992Y-81040568D01*
X75456433Y-80933343D01*
X75647510Y-80794517D01*
X75814517Y-80627510D01*
X75953343Y-80436433D01*
X76060568Y-80225992D01*
X76133553Y-80001368D01*
X76152370Y-79882563D01*
X76170500Y-79768097D01*
X76170500Y-79531906D01*
X76168303Y-79518034D01*
X76168303Y-79518031D01*
X76141472Y-79348631D01*
X76133553Y-79298632D01*
X76101911Y-79201252D01*
X76099917Y-79131414D01*
X76132160Y-79075257D01*
X76955263Y-78252155D01*
X96350000Y-78252155D01*
X96350000Y-79050000D01*
X97141759Y-79050000D01*
X97128822Y-79081233D01*
X97100000Y-79226131D01*
X97100000Y-79373869D01*
X97128822Y-79518767D01*
X97141759Y-79550000D01*
X96350000Y-79550000D01*
X96350000Y-80347844D01*
X96356401Y-80407372D01*
X96356403Y-80407379D01*
X96406645Y-80542086D01*
X96406649Y-80542093D01*
X96492809Y-80657187D01*
X96492812Y-80657190D01*
X96607906Y-80743350D01*
X96607913Y-80743354D01*
X96742620Y-80793596D01*
X96742627Y-80793598D01*
X96802155Y-80799999D01*
X96802172Y-80800000D01*
X100600000Y-80800000D01*
X100600000Y-80050000D01*
X101100000Y-80050000D01*
X101100000Y-80800000D01*
X104897828Y-80800000D01*
X104897844Y-80799999D01*
X104957372Y-80793598D01*
X104957379Y-80793596D01*
X105092086Y-80743354D01*
X105092093Y-80743350D01*
X105207187Y-80657190D01*
X105207190Y-80657187D01*
X105293350Y-80542093D01*
X105293354Y-80542086D01*
X105343596Y-80407379D01*
X105343598Y-80407372D01*
X105349999Y-80347844D01*
X105350000Y-80347827D01*
X105350000Y-79550000D01*
X104558241Y-79550000D01*
X104571178Y-79518767D01*
X104600000Y-79373869D01*
X104600000Y-79226131D01*
X104571178Y-79081233D01*
X104558241Y-79050000D01*
X105350000Y-79050000D01*
X105350000Y-78906106D01*
X116649500Y-78906106D01*
X116649500Y-81243893D01*
X116655643Y-81321950D01*
X116655643Y-81321951D01*
X116704293Y-81503515D01*
X116789629Y-81670998D01*
X116789629Y-81670999D01*
X116907920Y-81817077D01*
X116907922Y-81817079D01*
X117054000Y-81935370D01*
X117137742Y-81978038D01*
X117221483Y-82020706D01*
X117403047Y-82069356D01*
X117481112Y-82075500D01*
X117481118Y-82075500D01*
X118818882Y-82075500D01*
X118818888Y-82075500D01*
X118896953Y-82069356D01*
X119078517Y-82020706D01*
X119245999Y-81935370D01*
X119392078Y-81817078D01*
X119424439Y-81777116D01*
X119510370Y-81670999D01*
X119595706Y-81503517D01*
X119644356Y-81321953D01*
X119650500Y-81243888D01*
X119650500Y-78906112D01*
X119650500Y-78906106D01*
X120349500Y-78906106D01*
X120349500Y-81243893D01*
X120355643Y-81321950D01*
X120355643Y-81321951D01*
X120404293Y-81503515D01*
X120489629Y-81670998D01*
X120489629Y-81670999D01*
X120607920Y-81817077D01*
X120607922Y-81817079D01*
X120754000Y-81935370D01*
X120837742Y-81978038D01*
X120921483Y-82020706D01*
X121103047Y-82069356D01*
X121181112Y-82075500D01*
X121181118Y-82075500D01*
X122518882Y-82075500D01*
X122518888Y-82075500D01*
X122596953Y-82069356D01*
X122778517Y-82020706D01*
X122945999Y-81935370D01*
X123092078Y-81817078D01*
X123124439Y-81777116D01*
X123210370Y-81670999D01*
X123295706Y-81503517D01*
X123344356Y-81321953D01*
X123350500Y-81243888D01*
X123350500Y-78906112D01*
X123350500Y-78906106D01*
X124349500Y-78906106D01*
X124349500Y-81243893D01*
X124355643Y-81321950D01*
X124355643Y-81321951D01*
X124404293Y-81503515D01*
X124489629Y-81670998D01*
X124489629Y-81670999D01*
X124607920Y-81817077D01*
X124607922Y-81817079D01*
X124754000Y-81935370D01*
X124837742Y-81978038D01*
X124921483Y-82020706D01*
X125103047Y-82069356D01*
X125181112Y-82075500D01*
X125181118Y-82075500D01*
X126518882Y-82075500D01*
X126518888Y-82075500D01*
X126596953Y-82069356D01*
X126778517Y-82020706D01*
X126945999Y-81935370D01*
X127092078Y-81817078D01*
X127124439Y-81777116D01*
X127210370Y-81670999D01*
X127295706Y-81503517D01*
X127344356Y-81321953D01*
X127350500Y-81243888D01*
X127350500Y-78906112D01*
X127350500Y-78906106D01*
X128049500Y-78906106D01*
X128049500Y-81243893D01*
X128055643Y-81321950D01*
X128055643Y-81321951D01*
X128104293Y-81503515D01*
X128189629Y-81670998D01*
X128189629Y-81670999D01*
X128307920Y-81817077D01*
X128307922Y-81817079D01*
X128454000Y-81935370D01*
X128537742Y-81978038D01*
X128621483Y-82020706D01*
X128803047Y-82069356D01*
X128881112Y-82075500D01*
X128881118Y-82075500D01*
X130218882Y-82075500D01*
X130218888Y-82075500D01*
X130296953Y-82069356D01*
X130478517Y-82020706D01*
X130645999Y-81935370D01*
X130792078Y-81817078D01*
X130824439Y-81777116D01*
X130910370Y-81670999D01*
X130995706Y-81503517D01*
X131044356Y-81321953D01*
X131050500Y-81243888D01*
X131050500Y-78906112D01*
X131044356Y-78828047D01*
X130995706Y-78646483D01*
X130910370Y-78479001D01*
X130910370Y-78479000D01*
X130792079Y-78332922D01*
X130792077Y-78332920D01*
X130645999Y-78214629D01*
X130478515Y-78129293D01*
X130296950Y-78080643D01*
X130218893Y-78074500D01*
X130218888Y-78074500D01*
X128881112Y-78074500D01*
X128881106Y-78074500D01*
X128803049Y-78080643D01*
X128803048Y-78080643D01*
X128621484Y-78129293D01*
X128454001Y-78214629D01*
X128454000Y-78214629D01*
X128307922Y-78332920D01*
X128307920Y-78332922D01*
X128189629Y-78479000D01*
X128189629Y-78479001D01*
X128104293Y-78646484D01*
X128055643Y-78828048D01*
X128055643Y-78828049D01*
X128049500Y-78906106D01*
X127350500Y-78906106D01*
X127344356Y-78828047D01*
X127295706Y-78646483D01*
X127210370Y-78479001D01*
X127210370Y-78479000D01*
X127092079Y-78332922D01*
X127092077Y-78332920D01*
X126945999Y-78214629D01*
X126778515Y-78129293D01*
X126596950Y-78080643D01*
X126518893Y-78074500D01*
X126518888Y-78074500D01*
X125181112Y-78074500D01*
X125181106Y-78074500D01*
X125103049Y-78080643D01*
X125103048Y-78080643D01*
X124921484Y-78129293D01*
X124754001Y-78214629D01*
X124754000Y-78214629D01*
X124607922Y-78332920D01*
X124607920Y-78332922D01*
X124489629Y-78479000D01*
X124489629Y-78479001D01*
X124404293Y-78646484D01*
X124355643Y-78828048D01*
X124355643Y-78828049D01*
X124349500Y-78906106D01*
X123350500Y-78906106D01*
X123344356Y-78828047D01*
X123295706Y-78646483D01*
X123210370Y-78479001D01*
X123210370Y-78479000D01*
X123092079Y-78332922D01*
X123092077Y-78332920D01*
X122945999Y-78214629D01*
X122778515Y-78129293D01*
X122596950Y-78080643D01*
X122518893Y-78074500D01*
X122518888Y-78074500D01*
X121181112Y-78074500D01*
X121181106Y-78074500D01*
X121103049Y-78080643D01*
X121103048Y-78080643D01*
X120921484Y-78129293D01*
X120754001Y-78214629D01*
X120754000Y-78214629D01*
X120607922Y-78332920D01*
X120607920Y-78332922D01*
X120489629Y-78479000D01*
X120489629Y-78479001D01*
X120404293Y-78646484D01*
X120355643Y-78828048D01*
X120355643Y-78828049D01*
X120349500Y-78906106D01*
X119650500Y-78906106D01*
X119644356Y-78828047D01*
X119595706Y-78646483D01*
X119510370Y-78479001D01*
X119510370Y-78479000D01*
X119392079Y-78332922D01*
X119392077Y-78332920D01*
X119245999Y-78214629D01*
X119078515Y-78129293D01*
X118896950Y-78080643D01*
X118818893Y-78074500D01*
X118818888Y-78074500D01*
X117481112Y-78074500D01*
X117481106Y-78074500D01*
X117403049Y-78080643D01*
X117403048Y-78080643D01*
X117221484Y-78129293D01*
X117054001Y-78214629D01*
X117054000Y-78214629D01*
X116907922Y-78332920D01*
X116907920Y-78332922D01*
X116789629Y-78479000D01*
X116789629Y-78479001D01*
X116704293Y-78646484D01*
X116655643Y-78828048D01*
X116655643Y-78828049D01*
X116649500Y-78906106D01*
X105350000Y-78906106D01*
X105350000Y-78252172D01*
X105349999Y-78252155D01*
X105343598Y-78192627D01*
X105343596Y-78192620D01*
X105293354Y-78057913D01*
X105293350Y-78057906D01*
X105207190Y-77942812D01*
X105207187Y-77942809D01*
X105092093Y-77856649D01*
X105092086Y-77856645D01*
X104957379Y-77806403D01*
X104957372Y-77806401D01*
X104897844Y-77800000D01*
X101100000Y-77800000D01*
X101100000Y-78550000D01*
X100600000Y-78550000D01*
X100600000Y-77800000D01*
X96802155Y-77800000D01*
X96742627Y-77806401D01*
X96742620Y-77806403D01*
X96607913Y-77856645D01*
X96607906Y-77856649D01*
X96492812Y-77942809D01*
X96492809Y-77942812D01*
X96406649Y-78057906D01*
X96406645Y-78057913D01*
X96356403Y-78192620D01*
X96356401Y-78192627D01*
X96350000Y-78252155D01*
X76955263Y-78252155D01*
X77437411Y-77770008D01*
X77506083Y-77667233D01*
X77519937Y-77633784D01*
X77553386Y-77553035D01*
X77577500Y-77431803D01*
X77577500Y-77308197D01*
X77577500Y-72350000D01*
X79569652Y-72350000D01*
X80659252Y-72350000D01*
X80637482Y-72387708D01*
X80600000Y-72527591D01*
X80600000Y-72672409D01*
X80637482Y-72812292D01*
X80659252Y-72850000D01*
X79569652Y-72850000D01*
X79589397Y-72974668D01*
X79589397Y-72974671D01*
X79667219Y-73214184D01*
X79781557Y-73438583D01*
X79929590Y-73642331D01*
X79929590Y-73642332D01*
X80107667Y-73820409D01*
X80311416Y-73968442D01*
X80535815Y-74082780D01*
X80775329Y-74160602D01*
X80900000Y-74180348D01*
X80900000Y-73090747D01*
X80937708Y-73112518D01*
X81077591Y-73150000D01*
X81222409Y-73150000D01*
X81362292Y-73112518D01*
X81400000Y-73090747D01*
X81400000Y-74180347D01*
X81524668Y-74160602D01*
X81524671Y-74160602D01*
X81764184Y-74082780D01*
X81988583Y-73968442D01*
X82192331Y-73820409D01*
X82192332Y-73820409D01*
X82370409Y-73642332D01*
X82370409Y-73642331D01*
X82518442Y-73438583D01*
X82632780Y-73214184D01*
X82710602Y-72974671D01*
X82710602Y-72974668D01*
X82730348Y-72850000D01*
X81640748Y-72850000D01*
X81662518Y-72812292D01*
X81700000Y-72672409D01*
X81700000Y-72527591D01*
X81662518Y-72387708D01*
X81640748Y-72350000D01*
X82730348Y-72350000D01*
X82710602Y-72225331D01*
X82710602Y-72225328D01*
X82632780Y-71985815D01*
X82518442Y-71761416D01*
X82370409Y-71557668D01*
X82370409Y-71557667D01*
X82192332Y-71379590D01*
X81988583Y-71231557D01*
X81764184Y-71117219D01*
X81524670Y-71039397D01*
X81400000Y-71019650D01*
X81400000Y-72109252D01*
X81362292Y-72087482D01*
X81222409Y-72050000D01*
X81077591Y-72050000D01*
X80937708Y-72087482D01*
X80900000Y-72109252D01*
X80900000Y-71019650D01*
X80775330Y-71039397D01*
X80775327Y-71039397D01*
X80535815Y-71117219D01*
X80311416Y-71231557D01*
X80107668Y-71379590D01*
X80107667Y-71379590D01*
X79929590Y-71557667D01*
X79929590Y-71557668D01*
X79781557Y-71761416D01*
X79667219Y-71985815D01*
X79589397Y-72225328D01*
X79589397Y-72225331D01*
X79569652Y-72350000D01*
X77577500Y-72350000D01*
X77577500Y-69852135D01*
X86849500Y-69852135D01*
X86849500Y-71947870D01*
X86849501Y-71947876D01*
X86855908Y-72007483D01*
X86906202Y-72142328D01*
X86906206Y-72142335D01*
X86992452Y-72257544D01*
X86992455Y-72257547D01*
X87107664Y-72343793D01*
X87107671Y-72343797D01*
X87242517Y-72394091D01*
X87242516Y-72394091D01*
X87249444Y-72394835D01*
X87302127Y-72400500D01*
X95397872Y-72400499D01*
X95457483Y-72394091D01*
X95592331Y-72343796D01*
X95707546Y-72257546D01*
X95793796Y-72142331D01*
X95844091Y-72007483D01*
X95850500Y-71947873D01*
X95850499Y-69852128D01*
X95844091Y-69792517D01*
X95798767Y-69670998D01*
X95793797Y-69657671D01*
X95793793Y-69657664D01*
X95707547Y-69542455D01*
X95707544Y-69542452D01*
X95592335Y-69456206D01*
X95592328Y-69456202D01*
X95457482Y-69405908D01*
X95457483Y-69405908D01*
X95397883Y-69399501D01*
X95397881Y-69399500D01*
X95397873Y-69399500D01*
X95397864Y-69399500D01*
X87302129Y-69399500D01*
X87302123Y-69399501D01*
X87242516Y-69405908D01*
X87107671Y-69456202D01*
X87107664Y-69456206D01*
X86992455Y-69542452D01*
X86992452Y-69542455D01*
X86906206Y-69657664D01*
X86906202Y-69657671D01*
X86855908Y-69792517D01*
X86853268Y-69817077D01*
X86849501Y-69852123D01*
X86849500Y-69852135D01*
X77577500Y-69852135D01*
X77577500Y-66951280D01*
X77586144Y-66921839D01*
X77592668Y-66891853D01*
X77596422Y-66886837D01*
X77597185Y-66884241D01*
X77613814Y-66863604D01*
X77625290Y-66852128D01*
X99849500Y-66852128D01*
X99849500Y-74947870D01*
X99849501Y-74947876D01*
X99855908Y-75007483D01*
X99906202Y-75142328D01*
X99906206Y-75142335D01*
X99992452Y-75257544D01*
X99992455Y-75257547D01*
X100107664Y-75343793D01*
X100107671Y-75343797D01*
X100242517Y-75394091D01*
X100242516Y-75394091D01*
X100249444Y-75394835D01*
X100302127Y-75400500D01*
X102397872Y-75400499D01*
X102457483Y-75394091D01*
X102592331Y-75343796D01*
X102707546Y-75257546D01*
X102793796Y-75142331D01*
X102844091Y-75007483D01*
X102850500Y-74947873D01*
X102850499Y-66852128D01*
X107349500Y-66852128D01*
X107349500Y-74947870D01*
X107349501Y-74947876D01*
X107355908Y-75007483D01*
X107406202Y-75142328D01*
X107406206Y-75142335D01*
X107492452Y-75257544D01*
X107492455Y-75257547D01*
X107607664Y-75343793D01*
X107607671Y-75343797D01*
X107742517Y-75394091D01*
X107742516Y-75394091D01*
X107749444Y-75394835D01*
X107802127Y-75400500D01*
X109897872Y-75400499D01*
X109957483Y-75394091D01*
X110092331Y-75343796D01*
X110207546Y-75257546D01*
X110293796Y-75142331D01*
X110344091Y-75007483D01*
X110350500Y-74947873D01*
X110350500Y-72906106D01*
X116649500Y-72906106D01*
X116649500Y-75243893D01*
X116655643Y-75321950D01*
X116655643Y-75321951D01*
X116704293Y-75503515D01*
X116789629Y-75670998D01*
X116789629Y-75670999D01*
X116907920Y-75817077D01*
X116907922Y-75817079D01*
X117054000Y-75935370D01*
X117137742Y-75978038D01*
X117221483Y-76020706D01*
X117403047Y-76069356D01*
X117481112Y-76075500D01*
X117481118Y-76075500D01*
X118818882Y-76075500D01*
X118818888Y-76075500D01*
X118896953Y-76069356D01*
X119078517Y-76020706D01*
X119245999Y-75935370D01*
X119392078Y-75817078D01*
X119510370Y-75670999D01*
X119595706Y-75503517D01*
X119644356Y-75321953D01*
X119650500Y-75243888D01*
X119650500Y-72906112D01*
X119650500Y-72906106D01*
X120349500Y-72906106D01*
X120349500Y-75243893D01*
X120355643Y-75321950D01*
X120355643Y-75321951D01*
X120404293Y-75503515D01*
X120489629Y-75670998D01*
X120489629Y-75670999D01*
X120607920Y-75817077D01*
X120607922Y-75817079D01*
X120754000Y-75935370D01*
X120837742Y-75978038D01*
X120921483Y-76020706D01*
X121103047Y-76069356D01*
X121181112Y-76075500D01*
X121181118Y-76075500D01*
X122518882Y-76075500D01*
X122518888Y-76075500D01*
X122596953Y-76069356D01*
X122778517Y-76020706D01*
X122945999Y-75935370D01*
X123092078Y-75817078D01*
X123210370Y-75670999D01*
X123295706Y-75503517D01*
X123344356Y-75321953D01*
X123350500Y-75243888D01*
X123350500Y-72906112D01*
X123350500Y-72906106D01*
X124349500Y-72906106D01*
X124349500Y-75243893D01*
X124355643Y-75321950D01*
X124355643Y-75321951D01*
X124404293Y-75503515D01*
X124489629Y-75670998D01*
X124489629Y-75670999D01*
X124607920Y-75817077D01*
X124607922Y-75817079D01*
X124754000Y-75935370D01*
X124837742Y-75978038D01*
X124921483Y-76020706D01*
X125103047Y-76069356D01*
X125181112Y-76075500D01*
X125181118Y-76075500D01*
X126518882Y-76075500D01*
X126518888Y-76075500D01*
X126596953Y-76069356D01*
X126778517Y-76020706D01*
X126945999Y-75935370D01*
X127092078Y-75817078D01*
X127210370Y-75670999D01*
X127295706Y-75503517D01*
X127344356Y-75321953D01*
X127350500Y-75243888D01*
X127350500Y-72906112D01*
X127350500Y-72906106D01*
X128049500Y-72906106D01*
X128049500Y-75243893D01*
X128055643Y-75321950D01*
X128055643Y-75321951D01*
X128104293Y-75503515D01*
X128189629Y-75670998D01*
X128189629Y-75670999D01*
X128307920Y-75817077D01*
X128307922Y-75817079D01*
X128454000Y-75935370D01*
X128537742Y-75978038D01*
X128621483Y-76020706D01*
X128803047Y-76069356D01*
X128881112Y-76075500D01*
X128881118Y-76075500D01*
X130218882Y-76075500D01*
X130218888Y-76075500D01*
X130296953Y-76069356D01*
X130478517Y-76020706D01*
X130645999Y-75935370D01*
X130792078Y-75817078D01*
X130910370Y-75670999D01*
X130995706Y-75503517D01*
X131044356Y-75321953D01*
X131050500Y-75243888D01*
X131050500Y-72906112D01*
X131044356Y-72828047D01*
X130995706Y-72646483D01*
X130910370Y-72479001D01*
X130910370Y-72479000D01*
X130812092Y-72357636D01*
X130792079Y-72332922D01*
X130792077Y-72332920D01*
X130645999Y-72214629D01*
X130478515Y-72129293D01*
X130296950Y-72080643D01*
X130218893Y-72074500D01*
X130218888Y-72074500D01*
X128881112Y-72074500D01*
X128881106Y-72074500D01*
X128803049Y-72080643D01*
X128803048Y-72080643D01*
X128621484Y-72129293D01*
X128454001Y-72214629D01*
X128454000Y-72214629D01*
X128307922Y-72332920D01*
X128307920Y-72332922D01*
X128189629Y-72479000D01*
X128189629Y-72479001D01*
X128104293Y-72646484D01*
X128055643Y-72828048D01*
X128055643Y-72828049D01*
X128049500Y-72906106D01*
X127350500Y-72906106D01*
X127344356Y-72828047D01*
X127295706Y-72646483D01*
X127210370Y-72479001D01*
X127210370Y-72479000D01*
X127092079Y-72332922D01*
X127092077Y-72332920D01*
X126945999Y-72214629D01*
X126778515Y-72129293D01*
X126596950Y-72080643D01*
X126518893Y-72074500D01*
X126518888Y-72074500D01*
X125181112Y-72074500D01*
X125181106Y-72074500D01*
X125103049Y-72080643D01*
X125103048Y-72080643D01*
X124921484Y-72129293D01*
X124754001Y-72214629D01*
X124754000Y-72214629D01*
X124607922Y-72332920D01*
X124607920Y-72332922D01*
X124489629Y-72479000D01*
X124489629Y-72479001D01*
X124404293Y-72646484D01*
X124355643Y-72828048D01*
X124355643Y-72828049D01*
X124349500Y-72906106D01*
X123350500Y-72906106D01*
X123344356Y-72828047D01*
X123295706Y-72646483D01*
X123210370Y-72479001D01*
X123210370Y-72479000D01*
X123092079Y-72332922D01*
X123092077Y-72332920D01*
X122945999Y-72214629D01*
X122778515Y-72129293D01*
X122596950Y-72080643D01*
X122518893Y-72074500D01*
X122518888Y-72074500D01*
X121181112Y-72074500D01*
X121181106Y-72074500D01*
X121103049Y-72080643D01*
X121103048Y-72080643D01*
X120921484Y-72129293D01*
X120754001Y-72214629D01*
X120754000Y-72214629D01*
X120607922Y-72332920D01*
X120607920Y-72332922D01*
X120489629Y-72479000D01*
X120489629Y-72479001D01*
X120404293Y-72646484D01*
X120355643Y-72828048D01*
X120355643Y-72828049D01*
X120349500Y-72906106D01*
X119650500Y-72906106D01*
X119644356Y-72828047D01*
X119595706Y-72646483D01*
X119510370Y-72479001D01*
X119510370Y-72479000D01*
X119392079Y-72332922D01*
X119392077Y-72332920D01*
X119245999Y-72214629D01*
X119078515Y-72129293D01*
X118896950Y-72080643D01*
X118818893Y-72074500D01*
X118818888Y-72074500D01*
X117481112Y-72074500D01*
X117481106Y-72074500D01*
X117403049Y-72080643D01*
X117403048Y-72080643D01*
X117221484Y-72129293D01*
X117054001Y-72214629D01*
X117054000Y-72214629D01*
X116907922Y-72332920D01*
X116907920Y-72332922D01*
X116789629Y-72479000D01*
X116789629Y-72479001D01*
X116704293Y-72646484D01*
X116655643Y-72828048D01*
X116655643Y-72828049D01*
X116649500Y-72906106D01*
X110350500Y-72906106D01*
X110350499Y-70804636D01*
X110350499Y-66906106D01*
X116649500Y-66906106D01*
X116649500Y-69243893D01*
X116655643Y-69321950D01*
X116655643Y-69321951D01*
X116704293Y-69503515D01*
X116789629Y-69670998D01*
X116789629Y-69670999D01*
X116907920Y-69817077D01*
X116907922Y-69817079D01*
X117054000Y-69935370D01*
X117137742Y-69978038D01*
X117221483Y-70020706D01*
X117403047Y-70069356D01*
X117481112Y-70075500D01*
X117481118Y-70075500D01*
X118818882Y-70075500D01*
X118818888Y-70075500D01*
X118896953Y-70069356D01*
X119078517Y-70020706D01*
X119245999Y-69935370D01*
X119348786Y-69852135D01*
X119392077Y-69817079D01*
X119392079Y-69817077D01*
X119510370Y-69670999D01*
X119595706Y-69503517D01*
X119644356Y-69321953D01*
X119650500Y-69243888D01*
X119650500Y-66906112D01*
X119650500Y-66906106D01*
X120349500Y-66906106D01*
X120349500Y-69243893D01*
X120355643Y-69321950D01*
X120355643Y-69321951D01*
X120404293Y-69503515D01*
X120489629Y-69670998D01*
X120489629Y-69670999D01*
X120607920Y-69817077D01*
X120607922Y-69817079D01*
X120754000Y-69935370D01*
X120837742Y-69978038D01*
X120921483Y-70020706D01*
X121103047Y-70069356D01*
X121181112Y-70075500D01*
X121181118Y-70075500D01*
X122518882Y-70075500D01*
X122518888Y-70075500D01*
X122596953Y-70069356D01*
X122778517Y-70020706D01*
X122945999Y-69935370D01*
X123048786Y-69852135D01*
X123092077Y-69817079D01*
X123092079Y-69817077D01*
X123210370Y-69670999D01*
X123295706Y-69503517D01*
X123344356Y-69321953D01*
X123350500Y-69243888D01*
X123350500Y-66906112D01*
X123350500Y-66906106D01*
X124349500Y-66906106D01*
X124349500Y-69243893D01*
X124355643Y-69321950D01*
X124355643Y-69321951D01*
X124404293Y-69503515D01*
X124489629Y-69670998D01*
X124489629Y-69670999D01*
X124607920Y-69817077D01*
X124607922Y-69817079D01*
X124754000Y-69935370D01*
X124837742Y-69978038D01*
X124921483Y-70020706D01*
X125103047Y-70069356D01*
X125181112Y-70075500D01*
X125181118Y-70075500D01*
X126518882Y-70075500D01*
X126518888Y-70075500D01*
X126596953Y-70069356D01*
X126778517Y-70020706D01*
X126945999Y-69935370D01*
X127048786Y-69852135D01*
X127092077Y-69817079D01*
X127092079Y-69817077D01*
X127210370Y-69670999D01*
X127295706Y-69503517D01*
X127344356Y-69321953D01*
X127350500Y-69243888D01*
X127350500Y-66906112D01*
X127350500Y-66906106D01*
X128049500Y-66906106D01*
X128049500Y-69243893D01*
X128055643Y-69321950D01*
X128055643Y-69321951D01*
X128104293Y-69503515D01*
X128189629Y-69670998D01*
X128189629Y-69670999D01*
X128307920Y-69817077D01*
X128307922Y-69817079D01*
X128454000Y-69935370D01*
X128537742Y-69978038D01*
X128621483Y-70020706D01*
X128803047Y-70069356D01*
X128881112Y-70075500D01*
X128881118Y-70075500D01*
X130218882Y-70075500D01*
X130218888Y-70075500D01*
X130296953Y-70069356D01*
X130478517Y-70020706D01*
X130645999Y-69935370D01*
X130748786Y-69852135D01*
X130792077Y-69817079D01*
X130792079Y-69817077D01*
X130910370Y-69670999D01*
X130995706Y-69503517D01*
X131044356Y-69321953D01*
X131050500Y-69243888D01*
X131050500Y-66906112D01*
X131044356Y-66828047D01*
X130995706Y-66646483D01*
X130910370Y-66479001D01*
X130910370Y-66479000D01*
X130792079Y-66332922D01*
X130792077Y-66332920D01*
X130645999Y-66214629D01*
X130478515Y-66129293D01*
X130296950Y-66080643D01*
X130218893Y-66074500D01*
X130218888Y-66074500D01*
X128881112Y-66074500D01*
X128881106Y-66074500D01*
X128803049Y-66080643D01*
X128803048Y-66080643D01*
X128621484Y-66129293D01*
X128454001Y-66214629D01*
X128454000Y-66214629D01*
X128307922Y-66332920D01*
X128307920Y-66332922D01*
X128189629Y-66479000D01*
X128189629Y-66479001D01*
X128104293Y-66646484D01*
X128055643Y-66828048D01*
X128055643Y-66828049D01*
X128049500Y-66906106D01*
X127350500Y-66906106D01*
X127344356Y-66828047D01*
X127295706Y-66646483D01*
X127210370Y-66479001D01*
X127210370Y-66479000D01*
X127092079Y-66332922D01*
X127092077Y-66332920D01*
X126945999Y-66214629D01*
X126778515Y-66129293D01*
X126596950Y-66080643D01*
X126518893Y-66074500D01*
X126518888Y-66074500D01*
X125181112Y-66074500D01*
X125181106Y-66074500D01*
X125103049Y-66080643D01*
X125103048Y-66080643D01*
X124921484Y-66129293D01*
X124754001Y-66214629D01*
X124754000Y-66214629D01*
X124607922Y-66332920D01*
X124607920Y-66332922D01*
X124489629Y-66479000D01*
X124489629Y-66479001D01*
X124404293Y-66646484D01*
X124355643Y-66828048D01*
X124355643Y-66828049D01*
X124349500Y-66906106D01*
X123350500Y-66906106D01*
X123344356Y-66828047D01*
X123295706Y-66646483D01*
X123210370Y-66479001D01*
X123210370Y-66479000D01*
X123092079Y-66332922D01*
X123092077Y-66332920D01*
X122945999Y-66214629D01*
X122778515Y-66129293D01*
X122596950Y-66080643D01*
X122518893Y-66074500D01*
X122518888Y-66074500D01*
X121181112Y-66074500D01*
X121181106Y-66074500D01*
X121103049Y-66080643D01*
X121103048Y-66080643D01*
X120921484Y-66129293D01*
X120754001Y-66214629D01*
X120754000Y-66214629D01*
X120607922Y-66332920D01*
X120607920Y-66332922D01*
X120489629Y-66479000D01*
X120489629Y-66479001D01*
X120404293Y-66646484D01*
X120355643Y-66828048D01*
X120355643Y-66828049D01*
X120349500Y-66906106D01*
X119650500Y-66906106D01*
X119644356Y-66828047D01*
X119595706Y-66646483D01*
X119510370Y-66479001D01*
X119510370Y-66479000D01*
X119392079Y-66332922D01*
X119392077Y-66332920D01*
X119245999Y-66214629D01*
X119078515Y-66129293D01*
X118896950Y-66080643D01*
X118818893Y-66074500D01*
X118818888Y-66074500D01*
X117481112Y-66074500D01*
X117481106Y-66074500D01*
X117403049Y-66080643D01*
X117403048Y-66080643D01*
X117221484Y-66129293D01*
X117054001Y-66214629D01*
X117054000Y-66214629D01*
X116907922Y-66332920D01*
X116907920Y-66332922D01*
X116789629Y-66479000D01*
X116789629Y-66479001D01*
X116704293Y-66646484D01*
X116655643Y-66828048D01*
X116655643Y-66828049D01*
X116649500Y-66906106D01*
X110350499Y-66906106D01*
X110350499Y-66903677D01*
X110350499Y-66852128D01*
X110350498Y-66852123D01*
X110350497Y-66852116D01*
X110344091Y-66792517D01*
X110307359Y-66694034D01*
X110293797Y-66657671D01*
X110293793Y-66657664D01*
X110207547Y-66542455D01*
X110207544Y-66542452D01*
X110092335Y-66456206D01*
X110092328Y-66456202D01*
X109957482Y-66405908D01*
X109957483Y-66405908D01*
X109897883Y-66399501D01*
X109897881Y-66399500D01*
X109897873Y-66399500D01*
X109897864Y-66399500D01*
X107802129Y-66399500D01*
X107802123Y-66399501D01*
X107742516Y-66405908D01*
X107607671Y-66456202D01*
X107607664Y-66456206D01*
X107492455Y-66542452D01*
X107492452Y-66542455D01*
X107406206Y-66657664D01*
X107406202Y-66657671D01*
X107355908Y-66792517D01*
X107349501Y-66852116D01*
X107349500Y-66852128D01*
X102850499Y-66852128D01*
X102844091Y-66792517D01*
X102807359Y-66694034D01*
X102793797Y-66657671D01*
X102793793Y-66657664D01*
X102707547Y-66542455D01*
X102707544Y-66542452D01*
X102592335Y-66456206D01*
X102592328Y-66456202D01*
X102457482Y-66405908D01*
X102457483Y-66405908D01*
X102397883Y-66399501D01*
X102397881Y-66399500D01*
X102397873Y-66399500D01*
X102397864Y-66399500D01*
X100302129Y-66399500D01*
X100302123Y-66399501D01*
X100242516Y-66405908D01*
X100107671Y-66456202D01*
X100107664Y-66456206D01*
X99992455Y-66542452D01*
X99992452Y-66542455D01*
X99906206Y-66657664D01*
X99906202Y-66657671D01*
X99855908Y-66792517D01*
X99849501Y-66852116D01*
X99849500Y-66852128D01*
X77625290Y-66852128D01*
X80400600Y-64076817D01*
X80461923Y-64043333D01*
X80488281Y-64040499D01*
X82297871Y-64040499D01*
X82297872Y-64040499D01*
X82357483Y-64034091D01*
X82492331Y-63983796D01*
X82607546Y-63897546D01*
X82693796Y-63782331D01*
X82744091Y-63647483D01*
X82750500Y-63587873D01*
X82750499Y-61452135D01*
X96349500Y-61452135D01*
X96349500Y-63547870D01*
X96349501Y-63547876D01*
X96355908Y-63607483D01*
X96406202Y-63742328D01*
X96406206Y-63742335D01*
X96492452Y-63857544D01*
X96492455Y-63857547D01*
X96607664Y-63943793D01*
X96607671Y-63943797D01*
X96742517Y-63994091D01*
X96742516Y-63994091D01*
X96749444Y-63994835D01*
X96802127Y-64000500D01*
X104897872Y-64000499D01*
X104957483Y-63994091D01*
X105092331Y-63943796D01*
X105207546Y-63857546D01*
X105293796Y-63742331D01*
X105344091Y-63607483D01*
X105350500Y-63547873D01*
X105350499Y-61452128D01*
X105344091Y-61392517D01*
X105306648Y-61292128D01*
X105293797Y-61257671D01*
X105293793Y-61257664D01*
X105207547Y-61142455D01*
X105207544Y-61142452D01*
X105092335Y-61056206D01*
X105092328Y-61056202D01*
X104994886Y-61019859D01*
X104957482Y-61005908D01*
X104957483Y-61005908D01*
X104897883Y-60999501D01*
X104897881Y-60999500D01*
X104897873Y-60999500D01*
X104897864Y-60999500D01*
X96802129Y-60999500D01*
X96802123Y-60999501D01*
X96742516Y-61005908D01*
X96607671Y-61056202D01*
X96607664Y-61056206D01*
X96492455Y-61142452D01*
X96492452Y-61142455D01*
X96406206Y-61257664D01*
X96406202Y-61257671D01*
X96355908Y-61392517D01*
X96351082Y-61437409D01*
X96349501Y-61452123D01*
X96349500Y-61452135D01*
X82750499Y-61452135D01*
X82750499Y-61292128D01*
X82744091Y-61232517D01*
X82693796Y-61097669D01*
X82693795Y-61097668D01*
X82693793Y-61097664D01*
X82607547Y-60982455D01*
X82607544Y-60982452D01*
X82505560Y-60906106D01*
X116649500Y-60906106D01*
X116649500Y-63243893D01*
X116655643Y-63321950D01*
X116655643Y-63321951D01*
X116704293Y-63503515D01*
X116789629Y-63670998D01*
X116789629Y-63670999D01*
X116907920Y-63817077D01*
X116907922Y-63817079D01*
X117054000Y-63935370D01*
X117137742Y-63978038D01*
X117221483Y-64020706D01*
X117403047Y-64069356D01*
X117481112Y-64075500D01*
X117481118Y-64075500D01*
X118818882Y-64075500D01*
X118818888Y-64075500D01*
X118896953Y-64069356D01*
X119078517Y-64020706D01*
X119245999Y-63935370D01*
X119342104Y-63857546D01*
X119392077Y-63817079D01*
X119392079Y-63817077D01*
X119510370Y-63670999D01*
X119595706Y-63503517D01*
X119644356Y-63321953D01*
X119650500Y-63243888D01*
X119650500Y-60906112D01*
X119650500Y-60906106D01*
X120349500Y-60906106D01*
X120349500Y-63243893D01*
X120355643Y-63321950D01*
X120355643Y-63321951D01*
X120404293Y-63503515D01*
X120489629Y-63670998D01*
X120489629Y-63670999D01*
X120607920Y-63817077D01*
X120607922Y-63817079D01*
X120754000Y-63935370D01*
X120837742Y-63978038D01*
X120921483Y-64020706D01*
X121103047Y-64069356D01*
X121181112Y-64075500D01*
X121181118Y-64075500D01*
X122518882Y-64075500D01*
X122518888Y-64075500D01*
X122596953Y-64069356D01*
X122778517Y-64020706D01*
X122945999Y-63935370D01*
X123042104Y-63857546D01*
X123092077Y-63817079D01*
X123092079Y-63817077D01*
X123210370Y-63670999D01*
X123295706Y-63503517D01*
X123344356Y-63321953D01*
X123350500Y-63243888D01*
X123350500Y-60906112D01*
X123350500Y-60906106D01*
X124349500Y-60906106D01*
X124349500Y-63243893D01*
X124355643Y-63321950D01*
X124355643Y-63321951D01*
X124404293Y-63503515D01*
X124489629Y-63670998D01*
X124489629Y-63670999D01*
X124607920Y-63817077D01*
X124607922Y-63817079D01*
X124754000Y-63935370D01*
X124837742Y-63978038D01*
X124921483Y-64020706D01*
X125103047Y-64069356D01*
X125181112Y-64075500D01*
X125181118Y-64075500D01*
X126518882Y-64075500D01*
X126518888Y-64075500D01*
X126596953Y-64069356D01*
X126778517Y-64020706D01*
X126945999Y-63935370D01*
X127042104Y-63857546D01*
X127092077Y-63817079D01*
X127092079Y-63817077D01*
X127210370Y-63670999D01*
X127295706Y-63503517D01*
X127344356Y-63321953D01*
X127350500Y-63243888D01*
X127350500Y-60906112D01*
X127350500Y-60906106D01*
X128049500Y-60906106D01*
X128049500Y-63243893D01*
X128055643Y-63321950D01*
X128055643Y-63321951D01*
X128104293Y-63503515D01*
X128189629Y-63670998D01*
X128189629Y-63670999D01*
X128307920Y-63817077D01*
X128307922Y-63817079D01*
X128454000Y-63935370D01*
X128537742Y-63978038D01*
X128621483Y-64020706D01*
X128803047Y-64069356D01*
X128881112Y-64075500D01*
X128881118Y-64075500D01*
X130218882Y-64075500D01*
X130218888Y-64075500D01*
X130296953Y-64069356D01*
X130478517Y-64020706D01*
X130645999Y-63935370D01*
X130742104Y-63857546D01*
X130792077Y-63817079D01*
X130792079Y-63817077D01*
X130910370Y-63670999D01*
X130995706Y-63503517D01*
X131044356Y-63321953D01*
X131050500Y-63243888D01*
X131050500Y-62706153D01*
X131609500Y-62706153D01*
X131609500Y-62863846D01*
X131640261Y-63018489D01*
X131640263Y-63018497D01*
X131646061Y-63032494D01*
X131655500Y-63079947D01*
X131655500Y-66505552D01*
X131655499Y-66505578D01*
X131655499Y-66659314D01*
X131674356Y-66754115D01*
X131674358Y-66754123D01*
X131675598Y-66760354D01*
X131684495Y-66805080D01*
X131703983Y-66852127D01*
X131706209Y-66857502D01*
X131706211Y-66857507D01*
X131741366Y-66942381D01*
X131741372Y-66942392D01*
X131823942Y-67065968D01*
X131823943Y-67065969D01*
X132209181Y-67451206D01*
X132242666Y-67512529D01*
X132245500Y-67538887D01*
X132245500Y-69005053D01*
X132236062Y-69052501D01*
X132230263Y-69066503D01*
X132230262Y-69066506D01*
X132230260Y-69066511D01*
X132199500Y-69221153D01*
X132199500Y-69378846D01*
X132230261Y-69533489D01*
X132230264Y-69533501D01*
X132290602Y-69679172D01*
X132290609Y-69679185D01*
X132378210Y-69810288D01*
X132378213Y-69810292D01*
X132489707Y-69921786D01*
X132489711Y-69921789D01*
X132620814Y-70009390D01*
X132620827Y-70009397D01*
X132765583Y-70069356D01*
X132766503Y-70069737D01*
X132921153Y-70100499D01*
X132921156Y-70100500D01*
X132921158Y-70100500D01*
X133078844Y-70100500D01*
X133078845Y-70100499D01*
X133233497Y-70069737D01*
X133379179Y-70009394D01*
X133510289Y-69921789D01*
X133621789Y-69810289D01*
X133709394Y-69679179D01*
X133769737Y-69533497D01*
X133800500Y-69378842D01*
X133800500Y-69221158D01*
X133800500Y-69221155D01*
X133800499Y-69221153D01*
X133769739Y-69066511D01*
X133769738Y-69066508D01*
X133769737Y-69066503D01*
X133763937Y-69052501D01*
X133754500Y-69005053D01*
X133754500Y-67255446D01*
X133754501Y-67255425D01*
X133754501Y-67100685D01*
X133725506Y-66954926D01*
X133725505Y-66954925D01*
X133725505Y-66954921D01*
X133668630Y-66817611D01*
X133586059Y-66694034D01*
X133586057Y-66694031D01*
X133200819Y-66308793D01*
X133167334Y-66247470D01*
X133164500Y-66221112D01*
X133164500Y-63079947D01*
X133173939Y-63032494D01*
X133179737Y-63018497D01*
X133210500Y-62863842D01*
X133210500Y-62706158D01*
X133210500Y-62706155D01*
X133210499Y-62706153D01*
X133179738Y-62551510D01*
X133179737Y-62551503D01*
X133158927Y-62501263D01*
X133119397Y-62405827D01*
X133119390Y-62405814D01*
X133031789Y-62274711D01*
X133031786Y-62274707D01*
X132920292Y-62163213D01*
X132920288Y-62163210D01*
X132789185Y-62075609D01*
X132789172Y-62075602D01*
X132643501Y-62015264D01*
X132643489Y-62015261D01*
X132488845Y-61984500D01*
X132488842Y-61984500D01*
X132331158Y-61984500D01*
X132331155Y-61984500D01*
X132176510Y-62015261D01*
X132176498Y-62015264D01*
X132030827Y-62075602D01*
X132030814Y-62075609D01*
X131899711Y-62163210D01*
X131899707Y-62163213D01*
X131788213Y-62274707D01*
X131788210Y-62274711D01*
X131700609Y-62405814D01*
X131700602Y-62405827D01*
X131640264Y-62551498D01*
X131640261Y-62551510D01*
X131609500Y-62706153D01*
X131050500Y-62706153D01*
X131050500Y-60906112D01*
X131044356Y-60828047D01*
X130995706Y-60646483D01*
X130910370Y-60479001D01*
X130910370Y-60479000D01*
X130792079Y-60332922D01*
X130792077Y-60332920D01*
X130645999Y-60214629D01*
X130478515Y-60129293D01*
X130296950Y-60080643D01*
X130218893Y-60074500D01*
X130218888Y-60074500D01*
X128881112Y-60074500D01*
X128881106Y-60074500D01*
X128803049Y-60080643D01*
X128803048Y-60080643D01*
X128621484Y-60129293D01*
X128454001Y-60214629D01*
X128454000Y-60214629D01*
X128307922Y-60332920D01*
X128307920Y-60332922D01*
X128189629Y-60479000D01*
X128189629Y-60479001D01*
X128104293Y-60646484D01*
X128055643Y-60828048D01*
X128055643Y-60828049D01*
X128049500Y-60906106D01*
X127350500Y-60906106D01*
X127344356Y-60828047D01*
X127295706Y-60646483D01*
X127210370Y-60479001D01*
X127210370Y-60479000D01*
X127092079Y-60332922D01*
X127092077Y-60332920D01*
X126945999Y-60214629D01*
X126778515Y-60129293D01*
X126596950Y-60080643D01*
X126518893Y-60074500D01*
X126518888Y-60074500D01*
X125181112Y-60074500D01*
X125181106Y-60074500D01*
X125103049Y-60080643D01*
X125103048Y-60080643D01*
X124921484Y-60129293D01*
X124754001Y-60214629D01*
X124754000Y-60214629D01*
X124607922Y-60332920D01*
X124607920Y-60332922D01*
X124489629Y-60479000D01*
X124489629Y-60479001D01*
X124404293Y-60646484D01*
X124355643Y-60828048D01*
X124355643Y-60828049D01*
X124349500Y-60906106D01*
X123350500Y-60906106D01*
X123344356Y-60828047D01*
X123295706Y-60646483D01*
X123210370Y-60479001D01*
X123210370Y-60479000D01*
X123092079Y-60332922D01*
X123092077Y-60332920D01*
X122945999Y-60214629D01*
X122778515Y-60129293D01*
X122596950Y-60080643D01*
X122518893Y-60074500D01*
X122518888Y-60074500D01*
X121181112Y-60074500D01*
X121181106Y-60074500D01*
X121103049Y-60080643D01*
X121103048Y-60080643D01*
X120921484Y-60129293D01*
X120754001Y-60214629D01*
X120754000Y-60214629D01*
X120607922Y-60332920D01*
X120607920Y-60332922D01*
X120489629Y-60479000D01*
X120489629Y-60479001D01*
X120404293Y-60646484D01*
X120355643Y-60828048D01*
X120355643Y-60828049D01*
X120349500Y-60906106D01*
X119650500Y-60906106D01*
X119644356Y-60828047D01*
X119595706Y-60646483D01*
X119510370Y-60479001D01*
X119510370Y-60479000D01*
X119392079Y-60332922D01*
X119392077Y-60332920D01*
X119245999Y-60214629D01*
X119078515Y-60129293D01*
X118896950Y-60080643D01*
X118818893Y-60074500D01*
X118818888Y-60074500D01*
X117481112Y-60074500D01*
X117481106Y-60074500D01*
X117403049Y-60080643D01*
X117403048Y-60080643D01*
X117221484Y-60129293D01*
X117054001Y-60214629D01*
X117054000Y-60214629D01*
X116907922Y-60332920D01*
X116907920Y-60332922D01*
X116789629Y-60479000D01*
X116789629Y-60479001D01*
X116704293Y-60646484D01*
X116655643Y-60828048D01*
X116655643Y-60828049D01*
X116649500Y-60906106D01*
X82505560Y-60906106D01*
X82492335Y-60896206D01*
X82492328Y-60896202D01*
X82357482Y-60845908D01*
X82357483Y-60845908D01*
X82297883Y-60839501D01*
X82297881Y-60839500D01*
X82297873Y-60839500D01*
X82297864Y-60839500D01*
X80002129Y-60839500D01*
X80002123Y-60839501D01*
X79942516Y-60845908D01*
X79807671Y-60896202D01*
X79807664Y-60896206D01*
X79692455Y-60982452D01*
X79692452Y-60982455D01*
X79606206Y-61097664D01*
X79606202Y-61097671D01*
X79555908Y-61232517D01*
X79549501Y-61292116D01*
X79549501Y-61292123D01*
X79549500Y-61292135D01*
X79549500Y-63101718D01*
X79529815Y-63168757D01*
X79513180Y-63189399D01*
X76549992Y-66152589D01*
X76506289Y-66196292D01*
X76462586Y-66239994D01*
X76462585Y-66239996D01*
X76393920Y-66342761D01*
X76393916Y-66342768D01*
X76386931Y-66359631D01*
X76386927Y-66359641D01*
X76384741Y-66364921D01*
X76346614Y-66456965D01*
X76329610Y-66542454D01*
X76328354Y-66548768D01*
X76328350Y-66548781D01*
X76322500Y-66578194D01*
X76322500Y-77058718D01*
X76302815Y-77125757D01*
X76286181Y-77146399D01*
X75244743Y-78187836D01*
X75183420Y-78221321D01*
X75118744Y-78218086D01*
X75021370Y-78186447D01*
X74788097Y-78149500D01*
X74788092Y-78149500D01*
X74551908Y-78149500D01*
X74551903Y-78149500D01*
X74318631Y-78186446D01*
X74094003Y-78259433D01*
X73883566Y-78366657D01*
X73814748Y-78416657D01*
X73692490Y-78505483D01*
X73692488Y-78505485D01*
X73692487Y-78505485D01*
X73525484Y-78672488D01*
X73500318Y-78707127D01*
X73444987Y-78749792D01*
X73375374Y-78755771D01*
X73313579Y-78723165D01*
X73299682Y-78707127D01*
X73274517Y-78672490D01*
X73107510Y-78505483D01*
X72916433Y-78366657D01*
X72705996Y-78259433D01*
X72481368Y-78186446D01*
X72248097Y-78149500D01*
X72248092Y-78149500D01*
X72011908Y-78149500D01*
X72011903Y-78149500D01*
X71778631Y-78186446D01*
X71554003Y-78259433D01*
X71343566Y-78366657D01*
X71274748Y-78416657D01*
X71152490Y-78505483D01*
X71152488Y-78505485D01*
X71152487Y-78505485D01*
X70985485Y-78672487D01*
X70985485Y-78672488D01*
X70985483Y-78672490D01*
X70929320Y-78749792D01*
X70846657Y-78863566D01*
X70739433Y-79074003D01*
X70666446Y-79298631D01*
X70629500Y-79531902D01*
X69112580Y-79531902D01*
X69083553Y-79348631D01*
X69012974Y-79131414D01*
X69010568Y-79124008D01*
X69010566Y-79124005D01*
X69010566Y-79124003D01*
X68903342Y-78913566D01*
X68897931Y-78906118D01*
X68764517Y-78722490D01*
X68597510Y-78555483D01*
X68406433Y-78416657D01*
X68195996Y-78309433D01*
X67971368Y-78236446D01*
X67738097Y-78199500D01*
X67738092Y-78199500D01*
X67501908Y-78199500D01*
X67501903Y-78199500D01*
X67268631Y-78236446D01*
X67044003Y-78309433D01*
X66833566Y-78416657D01*
X66747759Y-78479000D01*
X66642490Y-78555483D01*
X66642488Y-78555485D01*
X66642487Y-78555485D01*
X66475484Y-78722488D01*
X66450318Y-78757127D01*
X66394987Y-78799792D01*
X66325374Y-78805771D01*
X66263579Y-78773165D01*
X66249682Y-78757127D01*
X66225007Y-78723165D01*
X66224517Y-78722490D01*
X66057510Y-78555483D01*
X65866433Y-78416657D01*
X65655996Y-78309433D01*
X65431368Y-78236446D01*
X65198097Y-78199500D01*
X65198092Y-78199500D01*
X64961908Y-78199500D01*
X64961903Y-78199500D01*
X64728631Y-78236446D01*
X64504003Y-78309433D01*
X64293566Y-78416657D01*
X64207759Y-78479000D01*
X64102490Y-78555483D01*
X64102488Y-78555485D01*
X64102487Y-78555485D01*
X63935485Y-78722487D01*
X63935485Y-78722488D01*
X63935483Y-78722490D01*
X63879320Y-78799792D01*
X63796657Y-78913566D01*
X63689433Y-79124003D01*
X63616446Y-79348631D01*
X63579500Y-79581902D01*
X59400000Y-79581902D01*
X59400000Y-74326618D01*
X59419685Y-74259579D01*
X59472489Y-74213824D01*
X59541647Y-74203880D01*
X59605203Y-74232905D01*
X59624319Y-74253733D01*
X59627054Y-74257498D01*
X59627056Y-74257501D01*
X59628566Y-74259579D01*
X59743121Y-74417252D01*
X59882753Y-74556884D01*
X60032234Y-74665486D01*
X60042499Y-74672944D01*
X60218439Y-74762591D01*
X60343637Y-74803270D01*
X60406236Y-74823610D01*
X60601264Y-74854500D01*
X60601269Y-74854500D01*
X60798736Y-74854500D01*
X60993763Y-74823610D01*
X61181561Y-74762591D01*
X61357501Y-74672944D01*
X61447192Y-74607779D01*
X61517246Y-74556884D01*
X61517248Y-74556881D01*
X61517252Y-74556879D01*
X61656879Y-74417252D01*
X61656881Y-74417248D01*
X61656884Y-74417246D01*
X61722728Y-74326618D01*
X61772944Y-74257501D01*
X61862591Y-74081561D01*
X61923610Y-73893763D01*
X61935228Y-73820409D01*
X61954500Y-73698736D01*
X61954500Y-73501263D01*
X61923610Y-73306236D01*
X61884783Y-73186740D01*
X61862591Y-73118439D01*
X61772944Y-72942499D01*
X61753718Y-72916036D01*
X61656884Y-72782753D01*
X61517246Y-72643115D01*
X61357504Y-72527058D01*
X61357503Y-72527057D01*
X61357501Y-72527056D01*
X61181561Y-72437409D01*
X61181558Y-72437408D01*
X60993763Y-72376389D01*
X60798736Y-72345500D01*
X60798731Y-72345500D01*
X60601269Y-72345500D01*
X60601264Y-72345500D01*
X60406236Y-72376389D01*
X60218441Y-72437408D01*
X60042495Y-72527058D01*
X59882753Y-72643115D01*
X59743119Y-72782749D01*
X59743115Y-72782754D01*
X59624318Y-72946266D01*
X59568989Y-72988932D01*
X59499375Y-72994911D01*
X59437580Y-72962306D01*
X59403223Y-72901467D01*
X59400000Y-72873381D01*
X59400000Y-69277135D01*
X68924500Y-69277135D01*
X68924500Y-71922870D01*
X68924501Y-71922876D01*
X68930908Y-71982483D01*
X68981202Y-72117328D01*
X68981206Y-72117335D01*
X69067452Y-72232544D01*
X69067455Y-72232547D01*
X69182664Y-72318793D01*
X69182671Y-72318797D01*
X69317517Y-72369091D01*
X69317516Y-72369091D01*
X69324444Y-72369835D01*
X69377127Y-72375500D01*
X72022872Y-72375499D01*
X72082483Y-72369091D01*
X72217331Y-72318796D01*
X72332546Y-72232546D01*
X72418796Y-72117331D01*
X72469091Y-71982483D01*
X72475500Y-71922873D01*
X72475499Y-69277128D01*
X72469091Y-69217517D01*
X72453419Y-69175499D01*
X72418797Y-69082671D01*
X72418793Y-69082664D01*
X72332547Y-68967455D01*
X72332544Y-68967452D01*
X72217335Y-68881206D01*
X72217328Y-68881202D01*
X72082482Y-68830908D01*
X72082483Y-68830908D01*
X72022883Y-68824501D01*
X72022881Y-68824500D01*
X72022873Y-68824500D01*
X72022864Y-68824500D01*
X69377129Y-68824500D01*
X69377123Y-68824501D01*
X69317516Y-68830908D01*
X69182671Y-68881202D01*
X69182664Y-68881206D01*
X69067455Y-68967452D01*
X69067452Y-68967455D01*
X68981206Y-69082664D01*
X68981202Y-69082671D01*
X68930908Y-69217517D01*
X68928073Y-69243893D01*
X68924501Y-69277123D01*
X68924500Y-69277135D01*
X59400000Y-69277135D01*
X59400000Y-65483659D01*
X68925000Y-65483659D01*
X68925000Y-65716340D01*
X68955369Y-65947024D01*
X69015592Y-66171779D01*
X69104632Y-66386740D01*
X69104636Y-66386750D01*
X69220970Y-66588248D01*
X69280551Y-66665894D01*
X69945884Y-66000560D01*
X69946740Y-66002626D01*
X70039762Y-66141844D01*
X70158156Y-66260238D01*
X70297374Y-66353260D01*
X70299437Y-66354114D01*
X69634104Y-67019446D01*
X69634104Y-67019447D01*
X69711752Y-67079029D01*
X69913249Y-67195363D01*
X69913259Y-67195367D01*
X70128220Y-67284407D01*
X70352975Y-67344630D01*
X70583659Y-67375000D01*
X70816341Y-67375000D01*
X71047024Y-67344630D01*
X71271779Y-67284407D01*
X71486740Y-67195367D01*
X71486750Y-67195363D01*
X71688255Y-67079024D01*
X71765894Y-67019447D01*
X71765894Y-67019446D01*
X71100562Y-66354114D01*
X71102626Y-66353260D01*
X71241844Y-66260238D01*
X71360238Y-66141844D01*
X71453260Y-66002626D01*
X71454114Y-66000562D01*
X72119446Y-66665894D01*
X72119447Y-66665894D01*
X72179024Y-66588255D01*
X72295363Y-66386750D01*
X72295367Y-66386740D01*
X72384407Y-66171779D01*
X72444630Y-65947024D01*
X72475000Y-65716340D01*
X72475000Y-65483659D01*
X72444630Y-65252975D01*
X72384407Y-65028220D01*
X72295367Y-64813259D01*
X72295363Y-64813249D01*
X72179029Y-64611752D01*
X72119447Y-64534104D01*
X72119446Y-64534104D01*
X71454114Y-65199436D01*
X71453260Y-65197374D01*
X71360238Y-65058156D01*
X71241844Y-64939762D01*
X71102626Y-64846740D01*
X71100560Y-64845884D01*
X71765894Y-64180551D01*
X71688248Y-64120970D01*
X71486750Y-64004636D01*
X71486740Y-64004632D01*
X71271779Y-63915592D01*
X71047024Y-63855369D01*
X70816341Y-63825000D01*
X70583659Y-63825000D01*
X70352975Y-63855369D01*
X70128220Y-63915592D01*
X69913259Y-64004632D01*
X69913249Y-64004636D01*
X69711747Y-64120973D01*
X69634104Y-64180550D01*
X69634104Y-64180551D01*
X70299438Y-64845885D01*
X70297374Y-64846740D01*
X70158156Y-64939762D01*
X70039762Y-65058156D01*
X69946740Y-65197374D01*
X69945885Y-65199438D01*
X69280551Y-64534104D01*
X69280550Y-64534104D01*
X69220973Y-64611747D01*
X69104636Y-64813249D01*
X69104632Y-64813259D01*
X69015592Y-65028220D01*
X68955369Y-65252975D01*
X68925000Y-65483659D01*
X59400000Y-65483659D01*
X59400000Y-63326618D01*
X59419685Y-63259579D01*
X59472489Y-63213824D01*
X59541647Y-63203880D01*
X59605203Y-63232905D01*
X59624319Y-63253733D01*
X59627054Y-63257498D01*
X59627056Y-63257501D01*
X59673883Y-63321953D01*
X59743121Y-63417252D01*
X59882753Y-63556884D01*
X60032234Y-63665486D01*
X60042499Y-63672944D01*
X60218439Y-63762591D01*
X60343637Y-63803270D01*
X60406236Y-63823610D01*
X60601264Y-63854500D01*
X60601269Y-63854500D01*
X60798736Y-63854500D01*
X60993763Y-63823610D01*
X61013863Y-63817079D01*
X61181561Y-63762591D01*
X61357501Y-63672944D01*
X61447602Y-63607482D01*
X61517246Y-63556884D01*
X61517248Y-63556881D01*
X61517252Y-63556879D01*
X61656879Y-63417252D01*
X61656881Y-63417248D01*
X61656884Y-63417246D01*
X61726117Y-63321953D01*
X61772944Y-63257501D01*
X61862591Y-63081561D01*
X61923610Y-62893763D01*
X61954500Y-62698736D01*
X61954500Y-62501263D01*
X61923610Y-62306236D01*
X61903270Y-62243637D01*
X61862591Y-62118439D01*
X61772944Y-61942499D01*
X61743133Y-61901467D01*
X61656884Y-61782753D01*
X61517246Y-61643115D01*
X61357504Y-61527058D01*
X61357503Y-61527057D01*
X61357501Y-61527056D01*
X61181561Y-61437409D01*
X61181558Y-61437408D01*
X60993763Y-61376389D01*
X60798736Y-61345500D01*
X60798731Y-61345500D01*
X60601269Y-61345500D01*
X60601264Y-61345500D01*
X60406236Y-61376389D01*
X60218441Y-61437408D01*
X60042495Y-61527058D01*
X59882753Y-61643115D01*
X59743119Y-61782749D01*
X59743115Y-61782754D01*
X59624318Y-61946266D01*
X59568989Y-61988932D01*
X59499375Y-61994911D01*
X59437580Y-61962306D01*
X59403223Y-61901467D01*
X59400000Y-61873381D01*
X59400000Y-50089778D01*
X75659500Y-50089778D01*
X75659500Y-51710221D01*
X75693985Y-51927952D01*
X75762103Y-52137603D01*
X75762104Y-52137606D01*
X75819359Y-52249973D01*
X75856221Y-52322318D01*
X75862187Y-52334025D01*
X75991752Y-52512358D01*
X75991756Y-52512363D01*
X76147636Y-52668243D01*
X76147641Y-52668247D01*
X76216596Y-52718345D01*
X76325978Y-52797815D01*
X76454375Y-52863237D01*
X76522393Y-52897895D01*
X76522396Y-52897896D01*
X76576657Y-52915526D01*
X76732049Y-52966015D01*
X76949778Y-53000500D01*
X76949779Y-53000500D01*
X77170221Y-53000500D01*
X77170222Y-53000500D01*
X77387951Y-52966015D01*
X77597606Y-52897895D01*
X77794022Y-52797815D01*
X77972365Y-52668242D01*
X78080683Y-52559923D01*
X78142002Y-52526441D01*
X78211694Y-52531425D01*
X78267628Y-52573296D01*
X78273900Y-52582510D01*
X78357684Y-52718345D01*
X78481654Y-52842315D01*
X78630875Y-52934356D01*
X78630880Y-52934358D01*
X78797302Y-52989505D01*
X78797309Y-52989506D01*
X78900019Y-52999999D01*
X79349999Y-52999999D01*
X79350000Y-52999998D01*
X79350000Y-51390747D01*
X79387708Y-51412518D01*
X79527591Y-51450000D01*
X79672409Y-51450000D01*
X79812292Y-51412518D01*
X79850000Y-51390747D01*
X79850000Y-52999999D01*
X80299972Y-52999999D01*
X80299986Y-52999998D01*
X80402697Y-52989505D01*
X80569119Y-52934358D01*
X80569124Y-52934356D01*
X80718345Y-52842315D01*
X80842315Y-52718345D01*
X80934356Y-52569124D01*
X80934358Y-52569119D01*
X80989505Y-52402697D01*
X80989506Y-52402690D01*
X80999999Y-52299986D01*
X81000000Y-52299973D01*
X81000000Y-51150000D01*
X80090748Y-51150000D01*
X80112518Y-51112292D01*
X80150000Y-50972409D01*
X80150000Y-50827591D01*
X80112518Y-50687708D01*
X80090748Y-50650000D01*
X80999999Y-50650000D01*
X80999999Y-50089778D01*
X86509500Y-50089778D01*
X86509500Y-51710221D01*
X86543985Y-51927952D01*
X86612103Y-52137603D01*
X86612104Y-52137606D01*
X86669359Y-52249973D01*
X86706221Y-52322318D01*
X86712187Y-52334025D01*
X86841752Y-52512358D01*
X86841756Y-52512363D01*
X86997636Y-52668243D01*
X86997641Y-52668247D01*
X87066596Y-52718345D01*
X87175978Y-52797815D01*
X87304375Y-52863237D01*
X87372393Y-52897895D01*
X87372396Y-52897896D01*
X87426657Y-52915526D01*
X87582049Y-52966015D01*
X87799778Y-53000500D01*
X87799779Y-53000500D01*
X88020221Y-53000500D01*
X88020222Y-53000500D01*
X88237951Y-52966015D01*
X88447606Y-52897895D01*
X88644022Y-52797815D01*
X88822365Y-52668242D01*
X88930683Y-52559923D01*
X88992002Y-52526441D01*
X89061694Y-52531425D01*
X89117628Y-52573296D01*
X89123900Y-52582510D01*
X89207684Y-52718345D01*
X89331654Y-52842315D01*
X89480875Y-52934356D01*
X89480880Y-52934358D01*
X89647302Y-52989505D01*
X89647309Y-52989506D01*
X89750019Y-52999999D01*
X90199999Y-52999999D01*
X90200000Y-52999998D01*
X90200000Y-51390747D01*
X90237708Y-51412518D01*
X90377591Y-51450000D01*
X90522409Y-51450000D01*
X90662292Y-51412518D01*
X90700000Y-51390747D01*
X90700000Y-52999999D01*
X91149972Y-52999999D01*
X91149986Y-52999998D01*
X91252697Y-52989505D01*
X91419119Y-52934358D01*
X91419124Y-52934356D01*
X91568345Y-52842315D01*
X91692315Y-52718345D01*
X91784356Y-52569124D01*
X91784358Y-52569119D01*
X91839505Y-52402697D01*
X91839506Y-52402690D01*
X91849999Y-52299986D01*
X91850000Y-52299973D01*
X91850000Y-51150000D01*
X90940748Y-51150000D01*
X90962518Y-51112292D01*
X91000000Y-50972409D01*
X91000000Y-50827591D01*
X90962518Y-50687708D01*
X90940748Y-50650000D01*
X91849999Y-50650000D01*
X91849999Y-50039778D01*
X97049500Y-50039778D01*
X97049500Y-51660221D01*
X97083985Y-51877952D01*
X97152103Y-52087603D01*
X97152104Y-52087606D01*
X97220122Y-52221096D01*
X97246912Y-52273674D01*
X97252187Y-52284025D01*
X97381752Y-52462358D01*
X97381756Y-52462363D01*
X97537636Y-52618243D01*
X97537641Y-52618247D01*
X97675416Y-52718345D01*
X97715978Y-52747815D01*
X97844375Y-52813237D01*
X97912393Y-52847895D01*
X97912396Y-52847896D01*
X98017221Y-52881955D01*
X98122049Y-52916015D01*
X98339778Y-52950500D01*
X98339779Y-52950500D01*
X98560221Y-52950500D01*
X98560222Y-52950500D01*
X98777951Y-52916015D01*
X98987606Y-52847895D01*
X99184022Y-52747815D01*
X99362365Y-52618242D01*
X99470683Y-52509923D01*
X99532002Y-52476441D01*
X99601694Y-52481425D01*
X99657628Y-52523296D01*
X99663900Y-52532510D01*
X99747684Y-52668345D01*
X99871654Y-52792315D01*
X100020875Y-52884356D01*
X100020880Y-52884358D01*
X100187302Y-52939505D01*
X100187309Y-52939506D01*
X100290019Y-52949999D01*
X100739999Y-52949999D01*
X100740000Y-52949998D01*
X100740000Y-51340747D01*
X100777708Y-51362518D01*
X100917591Y-51400000D01*
X101062409Y-51400000D01*
X101202292Y-51362518D01*
X101240000Y-51340747D01*
X101240000Y-52949999D01*
X101689972Y-52949999D01*
X101689986Y-52949998D01*
X101792697Y-52939505D01*
X101959119Y-52884358D01*
X101959124Y-52884356D01*
X102108345Y-52792315D01*
X102232315Y-52668345D01*
X102324356Y-52519124D01*
X102324358Y-52519119D01*
X102379505Y-52352697D01*
X102379506Y-52352690D01*
X102389999Y-52249986D01*
X102390000Y-52249973D01*
X102390000Y-51100000D01*
X101480748Y-51100000D01*
X101502518Y-51062292D01*
X101540000Y-50922409D01*
X101540000Y-50777591D01*
X101502518Y-50637708D01*
X101480748Y-50600000D01*
X102389999Y-50600000D01*
X102389999Y-50039778D01*
X107879500Y-50039778D01*
X107879500Y-51660221D01*
X107913985Y-51877952D01*
X107982103Y-52087603D01*
X107982104Y-52087606D01*
X108050122Y-52221096D01*
X108076912Y-52273674D01*
X108082187Y-52284025D01*
X108211752Y-52462358D01*
X108211756Y-52462363D01*
X108367636Y-52618243D01*
X108367641Y-52618247D01*
X108505416Y-52718345D01*
X108545978Y-52747815D01*
X108674375Y-52813237D01*
X108742393Y-52847895D01*
X108742396Y-52847896D01*
X108847221Y-52881955D01*
X108952049Y-52916015D01*
X109169778Y-52950500D01*
X109169779Y-52950500D01*
X109390221Y-52950500D01*
X109390222Y-52950500D01*
X109607951Y-52916015D01*
X109817606Y-52847895D01*
X110014022Y-52747815D01*
X110192365Y-52618242D01*
X110348242Y-52462365D01*
X110449991Y-52322317D01*
X110505320Y-52279653D01*
X110574933Y-52273674D01*
X110636729Y-52306279D01*
X110650627Y-52322318D01*
X110752142Y-52462041D01*
X110907958Y-52617857D01*
X111086239Y-52747386D01*
X111282589Y-52847432D01*
X111492163Y-52915526D01*
X111569999Y-52927854D01*
X111570000Y-52927854D01*
X111570000Y-51340747D01*
X111607708Y-51362518D01*
X111747591Y-51400000D01*
X111892409Y-51400000D01*
X112032292Y-51362518D01*
X112070000Y-51340747D01*
X112070000Y-52927854D01*
X112147834Y-52915526D01*
X112147837Y-52915526D01*
X112357410Y-52847432D01*
X112553760Y-52747386D01*
X112732041Y-52617857D01*
X112887857Y-52462041D01*
X112887862Y-52462035D01*
X112989682Y-52321893D01*
X113045012Y-52279227D01*
X113114625Y-52273248D01*
X113176420Y-52305854D01*
X113190318Y-52321893D01*
X113292137Y-52462035D01*
X113292142Y-52462041D01*
X113447958Y-52617857D01*
X113626239Y-52747386D01*
X113822589Y-52847432D01*
X114032163Y-52915526D01*
X114109999Y-52927854D01*
X114110000Y-52927854D01*
X114110000Y-51340747D01*
X114147708Y-51362518D01*
X114287591Y-51400000D01*
X114432409Y-51400000D01*
X114572292Y-51362518D01*
X114610000Y-51340747D01*
X114610000Y-52927854D01*
X114687834Y-52915526D01*
X114687837Y-52915526D01*
X114897410Y-52847432D01*
X115093760Y-52747386D01*
X115272037Y-52617860D01*
X115380046Y-52509851D01*
X115441369Y-52476366D01*
X115511061Y-52481350D01*
X115566995Y-52523221D01*
X115573263Y-52532430D01*
X115657288Y-52668656D01*
X115781344Y-52792712D01*
X115930666Y-52884814D01*
X116097203Y-52939999D01*
X116199991Y-52950500D01*
X117600008Y-52950499D01*
X117702797Y-52939999D01*
X117869334Y-52884814D01*
X118018656Y-52792712D01*
X118142712Y-52668656D01*
X118234814Y-52519334D01*
X118289999Y-52352797D01*
X118300500Y-52250009D01*
X118300499Y-49449992D01*
X118297024Y-49415978D01*
X118289999Y-49347203D01*
X118289998Y-49347200D01*
X118256991Y-49247592D01*
X118234814Y-49180666D01*
X118142712Y-49031344D01*
X118018656Y-48907288D01*
X117869334Y-48815186D01*
X117702797Y-48760001D01*
X117702795Y-48760000D01*
X117600010Y-48749500D01*
X116199998Y-48749500D01*
X116199981Y-48749501D01*
X116097203Y-48760000D01*
X116097200Y-48760001D01*
X115930668Y-48815185D01*
X115930663Y-48815187D01*
X115781342Y-48907289D01*
X115657289Y-49031342D01*
X115573267Y-49167564D01*
X115521319Y-49214288D01*
X115452356Y-49225510D01*
X115388274Y-49197667D01*
X115380047Y-49190148D01*
X115272041Y-49082142D01*
X115093760Y-48952613D01*
X114897410Y-48852567D01*
X114687836Y-48784473D01*
X114610000Y-48772144D01*
X114610000Y-50359252D01*
X114572292Y-50337482D01*
X114432409Y-50300000D01*
X114287591Y-50300000D01*
X114147708Y-50337482D01*
X114110000Y-50359252D01*
X114110000Y-48772144D01*
X114032164Y-48784473D01*
X114032161Y-48784473D01*
X113822589Y-48852567D01*
X113626239Y-48952613D01*
X113447958Y-49082142D01*
X113292142Y-49237958D01*
X113292142Y-49237959D01*
X113190318Y-49378107D01*
X113134988Y-49420772D01*
X113065374Y-49426751D01*
X113003579Y-49394145D01*
X112989682Y-49378107D01*
X112887857Y-49237959D01*
X112887857Y-49237958D01*
X112732041Y-49082142D01*
X112553760Y-48952613D01*
X112357410Y-48852567D01*
X112147836Y-48784473D01*
X112070000Y-48772144D01*
X112070000Y-50359252D01*
X112032292Y-50337482D01*
X111892409Y-50300000D01*
X111747591Y-50300000D01*
X111607708Y-50337482D01*
X111570000Y-50359252D01*
X111570000Y-48772144D01*
X111492164Y-48784473D01*
X111492161Y-48784473D01*
X111282589Y-48852567D01*
X111086239Y-48952613D01*
X110907958Y-49082142D01*
X110752142Y-49237958D01*
X110752142Y-49237959D01*
X110650627Y-49377681D01*
X110595297Y-49420346D01*
X110525683Y-49426325D01*
X110463888Y-49393719D01*
X110449991Y-49377680D01*
X110348247Y-49237641D01*
X110348243Y-49237636D01*
X110192363Y-49081756D01*
X110192358Y-49081752D01*
X110014025Y-48952187D01*
X110014024Y-48952186D01*
X110014022Y-48952185D01*
X109925908Y-48907288D01*
X109817606Y-48852104D01*
X109817603Y-48852103D01*
X109607952Y-48783985D01*
X109459635Y-48760494D01*
X109390222Y-48749500D01*
X109169778Y-48749500D01*
X109103484Y-48760000D01*
X108952047Y-48783985D01*
X108742396Y-48852103D01*
X108742393Y-48852104D01*
X108545974Y-48952187D01*
X108367641Y-49081752D01*
X108367636Y-49081756D01*
X108211756Y-49237636D01*
X108211752Y-49237641D01*
X108082187Y-49415974D01*
X107982104Y-49612393D01*
X107982103Y-49612396D01*
X107913985Y-49822047D01*
X107879500Y-50039778D01*
X102389999Y-50039778D01*
X102389999Y-49450028D01*
X102389998Y-49450013D01*
X102379505Y-49347302D01*
X102324358Y-49180880D01*
X102324356Y-49180875D01*
X102232315Y-49031654D01*
X102108345Y-48907684D01*
X101959124Y-48815643D01*
X101959119Y-48815641D01*
X101792697Y-48760494D01*
X101792690Y-48760493D01*
X101689986Y-48750000D01*
X101240000Y-48750000D01*
X101240000Y-50359252D01*
X101202292Y-50337482D01*
X101062409Y-50300000D01*
X100917591Y-50300000D01*
X100777708Y-50337482D01*
X100740000Y-50359252D01*
X100740000Y-48750000D01*
X100290028Y-48750000D01*
X100290012Y-48750001D01*
X100187302Y-48760494D01*
X100020880Y-48815641D01*
X100020875Y-48815643D01*
X99871654Y-48907684D01*
X99747683Y-49031655D01*
X99747680Y-49031659D01*
X99663899Y-49167489D01*
X99611951Y-49214214D01*
X99542989Y-49225435D01*
X99478907Y-49197592D01*
X99470680Y-49190073D01*
X99362363Y-49081756D01*
X99362358Y-49081752D01*
X99184025Y-48952187D01*
X99184024Y-48952186D01*
X99184022Y-48952185D01*
X99095908Y-48907288D01*
X98987606Y-48852104D01*
X98987603Y-48852103D01*
X98777952Y-48783985D01*
X98629635Y-48760494D01*
X98560222Y-48749500D01*
X98339778Y-48749500D01*
X98273484Y-48760000D01*
X98122047Y-48783985D01*
X97912396Y-48852103D01*
X97912393Y-48852104D01*
X97715974Y-48952187D01*
X97537641Y-49081752D01*
X97537636Y-49081756D01*
X97381756Y-49237636D01*
X97381752Y-49237641D01*
X97252187Y-49415974D01*
X97152104Y-49612393D01*
X97152103Y-49612396D01*
X97083985Y-49822047D01*
X97049500Y-50039778D01*
X91849999Y-50039778D01*
X91849999Y-49500028D01*
X91849998Y-49500013D01*
X91839505Y-49397302D01*
X91784358Y-49230880D01*
X91784356Y-49230875D01*
X91692315Y-49081654D01*
X91568345Y-48957684D01*
X91419124Y-48865643D01*
X91419119Y-48865641D01*
X91252697Y-48810494D01*
X91252690Y-48810493D01*
X91149986Y-48800000D01*
X90700000Y-48800000D01*
X90700000Y-50409252D01*
X90662292Y-50387482D01*
X90522409Y-50350000D01*
X90377591Y-50350000D01*
X90237708Y-50387482D01*
X90200000Y-50409252D01*
X90200000Y-48800000D01*
X89750028Y-48800000D01*
X89750012Y-48800001D01*
X89647302Y-48810494D01*
X89480880Y-48865641D01*
X89480875Y-48865643D01*
X89331654Y-48957684D01*
X89207683Y-49081655D01*
X89207680Y-49081659D01*
X89123899Y-49217489D01*
X89071951Y-49264214D01*
X89002989Y-49275435D01*
X88938907Y-49247592D01*
X88930680Y-49240073D01*
X88822363Y-49131756D01*
X88822358Y-49131752D01*
X88644025Y-49002187D01*
X88644024Y-49002186D01*
X88644022Y-49002185D01*
X88556685Y-48957684D01*
X88447606Y-48902104D01*
X88447603Y-48902103D01*
X88237952Y-48833985D01*
X88129086Y-48816742D01*
X88020222Y-48799500D01*
X87799778Y-48799500D01*
X87730371Y-48810493D01*
X87582047Y-48833985D01*
X87372396Y-48902103D01*
X87372393Y-48902104D01*
X87175974Y-49002187D01*
X86997641Y-49131752D01*
X86997636Y-49131756D01*
X86841756Y-49287636D01*
X86841752Y-49287641D01*
X86712187Y-49465974D01*
X86612104Y-49662393D01*
X86612103Y-49662396D01*
X86543985Y-49872047D01*
X86509500Y-50089778D01*
X80999999Y-50089778D01*
X80999999Y-49500028D01*
X80999998Y-49500013D01*
X80989505Y-49397302D01*
X80934358Y-49230880D01*
X80934356Y-49230875D01*
X80842315Y-49081654D01*
X80718345Y-48957684D01*
X80569124Y-48865643D01*
X80569119Y-48865641D01*
X80402697Y-48810494D01*
X80402690Y-48810493D01*
X80299986Y-48800000D01*
X79850000Y-48800000D01*
X79850000Y-50409252D01*
X79812292Y-50387482D01*
X79672409Y-50350000D01*
X79527591Y-50350000D01*
X79387708Y-50387482D01*
X79350000Y-50409252D01*
X79350000Y-48800000D01*
X78900028Y-48800000D01*
X78900012Y-48800001D01*
X78797302Y-48810494D01*
X78630880Y-48865641D01*
X78630875Y-48865643D01*
X78481654Y-48957684D01*
X78357683Y-49081655D01*
X78357680Y-49081659D01*
X78273899Y-49217489D01*
X78221951Y-49264214D01*
X78152989Y-49275435D01*
X78088907Y-49247592D01*
X78080680Y-49240073D01*
X77972363Y-49131756D01*
X77972358Y-49131752D01*
X77794025Y-49002187D01*
X77794024Y-49002186D01*
X77794022Y-49002185D01*
X77706685Y-48957684D01*
X77597606Y-48902104D01*
X77597603Y-48902103D01*
X77387952Y-48833985D01*
X77279086Y-48816742D01*
X77170222Y-48799500D01*
X76949778Y-48799500D01*
X76880371Y-48810493D01*
X76732047Y-48833985D01*
X76522396Y-48902103D01*
X76522393Y-48902104D01*
X76325974Y-49002187D01*
X76147641Y-49131752D01*
X76147636Y-49131756D01*
X75991756Y-49287636D01*
X75991752Y-49287641D01*
X75862187Y-49465974D01*
X75762104Y-49662393D01*
X75762103Y-49662396D01*
X75693985Y-49872047D01*
X75659500Y-50089778D01*
X59400000Y-50089778D01*
X59400000Y-45089778D01*
X75659500Y-45089778D01*
X75659500Y-46710221D01*
X75693985Y-46927952D01*
X75762103Y-47137603D01*
X75762104Y-47137606D01*
X75819359Y-47249973D01*
X75856221Y-47322318D01*
X75862187Y-47334025D01*
X75991752Y-47512358D01*
X75991756Y-47512363D01*
X76147636Y-47668243D01*
X76147641Y-47668247D01*
X76216596Y-47718345D01*
X76325978Y-47797815D01*
X76454375Y-47863237D01*
X76522393Y-47897895D01*
X76522396Y-47897896D01*
X76576657Y-47915526D01*
X76732049Y-47966015D01*
X76949778Y-48000500D01*
X76949779Y-48000500D01*
X77170221Y-48000500D01*
X77170222Y-48000500D01*
X77387951Y-47966015D01*
X77597606Y-47897895D01*
X77794022Y-47797815D01*
X77972365Y-47668242D01*
X78080683Y-47559923D01*
X78142002Y-47526441D01*
X78211694Y-47531425D01*
X78267628Y-47573296D01*
X78273900Y-47582510D01*
X78357684Y-47718345D01*
X78481654Y-47842315D01*
X78630875Y-47934356D01*
X78630880Y-47934358D01*
X78797302Y-47989505D01*
X78797309Y-47989506D01*
X78900019Y-47999999D01*
X79349999Y-47999999D01*
X79350000Y-47999998D01*
X79350000Y-46390747D01*
X79387708Y-46412518D01*
X79527591Y-46450000D01*
X79672409Y-46450000D01*
X79812292Y-46412518D01*
X79850000Y-46390747D01*
X79850000Y-47999999D01*
X80299972Y-47999999D01*
X80299986Y-47999998D01*
X80402697Y-47989505D01*
X80569119Y-47934358D01*
X80569124Y-47934356D01*
X80718345Y-47842315D01*
X80842315Y-47718345D01*
X80934356Y-47569124D01*
X80934358Y-47569119D01*
X80989505Y-47402697D01*
X80989506Y-47402690D01*
X80999999Y-47299986D01*
X81000000Y-47299973D01*
X81000000Y-46150000D01*
X80090748Y-46150000D01*
X80112518Y-46112292D01*
X80150000Y-45972409D01*
X80150000Y-45827591D01*
X80112518Y-45687708D01*
X80090748Y-45650000D01*
X80999999Y-45650000D01*
X80999999Y-45089778D01*
X86509500Y-45089778D01*
X86509500Y-46710221D01*
X86543985Y-46927952D01*
X86612103Y-47137603D01*
X86612104Y-47137606D01*
X86669359Y-47249973D01*
X86706221Y-47322318D01*
X86712187Y-47334025D01*
X86841752Y-47512358D01*
X86841756Y-47512363D01*
X86997636Y-47668243D01*
X86997641Y-47668247D01*
X87066596Y-47718345D01*
X87175978Y-47797815D01*
X87304375Y-47863237D01*
X87372393Y-47897895D01*
X87372396Y-47897896D01*
X87426657Y-47915526D01*
X87582049Y-47966015D01*
X87799778Y-48000500D01*
X87799779Y-48000500D01*
X88020221Y-48000500D01*
X88020222Y-48000500D01*
X88237951Y-47966015D01*
X88447606Y-47897895D01*
X88644022Y-47797815D01*
X88822365Y-47668242D01*
X88930683Y-47559923D01*
X88992002Y-47526441D01*
X89061694Y-47531425D01*
X89117628Y-47573296D01*
X89123900Y-47582510D01*
X89207684Y-47718345D01*
X89331654Y-47842315D01*
X89480875Y-47934356D01*
X89480880Y-47934358D01*
X89647302Y-47989505D01*
X89647309Y-47989506D01*
X89750019Y-47999999D01*
X90199999Y-47999999D01*
X90200000Y-47999998D01*
X90200000Y-46390747D01*
X90237708Y-46412518D01*
X90377591Y-46450000D01*
X90522409Y-46450000D01*
X90662292Y-46412518D01*
X90700000Y-46390747D01*
X90700000Y-47999999D01*
X91149972Y-47999999D01*
X91149986Y-47999998D01*
X91252697Y-47989505D01*
X91419119Y-47934358D01*
X91419124Y-47934356D01*
X91568345Y-47842315D01*
X91692315Y-47718345D01*
X91784356Y-47569124D01*
X91784358Y-47569119D01*
X91839505Y-47402697D01*
X91839506Y-47402690D01*
X91849999Y-47299986D01*
X91850000Y-47299973D01*
X91850000Y-46150000D01*
X90940748Y-46150000D01*
X90962518Y-46112292D01*
X91000000Y-45972409D01*
X91000000Y-45827591D01*
X90962518Y-45687708D01*
X90940748Y-45650000D01*
X91849999Y-45650000D01*
X91849999Y-44500028D01*
X91849998Y-44500013D01*
X91839505Y-44397302D01*
X91784358Y-44230880D01*
X91784356Y-44230875D01*
X91692315Y-44081654D01*
X91568345Y-43957684D01*
X91419124Y-43865643D01*
X91419119Y-43865641D01*
X91252697Y-43810494D01*
X91252690Y-43810493D01*
X91149986Y-43800000D01*
X90700000Y-43800000D01*
X90700000Y-45409252D01*
X90662292Y-45387482D01*
X90522409Y-45350000D01*
X90377591Y-45350000D01*
X90237708Y-45387482D01*
X90200000Y-45409252D01*
X90200000Y-43800000D01*
X89750028Y-43800000D01*
X89750012Y-43800001D01*
X89647302Y-43810494D01*
X89480880Y-43865641D01*
X89480875Y-43865643D01*
X89331654Y-43957684D01*
X89207683Y-44081655D01*
X89207680Y-44081659D01*
X89123899Y-44217489D01*
X89071951Y-44264214D01*
X89002989Y-44275435D01*
X88938907Y-44247592D01*
X88930680Y-44240073D01*
X88822363Y-44131756D01*
X88822358Y-44131752D01*
X88644025Y-44002187D01*
X88644024Y-44002186D01*
X88644022Y-44002185D01*
X88556685Y-43957684D01*
X88447606Y-43902104D01*
X88447603Y-43902103D01*
X88237952Y-43833985D01*
X88129086Y-43816742D01*
X88020222Y-43799500D01*
X87799778Y-43799500D01*
X87730371Y-43810493D01*
X87582047Y-43833985D01*
X87372396Y-43902103D01*
X87372393Y-43902104D01*
X87175974Y-44002187D01*
X86997641Y-44131752D01*
X86997636Y-44131756D01*
X86841756Y-44287636D01*
X86841752Y-44287641D01*
X86712187Y-44465974D01*
X86612104Y-44662393D01*
X86612103Y-44662396D01*
X86543985Y-44872047D01*
X86509500Y-45089778D01*
X80999999Y-45089778D01*
X80999999Y-44500028D01*
X80999998Y-44500013D01*
X80989505Y-44397302D01*
X80934358Y-44230880D01*
X80934356Y-44230875D01*
X80842315Y-44081654D01*
X80718345Y-43957684D01*
X80569124Y-43865643D01*
X80569119Y-43865641D01*
X80402697Y-43810494D01*
X80402690Y-43810493D01*
X80299986Y-43800000D01*
X79850000Y-43800000D01*
X79850000Y-45409252D01*
X79812292Y-45387482D01*
X79672409Y-45350000D01*
X79527591Y-45350000D01*
X79387708Y-45387482D01*
X79350000Y-45409252D01*
X79350000Y-43800000D01*
X78900028Y-43800000D01*
X78900012Y-43800001D01*
X78797302Y-43810494D01*
X78630880Y-43865641D01*
X78630875Y-43865643D01*
X78481654Y-43957684D01*
X78357683Y-44081655D01*
X78357680Y-44081659D01*
X78273899Y-44217489D01*
X78221951Y-44264214D01*
X78152989Y-44275435D01*
X78088907Y-44247592D01*
X78080680Y-44240073D01*
X77972363Y-44131756D01*
X77972358Y-44131752D01*
X77794025Y-44002187D01*
X77794024Y-44002186D01*
X77794022Y-44002185D01*
X77706685Y-43957684D01*
X77597606Y-43902104D01*
X77597603Y-43902103D01*
X77387952Y-43833985D01*
X77279086Y-43816742D01*
X77170222Y-43799500D01*
X76949778Y-43799500D01*
X76880371Y-43810493D01*
X76732047Y-43833985D01*
X76522396Y-43902103D01*
X76522393Y-43902104D01*
X76325974Y-44002187D01*
X76147641Y-44131752D01*
X76147636Y-44131756D01*
X75991756Y-44287636D01*
X75991752Y-44287641D01*
X75862187Y-44465974D01*
X75762104Y-44662393D01*
X75762103Y-44662396D01*
X75693985Y-44872047D01*
X75659500Y-45089778D01*
X59400000Y-45089778D01*
X59400000Y-44707621D01*
X59419685Y-44640582D01*
X59472489Y-44594827D01*
X59507809Y-44584683D01*
X59660666Y-44564560D01*
X59926632Y-44493295D01*
X60181021Y-44387923D01*
X60419479Y-44250249D01*
X60637928Y-44082628D01*
X60832628Y-43887928D01*
X61000249Y-43669479D01*
X61027379Y-43622489D01*
X61033435Y-43612000D01*
X61084002Y-43563784D01*
X61140822Y-43550000D01*
X98059274Y-43550000D01*
X98126313Y-43569685D01*
G37*
G04 #@! TD.AperFunction*
G04 #@! TA.AperFunction,Conductor*
G36*
X113847482Y-45637708D02*
G01*
X113810000Y-45777591D01*
X113810000Y-45922409D01*
X113847482Y-46062292D01*
X113869252Y-46100000D01*
X112310748Y-46100000D01*
X112332518Y-46062292D01*
X112370000Y-45922409D01*
X112370000Y-45777591D01*
X112332518Y-45637708D01*
X112310748Y-45600000D01*
X113869252Y-45600000D01*
X113847482Y-45637708D01*
G37*
G04 #@! TD.AperFunction*
M02*
