M48
; DRILL file {KiCad 9.0.0} date 2025-04-21T23:22:19+0100
; FORMAT={-:-/ absolute / metric / decimal}
; #@! TF.CreationDate,2025-04-21T23:22:19+01:00
; #@! TF.GenerationSoftware,Kicad,Pcbnew,9.0.0
; #@! TF.FileFunction,Plated,1,2,PTH
FMAT,2
METRIC
; #@! TA.AperFunction,Plated,PTH,ViaDrill
T1C0.300
; #@! TA.AperFunction,Plated,PTH,ComponentDrill
T2C1.000
; #@! TA.AperFunction,Plated,PTH,ComponentDrill
T3C1.100
; #@! TA.AperFunction,Plated,PTH,ComponentDrill
T4C1.500
; #@! TA.AperFunction,Plated,PTH,ComponentDrill
T5C1.700
%
G90
G05
T1
X57.8Y-103.6
X64.2Y-103.4
X68.715Y-51.35
X68.75Y-47.2
X70.8Y-57.9
X75.0Y-53.8
X116.2Y-90.6
X116.2Y-91.4
X120.8Y-102.2
X120.8Y-108.4
X126.0Y-49.6
X126.0Y-52.6
X126.0Y-55.6
X129.8Y-49.6
X129.8Y-52.6
X129.8Y-55.6
T2
X60.7Y-62.6
X60.7Y-73.6
X122.8Y-105.95
X133.8Y-105.95
X137.6Y-106.0
X148.6Y-106.0
X152.6Y-48.7
X152.6Y-59.7
X152.606Y-64.4
X152.606Y-75.4
X152.606Y-80.1
X152.606Y-91.1
T3
X62.05Y-94.49
X62.05Y-97.03
X62.1Y-85.0
X62.1Y-87.54
X67.05Y-94.49
X67.05Y-97.03
X67.1Y-85.0
X67.1Y-87.54
X77.06Y-45.9
X77.06Y-50.9
X79.6Y-45.9
X79.6Y-50.9
X81.15Y-62.44
X81.15Y-72.6
X87.91Y-45.9
X87.91Y-50.9
X90.45Y-45.9
X90.45Y-50.9
X98.45Y-45.85
X98.45Y-50.85
X100.99Y-45.85
X100.99Y-50.85
X109.28Y-45.85
X109.28Y-50.85
X111.82Y-45.85
X111.82Y-50.85
X114.36Y-45.85
X114.36Y-50.85
X116.9Y-45.85
X116.9Y-50.85
T4
X65.08Y-79.7
X67.62Y-79.7
X72.13Y-79.65
X74.67Y-79.65
X78.1Y-99.0
X84.1Y-99.0
X94.3Y-99.0
X100.3Y-99.0
X106.3Y-99.0
T5
X70.7Y-65.6
X70.7Y-70.6
X125.8Y-95.95
X130.8Y-95.95
X140.6Y-96.0
X142.6Y-51.7
X142.6Y-56.7
X142.606Y-67.4
X142.606Y-72.4
X142.606Y-83.1
X142.606Y-88.1
X145.6Y-96.0
T4
X88.35Y-70.9G85X94.35Y-70.9
G05
X97.85Y-62.5G85X103.85Y-62.5
G05
X97.85Y-79.3G85X103.85Y-79.3
G05
X101.35Y-73.9G85X101.35Y-67.9
G05
X108.85Y-73.9G85X108.85Y-67.9
G05
X118.15Y-62.575G85X118.15Y-61.575
G05
X118.15Y-68.575G85X118.15Y-67.575
G05
X118.15Y-74.575G85X118.15Y-73.575
G05
X118.15Y-80.575G85X118.15Y-79.575
G05
X118.15Y-86.575G85X118.15Y-85.575
G05
X121.85Y-62.575G85X121.85Y-61.575
G05
X121.85Y-68.575G85X121.85Y-67.575
G05
X121.85Y-74.575G85X121.85Y-73.575
G05
X121.85Y-80.575G85X121.85Y-79.575
G05
X121.85Y-86.575G85X121.85Y-85.575
G05
X125.85Y-62.575G85X125.85Y-61.575
G05
X125.85Y-68.575G85X125.85Y-67.575
G05
X125.85Y-74.575G85X125.85Y-73.575
G05
X125.85Y-80.575G85X125.85Y-79.575
G05
X125.85Y-86.575G85X125.85Y-85.575
G05
X129.55Y-62.575G85X129.55Y-61.575
G05
X129.55Y-68.575G85X129.55Y-67.575
G05
X129.55Y-74.575G85X129.55Y-73.575
G05
X129.55Y-80.575G85X129.55Y-79.575
G05
X129.55Y-86.575G85X129.55Y-85.575
G05
M30
