%TF.GenerationSoftware,KiCad,Pcbnew,9.0.0*%
%TF.CreationDate,2025-04-02T18:04:12+02:00*%
%TF.ProjectId,CapyPower,43617079-506f-4776-9572-2e6b69636164,rev?*%
%TF.SameCoordinates,Original*%
%TF.FileFunction,Drillmap*%
%TF.FilePolarity,Positive*%
%FSLAX45Y45*%
G04 Gerber Fmt 4.5, Leading zero omitted, Abs format (unit mm)*
G04 Created by KiCad (PCBNEW 9.0.0) date 2025-04-02 18:04:12*
%MOMM*%
%LPD*%
G01*
G04 APERTURE LIST*
%ADD10C,0.050000*%
%ADD11C,0.200000*%
G04 APERTURE END LIST*
D10*
X6149264Y-9950000D02*
G75*
G02*
X5725000Y-9525736I-212132J212132D01*
G01*
X14965000Y-9525736D02*
G75*
G02*
X14540736Y-9950000I-212132J-212132D01*
G01*
X5725000Y-4474264D02*
G75*
G02*
X6149264Y-4050000I212132J212132D01*
G01*
X14540736Y-4050000D02*
G75*
G02*
X14965000Y-4474264I212132J-212132D01*
G01*
X5725000Y-4474264D02*
X5725000Y-9525736D01*
X14540736Y-9950000D02*
X6149264Y-9950000D01*
X14965000Y-4474264D02*
X14965000Y-9525736D01*
X14540736Y-4050000D02*
X6149264Y-4050000D01*
D11*
X5895409Y-10351852D02*
X5895409Y-10151852D01*
X5895409Y-10151852D02*
X5943028Y-10151852D01*
X5943028Y-10151852D02*
X5971599Y-10161376D01*
X5971599Y-10161376D02*
X5990647Y-10180423D01*
X5990647Y-10180423D02*
X6000171Y-10199471D01*
X6000171Y-10199471D02*
X6009694Y-10237566D01*
X6009694Y-10237566D02*
X6009694Y-10266138D01*
X6009694Y-10266138D02*
X6000171Y-10304233D01*
X6000171Y-10304233D02*
X5990647Y-10323280D01*
X5990647Y-10323280D02*
X5971599Y-10342328D01*
X5971599Y-10342328D02*
X5943028Y-10351852D01*
X5943028Y-10351852D02*
X5895409Y-10351852D01*
X6095409Y-10351852D02*
X6095409Y-10218518D01*
X6095409Y-10256614D02*
X6104933Y-10237566D01*
X6104933Y-10237566D02*
X6114456Y-10228042D01*
X6114456Y-10228042D02*
X6133504Y-10218518D01*
X6133504Y-10218518D02*
X6152552Y-10218518D01*
X6219218Y-10351852D02*
X6219218Y-10218518D01*
X6219218Y-10151852D02*
X6209694Y-10161376D01*
X6209694Y-10161376D02*
X6219218Y-10170899D01*
X6219218Y-10170899D02*
X6228742Y-10161376D01*
X6228742Y-10161376D02*
X6219218Y-10151852D01*
X6219218Y-10151852D02*
X6219218Y-10170899D01*
X6343028Y-10351852D02*
X6323980Y-10342328D01*
X6323980Y-10342328D02*
X6314456Y-10323280D01*
X6314456Y-10323280D02*
X6314456Y-10151852D01*
X6447790Y-10351852D02*
X6428742Y-10342328D01*
X6428742Y-10342328D02*
X6419218Y-10323280D01*
X6419218Y-10323280D02*
X6419218Y-10151852D01*
X6676361Y-10351852D02*
X6676361Y-10151852D01*
X6676361Y-10151852D02*
X6743028Y-10294709D01*
X6743028Y-10294709D02*
X6809694Y-10151852D01*
X6809694Y-10151852D02*
X6809694Y-10351852D01*
X6990647Y-10351852D02*
X6990647Y-10247090D01*
X6990647Y-10247090D02*
X6981123Y-10228042D01*
X6981123Y-10228042D02*
X6962075Y-10218518D01*
X6962075Y-10218518D02*
X6923980Y-10218518D01*
X6923980Y-10218518D02*
X6904933Y-10228042D01*
X6990647Y-10342328D02*
X6971599Y-10351852D01*
X6971599Y-10351852D02*
X6923980Y-10351852D01*
X6923980Y-10351852D02*
X6904933Y-10342328D01*
X6904933Y-10342328D02*
X6895409Y-10323280D01*
X6895409Y-10323280D02*
X6895409Y-10304233D01*
X6895409Y-10304233D02*
X6904933Y-10285185D01*
X6904933Y-10285185D02*
X6923980Y-10275661D01*
X6923980Y-10275661D02*
X6971599Y-10275661D01*
X6971599Y-10275661D02*
X6990647Y-10266138D01*
X7085885Y-10218518D02*
X7085885Y-10418518D01*
X7085885Y-10228042D02*
X7104933Y-10218518D01*
X7104933Y-10218518D02*
X7143028Y-10218518D01*
X7143028Y-10218518D02*
X7162075Y-10228042D01*
X7162075Y-10228042D02*
X7171599Y-10237566D01*
X7171599Y-10237566D02*
X7181123Y-10256614D01*
X7181123Y-10256614D02*
X7181123Y-10313757D01*
X7181123Y-10313757D02*
X7171599Y-10332804D01*
X7171599Y-10332804D02*
X7162075Y-10342328D01*
X7162075Y-10342328D02*
X7143028Y-10351852D01*
X7143028Y-10351852D02*
X7104933Y-10351852D01*
X7104933Y-10351852D02*
X7085885Y-10342328D01*
X7266837Y-10332804D02*
X7276361Y-10342328D01*
X7276361Y-10342328D02*
X7266837Y-10351852D01*
X7266837Y-10351852D02*
X7257314Y-10342328D01*
X7257314Y-10342328D02*
X7266837Y-10332804D01*
X7266837Y-10332804D02*
X7266837Y-10351852D01*
X7266837Y-10228042D02*
X7276361Y-10237566D01*
X7276361Y-10237566D02*
X7266837Y-10247090D01*
X7266837Y-10247090D02*
X7257314Y-10237566D01*
X7257314Y-10237566D02*
X7266837Y-10228042D01*
X7266837Y-10228042D02*
X7266837Y-10247090D01*
M02*
