%TF.GenerationSoftware,KiCad,Pcbnew,9.0.0*%
%TF.CreationDate,2025-04-02T18:04:12+02:00*%
%TF.ProjectId,CapyPower,43617079-506f-4776-9572-2e6b69636164,rev?*%
%TF.SameCoordinates,Original*%
%TF.FileFunction,Drillmap*%
%TF.FilePolarity,Positive*%
%FSLAX45Y45*%
G04 Gerber Fmt 4.5, Leading zero omitted, Abs format (unit mm)*
G04 Created by KiCad (PCBNEW 9.0.0) date 2025-04-02 18:04:12*
%MOMM*%
%LPD*%
G01*
G04 APERTURE LIST*
%ADD10C,0.050000*%
%ADD11C,0.200000*%
%ADD12C,0.100000*%
%ADD13C,0.110000*%
%ADD14C,0.150000*%
%ADD15C,0.170000*%
%ADD16C,0.300000*%
G04 APERTURE END LIST*
D10*
X6149264Y-9950000D02*
G75*
G02*
X5725000Y-9525736I-212132J212132D01*
G01*
X14965000Y-9525736D02*
G75*
G02*
X14540736Y-9950000I-212132J-212132D01*
G01*
X5725000Y-4474264D02*
G75*
G02*
X6149264Y-4050000I212132J212132D01*
G01*
X14540736Y-4050000D02*
G75*
G02*
X14965000Y-4474264I212132J-212132D01*
G01*
X5725000Y-4474264D02*
X5725000Y-9525736D01*
X14540736Y-9950000D02*
X6149264Y-9950000D01*
X14965000Y-4474264D02*
X14965000Y-9525736D01*
X14540736Y-4050000D02*
X6149264Y-4050000D01*
D11*
D12*
X6856500Y-5120000D02*
X6886500Y-5150000D01*
X6886500Y-5120000D02*
X6856500Y-5150000D01*
X6860000Y-4705000D02*
X6890000Y-4735000D01*
X6890000Y-4705000D02*
X6860000Y-4735000D01*
X8380000Y-9000000D02*
X8410000Y-9030000D01*
X8410000Y-9000000D02*
X8380000Y-9030000D01*
X8385000Y-9515000D02*
X8415000Y-9545000D01*
X8415000Y-9515000D02*
X8385000Y-9545000D01*
X11975000Y-9570000D02*
X12005000Y-9600000D01*
X12005000Y-9570000D02*
X11975000Y-9600000D01*
X12080000Y-8985000D02*
X12110000Y-9015000D01*
X12110000Y-8985000D02*
X12080000Y-9015000D01*
X12565000Y-9550000D02*
X12595000Y-9580000D01*
X12595000Y-9550000D02*
X12565000Y-9580000D01*
X12590000Y-4945000D02*
X12620000Y-4975000D01*
X12620000Y-4945000D02*
X12590000Y-4975000D01*
X12591250Y-5245000D02*
X12621250Y-5275000D01*
X12621250Y-5245000D02*
X12591250Y-5275000D01*
X12591250Y-5545000D02*
X12621250Y-5575000D01*
X12621250Y-5545000D02*
X12591250Y-5575000D01*
X13226000Y-6263500D02*
X13256000Y-6293500D01*
X13256000Y-6263500D02*
X13226000Y-6293500D01*
X13285000Y-6915000D02*
X13315000Y-6945000D01*
X13315000Y-6915000D02*
X13285000Y-6945000D01*
X6120000Y-6260000D02*
G75*
G02*
X6020000Y-6260000I-50000J0D01*
G01*
X6020000Y-6260000D02*
G75*
G02*
X6120000Y-6260000I50000J0D01*
G01*
X6120000Y-7360000D02*
G75*
G02*
X6020000Y-7360000I-50000J0D01*
G01*
X6020000Y-7360000D02*
G75*
G02*
X6120000Y-7360000I50000J0D01*
G01*
X8750000Y-9619425D02*
G75*
G02*
X8650000Y-9619425I-50000J0D01*
G01*
X8650000Y-9619425D02*
G75*
G02*
X8750000Y-9619425I50000J0D01*
G01*
X9850000Y-9619425D02*
G75*
G02*
X9750000Y-9619425I-50000J0D01*
G01*
X9750000Y-9619425D02*
G75*
G02*
X9850000Y-9619425I50000J0D01*
G01*
X10230000Y-9624425D02*
G75*
G02*
X10130000Y-9624425I-50000J0D01*
G01*
X10130000Y-9624425D02*
G75*
G02*
X10230000Y-9624425I50000J0D01*
G01*
X11330000Y-9624425D02*
G75*
G02*
X11230000Y-9624425I-50000J0D01*
G01*
X11230000Y-9624425D02*
G75*
G02*
X11330000Y-9624425I50000J0D01*
G01*
X14659425Y-4870000D02*
G75*
G02*
X14559425Y-4870000I-50000J0D01*
G01*
X14559425Y-4870000D02*
G75*
G02*
X14659425Y-4870000I50000J0D01*
G01*
X14659425Y-5970000D02*
G75*
G02*
X14559425Y-5970000I-50000J0D01*
G01*
X14559425Y-5970000D02*
G75*
G02*
X14659425Y-5970000I50000J0D01*
G01*
X14660000Y-6440000D02*
G75*
G02*
X14560000Y-6440000I-50000J0D01*
G01*
X14560000Y-6440000D02*
G75*
G02*
X14660000Y-6440000I50000J0D01*
G01*
X14660000Y-7540000D02*
G75*
G02*
X14560000Y-7540000I-50000J0D01*
G01*
X14560000Y-7540000D02*
G75*
G02*
X14660000Y-7540000I50000J0D01*
G01*
X14660000Y-8010000D02*
G75*
G02*
X14560000Y-8010000I-50000J0D01*
G01*
X14560000Y-8010000D02*
G75*
G02*
X14660000Y-8010000I50000J0D01*
G01*
X14660000Y-9110000D02*
G75*
G02*
X14560000Y-9110000I-50000J0D01*
G01*
X14560000Y-9110000D02*
G75*
G02*
X14660000Y-9110000I50000J0D01*
G01*
D13*
X6511000Y-8850000D02*
X6511000Y-8960000D01*
X6456000Y-8905000D02*
X6566000Y-8905000D01*
X6511000Y-9350000D02*
X6511000Y-9460000D01*
X6456000Y-9405000D02*
X6566000Y-9405000D01*
X6765000Y-8850000D02*
X6765000Y-8960000D01*
X6710000Y-8905000D02*
X6820000Y-8905000D01*
X6765000Y-9350000D02*
X6765000Y-9460000D01*
X6710000Y-9405000D02*
X6820000Y-9405000D01*
X7460000Y-8855000D02*
X7460000Y-8965000D01*
X7405000Y-8910000D02*
X7515000Y-8910000D01*
X7460000Y-9355000D02*
X7460000Y-9465000D01*
X7405000Y-9410000D02*
X7515000Y-9410000D01*
X7706000Y-4535000D02*
X7706000Y-4645000D01*
X7651000Y-4590000D02*
X7761000Y-4590000D01*
X7706000Y-5035000D02*
X7706000Y-5145000D01*
X7651000Y-5090000D02*
X7761000Y-5090000D01*
X7714000Y-8855000D02*
X7714000Y-8965000D01*
X7659000Y-8910000D02*
X7769000Y-8910000D01*
X7714000Y-9355000D02*
X7714000Y-9465000D01*
X7659000Y-9410000D02*
X7769000Y-9410000D01*
X7960000Y-4535000D02*
X7960000Y-4645000D01*
X7905000Y-4590000D02*
X8015000Y-4590000D01*
X7960000Y-5035000D02*
X7960000Y-5145000D01*
X7905000Y-5090000D02*
X8015000Y-5090000D01*
X8115000Y-6189000D02*
X8115000Y-6299000D01*
X8060000Y-6244000D02*
X8170000Y-6244000D01*
X8115000Y-7205000D02*
X8115000Y-7315000D01*
X8060000Y-7260000D02*
X8170000Y-7260000D01*
X8791000Y-4535000D02*
X8791000Y-4645000D01*
X8736000Y-4590000D02*
X8846000Y-4590000D01*
X8791000Y-5035000D02*
X8791000Y-5145000D01*
X8736000Y-5090000D02*
X8846000Y-5090000D01*
X9045000Y-4535000D02*
X9045000Y-4645000D01*
X8990000Y-4590000D02*
X9100000Y-4590000D01*
X9045000Y-5035000D02*
X9045000Y-5145000D01*
X8990000Y-5090000D02*
X9100000Y-5090000D01*
X9845000Y-4530000D02*
X9845000Y-4640000D01*
X9790000Y-4585000D02*
X9900000Y-4585000D01*
X9845000Y-5030000D02*
X9845000Y-5140000D01*
X9790000Y-5085000D02*
X9900000Y-5085000D01*
X10099000Y-4530000D02*
X10099000Y-4640000D01*
X10044000Y-4585000D02*
X10154000Y-4585000D01*
X10099000Y-5030000D02*
X10099000Y-5140000D01*
X10044000Y-5085000D02*
X10154000Y-5085000D01*
X10928000Y-4530000D02*
X10928000Y-4640000D01*
X10873000Y-4585000D02*
X10983000Y-4585000D01*
X10928000Y-5030000D02*
X10928000Y-5140000D01*
X10873000Y-5085000D02*
X10983000Y-5085000D01*
X11182000Y-4530000D02*
X11182000Y-4640000D01*
X11127000Y-4585000D02*
X11237000Y-4585000D01*
X11182000Y-5030000D02*
X11182000Y-5140000D01*
X11127000Y-5085000D02*
X11237000Y-5085000D01*
X11436000Y-4530000D02*
X11436000Y-4640000D01*
X11381000Y-4585000D02*
X11491000Y-4585000D01*
X11436000Y-5030000D02*
X11436000Y-5140000D01*
X11381000Y-5085000D02*
X11491000Y-5085000D01*
X11690000Y-4530000D02*
X11690000Y-4640000D01*
X11635000Y-4585000D02*
X11745000Y-4585000D01*
X11690000Y-5030000D02*
X11690000Y-5140000D01*
X11635000Y-5085000D02*
X11745000Y-5085000D01*
D14*
X6561033Y-8023033D02*
X6561033Y-7916966D01*
X6454966Y-7916966D01*
X6454966Y-8023033D01*
X6561033Y-8023033D01*
X6815033Y-8023033D02*
X6815033Y-7916966D01*
X6708966Y-7916966D01*
X6708966Y-8023033D01*
X6815033Y-8023033D01*
X7266033Y-8018033D02*
X7266033Y-7911966D01*
X7159966Y-7911966D01*
X7159966Y-8018033D01*
X7266033Y-8018033D01*
X7520033Y-8018033D02*
X7520033Y-7911966D01*
X7413966Y-7911966D01*
X7413966Y-8018033D01*
X7520033Y-8018033D01*
X9188034Y-7143033D02*
X9188034Y-7036966D01*
X9081967Y-7036966D01*
X9081967Y-7143033D01*
X9188034Y-7143033D01*
D12*
X8835000Y-7165000D02*
X9435000Y-7165000D01*
X9435000Y-7015000D02*
G75*
G02*
X9435000Y-7165000I0J-75000D01*
G01*
X9435000Y-7015000D02*
X8835000Y-7015000D01*
X8835000Y-7015000D02*
G75*
G03*
X8835000Y-7165000I0J-75000D01*
G01*
D14*
X10138034Y-6303033D02*
X10138034Y-6196966D01*
X10031967Y-6196966D01*
X10031967Y-6303033D01*
X10138034Y-6303033D01*
D12*
X9785000Y-6325000D02*
X10385000Y-6325000D01*
X10385000Y-6175000D02*
G75*
G02*
X10385000Y-6325000I0J-75000D01*
G01*
X10385000Y-6175000D02*
X9785000Y-6175000D01*
X9785000Y-6175000D02*
G75*
G03*
X9785000Y-6325000I0J-75000D01*
G01*
D14*
X10138034Y-7983033D02*
X10138034Y-7876966D01*
X10031967Y-7876966D01*
X10031967Y-7983033D01*
X10138034Y-7983033D01*
D12*
X9785000Y-8005000D02*
X10385000Y-8005000D01*
X10385000Y-7855000D02*
G75*
G02*
X10385000Y-8005000I0J-75000D01*
G01*
X10385000Y-7855000D02*
X9785000Y-7855000D01*
X9785000Y-7855000D02*
G75*
G03*
X9785000Y-8005000I0J-75000D01*
G01*
D14*
X10188034Y-7143033D02*
X10188034Y-7036966D01*
X10081967Y-7036966D01*
X10081967Y-7143033D01*
X10188034Y-7143033D01*
D12*
X10210000Y-7390000D02*
X10210000Y-6790000D01*
X10060000Y-6790000D02*
G75*
G02*
X10210000Y-6790000I75000J0D01*
G01*
X10060000Y-6790000D02*
X10060000Y-7390000D01*
X10060000Y-7390000D02*
G75*
G03*
X10210000Y-7390000I75000J0D01*
G01*
D14*
X10938034Y-7143033D02*
X10938034Y-7036966D01*
X10831967Y-7036966D01*
X10831967Y-7143033D01*
X10938034Y-7143033D01*
D12*
X10960000Y-7390000D02*
X10960000Y-6790000D01*
X10810000Y-6790000D02*
G75*
G02*
X10960000Y-6790000I75000J0D01*
G01*
X10810000Y-6790000D02*
X10810000Y-7390000D01*
X10810000Y-7390000D02*
G75*
G03*
X10960000Y-7390000I75000J0D01*
G01*
D14*
X11868033Y-6260533D02*
X11868033Y-6154466D01*
X11761966Y-6154466D01*
X11761966Y-6260533D01*
X11868033Y-6260533D01*
D12*
X11890000Y-6257500D02*
X11890000Y-6157500D01*
X11740000Y-6157500D02*
G75*
G02*
X11890000Y-6157500I75000J0D01*
G01*
X11740000Y-6157500D02*
X11740000Y-6257500D01*
X11740000Y-6257500D02*
G75*
G03*
X11890000Y-6257500I75000J0D01*
G01*
D14*
X11868033Y-6860533D02*
X11868033Y-6754466D01*
X11761966Y-6754466D01*
X11761966Y-6860533D01*
X11868033Y-6860533D01*
D12*
X11890000Y-6857500D02*
X11890000Y-6757500D01*
X11740000Y-6757500D02*
G75*
G02*
X11890000Y-6757500I75000J0D01*
G01*
X11740000Y-6757500D02*
X11740000Y-6857500D01*
X11740000Y-6857500D02*
G75*
G03*
X11890000Y-6857500I75000J0D01*
G01*
D14*
X11868033Y-7460533D02*
X11868033Y-7354466D01*
X11761966Y-7354466D01*
X11761966Y-7460533D01*
X11868033Y-7460533D01*
D12*
X11890000Y-7457500D02*
X11890000Y-7357500D01*
X11740000Y-7357500D02*
G75*
G02*
X11890000Y-7357500I75000J0D01*
G01*
X11740000Y-7357500D02*
X11740000Y-7457500D01*
X11740000Y-7457500D02*
G75*
G03*
X11890000Y-7457500I75000J0D01*
G01*
D14*
X11868033Y-8060533D02*
X11868033Y-7954466D01*
X11761966Y-7954466D01*
X11761966Y-8060533D01*
X11868033Y-8060533D01*
D12*
X11890000Y-8057500D02*
X11890000Y-7957500D01*
X11740000Y-7957500D02*
G75*
G02*
X11890000Y-7957500I75000J0D01*
G01*
X11740000Y-7957500D02*
X11740000Y-8057500D01*
X11740000Y-8057500D02*
G75*
G03*
X11890000Y-8057500I75000J0D01*
G01*
D14*
X11868033Y-8660534D02*
X11868033Y-8554467D01*
X11761966Y-8554467D01*
X11761966Y-8660534D01*
X11868033Y-8660534D01*
D12*
X11890000Y-8657500D02*
X11890000Y-8557500D01*
X11740000Y-8557500D02*
G75*
G02*
X11890000Y-8557500I75000J0D01*
G01*
X11740000Y-8557500D02*
X11740000Y-8657500D01*
X11740000Y-8657500D02*
G75*
G03*
X11890000Y-8657500I75000J0D01*
G01*
D14*
X12238033Y-6260533D02*
X12238033Y-6154466D01*
X12131966Y-6154466D01*
X12131966Y-6260533D01*
X12238033Y-6260533D01*
D12*
X12260000Y-6257500D02*
X12260000Y-6157500D01*
X12110000Y-6157500D02*
G75*
G02*
X12260000Y-6157500I75000J0D01*
G01*
X12110000Y-6157500D02*
X12110000Y-6257500D01*
X12110000Y-6257500D02*
G75*
G03*
X12260000Y-6257500I75000J0D01*
G01*
D14*
X12238033Y-6860533D02*
X12238033Y-6754466D01*
X12131966Y-6754466D01*
X12131966Y-6860533D01*
X12238033Y-6860533D01*
D12*
X12260000Y-6857500D02*
X12260000Y-6757500D01*
X12110000Y-6757500D02*
G75*
G02*
X12260000Y-6757500I75000J0D01*
G01*
X12110000Y-6757500D02*
X12110000Y-6857500D01*
X12110000Y-6857500D02*
G75*
G03*
X12260000Y-6857500I75000J0D01*
G01*
D14*
X12238033Y-7460533D02*
X12238033Y-7354466D01*
X12131966Y-7354466D01*
X12131966Y-7460533D01*
X12238033Y-7460533D01*
D12*
X12260000Y-7457500D02*
X12260000Y-7357500D01*
X12110000Y-7357500D02*
G75*
G02*
X12260000Y-7357500I75000J0D01*
G01*
X12110000Y-7357500D02*
X12110000Y-7457500D01*
X12110000Y-7457500D02*
G75*
G03*
X12260000Y-7457500I75000J0D01*
G01*
D14*
X12238033Y-8060533D02*
X12238033Y-7954466D01*
X12131966Y-7954466D01*
X12131966Y-8060533D01*
X12238033Y-8060533D01*
D12*
X12260000Y-8057500D02*
X12260000Y-7957500D01*
X12110000Y-7957500D02*
G75*
G02*
X12260000Y-7957500I75000J0D01*
G01*
X12110000Y-7957500D02*
X12110000Y-8057500D01*
X12110000Y-8057500D02*
G75*
G03*
X12260000Y-8057500I75000J0D01*
G01*
D14*
X12238033Y-8660534D02*
X12238033Y-8554467D01*
X12131966Y-8554467D01*
X12131966Y-8660534D01*
X12238033Y-8660534D01*
D12*
X12260000Y-8657500D02*
X12260000Y-8557500D01*
X12110000Y-8557500D02*
G75*
G02*
X12260000Y-8557500I75000J0D01*
G01*
X12110000Y-8557500D02*
X12110000Y-8657500D01*
X12110000Y-8657500D02*
G75*
G03*
X12260000Y-8657500I75000J0D01*
G01*
D14*
X12638033Y-6260533D02*
X12638033Y-6154466D01*
X12531966Y-6154466D01*
X12531966Y-6260533D01*
X12638033Y-6260533D01*
D12*
X12660000Y-6257500D02*
X12660000Y-6157500D01*
X12510000Y-6157500D02*
G75*
G02*
X12660000Y-6157500I75000J0D01*
G01*
X12510000Y-6157500D02*
X12510000Y-6257500D01*
X12510000Y-6257500D02*
G75*
G03*
X12660000Y-6257500I75000J0D01*
G01*
D14*
X12638033Y-6860533D02*
X12638033Y-6754466D01*
X12531966Y-6754466D01*
X12531966Y-6860533D01*
X12638033Y-6860533D01*
D12*
X12660000Y-6857500D02*
X12660000Y-6757500D01*
X12510000Y-6757500D02*
G75*
G02*
X12660000Y-6757500I75000J0D01*
G01*
X12510000Y-6757500D02*
X12510000Y-6857500D01*
X12510000Y-6857500D02*
G75*
G03*
X12660000Y-6857500I75000J0D01*
G01*
D14*
X12638033Y-7460533D02*
X12638033Y-7354466D01*
X12531966Y-7354466D01*
X12531966Y-7460533D01*
X12638033Y-7460533D01*
D12*
X12660000Y-7457500D02*
X12660000Y-7357500D01*
X12510000Y-7357500D02*
G75*
G02*
X12660000Y-7357500I75000J0D01*
G01*
X12510000Y-7357500D02*
X12510000Y-7457500D01*
X12510000Y-7457500D02*
G75*
G03*
X12660000Y-7457500I75000J0D01*
G01*
D14*
X12638033Y-8060533D02*
X12638033Y-7954466D01*
X12531966Y-7954466D01*
X12531966Y-8060533D01*
X12638033Y-8060533D01*
D12*
X12660000Y-8057500D02*
X12660000Y-7957500D01*
X12510000Y-7957500D02*
G75*
G02*
X12660000Y-7957500I75000J0D01*
G01*
X12510000Y-7957500D02*
X12510000Y-8057500D01*
X12510000Y-8057500D02*
G75*
G03*
X12660000Y-8057500I75000J0D01*
G01*
D14*
X12638033Y-8660534D02*
X12638033Y-8554467D01*
X12531966Y-8554467D01*
X12531966Y-8660534D01*
X12638033Y-8660534D01*
D12*
X12660000Y-8657500D02*
X12660000Y-8557500D01*
X12510000Y-8557500D02*
G75*
G02*
X12660000Y-8557500I75000J0D01*
G01*
X12510000Y-8557500D02*
X12510000Y-8657500D01*
X12510000Y-8657500D02*
G75*
G03*
X12660000Y-8657500I75000J0D01*
G01*
D14*
X13008033Y-6260533D02*
X13008033Y-6154466D01*
X12901966Y-6154466D01*
X12901966Y-6260533D01*
X13008033Y-6260533D01*
D12*
X13030000Y-6257500D02*
X13030000Y-6157500D01*
X12880000Y-6157500D02*
G75*
G02*
X13030000Y-6157500I75000J0D01*
G01*
X12880000Y-6157500D02*
X12880000Y-6257500D01*
X12880000Y-6257500D02*
G75*
G03*
X13030000Y-6257500I75000J0D01*
G01*
D14*
X13008033Y-6860533D02*
X13008033Y-6754466D01*
X12901966Y-6754466D01*
X12901966Y-6860533D01*
X13008033Y-6860533D01*
D12*
X13030000Y-6857500D02*
X13030000Y-6757500D01*
X12880000Y-6757500D02*
G75*
G02*
X13030000Y-6757500I75000J0D01*
G01*
X12880000Y-6757500D02*
X12880000Y-6857500D01*
X12880000Y-6857500D02*
G75*
G03*
X13030000Y-6857500I75000J0D01*
G01*
D14*
X13008033Y-7460533D02*
X13008033Y-7354466D01*
X12901966Y-7354466D01*
X12901966Y-7460533D01*
X13008033Y-7460533D01*
D12*
X13030000Y-7457500D02*
X13030000Y-7357500D01*
X12880000Y-7357500D02*
G75*
G02*
X13030000Y-7357500I75000J0D01*
G01*
X12880000Y-7357500D02*
X12880000Y-7457500D01*
X12880000Y-7457500D02*
G75*
G03*
X13030000Y-7457500I75000J0D01*
G01*
D14*
X13008033Y-8060533D02*
X13008033Y-7954466D01*
X12901966Y-7954466D01*
X12901966Y-8060533D01*
X13008033Y-8060533D01*
D12*
X13030000Y-8057500D02*
X13030000Y-7957500D01*
X12880000Y-7957500D02*
G75*
G02*
X13030000Y-7957500I75000J0D01*
G01*
X12880000Y-7957500D02*
X12880000Y-8057500D01*
X12880000Y-8057500D02*
G75*
G03*
X13030000Y-8057500I75000J0D01*
G01*
D14*
X13008033Y-8660534D02*
X13008033Y-8554467D01*
X12901966Y-8554467D01*
X12901966Y-8660534D01*
X13008033Y-8660534D01*
D12*
X13030000Y-8657500D02*
X13030000Y-8557500D01*
X12880000Y-8557500D02*
G75*
G02*
X13030000Y-8557500I75000J0D01*
G01*
X12880000Y-8557500D02*
X12880000Y-8657500D01*
X12880000Y-8657500D02*
G75*
G03*
X13030000Y-8657500I75000J0D01*
G01*
D15*
X7070000Y-6645000D02*
X7155000Y-6560000D01*
X7070000Y-6475000D01*
X6985000Y-6560000D01*
X7070000Y-6645000D01*
X7070000Y-7145000D02*
X7155000Y-7060000D01*
X7070000Y-6975000D01*
X6985000Y-7060000D01*
X7070000Y-7145000D01*
X9000000Y-8704425D02*
X9085000Y-8619425D01*
X9000000Y-8534425D01*
X8915000Y-8619425D01*
X9000000Y-8704425D01*
X9500000Y-8704425D02*
X9585000Y-8619425D01*
X9500000Y-8534425D01*
X9415000Y-8619425D01*
X9500000Y-8704425D01*
X10480000Y-8709425D02*
X10565000Y-8624425D01*
X10480000Y-8539425D01*
X10395000Y-8624425D01*
X10480000Y-8709425D01*
X10980000Y-8709425D02*
X11065000Y-8624425D01*
X10980000Y-8539425D01*
X10895000Y-8624425D01*
X10980000Y-8709425D01*
X13609425Y-5255000D02*
X13694425Y-5170000D01*
X13609425Y-5085000D01*
X13524425Y-5170000D01*
X13609425Y-5255000D01*
X13609425Y-5755000D02*
X13694425Y-5670000D01*
X13609425Y-5585000D01*
X13524425Y-5670000D01*
X13609425Y-5755000D01*
X13610000Y-6825000D02*
X13695000Y-6740000D01*
X13610000Y-6655000D01*
X13525000Y-6740000D01*
X13610000Y-6825000D01*
X13610000Y-7325000D02*
X13695000Y-7240000D01*
X13610000Y-7155000D01*
X13525000Y-7240000D01*
X13610000Y-7325000D01*
X13610000Y-8395000D02*
X13695000Y-8310000D01*
X13610000Y-8225000D01*
X13525000Y-8310000D01*
X13610000Y-8395000D01*
X13610000Y-8895000D02*
X13695000Y-8810000D01*
X13610000Y-8725000D01*
X13525000Y-8810000D01*
X13610000Y-8895000D01*
D16*
X5775000Y-4100000D02*
X6075000Y-4400000D01*
X6075000Y-4100000D02*
X5775000Y-4400000D01*
X6075000Y-4250000D02*
G75*
G02*
X5775000Y-4250000I-150000J0D01*
G01*
X5775000Y-4250000D02*
G75*
G02*
X6075000Y-4250000I150000J0D01*
G01*
X5775000Y-9590000D02*
X6075000Y-9890000D01*
X6075000Y-9590000D02*
X5775000Y-9890000D01*
X6075000Y-9740000D02*
G75*
G02*
X5775000Y-9740000I-150000J0D01*
G01*
X5775000Y-9740000D02*
G75*
G02*
X6075000Y-9740000I150000J0D01*
G01*
X14610000Y-9600000D02*
X14910000Y-9900000D01*
X14910000Y-9600000D02*
X14610000Y-9900000D01*
X14910000Y-9750000D02*
G75*
G02*
X14610000Y-9750000I-150000J0D01*
G01*
X14610000Y-9750000D02*
G75*
G02*
X14910000Y-9750000I150000J0D01*
G01*
X14615000Y-4100000D02*
X14915000Y-4400000D01*
X14915000Y-4100000D02*
X14615000Y-4400000D01*
X14915000Y-4250000D02*
G75*
G02*
X14615000Y-4250000I-150000J0D01*
G01*
X14615000Y-4250000D02*
G75*
G02*
X14915000Y-4250000I150000J0D01*
G01*
D11*
X5895409Y-10351852D02*
X5895409Y-10151852D01*
X5895409Y-10151852D02*
X5943028Y-10151852D01*
X5943028Y-10151852D02*
X5971599Y-10161376D01*
X5971599Y-10161376D02*
X5990647Y-10180423D01*
X5990647Y-10180423D02*
X6000171Y-10199471D01*
X6000171Y-10199471D02*
X6009694Y-10237566D01*
X6009694Y-10237566D02*
X6009694Y-10266138D01*
X6009694Y-10266138D02*
X6000171Y-10304233D01*
X6000171Y-10304233D02*
X5990647Y-10323280D01*
X5990647Y-10323280D02*
X5971599Y-10342328D01*
X5971599Y-10342328D02*
X5943028Y-10351852D01*
X5943028Y-10351852D02*
X5895409Y-10351852D01*
X6095409Y-10351852D02*
X6095409Y-10218518D01*
X6095409Y-10256614D02*
X6104933Y-10237566D01*
X6104933Y-10237566D02*
X6114456Y-10228042D01*
X6114456Y-10228042D02*
X6133504Y-10218518D01*
X6133504Y-10218518D02*
X6152552Y-10218518D01*
X6219218Y-10351852D02*
X6219218Y-10218518D01*
X6219218Y-10151852D02*
X6209694Y-10161376D01*
X6209694Y-10161376D02*
X6219218Y-10170899D01*
X6219218Y-10170899D02*
X6228742Y-10161376D01*
X6228742Y-10161376D02*
X6219218Y-10151852D01*
X6219218Y-10151852D02*
X6219218Y-10170899D01*
X6343028Y-10351852D02*
X6323980Y-10342328D01*
X6323980Y-10342328D02*
X6314456Y-10323280D01*
X6314456Y-10323280D02*
X6314456Y-10151852D01*
X6447790Y-10351852D02*
X6428742Y-10342328D01*
X6428742Y-10342328D02*
X6419218Y-10323280D01*
X6419218Y-10323280D02*
X6419218Y-10151852D01*
X6676361Y-10351852D02*
X6676361Y-10151852D01*
X6676361Y-10151852D02*
X6743028Y-10294709D01*
X6743028Y-10294709D02*
X6809694Y-10151852D01*
X6809694Y-10151852D02*
X6809694Y-10351852D01*
X6990647Y-10351852D02*
X6990647Y-10247090D01*
X6990647Y-10247090D02*
X6981123Y-10228042D01*
X6981123Y-10228042D02*
X6962075Y-10218518D01*
X6962075Y-10218518D02*
X6923980Y-10218518D01*
X6923980Y-10218518D02*
X6904933Y-10228042D01*
X6990647Y-10342328D02*
X6971599Y-10351852D01*
X6971599Y-10351852D02*
X6923980Y-10351852D01*
X6923980Y-10351852D02*
X6904933Y-10342328D01*
X6904933Y-10342328D02*
X6895409Y-10323280D01*
X6895409Y-10323280D02*
X6895409Y-10304233D01*
X6895409Y-10304233D02*
X6904933Y-10285185D01*
X6904933Y-10285185D02*
X6923980Y-10275661D01*
X6923980Y-10275661D02*
X6971599Y-10275661D01*
X6971599Y-10275661D02*
X6990647Y-10266138D01*
X7085885Y-10218518D02*
X7085885Y-10418518D01*
X7085885Y-10228042D02*
X7104933Y-10218518D01*
X7104933Y-10218518D02*
X7143028Y-10218518D01*
X7143028Y-10218518D02*
X7162075Y-10228042D01*
X7162075Y-10228042D02*
X7171599Y-10237566D01*
X7171599Y-10237566D02*
X7181123Y-10256614D01*
X7181123Y-10256614D02*
X7181123Y-10313757D01*
X7181123Y-10313757D02*
X7171599Y-10332804D01*
X7171599Y-10332804D02*
X7162075Y-10342328D01*
X7162075Y-10342328D02*
X7143028Y-10351852D01*
X7143028Y-10351852D02*
X7104933Y-10351852D01*
X7104933Y-10351852D02*
X7085885Y-10342328D01*
X7266837Y-10332804D02*
X7276361Y-10342328D01*
X7276361Y-10342328D02*
X7266837Y-10351852D01*
X7266837Y-10351852D02*
X7257314Y-10342328D01*
X7257314Y-10342328D02*
X7266837Y-10332804D01*
X7266837Y-10332804D02*
X7266837Y-10351852D01*
X7266837Y-10228042D02*
X7276361Y-10237566D01*
X7276361Y-10237566D02*
X7266837Y-10247090D01*
X7266837Y-10247090D02*
X7257314Y-10237566D01*
X7257314Y-10237566D02*
X7266837Y-10228042D01*
X7266837Y-10228042D02*
X7266837Y-10247090D01*
D12*
X5604632Y-10665368D02*
X5634632Y-10695368D01*
X5634632Y-10665368D02*
X5604632Y-10695368D01*
D11*
X5933504Y-10571852D02*
X5952552Y-10571852D01*
X5952552Y-10571852D02*
X5971599Y-10581376D01*
X5971599Y-10581376D02*
X5981123Y-10590899D01*
X5981123Y-10590899D02*
X5990647Y-10609947D01*
X5990647Y-10609947D02*
X6000171Y-10648042D01*
X6000171Y-10648042D02*
X6000171Y-10695661D01*
X6000171Y-10695661D02*
X5990647Y-10733757D01*
X5990647Y-10733757D02*
X5981123Y-10752804D01*
X5981123Y-10752804D02*
X5971599Y-10762328D01*
X5971599Y-10762328D02*
X5952552Y-10771852D01*
X5952552Y-10771852D02*
X5933504Y-10771852D01*
X5933504Y-10771852D02*
X5914456Y-10762328D01*
X5914456Y-10762328D02*
X5904933Y-10752804D01*
X5904933Y-10752804D02*
X5895409Y-10733757D01*
X5895409Y-10733757D02*
X5885885Y-10695661D01*
X5885885Y-10695661D02*
X5885885Y-10648042D01*
X5885885Y-10648042D02*
X5895409Y-10609947D01*
X5895409Y-10609947D02*
X5904933Y-10590899D01*
X5904933Y-10590899D02*
X5914456Y-10581376D01*
X5914456Y-10581376D02*
X5933504Y-10571852D01*
X6085885Y-10752804D02*
X6095409Y-10762328D01*
X6095409Y-10762328D02*
X6085885Y-10771852D01*
X6085885Y-10771852D02*
X6076361Y-10762328D01*
X6076361Y-10762328D02*
X6085885Y-10752804D01*
X6085885Y-10752804D02*
X6085885Y-10771852D01*
X6162075Y-10571852D02*
X6285885Y-10571852D01*
X6285885Y-10571852D02*
X6219218Y-10648042D01*
X6219218Y-10648042D02*
X6247790Y-10648042D01*
X6247790Y-10648042D02*
X6266837Y-10657566D01*
X6266837Y-10657566D02*
X6276361Y-10667090D01*
X6276361Y-10667090D02*
X6285885Y-10686138D01*
X6285885Y-10686138D02*
X6285885Y-10733757D01*
X6285885Y-10733757D02*
X6276361Y-10752804D01*
X6276361Y-10752804D02*
X6266837Y-10762328D01*
X6266837Y-10762328D02*
X6247790Y-10771852D01*
X6247790Y-10771852D02*
X6190647Y-10771852D01*
X6190647Y-10771852D02*
X6171599Y-10762328D01*
X6171599Y-10762328D02*
X6162075Y-10752804D01*
X6409694Y-10571852D02*
X6428742Y-10571852D01*
X6428742Y-10571852D02*
X6447790Y-10581376D01*
X6447790Y-10581376D02*
X6457314Y-10590899D01*
X6457314Y-10590899D02*
X6466837Y-10609947D01*
X6466837Y-10609947D02*
X6476361Y-10648042D01*
X6476361Y-10648042D02*
X6476361Y-10695661D01*
X6476361Y-10695661D02*
X6466837Y-10733757D01*
X6466837Y-10733757D02*
X6457314Y-10752804D01*
X6457314Y-10752804D02*
X6447790Y-10762328D01*
X6447790Y-10762328D02*
X6428742Y-10771852D01*
X6428742Y-10771852D02*
X6409694Y-10771852D01*
X6409694Y-10771852D02*
X6390647Y-10762328D01*
X6390647Y-10762328D02*
X6381123Y-10752804D01*
X6381123Y-10752804D02*
X6371599Y-10733757D01*
X6371599Y-10733757D02*
X6362075Y-10695661D01*
X6362075Y-10695661D02*
X6362075Y-10648042D01*
X6362075Y-10648042D02*
X6371599Y-10609947D01*
X6371599Y-10609947D02*
X6381123Y-10590899D01*
X6381123Y-10590899D02*
X6390647Y-10581376D01*
X6390647Y-10581376D02*
X6409694Y-10571852D01*
X6600171Y-10571852D02*
X6619218Y-10571852D01*
X6619218Y-10571852D02*
X6638266Y-10581376D01*
X6638266Y-10581376D02*
X6647790Y-10590899D01*
X6647790Y-10590899D02*
X6657314Y-10609947D01*
X6657314Y-10609947D02*
X6666837Y-10648042D01*
X6666837Y-10648042D02*
X6666837Y-10695661D01*
X6666837Y-10695661D02*
X6657314Y-10733757D01*
X6657314Y-10733757D02*
X6647790Y-10752804D01*
X6647790Y-10752804D02*
X6638266Y-10762328D01*
X6638266Y-10762328D02*
X6619218Y-10771852D01*
X6619218Y-10771852D02*
X6600171Y-10771852D01*
X6600171Y-10771852D02*
X6581123Y-10762328D01*
X6581123Y-10762328D02*
X6571599Y-10752804D01*
X6571599Y-10752804D02*
X6562075Y-10733757D01*
X6562075Y-10733757D02*
X6552552Y-10695661D01*
X6552552Y-10695661D02*
X6552552Y-10648042D01*
X6552552Y-10648042D02*
X6562075Y-10609947D01*
X6562075Y-10609947D02*
X6571599Y-10590899D01*
X6571599Y-10590899D02*
X6581123Y-10581376D01*
X6581123Y-10581376D02*
X6600171Y-10571852D01*
X6752552Y-10771852D02*
X6752552Y-10638518D01*
X6752552Y-10657566D02*
X6762075Y-10648042D01*
X6762075Y-10648042D02*
X6781123Y-10638518D01*
X6781123Y-10638518D02*
X6809695Y-10638518D01*
X6809695Y-10638518D02*
X6828742Y-10648042D01*
X6828742Y-10648042D02*
X6838266Y-10667090D01*
X6838266Y-10667090D02*
X6838266Y-10771852D01*
X6838266Y-10667090D02*
X6847790Y-10648042D01*
X6847790Y-10648042D02*
X6866837Y-10638518D01*
X6866837Y-10638518D02*
X6895409Y-10638518D01*
X6895409Y-10638518D02*
X6914456Y-10648042D01*
X6914456Y-10648042D02*
X6923980Y-10667090D01*
X6923980Y-10667090D02*
X6923980Y-10771852D01*
X7019218Y-10771852D02*
X7019218Y-10638518D01*
X7019218Y-10657566D02*
X7028742Y-10648042D01*
X7028742Y-10648042D02*
X7047790Y-10638518D01*
X7047790Y-10638518D02*
X7076361Y-10638518D01*
X7076361Y-10638518D02*
X7095409Y-10648042D01*
X7095409Y-10648042D02*
X7104933Y-10667090D01*
X7104933Y-10667090D02*
X7104933Y-10771852D01*
X7104933Y-10667090D02*
X7114456Y-10648042D01*
X7114456Y-10648042D02*
X7133504Y-10638518D01*
X7133504Y-10638518D02*
X7162075Y-10638518D01*
X7162075Y-10638518D02*
X7181123Y-10648042D01*
X7181123Y-10648042D02*
X7190647Y-10667090D01*
X7190647Y-10667090D02*
X7190647Y-10771852D01*
X7581123Y-10562328D02*
X7409695Y-10819471D01*
X7838266Y-10571852D02*
X7857314Y-10571852D01*
X7857314Y-10571852D02*
X7876361Y-10581376D01*
X7876361Y-10581376D02*
X7885885Y-10590899D01*
X7885885Y-10590899D02*
X7895409Y-10609947D01*
X7895409Y-10609947D02*
X7904933Y-10648042D01*
X7904933Y-10648042D02*
X7904933Y-10695661D01*
X7904933Y-10695661D02*
X7895409Y-10733757D01*
X7895409Y-10733757D02*
X7885885Y-10752804D01*
X7885885Y-10752804D02*
X7876361Y-10762328D01*
X7876361Y-10762328D02*
X7857314Y-10771852D01*
X7857314Y-10771852D02*
X7838266Y-10771852D01*
X7838266Y-10771852D02*
X7819218Y-10762328D01*
X7819218Y-10762328D02*
X7809695Y-10752804D01*
X7809695Y-10752804D02*
X7800171Y-10733757D01*
X7800171Y-10733757D02*
X7790647Y-10695661D01*
X7790647Y-10695661D02*
X7790647Y-10648042D01*
X7790647Y-10648042D02*
X7800171Y-10609947D01*
X7800171Y-10609947D02*
X7809695Y-10590899D01*
X7809695Y-10590899D02*
X7819218Y-10581376D01*
X7819218Y-10581376D02*
X7838266Y-10571852D01*
X7990647Y-10752804D02*
X8000171Y-10762328D01*
X8000171Y-10762328D02*
X7990647Y-10771852D01*
X7990647Y-10771852D02*
X7981123Y-10762328D01*
X7981123Y-10762328D02*
X7990647Y-10752804D01*
X7990647Y-10752804D02*
X7990647Y-10771852D01*
X8123980Y-10571852D02*
X8143028Y-10571852D01*
X8143028Y-10571852D02*
X8162076Y-10581376D01*
X8162076Y-10581376D02*
X8171599Y-10590899D01*
X8171599Y-10590899D02*
X8181123Y-10609947D01*
X8181123Y-10609947D02*
X8190647Y-10648042D01*
X8190647Y-10648042D02*
X8190647Y-10695661D01*
X8190647Y-10695661D02*
X8181123Y-10733757D01*
X8181123Y-10733757D02*
X8171599Y-10752804D01*
X8171599Y-10752804D02*
X8162076Y-10762328D01*
X8162076Y-10762328D02*
X8143028Y-10771852D01*
X8143028Y-10771852D02*
X8123980Y-10771852D01*
X8123980Y-10771852D02*
X8104933Y-10762328D01*
X8104933Y-10762328D02*
X8095409Y-10752804D01*
X8095409Y-10752804D02*
X8085885Y-10733757D01*
X8085885Y-10733757D02*
X8076361Y-10695661D01*
X8076361Y-10695661D02*
X8076361Y-10648042D01*
X8076361Y-10648042D02*
X8085885Y-10609947D01*
X8085885Y-10609947D02*
X8095409Y-10590899D01*
X8095409Y-10590899D02*
X8104933Y-10581376D01*
X8104933Y-10581376D02*
X8123980Y-10571852D01*
X8381123Y-10771852D02*
X8266838Y-10771852D01*
X8323980Y-10771852D02*
X8323980Y-10571852D01*
X8323980Y-10571852D02*
X8304933Y-10600423D01*
X8304933Y-10600423D02*
X8285885Y-10619471D01*
X8285885Y-10619471D02*
X8266838Y-10628995D01*
X8571600Y-10771852D02*
X8457314Y-10771852D01*
X8514457Y-10771852D02*
X8514457Y-10571852D01*
X8514457Y-10571852D02*
X8495409Y-10600423D01*
X8495409Y-10600423D02*
X8476361Y-10619471D01*
X8476361Y-10619471D02*
X8457314Y-10628995D01*
X8685885Y-10657566D02*
X8666838Y-10648042D01*
X8666838Y-10648042D02*
X8657314Y-10638518D01*
X8657314Y-10638518D02*
X8647790Y-10619471D01*
X8647790Y-10619471D02*
X8647790Y-10609947D01*
X8647790Y-10609947D02*
X8657314Y-10590899D01*
X8657314Y-10590899D02*
X8666838Y-10581376D01*
X8666838Y-10581376D02*
X8685885Y-10571852D01*
X8685885Y-10571852D02*
X8723981Y-10571852D01*
X8723981Y-10571852D02*
X8743028Y-10581376D01*
X8743028Y-10581376D02*
X8752552Y-10590899D01*
X8752552Y-10590899D02*
X8762076Y-10609947D01*
X8762076Y-10609947D02*
X8762076Y-10619471D01*
X8762076Y-10619471D02*
X8752552Y-10638518D01*
X8752552Y-10638518D02*
X8743028Y-10648042D01*
X8743028Y-10648042D02*
X8723981Y-10657566D01*
X8723981Y-10657566D02*
X8685885Y-10657566D01*
X8685885Y-10657566D02*
X8666838Y-10667090D01*
X8666838Y-10667090D02*
X8657314Y-10676614D01*
X8657314Y-10676614D02*
X8647790Y-10695661D01*
X8647790Y-10695661D02*
X8647790Y-10733757D01*
X8647790Y-10733757D02*
X8657314Y-10752804D01*
X8657314Y-10752804D02*
X8666838Y-10762328D01*
X8666838Y-10762328D02*
X8685885Y-10771852D01*
X8685885Y-10771852D02*
X8723981Y-10771852D01*
X8723981Y-10771852D02*
X8743028Y-10762328D01*
X8743028Y-10762328D02*
X8752552Y-10752804D01*
X8752552Y-10752804D02*
X8762076Y-10733757D01*
X8762076Y-10733757D02*
X8762076Y-10695661D01*
X8762076Y-10695661D02*
X8752552Y-10676614D01*
X8752552Y-10676614D02*
X8743028Y-10667090D01*
X8743028Y-10667090D02*
X8723981Y-10657566D01*
X8838266Y-10571852D02*
X8838266Y-10609947D01*
X8914457Y-10571852D02*
X8914457Y-10609947D01*
X9209695Y-10848042D02*
X9200171Y-10838518D01*
X9200171Y-10838518D02*
X9181123Y-10809947D01*
X9181123Y-10809947D02*
X9171600Y-10790899D01*
X9171600Y-10790899D02*
X9162076Y-10762328D01*
X9162076Y-10762328D02*
X9152552Y-10714709D01*
X9152552Y-10714709D02*
X9152552Y-10676614D01*
X9152552Y-10676614D02*
X9162076Y-10628995D01*
X9162076Y-10628995D02*
X9171600Y-10600423D01*
X9171600Y-10600423D02*
X9181123Y-10581376D01*
X9181123Y-10581376D02*
X9200171Y-10552804D01*
X9200171Y-10552804D02*
X9209695Y-10543280D01*
X9390647Y-10771852D02*
X9276362Y-10771852D01*
X9333504Y-10771852D02*
X9333504Y-10571852D01*
X9333504Y-10571852D02*
X9314457Y-10600423D01*
X9314457Y-10600423D02*
X9295409Y-10619471D01*
X9295409Y-10619471D02*
X9276362Y-10628995D01*
X9466838Y-10590899D02*
X9476362Y-10581376D01*
X9476362Y-10581376D02*
X9495409Y-10571852D01*
X9495409Y-10571852D02*
X9543028Y-10571852D01*
X9543028Y-10571852D02*
X9562076Y-10581376D01*
X9562076Y-10581376D02*
X9571600Y-10590899D01*
X9571600Y-10590899D02*
X9581123Y-10609947D01*
X9581123Y-10609947D02*
X9581123Y-10628995D01*
X9581123Y-10628995D02*
X9571600Y-10657566D01*
X9571600Y-10657566D02*
X9457314Y-10771852D01*
X9457314Y-10771852D02*
X9581123Y-10771852D01*
X9819219Y-10771852D02*
X9819219Y-10571852D01*
X9904933Y-10771852D02*
X9904933Y-10667090D01*
X9904933Y-10667090D02*
X9895409Y-10648042D01*
X9895409Y-10648042D02*
X9876362Y-10638518D01*
X9876362Y-10638518D02*
X9847790Y-10638518D01*
X9847790Y-10638518D02*
X9828743Y-10648042D01*
X9828743Y-10648042D02*
X9819219Y-10657566D01*
X10028743Y-10771852D02*
X10009695Y-10762328D01*
X10009695Y-10762328D02*
X10000171Y-10752804D01*
X10000171Y-10752804D02*
X9990647Y-10733757D01*
X9990647Y-10733757D02*
X9990647Y-10676614D01*
X9990647Y-10676614D02*
X10000171Y-10657566D01*
X10000171Y-10657566D02*
X10009695Y-10648042D01*
X10009695Y-10648042D02*
X10028743Y-10638518D01*
X10028743Y-10638518D02*
X10057314Y-10638518D01*
X10057314Y-10638518D02*
X10076362Y-10648042D01*
X10076362Y-10648042D02*
X10085885Y-10657566D01*
X10085885Y-10657566D02*
X10095409Y-10676614D01*
X10095409Y-10676614D02*
X10095409Y-10733757D01*
X10095409Y-10733757D02*
X10085885Y-10752804D01*
X10085885Y-10752804D02*
X10076362Y-10762328D01*
X10076362Y-10762328D02*
X10057314Y-10771852D01*
X10057314Y-10771852D02*
X10028743Y-10771852D01*
X10209695Y-10771852D02*
X10190647Y-10762328D01*
X10190647Y-10762328D02*
X10181124Y-10743280D01*
X10181124Y-10743280D02*
X10181124Y-10571852D01*
X10362076Y-10762328D02*
X10343028Y-10771852D01*
X10343028Y-10771852D02*
X10304933Y-10771852D01*
X10304933Y-10771852D02*
X10285885Y-10762328D01*
X10285885Y-10762328D02*
X10276362Y-10743280D01*
X10276362Y-10743280D02*
X10276362Y-10667090D01*
X10276362Y-10667090D02*
X10285885Y-10648042D01*
X10285885Y-10648042D02*
X10304933Y-10638518D01*
X10304933Y-10638518D02*
X10343028Y-10638518D01*
X10343028Y-10638518D02*
X10362076Y-10648042D01*
X10362076Y-10648042D02*
X10371600Y-10667090D01*
X10371600Y-10667090D02*
X10371600Y-10686138D01*
X10371600Y-10686138D02*
X10276362Y-10705185D01*
X10447790Y-10762328D02*
X10466838Y-10771852D01*
X10466838Y-10771852D02*
X10504933Y-10771852D01*
X10504933Y-10771852D02*
X10523981Y-10762328D01*
X10523981Y-10762328D02*
X10533505Y-10743280D01*
X10533505Y-10743280D02*
X10533505Y-10733757D01*
X10533505Y-10733757D02*
X10523981Y-10714709D01*
X10523981Y-10714709D02*
X10504933Y-10705185D01*
X10504933Y-10705185D02*
X10476362Y-10705185D01*
X10476362Y-10705185D02*
X10457314Y-10695661D01*
X10457314Y-10695661D02*
X10447790Y-10676614D01*
X10447790Y-10676614D02*
X10447790Y-10667090D01*
X10447790Y-10667090D02*
X10457314Y-10648042D01*
X10457314Y-10648042D02*
X10476362Y-10638518D01*
X10476362Y-10638518D02*
X10504933Y-10638518D01*
X10504933Y-10638518D02*
X10523981Y-10648042D01*
X10600171Y-10848042D02*
X10609695Y-10838518D01*
X10609695Y-10838518D02*
X10628743Y-10809947D01*
X10628743Y-10809947D02*
X10638266Y-10790899D01*
X10638266Y-10790899D02*
X10647790Y-10762328D01*
X10647790Y-10762328D02*
X10657314Y-10714709D01*
X10657314Y-10714709D02*
X10657314Y-10676614D01*
X10657314Y-10676614D02*
X10647790Y-10628995D01*
X10647790Y-10628995D02*
X10638266Y-10600423D01*
X10638266Y-10600423D02*
X10628743Y-10581376D01*
X10628743Y-10581376D02*
X10609695Y-10552804D01*
X10609695Y-10552804D02*
X10600171Y-10543280D01*
D12*
X5634632Y-10944368D02*
G75*
G02*
X5534632Y-10944368I-50000J0D01*
G01*
X5534632Y-10944368D02*
G75*
G02*
X5634632Y-10944368I50000J0D01*
G01*
D11*
X6000171Y-11035852D02*
X5885885Y-11035852D01*
X5943028Y-11035852D02*
X5943028Y-10835852D01*
X5943028Y-10835852D02*
X5923980Y-10864423D01*
X5923980Y-10864423D02*
X5904933Y-10883471D01*
X5904933Y-10883471D02*
X5885885Y-10892995D01*
X6085885Y-11016804D02*
X6095409Y-11026328D01*
X6095409Y-11026328D02*
X6085885Y-11035852D01*
X6085885Y-11035852D02*
X6076361Y-11026328D01*
X6076361Y-11026328D02*
X6085885Y-11016804D01*
X6085885Y-11016804D02*
X6085885Y-11035852D01*
X6219218Y-10835852D02*
X6238266Y-10835852D01*
X6238266Y-10835852D02*
X6257314Y-10845376D01*
X6257314Y-10845376D02*
X6266837Y-10854899D01*
X6266837Y-10854899D02*
X6276361Y-10873947D01*
X6276361Y-10873947D02*
X6285885Y-10912042D01*
X6285885Y-10912042D02*
X6285885Y-10959661D01*
X6285885Y-10959661D02*
X6276361Y-10997757D01*
X6276361Y-10997757D02*
X6266837Y-11016804D01*
X6266837Y-11016804D02*
X6257314Y-11026328D01*
X6257314Y-11026328D02*
X6238266Y-11035852D01*
X6238266Y-11035852D02*
X6219218Y-11035852D01*
X6219218Y-11035852D02*
X6200171Y-11026328D01*
X6200171Y-11026328D02*
X6190647Y-11016804D01*
X6190647Y-11016804D02*
X6181123Y-10997757D01*
X6181123Y-10997757D02*
X6171599Y-10959661D01*
X6171599Y-10959661D02*
X6171599Y-10912042D01*
X6171599Y-10912042D02*
X6181123Y-10873947D01*
X6181123Y-10873947D02*
X6190647Y-10854899D01*
X6190647Y-10854899D02*
X6200171Y-10845376D01*
X6200171Y-10845376D02*
X6219218Y-10835852D01*
X6409694Y-10835852D02*
X6428742Y-10835852D01*
X6428742Y-10835852D02*
X6447790Y-10845376D01*
X6447790Y-10845376D02*
X6457314Y-10854899D01*
X6457314Y-10854899D02*
X6466837Y-10873947D01*
X6466837Y-10873947D02*
X6476361Y-10912042D01*
X6476361Y-10912042D02*
X6476361Y-10959661D01*
X6476361Y-10959661D02*
X6466837Y-10997757D01*
X6466837Y-10997757D02*
X6457314Y-11016804D01*
X6457314Y-11016804D02*
X6447790Y-11026328D01*
X6447790Y-11026328D02*
X6428742Y-11035852D01*
X6428742Y-11035852D02*
X6409694Y-11035852D01*
X6409694Y-11035852D02*
X6390647Y-11026328D01*
X6390647Y-11026328D02*
X6381123Y-11016804D01*
X6381123Y-11016804D02*
X6371599Y-10997757D01*
X6371599Y-10997757D02*
X6362075Y-10959661D01*
X6362075Y-10959661D02*
X6362075Y-10912042D01*
X6362075Y-10912042D02*
X6371599Y-10873947D01*
X6371599Y-10873947D02*
X6381123Y-10854899D01*
X6381123Y-10854899D02*
X6390647Y-10845376D01*
X6390647Y-10845376D02*
X6409694Y-10835852D01*
X6600171Y-10835852D02*
X6619218Y-10835852D01*
X6619218Y-10835852D02*
X6638266Y-10845376D01*
X6638266Y-10845376D02*
X6647790Y-10854899D01*
X6647790Y-10854899D02*
X6657314Y-10873947D01*
X6657314Y-10873947D02*
X6666837Y-10912042D01*
X6666837Y-10912042D02*
X6666837Y-10959661D01*
X6666837Y-10959661D02*
X6657314Y-10997757D01*
X6657314Y-10997757D02*
X6647790Y-11016804D01*
X6647790Y-11016804D02*
X6638266Y-11026328D01*
X6638266Y-11026328D02*
X6619218Y-11035852D01*
X6619218Y-11035852D02*
X6600171Y-11035852D01*
X6600171Y-11035852D02*
X6581123Y-11026328D01*
X6581123Y-11026328D02*
X6571599Y-11016804D01*
X6571599Y-11016804D02*
X6562075Y-10997757D01*
X6562075Y-10997757D02*
X6552552Y-10959661D01*
X6552552Y-10959661D02*
X6552552Y-10912042D01*
X6552552Y-10912042D02*
X6562075Y-10873947D01*
X6562075Y-10873947D02*
X6571599Y-10854899D01*
X6571599Y-10854899D02*
X6581123Y-10845376D01*
X6581123Y-10845376D02*
X6600171Y-10835852D01*
X6752552Y-11035852D02*
X6752552Y-10902518D01*
X6752552Y-10921566D02*
X6762075Y-10912042D01*
X6762075Y-10912042D02*
X6781123Y-10902518D01*
X6781123Y-10902518D02*
X6809695Y-10902518D01*
X6809695Y-10902518D02*
X6828742Y-10912042D01*
X6828742Y-10912042D02*
X6838266Y-10931090D01*
X6838266Y-10931090D02*
X6838266Y-11035852D01*
X6838266Y-10931090D02*
X6847790Y-10912042D01*
X6847790Y-10912042D02*
X6866837Y-10902518D01*
X6866837Y-10902518D02*
X6895409Y-10902518D01*
X6895409Y-10902518D02*
X6914456Y-10912042D01*
X6914456Y-10912042D02*
X6923980Y-10931090D01*
X6923980Y-10931090D02*
X6923980Y-11035852D01*
X7019218Y-11035852D02*
X7019218Y-10902518D01*
X7019218Y-10921566D02*
X7028742Y-10912042D01*
X7028742Y-10912042D02*
X7047790Y-10902518D01*
X7047790Y-10902518D02*
X7076361Y-10902518D01*
X7076361Y-10902518D02*
X7095409Y-10912042D01*
X7095409Y-10912042D02*
X7104933Y-10931090D01*
X7104933Y-10931090D02*
X7104933Y-11035852D01*
X7104933Y-10931090D02*
X7114456Y-10912042D01*
X7114456Y-10912042D02*
X7133504Y-10902518D01*
X7133504Y-10902518D02*
X7162075Y-10902518D01*
X7162075Y-10902518D02*
X7181123Y-10912042D01*
X7181123Y-10912042D02*
X7190647Y-10931090D01*
X7190647Y-10931090D02*
X7190647Y-11035852D01*
X7581123Y-10826328D02*
X7409695Y-11083471D01*
X7838266Y-10835852D02*
X7857314Y-10835852D01*
X7857314Y-10835852D02*
X7876361Y-10845376D01*
X7876361Y-10845376D02*
X7885885Y-10854899D01*
X7885885Y-10854899D02*
X7895409Y-10873947D01*
X7895409Y-10873947D02*
X7904933Y-10912042D01*
X7904933Y-10912042D02*
X7904933Y-10959661D01*
X7904933Y-10959661D02*
X7895409Y-10997757D01*
X7895409Y-10997757D02*
X7885885Y-11016804D01*
X7885885Y-11016804D02*
X7876361Y-11026328D01*
X7876361Y-11026328D02*
X7857314Y-11035852D01*
X7857314Y-11035852D02*
X7838266Y-11035852D01*
X7838266Y-11035852D02*
X7819218Y-11026328D01*
X7819218Y-11026328D02*
X7809695Y-11016804D01*
X7809695Y-11016804D02*
X7800171Y-10997757D01*
X7800171Y-10997757D02*
X7790647Y-10959661D01*
X7790647Y-10959661D02*
X7790647Y-10912042D01*
X7790647Y-10912042D02*
X7800171Y-10873947D01*
X7800171Y-10873947D02*
X7809695Y-10854899D01*
X7809695Y-10854899D02*
X7819218Y-10845376D01*
X7819218Y-10845376D02*
X7838266Y-10835852D01*
X7990647Y-11016804D02*
X8000171Y-11026328D01*
X8000171Y-11026328D02*
X7990647Y-11035852D01*
X7990647Y-11035852D02*
X7981123Y-11026328D01*
X7981123Y-11026328D02*
X7990647Y-11016804D01*
X7990647Y-11016804D02*
X7990647Y-11035852D01*
X8123980Y-10835852D02*
X8143028Y-10835852D01*
X8143028Y-10835852D02*
X8162076Y-10845376D01*
X8162076Y-10845376D02*
X8171599Y-10854899D01*
X8171599Y-10854899D02*
X8181123Y-10873947D01*
X8181123Y-10873947D02*
X8190647Y-10912042D01*
X8190647Y-10912042D02*
X8190647Y-10959661D01*
X8190647Y-10959661D02*
X8181123Y-10997757D01*
X8181123Y-10997757D02*
X8171599Y-11016804D01*
X8171599Y-11016804D02*
X8162076Y-11026328D01*
X8162076Y-11026328D02*
X8143028Y-11035852D01*
X8143028Y-11035852D02*
X8123980Y-11035852D01*
X8123980Y-11035852D02*
X8104933Y-11026328D01*
X8104933Y-11026328D02*
X8095409Y-11016804D01*
X8095409Y-11016804D02*
X8085885Y-10997757D01*
X8085885Y-10997757D02*
X8076361Y-10959661D01*
X8076361Y-10959661D02*
X8076361Y-10912042D01*
X8076361Y-10912042D02*
X8085885Y-10873947D01*
X8085885Y-10873947D02*
X8095409Y-10854899D01*
X8095409Y-10854899D02*
X8104933Y-10845376D01*
X8104933Y-10845376D02*
X8123980Y-10835852D01*
X8257314Y-10835852D02*
X8381123Y-10835852D01*
X8381123Y-10835852D02*
X8314457Y-10912042D01*
X8314457Y-10912042D02*
X8343028Y-10912042D01*
X8343028Y-10912042D02*
X8362076Y-10921566D01*
X8362076Y-10921566D02*
X8371599Y-10931090D01*
X8371599Y-10931090D02*
X8381123Y-10950138D01*
X8381123Y-10950138D02*
X8381123Y-10997757D01*
X8381123Y-10997757D02*
X8371599Y-11016804D01*
X8371599Y-11016804D02*
X8362076Y-11026328D01*
X8362076Y-11026328D02*
X8343028Y-11035852D01*
X8343028Y-11035852D02*
X8285885Y-11035852D01*
X8285885Y-11035852D02*
X8266838Y-11026328D01*
X8266838Y-11026328D02*
X8257314Y-11016804D01*
X8476361Y-11035852D02*
X8514457Y-11035852D01*
X8514457Y-11035852D02*
X8533504Y-11026328D01*
X8533504Y-11026328D02*
X8543028Y-11016804D01*
X8543028Y-11016804D02*
X8562076Y-10988233D01*
X8562076Y-10988233D02*
X8571600Y-10950138D01*
X8571600Y-10950138D02*
X8571600Y-10873947D01*
X8571600Y-10873947D02*
X8562076Y-10854899D01*
X8562076Y-10854899D02*
X8552552Y-10845376D01*
X8552552Y-10845376D02*
X8533504Y-10835852D01*
X8533504Y-10835852D02*
X8495409Y-10835852D01*
X8495409Y-10835852D02*
X8476361Y-10845376D01*
X8476361Y-10845376D02*
X8466838Y-10854899D01*
X8466838Y-10854899D02*
X8457314Y-10873947D01*
X8457314Y-10873947D02*
X8457314Y-10921566D01*
X8457314Y-10921566D02*
X8466838Y-10940614D01*
X8466838Y-10940614D02*
X8476361Y-10950138D01*
X8476361Y-10950138D02*
X8495409Y-10959661D01*
X8495409Y-10959661D02*
X8533504Y-10959661D01*
X8533504Y-10959661D02*
X8552552Y-10950138D01*
X8552552Y-10950138D02*
X8562076Y-10940614D01*
X8562076Y-10940614D02*
X8571600Y-10921566D01*
X8743028Y-10902518D02*
X8743028Y-11035852D01*
X8695409Y-10826328D02*
X8647790Y-10969185D01*
X8647790Y-10969185D02*
X8771600Y-10969185D01*
X8838266Y-10835852D02*
X8838266Y-10873947D01*
X8914457Y-10835852D02*
X8914457Y-10873947D01*
X9209695Y-11112042D02*
X9200171Y-11102518D01*
X9200171Y-11102518D02*
X9181123Y-11073947D01*
X9181123Y-11073947D02*
X9171600Y-11054899D01*
X9171600Y-11054899D02*
X9162076Y-11026328D01*
X9162076Y-11026328D02*
X9152552Y-10978709D01*
X9152552Y-10978709D02*
X9152552Y-10940614D01*
X9152552Y-10940614D02*
X9162076Y-10892995D01*
X9162076Y-10892995D02*
X9171600Y-10864423D01*
X9171600Y-10864423D02*
X9181123Y-10845376D01*
X9181123Y-10845376D02*
X9200171Y-10816804D01*
X9200171Y-10816804D02*
X9209695Y-10807280D01*
X9390647Y-11035852D02*
X9276362Y-11035852D01*
X9333504Y-11035852D02*
X9333504Y-10835852D01*
X9333504Y-10835852D02*
X9314457Y-10864423D01*
X9314457Y-10864423D02*
X9295409Y-10883471D01*
X9295409Y-10883471D02*
X9276362Y-10892995D01*
X9466838Y-10854899D02*
X9476362Y-10845376D01*
X9476362Y-10845376D02*
X9495409Y-10835852D01*
X9495409Y-10835852D02*
X9543028Y-10835852D01*
X9543028Y-10835852D02*
X9562076Y-10845376D01*
X9562076Y-10845376D02*
X9571600Y-10854899D01*
X9571600Y-10854899D02*
X9581123Y-10873947D01*
X9581123Y-10873947D02*
X9581123Y-10892995D01*
X9581123Y-10892995D02*
X9571600Y-10921566D01*
X9571600Y-10921566D02*
X9457314Y-11035852D01*
X9457314Y-11035852D02*
X9581123Y-11035852D01*
X9819219Y-11035852D02*
X9819219Y-10835852D01*
X9904933Y-11035852D02*
X9904933Y-10931090D01*
X9904933Y-10931090D02*
X9895409Y-10912042D01*
X9895409Y-10912042D02*
X9876362Y-10902518D01*
X9876362Y-10902518D02*
X9847790Y-10902518D01*
X9847790Y-10902518D02*
X9828743Y-10912042D01*
X9828743Y-10912042D02*
X9819219Y-10921566D01*
X10028743Y-11035852D02*
X10009695Y-11026328D01*
X10009695Y-11026328D02*
X10000171Y-11016804D01*
X10000171Y-11016804D02*
X9990647Y-10997757D01*
X9990647Y-10997757D02*
X9990647Y-10940614D01*
X9990647Y-10940614D02*
X10000171Y-10921566D01*
X10000171Y-10921566D02*
X10009695Y-10912042D01*
X10009695Y-10912042D02*
X10028743Y-10902518D01*
X10028743Y-10902518D02*
X10057314Y-10902518D01*
X10057314Y-10902518D02*
X10076362Y-10912042D01*
X10076362Y-10912042D02*
X10085885Y-10921566D01*
X10085885Y-10921566D02*
X10095409Y-10940614D01*
X10095409Y-10940614D02*
X10095409Y-10997757D01*
X10095409Y-10997757D02*
X10085885Y-11016804D01*
X10085885Y-11016804D02*
X10076362Y-11026328D01*
X10076362Y-11026328D02*
X10057314Y-11035852D01*
X10057314Y-11035852D02*
X10028743Y-11035852D01*
X10209695Y-11035852D02*
X10190647Y-11026328D01*
X10190647Y-11026328D02*
X10181124Y-11007280D01*
X10181124Y-11007280D02*
X10181124Y-10835852D01*
X10362076Y-11026328D02*
X10343028Y-11035852D01*
X10343028Y-11035852D02*
X10304933Y-11035852D01*
X10304933Y-11035852D02*
X10285885Y-11026328D01*
X10285885Y-11026328D02*
X10276362Y-11007280D01*
X10276362Y-11007280D02*
X10276362Y-10931090D01*
X10276362Y-10931090D02*
X10285885Y-10912042D01*
X10285885Y-10912042D02*
X10304933Y-10902518D01*
X10304933Y-10902518D02*
X10343028Y-10902518D01*
X10343028Y-10902518D02*
X10362076Y-10912042D01*
X10362076Y-10912042D02*
X10371600Y-10931090D01*
X10371600Y-10931090D02*
X10371600Y-10950138D01*
X10371600Y-10950138D02*
X10276362Y-10969185D01*
X10447790Y-11026328D02*
X10466838Y-11035852D01*
X10466838Y-11035852D02*
X10504933Y-11035852D01*
X10504933Y-11035852D02*
X10523981Y-11026328D01*
X10523981Y-11026328D02*
X10533505Y-11007280D01*
X10533505Y-11007280D02*
X10533505Y-10997757D01*
X10533505Y-10997757D02*
X10523981Y-10978709D01*
X10523981Y-10978709D02*
X10504933Y-10969185D01*
X10504933Y-10969185D02*
X10476362Y-10969185D01*
X10476362Y-10969185D02*
X10457314Y-10959661D01*
X10457314Y-10959661D02*
X10447790Y-10940614D01*
X10447790Y-10940614D02*
X10447790Y-10931090D01*
X10447790Y-10931090D02*
X10457314Y-10912042D01*
X10457314Y-10912042D02*
X10476362Y-10902518D01*
X10476362Y-10902518D02*
X10504933Y-10902518D01*
X10504933Y-10902518D02*
X10523981Y-10912042D01*
X10600171Y-11112042D02*
X10609695Y-11102518D01*
X10609695Y-11102518D02*
X10628743Y-11073947D01*
X10628743Y-11073947D02*
X10638266Y-11054899D01*
X10638266Y-11054899D02*
X10647790Y-11026328D01*
X10647790Y-11026328D02*
X10657314Y-10978709D01*
X10657314Y-10978709D02*
X10657314Y-10940614D01*
X10657314Y-10940614D02*
X10647790Y-10892995D01*
X10647790Y-10892995D02*
X10638266Y-10864423D01*
X10638266Y-10864423D02*
X10628743Y-10845376D01*
X10628743Y-10845376D02*
X10609695Y-10816804D01*
X10609695Y-10816804D02*
X10600171Y-10807280D01*
D13*
X5579632Y-11153368D02*
X5579632Y-11263368D01*
X5524632Y-11208368D02*
X5634632Y-11208368D01*
D11*
X6000171Y-11299852D02*
X5885885Y-11299852D01*
X5943028Y-11299852D02*
X5943028Y-11099852D01*
X5943028Y-11099852D02*
X5923980Y-11128423D01*
X5923980Y-11128423D02*
X5904933Y-11147471D01*
X5904933Y-11147471D02*
X5885885Y-11156995D01*
X6085885Y-11280804D02*
X6095409Y-11290328D01*
X6095409Y-11290328D02*
X6085885Y-11299852D01*
X6085885Y-11299852D02*
X6076361Y-11290328D01*
X6076361Y-11290328D02*
X6085885Y-11280804D01*
X6085885Y-11280804D02*
X6085885Y-11299852D01*
X6285885Y-11299852D02*
X6171599Y-11299852D01*
X6228742Y-11299852D02*
X6228742Y-11099852D01*
X6228742Y-11099852D02*
X6209694Y-11128423D01*
X6209694Y-11128423D02*
X6190647Y-11147471D01*
X6190647Y-11147471D02*
X6171599Y-11156995D01*
X6409694Y-11099852D02*
X6428742Y-11099852D01*
X6428742Y-11099852D02*
X6447790Y-11109376D01*
X6447790Y-11109376D02*
X6457314Y-11118899D01*
X6457314Y-11118899D02*
X6466837Y-11137947D01*
X6466837Y-11137947D02*
X6476361Y-11176042D01*
X6476361Y-11176042D02*
X6476361Y-11223661D01*
X6476361Y-11223661D02*
X6466837Y-11261756D01*
X6466837Y-11261756D02*
X6457314Y-11280804D01*
X6457314Y-11280804D02*
X6447790Y-11290328D01*
X6447790Y-11290328D02*
X6428742Y-11299852D01*
X6428742Y-11299852D02*
X6409694Y-11299852D01*
X6409694Y-11299852D02*
X6390647Y-11290328D01*
X6390647Y-11290328D02*
X6381123Y-11280804D01*
X6381123Y-11280804D02*
X6371599Y-11261756D01*
X6371599Y-11261756D02*
X6362075Y-11223661D01*
X6362075Y-11223661D02*
X6362075Y-11176042D01*
X6362075Y-11176042D02*
X6371599Y-11137947D01*
X6371599Y-11137947D02*
X6381123Y-11118899D01*
X6381123Y-11118899D02*
X6390647Y-11109376D01*
X6390647Y-11109376D02*
X6409694Y-11099852D01*
X6600171Y-11099852D02*
X6619218Y-11099852D01*
X6619218Y-11099852D02*
X6638266Y-11109376D01*
X6638266Y-11109376D02*
X6647790Y-11118899D01*
X6647790Y-11118899D02*
X6657314Y-11137947D01*
X6657314Y-11137947D02*
X6666837Y-11176042D01*
X6666837Y-11176042D02*
X6666837Y-11223661D01*
X6666837Y-11223661D02*
X6657314Y-11261756D01*
X6657314Y-11261756D02*
X6647790Y-11280804D01*
X6647790Y-11280804D02*
X6638266Y-11290328D01*
X6638266Y-11290328D02*
X6619218Y-11299852D01*
X6619218Y-11299852D02*
X6600171Y-11299852D01*
X6600171Y-11299852D02*
X6581123Y-11290328D01*
X6581123Y-11290328D02*
X6571599Y-11280804D01*
X6571599Y-11280804D02*
X6562075Y-11261756D01*
X6562075Y-11261756D02*
X6552552Y-11223661D01*
X6552552Y-11223661D02*
X6552552Y-11176042D01*
X6552552Y-11176042D02*
X6562075Y-11137947D01*
X6562075Y-11137947D02*
X6571599Y-11118899D01*
X6571599Y-11118899D02*
X6581123Y-11109376D01*
X6581123Y-11109376D02*
X6600171Y-11099852D01*
X6752552Y-11299852D02*
X6752552Y-11166518D01*
X6752552Y-11185566D02*
X6762075Y-11176042D01*
X6762075Y-11176042D02*
X6781123Y-11166518D01*
X6781123Y-11166518D02*
X6809695Y-11166518D01*
X6809695Y-11166518D02*
X6828742Y-11176042D01*
X6828742Y-11176042D02*
X6838266Y-11195090D01*
X6838266Y-11195090D02*
X6838266Y-11299852D01*
X6838266Y-11195090D02*
X6847790Y-11176042D01*
X6847790Y-11176042D02*
X6866837Y-11166518D01*
X6866837Y-11166518D02*
X6895409Y-11166518D01*
X6895409Y-11166518D02*
X6914456Y-11176042D01*
X6914456Y-11176042D02*
X6923980Y-11195090D01*
X6923980Y-11195090D02*
X6923980Y-11299852D01*
X7019218Y-11299852D02*
X7019218Y-11166518D01*
X7019218Y-11185566D02*
X7028742Y-11176042D01*
X7028742Y-11176042D02*
X7047790Y-11166518D01*
X7047790Y-11166518D02*
X7076361Y-11166518D01*
X7076361Y-11166518D02*
X7095409Y-11176042D01*
X7095409Y-11176042D02*
X7104933Y-11195090D01*
X7104933Y-11195090D02*
X7104933Y-11299852D01*
X7104933Y-11195090D02*
X7114456Y-11176042D01*
X7114456Y-11176042D02*
X7133504Y-11166518D01*
X7133504Y-11166518D02*
X7162075Y-11166518D01*
X7162075Y-11166518D02*
X7181123Y-11176042D01*
X7181123Y-11176042D02*
X7190647Y-11195090D01*
X7190647Y-11195090D02*
X7190647Y-11299852D01*
X7581123Y-11090328D02*
X7409695Y-11347471D01*
X7838266Y-11099852D02*
X7857314Y-11099852D01*
X7857314Y-11099852D02*
X7876361Y-11109376D01*
X7876361Y-11109376D02*
X7885885Y-11118899D01*
X7885885Y-11118899D02*
X7895409Y-11137947D01*
X7895409Y-11137947D02*
X7904933Y-11176042D01*
X7904933Y-11176042D02*
X7904933Y-11223661D01*
X7904933Y-11223661D02*
X7895409Y-11261756D01*
X7895409Y-11261756D02*
X7885885Y-11280804D01*
X7885885Y-11280804D02*
X7876361Y-11290328D01*
X7876361Y-11290328D02*
X7857314Y-11299852D01*
X7857314Y-11299852D02*
X7838266Y-11299852D01*
X7838266Y-11299852D02*
X7819218Y-11290328D01*
X7819218Y-11290328D02*
X7809695Y-11280804D01*
X7809695Y-11280804D02*
X7800171Y-11261756D01*
X7800171Y-11261756D02*
X7790647Y-11223661D01*
X7790647Y-11223661D02*
X7790647Y-11176042D01*
X7790647Y-11176042D02*
X7800171Y-11137947D01*
X7800171Y-11137947D02*
X7809695Y-11118899D01*
X7809695Y-11118899D02*
X7819218Y-11109376D01*
X7819218Y-11109376D02*
X7838266Y-11099852D01*
X7990647Y-11280804D02*
X8000171Y-11290328D01*
X8000171Y-11290328D02*
X7990647Y-11299852D01*
X7990647Y-11299852D02*
X7981123Y-11290328D01*
X7981123Y-11290328D02*
X7990647Y-11280804D01*
X7990647Y-11280804D02*
X7990647Y-11299852D01*
X8123980Y-11099852D02*
X8143028Y-11099852D01*
X8143028Y-11099852D02*
X8162076Y-11109376D01*
X8162076Y-11109376D02*
X8171599Y-11118899D01*
X8171599Y-11118899D02*
X8181123Y-11137947D01*
X8181123Y-11137947D02*
X8190647Y-11176042D01*
X8190647Y-11176042D02*
X8190647Y-11223661D01*
X8190647Y-11223661D02*
X8181123Y-11261756D01*
X8181123Y-11261756D02*
X8171599Y-11280804D01*
X8171599Y-11280804D02*
X8162076Y-11290328D01*
X8162076Y-11290328D02*
X8143028Y-11299852D01*
X8143028Y-11299852D02*
X8123980Y-11299852D01*
X8123980Y-11299852D02*
X8104933Y-11290328D01*
X8104933Y-11290328D02*
X8095409Y-11280804D01*
X8095409Y-11280804D02*
X8085885Y-11261756D01*
X8085885Y-11261756D02*
X8076361Y-11223661D01*
X8076361Y-11223661D02*
X8076361Y-11176042D01*
X8076361Y-11176042D02*
X8085885Y-11137947D01*
X8085885Y-11137947D02*
X8095409Y-11118899D01*
X8095409Y-11118899D02*
X8104933Y-11109376D01*
X8104933Y-11109376D02*
X8123980Y-11099852D01*
X8362076Y-11166518D02*
X8362076Y-11299852D01*
X8314457Y-11090328D02*
X8266838Y-11233185D01*
X8266838Y-11233185D02*
X8390647Y-11233185D01*
X8447790Y-11099852D02*
X8571600Y-11099852D01*
X8571600Y-11099852D02*
X8504933Y-11176042D01*
X8504933Y-11176042D02*
X8533504Y-11176042D01*
X8533504Y-11176042D02*
X8552552Y-11185566D01*
X8552552Y-11185566D02*
X8562076Y-11195090D01*
X8562076Y-11195090D02*
X8571600Y-11214137D01*
X8571600Y-11214137D02*
X8571600Y-11261756D01*
X8571600Y-11261756D02*
X8562076Y-11280804D01*
X8562076Y-11280804D02*
X8552552Y-11290328D01*
X8552552Y-11290328D02*
X8533504Y-11299852D01*
X8533504Y-11299852D02*
X8476361Y-11299852D01*
X8476361Y-11299852D02*
X8457314Y-11290328D01*
X8457314Y-11290328D02*
X8447790Y-11280804D01*
X8638266Y-11099852D02*
X8762076Y-11099852D01*
X8762076Y-11099852D02*
X8695409Y-11176042D01*
X8695409Y-11176042D02*
X8723981Y-11176042D01*
X8723981Y-11176042D02*
X8743028Y-11185566D01*
X8743028Y-11185566D02*
X8752552Y-11195090D01*
X8752552Y-11195090D02*
X8762076Y-11214137D01*
X8762076Y-11214137D02*
X8762076Y-11261756D01*
X8762076Y-11261756D02*
X8752552Y-11280804D01*
X8752552Y-11280804D02*
X8743028Y-11290328D01*
X8743028Y-11290328D02*
X8723981Y-11299852D01*
X8723981Y-11299852D02*
X8666838Y-11299852D01*
X8666838Y-11299852D02*
X8647790Y-11290328D01*
X8647790Y-11290328D02*
X8638266Y-11280804D01*
X8838266Y-11099852D02*
X8838266Y-11137947D01*
X8914457Y-11099852D02*
X8914457Y-11137947D01*
X9209695Y-11376042D02*
X9200171Y-11366518D01*
X9200171Y-11366518D02*
X9181123Y-11337947D01*
X9181123Y-11337947D02*
X9171600Y-11318899D01*
X9171600Y-11318899D02*
X9162076Y-11290328D01*
X9162076Y-11290328D02*
X9152552Y-11242709D01*
X9152552Y-11242709D02*
X9152552Y-11204614D01*
X9152552Y-11204614D02*
X9162076Y-11156995D01*
X9162076Y-11156995D02*
X9171600Y-11128423D01*
X9171600Y-11128423D02*
X9181123Y-11109376D01*
X9181123Y-11109376D02*
X9200171Y-11080804D01*
X9200171Y-11080804D02*
X9209695Y-11071280D01*
X9266838Y-11099852D02*
X9390647Y-11099852D01*
X9390647Y-11099852D02*
X9323981Y-11176042D01*
X9323981Y-11176042D02*
X9352552Y-11176042D01*
X9352552Y-11176042D02*
X9371600Y-11185566D01*
X9371600Y-11185566D02*
X9381123Y-11195090D01*
X9381123Y-11195090D02*
X9390647Y-11214137D01*
X9390647Y-11214137D02*
X9390647Y-11261756D01*
X9390647Y-11261756D02*
X9381123Y-11280804D01*
X9381123Y-11280804D02*
X9371600Y-11290328D01*
X9371600Y-11290328D02*
X9352552Y-11299852D01*
X9352552Y-11299852D02*
X9295409Y-11299852D01*
X9295409Y-11299852D02*
X9276362Y-11290328D01*
X9276362Y-11290328D02*
X9266838Y-11280804D01*
X9514457Y-11099852D02*
X9533504Y-11099852D01*
X9533504Y-11099852D02*
X9552552Y-11109376D01*
X9552552Y-11109376D02*
X9562076Y-11118899D01*
X9562076Y-11118899D02*
X9571600Y-11137947D01*
X9571600Y-11137947D02*
X9581123Y-11176042D01*
X9581123Y-11176042D02*
X9581123Y-11223661D01*
X9581123Y-11223661D02*
X9571600Y-11261756D01*
X9571600Y-11261756D02*
X9562076Y-11280804D01*
X9562076Y-11280804D02*
X9552552Y-11290328D01*
X9552552Y-11290328D02*
X9533504Y-11299852D01*
X9533504Y-11299852D02*
X9514457Y-11299852D01*
X9514457Y-11299852D02*
X9495409Y-11290328D01*
X9495409Y-11290328D02*
X9485885Y-11280804D01*
X9485885Y-11280804D02*
X9476362Y-11261756D01*
X9476362Y-11261756D02*
X9466838Y-11223661D01*
X9466838Y-11223661D02*
X9466838Y-11176042D01*
X9466838Y-11176042D02*
X9476362Y-11137947D01*
X9476362Y-11137947D02*
X9485885Y-11118899D01*
X9485885Y-11118899D02*
X9495409Y-11109376D01*
X9495409Y-11109376D02*
X9514457Y-11099852D01*
X9819219Y-11299852D02*
X9819219Y-11099852D01*
X9904933Y-11299852D02*
X9904933Y-11195090D01*
X9904933Y-11195090D02*
X9895409Y-11176042D01*
X9895409Y-11176042D02*
X9876362Y-11166518D01*
X9876362Y-11166518D02*
X9847790Y-11166518D01*
X9847790Y-11166518D02*
X9828743Y-11176042D01*
X9828743Y-11176042D02*
X9819219Y-11185566D01*
X10028743Y-11299852D02*
X10009695Y-11290328D01*
X10009695Y-11290328D02*
X10000171Y-11280804D01*
X10000171Y-11280804D02*
X9990647Y-11261756D01*
X9990647Y-11261756D02*
X9990647Y-11204614D01*
X9990647Y-11204614D02*
X10000171Y-11185566D01*
X10000171Y-11185566D02*
X10009695Y-11176042D01*
X10009695Y-11176042D02*
X10028743Y-11166518D01*
X10028743Y-11166518D02*
X10057314Y-11166518D01*
X10057314Y-11166518D02*
X10076362Y-11176042D01*
X10076362Y-11176042D02*
X10085885Y-11185566D01*
X10085885Y-11185566D02*
X10095409Y-11204614D01*
X10095409Y-11204614D02*
X10095409Y-11261756D01*
X10095409Y-11261756D02*
X10085885Y-11280804D01*
X10085885Y-11280804D02*
X10076362Y-11290328D01*
X10076362Y-11290328D02*
X10057314Y-11299852D01*
X10057314Y-11299852D02*
X10028743Y-11299852D01*
X10209695Y-11299852D02*
X10190647Y-11290328D01*
X10190647Y-11290328D02*
X10181124Y-11271280D01*
X10181124Y-11271280D02*
X10181124Y-11099852D01*
X10362076Y-11290328D02*
X10343028Y-11299852D01*
X10343028Y-11299852D02*
X10304933Y-11299852D01*
X10304933Y-11299852D02*
X10285885Y-11290328D01*
X10285885Y-11290328D02*
X10276362Y-11271280D01*
X10276362Y-11271280D02*
X10276362Y-11195090D01*
X10276362Y-11195090D02*
X10285885Y-11176042D01*
X10285885Y-11176042D02*
X10304933Y-11166518D01*
X10304933Y-11166518D02*
X10343028Y-11166518D01*
X10343028Y-11166518D02*
X10362076Y-11176042D01*
X10362076Y-11176042D02*
X10371600Y-11195090D01*
X10371600Y-11195090D02*
X10371600Y-11214137D01*
X10371600Y-11214137D02*
X10276362Y-11233185D01*
X10447790Y-11290328D02*
X10466838Y-11299852D01*
X10466838Y-11299852D02*
X10504933Y-11299852D01*
X10504933Y-11299852D02*
X10523981Y-11290328D01*
X10523981Y-11290328D02*
X10533505Y-11271280D01*
X10533505Y-11271280D02*
X10533505Y-11261756D01*
X10533505Y-11261756D02*
X10523981Y-11242709D01*
X10523981Y-11242709D02*
X10504933Y-11233185D01*
X10504933Y-11233185D02*
X10476362Y-11233185D01*
X10476362Y-11233185D02*
X10457314Y-11223661D01*
X10457314Y-11223661D02*
X10447790Y-11204614D01*
X10447790Y-11204614D02*
X10447790Y-11195090D01*
X10447790Y-11195090D02*
X10457314Y-11176042D01*
X10457314Y-11176042D02*
X10476362Y-11166518D01*
X10476362Y-11166518D02*
X10504933Y-11166518D01*
X10504933Y-11166518D02*
X10523981Y-11176042D01*
X10600171Y-11376042D02*
X10609695Y-11366518D01*
X10609695Y-11366518D02*
X10628743Y-11337947D01*
X10628743Y-11337947D02*
X10638266Y-11318899D01*
X10638266Y-11318899D02*
X10647790Y-11290328D01*
X10647790Y-11290328D02*
X10657314Y-11242709D01*
X10657314Y-11242709D02*
X10657314Y-11204614D01*
X10657314Y-11204614D02*
X10647790Y-11156995D01*
X10647790Y-11156995D02*
X10638266Y-11128423D01*
X10638266Y-11128423D02*
X10628743Y-11109376D01*
X10628743Y-11109376D02*
X10609695Y-11080804D01*
X10609695Y-11080804D02*
X10600171Y-11071280D01*
D14*
X5612665Y-11525401D02*
X5612665Y-11419334D01*
X5506599Y-11419334D01*
X5506599Y-11525401D01*
X5612665Y-11525401D01*
D11*
X6000171Y-11563852D02*
X5885885Y-11563852D01*
X5943028Y-11563852D02*
X5943028Y-11363852D01*
X5943028Y-11363852D02*
X5923980Y-11392423D01*
X5923980Y-11392423D02*
X5904933Y-11411471D01*
X5904933Y-11411471D02*
X5885885Y-11420995D01*
X6085885Y-11544804D02*
X6095409Y-11554328D01*
X6095409Y-11554328D02*
X6085885Y-11563852D01*
X6085885Y-11563852D02*
X6076361Y-11554328D01*
X6076361Y-11554328D02*
X6085885Y-11544804D01*
X6085885Y-11544804D02*
X6085885Y-11563852D01*
X6276361Y-11363852D02*
X6181123Y-11363852D01*
X6181123Y-11363852D02*
X6171599Y-11459090D01*
X6171599Y-11459090D02*
X6181123Y-11449566D01*
X6181123Y-11449566D02*
X6200171Y-11440042D01*
X6200171Y-11440042D02*
X6247790Y-11440042D01*
X6247790Y-11440042D02*
X6266837Y-11449566D01*
X6266837Y-11449566D02*
X6276361Y-11459090D01*
X6276361Y-11459090D02*
X6285885Y-11478137D01*
X6285885Y-11478137D02*
X6285885Y-11525756D01*
X6285885Y-11525756D02*
X6276361Y-11544804D01*
X6276361Y-11544804D02*
X6266837Y-11554328D01*
X6266837Y-11554328D02*
X6247790Y-11563852D01*
X6247790Y-11563852D02*
X6200171Y-11563852D01*
X6200171Y-11563852D02*
X6181123Y-11554328D01*
X6181123Y-11554328D02*
X6171599Y-11544804D01*
X6409694Y-11363852D02*
X6428742Y-11363852D01*
X6428742Y-11363852D02*
X6447790Y-11373376D01*
X6447790Y-11373376D02*
X6457314Y-11382899D01*
X6457314Y-11382899D02*
X6466837Y-11401947D01*
X6466837Y-11401947D02*
X6476361Y-11440042D01*
X6476361Y-11440042D02*
X6476361Y-11487661D01*
X6476361Y-11487661D02*
X6466837Y-11525756D01*
X6466837Y-11525756D02*
X6457314Y-11544804D01*
X6457314Y-11544804D02*
X6447790Y-11554328D01*
X6447790Y-11554328D02*
X6428742Y-11563852D01*
X6428742Y-11563852D02*
X6409694Y-11563852D01*
X6409694Y-11563852D02*
X6390647Y-11554328D01*
X6390647Y-11554328D02*
X6381123Y-11544804D01*
X6381123Y-11544804D02*
X6371599Y-11525756D01*
X6371599Y-11525756D02*
X6362075Y-11487661D01*
X6362075Y-11487661D02*
X6362075Y-11440042D01*
X6362075Y-11440042D02*
X6371599Y-11401947D01*
X6371599Y-11401947D02*
X6381123Y-11382899D01*
X6381123Y-11382899D02*
X6390647Y-11373376D01*
X6390647Y-11373376D02*
X6409694Y-11363852D01*
X6600171Y-11363852D02*
X6619218Y-11363852D01*
X6619218Y-11363852D02*
X6638266Y-11373376D01*
X6638266Y-11373376D02*
X6647790Y-11382899D01*
X6647790Y-11382899D02*
X6657314Y-11401947D01*
X6657314Y-11401947D02*
X6666837Y-11440042D01*
X6666837Y-11440042D02*
X6666837Y-11487661D01*
X6666837Y-11487661D02*
X6657314Y-11525756D01*
X6657314Y-11525756D02*
X6647790Y-11544804D01*
X6647790Y-11544804D02*
X6638266Y-11554328D01*
X6638266Y-11554328D02*
X6619218Y-11563852D01*
X6619218Y-11563852D02*
X6600171Y-11563852D01*
X6600171Y-11563852D02*
X6581123Y-11554328D01*
X6581123Y-11554328D02*
X6571599Y-11544804D01*
X6571599Y-11544804D02*
X6562075Y-11525756D01*
X6562075Y-11525756D02*
X6552552Y-11487661D01*
X6552552Y-11487661D02*
X6552552Y-11440042D01*
X6552552Y-11440042D02*
X6562075Y-11401947D01*
X6562075Y-11401947D02*
X6571599Y-11382899D01*
X6571599Y-11382899D02*
X6581123Y-11373376D01*
X6581123Y-11373376D02*
X6600171Y-11363852D01*
X6752552Y-11563852D02*
X6752552Y-11430518D01*
X6752552Y-11449566D02*
X6762075Y-11440042D01*
X6762075Y-11440042D02*
X6781123Y-11430518D01*
X6781123Y-11430518D02*
X6809695Y-11430518D01*
X6809695Y-11430518D02*
X6828742Y-11440042D01*
X6828742Y-11440042D02*
X6838266Y-11459090D01*
X6838266Y-11459090D02*
X6838266Y-11563852D01*
X6838266Y-11459090D02*
X6847790Y-11440042D01*
X6847790Y-11440042D02*
X6866837Y-11430518D01*
X6866837Y-11430518D02*
X6895409Y-11430518D01*
X6895409Y-11430518D02*
X6914456Y-11440042D01*
X6914456Y-11440042D02*
X6923980Y-11459090D01*
X6923980Y-11459090D02*
X6923980Y-11563852D01*
X7019218Y-11563852D02*
X7019218Y-11430518D01*
X7019218Y-11449566D02*
X7028742Y-11440042D01*
X7028742Y-11440042D02*
X7047790Y-11430518D01*
X7047790Y-11430518D02*
X7076361Y-11430518D01*
X7076361Y-11430518D02*
X7095409Y-11440042D01*
X7095409Y-11440042D02*
X7104933Y-11459090D01*
X7104933Y-11459090D02*
X7104933Y-11563852D01*
X7104933Y-11459090D02*
X7114456Y-11440042D01*
X7114456Y-11440042D02*
X7133504Y-11430518D01*
X7133504Y-11430518D02*
X7162075Y-11430518D01*
X7162075Y-11430518D02*
X7181123Y-11440042D01*
X7181123Y-11440042D02*
X7190647Y-11459090D01*
X7190647Y-11459090D02*
X7190647Y-11563852D01*
X7581123Y-11354328D02*
X7409695Y-11611471D01*
X7838266Y-11363852D02*
X7857314Y-11363852D01*
X7857314Y-11363852D02*
X7876361Y-11373376D01*
X7876361Y-11373376D02*
X7885885Y-11382899D01*
X7885885Y-11382899D02*
X7895409Y-11401947D01*
X7895409Y-11401947D02*
X7904933Y-11440042D01*
X7904933Y-11440042D02*
X7904933Y-11487661D01*
X7904933Y-11487661D02*
X7895409Y-11525756D01*
X7895409Y-11525756D02*
X7885885Y-11544804D01*
X7885885Y-11544804D02*
X7876361Y-11554328D01*
X7876361Y-11554328D02*
X7857314Y-11563852D01*
X7857314Y-11563852D02*
X7838266Y-11563852D01*
X7838266Y-11563852D02*
X7819218Y-11554328D01*
X7819218Y-11554328D02*
X7809695Y-11544804D01*
X7809695Y-11544804D02*
X7800171Y-11525756D01*
X7800171Y-11525756D02*
X7790647Y-11487661D01*
X7790647Y-11487661D02*
X7790647Y-11440042D01*
X7790647Y-11440042D02*
X7800171Y-11401947D01*
X7800171Y-11401947D02*
X7809695Y-11382899D01*
X7809695Y-11382899D02*
X7819218Y-11373376D01*
X7819218Y-11373376D02*
X7838266Y-11363852D01*
X7990647Y-11544804D02*
X8000171Y-11554328D01*
X8000171Y-11554328D02*
X7990647Y-11563852D01*
X7990647Y-11563852D02*
X7981123Y-11554328D01*
X7981123Y-11554328D02*
X7990647Y-11544804D01*
X7990647Y-11544804D02*
X7990647Y-11563852D01*
X8123980Y-11363852D02*
X8143028Y-11363852D01*
X8143028Y-11363852D02*
X8162076Y-11373376D01*
X8162076Y-11373376D02*
X8171599Y-11382899D01*
X8171599Y-11382899D02*
X8181123Y-11401947D01*
X8181123Y-11401947D02*
X8190647Y-11440042D01*
X8190647Y-11440042D02*
X8190647Y-11487661D01*
X8190647Y-11487661D02*
X8181123Y-11525756D01*
X8181123Y-11525756D02*
X8171599Y-11544804D01*
X8171599Y-11544804D02*
X8162076Y-11554328D01*
X8162076Y-11554328D02*
X8143028Y-11563852D01*
X8143028Y-11563852D02*
X8123980Y-11563852D01*
X8123980Y-11563852D02*
X8104933Y-11554328D01*
X8104933Y-11554328D02*
X8095409Y-11544804D01*
X8095409Y-11544804D02*
X8085885Y-11525756D01*
X8085885Y-11525756D02*
X8076361Y-11487661D01*
X8076361Y-11487661D02*
X8076361Y-11440042D01*
X8076361Y-11440042D02*
X8085885Y-11401947D01*
X8085885Y-11401947D02*
X8095409Y-11382899D01*
X8095409Y-11382899D02*
X8104933Y-11373376D01*
X8104933Y-11373376D02*
X8123980Y-11363852D01*
X8371599Y-11363852D02*
X8276361Y-11363852D01*
X8276361Y-11363852D02*
X8266838Y-11459090D01*
X8266838Y-11459090D02*
X8276361Y-11449566D01*
X8276361Y-11449566D02*
X8295409Y-11440042D01*
X8295409Y-11440042D02*
X8343028Y-11440042D01*
X8343028Y-11440042D02*
X8362076Y-11449566D01*
X8362076Y-11449566D02*
X8371599Y-11459090D01*
X8371599Y-11459090D02*
X8381123Y-11478137D01*
X8381123Y-11478137D02*
X8381123Y-11525756D01*
X8381123Y-11525756D02*
X8371599Y-11544804D01*
X8371599Y-11544804D02*
X8362076Y-11554328D01*
X8362076Y-11554328D02*
X8343028Y-11563852D01*
X8343028Y-11563852D02*
X8295409Y-11563852D01*
X8295409Y-11563852D02*
X8276361Y-11554328D01*
X8276361Y-11554328D02*
X8266838Y-11544804D01*
X8476361Y-11563852D02*
X8514457Y-11563852D01*
X8514457Y-11563852D02*
X8533504Y-11554328D01*
X8533504Y-11554328D02*
X8543028Y-11544804D01*
X8543028Y-11544804D02*
X8562076Y-11516233D01*
X8562076Y-11516233D02*
X8571600Y-11478137D01*
X8571600Y-11478137D02*
X8571600Y-11401947D01*
X8571600Y-11401947D02*
X8562076Y-11382899D01*
X8562076Y-11382899D02*
X8552552Y-11373376D01*
X8552552Y-11373376D02*
X8533504Y-11363852D01*
X8533504Y-11363852D02*
X8495409Y-11363852D01*
X8495409Y-11363852D02*
X8476361Y-11373376D01*
X8476361Y-11373376D02*
X8466838Y-11382899D01*
X8466838Y-11382899D02*
X8457314Y-11401947D01*
X8457314Y-11401947D02*
X8457314Y-11449566D01*
X8457314Y-11449566D02*
X8466838Y-11468614D01*
X8466838Y-11468614D02*
X8476361Y-11478137D01*
X8476361Y-11478137D02*
X8495409Y-11487661D01*
X8495409Y-11487661D02*
X8533504Y-11487661D01*
X8533504Y-11487661D02*
X8552552Y-11478137D01*
X8552552Y-11478137D02*
X8562076Y-11468614D01*
X8562076Y-11468614D02*
X8571600Y-11449566D01*
X8762076Y-11563852D02*
X8647790Y-11563852D01*
X8704933Y-11563852D02*
X8704933Y-11363852D01*
X8704933Y-11363852D02*
X8685885Y-11392423D01*
X8685885Y-11392423D02*
X8666838Y-11411471D01*
X8666838Y-11411471D02*
X8647790Y-11420995D01*
X8838266Y-11363852D02*
X8838266Y-11401947D01*
X8914457Y-11363852D02*
X8914457Y-11401947D01*
X9209695Y-11640042D02*
X9200171Y-11630518D01*
X9200171Y-11630518D02*
X9181123Y-11601947D01*
X9181123Y-11601947D02*
X9171600Y-11582899D01*
X9171600Y-11582899D02*
X9162076Y-11554328D01*
X9162076Y-11554328D02*
X9152552Y-11506709D01*
X9152552Y-11506709D02*
X9152552Y-11468614D01*
X9152552Y-11468614D02*
X9162076Y-11420995D01*
X9162076Y-11420995D02*
X9171600Y-11392423D01*
X9171600Y-11392423D02*
X9181123Y-11373376D01*
X9181123Y-11373376D02*
X9200171Y-11344804D01*
X9200171Y-11344804D02*
X9209695Y-11335280D01*
X9371600Y-11430518D02*
X9371600Y-11563852D01*
X9323981Y-11354328D02*
X9276362Y-11497185D01*
X9276362Y-11497185D02*
X9400171Y-11497185D01*
X9628743Y-11563852D02*
X9628743Y-11363852D01*
X9714457Y-11563852D02*
X9714457Y-11459090D01*
X9714457Y-11459090D02*
X9704933Y-11440042D01*
X9704933Y-11440042D02*
X9685885Y-11430518D01*
X9685885Y-11430518D02*
X9657314Y-11430518D01*
X9657314Y-11430518D02*
X9638266Y-11440042D01*
X9638266Y-11440042D02*
X9628743Y-11449566D01*
X9838266Y-11563852D02*
X9819219Y-11554328D01*
X9819219Y-11554328D02*
X9809695Y-11544804D01*
X9809695Y-11544804D02*
X9800171Y-11525756D01*
X9800171Y-11525756D02*
X9800171Y-11468614D01*
X9800171Y-11468614D02*
X9809695Y-11449566D01*
X9809695Y-11449566D02*
X9819219Y-11440042D01*
X9819219Y-11440042D02*
X9838266Y-11430518D01*
X9838266Y-11430518D02*
X9866838Y-11430518D01*
X9866838Y-11430518D02*
X9885885Y-11440042D01*
X9885885Y-11440042D02*
X9895409Y-11449566D01*
X9895409Y-11449566D02*
X9904933Y-11468614D01*
X9904933Y-11468614D02*
X9904933Y-11525756D01*
X9904933Y-11525756D02*
X9895409Y-11544804D01*
X9895409Y-11544804D02*
X9885885Y-11554328D01*
X9885885Y-11554328D02*
X9866838Y-11563852D01*
X9866838Y-11563852D02*
X9838266Y-11563852D01*
X10019219Y-11563852D02*
X10000171Y-11554328D01*
X10000171Y-11554328D02*
X9990647Y-11535280D01*
X9990647Y-11535280D02*
X9990647Y-11363852D01*
X10171600Y-11554328D02*
X10152552Y-11563852D01*
X10152552Y-11563852D02*
X10114457Y-11563852D01*
X10114457Y-11563852D02*
X10095409Y-11554328D01*
X10095409Y-11554328D02*
X10085885Y-11535280D01*
X10085885Y-11535280D02*
X10085885Y-11459090D01*
X10085885Y-11459090D02*
X10095409Y-11440042D01*
X10095409Y-11440042D02*
X10114457Y-11430518D01*
X10114457Y-11430518D02*
X10152552Y-11430518D01*
X10152552Y-11430518D02*
X10171600Y-11440042D01*
X10171600Y-11440042D02*
X10181124Y-11459090D01*
X10181124Y-11459090D02*
X10181124Y-11478137D01*
X10181124Y-11478137D02*
X10085885Y-11497185D01*
X10257314Y-11554328D02*
X10276362Y-11563852D01*
X10276362Y-11563852D02*
X10314457Y-11563852D01*
X10314457Y-11563852D02*
X10333505Y-11554328D01*
X10333505Y-11554328D02*
X10343028Y-11535280D01*
X10343028Y-11535280D02*
X10343028Y-11525756D01*
X10343028Y-11525756D02*
X10333505Y-11506709D01*
X10333505Y-11506709D02*
X10314457Y-11497185D01*
X10314457Y-11497185D02*
X10285885Y-11497185D01*
X10285885Y-11497185D02*
X10266838Y-11487661D01*
X10266838Y-11487661D02*
X10257314Y-11468614D01*
X10257314Y-11468614D02*
X10257314Y-11459090D01*
X10257314Y-11459090D02*
X10266838Y-11440042D01*
X10266838Y-11440042D02*
X10285885Y-11430518D01*
X10285885Y-11430518D02*
X10314457Y-11430518D01*
X10314457Y-11430518D02*
X10333505Y-11440042D01*
X10581124Y-11487661D02*
X10733505Y-11487661D01*
X10657314Y-11563852D02*
X10657314Y-11411471D01*
X10971600Y-11382899D02*
X10981124Y-11373376D01*
X10981124Y-11373376D02*
X11000171Y-11363852D01*
X11000171Y-11363852D02*
X11047790Y-11363852D01*
X11047790Y-11363852D02*
X11066838Y-11373376D01*
X11066838Y-11373376D02*
X11076362Y-11382899D01*
X11076362Y-11382899D02*
X11085886Y-11401947D01*
X11085886Y-11401947D02*
X11085886Y-11420995D01*
X11085886Y-11420995D02*
X11076362Y-11449566D01*
X11076362Y-11449566D02*
X10962076Y-11563852D01*
X10962076Y-11563852D02*
X11085886Y-11563852D01*
X11266838Y-11363852D02*
X11171600Y-11363852D01*
X11171600Y-11363852D02*
X11162076Y-11459090D01*
X11162076Y-11459090D02*
X11171600Y-11449566D01*
X11171600Y-11449566D02*
X11190647Y-11440042D01*
X11190647Y-11440042D02*
X11238266Y-11440042D01*
X11238266Y-11440042D02*
X11257314Y-11449566D01*
X11257314Y-11449566D02*
X11266838Y-11459090D01*
X11266838Y-11459090D02*
X11276362Y-11478137D01*
X11276362Y-11478137D02*
X11276362Y-11525756D01*
X11276362Y-11525756D02*
X11266838Y-11544804D01*
X11266838Y-11544804D02*
X11257314Y-11554328D01*
X11257314Y-11554328D02*
X11238266Y-11563852D01*
X11238266Y-11563852D02*
X11190647Y-11563852D01*
X11190647Y-11563852D02*
X11171600Y-11554328D01*
X11171600Y-11554328D02*
X11162076Y-11544804D01*
X11504933Y-11554328D02*
X11523981Y-11563852D01*
X11523981Y-11563852D02*
X11562076Y-11563852D01*
X11562076Y-11563852D02*
X11581124Y-11554328D01*
X11581124Y-11554328D02*
X11590647Y-11535280D01*
X11590647Y-11535280D02*
X11590647Y-11525756D01*
X11590647Y-11525756D02*
X11581124Y-11506709D01*
X11581124Y-11506709D02*
X11562076Y-11497185D01*
X11562076Y-11497185D02*
X11533505Y-11497185D01*
X11533505Y-11497185D02*
X11514457Y-11487661D01*
X11514457Y-11487661D02*
X11504933Y-11468614D01*
X11504933Y-11468614D02*
X11504933Y-11459090D01*
X11504933Y-11459090D02*
X11514457Y-11440042D01*
X11514457Y-11440042D02*
X11533505Y-11430518D01*
X11533505Y-11430518D02*
X11562076Y-11430518D01*
X11562076Y-11430518D02*
X11581124Y-11440042D01*
X11704933Y-11563852D02*
X11685886Y-11554328D01*
X11685886Y-11554328D02*
X11676362Y-11535280D01*
X11676362Y-11535280D02*
X11676362Y-11363852D01*
X11809695Y-11563852D02*
X11790647Y-11554328D01*
X11790647Y-11554328D02*
X11781124Y-11544804D01*
X11781124Y-11544804D02*
X11771600Y-11525756D01*
X11771600Y-11525756D02*
X11771600Y-11468614D01*
X11771600Y-11468614D02*
X11781124Y-11449566D01*
X11781124Y-11449566D02*
X11790647Y-11440042D01*
X11790647Y-11440042D02*
X11809695Y-11430518D01*
X11809695Y-11430518D02*
X11838267Y-11430518D01*
X11838267Y-11430518D02*
X11857314Y-11440042D01*
X11857314Y-11440042D02*
X11866838Y-11449566D01*
X11866838Y-11449566D02*
X11876362Y-11468614D01*
X11876362Y-11468614D02*
X11876362Y-11525756D01*
X11876362Y-11525756D02*
X11866838Y-11544804D01*
X11866838Y-11544804D02*
X11857314Y-11554328D01*
X11857314Y-11554328D02*
X11838267Y-11563852D01*
X11838267Y-11563852D02*
X11809695Y-11563852D01*
X11933505Y-11430518D02*
X12009695Y-11430518D01*
X11962076Y-11363852D02*
X11962076Y-11535280D01*
X11962076Y-11535280D02*
X11971600Y-11554328D01*
X11971600Y-11554328D02*
X11990647Y-11563852D01*
X11990647Y-11563852D02*
X12009695Y-11563852D01*
X12066838Y-11554328D02*
X12085886Y-11563852D01*
X12085886Y-11563852D02*
X12123981Y-11563852D01*
X12123981Y-11563852D02*
X12143028Y-11554328D01*
X12143028Y-11554328D02*
X12152552Y-11535280D01*
X12152552Y-11535280D02*
X12152552Y-11525756D01*
X12152552Y-11525756D02*
X12143028Y-11506709D01*
X12143028Y-11506709D02*
X12123981Y-11497185D01*
X12123981Y-11497185D02*
X12095409Y-11497185D01*
X12095409Y-11497185D02*
X12076362Y-11487661D01*
X12076362Y-11487661D02*
X12066838Y-11468614D01*
X12066838Y-11468614D02*
X12066838Y-11459090D01*
X12066838Y-11459090D02*
X12076362Y-11440042D01*
X12076362Y-11440042D02*
X12095409Y-11430518D01*
X12095409Y-11430518D02*
X12123981Y-11430518D01*
X12123981Y-11430518D02*
X12143028Y-11440042D01*
X12219219Y-11640042D02*
X12228743Y-11630518D01*
X12228743Y-11630518D02*
X12247790Y-11601947D01*
X12247790Y-11601947D02*
X12257314Y-11582899D01*
X12257314Y-11582899D02*
X12266838Y-11554328D01*
X12266838Y-11554328D02*
X12276362Y-11506709D01*
X12276362Y-11506709D02*
X12276362Y-11468614D01*
X12276362Y-11468614D02*
X12266838Y-11420995D01*
X12266838Y-11420995D02*
X12257314Y-11392423D01*
X12257314Y-11392423D02*
X12247790Y-11373376D01*
X12247790Y-11373376D02*
X12228743Y-11344804D01*
X12228743Y-11344804D02*
X12219219Y-11335280D01*
D15*
X5549632Y-11827368D02*
X5634632Y-11742368D01*
X5549632Y-11657368D01*
X5464632Y-11742368D01*
X5549632Y-11827368D01*
D11*
X6000171Y-11833852D02*
X5885885Y-11833852D01*
X5943028Y-11833852D02*
X5943028Y-11633852D01*
X5943028Y-11633852D02*
X5923980Y-11662423D01*
X5923980Y-11662423D02*
X5904933Y-11681471D01*
X5904933Y-11681471D02*
X5885885Y-11690995D01*
X6085885Y-11814804D02*
X6095409Y-11824328D01*
X6095409Y-11824328D02*
X6085885Y-11833852D01*
X6085885Y-11833852D02*
X6076361Y-11824328D01*
X6076361Y-11824328D02*
X6085885Y-11814804D01*
X6085885Y-11814804D02*
X6085885Y-11833852D01*
X6162075Y-11633852D02*
X6295409Y-11633852D01*
X6295409Y-11633852D02*
X6209694Y-11833852D01*
X6409694Y-11633852D02*
X6428742Y-11633852D01*
X6428742Y-11633852D02*
X6447790Y-11643376D01*
X6447790Y-11643376D02*
X6457314Y-11652899D01*
X6457314Y-11652899D02*
X6466837Y-11671947D01*
X6466837Y-11671947D02*
X6476361Y-11710042D01*
X6476361Y-11710042D02*
X6476361Y-11757661D01*
X6476361Y-11757661D02*
X6466837Y-11795756D01*
X6466837Y-11795756D02*
X6457314Y-11814804D01*
X6457314Y-11814804D02*
X6447790Y-11824328D01*
X6447790Y-11824328D02*
X6428742Y-11833852D01*
X6428742Y-11833852D02*
X6409694Y-11833852D01*
X6409694Y-11833852D02*
X6390647Y-11824328D01*
X6390647Y-11824328D02*
X6381123Y-11814804D01*
X6381123Y-11814804D02*
X6371599Y-11795756D01*
X6371599Y-11795756D02*
X6362075Y-11757661D01*
X6362075Y-11757661D02*
X6362075Y-11710042D01*
X6362075Y-11710042D02*
X6371599Y-11671947D01*
X6371599Y-11671947D02*
X6381123Y-11652899D01*
X6381123Y-11652899D02*
X6390647Y-11643376D01*
X6390647Y-11643376D02*
X6409694Y-11633852D01*
X6600171Y-11633852D02*
X6619218Y-11633852D01*
X6619218Y-11633852D02*
X6638266Y-11643376D01*
X6638266Y-11643376D02*
X6647790Y-11652899D01*
X6647790Y-11652899D02*
X6657314Y-11671947D01*
X6657314Y-11671947D02*
X6666837Y-11710042D01*
X6666837Y-11710042D02*
X6666837Y-11757661D01*
X6666837Y-11757661D02*
X6657314Y-11795756D01*
X6657314Y-11795756D02*
X6647790Y-11814804D01*
X6647790Y-11814804D02*
X6638266Y-11824328D01*
X6638266Y-11824328D02*
X6619218Y-11833852D01*
X6619218Y-11833852D02*
X6600171Y-11833852D01*
X6600171Y-11833852D02*
X6581123Y-11824328D01*
X6581123Y-11824328D02*
X6571599Y-11814804D01*
X6571599Y-11814804D02*
X6562075Y-11795756D01*
X6562075Y-11795756D02*
X6552552Y-11757661D01*
X6552552Y-11757661D02*
X6552552Y-11710042D01*
X6552552Y-11710042D02*
X6562075Y-11671947D01*
X6562075Y-11671947D02*
X6571599Y-11652899D01*
X6571599Y-11652899D02*
X6581123Y-11643376D01*
X6581123Y-11643376D02*
X6600171Y-11633852D01*
X6752552Y-11833852D02*
X6752552Y-11700518D01*
X6752552Y-11719566D02*
X6762075Y-11710042D01*
X6762075Y-11710042D02*
X6781123Y-11700518D01*
X6781123Y-11700518D02*
X6809695Y-11700518D01*
X6809695Y-11700518D02*
X6828742Y-11710042D01*
X6828742Y-11710042D02*
X6838266Y-11729090D01*
X6838266Y-11729090D02*
X6838266Y-11833852D01*
X6838266Y-11729090D02*
X6847790Y-11710042D01*
X6847790Y-11710042D02*
X6866837Y-11700518D01*
X6866837Y-11700518D02*
X6895409Y-11700518D01*
X6895409Y-11700518D02*
X6914456Y-11710042D01*
X6914456Y-11710042D02*
X6923980Y-11729090D01*
X6923980Y-11729090D02*
X6923980Y-11833852D01*
X7019218Y-11833852D02*
X7019218Y-11700518D01*
X7019218Y-11719566D02*
X7028742Y-11710042D01*
X7028742Y-11710042D02*
X7047790Y-11700518D01*
X7047790Y-11700518D02*
X7076361Y-11700518D01*
X7076361Y-11700518D02*
X7095409Y-11710042D01*
X7095409Y-11710042D02*
X7104933Y-11729090D01*
X7104933Y-11729090D02*
X7104933Y-11833852D01*
X7104933Y-11729090D02*
X7114456Y-11710042D01*
X7114456Y-11710042D02*
X7133504Y-11700518D01*
X7133504Y-11700518D02*
X7162075Y-11700518D01*
X7162075Y-11700518D02*
X7181123Y-11710042D01*
X7181123Y-11710042D02*
X7190647Y-11729090D01*
X7190647Y-11729090D02*
X7190647Y-11833852D01*
X7581123Y-11624328D02*
X7409695Y-11881471D01*
X7838266Y-11633852D02*
X7857314Y-11633852D01*
X7857314Y-11633852D02*
X7876361Y-11643376D01*
X7876361Y-11643376D02*
X7885885Y-11652899D01*
X7885885Y-11652899D02*
X7895409Y-11671947D01*
X7895409Y-11671947D02*
X7904933Y-11710042D01*
X7904933Y-11710042D02*
X7904933Y-11757661D01*
X7904933Y-11757661D02*
X7895409Y-11795756D01*
X7895409Y-11795756D02*
X7885885Y-11814804D01*
X7885885Y-11814804D02*
X7876361Y-11824328D01*
X7876361Y-11824328D02*
X7857314Y-11833852D01*
X7857314Y-11833852D02*
X7838266Y-11833852D01*
X7838266Y-11833852D02*
X7819218Y-11824328D01*
X7819218Y-11824328D02*
X7809695Y-11814804D01*
X7809695Y-11814804D02*
X7800171Y-11795756D01*
X7800171Y-11795756D02*
X7790647Y-11757661D01*
X7790647Y-11757661D02*
X7790647Y-11710042D01*
X7790647Y-11710042D02*
X7800171Y-11671947D01*
X7800171Y-11671947D02*
X7809695Y-11652899D01*
X7809695Y-11652899D02*
X7819218Y-11643376D01*
X7819218Y-11643376D02*
X7838266Y-11633852D01*
X7990647Y-11814804D02*
X8000171Y-11824328D01*
X8000171Y-11824328D02*
X7990647Y-11833852D01*
X7990647Y-11833852D02*
X7981123Y-11824328D01*
X7981123Y-11824328D02*
X7990647Y-11814804D01*
X7990647Y-11814804D02*
X7990647Y-11833852D01*
X8123980Y-11633852D02*
X8143028Y-11633852D01*
X8143028Y-11633852D02*
X8162076Y-11643376D01*
X8162076Y-11643376D02*
X8171599Y-11652899D01*
X8171599Y-11652899D02*
X8181123Y-11671947D01*
X8181123Y-11671947D02*
X8190647Y-11710042D01*
X8190647Y-11710042D02*
X8190647Y-11757661D01*
X8190647Y-11757661D02*
X8181123Y-11795756D01*
X8181123Y-11795756D02*
X8171599Y-11814804D01*
X8171599Y-11814804D02*
X8162076Y-11824328D01*
X8162076Y-11824328D02*
X8143028Y-11833852D01*
X8143028Y-11833852D02*
X8123980Y-11833852D01*
X8123980Y-11833852D02*
X8104933Y-11824328D01*
X8104933Y-11824328D02*
X8095409Y-11814804D01*
X8095409Y-11814804D02*
X8085885Y-11795756D01*
X8085885Y-11795756D02*
X8076361Y-11757661D01*
X8076361Y-11757661D02*
X8076361Y-11710042D01*
X8076361Y-11710042D02*
X8085885Y-11671947D01*
X8085885Y-11671947D02*
X8095409Y-11652899D01*
X8095409Y-11652899D02*
X8104933Y-11643376D01*
X8104933Y-11643376D02*
X8123980Y-11633852D01*
X8362076Y-11633852D02*
X8323980Y-11633852D01*
X8323980Y-11633852D02*
X8304933Y-11643376D01*
X8304933Y-11643376D02*
X8295409Y-11652899D01*
X8295409Y-11652899D02*
X8276361Y-11681471D01*
X8276361Y-11681471D02*
X8266838Y-11719566D01*
X8266838Y-11719566D02*
X8266838Y-11795756D01*
X8266838Y-11795756D02*
X8276361Y-11814804D01*
X8276361Y-11814804D02*
X8285885Y-11824328D01*
X8285885Y-11824328D02*
X8304933Y-11833852D01*
X8304933Y-11833852D02*
X8343028Y-11833852D01*
X8343028Y-11833852D02*
X8362076Y-11824328D01*
X8362076Y-11824328D02*
X8371599Y-11814804D01*
X8371599Y-11814804D02*
X8381123Y-11795756D01*
X8381123Y-11795756D02*
X8381123Y-11748137D01*
X8381123Y-11748137D02*
X8371599Y-11729090D01*
X8371599Y-11729090D02*
X8362076Y-11719566D01*
X8362076Y-11719566D02*
X8343028Y-11710042D01*
X8343028Y-11710042D02*
X8304933Y-11710042D01*
X8304933Y-11710042D02*
X8285885Y-11719566D01*
X8285885Y-11719566D02*
X8276361Y-11729090D01*
X8276361Y-11729090D02*
X8266838Y-11748137D01*
X8552552Y-11633852D02*
X8514457Y-11633852D01*
X8514457Y-11633852D02*
X8495409Y-11643376D01*
X8495409Y-11643376D02*
X8485885Y-11652899D01*
X8485885Y-11652899D02*
X8466838Y-11681471D01*
X8466838Y-11681471D02*
X8457314Y-11719566D01*
X8457314Y-11719566D02*
X8457314Y-11795756D01*
X8457314Y-11795756D02*
X8466838Y-11814804D01*
X8466838Y-11814804D02*
X8476361Y-11824328D01*
X8476361Y-11824328D02*
X8495409Y-11833852D01*
X8495409Y-11833852D02*
X8533504Y-11833852D01*
X8533504Y-11833852D02*
X8552552Y-11824328D01*
X8552552Y-11824328D02*
X8562076Y-11814804D01*
X8562076Y-11814804D02*
X8571600Y-11795756D01*
X8571600Y-11795756D02*
X8571600Y-11748137D01*
X8571600Y-11748137D02*
X8562076Y-11729090D01*
X8562076Y-11729090D02*
X8552552Y-11719566D01*
X8552552Y-11719566D02*
X8533504Y-11710042D01*
X8533504Y-11710042D02*
X8495409Y-11710042D01*
X8495409Y-11710042D02*
X8476361Y-11719566D01*
X8476361Y-11719566D02*
X8466838Y-11729090D01*
X8466838Y-11729090D02*
X8457314Y-11748137D01*
X8666838Y-11833852D02*
X8704933Y-11833852D01*
X8704933Y-11833852D02*
X8723981Y-11824328D01*
X8723981Y-11824328D02*
X8733504Y-11814804D01*
X8733504Y-11814804D02*
X8752552Y-11786233D01*
X8752552Y-11786233D02*
X8762076Y-11748137D01*
X8762076Y-11748137D02*
X8762076Y-11671947D01*
X8762076Y-11671947D02*
X8752552Y-11652899D01*
X8752552Y-11652899D02*
X8743028Y-11643376D01*
X8743028Y-11643376D02*
X8723981Y-11633852D01*
X8723981Y-11633852D02*
X8685885Y-11633852D01*
X8685885Y-11633852D02*
X8666838Y-11643376D01*
X8666838Y-11643376D02*
X8657314Y-11652899D01*
X8657314Y-11652899D02*
X8647790Y-11671947D01*
X8647790Y-11671947D02*
X8647790Y-11719566D01*
X8647790Y-11719566D02*
X8657314Y-11738614D01*
X8657314Y-11738614D02*
X8666838Y-11748137D01*
X8666838Y-11748137D02*
X8685885Y-11757661D01*
X8685885Y-11757661D02*
X8723981Y-11757661D01*
X8723981Y-11757661D02*
X8743028Y-11748137D01*
X8743028Y-11748137D02*
X8752552Y-11738614D01*
X8752552Y-11738614D02*
X8762076Y-11719566D01*
X8838266Y-11633852D02*
X8838266Y-11671947D01*
X8914457Y-11633852D02*
X8914457Y-11671947D01*
X9209695Y-11910042D02*
X9200171Y-11900518D01*
X9200171Y-11900518D02*
X9181123Y-11871947D01*
X9181123Y-11871947D02*
X9171600Y-11852899D01*
X9171600Y-11852899D02*
X9162076Y-11824328D01*
X9162076Y-11824328D02*
X9152552Y-11776709D01*
X9152552Y-11776709D02*
X9152552Y-11738614D01*
X9152552Y-11738614D02*
X9162076Y-11690995D01*
X9162076Y-11690995D02*
X9171600Y-11662423D01*
X9171600Y-11662423D02*
X9181123Y-11643376D01*
X9181123Y-11643376D02*
X9200171Y-11614804D01*
X9200171Y-11614804D02*
X9209695Y-11605280D01*
X9390647Y-11833852D02*
X9276362Y-11833852D01*
X9333504Y-11833852D02*
X9333504Y-11633852D01*
X9333504Y-11633852D02*
X9314457Y-11662423D01*
X9314457Y-11662423D02*
X9295409Y-11681471D01*
X9295409Y-11681471D02*
X9276362Y-11690995D01*
X9466838Y-11652899D02*
X9476362Y-11643376D01*
X9476362Y-11643376D02*
X9495409Y-11633852D01*
X9495409Y-11633852D02*
X9543028Y-11633852D01*
X9543028Y-11633852D02*
X9562076Y-11643376D01*
X9562076Y-11643376D02*
X9571600Y-11652899D01*
X9571600Y-11652899D02*
X9581123Y-11671947D01*
X9581123Y-11671947D02*
X9581123Y-11690995D01*
X9581123Y-11690995D02*
X9571600Y-11719566D01*
X9571600Y-11719566D02*
X9457314Y-11833852D01*
X9457314Y-11833852D02*
X9581123Y-11833852D01*
X9819219Y-11833852D02*
X9819219Y-11633852D01*
X9904933Y-11833852D02*
X9904933Y-11729090D01*
X9904933Y-11729090D02*
X9895409Y-11710042D01*
X9895409Y-11710042D02*
X9876362Y-11700518D01*
X9876362Y-11700518D02*
X9847790Y-11700518D01*
X9847790Y-11700518D02*
X9828743Y-11710042D01*
X9828743Y-11710042D02*
X9819219Y-11719566D01*
X10028743Y-11833852D02*
X10009695Y-11824328D01*
X10009695Y-11824328D02*
X10000171Y-11814804D01*
X10000171Y-11814804D02*
X9990647Y-11795756D01*
X9990647Y-11795756D02*
X9990647Y-11738614D01*
X9990647Y-11738614D02*
X10000171Y-11719566D01*
X10000171Y-11719566D02*
X10009695Y-11710042D01*
X10009695Y-11710042D02*
X10028743Y-11700518D01*
X10028743Y-11700518D02*
X10057314Y-11700518D01*
X10057314Y-11700518D02*
X10076362Y-11710042D01*
X10076362Y-11710042D02*
X10085885Y-11719566D01*
X10085885Y-11719566D02*
X10095409Y-11738614D01*
X10095409Y-11738614D02*
X10095409Y-11795756D01*
X10095409Y-11795756D02*
X10085885Y-11814804D01*
X10085885Y-11814804D02*
X10076362Y-11824328D01*
X10076362Y-11824328D02*
X10057314Y-11833852D01*
X10057314Y-11833852D02*
X10028743Y-11833852D01*
X10209695Y-11833852D02*
X10190647Y-11824328D01*
X10190647Y-11824328D02*
X10181124Y-11805280D01*
X10181124Y-11805280D02*
X10181124Y-11633852D01*
X10362076Y-11824328D02*
X10343028Y-11833852D01*
X10343028Y-11833852D02*
X10304933Y-11833852D01*
X10304933Y-11833852D02*
X10285885Y-11824328D01*
X10285885Y-11824328D02*
X10276362Y-11805280D01*
X10276362Y-11805280D02*
X10276362Y-11729090D01*
X10276362Y-11729090D02*
X10285885Y-11710042D01*
X10285885Y-11710042D02*
X10304933Y-11700518D01*
X10304933Y-11700518D02*
X10343028Y-11700518D01*
X10343028Y-11700518D02*
X10362076Y-11710042D01*
X10362076Y-11710042D02*
X10371600Y-11729090D01*
X10371600Y-11729090D02*
X10371600Y-11748137D01*
X10371600Y-11748137D02*
X10276362Y-11767185D01*
X10447790Y-11824328D02*
X10466838Y-11833852D01*
X10466838Y-11833852D02*
X10504933Y-11833852D01*
X10504933Y-11833852D02*
X10523981Y-11824328D01*
X10523981Y-11824328D02*
X10533505Y-11805280D01*
X10533505Y-11805280D02*
X10533505Y-11795756D01*
X10533505Y-11795756D02*
X10523981Y-11776709D01*
X10523981Y-11776709D02*
X10504933Y-11767185D01*
X10504933Y-11767185D02*
X10476362Y-11767185D01*
X10476362Y-11767185D02*
X10457314Y-11757661D01*
X10457314Y-11757661D02*
X10447790Y-11738614D01*
X10447790Y-11738614D02*
X10447790Y-11729090D01*
X10447790Y-11729090D02*
X10457314Y-11710042D01*
X10457314Y-11710042D02*
X10476362Y-11700518D01*
X10476362Y-11700518D02*
X10504933Y-11700518D01*
X10504933Y-11700518D02*
X10523981Y-11710042D01*
X10600171Y-11910042D02*
X10609695Y-11900518D01*
X10609695Y-11900518D02*
X10628743Y-11871947D01*
X10628743Y-11871947D02*
X10638266Y-11852899D01*
X10638266Y-11852899D02*
X10647790Y-11824328D01*
X10647790Y-11824328D02*
X10657314Y-11776709D01*
X10657314Y-11776709D02*
X10657314Y-11738614D01*
X10657314Y-11738614D02*
X10647790Y-11690995D01*
X10647790Y-11690995D02*
X10638266Y-11662423D01*
X10638266Y-11662423D02*
X10628743Y-11643376D01*
X10628743Y-11643376D02*
X10609695Y-11614804D01*
X10609695Y-11614804D02*
X10600171Y-11605280D01*
X5434632Y-11932368D02*
X5634632Y-12132368D01*
X5634632Y-11932368D02*
X5434632Y-12132368D01*
X5634632Y-12032368D02*
G75*
G02*
X5434632Y-12032368I-100000J0D01*
G01*
X5434632Y-12032368D02*
G75*
G02*
X5634632Y-12032368I100000J0D01*
G01*
X5876361Y-11923852D02*
X6000171Y-11923852D01*
X6000171Y-11923852D02*
X5933504Y-12000042D01*
X5933504Y-12000042D02*
X5962075Y-12000042D01*
X5962075Y-12000042D02*
X5981123Y-12009566D01*
X5981123Y-12009566D02*
X5990647Y-12019090D01*
X5990647Y-12019090D02*
X6000171Y-12038137D01*
X6000171Y-12038137D02*
X6000171Y-12085756D01*
X6000171Y-12085756D02*
X5990647Y-12104804D01*
X5990647Y-12104804D02*
X5981123Y-12114328D01*
X5981123Y-12114328D02*
X5962075Y-12123852D01*
X5962075Y-12123852D02*
X5904933Y-12123852D01*
X5904933Y-12123852D02*
X5885885Y-12114328D01*
X5885885Y-12114328D02*
X5876361Y-12104804D01*
X6085885Y-12104804D02*
X6095409Y-12114328D01*
X6095409Y-12114328D02*
X6085885Y-12123852D01*
X6085885Y-12123852D02*
X6076361Y-12114328D01*
X6076361Y-12114328D02*
X6085885Y-12104804D01*
X6085885Y-12104804D02*
X6085885Y-12123852D01*
X6219218Y-11923852D02*
X6238266Y-11923852D01*
X6238266Y-11923852D02*
X6257314Y-11933376D01*
X6257314Y-11933376D02*
X6266837Y-11942899D01*
X6266837Y-11942899D02*
X6276361Y-11961947D01*
X6276361Y-11961947D02*
X6285885Y-12000042D01*
X6285885Y-12000042D02*
X6285885Y-12047661D01*
X6285885Y-12047661D02*
X6276361Y-12085756D01*
X6276361Y-12085756D02*
X6266837Y-12104804D01*
X6266837Y-12104804D02*
X6257314Y-12114328D01*
X6257314Y-12114328D02*
X6238266Y-12123852D01*
X6238266Y-12123852D02*
X6219218Y-12123852D01*
X6219218Y-12123852D02*
X6200171Y-12114328D01*
X6200171Y-12114328D02*
X6190647Y-12104804D01*
X6190647Y-12104804D02*
X6181123Y-12085756D01*
X6181123Y-12085756D02*
X6171599Y-12047661D01*
X6171599Y-12047661D02*
X6171599Y-12000042D01*
X6171599Y-12000042D02*
X6181123Y-11961947D01*
X6181123Y-11961947D02*
X6190647Y-11942899D01*
X6190647Y-11942899D02*
X6200171Y-11933376D01*
X6200171Y-11933376D02*
X6219218Y-11923852D01*
X6409694Y-11923852D02*
X6428742Y-11923852D01*
X6428742Y-11923852D02*
X6447790Y-11933376D01*
X6447790Y-11933376D02*
X6457314Y-11942899D01*
X6457314Y-11942899D02*
X6466837Y-11961947D01*
X6466837Y-11961947D02*
X6476361Y-12000042D01*
X6476361Y-12000042D02*
X6476361Y-12047661D01*
X6476361Y-12047661D02*
X6466837Y-12085756D01*
X6466837Y-12085756D02*
X6457314Y-12104804D01*
X6457314Y-12104804D02*
X6447790Y-12114328D01*
X6447790Y-12114328D02*
X6428742Y-12123852D01*
X6428742Y-12123852D02*
X6409694Y-12123852D01*
X6409694Y-12123852D02*
X6390647Y-12114328D01*
X6390647Y-12114328D02*
X6381123Y-12104804D01*
X6381123Y-12104804D02*
X6371599Y-12085756D01*
X6371599Y-12085756D02*
X6362075Y-12047661D01*
X6362075Y-12047661D02*
X6362075Y-12000042D01*
X6362075Y-12000042D02*
X6371599Y-11961947D01*
X6371599Y-11961947D02*
X6381123Y-11942899D01*
X6381123Y-11942899D02*
X6390647Y-11933376D01*
X6390647Y-11933376D02*
X6409694Y-11923852D01*
X6600171Y-11923852D02*
X6619218Y-11923852D01*
X6619218Y-11923852D02*
X6638266Y-11933376D01*
X6638266Y-11933376D02*
X6647790Y-11942899D01*
X6647790Y-11942899D02*
X6657314Y-11961947D01*
X6657314Y-11961947D02*
X6666837Y-12000042D01*
X6666837Y-12000042D02*
X6666837Y-12047661D01*
X6666837Y-12047661D02*
X6657314Y-12085756D01*
X6657314Y-12085756D02*
X6647790Y-12104804D01*
X6647790Y-12104804D02*
X6638266Y-12114328D01*
X6638266Y-12114328D02*
X6619218Y-12123852D01*
X6619218Y-12123852D02*
X6600171Y-12123852D01*
X6600171Y-12123852D02*
X6581123Y-12114328D01*
X6581123Y-12114328D02*
X6571599Y-12104804D01*
X6571599Y-12104804D02*
X6562075Y-12085756D01*
X6562075Y-12085756D02*
X6552552Y-12047661D01*
X6552552Y-12047661D02*
X6552552Y-12000042D01*
X6552552Y-12000042D02*
X6562075Y-11961947D01*
X6562075Y-11961947D02*
X6571599Y-11942899D01*
X6571599Y-11942899D02*
X6581123Y-11933376D01*
X6581123Y-11933376D02*
X6600171Y-11923852D01*
X6752552Y-12123852D02*
X6752552Y-11990518D01*
X6752552Y-12009566D02*
X6762075Y-12000042D01*
X6762075Y-12000042D02*
X6781123Y-11990518D01*
X6781123Y-11990518D02*
X6809695Y-11990518D01*
X6809695Y-11990518D02*
X6828742Y-12000042D01*
X6828742Y-12000042D02*
X6838266Y-12019090D01*
X6838266Y-12019090D02*
X6838266Y-12123852D01*
X6838266Y-12019090D02*
X6847790Y-12000042D01*
X6847790Y-12000042D02*
X6866837Y-11990518D01*
X6866837Y-11990518D02*
X6895409Y-11990518D01*
X6895409Y-11990518D02*
X6914456Y-12000042D01*
X6914456Y-12000042D02*
X6923980Y-12019090D01*
X6923980Y-12019090D02*
X6923980Y-12123852D01*
X7019218Y-12123852D02*
X7019218Y-11990518D01*
X7019218Y-12009566D02*
X7028742Y-12000042D01*
X7028742Y-12000042D02*
X7047790Y-11990518D01*
X7047790Y-11990518D02*
X7076361Y-11990518D01*
X7076361Y-11990518D02*
X7095409Y-12000042D01*
X7095409Y-12000042D02*
X7104933Y-12019090D01*
X7104933Y-12019090D02*
X7104933Y-12123852D01*
X7104933Y-12019090D02*
X7114456Y-12000042D01*
X7114456Y-12000042D02*
X7133504Y-11990518D01*
X7133504Y-11990518D02*
X7162075Y-11990518D01*
X7162075Y-11990518D02*
X7181123Y-12000042D01*
X7181123Y-12000042D02*
X7190647Y-12019090D01*
X7190647Y-12019090D02*
X7190647Y-12123852D01*
X7581123Y-11914328D02*
X7409695Y-12171471D01*
X7838266Y-11923852D02*
X7857314Y-11923852D01*
X7857314Y-11923852D02*
X7876361Y-11933376D01*
X7876361Y-11933376D02*
X7885885Y-11942899D01*
X7885885Y-11942899D02*
X7895409Y-11961947D01*
X7895409Y-11961947D02*
X7904933Y-12000042D01*
X7904933Y-12000042D02*
X7904933Y-12047661D01*
X7904933Y-12047661D02*
X7895409Y-12085756D01*
X7895409Y-12085756D02*
X7885885Y-12104804D01*
X7885885Y-12104804D02*
X7876361Y-12114328D01*
X7876361Y-12114328D02*
X7857314Y-12123852D01*
X7857314Y-12123852D02*
X7838266Y-12123852D01*
X7838266Y-12123852D02*
X7819218Y-12114328D01*
X7819218Y-12114328D02*
X7809695Y-12104804D01*
X7809695Y-12104804D02*
X7800171Y-12085756D01*
X7800171Y-12085756D02*
X7790647Y-12047661D01*
X7790647Y-12047661D02*
X7790647Y-12000042D01*
X7790647Y-12000042D02*
X7800171Y-11961947D01*
X7800171Y-11961947D02*
X7809695Y-11942899D01*
X7809695Y-11942899D02*
X7819218Y-11933376D01*
X7819218Y-11933376D02*
X7838266Y-11923852D01*
X7990647Y-12104804D02*
X8000171Y-12114328D01*
X8000171Y-12114328D02*
X7990647Y-12123852D01*
X7990647Y-12123852D02*
X7981123Y-12114328D01*
X7981123Y-12114328D02*
X7990647Y-12104804D01*
X7990647Y-12104804D02*
X7990647Y-12123852D01*
X8190647Y-12123852D02*
X8076361Y-12123852D01*
X8133504Y-12123852D02*
X8133504Y-11923852D01*
X8133504Y-11923852D02*
X8114457Y-11952423D01*
X8114457Y-11952423D02*
X8095409Y-11971471D01*
X8095409Y-11971471D02*
X8076361Y-11980995D01*
X8381123Y-12123852D02*
X8266838Y-12123852D01*
X8323980Y-12123852D02*
X8323980Y-11923852D01*
X8323980Y-11923852D02*
X8304933Y-11952423D01*
X8304933Y-11952423D02*
X8285885Y-11971471D01*
X8285885Y-11971471D02*
X8266838Y-11980995D01*
X8495409Y-12009566D02*
X8476361Y-12000042D01*
X8476361Y-12000042D02*
X8466838Y-11990518D01*
X8466838Y-11990518D02*
X8457314Y-11971471D01*
X8457314Y-11971471D02*
X8457314Y-11961947D01*
X8457314Y-11961947D02*
X8466838Y-11942899D01*
X8466838Y-11942899D02*
X8476361Y-11933376D01*
X8476361Y-11933376D02*
X8495409Y-11923852D01*
X8495409Y-11923852D02*
X8533504Y-11923852D01*
X8533504Y-11923852D02*
X8552552Y-11933376D01*
X8552552Y-11933376D02*
X8562076Y-11942899D01*
X8562076Y-11942899D02*
X8571600Y-11961947D01*
X8571600Y-11961947D02*
X8571600Y-11971471D01*
X8571600Y-11971471D02*
X8562076Y-11990518D01*
X8562076Y-11990518D02*
X8552552Y-12000042D01*
X8552552Y-12000042D02*
X8533504Y-12009566D01*
X8533504Y-12009566D02*
X8495409Y-12009566D01*
X8495409Y-12009566D02*
X8476361Y-12019090D01*
X8476361Y-12019090D02*
X8466838Y-12028614D01*
X8466838Y-12028614D02*
X8457314Y-12047661D01*
X8457314Y-12047661D02*
X8457314Y-12085756D01*
X8457314Y-12085756D02*
X8466838Y-12104804D01*
X8466838Y-12104804D02*
X8476361Y-12114328D01*
X8476361Y-12114328D02*
X8495409Y-12123852D01*
X8495409Y-12123852D02*
X8533504Y-12123852D01*
X8533504Y-12123852D02*
X8552552Y-12114328D01*
X8552552Y-12114328D02*
X8562076Y-12104804D01*
X8562076Y-12104804D02*
X8571600Y-12085756D01*
X8571600Y-12085756D02*
X8571600Y-12047661D01*
X8571600Y-12047661D02*
X8562076Y-12028614D01*
X8562076Y-12028614D02*
X8552552Y-12019090D01*
X8552552Y-12019090D02*
X8533504Y-12009566D01*
X8762076Y-12123852D02*
X8647790Y-12123852D01*
X8704933Y-12123852D02*
X8704933Y-11923852D01*
X8704933Y-11923852D02*
X8685885Y-11952423D01*
X8685885Y-11952423D02*
X8666838Y-11971471D01*
X8666838Y-11971471D02*
X8647790Y-11980995D01*
X8838266Y-11923852D02*
X8838266Y-11961947D01*
X8914457Y-11923852D02*
X8914457Y-11961947D01*
X9209695Y-12200042D02*
X9200171Y-12190518D01*
X9200171Y-12190518D02*
X9181123Y-12161947D01*
X9181123Y-12161947D02*
X9171600Y-12142899D01*
X9171600Y-12142899D02*
X9162076Y-12114328D01*
X9162076Y-12114328D02*
X9152552Y-12066709D01*
X9152552Y-12066709D02*
X9152552Y-12028614D01*
X9152552Y-12028614D02*
X9162076Y-11980995D01*
X9162076Y-11980995D02*
X9171600Y-11952423D01*
X9171600Y-11952423D02*
X9181123Y-11933376D01*
X9181123Y-11933376D02*
X9200171Y-11904804D01*
X9200171Y-11904804D02*
X9209695Y-11895280D01*
X9371600Y-11990518D02*
X9371600Y-12123852D01*
X9323981Y-11914328D02*
X9276362Y-12057185D01*
X9276362Y-12057185D02*
X9400171Y-12057185D01*
X9628743Y-12123852D02*
X9628743Y-11923852D01*
X9714457Y-12123852D02*
X9714457Y-12019090D01*
X9714457Y-12019090D02*
X9704933Y-12000042D01*
X9704933Y-12000042D02*
X9685885Y-11990518D01*
X9685885Y-11990518D02*
X9657314Y-11990518D01*
X9657314Y-11990518D02*
X9638266Y-12000042D01*
X9638266Y-12000042D02*
X9628743Y-12009566D01*
X9838266Y-12123852D02*
X9819219Y-12114328D01*
X9819219Y-12114328D02*
X9809695Y-12104804D01*
X9809695Y-12104804D02*
X9800171Y-12085756D01*
X9800171Y-12085756D02*
X9800171Y-12028614D01*
X9800171Y-12028614D02*
X9809695Y-12009566D01*
X9809695Y-12009566D02*
X9819219Y-12000042D01*
X9819219Y-12000042D02*
X9838266Y-11990518D01*
X9838266Y-11990518D02*
X9866838Y-11990518D01*
X9866838Y-11990518D02*
X9885885Y-12000042D01*
X9885885Y-12000042D02*
X9895409Y-12009566D01*
X9895409Y-12009566D02*
X9904933Y-12028614D01*
X9904933Y-12028614D02*
X9904933Y-12085756D01*
X9904933Y-12085756D02*
X9895409Y-12104804D01*
X9895409Y-12104804D02*
X9885885Y-12114328D01*
X9885885Y-12114328D02*
X9866838Y-12123852D01*
X9866838Y-12123852D02*
X9838266Y-12123852D01*
X10019219Y-12123852D02*
X10000171Y-12114328D01*
X10000171Y-12114328D02*
X9990647Y-12095280D01*
X9990647Y-12095280D02*
X9990647Y-11923852D01*
X10171600Y-12114328D02*
X10152552Y-12123852D01*
X10152552Y-12123852D02*
X10114457Y-12123852D01*
X10114457Y-12123852D02*
X10095409Y-12114328D01*
X10095409Y-12114328D02*
X10085885Y-12095280D01*
X10085885Y-12095280D02*
X10085885Y-12019090D01*
X10085885Y-12019090D02*
X10095409Y-12000042D01*
X10095409Y-12000042D02*
X10114457Y-11990518D01*
X10114457Y-11990518D02*
X10152552Y-11990518D01*
X10152552Y-11990518D02*
X10171600Y-12000042D01*
X10171600Y-12000042D02*
X10181124Y-12019090D01*
X10181124Y-12019090D02*
X10181124Y-12038137D01*
X10181124Y-12038137D02*
X10085885Y-12057185D01*
X10257314Y-12114328D02*
X10276362Y-12123852D01*
X10276362Y-12123852D02*
X10314457Y-12123852D01*
X10314457Y-12123852D02*
X10333505Y-12114328D01*
X10333505Y-12114328D02*
X10343028Y-12095280D01*
X10343028Y-12095280D02*
X10343028Y-12085756D01*
X10343028Y-12085756D02*
X10333505Y-12066709D01*
X10333505Y-12066709D02*
X10314457Y-12057185D01*
X10314457Y-12057185D02*
X10285885Y-12057185D01*
X10285885Y-12057185D02*
X10266838Y-12047661D01*
X10266838Y-12047661D02*
X10257314Y-12028614D01*
X10257314Y-12028614D02*
X10257314Y-12019090D01*
X10257314Y-12019090D02*
X10266838Y-12000042D01*
X10266838Y-12000042D02*
X10285885Y-11990518D01*
X10285885Y-11990518D02*
X10314457Y-11990518D01*
X10314457Y-11990518D02*
X10333505Y-12000042D01*
X10409695Y-12200042D02*
X10419219Y-12190518D01*
X10419219Y-12190518D02*
X10438266Y-12161947D01*
X10438266Y-12161947D02*
X10447790Y-12142899D01*
X10447790Y-12142899D02*
X10457314Y-12114328D01*
X10457314Y-12114328D02*
X10466838Y-12066709D01*
X10466838Y-12066709D02*
X10466838Y-12028614D01*
X10466838Y-12028614D02*
X10457314Y-11980995D01*
X10457314Y-11980995D02*
X10447790Y-11952423D01*
X10447790Y-11952423D02*
X10438266Y-11933376D01*
X10438266Y-11933376D02*
X10419219Y-11904804D01*
X10419219Y-11904804D02*
X10409695Y-11895280D01*
M02*
