G04 #@! TF.GenerationSoftware,KiCad,Pcbnew,9.0.0*
G04 #@! TF.CreationDate,2025-04-21T23:22:21+01:00*
G04 #@! TF.ProjectId,CapyPower,43617079-506f-4776-9572-2e6b69636164,rev?*
G04 #@! TF.SameCoordinates,Original*
G04 #@! TF.FileFunction,Soldermask,Bot*
G04 #@! TF.FilePolarity,Negative*
%FSLAX46Y46*%
G04 Gerber Fmt 4.6, Leading zero omitted, Abs format (unit mm)*
G04 Created by KiCad (PCBNEW 9.0.0) date 2025-04-21 23:22:21*
%MOMM*%
%LPD*%
G01*
G04 APERTURE LIST*
G04 Aperture macros list*
%AMRoundRect*
0 Rectangle with rounded corners*
0 $1 Rounding radius*
0 $2 $3 $4 $5 $6 $7 $8 $9 X,Y pos of 4 corners*
0 Add a 4 corners polygon primitive as box body*
4,1,4,$2,$3,$4,$5,$6,$7,$8,$9,$2,$3,0*
0 Add four circle primitives for the rounded corners*
1,1,$1+$1,$2,$3*
1,1,$1+$1,$4,$5*
1,1,$1+$1,$6,$7*
1,1,$1+$1,$8,$9*
0 Add four rect primitives between the rounded corners*
20,1,$1+$1,$2,$3,$4,$5,0*
20,1,$1+$1,$4,$5,$6,$7,0*
20,1,$1+$1,$6,$7,$8,$9,0*
20,1,$1+$1,$8,$9,$2,$3,0*%
G04 Aperture macros list end*
%ADD10C,2.400000*%
%ADD11C,3.200000*%
%ADD12RoundRect,0.250000X0.650000X1.350000X-0.650000X1.350000X-0.650000X-1.350000X0.650000X-1.350000X0*%
%ADD13O,1.800000X3.200000*%
%ADD14R,8.000000X2.000000*%
%ADD15R,2.000000X8.000000*%
%ADD16RoundRect,0.393701X0.606299X1.106299X-0.606299X1.106299X-0.606299X-1.106299X0.606299X-1.106299X0*%
%ADD17R,2.200000X2.200000*%
%ADD18O,2.200000X2.200000*%
%ADD19C,2.550000*%
%ADD20R,2.550000X2.550000*%
%ADD21C,1.508000*%
%ADD22RoundRect,0.250000X-1.350000X0.650000X-1.350000X-0.650000X1.350000X-0.650000X1.350000X0.650000X0*%
%ADD23O,3.200000X1.800000*%
%ADD24C,2.000000*%
%ADD25C,0.600000*%
G04 APERTURE END LIST*
D10*
X78100000Y-99000000D03*
X84100000Y-99000000D03*
D11*
X59000000Y-42000000D03*
X154000000Y-42500000D03*
X154000000Y-107000000D03*
X59000000Y-107000000D03*
D12*
X90450000Y-50900000D03*
X90450000Y-45900000D03*
D13*
X87910000Y-50900000D03*
X87910000Y-45900000D03*
D14*
X91350000Y-70900000D03*
X100850000Y-62500000D03*
X100850000Y-79300000D03*
D15*
X101350000Y-70900000D03*
X108850000Y-70900000D03*
D16*
X129550000Y-62075000D03*
X125850000Y-62075000D03*
X121850000Y-62075000D03*
X118150000Y-62075000D03*
D17*
X81150000Y-62440000D03*
D18*
X81150000Y-72600000D03*
D16*
X129550000Y-80075000D03*
X125850000Y-80075000D03*
X121850000Y-80075000D03*
X118150000Y-80075000D03*
D12*
X79600000Y-50900000D03*
X79600000Y-45900000D03*
D13*
X77060000Y-50900000D03*
X77060000Y-45900000D03*
D19*
X70700000Y-65600000D03*
D20*
X70700000Y-70600000D03*
D21*
X60700000Y-62600000D03*
X60700000Y-73600000D03*
D22*
X67100000Y-85000000D03*
X62100000Y-85000000D03*
D23*
X67100000Y-87540000D03*
X62100000Y-87540000D03*
D19*
X142605750Y-72400000D03*
D20*
X142605750Y-67400000D03*
D21*
X152605750Y-75400000D03*
X152605750Y-64400000D03*
D12*
X100990000Y-50850000D03*
X100990000Y-45850000D03*
D13*
X98450000Y-50850000D03*
X98450000Y-45850000D03*
D22*
X67050000Y-94490000D03*
X62050000Y-94490000D03*
D23*
X67050000Y-97030000D03*
X62050000Y-97030000D03*
D19*
X125800000Y-95950000D03*
D20*
X130800000Y-95950000D03*
D21*
X122800000Y-105950000D03*
X133800000Y-105950000D03*
D24*
X67620000Y-79700000D03*
X65080000Y-79700000D03*
D10*
X94300000Y-99000000D03*
X100300000Y-99000000D03*
X106300000Y-99000000D03*
D24*
X74670000Y-79650000D03*
X72130000Y-79650000D03*
D19*
X140600000Y-96000000D03*
D20*
X145600000Y-96000000D03*
D21*
X137600000Y-106000000D03*
X148600000Y-106000000D03*
D16*
X129550000Y-68075000D03*
X125850000Y-68075000D03*
X121850000Y-68075000D03*
X118150000Y-68075000D03*
D19*
X142600000Y-56700000D03*
D20*
X142600000Y-51700000D03*
D21*
X152600000Y-59700000D03*
X152600000Y-48700000D03*
D19*
X142605750Y-88100000D03*
D20*
X142605750Y-83100000D03*
D21*
X152605750Y-91100000D03*
X152605750Y-80100000D03*
D16*
X129550000Y-74075000D03*
X125850000Y-74075000D03*
X121850000Y-74075000D03*
X118150000Y-74075000D03*
X129550000Y-86075000D03*
X125850000Y-86075000D03*
X121850000Y-86075000D03*
X118150000Y-86075000D03*
D12*
X116900000Y-50850000D03*
X116900000Y-45850000D03*
D13*
X114360000Y-50850000D03*
X114360000Y-45850000D03*
X111820000Y-50850000D03*
X111820000Y-45850000D03*
X109280000Y-50850000D03*
X109280000Y-45850000D03*
D25*
X68750000Y-47200000D03*
M02*
