%TF.GenerationSoftware,KiCad,Pcbnew,9.0.0*%
%TF.CreationDate,2025-04-21T23:22:19+01:00*%
%TF.ProjectId,CapyPower,43617079-506f-4776-9572-2e6b69636164,rev?*%
%TF.SameCoordinates,Original*%
%TF.FileFunction,Drillmap*%
%TF.FilePolarity,Positive*%
%FSLAX45Y45*%
G04 Gerber Fmt 4.5, Leading zero omitted, Abs format (unit mm)*
G04 Created by KiCad (PCBNEW 9.0.0) date 2025-04-21 23:22:19*
%MOMM*%
%LPD*%
G01*
G04 APERTURE LIST*
%ADD10C,0.050000*%
%ADD11C,0.200000*%
%ADD12C,0.320000*%
G04 APERTURE END LIST*
D10*
X5650000Y-3950000D02*
X15650000Y-3950000D01*
X15650000Y-10970000D01*
X5650000Y-10970000D01*
X5650000Y-3950000D01*
D11*
D12*
X5740000Y-4040000D02*
X6060000Y-4360000D01*
X6060000Y-4040000D02*
X5740000Y-4360000D01*
X5740000Y-10540000D02*
X6060000Y-10860000D01*
X6060000Y-10540000D02*
X5740000Y-10860000D01*
X15240000Y-4090000D02*
X15560000Y-4410000D01*
X15560000Y-4090000D02*
X15240000Y-4410000D01*
X15240000Y-10540000D02*
X15560000Y-10860000D01*
X15560000Y-10540000D02*
X15240000Y-10860000D01*
D11*
X5908277Y-11283984D02*
X5908277Y-11083984D01*
X5908277Y-11083984D02*
X5955896Y-11083984D01*
X5955896Y-11083984D02*
X5984467Y-11093508D01*
X5984467Y-11093508D02*
X6003515Y-11112555D01*
X6003515Y-11112555D02*
X6013039Y-11131603D01*
X6013039Y-11131603D02*
X6022562Y-11169698D01*
X6022562Y-11169698D02*
X6022562Y-11198269D01*
X6022562Y-11198269D02*
X6013039Y-11236365D01*
X6013039Y-11236365D02*
X6003515Y-11255412D01*
X6003515Y-11255412D02*
X5984467Y-11274460D01*
X5984467Y-11274460D02*
X5955896Y-11283984D01*
X5955896Y-11283984D02*
X5908277Y-11283984D01*
X6108277Y-11283984D02*
X6108277Y-11150650D01*
X6108277Y-11188746D02*
X6117801Y-11169698D01*
X6117801Y-11169698D02*
X6127324Y-11160174D01*
X6127324Y-11160174D02*
X6146372Y-11150650D01*
X6146372Y-11150650D02*
X6165420Y-11150650D01*
X6232086Y-11283984D02*
X6232086Y-11150650D01*
X6232086Y-11083984D02*
X6222562Y-11093508D01*
X6222562Y-11093508D02*
X6232086Y-11103031D01*
X6232086Y-11103031D02*
X6241610Y-11093508D01*
X6241610Y-11093508D02*
X6232086Y-11083984D01*
X6232086Y-11083984D02*
X6232086Y-11103031D01*
X6355896Y-11283984D02*
X6336848Y-11274460D01*
X6336848Y-11274460D02*
X6327324Y-11255412D01*
X6327324Y-11255412D02*
X6327324Y-11083984D01*
X6460658Y-11283984D02*
X6441610Y-11274460D01*
X6441610Y-11274460D02*
X6432086Y-11255412D01*
X6432086Y-11255412D02*
X6432086Y-11083984D01*
X6689229Y-11283984D02*
X6689229Y-11083984D01*
X6689229Y-11083984D02*
X6755896Y-11226841D01*
X6755896Y-11226841D02*
X6822562Y-11083984D01*
X6822562Y-11083984D02*
X6822562Y-11283984D01*
X7003515Y-11283984D02*
X7003515Y-11179222D01*
X7003515Y-11179222D02*
X6993991Y-11160174D01*
X6993991Y-11160174D02*
X6974943Y-11150650D01*
X6974943Y-11150650D02*
X6936848Y-11150650D01*
X6936848Y-11150650D02*
X6917801Y-11160174D01*
X7003515Y-11274460D02*
X6984467Y-11283984D01*
X6984467Y-11283984D02*
X6936848Y-11283984D01*
X6936848Y-11283984D02*
X6917801Y-11274460D01*
X6917801Y-11274460D02*
X6908277Y-11255412D01*
X6908277Y-11255412D02*
X6908277Y-11236365D01*
X6908277Y-11236365D02*
X6917801Y-11217317D01*
X6917801Y-11217317D02*
X6936848Y-11207793D01*
X6936848Y-11207793D02*
X6984467Y-11207793D01*
X6984467Y-11207793D02*
X7003515Y-11198269D01*
X7098753Y-11150650D02*
X7098753Y-11350650D01*
X7098753Y-11160174D02*
X7117801Y-11150650D01*
X7117801Y-11150650D02*
X7155896Y-11150650D01*
X7155896Y-11150650D02*
X7174943Y-11160174D01*
X7174943Y-11160174D02*
X7184467Y-11169698D01*
X7184467Y-11169698D02*
X7193991Y-11188746D01*
X7193991Y-11188746D02*
X7193991Y-11245888D01*
X7193991Y-11245888D02*
X7184467Y-11264936D01*
X7184467Y-11264936D02*
X7174943Y-11274460D01*
X7174943Y-11274460D02*
X7155896Y-11283984D01*
X7155896Y-11283984D02*
X7117801Y-11283984D01*
X7117801Y-11283984D02*
X7098753Y-11274460D01*
X7279705Y-11264936D02*
X7289229Y-11274460D01*
X7289229Y-11274460D02*
X7279705Y-11283984D01*
X7279705Y-11283984D02*
X7270182Y-11274460D01*
X7270182Y-11274460D02*
X7279705Y-11264936D01*
X7279705Y-11264936D02*
X7279705Y-11283984D01*
X7279705Y-11160174D02*
X7289229Y-11169698D01*
X7289229Y-11169698D02*
X7279705Y-11179222D01*
X7279705Y-11179222D02*
X7270182Y-11169698D01*
X7270182Y-11169698D02*
X7279705Y-11160174D01*
X7279705Y-11160174D02*
X7279705Y-11179222D01*
X5447500Y-11512500D02*
X5647500Y-11712500D01*
X5647500Y-11512500D02*
X5447500Y-11712500D01*
X5889229Y-11503984D02*
X6013039Y-11503984D01*
X6013039Y-11503984D02*
X5946372Y-11580174D01*
X5946372Y-11580174D02*
X5974943Y-11580174D01*
X5974943Y-11580174D02*
X5993991Y-11589698D01*
X5993991Y-11589698D02*
X6003515Y-11599222D01*
X6003515Y-11599222D02*
X6013039Y-11618269D01*
X6013039Y-11618269D02*
X6013039Y-11665888D01*
X6013039Y-11665888D02*
X6003515Y-11684936D01*
X6003515Y-11684936D02*
X5993991Y-11694460D01*
X5993991Y-11694460D02*
X5974943Y-11703984D01*
X5974943Y-11703984D02*
X5917801Y-11703984D01*
X5917801Y-11703984D02*
X5898753Y-11694460D01*
X5898753Y-11694460D02*
X5889229Y-11684936D01*
X6098753Y-11684936D02*
X6108277Y-11694460D01*
X6108277Y-11694460D02*
X6098753Y-11703984D01*
X6098753Y-11703984D02*
X6089229Y-11694460D01*
X6089229Y-11694460D02*
X6098753Y-11684936D01*
X6098753Y-11684936D02*
X6098753Y-11703984D01*
X6184467Y-11523031D02*
X6193991Y-11513508D01*
X6193991Y-11513508D02*
X6213039Y-11503984D01*
X6213039Y-11503984D02*
X6260658Y-11503984D01*
X6260658Y-11503984D02*
X6279705Y-11513508D01*
X6279705Y-11513508D02*
X6289229Y-11523031D01*
X6289229Y-11523031D02*
X6298753Y-11542079D01*
X6298753Y-11542079D02*
X6298753Y-11561127D01*
X6298753Y-11561127D02*
X6289229Y-11589698D01*
X6289229Y-11589698D02*
X6174943Y-11703984D01*
X6174943Y-11703984D02*
X6298753Y-11703984D01*
X6422562Y-11503984D02*
X6441610Y-11503984D01*
X6441610Y-11503984D02*
X6460658Y-11513508D01*
X6460658Y-11513508D02*
X6470182Y-11523031D01*
X6470182Y-11523031D02*
X6479705Y-11542079D01*
X6479705Y-11542079D02*
X6489229Y-11580174D01*
X6489229Y-11580174D02*
X6489229Y-11627793D01*
X6489229Y-11627793D02*
X6479705Y-11665888D01*
X6479705Y-11665888D02*
X6470182Y-11684936D01*
X6470182Y-11684936D02*
X6460658Y-11694460D01*
X6460658Y-11694460D02*
X6441610Y-11703984D01*
X6441610Y-11703984D02*
X6422562Y-11703984D01*
X6422562Y-11703984D02*
X6403515Y-11694460D01*
X6403515Y-11694460D02*
X6393991Y-11684936D01*
X6393991Y-11684936D02*
X6384467Y-11665888D01*
X6384467Y-11665888D02*
X6374943Y-11627793D01*
X6374943Y-11627793D02*
X6374943Y-11580174D01*
X6374943Y-11580174D02*
X6384467Y-11542079D01*
X6384467Y-11542079D02*
X6393991Y-11523031D01*
X6393991Y-11523031D02*
X6403515Y-11513508D01*
X6403515Y-11513508D02*
X6422562Y-11503984D01*
X6613039Y-11503984D02*
X6632086Y-11503984D01*
X6632086Y-11503984D02*
X6651134Y-11513508D01*
X6651134Y-11513508D02*
X6660658Y-11523031D01*
X6660658Y-11523031D02*
X6670182Y-11542079D01*
X6670182Y-11542079D02*
X6679705Y-11580174D01*
X6679705Y-11580174D02*
X6679705Y-11627793D01*
X6679705Y-11627793D02*
X6670182Y-11665888D01*
X6670182Y-11665888D02*
X6660658Y-11684936D01*
X6660658Y-11684936D02*
X6651134Y-11694460D01*
X6651134Y-11694460D02*
X6632086Y-11703984D01*
X6632086Y-11703984D02*
X6613039Y-11703984D01*
X6613039Y-11703984D02*
X6593991Y-11694460D01*
X6593991Y-11694460D02*
X6584467Y-11684936D01*
X6584467Y-11684936D02*
X6574943Y-11665888D01*
X6574943Y-11665888D02*
X6565420Y-11627793D01*
X6565420Y-11627793D02*
X6565420Y-11580174D01*
X6565420Y-11580174D02*
X6574943Y-11542079D01*
X6574943Y-11542079D02*
X6584467Y-11523031D01*
X6584467Y-11523031D02*
X6593991Y-11513508D01*
X6593991Y-11513508D02*
X6613039Y-11503984D01*
X6765420Y-11703984D02*
X6765420Y-11570650D01*
X6765420Y-11589698D02*
X6774943Y-11580174D01*
X6774943Y-11580174D02*
X6793991Y-11570650D01*
X6793991Y-11570650D02*
X6822563Y-11570650D01*
X6822563Y-11570650D02*
X6841610Y-11580174D01*
X6841610Y-11580174D02*
X6851134Y-11599222D01*
X6851134Y-11599222D02*
X6851134Y-11703984D01*
X6851134Y-11599222D02*
X6860658Y-11580174D01*
X6860658Y-11580174D02*
X6879705Y-11570650D01*
X6879705Y-11570650D02*
X6908277Y-11570650D01*
X6908277Y-11570650D02*
X6927324Y-11580174D01*
X6927324Y-11580174D02*
X6936848Y-11599222D01*
X6936848Y-11599222D02*
X6936848Y-11703984D01*
X7032086Y-11703984D02*
X7032086Y-11570650D01*
X7032086Y-11589698D02*
X7041610Y-11580174D01*
X7041610Y-11580174D02*
X7060658Y-11570650D01*
X7060658Y-11570650D02*
X7089229Y-11570650D01*
X7089229Y-11570650D02*
X7108277Y-11580174D01*
X7108277Y-11580174D02*
X7117801Y-11599222D01*
X7117801Y-11599222D02*
X7117801Y-11703984D01*
X7117801Y-11599222D02*
X7127324Y-11580174D01*
X7127324Y-11580174D02*
X7146372Y-11570650D01*
X7146372Y-11570650D02*
X7174943Y-11570650D01*
X7174943Y-11570650D02*
X7193991Y-11580174D01*
X7193991Y-11580174D02*
X7203515Y-11599222D01*
X7203515Y-11599222D02*
X7203515Y-11703984D01*
X7593991Y-11494460D02*
X7422563Y-11751603D01*
X7851134Y-11503984D02*
X7870182Y-11503984D01*
X7870182Y-11503984D02*
X7889229Y-11513508D01*
X7889229Y-11513508D02*
X7898753Y-11523031D01*
X7898753Y-11523031D02*
X7908277Y-11542079D01*
X7908277Y-11542079D02*
X7917801Y-11580174D01*
X7917801Y-11580174D02*
X7917801Y-11627793D01*
X7917801Y-11627793D02*
X7908277Y-11665888D01*
X7908277Y-11665888D02*
X7898753Y-11684936D01*
X7898753Y-11684936D02*
X7889229Y-11694460D01*
X7889229Y-11694460D02*
X7870182Y-11703984D01*
X7870182Y-11703984D02*
X7851134Y-11703984D01*
X7851134Y-11703984D02*
X7832086Y-11694460D01*
X7832086Y-11694460D02*
X7822563Y-11684936D01*
X7822563Y-11684936D02*
X7813039Y-11665888D01*
X7813039Y-11665888D02*
X7803515Y-11627793D01*
X7803515Y-11627793D02*
X7803515Y-11580174D01*
X7803515Y-11580174D02*
X7813039Y-11542079D01*
X7813039Y-11542079D02*
X7822563Y-11523031D01*
X7822563Y-11523031D02*
X7832086Y-11513508D01*
X7832086Y-11513508D02*
X7851134Y-11503984D01*
X8003515Y-11684936D02*
X8013039Y-11694460D01*
X8013039Y-11694460D02*
X8003515Y-11703984D01*
X8003515Y-11703984D02*
X7993991Y-11694460D01*
X7993991Y-11694460D02*
X8003515Y-11684936D01*
X8003515Y-11684936D02*
X8003515Y-11703984D01*
X8203515Y-11703984D02*
X8089229Y-11703984D01*
X8146372Y-11703984D02*
X8146372Y-11503984D01*
X8146372Y-11503984D02*
X8127325Y-11532555D01*
X8127325Y-11532555D02*
X8108277Y-11551603D01*
X8108277Y-11551603D02*
X8089229Y-11561127D01*
X8279706Y-11523031D02*
X8289229Y-11513508D01*
X8289229Y-11513508D02*
X8308277Y-11503984D01*
X8308277Y-11503984D02*
X8355896Y-11503984D01*
X8355896Y-11503984D02*
X8374944Y-11513508D01*
X8374944Y-11513508D02*
X8384467Y-11523031D01*
X8384467Y-11523031D02*
X8393991Y-11542079D01*
X8393991Y-11542079D02*
X8393991Y-11561127D01*
X8393991Y-11561127D02*
X8384467Y-11589698D01*
X8384467Y-11589698D02*
X8270182Y-11703984D01*
X8270182Y-11703984D02*
X8393991Y-11703984D01*
X8565420Y-11503984D02*
X8527325Y-11503984D01*
X8527325Y-11503984D02*
X8508277Y-11513508D01*
X8508277Y-11513508D02*
X8498753Y-11523031D01*
X8498753Y-11523031D02*
X8479706Y-11551603D01*
X8479706Y-11551603D02*
X8470182Y-11589698D01*
X8470182Y-11589698D02*
X8470182Y-11665888D01*
X8470182Y-11665888D02*
X8479706Y-11684936D01*
X8479706Y-11684936D02*
X8489229Y-11694460D01*
X8489229Y-11694460D02*
X8508277Y-11703984D01*
X8508277Y-11703984D02*
X8546372Y-11703984D01*
X8546372Y-11703984D02*
X8565420Y-11694460D01*
X8565420Y-11694460D02*
X8574944Y-11684936D01*
X8574944Y-11684936D02*
X8584468Y-11665888D01*
X8584468Y-11665888D02*
X8584468Y-11618269D01*
X8584468Y-11618269D02*
X8574944Y-11599222D01*
X8574944Y-11599222D02*
X8565420Y-11589698D01*
X8565420Y-11589698D02*
X8546372Y-11580174D01*
X8546372Y-11580174D02*
X8508277Y-11580174D01*
X8508277Y-11580174D02*
X8489229Y-11589698D01*
X8489229Y-11589698D02*
X8479706Y-11599222D01*
X8479706Y-11599222D02*
X8470182Y-11618269D01*
X8708277Y-11503984D02*
X8727325Y-11503984D01*
X8727325Y-11503984D02*
X8746372Y-11513508D01*
X8746372Y-11513508D02*
X8755896Y-11523031D01*
X8755896Y-11523031D02*
X8765420Y-11542079D01*
X8765420Y-11542079D02*
X8774944Y-11580174D01*
X8774944Y-11580174D02*
X8774944Y-11627793D01*
X8774944Y-11627793D02*
X8765420Y-11665888D01*
X8765420Y-11665888D02*
X8755896Y-11684936D01*
X8755896Y-11684936D02*
X8746372Y-11694460D01*
X8746372Y-11694460D02*
X8727325Y-11703984D01*
X8727325Y-11703984D02*
X8708277Y-11703984D01*
X8708277Y-11703984D02*
X8689229Y-11694460D01*
X8689229Y-11694460D02*
X8679706Y-11684936D01*
X8679706Y-11684936D02*
X8670182Y-11665888D01*
X8670182Y-11665888D02*
X8660658Y-11627793D01*
X8660658Y-11627793D02*
X8660658Y-11580174D01*
X8660658Y-11580174D02*
X8670182Y-11542079D01*
X8670182Y-11542079D02*
X8679706Y-11523031D01*
X8679706Y-11523031D02*
X8689229Y-11513508D01*
X8689229Y-11513508D02*
X8708277Y-11503984D01*
X8851134Y-11503984D02*
X8851134Y-11542079D01*
X8927325Y-11503984D02*
X8927325Y-11542079D01*
X9222563Y-11780174D02*
X9213039Y-11770650D01*
X9213039Y-11770650D02*
X9193991Y-11742079D01*
X9193991Y-11742079D02*
X9184468Y-11723031D01*
X9184468Y-11723031D02*
X9174944Y-11694460D01*
X9174944Y-11694460D02*
X9165420Y-11646841D01*
X9165420Y-11646841D02*
X9165420Y-11608746D01*
X9165420Y-11608746D02*
X9174944Y-11561127D01*
X9174944Y-11561127D02*
X9184468Y-11532555D01*
X9184468Y-11532555D02*
X9193991Y-11513508D01*
X9193991Y-11513508D02*
X9213039Y-11484936D01*
X9213039Y-11484936D02*
X9222563Y-11475412D01*
X9384468Y-11570650D02*
X9384468Y-11703984D01*
X9336849Y-11494460D02*
X9289230Y-11637317D01*
X9289230Y-11637317D02*
X9413039Y-11637317D01*
X9641611Y-11703984D02*
X9641611Y-11503984D01*
X9727325Y-11703984D02*
X9727325Y-11599222D01*
X9727325Y-11599222D02*
X9717801Y-11580174D01*
X9717801Y-11580174D02*
X9698753Y-11570650D01*
X9698753Y-11570650D02*
X9670182Y-11570650D01*
X9670182Y-11570650D02*
X9651134Y-11580174D01*
X9651134Y-11580174D02*
X9641611Y-11589698D01*
X9851134Y-11703984D02*
X9832087Y-11694460D01*
X9832087Y-11694460D02*
X9822563Y-11684936D01*
X9822563Y-11684936D02*
X9813039Y-11665888D01*
X9813039Y-11665888D02*
X9813039Y-11608746D01*
X9813039Y-11608746D02*
X9822563Y-11589698D01*
X9822563Y-11589698D02*
X9832087Y-11580174D01*
X9832087Y-11580174D02*
X9851134Y-11570650D01*
X9851134Y-11570650D02*
X9879706Y-11570650D01*
X9879706Y-11570650D02*
X9898753Y-11580174D01*
X9898753Y-11580174D02*
X9908277Y-11589698D01*
X9908277Y-11589698D02*
X9917801Y-11608746D01*
X9917801Y-11608746D02*
X9917801Y-11665888D01*
X9917801Y-11665888D02*
X9908277Y-11684936D01*
X9908277Y-11684936D02*
X9898753Y-11694460D01*
X9898753Y-11694460D02*
X9879706Y-11703984D01*
X9879706Y-11703984D02*
X9851134Y-11703984D01*
X10032087Y-11703984D02*
X10013039Y-11694460D01*
X10013039Y-11694460D02*
X10003515Y-11675412D01*
X10003515Y-11675412D02*
X10003515Y-11503984D01*
X10184468Y-11694460D02*
X10165420Y-11703984D01*
X10165420Y-11703984D02*
X10127325Y-11703984D01*
X10127325Y-11703984D02*
X10108277Y-11694460D01*
X10108277Y-11694460D02*
X10098753Y-11675412D01*
X10098753Y-11675412D02*
X10098753Y-11599222D01*
X10098753Y-11599222D02*
X10108277Y-11580174D01*
X10108277Y-11580174D02*
X10127325Y-11570650D01*
X10127325Y-11570650D02*
X10165420Y-11570650D01*
X10165420Y-11570650D02*
X10184468Y-11580174D01*
X10184468Y-11580174D02*
X10193992Y-11599222D01*
X10193992Y-11599222D02*
X10193992Y-11618269D01*
X10193992Y-11618269D02*
X10098753Y-11637317D01*
X10270182Y-11694460D02*
X10289230Y-11703984D01*
X10289230Y-11703984D02*
X10327325Y-11703984D01*
X10327325Y-11703984D02*
X10346373Y-11694460D01*
X10346373Y-11694460D02*
X10355896Y-11675412D01*
X10355896Y-11675412D02*
X10355896Y-11665888D01*
X10355896Y-11665888D02*
X10346373Y-11646841D01*
X10346373Y-11646841D02*
X10327325Y-11637317D01*
X10327325Y-11637317D02*
X10298753Y-11637317D01*
X10298753Y-11637317D02*
X10279706Y-11627793D01*
X10279706Y-11627793D02*
X10270182Y-11608746D01*
X10270182Y-11608746D02*
X10270182Y-11599222D01*
X10270182Y-11599222D02*
X10279706Y-11580174D01*
X10279706Y-11580174D02*
X10298753Y-11570650D01*
X10298753Y-11570650D02*
X10327325Y-11570650D01*
X10327325Y-11570650D02*
X10346373Y-11580174D01*
X10422563Y-11780174D02*
X10432087Y-11770650D01*
X10432087Y-11770650D02*
X10451134Y-11742079D01*
X10451134Y-11742079D02*
X10460658Y-11723031D01*
X10460658Y-11723031D02*
X10470182Y-11694460D01*
X10470182Y-11694460D02*
X10479706Y-11646841D01*
X10479706Y-11646841D02*
X10479706Y-11608746D01*
X10479706Y-11608746D02*
X10470182Y-11561127D01*
X10470182Y-11561127D02*
X10460658Y-11532555D01*
X10460658Y-11532555D02*
X10451134Y-11513508D01*
X10451134Y-11513508D02*
X10432087Y-11484936D01*
X10432087Y-11484936D02*
X10422563Y-11475412D01*
X10784468Y-11780174D02*
X10774944Y-11770650D01*
X10774944Y-11770650D02*
X10755896Y-11742079D01*
X10755896Y-11742079D02*
X10746373Y-11723031D01*
X10746373Y-11723031D02*
X10736849Y-11694460D01*
X10736849Y-11694460D02*
X10727325Y-11646841D01*
X10727325Y-11646841D02*
X10727325Y-11608746D01*
X10727325Y-11608746D02*
X10736849Y-11561127D01*
X10736849Y-11561127D02*
X10746373Y-11532555D01*
X10746373Y-11532555D02*
X10755896Y-11513508D01*
X10755896Y-11513508D02*
X10774944Y-11484936D01*
X10774944Y-11484936D02*
X10784468Y-11475412D01*
X10860658Y-11570650D02*
X10860658Y-11703984D01*
X10860658Y-11589698D02*
X10870182Y-11580174D01*
X10870182Y-11580174D02*
X10889230Y-11570650D01*
X10889230Y-11570650D02*
X10917801Y-11570650D01*
X10917801Y-11570650D02*
X10936849Y-11580174D01*
X10936849Y-11580174D02*
X10946373Y-11599222D01*
X10946373Y-11599222D02*
X10946373Y-11703984D01*
X11070182Y-11703984D02*
X11051134Y-11694460D01*
X11051134Y-11694460D02*
X11041611Y-11684936D01*
X11041611Y-11684936D02*
X11032087Y-11665888D01*
X11032087Y-11665888D02*
X11032087Y-11608746D01*
X11032087Y-11608746D02*
X11041611Y-11589698D01*
X11041611Y-11589698D02*
X11051134Y-11580174D01*
X11051134Y-11580174D02*
X11070182Y-11570650D01*
X11070182Y-11570650D02*
X11098754Y-11570650D01*
X11098754Y-11570650D02*
X11117801Y-11580174D01*
X11117801Y-11580174D02*
X11127325Y-11589698D01*
X11127325Y-11589698D02*
X11136849Y-11608746D01*
X11136849Y-11608746D02*
X11136849Y-11665888D01*
X11136849Y-11665888D02*
X11127325Y-11684936D01*
X11127325Y-11684936D02*
X11117801Y-11694460D01*
X11117801Y-11694460D02*
X11098754Y-11703984D01*
X11098754Y-11703984D02*
X11070182Y-11703984D01*
X11193992Y-11570650D02*
X11270182Y-11570650D01*
X11222563Y-11503984D02*
X11222563Y-11675412D01*
X11222563Y-11675412D02*
X11232087Y-11694460D01*
X11232087Y-11694460D02*
X11251134Y-11703984D01*
X11251134Y-11703984D02*
X11270182Y-11703984D01*
X11489230Y-11570650D02*
X11489230Y-11770650D01*
X11489230Y-11580174D02*
X11508277Y-11570650D01*
X11508277Y-11570650D02*
X11546373Y-11570650D01*
X11546373Y-11570650D02*
X11565420Y-11580174D01*
X11565420Y-11580174D02*
X11574944Y-11589698D01*
X11574944Y-11589698D02*
X11584468Y-11608746D01*
X11584468Y-11608746D02*
X11584468Y-11665888D01*
X11584468Y-11665888D02*
X11574944Y-11684936D01*
X11574944Y-11684936D02*
X11565420Y-11694460D01*
X11565420Y-11694460D02*
X11546373Y-11703984D01*
X11546373Y-11703984D02*
X11508277Y-11703984D01*
X11508277Y-11703984D02*
X11489230Y-11694460D01*
X11698753Y-11703984D02*
X11679706Y-11694460D01*
X11679706Y-11694460D02*
X11670182Y-11675412D01*
X11670182Y-11675412D02*
X11670182Y-11503984D01*
X11860658Y-11703984D02*
X11860658Y-11599222D01*
X11860658Y-11599222D02*
X11851134Y-11580174D01*
X11851134Y-11580174D02*
X11832087Y-11570650D01*
X11832087Y-11570650D02*
X11793992Y-11570650D01*
X11793992Y-11570650D02*
X11774944Y-11580174D01*
X11860658Y-11694460D02*
X11841611Y-11703984D01*
X11841611Y-11703984D02*
X11793992Y-11703984D01*
X11793992Y-11703984D02*
X11774944Y-11694460D01*
X11774944Y-11694460D02*
X11765420Y-11675412D01*
X11765420Y-11675412D02*
X11765420Y-11656365D01*
X11765420Y-11656365D02*
X11774944Y-11637317D01*
X11774944Y-11637317D02*
X11793992Y-11627793D01*
X11793992Y-11627793D02*
X11841611Y-11627793D01*
X11841611Y-11627793D02*
X11860658Y-11618269D01*
X11927325Y-11570650D02*
X12003515Y-11570650D01*
X11955896Y-11503984D02*
X11955896Y-11675412D01*
X11955896Y-11675412D02*
X11965420Y-11694460D01*
X11965420Y-11694460D02*
X11984468Y-11703984D01*
X11984468Y-11703984D02*
X12003515Y-11703984D01*
X12146373Y-11694460D02*
X12127325Y-11703984D01*
X12127325Y-11703984D02*
X12089230Y-11703984D01*
X12089230Y-11703984D02*
X12070182Y-11694460D01*
X12070182Y-11694460D02*
X12060658Y-11675412D01*
X12060658Y-11675412D02*
X12060658Y-11599222D01*
X12060658Y-11599222D02*
X12070182Y-11580174D01*
X12070182Y-11580174D02*
X12089230Y-11570650D01*
X12089230Y-11570650D02*
X12127325Y-11570650D01*
X12127325Y-11570650D02*
X12146373Y-11580174D01*
X12146373Y-11580174D02*
X12155896Y-11599222D01*
X12155896Y-11599222D02*
X12155896Y-11618269D01*
X12155896Y-11618269D02*
X12060658Y-11637317D01*
X12327325Y-11703984D02*
X12327325Y-11503984D01*
X12327325Y-11694460D02*
X12308277Y-11703984D01*
X12308277Y-11703984D02*
X12270182Y-11703984D01*
X12270182Y-11703984D02*
X12251134Y-11694460D01*
X12251134Y-11694460D02*
X12241611Y-11684936D01*
X12241611Y-11684936D02*
X12232087Y-11665888D01*
X12232087Y-11665888D02*
X12232087Y-11608746D01*
X12232087Y-11608746D02*
X12241611Y-11589698D01*
X12241611Y-11589698D02*
X12251134Y-11580174D01*
X12251134Y-11580174D02*
X12270182Y-11570650D01*
X12270182Y-11570650D02*
X12308277Y-11570650D01*
X12308277Y-11570650D02*
X12327325Y-11580174D01*
X12403515Y-11780174D02*
X12413039Y-11770650D01*
X12413039Y-11770650D02*
X12432087Y-11742079D01*
X12432087Y-11742079D02*
X12441611Y-11723031D01*
X12441611Y-11723031D02*
X12451134Y-11694460D01*
X12451134Y-11694460D02*
X12460658Y-11646841D01*
X12460658Y-11646841D02*
X12460658Y-11608746D01*
X12460658Y-11608746D02*
X12451134Y-11561127D01*
X12451134Y-11561127D02*
X12441611Y-11532555D01*
X12441611Y-11532555D02*
X12432087Y-11513508D01*
X12432087Y-11513508D02*
X12413039Y-11484936D01*
X12413039Y-11484936D02*
X12403515Y-11475412D01*
M02*
