G04 #@! TF.GenerationSoftware,KiCad,Pcbnew,9.0.0*
G04 #@! TF.CreationDate,2025-04-02T18:04:16+02:00*
G04 #@! TF.ProjectId,CapyPower,43617079-506f-4776-9572-2e6b69636164,rev?*
G04 #@! TF.SameCoordinates,Original*
G04 #@! TF.FileFunction,Copper,L1,Top*
G04 #@! TF.FilePolarity,Positive*
%FSLAX46Y46*%
G04 Gerber Fmt 4.6, Leading zero omitted, Abs format (unit mm)*
G04 Created by KiCad (PCBNEW 9.0.0) date 2025-04-02 18:04:16*
%MOMM*%
%LPD*%
G01*
G04 APERTURE LIST*
G04 Aperture macros list*
%AMRoundRect*
0 Rectangle with rounded corners*
0 $1 Rounding radius*
0 $2 $3 $4 $5 $6 $7 $8 $9 X,Y pos of 4 corners*
0 Add a 4 corners polygon primitive as box body*
4,1,4,$2,$3,$4,$5,$6,$7,$8,$9,$2,$3,0*
0 Add four circle primitives for the rounded corners*
1,1,$1+$1,$2,$3*
1,1,$1+$1,$4,$5*
1,1,$1+$1,$6,$7*
1,1,$1+$1,$8,$9*
0 Add four rect primitives between the rounded corners*
20,1,$1+$1,$2,$3,$4,$5,0*
20,1,$1+$1,$4,$5,$6,$7,0*
20,1,$1+$1,$6,$7,$8,$9,0*
20,1,$1+$1,$8,$9,$2,$3,0*%
G04 Aperture macros list end*
G04 #@! TA.AperFunction,ComponentPad*
%ADD10O,1.800000X3.200000*%
G04 #@! TD*
G04 #@! TA.AperFunction,ComponentPad*
%ADD11RoundRect,0.250000X-0.650000X-1.350000X0.650000X-1.350000X0.650000X1.350000X-0.650000X1.350000X0*%
G04 #@! TD*
G04 #@! TA.AperFunction,SMDPad,CuDef*
%ADD12RoundRect,0.147500X-0.147500X-0.172500X0.147500X-0.172500X0.147500X0.172500X-0.147500X0.172500X0*%
G04 #@! TD*
G04 #@! TA.AperFunction,SMDPad,CuDef*
%ADD13RoundRect,0.135000X-0.135000X-0.185000X0.135000X-0.185000X0.135000X0.185000X-0.135000X0.185000X0*%
G04 #@! TD*
G04 #@! TA.AperFunction,ComponentPad*
%ADD14C,1.508000*%
G04 #@! TD*
G04 #@! TA.AperFunction,ComponentPad*
%ADD15C,2.550000*%
G04 #@! TD*
G04 #@! TA.AperFunction,ComponentPad*
%ADD16R,2.550000X2.550000*%
G04 #@! TD*
G04 #@! TA.AperFunction,ComponentPad*
%ADD17C,2.000000*%
G04 #@! TD*
G04 #@! TA.AperFunction,ComponentPad*
%ADD18R,8.000000X2.000000*%
G04 #@! TD*
G04 #@! TA.AperFunction,ComponentPad*
%ADD19R,2.000000X8.000000*%
G04 #@! TD*
G04 #@! TA.AperFunction,SMDPad,CuDef*
%ADD20RoundRect,0.135000X0.135000X0.185000X-0.135000X0.185000X-0.135000X-0.185000X0.135000X-0.185000X0*%
G04 #@! TD*
G04 #@! TA.AperFunction,SMDPad,CuDef*
%ADD21RoundRect,0.135000X-0.185000X0.135000X-0.185000X-0.135000X0.185000X-0.135000X0.185000X0.135000X0*%
G04 #@! TD*
G04 #@! TA.AperFunction,ComponentPad*
%ADD22RoundRect,0.250000X0.650000X1.350000X-0.650000X1.350000X-0.650000X-1.350000X0.650000X-1.350000X0*%
G04 #@! TD*
G04 #@! TA.AperFunction,ComponentPad*
%ADD23RoundRect,0.393701X0.606299X1.106299X-0.606299X1.106299X-0.606299X-1.106299X0.606299X-1.106299X0*%
G04 #@! TD*
G04 #@! TA.AperFunction,SMDPad,CuDef*
%ADD24RoundRect,0.147500X0.147500X0.172500X-0.147500X0.172500X-0.147500X-0.172500X0.147500X-0.172500X0*%
G04 #@! TD*
G04 #@! TA.AperFunction,SMDPad,CuDef*
%ADD25RoundRect,0.147500X0.172500X-0.147500X0.172500X0.147500X-0.172500X0.147500X-0.172500X-0.147500X0*%
G04 #@! TD*
G04 #@! TA.AperFunction,ComponentPad*
%ADD26R,2.200000X2.200000*%
G04 #@! TD*
G04 #@! TA.AperFunction,ComponentPad*
%ADD27O,2.200000X2.200000*%
G04 #@! TD*
G04 #@! TA.AperFunction,ViaPad*
%ADD28C,3.200000*%
G04 #@! TD*
G04 #@! TA.AperFunction,ViaPad*
%ADD29C,0.600000*%
G04 #@! TD*
G04 #@! TA.AperFunction,Conductor*
%ADD30C,0.508000*%
G04 #@! TD*
G04 #@! TA.AperFunction,Conductor*
%ADD31C,0.254000*%
G04 #@! TD*
G04 #@! TA.AperFunction,Conductor*
%ADD32C,0.200000*%
G04 #@! TD*
G04 APERTURE END LIST*
D10*
X77140000Y-94100000D03*
X77140000Y-89100000D03*
D11*
X74600000Y-94100000D03*
X74600000Y-89100000D03*
D10*
X67650000Y-94050000D03*
X67650000Y-89050000D03*
D11*
X65110000Y-94050000D03*
X65110000Y-89050000D03*
D12*
X69685000Y-52550000D03*
X68715000Y-52550000D03*
D13*
X72350000Y-52550000D03*
X71330000Y-52550000D03*
D14*
X146100000Y-64400000D03*
X146100000Y-75400000D03*
D15*
X136100000Y-72400000D03*
D16*
X136100000Y-67400000D03*
D17*
X67620000Y-79700000D03*
X65080000Y-79700000D03*
X74670000Y-79650000D03*
X72130000Y-79650000D03*
D18*
X91350000Y-70900000D03*
X100850000Y-62500000D03*
X100850000Y-79300000D03*
D19*
X101350000Y-70900000D03*
X108850000Y-70900000D03*
D16*
X95000000Y-86194250D03*
D15*
X90000000Y-86194250D03*
D14*
X87000000Y-96194250D03*
X98000000Y-96194250D03*
D16*
X109800000Y-86244250D03*
D15*
X104800000Y-86244250D03*
D14*
X101800000Y-96244250D03*
X112800000Y-96244250D03*
D16*
X136100000Y-83100000D03*
D15*
X136100000Y-88100000D03*
D14*
X146100000Y-91100000D03*
X146100000Y-80100000D03*
D16*
X136094250Y-51700000D03*
D15*
X136094250Y-56700000D03*
D14*
X146094250Y-59700000D03*
X146094250Y-48700000D03*
D16*
X70700000Y-70600000D03*
D15*
X70700000Y-65600000D03*
D14*
X60700000Y-62600000D03*
X60700000Y-73600000D03*
D13*
X71540000Y-48950000D03*
X72560000Y-48950000D03*
X71590000Y-45350000D03*
X72610000Y-45350000D03*
D20*
X120910000Y-96800000D03*
X119890000Y-96800000D03*
X120842500Y-94100000D03*
X119822500Y-94100000D03*
D13*
X130452500Y-55600000D03*
X131472500Y-55600000D03*
X130602500Y-52600000D03*
X131622500Y-52600000D03*
D20*
X131600000Y-49600000D03*
X130580000Y-49600000D03*
D21*
X82850000Y-86520000D03*
X82850000Y-87540000D03*
X82850000Y-91880000D03*
X82850000Y-92900000D03*
D22*
X79600000Y-50900000D03*
X79600000Y-45900000D03*
D10*
X77060000Y-50900000D03*
X77060000Y-45900000D03*
D22*
X90450000Y-50900000D03*
X90450000Y-45900000D03*
D10*
X87910000Y-50900000D03*
X87910000Y-45900000D03*
D22*
X100990000Y-50850000D03*
X100990000Y-45850000D03*
D10*
X98450000Y-50850000D03*
X98450000Y-45850000D03*
D22*
X116900000Y-50850000D03*
X116900000Y-45850000D03*
D10*
X114360000Y-50850000D03*
X114360000Y-45850000D03*
X111820000Y-50850000D03*
X111820000Y-45850000D03*
X109280000Y-50850000D03*
X109280000Y-45850000D03*
D23*
X129550000Y-86075000D03*
X125850000Y-86075000D03*
X121850000Y-86075000D03*
X118150000Y-86075000D03*
X129550000Y-80075000D03*
X125850000Y-80075000D03*
X121850000Y-80075000D03*
X118150000Y-80075000D03*
X129550000Y-74075000D03*
X125850000Y-74075000D03*
X121850000Y-74075000D03*
X118150000Y-74075000D03*
X129550000Y-68075000D03*
X125850000Y-68075000D03*
X121850000Y-68075000D03*
X118150000Y-68075000D03*
X129550000Y-62075000D03*
X125850000Y-62075000D03*
X121850000Y-62075000D03*
X118150000Y-62075000D03*
D12*
X68715000Y-48950000D03*
X69685000Y-48950000D03*
X68715000Y-45350000D03*
X69685000Y-45350000D03*
D24*
X124235000Y-96800000D03*
X123265000Y-96800000D03*
X124217500Y-94100000D03*
X123247500Y-94100000D03*
D12*
X127127500Y-55600000D03*
X128097500Y-55600000D03*
X127177500Y-52600000D03*
X128147500Y-52600000D03*
X127215000Y-49600000D03*
X128185000Y-49600000D03*
D25*
X82850000Y-90160000D03*
X82850000Y-89190000D03*
X82850000Y-95307500D03*
X82850000Y-94337500D03*
D26*
X81150000Y-62440000D03*
D27*
X81150000Y-72600000D03*
D28*
X147650000Y-42500000D03*
X59250000Y-97400000D03*
X59250000Y-42500000D03*
D29*
X132410000Y-62785000D03*
X133000000Y-69300000D03*
X126062500Y-55600000D03*
X126062500Y-52600000D03*
X126050000Y-49600000D03*
X119900000Y-95850000D03*
X120950000Y-90000000D03*
X125800000Y-95650000D03*
X68750000Y-47200000D03*
X68715000Y-51350000D03*
X83950000Y-90150000D03*
X84000000Y-95300000D03*
D28*
X147600000Y-97500000D03*
D30*
X126062500Y-55600000D02*
X127127500Y-55600000D01*
X125850000Y-57400000D02*
X125300000Y-56850000D01*
X125850000Y-62075000D02*
X125850000Y-57400000D01*
X133994250Y-49600000D02*
X131600000Y-49600000D01*
X136094250Y-51700000D02*
X133994250Y-49600000D01*
X133250000Y-54227500D02*
X131622500Y-52600000D01*
X133250000Y-60550000D02*
X133250000Y-54227500D01*
X136100000Y-63400000D02*
X133250000Y-60550000D01*
X136100000Y-67400000D02*
X136100000Y-63400000D01*
X128147500Y-52600000D02*
X130602500Y-52600000D01*
X126062500Y-52600000D02*
X127177500Y-52600000D01*
X131500000Y-59100000D02*
X132410000Y-60010000D01*
X131500000Y-55627500D02*
X131500000Y-59100000D01*
X131472500Y-55600000D02*
X131500000Y-55627500D01*
X132410000Y-60010000D02*
X132410000Y-62785000D01*
D31*
X69685000Y-52550000D02*
X71330000Y-52550000D01*
X68715000Y-48950000D02*
X68715000Y-52550000D01*
D30*
X130225000Y-67400000D02*
X136100000Y-67400000D01*
X129550000Y-68075000D02*
X130225000Y-67400000D01*
X133000000Y-69300000D02*
X133000000Y-70625000D01*
X133000000Y-70625000D02*
X129550000Y-74075000D01*
X136100000Y-81450000D02*
X134050000Y-79400000D01*
X136100000Y-83100000D02*
X136100000Y-81450000D01*
X113250000Y-83650000D02*
X112250000Y-82650000D01*
X112250000Y-82650000D02*
X97300000Y-82650000D01*
X95000000Y-84950000D02*
X95000000Y-86550000D01*
X113250000Y-87600000D02*
X113250000Y-83650000D01*
X115650000Y-90000000D02*
X113250000Y-87600000D01*
X120950000Y-90000000D02*
X115650000Y-90000000D01*
X97300000Y-82650000D02*
X95000000Y-84950000D01*
X132850000Y-82225000D02*
X132850000Y-88850000D01*
X132850000Y-88850000D02*
X130300000Y-91400000D01*
X130700000Y-80075000D02*
X132850000Y-82225000D01*
X129550000Y-80075000D02*
X130700000Y-80075000D01*
X130300000Y-91400000D02*
X114100000Y-91400000D01*
X132410000Y-62785000D02*
X132450000Y-62825000D01*
X134050000Y-79400000D02*
X128650000Y-74000000D01*
X125850000Y-74075000D02*
X129550000Y-74075000D01*
X125850000Y-68075000D02*
X129550000Y-68075000D01*
X125850000Y-62075000D02*
X129550000Y-62075000D01*
X128097500Y-55600000D02*
X130402500Y-55600000D01*
X123215000Y-96800000D02*
X123265000Y-96850000D01*
X120910000Y-96800000D02*
X123215000Y-96800000D01*
X123197500Y-94100000D02*
X123247500Y-94050000D01*
X120842500Y-94100000D02*
X123197500Y-94100000D01*
X119890000Y-95860000D02*
X119900000Y-95850000D01*
X119890000Y-96800000D02*
X119890000Y-95860000D01*
X116800000Y-94100000D02*
X114100000Y-91400000D01*
X119822500Y-94100000D02*
X116800000Y-94100000D01*
X124950000Y-86000000D02*
X120950000Y-90000000D01*
X125850000Y-86075000D02*
X129550000Y-86075000D01*
X109800000Y-87100000D02*
X109800000Y-86400000D01*
X114100000Y-91400000D02*
X109800000Y-87100000D01*
X125850000Y-80075000D02*
X129550000Y-80075000D01*
D31*
X125150000Y-94050000D02*
X124217500Y-94050000D01*
X125800000Y-94700000D02*
X125150000Y-94050000D01*
X125800000Y-95650000D02*
X125800000Y-94700000D01*
X125800000Y-96350000D02*
X125300000Y-96850000D01*
X125300000Y-96850000D02*
X124235000Y-96850000D01*
X125800000Y-95650000D02*
X125800000Y-96350000D01*
X69685000Y-48950000D02*
X71540000Y-48950000D01*
X68750000Y-48915000D02*
X68715000Y-48950000D01*
X68750000Y-47200000D02*
X68750000Y-48915000D01*
X68750000Y-45684999D02*
X68765000Y-45669999D01*
X68750000Y-47200000D02*
X68750000Y-45684999D01*
X68765000Y-45669999D02*
X68765000Y-45350000D01*
X71590000Y-45350000D02*
X69735000Y-45350000D01*
X100790000Y-62440000D02*
X100850000Y-62500000D01*
X81150000Y-62440000D02*
X100790000Y-62440000D01*
D30*
X95400000Y-76850000D02*
X101350000Y-70900000D01*
X82850000Y-83450000D02*
X89450000Y-76850000D01*
X82850000Y-86520000D02*
X82850000Y-83450000D01*
X89450000Y-76850000D02*
X95400000Y-76850000D01*
D31*
X82850000Y-94337500D02*
X82850000Y-92900000D01*
X79700000Y-92050000D02*
X80300000Y-91450000D01*
X80300000Y-91450000D02*
X82420000Y-91450000D01*
X79700000Y-96450000D02*
X79700000Y-92050000D01*
X75800000Y-96700000D02*
X79450000Y-96700000D01*
X79450000Y-96700000D02*
X79700000Y-96450000D01*
X74650000Y-95550000D02*
X75800000Y-96700000D01*
X74650000Y-93250000D02*
X74650000Y-95550000D01*
X82420000Y-91450000D02*
X82850000Y-91880000D01*
X82850000Y-89190000D02*
X82850000Y-87540000D01*
D32*
X83940000Y-90160000D02*
X83950000Y-90150000D01*
D31*
X82850000Y-90160000D02*
X83940000Y-90160000D01*
D32*
X83992500Y-95307500D02*
X84000000Y-95300000D01*
D31*
X82850000Y-95307500D02*
X83992500Y-95307500D01*
X74650000Y-88250000D02*
X74650000Y-93250000D01*
D32*
X74670000Y-88230000D02*
X74650000Y-88250000D01*
D31*
X74670000Y-79650000D02*
X74670000Y-88230000D01*
D32*
X77190000Y-77650000D02*
X77190000Y-88250000D01*
X74130000Y-77650000D02*
X77190000Y-77650000D01*
X72130000Y-79650000D02*
X74130000Y-77650000D01*
X77190000Y-93250000D02*
X77190000Y-88250000D01*
D31*
X65160000Y-88200000D02*
X65160000Y-93200000D01*
X65160000Y-85890000D02*
X65160000Y-88200000D01*
X67620000Y-79700000D02*
X67620000Y-83430000D01*
X67620000Y-83430000D02*
X65160000Y-85890000D01*
X67620000Y-79700000D02*
X72080000Y-79700000D01*
D32*
X72080000Y-79700000D02*
X72130000Y-79650000D01*
D30*
X131600000Y-49280001D02*
X131600000Y-49600000D01*
X130819999Y-48500000D02*
X131600000Y-49280001D01*
X125300000Y-48500000D02*
X130819999Y-48500000D01*
X125300000Y-49282268D02*
X125300000Y-48500000D01*
X125295000Y-49912732D02*
X125295000Y-49287268D01*
X125300000Y-49917732D02*
X125295000Y-49912732D01*
X125300000Y-56850000D02*
X125300000Y-49917732D01*
X125295000Y-49287268D02*
X125300000Y-49282268D01*
G04 #@! TA.AperFunction,Conductor*
G36*
X96726437Y-68399564D02*
G01*
X96793407Y-68419485D01*
X96838975Y-68472450D01*
X96850000Y-68523563D01*
X96850000Y-74281613D01*
X96830315Y-74348652D01*
X96813681Y-74369294D01*
X95123794Y-76059181D01*
X95062471Y-76092666D01*
X95036113Y-76095500D01*
X89530446Y-76095500D01*
X89530426Y-76095499D01*
X89524312Y-76095499D01*
X89375688Y-76095499D01*
X89375686Y-76095499D01*
X89254105Y-76119684D01*
X89239540Y-76122581D01*
X89229918Y-76124495D01*
X89229917Y-76124495D01*
X89173045Y-76148052D01*
X89173045Y-76148053D01*
X89092611Y-76181370D01*
X89092609Y-76181371D01*
X88969031Y-76263942D01*
X88964319Y-76267810D01*
X88963518Y-76266834D01*
X88907970Y-76297166D01*
X88881612Y-76300000D01*
X70099999Y-76300000D01*
X69650000Y-76749999D01*
X69650000Y-78948500D01*
X69630315Y-79015539D01*
X69577511Y-79061294D01*
X69526000Y-79072500D01*
X69060311Y-79072500D01*
X68993272Y-79052815D01*
X68949826Y-79004795D01*
X68903342Y-78913566D01*
X68764517Y-78722490D01*
X68597510Y-78555483D01*
X68406433Y-78416657D01*
X68195996Y-78309433D01*
X67971368Y-78236446D01*
X67738097Y-78199500D01*
X67738092Y-78199500D01*
X67501908Y-78199500D01*
X67501903Y-78199500D01*
X67268631Y-78236446D01*
X67044003Y-78309433D01*
X66833566Y-78416657D01*
X66762748Y-78468110D01*
X66642490Y-78555483D01*
X66642488Y-78555485D01*
X66642487Y-78555485D01*
X66475482Y-78722490D01*
X66432451Y-78781717D01*
X66377120Y-78824382D01*
X66322405Y-78832448D01*
X66302658Y-78830893D01*
X65757577Y-79375974D01*
X65744641Y-79344742D01*
X65662563Y-79221903D01*
X65558097Y-79117437D01*
X65435258Y-79035359D01*
X65404024Y-79022421D01*
X65949105Y-78477340D01*
X65949104Y-78477338D01*
X65866174Y-78417087D01*
X65655802Y-78309897D01*
X65431247Y-78236934D01*
X65431248Y-78236934D01*
X65198052Y-78200000D01*
X64961948Y-78200000D01*
X64728752Y-78236934D01*
X64504197Y-78309897D01*
X64293830Y-78417084D01*
X64210894Y-78477340D01*
X64755975Y-79022421D01*
X64724742Y-79035359D01*
X64601903Y-79117437D01*
X64497437Y-79221903D01*
X64415359Y-79344742D01*
X64402421Y-79375975D01*
X63857340Y-78830894D01*
X63797084Y-78913830D01*
X63689897Y-79124197D01*
X63616934Y-79348752D01*
X63580000Y-79581947D01*
X63580000Y-79818052D01*
X63616934Y-80051247D01*
X63689897Y-80275802D01*
X63797087Y-80486174D01*
X63857338Y-80569104D01*
X63857340Y-80569105D01*
X64402421Y-80024024D01*
X64415359Y-80055258D01*
X64497437Y-80178097D01*
X64601903Y-80282563D01*
X64724742Y-80364641D01*
X64755974Y-80377578D01*
X64210893Y-80922658D01*
X64293828Y-80982914D01*
X64504197Y-81090102D01*
X64728752Y-81163065D01*
X64728751Y-81163065D01*
X64961948Y-81200000D01*
X65198052Y-81200000D01*
X65431247Y-81163065D01*
X65655802Y-81090102D01*
X65866163Y-80982918D01*
X65866169Y-80982914D01*
X65949104Y-80922658D01*
X65949105Y-80922658D01*
X65404024Y-80377578D01*
X65435258Y-80364641D01*
X65558097Y-80282563D01*
X65662563Y-80178097D01*
X65744641Y-80055258D01*
X65757578Y-80024024D01*
X66302657Y-80569104D01*
X66322404Y-80567550D01*
X66390781Y-80581914D01*
X66432451Y-80618282D01*
X66475483Y-80677510D01*
X66642490Y-80844517D01*
X66750042Y-80922658D01*
X66833568Y-80983344D01*
X66924794Y-81029825D01*
X66975590Y-81077799D01*
X66992500Y-81140310D01*
X66992500Y-83118719D01*
X66972815Y-83185758D01*
X66956181Y-83206400D01*
X64759992Y-85402589D01*
X64716289Y-85446292D01*
X64672586Y-85489994D01*
X64672585Y-85489996D01*
X64603233Y-85593789D01*
X64601586Y-85598393D01*
X64556614Y-85706964D01*
X64556612Y-85706972D01*
X64532500Y-85828192D01*
X64532500Y-86825500D01*
X64512815Y-86892539D01*
X64460011Y-86938294D01*
X64413098Y-86948514D01*
X64413141Y-86949341D01*
X64409980Y-86949501D01*
X64307203Y-86960000D01*
X64307200Y-86960001D01*
X64140668Y-87015185D01*
X64140663Y-87015187D01*
X63991342Y-87107289D01*
X63867289Y-87231342D01*
X63775187Y-87380663D01*
X63775185Y-87380668D01*
X63756201Y-87437958D01*
X63720001Y-87547203D01*
X63720001Y-87547204D01*
X63720000Y-87547204D01*
X63709500Y-87649983D01*
X63709500Y-90450001D01*
X63709501Y-90450018D01*
X63720000Y-90552796D01*
X63720001Y-90552799D01*
X63724673Y-90566897D01*
X63775186Y-90719334D01*
X63867288Y-90868656D01*
X63991344Y-90992712D01*
X64140666Y-91084814D01*
X64307203Y-91139999D01*
X64409991Y-91150500D01*
X64410003Y-91150499D01*
X64413139Y-91150660D01*
X64413130Y-91150820D01*
X64413132Y-91150821D01*
X64413129Y-91150844D01*
X64413077Y-91151861D01*
X64475477Y-91170143D01*
X64521263Y-91222920D01*
X64532500Y-91274499D01*
X64532500Y-91825500D01*
X64512815Y-91892539D01*
X64460011Y-91938294D01*
X64413098Y-91948514D01*
X64413141Y-91949341D01*
X64409980Y-91949501D01*
X64307203Y-91960000D01*
X64307200Y-91960001D01*
X64140668Y-92015185D01*
X64140663Y-92015187D01*
X63991342Y-92107289D01*
X63867289Y-92231342D01*
X63775187Y-92380663D01*
X63775185Y-92380668D01*
X63756201Y-92437958D01*
X63720001Y-92547203D01*
X63720001Y-92547204D01*
X63720000Y-92547204D01*
X63709500Y-92649983D01*
X63709500Y-95450001D01*
X63709501Y-95450018D01*
X63720000Y-95552796D01*
X63720001Y-95552799D01*
X63756201Y-95662041D01*
X63775186Y-95719334D01*
X63867288Y-95868656D01*
X63991344Y-95992712D01*
X64140666Y-96084814D01*
X64307203Y-96139999D01*
X64409991Y-96150500D01*
X65810008Y-96150499D01*
X65912797Y-96139999D01*
X66079334Y-96084814D01*
X66228656Y-95992712D01*
X66352712Y-95868656D01*
X66436733Y-95732434D01*
X66488679Y-95685711D01*
X66557642Y-95674488D01*
X66621724Y-95702331D01*
X66629952Y-95709851D01*
X66737958Y-95817857D01*
X66916239Y-95947386D01*
X67112589Y-96047432D01*
X67322163Y-96115526D01*
X67399999Y-96127854D01*
X67400000Y-96127854D01*
X67400000Y-94540747D01*
X67437708Y-94562518D01*
X67577591Y-94600000D01*
X67722409Y-94600000D01*
X67862292Y-94562518D01*
X67900000Y-94540747D01*
X67900000Y-96127854D01*
X67977834Y-96115526D01*
X67977837Y-96115526D01*
X68187410Y-96047432D01*
X68383760Y-95947386D01*
X68562041Y-95817857D01*
X68717857Y-95662041D01*
X68847386Y-95483760D01*
X68947432Y-95287410D01*
X69015526Y-95077835D01*
X69050000Y-94860181D01*
X69050000Y-94300000D01*
X68140748Y-94300000D01*
X68162518Y-94262292D01*
X68200000Y-94122409D01*
X68200000Y-93977591D01*
X68162518Y-93837708D01*
X68140748Y-93800000D01*
X69050000Y-93800000D01*
X69050000Y-93239818D01*
X69015526Y-93022164D01*
X68947432Y-92812589D01*
X68847386Y-92616239D01*
X68717857Y-92437958D01*
X68562041Y-92282142D01*
X68383760Y-92152613D01*
X68187410Y-92052567D01*
X67977836Y-91984473D01*
X67900000Y-91972144D01*
X67900000Y-93559252D01*
X67862292Y-93537482D01*
X67722409Y-93500000D01*
X67577591Y-93500000D01*
X67437708Y-93537482D01*
X67400000Y-93559252D01*
X67400000Y-91972144D01*
X67322164Y-91984473D01*
X67322161Y-91984473D01*
X67112589Y-92052567D01*
X66916239Y-92152613D01*
X66737962Y-92282139D01*
X66629952Y-92390149D01*
X66568629Y-92423633D01*
X66498937Y-92418649D01*
X66443004Y-92376777D01*
X66436732Y-92367563D01*
X66352712Y-92231344D01*
X66228657Y-92107289D01*
X66228656Y-92107288D01*
X66079334Y-92015186D01*
X65912797Y-91960001D01*
X65912793Y-91960000D01*
X65912787Y-91959999D01*
X65898892Y-91958579D01*
X65834201Y-91932180D01*
X65794053Y-91874998D01*
X65787500Y-91835222D01*
X65787500Y-91264776D01*
X65807185Y-91197737D01*
X65859989Y-91151982D01*
X65898901Y-91141418D01*
X65912797Y-91139999D01*
X66079334Y-91084814D01*
X66228656Y-90992712D01*
X66352712Y-90868656D01*
X66436733Y-90732434D01*
X66488679Y-90685711D01*
X66557642Y-90674488D01*
X66621724Y-90702331D01*
X66629952Y-90709851D01*
X66737958Y-90817857D01*
X66916239Y-90947386D01*
X67112589Y-91047432D01*
X67322163Y-91115526D01*
X67399999Y-91127854D01*
X67400000Y-91127854D01*
X67400000Y-89540747D01*
X67437708Y-89562518D01*
X67577591Y-89600000D01*
X67722409Y-89600000D01*
X67862292Y-89562518D01*
X67900000Y-89540747D01*
X67900000Y-91127854D01*
X67977834Y-91115526D01*
X67977837Y-91115526D01*
X68187410Y-91047432D01*
X68383760Y-90947386D01*
X68562041Y-90817857D01*
X68717857Y-90662041D01*
X68847386Y-90483760D01*
X68947432Y-90287410D01*
X69015526Y-90077835D01*
X69050000Y-89860181D01*
X69050000Y-89300000D01*
X68140748Y-89300000D01*
X68162518Y-89262292D01*
X68200000Y-89122409D01*
X68200000Y-88977591D01*
X68162518Y-88837708D01*
X68140748Y-88800000D01*
X69050000Y-88800000D01*
X69050000Y-88239818D01*
X69015526Y-88022164D01*
X68947432Y-87812589D01*
X68847386Y-87616239D01*
X68717857Y-87437958D01*
X68562041Y-87282142D01*
X68383760Y-87152613D01*
X68187410Y-87052567D01*
X67977836Y-86984473D01*
X67900000Y-86972144D01*
X67900000Y-88559252D01*
X67862292Y-88537482D01*
X67722409Y-88500000D01*
X67577591Y-88500000D01*
X67437708Y-88537482D01*
X67400000Y-88559252D01*
X67400000Y-86972144D01*
X67322164Y-86984473D01*
X67322161Y-86984473D01*
X67112589Y-87052567D01*
X66916239Y-87152613D01*
X66737962Y-87282139D01*
X66629952Y-87390149D01*
X66568629Y-87423633D01*
X66498937Y-87418649D01*
X66443004Y-87376777D01*
X66436732Y-87367563D01*
X66352712Y-87231344D01*
X66228657Y-87107289D01*
X66228656Y-87107288D01*
X66135888Y-87050069D01*
X66079336Y-87015187D01*
X66079331Y-87015185D01*
X66063687Y-87010001D01*
X65912797Y-86960001D01*
X65912793Y-86960000D01*
X65912787Y-86959999D01*
X65898892Y-86958579D01*
X65834201Y-86932180D01*
X65794053Y-86874998D01*
X65787500Y-86835222D01*
X65787500Y-86201281D01*
X65807185Y-86134242D01*
X65823819Y-86113600D01*
X68107408Y-83830011D01*
X68107411Y-83830008D01*
X68176083Y-83727233D01*
X68223385Y-83613035D01*
X68247500Y-83491804D01*
X68247500Y-83368197D01*
X68247500Y-81140310D01*
X68267185Y-81073271D01*
X68315206Y-81029825D01*
X68406431Y-80983344D01*
X68406430Y-80983344D01*
X68406433Y-80983343D01*
X68597510Y-80844517D01*
X68764517Y-80677510D01*
X68903343Y-80486433D01*
X68949826Y-80395205D01*
X68997801Y-80344409D01*
X69060311Y-80327500D01*
X69526000Y-80327500D01*
X69593039Y-80347185D01*
X69638794Y-80399989D01*
X69650000Y-80451500D01*
X69650000Y-97126000D01*
X69630315Y-97193039D01*
X69577511Y-97238794D01*
X69526000Y-97250000D01*
X62651362Y-97250000D01*
X62584323Y-97230315D01*
X62563681Y-97213681D01*
X61436319Y-96086319D01*
X61402834Y-96024996D01*
X61400000Y-95998638D01*
X61400000Y-78538907D01*
X61405651Y-78519659D01*
X61406391Y-78499611D01*
X61418792Y-78474907D01*
X61419685Y-78471868D01*
X61422197Y-78468110D01*
X65594542Y-72474038D01*
X79549500Y-72474038D01*
X79549500Y-72725961D01*
X79588910Y-72974785D01*
X79666760Y-73214383D01*
X79781132Y-73438848D01*
X79929201Y-73642649D01*
X79929205Y-73642654D01*
X80107345Y-73820794D01*
X80107350Y-73820798D01*
X80285117Y-73949952D01*
X80311155Y-73968870D01*
X80454184Y-74041747D01*
X80535616Y-74083239D01*
X80535618Y-74083239D01*
X80535621Y-74083241D01*
X80775215Y-74161090D01*
X81024038Y-74200500D01*
X81024039Y-74200500D01*
X81275961Y-74200500D01*
X81275962Y-74200500D01*
X81524785Y-74161090D01*
X81764379Y-74083241D01*
X81988845Y-73968870D01*
X82192656Y-73820793D01*
X82370793Y-73642656D01*
X82518870Y-73438845D01*
X82633241Y-73214379D01*
X82711090Y-72974785D01*
X82750500Y-72725962D01*
X82750500Y-72474038D01*
X82711090Y-72225215D01*
X82633241Y-71985621D01*
X82633239Y-71985618D01*
X82633239Y-71985616D01*
X82591747Y-71904184D01*
X82518870Y-71761155D01*
X82499952Y-71735117D01*
X82370798Y-71557350D01*
X82370794Y-71557345D01*
X82192654Y-71379205D01*
X82192649Y-71379201D01*
X81988848Y-71231132D01*
X81988847Y-71231131D01*
X81988845Y-71231130D01*
X81945654Y-71209123D01*
X81764383Y-71116760D01*
X81524785Y-71038910D01*
X81275962Y-70999500D01*
X81024038Y-70999500D01*
X80899626Y-71019205D01*
X80775214Y-71038910D01*
X80535616Y-71116760D01*
X80311151Y-71231132D01*
X80107350Y-71379201D01*
X80107345Y-71379205D01*
X79929205Y-71557345D01*
X79929201Y-71557350D01*
X79781132Y-71761151D01*
X79666760Y-71985616D01*
X79588910Y-72225214D01*
X79549500Y-72474038D01*
X65594542Y-72474038D01*
X67819823Y-69277155D01*
X68925000Y-69277155D01*
X68925000Y-70350000D01*
X69883520Y-70350000D01*
X69882665Y-70352064D01*
X69850000Y-70516282D01*
X69850000Y-70683718D01*
X69882665Y-70847936D01*
X69883520Y-70850000D01*
X68925000Y-70850000D01*
X68925000Y-71922844D01*
X68931401Y-71982372D01*
X68931403Y-71982379D01*
X68981645Y-72117086D01*
X68981649Y-72117093D01*
X69067809Y-72232187D01*
X69067812Y-72232190D01*
X69182906Y-72318350D01*
X69182913Y-72318354D01*
X69317620Y-72368596D01*
X69317627Y-72368598D01*
X69377155Y-72374999D01*
X69377172Y-72375000D01*
X70450000Y-72375000D01*
X70450000Y-71416480D01*
X70452064Y-71417335D01*
X70616282Y-71450000D01*
X70783718Y-71450000D01*
X70947936Y-71417335D01*
X70950000Y-71416480D01*
X70950000Y-72375000D01*
X72022828Y-72375000D01*
X72022844Y-72374999D01*
X72082372Y-72368598D01*
X72082379Y-72368596D01*
X72124240Y-72352984D01*
X72217086Y-72318354D01*
X72217093Y-72318350D01*
X72332187Y-72232190D01*
X72332190Y-72232187D01*
X72418350Y-72117093D01*
X72418354Y-72117086D01*
X72468596Y-71982379D01*
X72468598Y-71982372D01*
X72474999Y-71922844D01*
X72475000Y-71922827D01*
X72475000Y-70850000D01*
X71516480Y-70850000D01*
X71517335Y-70847936D01*
X71550000Y-70683718D01*
X71550000Y-70516282D01*
X71517335Y-70352064D01*
X71516480Y-70350000D01*
X72475000Y-70350000D01*
X72475000Y-69852155D01*
X86850000Y-69852155D01*
X86850000Y-70650000D01*
X87641759Y-70650000D01*
X87628822Y-70681233D01*
X87600000Y-70826131D01*
X87600000Y-70973869D01*
X87628822Y-71118767D01*
X87641759Y-71150000D01*
X86850000Y-71150000D01*
X86850000Y-71947844D01*
X86856401Y-72007372D01*
X86856403Y-72007379D01*
X86906645Y-72142086D01*
X86906649Y-72142093D01*
X86992809Y-72257187D01*
X86992812Y-72257190D01*
X87107906Y-72343350D01*
X87107913Y-72343354D01*
X87242620Y-72393596D01*
X87242627Y-72393598D01*
X87302155Y-72399999D01*
X87302172Y-72400000D01*
X91100000Y-72400000D01*
X91100000Y-71650000D01*
X91600000Y-71650000D01*
X91600000Y-72400000D01*
X95397828Y-72400000D01*
X95397844Y-72399999D01*
X95457372Y-72393598D01*
X95457379Y-72393596D01*
X95592086Y-72343354D01*
X95592093Y-72343350D01*
X95707187Y-72257190D01*
X95707190Y-72257187D01*
X95793350Y-72142093D01*
X95793354Y-72142086D01*
X95843596Y-72007379D01*
X95843598Y-72007372D01*
X95849999Y-71947844D01*
X95850000Y-71947827D01*
X95850000Y-71150000D01*
X95058241Y-71150000D01*
X95071178Y-71118767D01*
X95100000Y-70973869D01*
X95100000Y-70826131D01*
X95071178Y-70681233D01*
X95058241Y-70650000D01*
X95850000Y-70650000D01*
X95850000Y-69852172D01*
X95849999Y-69852155D01*
X95843598Y-69792627D01*
X95843596Y-69792620D01*
X95793354Y-69657913D01*
X95793350Y-69657906D01*
X95707190Y-69542812D01*
X95707187Y-69542809D01*
X95592093Y-69456649D01*
X95592086Y-69456645D01*
X95457379Y-69406403D01*
X95457372Y-69406401D01*
X95397844Y-69400000D01*
X91600000Y-69400000D01*
X91600000Y-70150000D01*
X91100000Y-70150000D01*
X91100000Y-69400000D01*
X87302155Y-69400000D01*
X87242627Y-69406401D01*
X87242620Y-69406403D01*
X87107913Y-69456645D01*
X87107906Y-69456649D01*
X86992812Y-69542809D01*
X86992809Y-69542812D01*
X86906649Y-69657906D01*
X86906645Y-69657913D01*
X86856403Y-69792620D01*
X86856401Y-69792627D01*
X86850000Y-69852155D01*
X72475000Y-69852155D01*
X72475000Y-69277172D01*
X72474999Y-69277155D01*
X72468598Y-69217627D01*
X72468596Y-69217620D01*
X72418354Y-69082913D01*
X72418350Y-69082906D01*
X72332190Y-68967812D01*
X72332187Y-68967809D01*
X72217093Y-68881649D01*
X72217086Y-68881645D01*
X72082379Y-68831403D01*
X72082372Y-68831401D01*
X72022844Y-68825000D01*
X70950000Y-68825000D01*
X70950000Y-69783519D01*
X70947936Y-69782665D01*
X70783718Y-69750000D01*
X70616282Y-69750000D01*
X70452064Y-69782665D01*
X70450000Y-69783519D01*
X70450000Y-68825000D01*
X69377155Y-68825000D01*
X69317627Y-68831401D01*
X69317620Y-68831403D01*
X69182913Y-68881645D01*
X69182906Y-68881649D01*
X69067812Y-68967809D01*
X69067809Y-68967812D01*
X68981649Y-69082906D01*
X68981645Y-69082913D01*
X68931403Y-69217620D01*
X68931401Y-69217627D01*
X68925000Y-69277155D01*
X67819823Y-69277155D01*
X68462839Y-68353386D01*
X68517294Y-68309611D01*
X68565044Y-68300229D01*
X96726437Y-68399564D01*
G37*
G04 #@! TD.AperFunction*
G04 #@! TA.AperFunction,Conductor*
G36*
X98127932Y-43569685D02*
G01*
X98173687Y-43622489D01*
X98183631Y-43691647D01*
X98154606Y-43755203D01*
X98099211Y-43791931D01*
X97912589Y-43852567D01*
X97716239Y-43952613D01*
X97537958Y-44082142D01*
X97382142Y-44237958D01*
X97252613Y-44416239D01*
X97152567Y-44612589D01*
X97084473Y-44822164D01*
X97050000Y-45039818D01*
X97050000Y-45600000D01*
X97959252Y-45600000D01*
X97937482Y-45637708D01*
X97900000Y-45777591D01*
X97900000Y-45922409D01*
X97937482Y-46062292D01*
X97959252Y-46100000D01*
X97050000Y-46100000D01*
X97050000Y-46660181D01*
X97084473Y-46877835D01*
X97152567Y-47087410D01*
X97252613Y-47283760D01*
X97382142Y-47462041D01*
X97537958Y-47617857D01*
X97716239Y-47747386D01*
X97912589Y-47847432D01*
X98122163Y-47915526D01*
X98199999Y-47927854D01*
X98200000Y-47927854D01*
X98200000Y-46340747D01*
X98237708Y-46362518D01*
X98377591Y-46400000D01*
X98522409Y-46400000D01*
X98662292Y-46362518D01*
X98700000Y-46340747D01*
X98700000Y-47927854D01*
X98777834Y-47915526D01*
X98777837Y-47915526D01*
X98987410Y-47847432D01*
X99183760Y-47747386D01*
X99362037Y-47617860D01*
X99470046Y-47509851D01*
X99531369Y-47476366D01*
X99601061Y-47481350D01*
X99656995Y-47523221D01*
X99663263Y-47532430D01*
X99747288Y-47668656D01*
X99871344Y-47792712D01*
X100020666Y-47884814D01*
X100187203Y-47939999D01*
X100289991Y-47950500D01*
X101690008Y-47950499D01*
X101792797Y-47939999D01*
X101959334Y-47884814D01*
X102108656Y-47792712D01*
X102232712Y-47668656D01*
X102324814Y-47519334D01*
X102379999Y-47352797D01*
X102390500Y-47250009D01*
X102390499Y-45850000D01*
X102390499Y-44449998D01*
X102390498Y-44449981D01*
X102379999Y-44347203D01*
X102379998Y-44347200D01*
X102356242Y-44275510D01*
X102324814Y-44180666D01*
X102232712Y-44031344D01*
X102108656Y-43907288D01*
X102015888Y-43850069D01*
X101959336Y-43815187D01*
X101959331Y-43815185D01*
X101958278Y-43814836D01*
X101888473Y-43791705D01*
X101831030Y-43751933D01*
X101804207Y-43687417D01*
X101816522Y-43618642D01*
X101864065Y-43567442D01*
X101927479Y-43550000D01*
X108890893Y-43550000D01*
X108957932Y-43569685D01*
X109003687Y-43622489D01*
X109013631Y-43691647D01*
X108984606Y-43755203D01*
X108929211Y-43791931D01*
X108742589Y-43852567D01*
X108546239Y-43952613D01*
X108367958Y-44082142D01*
X108212142Y-44237958D01*
X108082613Y-44416239D01*
X107982567Y-44612589D01*
X107914473Y-44822164D01*
X107880000Y-45039818D01*
X107880000Y-45600000D01*
X108789252Y-45600000D01*
X108767482Y-45637708D01*
X108730000Y-45777591D01*
X108730000Y-45922409D01*
X108767482Y-46062292D01*
X108789252Y-46100000D01*
X107880000Y-46100000D01*
X107880000Y-46660181D01*
X107914473Y-46877835D01*
X107982567Y-47087410D01*
X108082613Y-47283760D01*
X108212142Y-47462041D01*
X108367958Y-47617857D01*
X108546239Y-47747386D01*
X108742589Y-47847432D01*
X108952163Y-47915526D01*
X109029999Y-47927854D01*
X109030000Y-47927854D01*
X109030000Y-46340747D01*
X109067708Y-46362518D01*
X109207591Y-46400000D01*
X109352409Y-46400000D01*
X109492292Y-46362518D01*
X109530000Y-46340747D01*
X109530000Y-47927854D01*
X109607834Y-47915526D01*
X109607837Y-47915526D01*
X109817410Y-47847432D01*
X110013760Y-47747386D01*
X110192041Y-47617857D01*
X110347857Y-47462041D01*
X110347862Y-47462035D01*
X110449372Y-47322319D01*
X110504702Y-47279653D01*
X110574315Y-47273674D01*
X110636110Y-47306279D01*
X110650008Y-47322319D01*
X110751752Y-47462358D01*
X110751756Y-47462363D01*
X110907636Y-47618243D01*
X110907641Y-47618247D01*
X110979514Y-47670465D01*
X111085978Y-47747815D01*
X111183266Y-47797386D01*
X111282393Y-47847895D01*
X111282396Y-47847896D01*
X111387221Y-47881955D01*
X111492049Y-47916015D01*
X111709778Y-47950500D01*
X111709779Y-47950500D01*
X111930221Y-47950500D01*
X111930222Y-47950500D01*
X112147951Y-47916015D01*
X112357606Y-47847895D01*
X112554022Y-47747815D01*
X112732365Y-47618242D01*
X112888242Y-47462365D01*
X112888242Y-47462364D01*
X112888319Y-47462288D01*
X112949642Y-47428803D01*
X113019334Y-47433787D01*
X113075267Y-47475659D01*
X113099684Y-47541123D01*
X113100000Y-47549969D01*
X113100000Y-49150031D01*
X113080315Y-49217070D01*
X113027511Y-49262825D01*
X112958353Y-49272769D01*
X112894797Y-49243744D01*
X112888319Y-49237712D01*
X112732363Y-49081756D01*
X112732358Y-49081752D01*
X112554025Y-48952187D01*
X112554024Y-48952186D01*
X112554022Y-48952185D01*
X112465908Y-48907288D01*
X112357606Y-48852104D01*
X112357603Y-48852103D01*
X112147952Y-48783985D01*
X111996516Y-48760000D01*
X111930222Y-48749500D01*
X111709778Y-48749500D01*
X111643484Y-48760000D01*
X111492047Y-48783985D01*
X111282396Y-48852103D01*
X111282393Y-48852104D01*
X111085974Y-48952187D01*
X110907641Y-49081752D01*
X110907636Y-49081756D01*
X110751756Y-49237636D01*
X110650008Y-49377681D01*
X110594678Y-49420346D01*
X110525065Y-49426325D01*
X110463270Y-49393719D01*
X110449372Y-49377680D01*
X110347862Y-49237964D01*
X110347857Y-49237958D01*
X110192041Y-49082142D01*
X110013760Y-48952613D01*
X109817410Y-48852567D01*
X109607836Y-48784473D01*
X109530000Y-48772144D01*
X109530000Y-50359252D01*
X109492292Y-50337482D01*
X109352409Y-50300000D01*
X109207591Y-50300000D01*
X109067708Y-50337482D01*
X109030000Y-50359252D01*
X109030000Y-48772144D01*
X108952164Y-48784473D01*
X108952161Y-48784473D01*
X108742589Y-48852567D01*
X108546239Y-48952613D01*
X108367958Y-49082142D01*
X108212142Y-49237958D01*
X108082613Y-49416239D01*
X107982567Y-49612589D01*
X107914473Y-49822164D01*
X107880000Y-50039818D01*
X107880000Y-50600000D01*
X108789252Y-50600000D01*
X108767482Y-50637708D01*
X108730000Y-50777591D01*
X108730000Y-50922409D01*
X108767482Y-51062292D01*
X108789252Y-51100000D01*
X107880000Y-51100000D01*
X107880000Y-51660181D01*
X107914473Y-51877835D01*
X107982567Y-52087410D01*
X108082613Y-52283760D01*
X108212142Y-52462041D01*
X108367958Y-52617857D01*
X108546239Y-52747386D01*
X108742589Y-52847432D01*
X108952163Y-52915526D01*
X109029999Y-52927854D01*
X109030000Y-52927854D01*
X109030000Y-51340747D01*
X109067708Y-51362518D01*
X109207591Y-51400000D01*
X109352409Y-51400000D01*
X109492292Y-51362518D01*
X109530000Y-51340747D01*
X109530000Y-52927854D01*
X109607834Y-52915526D01*
X109607837Y-52915526D01*
X109817410Y-52847432D01*
X110013760Y-52747386D01*
X110192041Y-52617857D01*
X110347857Y-52462041D01*
X110347862Y-52462035D01*
X110449372Y-52322319D01*
X110504702Y-52279653D01*
X110574315Y-52273674D01*
X110636110Y-52306279D01*
X110650008Y-52322319D01*
X110751752Y-52462358D01*
X110751756Y-52462363D01*
X110907636Y-52618243D01*
X110907641Y-52618247D01*
X111045844Y-52718656D01*
X111085978Y-52747815D01*
X111188396Y-52800000D01*
X111282393Y-52847895D01*
X111282396Y-52847896D01*
X111387221Y-52881955D01*
X111492049Y-52916015D01*
X111709778Y-52950500D01*
X111709779Y-52950500D01*
X111930221Y-52950500D01*
X111930222Y-52950500D01*
X112147951Y-52916015D01*
X112357606Y-52847895D01*
X112554022Y-52747815D01*
X112732365Y-52618242D01*
X112888242Y-52462365D01*
X112888242Y-52462364D01*
X112888319Y-52462288D01*
X112949642Y-52428803D01*
X113019334Y-52433787D01*
X113075267Y-52475659D01*
X113099684Y-52541123D01*
X113100000Y-52549969D01*
X113100000Y-75676000D01*
X113080315Y-75743039D01*
X113027511Y-75788794D01*
X112976000Y-75800000D01*
X106874000Y-75800000D01*
X106806961Y-75780315D01*
X106761206Y-75727511D01*
X106750000Y-75676000D01*
X106750000Y-66852155D01*
X107350000Y-66852155D01*
X107350000Y-70650000D01*
X108100000Y-70650000D01*
X108100000Y-71150000D01*
X107350000Y-71150000D01*
X107350000Y-74947844D01*
X107356401Y-75007372D01*
X107356403Y-75007379D01*
X107406645Y-75142086D01*
X107406649Y-75142093D01*
X107492809Y-75257187D01*
X107492812Y-75257190D01*
X107607906Y-75343350D01*
X107607913Y-75343354D01*
X107742620Y-75393596D01*
X107742627Y-75393598D01*
X107802155Y-75399999D01*
X107802172Y-75400000D01*
X108600000Y-75400000D01*
X108600000Y-74608240D01*
X108631233Y-74621178D01*
X108776131Y-74650000D01*
X108923869Y-74650000D01*
X109068767Y-74621178D01*
X109100000Y-74608240D01*
X109100000Y-75400000D01*
X109897828Y-75400000D01*
X109897844Y-75399999D01*
X109957372Y-75393598D01*
X109957379Y-75393596D01*
X110092086Y-75343354D01*
X110092093Y-75343350D01*
X110207187Y-75257190D01*
X110207190Y-75257187D01*
X110293350Y-75142093D01*
X110293354Y-75142086D01*
X110343596Y-75007379D01*
X110343598Y-75007372D01*
X110349999Y-74947844D01*
X110350000Y-74947827D01*
X110350000Y-71150000D01*
X109600000Y-71150000D01*
X109600000Y-70650000D01*
X110350000Y-70650000D01*
X110350000Y-66852172D01*
X110349999Y-66852155D01*
X110343598Y-66792627D01*
X110343596Y-66792620D01*
X110293354Y-66657913D01*
X110293350Y-66657906D01*
X110207190Y-66542812D01*
X110207187Y-66542809D01*
X110092093Y-66456649D01*
X110092086Y-66456645D01*
X109957379Y-66406403D01*
X109957372Y-66406401D01*
X109897844Y-66400000D01*
X109100000Y-66400000D01*
X109100000Y-67191759D01*
X109068767Y-67178822D01*
X108923869Y-67150000D01*
X108776131Y-67150000D01*
X108631233Y-67178822D01*
X108600000Y-67191759D01*
X108600000Y-66400000D01*
X107802155Y-66400000D01*
X107742627Y-66406401D01*
X107742620Y-66406403D01*
X107607913Y-66456645D01*
X107607906Y-66456649D01*
X107492812Y-66542809D01*
X107492809Y-66542812D01*
X107406649Y-66657906D01*
X107406645Y-66657913D01*
X107356403Y-66792620D01*
X107356401Y-66792627D01*
X107350000Y-66852155D01*
X106750000Y-66852155D01*
X106750000Y-57799999D01*
X67124156Y-57849843D01*
X67057092Y-57830243D01*
X67011271Y-57777496D01*
X67000000Y-57725843D01*
X67000000Y-51271153D01*
X67914500Y-51271153D01*
X67914500Y-51428846D01*
X67945261Y-51583489D01*
X67945264Y-51583501D01*
X68005603Y-51729174D01*
X68005604Y-51729175D01*
X68005606Y-51729179D01*
X68066602Y-51820465D01*
X68072252Y-51838511D01*
X68082477Y-51854421D01*
X68086928Y-51885380D01*
X68087480Y-51887142D01*
X68087500Y-51889356D01*
X68087500Y-51889727D01*
X68067815Y-51956766D01*
X68052582Y-51975668D01*
X68051408Y-51977182D01*
X67968068Y-52118104D01*
X67968066Y-52118107D01*
X67922391Y-52275320D01*
X67922390Y-52275326D01*
X67919500Y-52312052D01*
X67919500Y-52787947D01*
X67922390Y-52824673D01*
X67922391Y-52824679D01*
X67968066Y-52981892D01*
X67968068Y-52981895D01*
X67968069Y-52981897D01*
X67979070Y-53000498D01*
X68051408Y-53122817D01*
X68051414Y-53122825D01*
X68167174Y-53238585D01*
X68167178Y-53238588D01*
X68167180Y-53238590D01*
X68308103Y-53321931D01*
X68308104Y-53321931D01*
X68308107Y-53321933D01*
X68465320Y-53367608D01*
X68465323Y-53367608D01*
X68465325Y-53367609D01*
X68502060Y-53370500D01*
X68502068Y-53370500D01*
X68927932Y-53370500D01*
X68927940Y-53370500D01*
X68964675Y-53367609D01*
X68964677Y-53367608D01*
X68964679Y-53367608D01*
X69121892Y-53321933D01*
X69121892Y-53321932D01*
X69121897Y-53321931D01*
X69136879Y-53313070D01*
X69204601Y-53295887D01*
X69263120Y-53313070D01*
X69278103Y-53321931D01*
X69278105Y-53321931D01*
X69278106Y-53321932D01*
X69278107Y-53321933D01*
X69435320Y-53367608D01*
X69435323Y-53367608D01*
X69435325Y-53367609D01*
X69472060Y-53370500D01*
X69472068Y-53370500D01*
X69897932Y-53370500D01*
X69897940Y-53370500D01*
X69934675Y-53367609D01*
X69934677Y-53367608D01*
X69934679Y-53367608D01*
X70091892Y-53321933D01*
X70091893Y-53321932D01*
X70091897Y-53321931D01*
X70232820Y-53238590D01*
X70232825Y-53238585D01*
X70257592Y-53213819D01*
X70318915Y-53180334D01*
X70345273Y-53177500D01*
X70687404Y-53177500D01*
X70754443Y-53197185D01*
X70775085Y-53213819D01*
X70802396Y-53241130D01*
X70802400Y-53241133D01*
X70802402Y-53241135D01*
X70940607Y-53322869D01*
X70981268Y-53334682D01*
X71094791Y-53367664D01*
X71094794Y-53367664D01*
X71094796Y-53367665D01*
X71130819Y-53370500D01*
X71529180Y-53370499D01*
X71565204Y-53367665D01*
X71719393Y-53322869D01*
X71777369Y-53288581D01*
X71845093Y-53271398D01*
X71903612Y-53288581D01*
X71960805Y-53322404D01*
X72100000Y-53362844D01*
X72100000Y-53362843D01*
X72600000Y-53362843D01*
X72739194Y-53322404D01*
X72877285Y-53240738D01*
X72877294Y-53240731D01*
X72990731Y-53127294D01*
X72990738Y-53127285D01*
X73072406Y-52989191D01*
X73072407Y-52989188D01*
X73117166Y-52835128D01*
X73117167Y-52835122D01*
X73119931Y-52800000D01*
X72600000Y-52800000D01*
X72600000Y-53362843D01*
X72100000Y-53362843D01*
X72100000Y-52810408D01*
X72100004Y-52809404D01*
X72100039Y-52805034D01*
X72100500Y-52799181D01*
X72100499Y-52300820D01*
X72100434Y-52300000D01*
X72100382Y-52299332D01*
X72100000Y-52289607D01*
X72100000Y-51737154D01*
X72600000Y-51737154D01*
X72600000Y-52300000D01*
X73119931Y-52300000D01*
X73117167Y-52264877D01*
X73117166Y-52264871D01*
X73072407Y-52110811D01*
X73072406Y-52110808D01*
X72990738Y-51972714D01*
X72990731Y-51972705D01*
X72877294Y-51859268D01*
X72877285Y-51859261D01*
X72739191Y-51777593D01*
X72739188Y-51777591D01*
X72600001Y-51737153D01*
X72600000Y-51737154D01*
X72100000Y-51737154D01*
X72099998Y-51737153D01*
X71960811Y-51777591D01*
X71960810Y-51777592D01*
X71903611Y-51811419D01*
X71835886Y-51828600D01*
X71777371Y-51811419D01*
X71720174Y-51777593D01*
X71719393Y-51777131D01*
X71719392Y-51777130D01*
X71719391Y-51777130D01*
X71719388Y-51777129D01*
X71565208Y-51732335D01*
X71565202Y-51732334D01*
X71529181Y-51729500D01*
X71130830Y-51729500D01*
X71130808Y-51729501D01*
X71094794Y-51732335D01*
X70940611Y-51777129D01*
X70940606Y-51777131D01*
X70802404Y-51858863D01*
X70802396Y-51858869D01*
X70775085Y-51886181D01*
X70713762Y-51919666D01*
X70687404Y-51922500D01*
X70345273Y-51922500D01*
X70278234Y-51902815D01*
X70257592Y-51886181D01*
X70232825Y-51861414D01*
X70232817Y-51861408D01*
X70091895Y-51778068D01*
X70091892Y-51778066D01*
X69934679Y-51732391D01*
X69934673Y-51732390D01*
X69897947Y-51729500D01*
X69897940Y-51729500D01*
X69606790Y-51729500D01*
X69539751Y-51709815D01*
X69493996Y-51657011D01*
X69484052Y-51587853D01*
X69485173Y-51581309D01*
X69515499Y-51428846D01*
X69515500Y-51428844D01*
X69515500Y-51271155D01*
X69515499Y-51271153D01*
X69485996Y-51122829D01*
X69484738Y-51116507D01*
X69484735Y-51116498D01*
X69424397Y-50970827D01*
X69424390Y-50970814D01*
X69363398Y-50879533D01*
X69342520Y-50812855D01*
X69342500Y-50810642D01*
X69342500Y-50089818D01*
X75660000Y-50089818D01*
X75660000Y-50650000D01*
X76569252Y-50650000D01*
X76547482Y-50687708D01*
X76510000Y-50827591D01*
X76510000Y-50972409D01*
X76547482Y-51112292D01*
X76569252Y-51150000D01*
X75660000Y-51150000D01*
X75660000Y-51710181D01*
X75694473Y-51927835D01*
X75762567Y-52137410D01*
X75862613Y-52333760D01*
X75992142Y-52512041D01*
X76147958Y-52667857D01*
X76326239Y-52797386D01*
X76522589Y-52897432D01*
X76732163Y-52965526D01*
X76809999Y-52977854D01*
X76810000Y-52977854D01*
X76810000Y-51390747D01*
X76847708Y-51412518D01*
X76987591Y-51450000D01*
X77132409Y-51450000D01*
X77272292Y-51412518D01*
X77310000Y-51390747D01*
X77310000Y-52977854D01*
X77387834Y-52965526D01*
X77387837Y-52965526D01*
X77597410Y-52897432D01*
X77793760Y-52797386D01*
X77972037Y-52667860D01*
X78080046Y-52559851D01*
X78141369Y-52526366D01*
X78211061Y-52531350D01*
X78266995Y-52573221D01*
X78273263Y-52582430D01*
X78357288Y-52718656D01*
X78481344Y-52842712D01*
X78630666Y-52934814D01*
X78797203Y-52989999D01*
X78899991Y-53000500D01*
X80300008Y-53000499D01*
X80402797Y-52989999D01*
X80569334Y-52934814D01*
X80718656Y-52842712D01*
X80842712Y-52718656D01*
X80934814Y-52569334D01*
X80989999Y-52402797D01*
X81000500Y-52300009D01*
X81000499Y-50089818D01*
X86510000Y-50089818D01*
X86510000Y-50650000D01*
X87419252Y-50650000D01*
X87397482Y-50687708D01*
X87360000Y-50827591D01*
X87360000Y-50972409D01*
X87397482Y-51112292D01*
X87419252Y-51150000D01*
X86510000Y-51150000D01*
X86510000Y-51710181D01*
X86544473Y-51927835D01*
X86612567Y-52137410D01*
X86712613Y-52333760D01*
X86842142Y-52512041D01*
X86997958Y-52667857D01*
X87176239Y-52797386D01*
X87372589Y-52897432D01*
X87582163Y-52965526D01*
X87659999Y-52977854D01*
X87660000Y-52977854D01*
X87660000Y-51390747D01*
X87697708Y-51412518D01*
X87837591Y-51450000D01*
X87982409Y-51450000D01*
X88122292Y-51412518D01*
X88160000Y-51390747D01*
X88160000Y-52977854D01*
X88237834Y-52965526D01*
X88237837Y-52965526D01*
X88447410Y-52897432D01*
X88643760Y-52797386D01*
X88822037Y-52667860D01*
X88930046Y-52559851D01*
X88991369Y-52526366D01*
X89061061Y-52531350D01*
X89116995Y-52573221D01*
X89123263Y-52582430D01*
X89207288Y-52718656D01*
X89331344Y-52842712D01*
X89480666Y-52934814D01*
X89647203Y-52989999D01*
X89749991Y-53000500D01*
X91150008Y-53000499D01*
X91252797Y-52989999D01*
X91419334Y-52934814D01*
X91568656Y-52842712D01*
X91692712Y-52718656D01*
X91784814Y-52569334D01*
X91839999Y-52402797D01*
X91850500Y-52300009D01*
X91850499Y-50039818D01*
X97050000Y-50039818D01*
X97050000Y-50600000D01*
X97959252Y-50600000D01*
X97937482Y-50637708D01*
X97900000Y-50777591D01*
X97900000Y-50922409D01*
X97937482Y-51062292D01*
X97959252Y-51100000D01*
X97050000Y-51100000D01*
X97050000Y-51660181D01*
X97084473Y-51877835D01*
X97152567Y-52087410D01*
X97252613Y-52283760D01*
X97382142Y-52462041D01*
X97537958Y-52617857D01*
X97716239Y-52747386D01*
X97912589Y-52847432D01*
X98122163Y-52915526D01*
X98199999Y-52927854D01*
X98200000Y-52927854D01*
X98200000Y-51340747D01*
X98237708Y-51362518D01*
X98377591Y-51400000D01*
X98522409Y-51400000D01*
X98662292Y-51362518D01*
X98700000Y-51340747D01*
X98700000Y-52927854D01*
X98777834Y-52915526D01*
X98777837Y-52915526D01*
X98987410Y-52847432D01*
X99183760Y-52747386D01*
X99362037Y-52617860D01*
X99470046Y-52509851D01*
X99531369Y-52476366D01*
X99601061Y-52481350D01*
X99656995Y-52523221D01*
X99663263Y-52532430D01*
X99747288Y-52668656D01*
X99871344Y-52792712D01*
X100020666Y-52884814D01*
X100187203Y-52939999D01*
X100289991Y-52950500D01*
X101690008Y-52950499D01*
X101792797Y-52939999D01*
X101959334Y-52884814D01*
X102108656Y-52792712D01*
X102232712Y-52668656D01*
X102324814Y-52519334D01*
X102379999Y-52352797D01*
X102390500Y-52250009D01*
X102390499Y-49449992D01*
X102387024Y-49415978D01*
X102379999Y-49347203D01*
X102379998Y-49347200D01*
X102355334Y-49272769D01*
X102324814Y-49180666D01*
X102232712Y-49031344D01*
X102108656Y-48907288D01*
X102015888Y-48850069D01*
X101959336Y-48815187D01*
X101959331Y-48815185D01*
X101943684Y-48810000D01*
X101792797Y-48760001D01*
X101792795Y-48760000D01*
X101690010Y-48749500D01*
X100289998Y-48749500D01*
X100289981Y-48749501D01*
X100187203Y-48760000D01*
X100187200Y-48760001D01*
X100020668Y-48815185D01*
X100020663Y-48815187D01*
X99871342Y-48907289D01*
X99747289Y-49031342D01*
X99663267Y-49167564D01*
X99611319Y-49214288D01*
X99542356Y-49225510D01*
X99478274Y-49197667D01*
X99470047Y-49190148D01*
X99362041Y-49082142D01*
X99183760Y-48952613D01*
X98987410Y-48852567D01*
X98777836Y-48784473D01*
X98700000Y-48772144D01*
X98700000Y-50359252D01*
X98662292Y-50337482D01*
X98522409Y-50300000D01*
X98377591Y-50300000D01*
X98237708Y-50337482D01*
X98200000Y-50359252D01*
X98200000Y-48772144D01*
X98122164Y-48784473D01*
X98122161Y-48784473D01*
X97912589Y-48852567D01*
X97716239Y-48952613D01*
X97537958Y-49082142D01*
X97382142Y-49237958D01*
X97252613Y-49416239D01*
X97152567Y-49612589D01*
X97084473Y-49822164D01*
X97050000Y-50039818D01*
X91850499Y-50039818D01*
X91850499Y-49499992D01*
X91845391Y-49449992D01*
X91839999Y-49397203D01*
X91839998Y-49397200D01*
X91784814Y-49230666D01*
X91692712Y-49081344D01*
X91568656Y-48957288D01*
X91419334Y-48865186D01*
X91252797Y-48810001D01*
X91252795Y-48810000D01*
X91150010Y-48799500D01*
X89749998Y-48799500D01*
X89749981Y-48799501D01*
X89647203Y-48810000D01*
X89647200Y-48810001D01*
X89480668Y-48865185D01*
X89480663Y-48865187D01*
X89331342Y-48957289D01*
X89207289Y-49081342D01*
X89123267Y-49217564D01*
X89071319Y-49264288D01*
X89002356Y-49275510D01*
X88938274Y-49247667D01*
X88930047Y-49240148D01*
X88822041Y-49132142D01*
X88643760Y-49002613D01*
X88447410Y-48902567D01*
X88237836Y-48834473D01*
X88160000Y-48822144D01*
X88160000Y-50409252D01*
X88122292Y-50387482D01*
X87982409Y-50350000D01*
X87837591Y-50350000D01*
X87697708Y-50387482D01*
X87660000Y-50409252D01*
X87660000Y-48822144D01*
X87582164Y-48834473D01*
X87582161Y-48834473D01*
X87372589Y-48902567D01*
X87176239Y-49002613D01*
X86997958Y-49132142D01*
X86842142Y-49287958D01*
X86712613Y-49466239D01*
X86612567Y-49662589D01*
X86544473Y-49872164D01*
X86510000Y-50089818D01*
X81000499Y-50089818D01*
X81000499Y-49499992D01*
X80995391Y-49449992D01*
X80989999Y-49397203D01*
X80989998Y-49397200D01*
X80934814Y-49230666D01*
X80842712Y-49081344D01*
X80718656Y-48957288D01*
X80569334Y-48865186D01*
X80402797Y-48810001D01*
X80402795Y-48810000D01*
X80300010Y-48799500D01*
X78899998Y-48799500D01*
X78899981Y-48799501D01*
X78797203Y-48810000D01*
X78797200Y-48810001D01*
X78630668Y-48865185D01*
X78630663Y-48865187D01*
X78481342Y-48957289D01*
X78357289Y-49081342D01*
X78273267Y-49217564D01*
X78221319Y-49264288D01*
X78152356Y-49275510D01*
X78088274Y-49247667D01*
X78080047Y-49240148D01*
X77972041Y-49132142D01*
X77793760Y-49002613D01*
X77597410Y-48902567D01*
X77387836Y-48834473D01*
X77310000Y-48822144D01*
X77310000Y-50409252D01*
X77272292Y-50387482D01*
X77132409Y-50350000D01*
X76987591Y-50350000D01*
X76847708Y-50387482D01*
X76810000Y-50409252D01*
X76810000Y-48822144D01*
X76732164Y-48834473D01*
X76732161Y-48834473D01*
X76522589Y-48902567D01*
X76326239Y-49002613D01*
X76147958Y-49132142D01*
X75992142Y-49287958D01*
X75862613Y-49466239D01*
X75762567Y-49662589D01*
X75694473Y-49872164D01*
X75660000Y-50089818D01*
X69342500Y-50089818D01*
X69342500Y-49894377D01*
X69362185Y-49827338D01*
X69414989Y-49781583D01*
X69469625Y-49770818D01*
X69469625Y-49770500D01*
X69471240Y-49770500D01*
X69471377Y-49770473D01*
X69472056Y-49770499D01*
X69472060Y-49770500D01*
X69472063Y-49770500D01*
X69897932Y-49770500D01*
X69897940Y-49770500D01*
X69934675Y-49767609D01*
X69934677Y-49767608D01*
X69934679Y-49767608D01*
X70091892Y-49721933D01*
X70091893Y-49721932D01*
X70091897Y-49721931D01*
X70232820Y-49638590D01*
X70232825Y-49638585D01*
X70257592Y-49613819D01*
X70318915Y-49580334D01*
X70345273Y-49577500D01*
X70897404Y-49577500D01*
X70964443Y-49597185D01*
X70985085Y-49613819D01*
X71012396Y-49641130D01*
X71012400Y-49641133D01*
X71012402Y-49641135D01*
X71150607Y-49722869D01*
X71191268Y-49734682D01*
X71304791Y-49767664D01*
X71304794Y-49767664D01*
X71304796Y-49767665D01*
X71340819Y-49770500D01*
X71739180Y-49770499D01*
X71775204Y-49767665D01*
X71929393Y-49722869D01*
X71987369Y-49688581D01*
X72055093Y-49671398D01*
X72113612Y-49688581D01*
X72170805Y-49722404D01*
X72310000Y-49762844D01*
X72310000Y-49762843D01*
X72810000Y-49762843D01*
X72949194Y-49722404D01*
X73087285Y-49640738D01*
X73087294Y-49640731D01*
X73200731Y-49527294D01*
X73200738Y-49527285D01*
X73282406Y-49389191D01*
X73282407Y-49389188D01*
X73327166Y-49235128D01*
X73327167Y-49235122D01*
X73329931Y-49200000D01*
X72810000Y-49200000D01*
X72810000Y-49762843D01*
X72310000Y-49762843D01*
X72310000Y-49210408D01*
X72310004Y-49209404D01*
X72310039Y-49205034D01*
X72310500Y-49199181D01*
X72310499Y-48700820D01*
X72310434Y-48700000D01*
X72310382Y-48699332D01*
X72310000Y-48689607D01*
X72310000Y-48137154D01*
X72810000Y-48137154D01*
X72810000Y-48700000D01*
X73329931Y-48700000D01*
X73327167Y-48664877D01*
X73327166Y-48664871D01*
X73282407Y-48510811D01*
X73282406Y-48510808D01*
X73200738Y-48372714D01*
X73200731Y-48372705D01*
X73087294Y-48259268D01*
X73087285Y-48259261D01*
X72949191Y-48177593D01*
X72949188Y-48177591D01*
X72810001Y-48137153D01*
X72810000Y-48137154D01*
X72310000Y-48137154D01*
X72309998Y-48137153D01*
X72170811Y-48177591D01*
X72170810Y-48177592D01*
X72113611Y-48211419D01*
X72045886Y-48228600D01*
X71987371Y-48211419D01*
X71930174Y-48177593D01*
X71929393Y-48177131D01*
X71929392Y-48177130D01*
X71929391Y-48177130D01*
X71929388Y-48177129D01*
X71775208Y-48132335D01*
X71775202Y-48132334D01*
X71739181Y-48129500D01*
X71340830Y-48129500D01*
X71340808Y-48129501D01*
X71304794Y-48132335D01*
X71150611Y-48177129D01*
X71150606Y-48177131D01*
X71012404Y-48258863D01*
X71012396Y-48258869D01*
X70985085Y-48286181D01*
X70923762Y-48319666D01*
X70897404Y-48322500D01*
X70345273Y-48322500D01*
X70278234Y-48302815D01*
X70257592Y-48286181D01*
X70232825Y-48261414D01*
X70232817Y-48261408D01*
X70091895Y-48178068D01*
X70091892Y-48178066D01*
X69934679Y-48132391D01*
X69934673Y-48132390D01*
X69897947Y-48129500D01*
X69897940Y-48129500D01*
X69501500Y-48129500D01*
X69434461Y-48109815D01*
X69388706Y-48057011D01*
X69377500Y-48005500D01*
X69377500Y-47739356D01*
X69397185Y-47672317D01*
X69398398Y-47670465D01*
X69400141Y-47667857D01*
X69459394Y-47579179D01*
X69519737Y-47433497D01*
X69550500Y-47278842D01*
X69550500Y-47121158D01*
X69550500Y-47121155D01*
X69550499Y-47121153D01*
X69519738Y-46966510D01*
X69519737Y-46966503D01*
X69519735Y-46966498D01*
X69459397Y-46820827D01*
X69459390Y-46820814D01*
X69398398Y-46729533D01*
X69377520Y-46662855D01*
X69377500Y-46660642D01*
X69377500Y-46294500D01*
X69397185Y-46227461D01*
X69449989Y-46181706D01*
X69501500Y-46170500D01*
X69897932Y-46170500D01*
X69897940Y-46170500D01*
X69934675Y-46167609D01*
X69934677Y-46167608D01*
X69934679Y-46167608D01*
X70091892Y-46121933D01*
X70091893Y-46121932D01*
X70091897Y-46121931D01*
X70232820Y-46038590D01*
X70232825Y-46038585D01*
X70257592Y-46013819D01*
X70318915Y-45980334D01*
X70345273Y-45977500D01*
X70947404Y-45977500D01*
X71014443Y-45997185D01*
X71035085Y-46013819D01*
X71062396Y-46041130D01*
X71062400Y-46041133D01*
X71062402Y-46041135D01*
X71200607Y-46122869D01*
X71241268Y-46134682D01*
X71354791Y-46167664D01*
X71354794Y-46167664D01*
X71354796Y-46167665D01*
X71390819Y-46170500D01*
X71789180Y-46170499D01*
X71825204Y-46167665D01*
X71979393Y-46122869D01*
X72037369Y-46088581D01*
X72105093Y-46071398D01*
X72163612Y-46088581D01*
X72220805Y-46122404D01*
X72360000Y-46162844D01*
X72360000Y-46162843D01*
X72860000Y-46162843D01*
X72999194Y-46122404D01*
X73137285Y-46040738D01*
X73137294Y-46040731D01*
X73167069Y-46010957D01*
X73250731Y-45927294D01*
X73250738Y-45927285D01*
X73332406Y-45789191D01*
X73332407Y-45789188D01*
X73377166Y-45635128D01*
X73377167Y-45635122D01*
X73379931Y-45600000D01*
X72860000Y-45600000D01*
X72860000Y-46162843D01*
X72360000Y-46162843D01*
X72360000Y-45610408D01*
X72360004Y-45609404D01*
X72360039Y-45605034D01*
X72360500Y-45599181D01*
X72360499Y-45100820D01*
X72360434Y-45100000D01*
X72360382Y-45099332D01*
X72360000Y-45089607D01*
X72360000Y-44537154D01*
X72860000Y-44537154D01*
X72860000Y-45100000D01*
X73379931Y-45100000D01*
X73379512Y-45094673D01*
X73379130Y-45089818D01*
X75660000Y-45089818D01*
X75660000Y-45650000D01*
X76569252Y-45650000D01*
X76547482Y-45687708D01*
X76510000Y-45827591D01*
X76510000Y-45972409D01*
X76547482Y-46112292D01*
X76569252Y-46150000D01*
X75660000Y-46150000D01*
X75660000Y-46710181D01*
X75694473Y-46927835D01*
X75762567Y-47137410D01*
X75862613Y-47333760D01*
X75992142Y-47512041D01*
X76147958Y-47667857D01*
X76326239Y-47797386D01*
X76522589Y-47897432D01*
X76732163Y-47965526D01*
X76809999Y-47977854D01*
X76810000Y-47977854D01*
X76810000Y-46390747D01*
X76847708Y-46412518D01*
X76987591Y-46450000D01*
X77132409Y-46450000D01*
X77272292Y-46412518D01*
X77310000Y-46390747D01*
X77310000Y-47977854D01*
X77387834Y-47965526D01*
X77387837Y-47965526D01*
X77597410Y-47897432D01*
X77793760Y-47797386D01*
X77972037Y-47667860D01*
X78080046Y-47559851D01*
X78141369Y-47526366D01*
X78211061Y-47531350D01*
X78266995Y-47573221D01*
X78273263Y-47582430D01*
X78357288Y-47718656D01*
X78481344Y-47842712D01*
X78630666Y-47934814D01*
X78797203Y-47989999D01*
X78899991Y-48000500D01*
X80300008Y-48000499D01*
X80402797Y-47989999D01*
X80569334Y-47934814D01*
X80718656Y-47842712D01*
X80842712Y-47718656D01*
X80934814Y-47569334D01*
X80989999Y-47402797D01*
X81000500Y-47300009D01*
X81000499Y-45089818D01*
X86510000Y-45089818D01*
X86510000Y-45650000D01*
X87419252Y-45650000D01*
X87397482Y-45687708D01*
X87360000Y-45827591D01*
X87360000Y-45972409D01*
X87397482Y-46112292D01*
X87419252Y-46150000D01*
X86510000Y-46150000D01*
X86510000Y-46710181D01*
X86544473Y-46927835D01*
X86612567Y-47137410D01*
X86712613Y-47333760D01*
X86842142Y-47512041D01*
X86997958Y-47667857D01*
X87176239Y-47797386D01*
X87372589Y-47897432D01*
X87582163Y-47965526D01*
X87659999Y-47977854D01*
X87660000Y-47977854D01*
X87660000Y-46390747D01*
X87697708Y-46412518D01*
X87837591Y-46450000D01*
X87982409Y-46450000D01*
X88122292Y-46412518D01*
X88160000Y-46390747D01*
X88160000Y-47977854D01*
X88237834Y-47965526D01*
X88237837Y-47965526D01*
X88447410Y-47897432D01*
X88643760Y-47797386D01*
X88822037Y-47667860D01*
X88930046Y-47559851D01*
X88991369Y-47526366D01*
X89061061Y-47531350D01*
X89116995Y-47573221D01*
X89123263Y-47582430D01*
X89207288Y-47718656D01*
X89331344Y-47842712D01*
X89480666Y-47934814D01*
X89647203Y-47989999D01*
X89749991Y-48000500D01*
X91150008Y-48000499D01*
X91252797Y-47989999D01*
X91419334Y-47934814D01*
X91568656Y-47842712D01*
X91692712Y-47718656D01*
X91784814Y-47569334D01*
X91839999Y-47402797D01*
X91850500Y-47300009D01*
X91850499Y-45869685D01*
X91850499Y-44499998D01*
X91850498Y-44499981D01*
X91839999Y-44397203D01*
X91839998Y-44397200D01*
X91784814Y-44230666D01*
X91692712Y-44081344D01*
X91568656Y-43957288D01*
X91419334Y-43865186D01*
X91252797Y-43810001D01*
X91252795Y-43810000D01*
X91150010Y-43799500D01*
X89749998Y-43799500D01*
X89749981Y-43799501D01*
X89647203Y-43810000D01*
X89647200Y-43810001D01*
X89480668Y-43865185D01*
X89480663Y-43865187D01*
X89331342Y-43957289D01*
X89207289Y-44081342D01*
X89123267Y-44217564D01*
X89071319Y-44264288D01*
X89002356Y-44275510D01*
X88938274Y-44247667D01*
X88930047Y-44240148D01*
X88822041Y-44132142D01*
X88643760Y-44002613D01*
X88447410Y-43902567D01*
X88237836Y-43834473D01*
X88160000Y-43822144D01*
X88160000Y-45409252D01*
X88122292Y-45387482D01*
X87982409Y-45350000D01*
X87837591Y-45350000D01*
X87697708Y-45387482D01*
X87660000Y-45409252D01*
X87660000Y-43822144D01*
X87582164Y-43834473D01*
X87582161Y-43834473D01*
X87372589Y-43902567D01*
X87176239Y-44002613D01*
X86997958Y-44132142D01*
X86842142Y-44287958D01*
X86712613Y-44466239D01*
X86612567Y-44662589D01*
X86544473Y-44872164D01*
X86510000Y-45089818D01*
X81000499Y-45089818D01*
X81000499Y-44499992D01*
X80995391Y-44449992D01*
X80989999Y-44397203D01*
X80989998Y-44397200D01*
X80934814Y-44230666D01*
X80842712Y-44081344D01*
X80718656Y-43957288D01*
X80569334Y-43865186D01*
X80402797Y-43810001D01*
X80402795Y-43810000D01*
X80300010Y-43799500D01*
X78899998Y-43799500D01*
X78899981Y-43799501D01*
X78797203Y-43810000D01*
X78797200Y-43810001D01*
X78630668Y-43865185D01*
X78630663Y-43865187D01*
X78481342Y-43957289D01*
X78357289Y-44081342D01*
X78273267Y-44217564D01*
X78221319Y-44264288D01*
X78152356Y-44275510D01*
X78088274Y-44247667D01*
X78080047Y-44240148D01*
X77972041Y-44132142D01*
X77793760Y-44002613D01*
X77597410Y-43902567D01*
X77387836Y-43834473D01*
X77310000Y-43822144D01*
X77310000Y-45409252D01*
X77272292Y-45387482D01*
X77132409Y-45350000D01*
X76987591Y-45350000D01*
X76847708Y-45387482D01*
X76810000Y-45409252D01*
X76810000Y-43822144D01*
X76732164Y-43834473D01*
X76732161Y-43834473D01*
X76522589Y-43902567D01*
X76326239Y-44002613D01*
X76147958Y-44132142D01*
X75992142Y-44287958D01*
X75862613Y-44466239D01*
X75762567Y-44662589D01*
X75694473Y-44872164D01*
X75660000Y-45089818D01*
X73379130Y-45089818D01*
X73377167Y-45064877D01*
X73377166Y-45064871D01*
X73332407Y-44910811D01*
X73332406Y-44910808D01*
X73250738Y-44772714D01*
X73250731Y-44772705D01*
X73137294Y-44659268D01*
X73137285Y-44659261D01*
X72999191Y-44577593D01*
X72999188Y-44577591D01*
X72860001Y-44537153D01*
X72860000Y-44537154D01*
X72360000Y-44537154D01*
X72359998Y-44537153D01*
X72220811Y-44577591D01*
X72220810Y-44577592D01*
X72163611Y-44611419D01*
X72095886Y-44628600D01*
X72037371Y-44611419D01*
X71980977Y-44578068D01*
X71979393Y-44577131D01*
X71979392Y-44577130D01*
X71979391Y-44577130D01*
X71979388Y-44577129D01*
X71825208Y-44532335D01*
X71825202Y-44532334D01*
X71789181Y-44529500D01*
X71390830Y-44529500D01*
X71390808Y-44529501D01*
X71354794Y-44532335D01*
X71200611Y-44577129D01*
X71200606Y-44577131D01*
X71062404Y-44658863D01*
X71062396Y-44658869D01*
X71035085Y-44686181D01*
X70973762Y-44719666D01*
X70947404Y-44722500D01*
X70345273Y-44722500D01*
X70278234Y-44702815D01*
X70257592Y-44686181D01*
X70232825Y-44661414D01*
X70232817Y-44661408D01*
X70091895Y-44578068D01*
X70091892Y-44578066D01*
X69934679Y-44532391D01*
X69934673Y-44532390D01*
X69897947Y-44529500D01*
X69897940Y-44529500D01*
X69472060Y-44529500D01*
X69472052Y-44529500D01*
X69435326Y-44532390D01*
X69435320Y-44532391D01*
X69278105Y-44578067D01*
X69263117Y-44586931D01*
X69195392Y-44604110D01*
X69136883Y-44586931D01*
X69121894Y-44578067D01*
X68964679Y-44532391D01*
X68964673Y-44532390D01*
X68927947Y-44529500D01*
X68927940Y-44529500D01*
X68502060Y-44529500D01*
X68502052Y-44529500D01*
X68465326Y-44532390D01*
X68465320Y-44532391D01*
X68308107Y-44578066D01*
X68308104Y-44578068D01*
X68167182Y-44661408D01*
X68167174Y-44661414D01*
X68051414Y-44777174D01*
X68051408Y-44777182D01*
X67968068Y-44918104D01*
X67968066Y-44918107D01*
X67922391Y-45075320D01*
X67922390Y-45075326D01*
X67919500Y-45112052D01*
X67919500Y-45587947D01*
X67922390Y-45624673D01*
X67922391Y-45624679D01*
X67968066Y-45781892D01*
X67968068Y-45781895D01*
X68051408Y-45922817D01*
X68051414Y-45922825D01*
X68086180Y-45957590D01*
X68119666Y-46018912D01*
X68122500Y-46045272D01*
X68122500Y-46660642D01*
X68102815Y-46727681D01*
X68101602Y-46729533D01*
X68040609Y-46820814D01*
X68040602Y-46820827D01*
X67980264Y-46966498D01*
X67980261Y-46966510D01*
X67949500Y-47121153D01*
X67949500Y-47278846D01*
X67980261Y-47433489D01*
X67980264Y-47433501D01*
X68040603Y-47579174D01*
X68040604Y-47579175D01*
X68040606Y-47579179D01*
X68066708Y-47618243D01*
X68101602Y-47670465D01*
X68122480Y-47737142D01*
X68122500Y-47739356D01*
X68122500Y-48254727D01*
X68102815Y-48321766D01*
X68086181Y-48342408D01*
X68051414Y-48377174D01*
X68051408Y-48377182D01*
X67968068Y-48518104D01*
X67968066Y-48518107D01*
X67922391Y-48675320D01*
X67922390Y-48675326D01*
X67919500Y-48712052D01*
X67919500Y-49187947D01*
X67922390Y-49224673D01*
X67922391Y-49224679D01*
X67968066Y-49381892D01*
X67968068Y-49381895D01*
X67968069Y-49381897D01*
X68005349Y-49444935D01*
X68051408Y-49522817D01*
X68056193Y-49528986D01*
X68055123Y-49529815D01*
X68084664Y-49583902D01*
X68087500Y-49610272D01*
X68087500Y-50810642D01*
X68067815Y-50877681D01*
X68066602Y-50879533D01*
X68005609Y-50970814D01*
X68005602Y-50970827D01*
X67945264Y-51116498D01*
X67945261Y-51116510D01*
X67914500Y-51271153D01*
X67000000Y-51271153D01*
X67000000Y-43674000D01*
X67019685Y-43606961D01*
X67072489Y-43561206D01*
X67124000Y-43550000D01*
X98060893Y-43550000D01*
X98127932Y-43569685D01*
G37*
G04 #@! TD.AperFunction*
G04 #@! TA.AperFunction,Conductor*
G36*
X122665677Y-44119685D02*
G01*
X122686319Y-44136319D01*
X123963681Y-45413681D01*
X123997166Y-45475004D01*
X124000000Y-45501362D01*
X124000000Y-85831613D01*
X123980315Y-85898652D01*
X123963681Y-85919294D01*
X123561680Y-86321295D01*
X123500357Y-86354780D01*
X123430665Y-86349796D01*
X123374732Y-86307924D01*
X123350315Y-86242460D01*
X123349999Y-86233614D01*
X123349999Y-84928552D01*
X123349998Y-84928551D01*
X122600000Y-85678550D01*
X122600000Y-85501131D01*
X122571178Y-85356233D01*
X122514641Y-85219742D01*
X122449378Y-85122069D01*
X123157249Y-84414197D01*
X123091723Y-84333279D01*
X122945726Y-84215051D01*
X122945723Y-84215049D01*
X122778336Y-84129763D01*
X122596873Y-84081140D01*
X122518848Y-84075000D01*
X121181161Y-84075000D01*
X121181144Y-84075001D01*
X121103126Y-84081140D01*
X120921663Y-84129763D01*
X120754276Y-84215049D01*
X120754273Y-84215051D01*
X120608275Y-84333280D01*
X120542749Y-84414196D01*
X120542749Y-84414197D01*
X121250621Y-85122069D01*
X121185359Y-85219742D01*
X121128822Y-85356233D01*
X121100000Y-85501131D01*
X121100000Y-85678551D01*
X120350000Y-84928551D01*
X120350000Y-87221447D01*
X121100000Y-86471447D01*
X121100000Y-86648869D01*
X121128822Y-86793767D01*
X121185359Y-86930258D01*
X121250620Y-87027929D01*
X120542749Y-87735801D01*
X120608276Y-87816720D01*
X120754273Y-87934948D01*
X120754276Y-87934950D01*
X120921662Y-88020236D01*
X121100168Y-88068066D01*
X121159828Y-88104431D01*
X121190358Y-88167277D01*
X121182064Y-88236653D01*
X121137579Y-88290531D01*
X121071027Y-88311806D01*
X121068948Y-88311838D01*
X115874873Y-88348416D01*
X115807697Y-88329204D01*
X115761571Y-88276723D01*
X115750000Y-88224419D01*
X115750000Y-84928551D01*
X116650000Y-84928551D01*
X116650000Y-87221447D01*
X117400000Y-86471447D01*
X117400000Y-86648869D01*
X117428822Y-86793767D01*
X117485359Y-86930258D01*
X117550621Y-87027930D01*
X116842749Y-87735801D01*
X116908276Y-87816720D01*
X117054273Y-87934948D01*
X117054276Y-87934950D01*
X117221663Y-88020236D01*
X117403126Y-88068859D01*
X117481151Y-88074999D01*
X118818838Y-88074999D01*
X118818855Y-88074998D01*
X118896873Y-88068859D01*
X119078336Y-88020236D01*
X119245723Y-87934950D01*
X119245726Y-87934948D01*
X119391721Y-87816722D01*
X119457250Y-87735801D01*
X118749378Y-87027930D01*
X118814641Y-86930258D01*
X118871178Y-86793767D01*
X118900000Y-86648869D01*
X118900000Y-86471448D01*
X119649998Y-87221447D01*
X119649999Y-87221446D01*
X119649999Y-84928552D01*
X119649998Y-84928551D01*
X118900000Y-85678550D01*
X118900000Y-85501131D01*
X118871178Y-85356233D01*
X118814641Y-85219742D01*
X118749378Y-85122069D01*
X119457249Y-84414197D01*
X119391723Y-84333279D01*
X119245726Y-84215051D01*
X119245723Y-84215049D01*
X119078336Y-84129763D01*
X118896873Y-84081140D01*
X118818848Y-84075000D01*
X117481161Y-84075000D01*
X117481144Y-84075001D01*
X117403126Y-84081140D01*
X117221663Y-84129763D01*
X117054276Y-84215049D01*
X117054273Y-84215051D01*
X116908275Y-84333280D01*
X116842749Y-84414196D01*
X116842749Y-84414197D01*
X117550621Y-85122069D01*
X117485359Y-85219742D01*
X117428822Y-85356233D01*
X117400000Y-85501131D01*
X117400000Y-85678551D01*
X116650000Y-84928551D01*
X115750000Y-84928551D01*
X115750000Y-78928551D01*
X116650000Y-78928551D01*
X116650000Y-81221447D01*
X117400000Y-80471447D01*
X117400000Y-80648869D01*
X117428822Y-80793767D01*
X117485359Y-80930258D01*
X117550621Y-81027930D01*
X116842749Y-81735801D01*
X116908276Y-81816720D01*
X117054273Y-81934948D01*
X117054276Y-81934950D01*
X117221663Y-82020236D01*
X117403126Y-82068859D01*
X117481151Y-82074999D01*
X118818838Y-82074999D01*
X118818855Y-82074998D01*
X118896873Y-82068859D01*
X119078336Y-82020236D01*
X119245723Y-81934950D01*
X119245726Y-81934948D01*
X119391721Y-81816722D01*
X119457250Y-81735801D01*
X118749378Y-81027930D01*
X118814641Y-80930258D01*
X118871178Y-80793767D01*
X118900000Y-80648869D01*
X118900000Y-80471448D01*
X119649998Y-81221447D01*
X119649999Y-81221446D01*
X119649999Y-78928552D01*
X119649998Y-78928551D01*
X120350000Y-78928551D01*
X120350000Y-81221447D01*
X121100000Y-80471447D01*
X121100000Y-80648869D01*
X121128822Y-80793767D01*
X121185359Y-80930258D01*
X121250621Y-81027930D01*
X120542749Y-81735801D01*
X120608276Y-81816720D01*
X120754273Y-81934948D01*
X120754276Y-81934950D01*
X120921663Y-82020236D01*
X121103126Y-82068859D01*
X121181151Y-82074999D01*
X122518838Y-82074999D01*
X122518855Y-82074998D01*
X122596873Y-82068859D01*
X122778336Y-82020236D01*
X122945723Y-81934950D01*
X122945726Y-81934948D01*
X123091721Y-81816722D01*
X123157250Y-81735801D01*
X122449378Y-81027930D01*
X122514641Y-80930258D01*
X122571178Y-80793767D01*
X122600000Y-80648869D01*
X122600000Y-80471449D01*
X123349998Y-81221447D01*
X123349999Y-81221446D01*
X123349999Y-78928552D01*
X123349998Y-78928551D01*
X122600000Y-79678550D01*
X122600000Y-79501131D01*
X122571178Y-79356233D01*
X122514641Y-79219742D01*
X122449378Y-79122069D01*
X123157249Y-78414197D01*
X123091723Y-78333279D01*
X122945726Y-78215051D01*
X122945723Y-78215049D01*
X122778336Y-78129763D01*
X122596873Y-78081140D01*
X122518848Y-78075000D01*
X121181161Y-78075000D01*
X121181144Y-78075001D01*
X121103126Y-78081140D01*
X120921663Y-78129763D01*
X120754276Y-78215049D01*
X120754273Y-78215051D01*
X120608275Y-78333280D01*
X120542749Y-78414196D01*
X120542749Y-78414197D01*
X121250621Y-79122069D01*
X121185359Y-79219742D01*
X121128822Y-79356233D01*
X121100000Y-79501131D01*
X121100000Y-79678551D01*
X120350000Y-78928551D01*
X119649998Y-78928551D01*
X118900000Y-79678550D01*
X118900000Y-79501131D01*
X118871178Y-79356233D01*
X118814641Y-79219742D01*
X118749378Y-79122069D01*
X119457249Y-78414197D01*
X119391723Y-78333279D01*
X119245726Y-78215051D01*
X119245723Y-78215049D01*
X119078336Y-78129763D01*
X118896873Y-78081140D01*
X118818848Y-78075000D01*
X117481161Y-78075000D01*
X117481144Y-78075001D01*
X117403126Y-78081140D01*
X117221663Y-78129763D01*
X117054276Y-78215049D01*
X117054273Y-78215051D01*
X116908275Y-78333280D01*
X116842749Y-78414196D01*
X116842749Y-78414197D01*
X117550621Y-79122069D01*
X117485359Y-79219742D01*
X117428822Y-79356233D01*
X117400000Y-79501131D01*
X117400000Y-79678551D01*
X116650000Y-78928551D01*
X115750000Y-78928551D01*
X115750000Y-72928551D01*
X116650000Y-72928551D01*
X116650000Y-75221447D01*
X117400000Y-74471447D01*
X117400000Y-74648869D01*
X117428822Y-74793767D01*
X117485359Y-74930258D01*
X117550621Y-75027930D01*
X116842749Y-75735801D01*
X116908276Y-75816720D01*
X117054273Y-75934948D01*
X117054276Y-75934950D01*
X117221663Y-76020236D01*
X117403126Y-76068859D01*
X117481151Y-76074999D01*
X118818838Y-76074999D01*
X118818855Y-76074998D01*
X118896873Y-76068859D01*
X119078336Y-76020236D01*
X119245723Y-75934950D01*
X119245726Y-75934948D01*
X119391721Y-75816722D01*
X119457250Y-75735801D01*
X118749378Y-75027930D01*
X118814641Y-74930258D01*
X118871178Y-74793767D01*
X118900000Y-74648869D01*
X118900000Y-74471448D01*
X119649998Y-75221447D01*
X119649999Y-75221446D01*
X119649999Y-72928552D01*
X119649998Y-72928551D01*
X120350000Y-72928551D01*
X120350000Y-75221447D01*
X121100000Y-74471447D01*
X121100000Y-74648869D01*
X121128822Y-74793767D01*
X121185359Y-74930258D01*
X121250621Y-75027930D01*
X120542749Y-75735801D01*
X120608276Y-75816720D01*
X120754273Y-75934948D01*
X120754276Y-75934950D01*
X120921663Y-76020236D01*
X121103126Y-76068859D01*
X121181151Y-76074999D01*
X122518838Y-76074999D01*
X122518855Y-76074998D01*
X122596873Y-76068859D01*
X122778336Y-76020236D01*
X122945723Y-75934950D01*
X122945726Y-75934948D01*
X123091721Y-75816722D01*
X123157250Y-75735801D01*
X122449378Y-75027930D01*
X122514641Y-74930258D01*
X122571178Y-74793767D01*
X122600000Y-74648869D01*
X122600000Y-74471449D01*
X123349998Y-75221447D01*
X123349999Y-75221446D01*
X123349999Y-72928552D01*
X123349998Y-72928551D01*
X122600000Y-73678550D01*
X122600000Y-73501131D01*
X122571178Y-73356233D01*
X122514641Y-73219742D01*
X122449378Y-73122069D01*
X123157249Y-72414197D01*
X123091723Y-72333279D01*
X122945726Y-72215051D01*
X122945723Y-72215049D01*
X122778336Y-72129763D01*
X122596873Y-72081140D01*
X122518848Y-72075000D01*
X121181161Y-72075000D01*
X121181144Y-72075001D01*
X121103126Y-72081140D01*
X120921663Y-72129763D01*
X120754276Y-72215049D01*
X120754273Y-72215051D01*
X120608275Y-72333280D01*
X120542749Y-72414196D01*
X120542749Y-72414197D01*
X121250621Y-73122069D01*
X121185359Y-73219742D01*
X121128822Y-73356233D01*
X121100000Y-73501131D01*
X121100000Y-73678551D01*
X120350000Y-72928551D01*
X119649998Y-72928551D01*
X118900000Y-73678550D01*
X118900000Y-73501131D01*
X118871178Y-73356233D01*
X118814641Y-73219742D01*
X118749378Y-73122069D01*
X119457249Y-72414197D01*
X119391723Y-72333279D01*
X119245726Y-72215051D01*
X119245723Y-72215049D01*
X119078336Y-72129763D01*
X118896873Y-72081140D01*
X118818848Y-72075000D01*
X117481161Y-72075000D01*
X117481144Y-72075001D01*
X117403126Y-72081140D01*
X117221663Y-72129763D01*
X117054276Y-72215049D01*
X117054273Y-72215051D01*
X116908275Y-72333280D01*
X116842749Y-72414196D01*
X116842749Y-72414197D01*
X117550621Y-73122069D01*
X117485359Y-73219742D01*
X117428822Y-73356233D01*
X117400000Y-73501131D01*
X117400000Y-73678551D01*
X116650000Y-72928551D01*
X115750000Y-72928551D01*
X115750000Y-66928551D01*
X116650000Y-66928551D01*
X116650000Y-69221447D01*
X117400000Y-68471447D01*
X117400000Y-68648869D01*
X117428822Y-68793767D01*
X117485359Y-68930258D01*
X117550621Y-69027930D01*
X116842749Y-69735801D01*
X116908276Y-69816720D01*
X117054273Y-69934948D01*
X117054276Y-69934950D01*
X117221663Y-70020236D01*
X117403126Y-70068859D01*
X117481151Y-70074999D01*
X118818838Y-70074999D01*
X118818855Y-70074998D01*
X118896873Y-70068859D01*
X119078336Y-70020236D01*
X119245723Y-69934950D01*
X119245726Y-69934948D01*
X119391721Y-69816722D01*
X119457250Y-69735801D01*
X118749378Y-69027930D01*
X118814641Y-68930258D01*
X118871178Y-68793767D01*
X118900000Y-68648869D01*
X118900000Y-68471448D01*
X119649998Y-69221447D01*
X119649999Y-69221446D01*
X119649999Y-66928552D01*
X119649998Y-66928551D01*
X120350000Y-66928551D01*
X120350000Y-69221447D01*
X121100000Y-68471447D01*
X121100000Y-68648869D01*
X121128822Y-68793767D01*
X121185359Y-68930258D01*
X121250621Y-69027930D01*
X120542749Y-69735801D01*
X120608276Y-69816720D01*
X120754273Y-69934948D01*
X120754276Y-69934950D01*
X120921663Y-70020236D01*
X121103126Y-70068859D01*
X121181151Y-70074999D01*
X122518838Y-70074999D01*
X122518855Y-70074998D01*
X122596873Y-70068859D01*
X122778336Y-70020236D01*
X122945723Y-69934950D01*
X122945726Y-69934948D01*
X123091721Y-69816722D01*
X123157250Y-69735801D01*
X122449378Y-69027930D01*
X122514641Y-68930258D01*
X122571178Y-68793767D01*
X122600000Y-68648869D01*
X122600000Y-68471449D01*
X123349998Y-69221447D01*
X123349999Y-69221446D01*
X123349999Y-66928552D01*
X123349998Y-66928551D01*
X122600000Y-67678550D01*
X122600000Y-67501131D01*
X122571178Y-67356233D01*
X122514641Y-67219742D01*
X122449378Y-67122069D01*
X123157249Y-66414197D01*
X123091723Y-66333279D01*
X122945726Y-66215051D01*
X122945723Y-66215049D01*
X122778336Y-66129763D01*
X122596873Y-66081140D01*
X122518848Y-66075000D01*
X121181161Y-66075000D01*
X121181144Y-66075001D01*
X121103126Y-66081140D01*
X120921663Y-66129763D01*
X120754276Y-66215049D01*
X120754273Y-66215051D01*
X120608275Y-66333280D01*
X120542749Y-66414196D01*
X120542749Y-66414197D01*
X121250621Y-67122069D01*
X121185359Y-67219742D01*
X121128822Y-67356233D01*
X121100000Y-67501131D01*
X121100000Y-67678551D01*
X120350000Y-66928551D01*
X119649998Y-66928551D01*
X118900000Y-67678550D01*
X118900000Y-67501131D01*
X118871178Y-67356233D01*
X118814641Y-67219742D01*
X118749378Y-67122069D01*
X119457249Y-66414197D01*
X119391723Y-66333279D01*
X119245726Y-66215051D01*
X119245723Y-66215049D01*
X119078336Y-66129763D01*
X118896873Y-66081140D01*
X118818848Y-66075000D01*
X117481161Y-66075000D01*
X117481144Y-66075001D01*
X117403126Y-66081140D01*
X117221663Y-66129763D01*
X117054276Y-66215049D01*
X117054273Y-66215051D01*
X116908275Y-66333280D01*
X116842749Y-66414196D01*
X116842749Y-66414197D01*
X117550621Y-67122069D01*
X117485359Y-67219742D01*
X117428822Y-67356233D01*
X117400000Y-67501131D01*
X117400000Y-67678551D01*
X116650000Y-66928551D01*
X115750000Y-66928551D01*
X115750000Y-60928551D01*
X116650000Y-60928551D01*
X116650000Y-63221447D01*
X117400000Y-62471447D01*
X117400000Y-62648869D01*
X117428822Y-62793767D01*
X117485359Y-62930258D01*
X117550621Y-63027930D01*
X116842749Y-63735801D01*
X116908276Y-63816720D01*
X117054273Y-63934948D01*
X117054276Y-63934950D01*
X117221663Y-64020236D01*
X117403126Y-64068859D01*
X117481151Y-64074999D01*
X118818838Y-64074999D01*
X118818855Y-64074998D01*
X118896873Y-64068859D01*
X119078336Y-64020236D01*
X119245723Y-63934950D01*
X119245726Y-63934948D01*
X119391721Y-63816722D01*
X119457250Y-63735801D01*
X118749378Y-63027930D01*
X118814641Y-62930258D01*
X118871178Y-62793767D01*
X118900000Y-62648869D01*
X118900000Y-62471448D01*
X119649998Y-63221447D01*
X119649999Y-63221446D01*
X119649999Y-60928552D01*
X119649998Y-60928551D01*
X120350000Y-60928551D01*
X120350000Y-63221447D01*
X121100000Y-62471447D01*
X121100000Y-62648869D01*
X121128822Y-62793767D01*
X121185359Y-62930258D01*
X121250621Y-63027930D01*
X120542749Y-63735801D01*
X120608276Y-63816720D01*
X120754273Y-63934948D01*
X120754276Y-63934950D01*
X120921663Y-64020236D01*
X121103126Y-64068859D01*
X121181151Y-64074999D01*
X122518838Y-64074999D01*
X122518855Y-64074998D01*
X122596873Y-64068859D01*
X122778336Y-64020236D01*
X122945723Y-63934950D01*
X122945726Y-63934948D01*
X123091721Y-63816722D01*
X123157250Y-63735801D01*
X122449378Y-63027930D01*
X122514641Y-62930258D01*
X122571178Y-62793767D01*
X122600000Y-62648869D01*
X122600000Y-62471449D01*
X123349998Y-63221447D01*
X123349999Y-63221446D01*
X123349999Y-60928552D01*
X123349998Y-60928551D01*
X122600000Y-61678550D01*
X122600000Y-61501131D01*
X122571178Y-61356233D01*
X122514641Y-61219742D01*
X122449378Y-61122069D01*
X123157249Y-60414197D01*
X123091723Y-60333279D01*
X122945726Y-60215051D01*
X122945723Y-60215049D01*
X122778336Y-60129763D01*
X122596873Y-60081140D01*
X122518848Y-60075000D01*
X121181161Y-60075000D01*
X121181144Y-60075001D01*
X121103126Y-60081140D01*
X120921663Y-60129763D01*
X120754276Y-60215049D01*
X120754273Y-60215051D01*
X120608275Y-60333280D01*
X120542749Y-60414196D01*
X120542749Y-60414197D01*
X121250621Y-61122069D01*
X121185359Y-61219742D01*
X121128822Y-61356233D01*
X121100000Y-61501131D01*
X121100000Y-61678551D01*
X120350000Y-60928551D01*
X119649998Y-60928551D01*
X118900000Y-61678550D01*
X118900000Y-61501131D01*
X118871178Y-61356233D01*
X118814641Y-61219742D01*
X118749378Y-61122069D01*
X119457249Y-60414197D01*
X119391723Y-60333279D01*
X119245726Y-60215051D01*
X119245723Y-60215049D01*
X119078336Y-60129763D01*
X118896873Y-60081140D01*
X118818848Y-60075000D01*
X117481161Y-60075000D01*
X117481144Y-60075001D01*
X117403126Y-60081140D01*
X117221663Y-60129763D01*
X117054276Y-60215049D01*
X117054273Y-60215051D01*
X116908275Y-60333280D01*
X116842749Y-60414196D01*
X116842749Y-60414197D01*
X117550621Y-61122069D01*
X117485359Y-61219742D01*
X117428822Y-61356233D01*
X117400000Y-61501131D01*
X117400000Y-61678551D01*
X116650000Y-60928551D01*
X115750000Y-60928551D01*
X115750000Y-52994654D01*
X115769685Y-52927615D01*
X115822489Y-52881860D01*
X115891647Y-52871916D01*
X115926403Y-52882271D01*
X115930877Y-52884357D01*
X116097302Y-52939505D01*
X116097309Y-52939506D01*
X116200019Y-52949999D01*
X116649999Y-52949999D01*
X116650000Y-52949998D01*
X116650000Y-51340747D01*
X116687708Y-51362518D01*
X116827591Y-51400000D01*
X116972409Y-51400000D01*
X117112292Y-51362518D01*
X117150000Y-51340747D01*
X117150000Y-52949999D01*
X117599972Y-52949999D01*
X117599986Y-52949998D01*
X117702697Y-52939505D01*
X117869119Y-52884358D01*
X117869124Y-52884356D01*
X118018345Y-52792315D01*
X118142315Y-52668345D01*
X118234356Y-52519124D01*
X118234358Y-52519119D01*
X118289505Y-52352697D01*
X118289506Y-52352690D01*
X118299999Y-52249986D01*
X118300000Y-52249973D01*
X118300000Y-51100000D01*
X117390748Y-51100000D01*
X117412518Y-51062292D01*
X117450000Y-50922409D01*
X117450000Y-50777591D01*
X117412518Y-50637708D01*
X117390748Y-50600000D01*
X118299999Y-50600000D01*
X118299999Y-49450028D01*
X118299998Y-49450013D01*
X118289505Y-49347302D01*
X118234358Y-49180880D01*
X118234356Y-49180875D01*
X118142315Y-49031654D01*
X118018345Y-48907684D01*
X117869124Y-48815643D01*
X117869119Y-48815641D01*
X117702697Y-48760494D01*
X117702690Y-48760493D01*
X117599986Y-48750000D01*
X117150000Y-48750000D01*
X117150000Y-50359252D01*
X117112292Y-50337482D01*
X116972409Y-50300000D01*
X116827591Y-50300000D01*
X116687708Y-50337482D01*
X116650000Y-50359252D01*
X116650000Y-48750000D01*
X116200028Y-48750000D01*
X116200012Y-48750001D01*
X116097302Y-48760494D01*
X115930871Y-48815644D01*
X115926394Y-48817732D01*
X115857316Y-48828217D01*
X115793535Y-48799692D01*
X115755300Y-48741212D01*
X115750000Y-48705345D01*
X115750000Y-47994654D01*
X115769685Y-47927615D01*
X115822489Y-47881860D01*
X115891647Y-47871916D01*
X115926403Y-47882271D01*
X115930877Y-47884357D01*
X116097302Y-47939505D01*
X116097309Y-47939506D01*
X116200019Y-47949999D01*
X116649999Y-47949999D01*
X116650000Y-47949998D01*
X116650000Y-46340747D01*
X116687708Y-46362518D01*
X116827591Y-46400000D01*
X116972409Y-46400000D01*
X117112292Y-46362518D01*
X117150000Y-46340747D01*
X117150000Y-47949999D01*
X117599972Y-47949999D01*
X117599986Y-47949998D01*
X117702697Y-47939505D01*
X117869119Y-47884358D01*
X117869124Y-47884356D01*
X118018345Y-47792315D01*
X118142315Y-47668345D01*
X118234356Y-47519124D01*
X118234358Y-47519119D01*
X118289505Y-47352697D01*
X118289506Y-47352690D01*
X118299999Y-47249986D01*
X118300000Y-47249973D01*
X118300000Y-46100000D01*
X117390748Y-46100000D01*
X117412518Y-46062292D01*
X117450000Y-45922409D01*
X117450000Y-45777591D01*
X117412518Y-45637708D01*
X117390748Y-45600000D01*
X118299999Y-45600000D01*
X118299999Y-44450028D01*
X118299998Y-44450013D01*
X118289505Y-44347302D01*
X118261572Y-44263004D01*
X118259170Y-44193176D01*
X118294902Y-44133134D01*
X118357422Y-44101941D01*
X118379278Y-44100000D01*
X122598638Y-44100000D01*
X122665677Y-44119685D01*
G37*
G04 #@! TD.AperFunction*
M02*
