%TF.GenerationSoftware,KiCad,Pcbnew,9.0.0*%
%TF.CreationDate,2025-04-21T23:38:42+01:00*%
%TF.ProjectId,CapyController,43617079-436f-46e7-9472-6f6c6c65722e,rev?*%
%TF.SameCoordinates,Original*%
%TF.FileFunction,Soldermask,Bot*%
%TF.FilePolarity,Negative*%
%FSLAX46Y46*%
G04 Gerber Fmt 4.6, Leading zero omitted, Abs format (unit mm)*
G04 Created by KiCad (PCBNEW 9.0.0) date 2025-04-21 23:38:42*
%MOMM*%
%LPD*%
G01*
G04 APERTURE LIST*
G04 Aperture macros list*
%AMRoundRect*
0 Rectangle with rounded corners*
0 $1 Rounding radius*
0 $2 $3 $4 $5 $6 $7 $8 $9 X,Y pos of 4 corners*
0 Add a 4 corners polygon primitive as box body*
4,1,4,$2,$3,$4,$5,$6,$7,$8,$9,$2,$3,0*
0 Add four circle primitives for the rounded corners*
1,1,$1+$1,$2,$3*
1,1,$1+$1,$4,$5*
1,1,$1+$1,$6,$7*
1,1,$1+$1,$8,$9*
0 Add four rect primitives between the rounded corners*
20,1,$1+$1,$2,$3,$4,$5,0*
20,1,$1+$1,$4,$5,$6,$7,0*
20,1,$1+$1,$6,$7,$8,$9,0*
20,1,$1+$1,$8,$9,$2,$3,0*%
G04 Aperture macros list end*
%ADD10C,3.200000*%
%ADD11RoundRect,0.250000X-0.350000X-0.625000X0.350000X-0.625000X0.350000X0.625000X-0.350000X0.625000X0*%
%ADD12O,1.200000X1.750000*%
%ADD13RoundRect,0.250000X0.650000X1.350000X-0.650000X1.350000X-0.650000X-1.350000X0.650000X-1.350000X0*%
%ADD14O,1.800000X3.200000*%
%ADD15RoundRect,0.250000X0.625000X-0.350000X0.625000X0.350000X-0.625000X0.350000X-0.625000X-0.350000X0*%
%ADD16O,1.750000X1.200000*%
%ADD17R,1.530000X1.530000*%
%ADD18C,1.530000*%
%ADD19R,1.700000X1.700000*%
%ADD20O,1.700000X1.700000*%
%ADD21RoundRect,0.250000X-0.625000X0.350000X-0.625000X-0.350000X0.625000X-0.350000X0.625000X0.350000X0*%
%ADD22RoundRect,0.250000X0.350000X0.625000X-0.350000X0.625000X-0.350000X-0.625000X0.350000X-0.625000X0*%
%ADD23RoundRect,0.250000X-0.650000X-1.350000X0.650000X-1.350000X0.650000X1.350000X-0.650000X1.350000X0*%
G04 APERTURE END LIST*
D10*
%TO.C,REF\u002A\u002A*%
X128000000Y-62000000D03*
%TD*%
%TO.C,REF\u002A\u002A*%
X223000000Y-62000000D03*
%TD*%
%TO.C,REF\u002A\u002A*%
X223000000Y-127000000D03*
%TD*%
%TO.C,REF\u002A\u002A*%
X128000000Y-127000000D03*
%TD*%
D11*
%TO.C,J7*%
X213500000Y-109750000D03*
D12*
X215500000Y-109750000D03*
X217500000Y-109750000D03*
X219500000Y-109750000D03*
%TD*%
D13*
%TO.C,J16*%
X179200000Y-74250000D03*
X179200000Y-69250000D03*
D14*
X176660000Y-74250000D03*
X176660000Y-69250000D03*
X174120000Y-74250000D03*
X174120000Y-69250000D03*
X171580000Y-74250000D03*
X171580000Y-69250000D03*
%TD*%
D11*
%TO.C,J10*%
X213500000Y-81600000D03*
D12*
X215500000Y-81600000D03*
X217500000Y-81600000D03*
X219500000Y-81600000D03*
%TD*%
D15*
%TO.C,J13*%
X198450000Y-72650000D03*
D16*
X198450000Y-70650000D03*
X198450000Y-68650000D03*
X198450000Y-66650000D03*
%TD*%
D13*
%TO.C,J17*%
X189600000Y-74350000D03*
X189600000Y-69350000D03*
D14*
X187060000Y-74350000D03*
X187060000Y-69350000D03*
%TD*%
D17*
%TO.C,U1*%
X137765000Y-109405000D03*
D18*
X140305000Y-109405000D03*
X142845000Y-109405000D03*
X145385000Y-109405000D03*
X147925000Y-109405000D03*
X150465000Y-109405000D03*
X153005000Y-109405000D03*
X155545000Y-109405000D03*
X158085000Y-109405000D03*
X160625000Y-109405000D03*
X163165000Y-109405000D03*
X165705000Y-109405000D03*
X168245000Y-109405000D03*
X170785000Y-109405000D03*
X173325000Y-109405000D03*
X175865000Y-109405000D03*
X178405000Y-109405000D03*
X180945000Y-109405000D03*
X183485000Y-109405000D03*
X186025000Y-109405000D03*
X188565000Y-109405000D03*
X191105000Y-109405000D03*
X137765000Y-83995000D03*
X140305000Y-83995000D03*
X142845000Y-83995000D03*
X145385000Y-83995000D03*
X147925000Y-83995000D03*
X150465000Y-83995000D03*
X153005000Y-83995000D03*
X155545000Y-83995000D03*
X158085000Y-83995000D03*
X160625000Y-83995000D03*
X163165000Y-83995000D03*
X165705000Y-83995000D03*
X168245000Y-83995000D03*
X170785000Y-83995000D03*
X173325000Y-83995000D03*
X175865000Y-83995000D03*
X178405000Y-83995000D03*
X180945000Y-83995000D03*
X183485000Y-83995000D03*
X186025000Y-83995000D03*
X188565000Y-83995000D03*
X191105000Y-83995000D03*
%TD*%
D15*
%TO.C,J12*%
X206000000Y-72550000D03*
D16*
X206000000Y-70550000D03*
X206000000Y-68550000D03*
X206000000Y-66550000D03*
%TD*%
D11*
%TO.C,J8*%
X213500000Y-101100000D03*
D12*
X215500000Y-101100000D03*
X217500000Y-101100000D03*
X219500000Y-101100000D03*
%TD*%
D19*
%TO.C,J19*%
X132160000Y-114700000D03*
D20*
X134700000Y-114700000D03*
X132160000Y-117240000D03*
X134700000Y-117240000D03*
X132160000Y-119780000D03*
X134700000Y-119780000D03*
X132160000Y-122320000D03*
X134700000Y-122320000D03*
%TD*%
D21*
%TO.C,J4*%
X164350000Y-66350000D03*
D16*
X164350000Y-68350000D03*
X164350000Y-70350000D03*
X164350000Y-72350000D03*
X164350000Y-74350000D03*
%TD*%
D11*
%TO.C,J3*%
X144400000Y-66900000D03*
D12*
X146400000Y-66900000D03*
X148400000Y-66900000D03*
X150400000Y-66900000D03*
X152400000Y-66900000D03*
X154400000Y-66900000D03*
X156400000Y-66900000D03*
X158400000Y-66900000D03*
%TD*%
D22*
%TO.C,J2*%
X153250000Y-122100000D03*
D12*
X151250000Y-122100000D03*
X149250000Y-122100000D03*
X147250000Y-122100000D03*
X145250000Y-122100000D03*
X143250000Y-122100000D03*
X141250000Y-122100000D03*
X139250000Y-122100000D03*
%TD*%
D11*
%TO.C,J9*%
X213500000Y-91025000D03*
D12*
X215500000Y-91025000D03*
X217500000Y-91025000D03*
X219500000Y-91025000D03*
%TD*%
D23*
%TO.C,J14*%
X182210000Y-115950000D03*
X182210000Y-120950000D03*
D14*
X184750000Y-115950000D03*
X184750000Y-120950000D03*
%TD*%
D15*
%TO.C,J11*%
X213500000Y-72550000D03*
D16*
X213500000Y-70550000D03*
X213500000Y-68550000D03*
X213500000Y-66550000D03*
%TD*%
D23*
%TO.C,J15*%
X190860000Y-115900000D03*
X190860000Y-120900000D03*
D14*
X193400000Y-115900000D03*
X193400000Y-120900000D03*
%TD*%
D11*
%TO.C,J6*%
X213500000Y-118425000D03*
D12*
X215500000Y-118425000D03*
X217500000Y-118425000D03*
X219500000Y-118425000D03*
%TD*%
D19*
%TO.C,J20*%
X136140000Y-69190000D03*
D20*
X133600000Y-69190000D03*
X136140000Y-71730000D03*
X133600000Y-71730000D03*
X136140000Y-74270000D03*
X133600000Y-74270000D03*
X136140000Y-76810000D03*
X133600000Y-76810000D03*
X136140000Y-79350000D03*
X133600000Y-79350000D03*
%TD*%
D15*
%TO.C,J5*%
X158600000Y-122000000D03*
D16*
X158600000Y-120000000D03*
X158600000Y-118000000D03*
X158600000Y-116000000D03*
X158600000Y-114000000D03*
%TD*%
D23*
%TO.C,J18*%
X166000000Y-115800000D03*
X166000000Y-120800000D03*
D14*
X168540000Y-115800000D03*
X168540000Y-120800000D03*
X171080000Y-115800000D03*
X171080000Y-120800000D03*
X173620000Y-115800000D03*
X173620000Y-120800000D03*
%TD*%
D23*
%TO.C,J1*%
X202250000Y-116050000D03*
X202250000Y-121050000D03*
D14*
X204790000Y-116050000D03*
X204790000Y-121050000D03*
%TD*%
M02*
