%TF.GenerationSoftware,KiCad,Pcbnew,9.0.0*%
%TF.CreationDate,2025-04-21T23:38:41+01:00*%
%TF.ProjectId,CapyController,43617079-436f-46e7-9472-6f6c6c65722e,rev?*%
%TF.SameCoordinates,Original*%
%TF.FileFunction,Drillmap*%
%TF.FilePolarity,Positive*%
%FSLAX45Y45*%
G04 Gerber Fmt 4.5, Leading zero omitted, Abs format (unit mm)*
G04 Created by KiCad (PCBNEW 9.0.0) date 2025-04-21 23:38:41*
%MOMM*%
%LPD*%
G01*
G04 APERTURE LIST*
%ADD10C,0.050000*%
%ADD11C,0.200000*%
%ADD12C,0.320000*%
G04 APERTURE END LIST*
D10*
X12550000Y-5950000D02*
X22550000Y-5950000D01*
X22550000Y-12950000D01*
X12550000Y-12950000D01*
X12550000Y-5950000D01*
D11*
D12*
X12640000Y-6040000D02*
X12960000Y-6360000D01*
X12960000Y-6040000D02*
X12640000Y-6360000D01*
X12640000Y-12540000D02*
X12960000Y-12860000D01*
X12960000Y-12540000D02*
X12640000Y-12860000D01*
X22140000Y-6040000D02*
X22460000Y-6360000D01*
X22460000Y-6040000D02*
X22140000Y-6360000D01*
X22140000Y-12540000D02*
X22460000Y-12860000D01*
X22460000Y-12540000D02*
X22140000Y-12860000D01*
D11*
X12808277Y-13263984D02*
X12808277Y-13063984D01*
X12808277Y-13063984D02*
X12855896Y-13063984D01*
X12855896Y-13063984D02*
X12884467Y-13073508D01*
X12884467Y-13073508D02*
X12903515Y-13092555D01*
X12903515Y-13092555D02*
X12913039Y-13111603D01*
X12913039Y-13111603D02*
X12922562Y-13149698D01*
X12922562Y-13149698D02*
X12922562Y-13178269D01*
X12922562Y-13178269D02*
X12913039Y-13216365D01*
X12913039Y-13216365D02*
X12903515Y-13235412D01*
X12903515Y-13235412D02*
X12884467Y-13254460D01*
X12884467Y-13254460D02*
X12855896Y-13263984D01*
X12855896Y-13263984D02*
X12808277Y-13263984D01*
X13008277Y-13263984D02*
X13008277Y-13130650D01*
X13008277Y-13168746D02*
X13017801Y-13149698D01*
X13017801Y-13149698D02*
X13027324Y-13140174D01*
X13027324Y-13140174D02*
X13046372Y-13130650D01*
X13046372Y-13130650D02*
X13065420Y-13130650D01*
X13132086Y-13263984D02*
X13132086Y-13130650D01*
X13132086Y-13063984D02*
X13122562Y-13073508D01*
X13122562Y-13073508D02*
X13132086Y-13083031D01*
X13132086Y-13083031D02*
X13141610Y-13073508D01*
X13141610Y-13073508D02*
X13132086Y-13063984D01*
X13132086Y-13063984D02*
X13132086Y-13083031D01*
X13255896Y-13263984D02*
X13236848Y-13254460D01*
X13236848Y-13254460D02*
X13227324Y-13235412D01*
X13227324Y-13235412D02*
X13227324Y-13063984D01*
X13360658Y-13263984D02*
X13341610Y-13254460D01*
X13341610Y-13254460D02*
X13332086Y-13235412D01*
X13332086Y-13235412D02*
X13332086Y-13063984D01*
X13589229Y-13263984D02*
X13589229Y-13063984D01*
X13589229Y-13063984D02*
X13655896Y-13206841D01*
X13655896Y-13206841D02*
X13722562Y-13063984D01*
X13722562Y-13063984D02*
X13722562Y-13263984D01*
X13903515Y-13263984D02*
X13903515Y-13159222D01*
X13903515Y-13159222D02*
X13893991Y-13140174D01*
X13893991Y-13140174D02*
X13874943Y-13130650D01*
X13874943Y-13130650D02*
X13836848Y-13130650D01*
X13836848Y-13130650D02*
X13817801Y-13140174D01*
X13903515Y-13254460D02*
X13884467Y-13263984D01*
X13884467Y-13263984D02*
X13836848Y-13263984D01*
X13836848Y-13263984D02*
X13817801Y-13254460D01*
X13817801Y-13254460D02*
X13808277Y-13235412D01*
X13808277Y-13235412D02*
X13808277Y-13216365D01*
X13808277Y-13216365D02*
X13817801Y-13197317D01*
X13817801Y-13197317D02*
X13836848Y-13187793D01*
X13836848Y-13187793D02*
X13884467Y-13187793D01*
X13884467Y-13187793D02*
X13903515Y-13178269D01*
X13998753Y-13130650D02*
X13998753Y-13330650D01*
X13998753Y-13140174D02*
X14017801Y-13130650D01*
X14017801Y-13130650D02*
X14055896Y-13130650D01*
X14055896Y-13130650D02*
X14074943Y-13140174D01*
X14074943Y-13140174D02*
X14084467Y-13149698D01*
X14084467Y-13149698D02*
X14093991Y-13168746D01*
X14093991Y-13168746D02*
X14093991Y-13225888D01*
X14093991Y-13225888D02*
X14084467Y-13244936D01*
X14084467Y-13244936D02*
X14074943Y-13254460D01*
X14074943Y-13254460D02*
X14055896Y-13263984D01*
X14055896Y-13263984D02*
X14017801Y-13263984D01*
X14017801Y-13263984D02*
X13998753Y-13254460D01*
X14179705Y-13244936D02*
X14189229Y-13254460D01*
X14189229Y-13254460D02*
X14179705Y-13263984D01*
X14179705Y-13263984D02*
X14170182Y-13254460D01*
X14170182Y-13254460D02*
X14179705Y-13244936D01*
X14179705Y-13244936D02*
X14179705Y-13263984D01*
X14179705Y-13140174D02*
X14189229Y-13149698D01*
X14189229Y-13149698D02*
X14179705Y-13159222D01*
X14179705Y-13159222D02*
X14170182Y-13149698D01*
X14170182Y-13149698D02*
X14179705Y-13140174D01*
X14179705Y-13140174D02*
X14179705Y-13159222D01*
X12347500Y-13492500D02*
X12547500Y-13692500D01*
X12547500Y-13492500D02*
X12347500Y-13692500D01*
X12789229Y-13483984D02*
X12913039Y-13483984D01*
X12913039Y-13483984D02*
X12846372Y-13560174D01*
X12846372Y-13560174D02*
X12874943Y-13560174D01*
X12874943Y-13560174D02*
X12893991Y-13569698D01*
X12893991Y-13569698D02*
X12903515Y-13579222D01*
X12903515Y-13579222D02*
X12913039Y-13598269D01*
X12913039Y-13598269D02*
X12913039Y-13645888D01*
X12913039Y-13645888D02*
X12903515Y-13664936D01*
X12903515Y-13664936D02*
X12893991Y-13674460D01*
X12893991Y-13674460D02*
X12874943Y-13683984D01*
X12874943Y-13683984D02*
X12817801Y-13683984D01*
X12817801Y-13683984D02*
X12798753Y-13674460D01*
X12798753Y-13674460D02*
X12789229Y-13664936D01*
X12998753Y-13664936D02*
X13008277Y-13674460D01*
X13008277Y-13674460D02*
X12998753Y-13683984D01*
X12998753Y-13683984D02*
X12989229Y-13674460D01*
X12989229Y-13674460D02*
X12998753Y-13664936D01*
X12998753Y-13664936D02*
X12998753Y-13683984D01*
X13084467Y-13503031D02*
X13093991Y-13493508D01*
X13093991Y-13493508D02*
X13113039Y-13483984D01*
X13113039Y-13483984D02*
X13160658Y-13483984D01*
X13160658Y-13483984D02*
X13179705Y-13493508D01*
X13179705Y-13493508D02*
X13189229Y-13503031D01*
X13189229Y-13503031D02*
X13198753Y-13522079D01*
X13198753Y-13522079D02*
X13198753Y-13541127D01*
X13198753Y-13541127D02*
X13189229Y-13569698D01*
X13189229Y-13569698D02*
X13074943Y-13683984D01*
X13074943Y-13683984D02*
X13198753Y-13683984D01*
X13322562Y-13483984D02*
X13341610Y-13483984D01*
X13341610Y-13483984D02*
X13360658Y-13493508D01*
X13360658Y-13493508D02*
X13370182Y-13503031D01*
X13370182Y-13503031D02*
X13379705Y-13522079D01*
X13379705Y-13522079D02*
X13389229Y-13560174D01*
X13389229Y-13560174D02*
X13389229Y-13607793D01*
X13389229Y-13607793D02*
X13379705Y-13645888D01*
X13379705Y-13645888D02*
X13370182Y-13664936D01*
X13370182Y-13664936D02*
X13360658Y-13674460D01*
X13360658Y-13674460D02*
X13341610Y-13683984D01*
X13341610Y-13683984D02*
X13322562Y-13683984D01*
X13322562Y-13683984D02*
X13303515Y-13674460D01*
X13303515Y-13674460D02*
X13293991Y-13664936D01*
X13293991Y-13664936D02*
X13284467Y-13645888D01*
X13284467Y-13645888D02*
X13274943Y-13607793D01*
X13274943Y-13607793D02*
X13274943Y-13560174D01*
X13274943Y-13560174D02*
X13284467Y-13522079D01*
X13284467Y-13522079D02*
X13293991Y-13503031D01*
X13293991Y-13503031D02*
X13303515Y-13493508D01*
X13303515Y-13493508D02*
X13322562Y-13483984D01*
X13513039Y-13483984D02*
X13532086Y-13483984D01*
X13532086Y-13483984D02*
X13551134Y-13493508D01*
X13551134Y-13493508D02*
X13560658Y-13503031D01*
X13560658Y-13503031D02*
X13570182Y-13522079D01*
X13570182Y-13522079D02*
X13579705Y-13560174D01*
X13579705Y-13560174D02*
X13579705Y-13607793D01*
X13579705Y-13607793D02*
X13570182Y-13645888D01*
X13570182Y-13645888D02*
X13560658Y-13664936D01*
X13560658Y-13664936D02*
X13551134Y-13674460D01*
X13551134Y-13674460D02*
X13532086Y-13683984D01*
X13532086Y-13683984D02*
X13513039Y-13683984D01*
X13513039Y-13683984D02*
X13493991Y-13674460D01*
X13493991Y-13674460D02*
X13484467Y-13664936D01*
X13484467Y-13664936D02*
X13474943Y-13645888D01*
X13474943Y-13645888D02*
X13465420Y-13607793D01*
X13465420Y-13607793D02*
X13465420Y-13560174D01*
X13465420Y-13560174D02*
X13474943Y-13522079D01*
X13474943Y-13522079D02*
X13484467Y-13503031D01*
X13484467Y-13503031D02*
X13493991Y-13493508D01*
X13493991Y-13493508D02*
X13513039Y-13483984D01*
X13665420Y-13683984D02*
X13665420Y-13550650D01*
X13665420Y-13569698D02*
X13674943Y-13560174D01*
X13674943Y-13560174D02*
X13693991Y-13550650D01*
X13693991Y-13550650D02*
X13722563Y-13550650D01*
X13722563Y-13550650D02*
X13741610Y-13560174D01*
X13741610Y-13560174D02*
X13751134Y-13579222D01*
X13751134Y-13579222D02*
X13751134Y-13683984D01*
X13751134Y-13579222D02*
X13760658Y-13560174D01*
X13760658Y-13560174D02*
X13779705Y-13550650D01*
X13779705Y-13550650D02*
X13808277Y-13550650D01*
X13808277Y-13550650D02*
X13827324Y-13560174D01*
X13827324Y-13560174D02*
X13836848Y-13579222D01*
X13836848Y-13579222D02*
X13836848Y-13683984D01*
X13932086Y-13683984D02*
X13932086Y-13550650D01*
X13932086Y-13569698D02*
X13941610Y-13560174D01*
X13941610Y-13560174D02*
X13960658Y-13550650D01*
X13960658Y-13550650D02*
X13989229Y-13550650D01*
X13989229Y-13550650D02*
X14008277Y-13560174D01*
X14008277Y-13560174D02*
X14017801Y-13579222D01*
X14017801Y-13579222D02*
X14017801Y-13683984D01*
X14017801Y-13579222D02*
X14027324Y-13560174D01*
X14027324Y-13560174D02*
X14046372Y-13550650D01*
X14046372Y-13550650D02*
X14074943Y-13550650D01*
X14074943Y-13550650D02*
X14093991Y-13560174D01*
X14093991Y-13560174D02*
X14103515Y-13579222D01*
X14103515Y-13579222D02*
X14103515Y-13683984D01*
X14493991Y-13474460D02*
X14322563Y-13731603D01*
X14751134Y-13483984D02*
X14770182Y-13483984D01*
X14770182Y-13483984D02*
X14789229Y-13493508D01*
X14789229Y-13493508D02*
X14798753Y-13503031D01*
X14798753Y-13503031D02*
X14808277Y-13522079D01*
X14808277Y-13522079D02*
X14817801Y-13560174D01*
X14817801Y-13560174D02*
X14817801Y-13607793D01*
X14817801Y-13607793D02*
X14808277Y-13645888D01*
X14808277Y-13645888D02*
X14798753Y-13664936D01*
X14798753Y-13664936D02*
X14789229Y-13674460D01*
X14789229Y-13674460D02*
X14770182Y-13683984D01*
X14770182Y-13683984D02*
X14751134Y-13683984D01*
X14751134Y-13683984D02*
X14732086Y-13674460D01*
X14732086Y-13674460D02*
X14722563Y-13664936D01*
X14722563Y-13664936D02*
X14713039Y-13645888D01*
X14713039Y-13645888D02*
X14703515Y-13607793D01*
X14703515Y-13607793D02*
X14703515Y-13560174D01*
X14703515Y-13560174D02*
X14713039Y-13522079D01*
X14713039Y-13522079D02*
X14722563Y-13503031D01*
X14722563Y-13503031D02*
X14732086Y-13493508D01*
X14732086Y-13493508D02*
X14751134Y-13483984D01*
X14903515Y-13664936D02*
X14913039Y-13674460D01*
X14913039Y-13674460D02*
X14903515Y-13683984D01*
X14903515Y-13683984D02*
X14893991Y-13674460D01*
X14893991Y-13674460D02*
X14903515Y-13664936D01*
X14903515Y-13664936D02*
X14903515Y-13683984D01*
X15103515Y-13683984D02*
X14989229Y-13683984D01*
X15046372Y-13683984D02*
X15046372Y-13483984D01*
X15046372Y-13483984D02*
X15027325Y-13512555D01*
X15027325Y-13512555D02*
X15008277Y-13531603D01*
X15008277Y-13531603D02*
X14989229Y-13541127D01*
X15179706Y-13503031D02*
X15189229Y-13493508D01*
X15189229Y-13493508D02*
X15208277Y-13483984D01*
X15208277Y-13483984D02*
X15255896Y-13483984D01*
X15255896Y-13483984D02*
X15274944Y-13493508D01*
X15274944Y-13493508D02*
X15284467Y-13503031D01*
X15284467Y-13503031D02*
X15293991Y-13522079D01*
X15293991Y-13522079D02*
X15293991Y-13541127D01*
X15293991Y-13541127D02*
X15284467Y-13569698D01*
X15284467Y-13569698D02*
X15170182Y-13683984D01*
X15170182Y-13683984D02*
X15293991Y-13683984D01*
X15465420Y-13483984D02*
X15427325Y-13483984D01*
X15427325Y-13483984D02*
X15408277Y-13493508D01*
X15408277Y-13493508D02*
X15398753Y-13503031D01*
X15398753Y-13503031D02*
X15379706Y-13531603D01*
X15379706Y-13531603D02*
X15370182Y-13569698D01*
X15370182Y-13569698D02*
X15370182Y-13645888D01*
X15370182Y-13645888D02*
X15379706Y-13664936D01*
X15379706Y-13664936D02*
X15389229Y-13674460D01*
X15389229Y-13674460D02*
X15408277Y-13683984D01*
X15408277Y-13683984D02*
X15446372Y-13683984D01*
X15446372Y-13683984D02*
X15465420Y-13674460D01*
X15465420Y-13674460D02*
X15474944Y-13664936D01*
X15474944Y-13664936D02*
X15484467Y-13645888D01*
X15484467Y-13645888D02*
X15484467Y-13598269D01*
X15484467Y-13598269D02*
X15474944Y-13579222D01*
X15474944Y-13579222D02*
X15465420Y-13569698D01*
X15465420Y-13569698D02*
X15446372Y-13560174D01*
X15446372Y-13560174D02*
X15408277Y-13560174D01*
X15408277Y-13560174D02*
X15389229Y-13569698D01*
X15389229Y-13569698D02*
X15379706Y-13579222D01*
X15379706Y-13579222D02*
X15370182Y-13598269D01*
X15608277Y-13483984D02*
X15627325Y-13483984D01*
X15627325Y-13483984D02*
X15646372Y-13493508D01*
X15646372Y-13493508D02*
X15655896Y-13503031D01*
X15655896Y-13503031D02*
X15665420Y-13522079D01*
X15665420Y-13522079D02*
X15674944Y-13560174D01*
X15674944Y-13560174D02*
X15674944Y-13607793D01*
X15674944Y-13607793D02*
X15665420Y-13645888D01*
X15665420Y-13645888D02*
X15655896Y-13664936D01*
X15655896Y-13664936D02*
X15646372Y-13674460D01*
X15646372Y-13674460D02*
X15627325Y-13683984D01*
X15627325Y-13683984D02*
X15608277Y-13683984D01*
X15608277Y-13683984D02*
X15589229Y-13674460D01*
X15589229Y-13674460D02*
X15579706Y-13664936D01*
X15579706Y-13664936D02*
X15570182Y-13645888D01*
X15570182Y-13645888D02*
X15560658Y-13607793D01*
X15560658Y-13607793D02*
X15560658Y-13560174D01*
X15560658Y-13560174D02*
X15570182Y-13522079D01*
X15570182Y-13522079D02*
X15579706Y-13503031D01*
X15579706Y-13503031D02*
X15589229Y-13493508D01*
X15589229Y-13493508D02*
X15608277Y-13483984D01*
X15751134Y-13483984D02*
X15751134Y-13522079D01*
X15827325Y-13483984D02*
X15827325Y-13522079D01*
X16122563Y-13760174D02*
X16113039Y-13750650D01*
X16113039Y-13750650D02*
X16093991Y-13722079D01*
X16093991Y-13722079D02*
X16084468Y-13703031D01*
X16084468Y-13703031D02*
X16074944Y-13674460D01*
X16074944Y-13674460D02*
X16065420Y-13626841D01*
X16065420Y-13626841D02*
X16065420Y-13588746D01*
X16065420Y-13588746D02*
X16074944Y-13541127D01*
X16074944Y-13541127D02*
X16084468Y-13512555D01*
X16084468Y-13512555D02*
X16093991Y-13493508D01*
X16093991Y-13493508D02*
X16113039Y-13464936D01*
X16113039Y-13464936D02*
X16122563Y-13455412D01*
X16284468Y-13550650D02*
X16284468Y-13683984D01*
X16236848Y-13474460D02*
X16189229Y-13617317D01*
X16189229Y-13617317D02*
X16313039Y-13617317D01*
X16541610Y-13683984D02*
X16541610Y-13483984D01*
X16627325Y-13683984D02*
X16627325Y-13579222D01*
X16627325Y-13579222D02*
X16617801Y-13560174D01*
X16617801Y-13560174D02*
X16598753Y-13550650D01*
X16598753Y-13550650D02*
X16570182Y-13550650D01*
X16570182Y-13550650D02*
X16551134Y-13560174D01*
X16551134Y-13560174D02*
X16541610Y-13569698D01*
X16751134Y-13683984D02*
X16732087Y-13674460D01*
X16732087Y-13674460D02*
X16722563Y-13664936D01*
X16722563Y-13664936D02*
X16713039Y-13645888D01*
X16713039Y-13645888D02*
X16713039Y-13588746D01*
X16713039Y-13588746D02*
X16722563Y-13569698D01*
X16722563Y-13569698D02*
X16732087Y-13560174D01*
X16732087Y-13560174D02*
X16751134Y-13550650D01*
X16751134Y-13550650D02*
X16779706Y-13550650D01*
X16779706Y-13550650D02*
X16798753Y-13560174D01*
X16798753Y-13560174D02*
X16808277Y-13569698D01*
X16808277Y-13569698D02*
X16817801Y-13588746D01*
X16817801Y-13588746D02*
X16817801Y-13645888D01*
X16817801Y-13645888D02*
X16808277Y-13664936D01*
X16808277Y-13664936D02*
X16798753Y-13674460D01*
X16798753Y-13674460D02*
X16779706Y-13683984D01*
X16779706Y-13683984D02*
X16751134Y-13683984D01*
X16932087Y-13683984D02*
X16913039Y-13674460D01*
X16913039Y-13674460D02*
X16903515Y-13655412D01*
X16903515Y-13655412D02*
X16903515Y-13483984D01*
X17084468Y-13674460D02*
X17065420Y-13683984D01*
X17065420Y-13683984D02*
X17027325Y-13683984D01*
X17027325Y-13683984D02*
X17008277Y-13674460D01*
X17008277Y-13674460D02*
X16998753Y-13655412D01*
X16998753Y-13655412D02*
X16998753Y-13579222D01*
X16998753Y-13579222D02*
X17008277Y-13560174D01*
X17008277Y-13560174D02*
X17027325Y-13550650D01*
X17027325Y-13550650D02*
X17065420Y-13550650D01*
X17065420Y-13550650D02*
X17084468Y-13560174D01*
X17084468Y-13560174D02*
X17093992Y-13579222D01*
X17093992Y-13579222D02*
X17093992Y-13598269D01*
X17093992Y-13598269D02*
X16998753Y-13617317D01*
X17170182Y-13674460D02*
X17189230Y-13683984D01*
X17189230Y-13683984D02*
X17227325Y-13683984D01*
X17227325Y-13683984D02*
X17246373Y-13674460D01*
X17246373Y-13674460D02*
X17255896Y-13655412D01*
X17255896Y-13655412D02*
X17255896Y-13645888D01*
X17255896Y-13645888D02*
X17246373Y-13626841D01*
X17246373Y-13626841D02*
X17227325Y-13617317D01*
X17227325Y-13617317D02*
X17198753Y-13617317D01*
X17198753Y-13617317D02*
X17179706Y-13607793D01*
X17179706Y-13607793D02*
X17170182Y-13588746D01*
X17170182Y-13588746D02*
X17170182Y-13579222D01*
X17170182Y-13579222D02*
X17179706Y-13560174D01*
X17179706Y-13560174D02*
X17198753Y-13550650D01*
X17198753Y-13550650D02*
X17227325Y-13550650D01*
X17227325Y-13550650D02*
X17246373Y-13560174D01*
X17322563Y-13760174D02*
X17332087Y-13750650D01*
X17332087Y-13750650D02*
X17351134Y-13722079D01*
X17351134Y-13722079D02*
X17360658Y-13703031D01*
X17360658Y-13703031D02*
X17370182Y-13674460D01*
X17370182Y-13674460D02*
X17379706Y-13626841D01*
X17379706Y-13626841D02*
X17379706Y-13588746D01*
X17379706Y-13588746D02*
X17370182Y-13541127D01*
X17370182Y-13541127D02*
X17360658Y-13512555D01*
X17360658Y-13512555D02*
X17351134Y-13493508D01*
X17351134Y-13493508D02*
X17332087Y-13464936D01*
X17332087Y-13464936D02*
X17322563Y-13455412D01*
X17684468Y-13760174D02*
X17674944Y-13750650D01*
X17674944Y-13750650D02*
X17655896Y-13722079D01*
X17655896Y-13722079D02*
X17646373Y-13703031D01*
X17646373Y-13703031D02*
X17636849Y-13674460D01*
X17636849Y-13674460D02*
X17627325Y-13626841D01*
X17627325Y-13626841D02*
X17627325Y-13588746D01*
X17627325Y-13588746D02*
X17636849Y-13541127D01*
X17636849Y-13541127D02*
X17646373Y-13512555D01*
X17646373Y-13512555D02*
X17655896Y-13493508D01*
X17655896Y-13493508D02*
X17674944Y-13464936D01*
X17674944Y-13464936D02*
X17684468Y-13455412D01*
X17760658Y-13550650D02*
X17760658Y-13683984D01*
X17760658Y-13569698D02*
X17770182Y-13560174D01*
X17770182Y-13560174D02*
X17789230Y-13550650D01*
X17789230Y-13550650D02*
X17817801Y-13550650D01*
X17817801Y-13550650D02*
X17836849Y-13560174D01*
X17836849Y-13560174D02*
X17846373Y-13579222D01*
X17846373Y-13579222D02*
X17846373Y-13683984D01*
X17970182Y-13683984D02*
X17951134Y-13674460D01*
X17951134Y-13674460D02*
X17941611Y-13664936D01*
X17941611Y-13664936D02*
X17932087Y-13645888D01*
X17932087Y-13645888D02*
X17932087Y-13588746D01*
X17932087Y-13588746D02*
X17941611Y-13569698D01*
X17941611Y-13569698D02*
X17951134Y-13560174D01*
X17951134Y-13560174D02*
X17970182Y-13550650D01*
X17970182Y-13550650D02*
X17998754Y-13550650D01*
X17998754Y-13550650D02*
X18017801Y-13560174D01*
X18017801Y-13560174D02*
X18027325Y-13569698D01*
X18027325Y-13569698D02*
X18036849Y-13588746D01*
X18036849Y-13588746D02*
X18036849Y-13645888D01*
X18036849Y-13645888D02*
X18027325Y-13664936D01*
X18027325Y-13664936D02*
X18017801Y-13674460D01*
X18017801Y-13674460D02*
X17998754Y-13683984D01*
X17998754Y-13683984D02*
X17970182Y-13683984D01*
X18093992Y-13550650D02*
X18170182Y-13550650D01*
X18122563Y-13483984D02*
X18122563Y-13655412D01*
X18122563Y-13655412D02*
X18132087Y-13674460D01*
X18132087Y-13674460D02*
X18151134Y-13683984D01*
X18151134Y-13683984D02*
X18170182Y-13683984D01*
X18389230Y-13550650D02*
X18389230Y-13750650D01*
X18389230Y-13560174D02*
X18408277Y-13550650D01*
X18408277Y-13550650D02*
X18446373Y-13550650D01*
X18446373Y-13550650D02*
X18465420Y-13560174D01*
X18465420Y-13560174D02*
X18474944Y-13569698D01*
X18474944Y-13569698D02*
X18484468Y-13588746D01*
X18484468Y-13588746D02*
X18484468Y-13645888D01*
X18484468Y-13645888D02*
X18474944Y-13664936D01*
X18474944Y-13664936D02*
X18465420Y-13674460D01*
X18465420Y-13674460D02*
X18446373Y-13683984D01*
X18446373Y-13683984D02*
X18408277Y-13683984D01*
X18408277Y-13683984D02*
X18389230Y-13674460D01*
X18598754Y-13683984D02*
X18579706Y-13674460D01*
X18579706Y-13674460D02*
X18570182Y-13655412D01*
X18570182Y-13655412D02*
X18570182Y-13483984D01*
X18760658Y-13683984D02*
X18760658Y-13579222D01*
X18760658Y-13579222D02*
X18751135Y-13560174D01*
X18751135Y-13560174D02*
X18732087Y-13550650D01*
X18732087Y-13550650D02*
X18693992Y-13550650D01*
X18693992Y-13550650D02*
X18674944Y-13560174D01*
X18760658Y-13674460D02*
X18741611Y-13683984D01*
X18741611Y-13683984D02*
X18693992Y-13683984D01*
X18693992Y-13683984D02*
X18674944Y-13674460D01*
X18674944Y-13674460D02*
X18665420Y-13655412D01*
X18665420Y-13655412D02*
X18665420Y-13636365D01*
X18665420Y-13636365D02*
X18674944Y-13617317D01*
X18674944Y-13617317D02*
X18693992Y-13607793D01*
X18693992Y-13607793D02*
X18741611Y-13607793D01*
X18741611Y-13607793D02*
X18760658Y-13598269D01*
X18827325Y-13550650D02*
X18903515Y-13550650D01*
X18855896Y-13483984D02*
X18855896Y-13655412D01*
X18855896Y-13655412D02*
X18865420Y-13674460D01*
X18865420Y-13674460D02*
X18884468Y-13683984D01*
X18884468Y-13683984D02*
X18903515Y-13683984D01*
X19046373Y-13674460D02*
X19027325Y-13683984D01*
X19027325Y-13683984D02*
X18989230Y-13683984D01*
X18989230Y-13683984D02*
X18970182Y-13674460D01*
X18970182Y-13674460D02*
X18960658Y-13655412D01*
X18960658Y-13655412D02*
X18960658Y-13579222D01*
X18960658Y-13579222D02*
X18970182Y-13560174D01*
X18970182Y-13560174D02*
X18989230Y-13550650D01*
X18989230Y-13550650D02*
X19027325Y-13550650D01*
X19027325Y-13550650D02*
X19046373Y-13560174D01*
X19046373Y-13560174D02*
X19055896Y-13579222D01*
X19055896Y-13579222D02*
X19055896Y-13598269D01*
X19055896Y-13598269D02*
X18960658Y-13617317D01*
X19227325Y-13683984D02*
X19227325Y-13483984D01*
X19227325Y-13674460D02*
X19208277Y-13683984D01*
X19208277Y-13683984D02*
X19170182Y-13683984D01*
X19170182Y-13683984D02*
X19151135Y-13674460D01*
X19151135Y-13674460D02*
X19141611Y-13664936D01*
X19141611Y-13664936D02*
X19132087Y-13645888D01*
X19132087Y-13645888D02*
X19132087Y-13588746D01*
X19132087Y-13588746D02*
X19141611Y-13569698D01*
X19141611Y-13569698D02*
X19151135Y-13560174D01*
X19151135Y-13560174D02*
X19170182Y-13550650D01*
X19170182Y-13550650D02*
X19208277Y-13550650D01*
X19208277Y-13550650D02*
X19227325Y-13560174D01*
X19303516Y-13760174D02*
X19313039Y-13750650D01*
X19313039Y-13750650D02*
X19332087Y-13722079D01*
X19332087Y-13722079D02*
X19341611Y-13703031D01*
X19341611Y-13703031D02*
X19351135Y-13674460D01*
X19351135Y-13674460D02*
X19360658Y-13626841D01*
X19360658Y-13626841D02*
X19360658Y-13588746D01*
X19360658Y-13588746D02*
X19351135Y-13541127D01*
X19351135Y-13541127D02*
X19341611Y-13512555D01*
X19341611Y-13512555D02*
X19332087Y-13493508D01*
X19332087Y-13493508D02*
X19313039Y-13464936D01*
X19313039Y-13464936D02*
X19303516Y-13455412D01*
M02*
