%TF.GenerationSoftware,KiCad,Pcbnew,9.0.0*%
%TF.CreationDate,2025-04-21T23:38:41+01:00*%
%TF.ProjectId,CapyController,43617079-436f-46e7-9472-6f6c6c65722e,rev?*%
%TF.SameCoordinates,Original*%
%TF.FileFunction,Drillmap*%
%TF.FilePolarity,Positive*%
%FSLAX45Y45*%
G04 Gerber Fmt 4.5, Leading zero omitted, Abs format (unit mm)*
G04 Created by KiCad (PCBNEW 9.0.0) date 2025-04-21 23:38:41*
%MOMM*%
%LPD*%
G01*
G04 APERTURE LIST*
%ADD10C,0.050000*%
%ADD11C,0.200000*%
%ADD12C,0.100000*%
%ADD13C,0.102000*%
%ADD14C,0.110000*%
G04 APERTURE END LIST*
D10*
X12550000Y-5950000D02*
X22550000Y-5950000D01*
X22550000Y-12950000D01*
X12550000Y-12950000D01*
X12550000Y-5950000D01*
D11*
D12*
X17649000Y-7915000D02*
X17679000Y-7945000D01*
X17679000Y-7915000D02*
X17649000Y-7945000D01*
X19935000Y-9885000D02*
X19965000Y-9915000D01*
X19965000Y-9885000D02*
X19935000Y-9915000D01*
X19985000Y-9785000D02*
X20015000Y-9815000D01*
X20015000Y-9785000D02*
X19985000Y-9815000D01*
X20035000Y-11120000D02*
X20065000Y-11150000D01*
X20065000Y-11120000D02*
X20035000Y-11150000D01*
X20085000Y-10535000D02*
X20115000Y-10565000D01*
X20115000Y-10535000D02*
X20085000Y-10565000D01*
X20619250Y-10870750D02*
X20649250Y-10900750D01*
X20649250Y-10870750D02*
X20619250Y-10900750D01*
X20747500Y-10127500D02*
X20777500Y-10157500D01*
X20777500Y-10127500D02*
X20747500Y-10157500D01*
X20812500Y-9175000D02*
X20842500Y-9205000D01*
X20842500Y-9175000D02*
X20812500Y-9205000D01*
X13962500Y-12210000D02*
G75*
G02*
X13887500Y-12210000I-37500J0D01*
G01*
X13887500Y-12210000D02*
G75*
G02*
X13962500Y-12210000I37500J0D01*
G01*
X14162500Y-12210000D02*
G75*
G02*
X14087500Y-12210000I-37500J0D01*
G01*
X14087500Y-12210000D02*
G75*
G02*
X14162500Y-12210000I37500J0D01*
G01*
X14362500Y-12210000D02*
G75*
G02*
X14287500Y-12210000I-37500J0D01*
G01*
X14287500Y-12210000D02*
G75*
G02*
X14362500Y-12210000I37500J0D01*
G01*
X14477500Y-6690000D02*
G75*
G02*
X14402500Y-6690000I-37500J0D01*
G01*
X14402500Y-6690000D02*
G75*
G02*
X14477500Y-6690000I37500J0D01*
G01*
X14562500Y-12210000D02*
G75*
G02*
X14487500Y-12210000I-37500J0D01*
G01*
X14487500Y-12210000D02*
G75*
G02*
X14562500Y-12210000I37500J0D01*
G01*
X14677500Y-6690000D02*
G75*
G02*
X14602500Y-6690000I-37500J0D01*
G01*
X14602500Y-6690000D02*
G75*
G02*
X14677500Y-6690000I37500J0D01*
G01*
X14762500Y-12210000D02*
G75*
G02*
X14687500Y-12210000I-37500J0D01*
G01*
X14687500Y-12210000D02*
G75*
G02*
X14762500Y-12210000I37500J0D01*
G01*
X14877500Y-6690000D02*
G75*
G02*
X14802500Y-6690000I-37500J0D01*
G01*
X14802500Y-6690000D02*
G75*
G02*
X14877500Y-6690000I37500J0D01*
G01*
X14962500Y-12210000D02*
G75*
G02*
X14887500Y-12210000I-37500J0D01*
G01*
X14887500Y-12210000D02*
G75*
G02*
X14962500Y-12210000I37500J0D01*
G01*
X15077500Y-6690000D02*
G75*
G02*
X15002500Y-6690000I-37500J0D01*
G01*
X15002500Y-6690000D02*
G75*
G02*
X15077500Y-6690000I37500J0D01*
G01*
X15162500Y-12210000D02*
G75*
G02*
X15087500Y-12210000I-37500J0D01*
G01*
X15087500Y-12210000D02*
G75*
G02*
X15162500Y-12210000I37500J0D01*
G01*
X15277500Y-6690000D02*
G75*
G02*
X15202500Y-6690000I-37500J0D01*
G01*
X15202500Y-6690000D02*
G75*
G02*
X15277500Y-6690000I37500J0D01*
G01*
X15362500Y-12210000D02*
G75*
G02*
X15287500Y-12210000I-37500J0D01*
G01*
X15287500Y-12210000D02*
G75*
G02*
X15362500Y-12210000I37500J0D01*
G01*
X15477500Y-6690000D02*
G75*
G02*
X15402500Y-6690000I-37500J0D01*
G01*
X15402500Y-6690000D02*
G75*
G02*
X15477500Y-6690000I37500J0D01*
G01*
X15677500Y-6690000D02*
G75*
G02*
X15602500Y-6690000I-37500J0D01*
G01*
X15602500Y-6690000D02*
G75*
G02*
X15677500Y-6690000I37500J0D01*
G01*
X15877500Y-6690000D02*
G75*
G02*
X15802500Y-6690000I-37500J0D01*
G01*
X15802500Y-6690000D02*
G75*
G02*
X15877500Y-6690000I37500J0D01*
G01*
X15897500Y-11400000D02*
G75*
G02*
X15822500Y-11400000I-37500J0D01*
G01*
X15822500Y-11400000D02*
G75*
G02*
X15897500Y-11400000I37500J0D01*
G01*
X15897500Y-11600000D02*
G75*
G02*
X15822500Y-11600000I-37500J0D01*
G01*
X15822500Y-11600000D02*
G75*
G02*
X15897500Y-11600000I37500J0D01*
G01*
X15897500Y-11800000D02*
G75*
G02*
X15822500Y-11800000I-37500J0D01*
G01*
X15822500Y-11800000D02*
G75*
G02*
X15897500Y-11800000I37500J0D01*
G01*
X15897500Y-12000000D02*
G75*
G02*
X15822500Y-12000000I-37500J0D01*
G01*
X15822500Y-12000000D02*
G75*
G02*
X15897500Y-12000000I37500J0D01*
G01*
X15897500Y-12200000D02*
G75*
G02*
X15822500Y-12200000I-37500J0D01*
G01*
X15822500Y-12200000D02*
G75*
G02*
X15897500Y-12200000I37500J0D01*
G01*
X16472500Y-6635000D02*
G75*
G02*
X16397500Y-6635000I-37500J0D01*
G01*
X16397500Y-6635000D02*
G75*
G02*
X16472500Y-6635000I37500J0D01*
G01*
X16472500Y-6835000D02*
G75*
G02*
X16397500Y-6835000I-37500J0D01*
G01*
X16397500Y-6835000D02*
G75*
G02*
X16472500Y-6835000I37500J0D01*
G01*
X16472500Y-7035000D02*
G75*
G02*
X16397500Y-7035000I-37500J0D01*
G01*
X16397500Y-7035000D02*
G75*
G02*
X16472500Y-7035000I37500J0D01*
G01*
X16472500Y-7235000D02*
G75*
G02*
X16397500Y-7235000I-37500J0D01*
G01*
X16397500Y-7235000D02*
G75*
G02*
X16472500Y-7235000I37500J0D01*
G01*
X16472500Y-7435000D02*
G75*
G02*
X16397500Y-7435000I-37500J0D01*
G01*
X16397500Y-7435000D02*
G75*
G02*
X16472500Y-7435000I37500J0D01*
G01*
X19882500Y-6665000D02*
G75*
G02*
X19807500Y-6665000I-37500J0D01*
G01*
X19807500Y-6665000D02*
G75*
G02*
X19882500Y-6665000I37500J0D01*
G01*
X19882500Y-6865000D02*
G75*
G02*
X19807500Y-6865000I-37500J0D01*
G01*
X19807500Y-6865000D02*
G75*
G02*
X19882500Y-6865000I37500J0D01*
G01*
X19882500Y-7065000D02*
G75*
G02*
X19807500Y-7065000I-37500J0D01*
G01*
X19807500Y-7065000D02*
G75*
G02*
X19882500Y-7065000I37500J0D01*
G01*
X19882500Y-7265000D02*
G75*
G02*
X19807500Y-7265000I-37500J0D01*
G01*
X19807500Y-7265000D02*
G75*
G02*
X19882500Y-7265000I37500J0D01*
G01*
X20637500Y-6655000D02*
G75*
G02*
X20562500Y-6655000I-37500J0D01*
G01*
X20562500Y-6655000D02*
G75*
G02*
X20637500Y-6655000I37500J0D01*
G01*
X20637500Y-6855000D02*
G75*
G02*
X20562500Y-6855000I-37500J0D01*
G01*
X20562500Y-6855000D02*
G75*
G02*
X20637500Y-6855000I37500J0D01*
G01*
X20637500Y-7055000D02*
G75*
G02*
X20562500Y-7055000I-37500J0D01*
G01*
X20562500Y-7055000D02*
G75*
G02*
X20637500Y-7055000I37500J0D01*
G01*
X20637500Y-7255000D02*
G75*
G02*
X20562500Y-7255000I-37500J0D01*
G01*
X20562500Y-7255000D02*
G75*
G02*
X20637500Y-7255000I37500J0D01*
G01*
X21387500Y-6655000D02*
G75*
G02*
X21312500Y-6655000I-37500J0D01*
G01*
X21312500Y-6655000D02*
G75*
G02*
X21387500Y-6655000I37500J0D01*
G01*
X21387500Y-6855000D02*
G75*
G02*
X21312500Y-6855000I-37500J0D01*
G01*
X21312500Y-6855000D02*
G75*
G02*
X21387500Y-6855000I37500J0D01*
G01*
X21387500Y-7055000D02*
G75*
G02*
X21312500Y-7055000I-37500J0D01*
G01*
X21312500Y-7055000D02*
G75*
G02*
X21387500Y-7055000I37500J0D01*
G01*
X21387500Y-7255000D02*
G75*
G02*
X21312500Y-7255000I-37500J0D01*
G01*
X21312500Y-7255000D02*
G75*
G02*
X21387500Y-7255000I37500J0D01*
G01*
X21387500Y-8160000D02*
G75*
G02*
X21312500Y-8160000I-37500J0D01*
G01*
X21312500Y-8160000D02*
G75*
G02*
X21387500Y-8160000I37500J0D01*
G01*
X21387500Y-9102500D02*
G75*
G02*
X21312500Y-9102500I-37500J0D01*
G01*
X21312500Y-9102500D02*
G75*
G02*
X21387500Y-9102500I37500J0D01*
G01*
X21387500Y-10110000D02*
G75*
G02*
X21312500Y-10110000I-37500J0D01*
G01*
X21312500Y-10110000D02*
G75*
G02*
X21387500Y-10110000I37500J0D01*
G01*
X21387500Y-10975000D02*
G75*
G02*
X21312500Y-10975000I-37500J0D01*
G01*
X21312500Y-10975000D02*
G75*
G02*
X21387500Y-10975000I37500J0D01*
G01*
X21387500Y-11842500D02*
G75*
G02*
X21312500Y-11842500I-37500J0D01*
G01*
X21312500Y-11842500D02*
G75*
G02*
X21387500Y-11842500I37500J0D01*
G01*
X21587500Y-8160000D02*
G75*
G02*
X21512500Y-8160000I-37500J0D01*
G01*
X21512500Y-8160000D02*
G75*
G02*
X21587500Y-8160000I37500J0D01*
G01*
X21587500Y-9102500D02*
G75*
G02*
X21512500Y-9102500I-37500J0D01*
G01*
X21512500Y-9102500D02*
G75*
G02*
X21587500Y-9102500I37500J0D01*
G01*
X21587500Y-10110000D02*
G75*
G02*
X21512500Y-10110000I-37500J0D01*
G01*
X21512500Y-10110000D02*
G75*
G02*
X21587500Y-10110000I37500J0D01*
G01*
X21587500Y-10975000D02*
G75*
G02*
X21512500Y-10975000I-37500J0D01*
G01*
X21512500Y-10975000D02*
G75*
G02*
X21587500Y-10975000I37500J0D01*
G01*
X21587500Y-11842500D02*
G75*
G02*
X21512500Y-11842500I-37500J0D01*
G01*
X21512500Y-11842500D02*
G75*
G02*
X21587500Y-11842500I37500J0D01*
G01*
X21787500Y-8160000D02*
G75*
G02*
X21712500Y-8160000I-37500J0D01*
G01*
X21712500Y-8160000D02*
G75*
G02*
X21787500Y-8160000I37500J0D01*
G01*
X21787500Y-9102500D02*
G75*
G02*
X21712500Y-9102500I-37500J0D01*
G01*
X21712500Y-9102500D02*
G75*
G02*
X21787500Y-9102500I37500J0D01*
G01*
X21787500Y-10110000D02*
G75*
G02*
X21712500Y-10110000I-37500J0D01*
G01*
X21712500Y-10110000D02*
G75*
G02*
X21787500Y-10110000I37500J0D01*
G01*
X21787500Y-10975000D02*
G75*
G02*
X21712500Y-10975000I-37500J0D01*
G01*
X21712500Y-10975000D02*
G75*
G02*
X21787500Y-10975000I37500J0D01*
G01*
X21787500Y-11842500D02*
G75*
G02*
X21712500Y-11842500I-37500J0D01*
G01*
X21712500Y-11842500D02*
G75*
G02*
X21787500Y-11842500I37500J0D01*
G01*
X21987500Y-8160000D02*
G75*
G02*
X21912500Y-8160000I-37500J0D01*
G01*
X21912500Y-8160000D02*
G75*
G02*
X21987500Y-8160000I37500J0D01*
G01*
X21987500Y-9102500D02*
G75*
G02*
X21912500Y-9102500I-37500J0D01*
G01*
X21912500Y-9102500D02*
G75*
G02*
X21987500Y-9102500I37500J0D01*
G01*
X21987500Y-10110000D02*
G75*
G02*
X21912500Y-10110000I-37500J0D01*
G01*
X21912500Y-10110000D02*
G75*
G02*
X21987500Y-10110000I37500J0D01*
G01*
X21987500Y-10975000D02*
G75*
G02*
X21912500Y-10975000I-37500J0D01*
G01*
X21912500Y-10975000D02*
G75*
G02*
X21987500Y-10975000I37500J0D01*
G01*
X21987500Y-11842500D02*
G75*
G02*
X21912500Y-11842500I-37500J0D01*
G01*
X21912500Y-11842500D02*
G75*
G02*
X21987500Y-11842500I37500J0D01*
G01*
X13216000Y-11420000D02*
X13216000Y-11520000D01*
X13166000Y-11470000D02*
X13266000Y-11470000D01*
X13216000Y-11674000D02*
X13216000Y-11774000D01*
X13166000Y-11724000D02*
X13266000Y-11724000D01*
X13216000Y-11928000D02*
X13216000Y-12028000D01*
X13166000Y-11978000D02*
X13266000Y-11978000D01*
X13216000Y-12182000D02*
X13216000Y-12282000D01*
X13166000Y-12232000D02*
X13266000Y-12232000D01*
X13360000Y-6869000D02*
X13360000Y-6969000D01*
X13310000Y-6919000D02*
X13410000Y-6919000D01*
X13360000Y-7123000D02*
X13360000Y-7223000D01*
X13310000Y-7173000D02*
X13410000Y-7173000D01*
X13360000Y-7377000D02*
X13360000Y-7477000D01*
X13310000Y-7427000D02*
X13410000Y-7427000D01*
X13360000Y-7631000D02*
X13360000Y-7731000D01*
X13310000Y-7681000D02*
X13410000Y-7681000D01*
X13360000Y-7885000D02*
X13360000Y-7985000D01*
X13310000Y-7935000D02*
X13410000Y-7935000D01*
X13470000Y-11420000D02*
X13470000Y-11520000D01*
X13420000Y-11470000D02*
X13520000Y-11470000D01*
X13470000Y-11674000D02*
X13470000Y-11774000D01*
X13420000Y-11724000D02*
X13520000Y-11724000D01*
X13470000Y-11928000D02*
X13470000Y-12028000D01*
X13420000Y-11978000D02*
X13520000Y-11978000D01*
X13470000Y-12182000D02*
X13470000Y-12282000D01*
X13420000Y-12232000D02*
X13520000Y-12232000D01*
X13614000Y-6869000D02*
X13614000Y-6969000D01*
X13564000Y-6919000D02*
X13664000Y-6919000D01*
X13614000Y-7123000D02*
X13614000Y-7223000D01*
X13564000Y-7173000D02*
X13664000Y-7173000D01*
X13614000Y-7377000D02*
X13614000Y-7477000D01*
X13564000Y-7427000D02*
X13664000Y-7427000D01*
X13614000Y-7631000D02*
X13614000Y-7731000D01*
X13564000Y-7681000D02*
X13664000Y-7681000D01*
X13614000Y-7885000D02*
X13614000Y-7985000D01*
X13564000Y-7935000D02*
X13664000Y-7935000D01*
D13*
X13812563Y-8435563D02*
X13812563Y-8363437D01*
X13740437Y-8363437D01*
X13740437Y-8435563D01*
X13812563Y-8435563D01*
X13812563Y-10976563D02*
X13812563Y-10904437D01*
X13740437Y-10904437D01*
X13740437Y-10976563D01*
X13812563Y-10976563D01*
X14066563Y-8435563D02*
X14066563Y-8363437D01*
X13994437Y-8363437D01*
X13994437Y-8435563D01*
X14066563Y-8435563D01*
X14066563Y-10976563D02*
X14066563Y-10904437D01*
X13994437Y-10904437D01*
X13994437Y-10976563D01*
X14066563Y-10976563D01*
X14320563Y-8435563D02*
X14320563Y-8363437D01*
X14248437Y-8363437D01*
X14248437Y-8435563D01*
X14320563Y-8435563D01*
X14320563Y-10976563D02*
X14320563Y-10904437D01*
X14248437Y-10904437D01*
X14248437Y-10976563D01*
X14320563Y-10976563D01*
X14574563Y-8435563D02*
X14574563Y-8363437D01*
X14502437Y-8363437D01*
X14502437Y-8435563D01*
X14574563Y-8435563D01*
X14574563Y-10976563D02*
X14574563Y-10904437D01*
X14502437Y-10904437D01*
X14502437Y-10976563D01*
X14574563Y-10976563D01*
X14828563Y-8435563D02*
X14828563Y-8363437D01*
X14756437Y-8363437D01*
X14756437Y-8435563D01*
X14828563Y-8435563D01*
X14828563Y-10976563D02*
X14828563Y-10904437D01*
X14756437Y-10904437D01*
X14756437Y-10976563D01*
X14828563Y-10976563D01*
X15082563Y-8435563D02*
X15082563Y-8363437D01*
X15010437Y-8363437D01*
X15010437Y-8435563D01*
X15082563Y-8435563D01*
X15082563Y-10976563D02*
X15082563Y-10904437D01*
X15010437Y-10904437D01*
X15010437Y-10976563D01*
X15082563Y-10976563D01*
X15336563Y-8435563D02*
X15336563Y-8363437D01*
X15264437Y-8363437D01*
X15264437Y-8435563D01*
X15336563Y-8435563D01*
X15336563Y-10976563D02*
X15336563Y-10904437D01*
X15264437Y-10904437D01*
X15264437Y-10976563D01*
X15336563Y-10976563D01*
X15590563Y-8435563D02*
X15590563Y-8363437D01*
X15518437Y-8363437D01*
X15518437Y-8435563D01*
X15590563Y-8435563D01*
X15590563Y-10976563D02*
X15590563Y-10904437D01*
X15518437Y-10904437D01*
X15518437Y-10976563D01*
X15590563Y-10976563D01*
X15844563Y-8435563D02*
X15844563Y-8363437D01*
X15772437Y-8363437D01*
X15772437Y-8435563D01*
X15844563Y-8435563D01*
X15844563Y-10976563D02*
X15844563Y-10904437D01*
X15772437Y-10904437D01*
X15772437Y-10976563D01*
X15844563Y-10976563D01*
X16098563Y-8435563D02*
X16098563Y-8363437D01*
X16026437Y-8363437D01*
X16026437Y-8435563D01*
X16098563Y-8435563D01*
X16098563Y-10976563D02*
X16098563Y-10904437D01*
X16026437Y-10904437D01*
X16026437Y-10976563D01*
X16098563Y-10976563D01*
X16352563Y-8435563D02*
X16352563Y-8363437D01*
X16280437Y-8363437D01*
X16280437Y-8435563D01*
X16352563Y-8435563D01*
X16352563Y-10976563D02*
X16352563Y-10904437D01*
X16280437Y-10904437D01*
X16280437Y-10976563D01*
X16352563Y-10976563D01*
X16606563Y-8435563D02*
X16606563Y-8363437D01*
X16534437Y-8363437D01*
X16534437Y-8435563D01*
X16606563Y-8435563D01*
X16606563Y-10976563D02*
X16606563Y-10904437D01*
X16534437Y-10904437D01*
X16534437Y-10976563D01*
X16606563Y-10976563D01*
X16860563Y-8435563D02*
X16860563Y-8363437D01*
X16788437Y-8363437D01*
X16788437Y-8435563D01*
X16860563Y-8435563D01*
X16860563Y-10976563D02*
X16860563Y-10904437D01*
X16788437Y-10904437D01*
X16788437Y-10976563D01*
X16860563Y-10976563D01*
X17114563Y-8435563D02*
X17114563Y-8363437D01*
X17042437Y-8363437D01*
X17042437Y-8435563D01*
X17114563Y-8435563D01*
X17114563Y-10976563D02*
X17114563Y-10904437D01*
X17042437Y-10904437D01*
X17042437Y-10976563D01*
X17114563Y-10976563D01*
X17368563Y-8435563D02*
X17368563Y-8363437D01*
X17296437Y-8363437D01*
X17296437Y-8435563D01*
X17368563Y-8435563D01*
X17368563Y-10976563D02*
X17368563Y-10904437D01*
X17296437Y-10904437D01*
X17296437Y-10976563D01*
X17368563Y-10976563D01*
X17622563Y-8435563D02*
X17622563Y-8363437D01*
X17550437Y-8363437D01*
X17550437Y-8435563D01*
X17622563Y-8435563D01*
X17622563Y-10976563D02*
X17622563Y-10904437D01*
X17550437Y-10904437D01*
X17550437Y-10976563D01*
X17622563Y-10976563D01*
X17876563Y-8435563D02*
X17876563Y-8363437D01*
X17804437Y-8363437D01*
X17804437Y-8435563D01*
X17876563Y-8435563D01*
X17876563Y-10976563D02*
X17876563Y-10904437D01*
X17804437Y-10904437D01*
X17804437Y-10976563D01*
X17876563Y-10976563D01*
X18130563Y-8435563D02*
X18130563Y-8363437D01*
X18058437Y-8363437D01*
X18058437Y-8435563D01*
X18130563Y-8435563D01*
X18130563Y-10976563D02*
X18130563Y-10904437D01*
X18058437Y-10904437D01*
X18058437Y-10976563D01*
X18130563Y-10976563D01*
X18384563Y-8435563D02*
X18384563Y-8363437D01*
X18312437Y-8363437D01*
X18312437Y-8435563D01*
X18384563Y-8435563D01*
X18384563Y-10976563D02*
X18384563Y-10904437D01*
X18312437Y-10904437D01*
X18312437Y-10976563D01*
X18384563Y-10976563D01*
X18638563Y-8435563D02*
X18638563Y-8363437D01*
X18566437Y-8363437D01*
X18566437Y-8435563D01*
X18638563Y-8435563D01*
X18638563Y-10976563D02*
X18638563Y-10904437D01*
X18566437Y-10904437D01*
X18566437Y-10976563D01*
X18638563Y-10976563D01*
X18892563Y-8435563D02*
X18892563Y-8363437D01*
X18820437Y-8363437D01*
X18820437Y-8435563D01*
X18892563Y-8435563D01*
X18892563Y-10976563D02*
X18892563Y-10904437D01*
X18820437Y-10904437D01*
X18820437Y-10976563D01*
X18892563Y-10976563D01*
X19146563Y-8435563D02*
X19146563Y-8363437D01*
X19074437Y-8363437D01*
X19074437Y-8435563D01*
X19146563Y-8435563D01*
X19146563Y-10976563D02*
X19146563Y-10904437D01*
X19074437Y-10904437D01*
X19074437Y-10976563D01*
X19146563Y-10976563D01*
D14*
X16600000Y-11635000D02*
X16655000Y-11580000D01*
X16600000Y-11525000D01*
X16545000Y-11580000D01*
X16600000Y-11635000D01*
X16600000Y-12135000D02*
X16655000Y-12080000D01*
X16600000Y-12025000D01*
X16545000Y-12080000D01*
X16600000Y-12135000D01*
X16854000Y-11635000D02*
X16909000Y-11580000D01*
X16854000Y-11525000D01*
X16799000Y-11580000D01*
X16854000Y-11635000D01*
X16854000Y-12135000D02*
X16909000Y-12080000D01*
X16854000Y-12025000D01*
X16799000Y-12080000D01*
X16854000Y-12135000D01*
X17108000Y-11635000D02*
X17163000Y-11580000D01*
X17108000Y-11525000D01*
X17053000Y-11580000D01*
X17108000Y-11635000D01*
X17108000Y-12135000D02*
X17163000Y-12080000D01*
X17108000Y-12025000D01*
X17053000Y-12080000D01*
X17108000Y-12135000D01*
X17158000Y-6980000D02*
X17213000Y-6925000D01*
X17158000Y-6870000D01*
X17103000Y-6925000D01*
X17158000Y-6980000D01*
X17158000Y-7480000D02*
X17213000Y-7425000D01*
X17158000Y-7370000D01*
X17103000Y-7425000D01*
X17158000Y-7480000D01*
X17362000Y-11635000D02*
X17417000Y-11580000D01*
X17362000Y-11525000D01*
X17307000Y-11580000D01*
X17362000Y-11635000D01*
X17362000Y-12135000D02*
X17417000Y-12080000D01*
X17362000Y-12025000D01*
X17307000Y-12080000D01*
X17362000Y-12135000D01*
X17412000Y-6980000D02*
X17467000Y-6925000D01*
X17412000Y-6870000D01*
X17357000Y-6925000D01*
X17412000Y-6980000D01*
X17412000Y-7480000D02*
X17467000Y-7425000D01*
X17412000Y-7370000D01*
X17357000Y-7425000D01*
X17412000Y-7480000D01*
X17666000Y-6980000D02*
X17721000Y-6925000D01*
X17666000Y-6870000D01*
X17611000Y-6925000D01*
X17666000Y-6980000D01*
X17666000Y-7480000D02*
X17721000Y-7425000D01*
X17666000Y-7370000D01*
X17611000Y-7425000D01*
X17666000Y-7480000D01*
X17920000Y-6980000D02*
X17975000Y-6925000D01*
X17920000Y-6870000D01*
X17865000Y-6925000D01*
X17920000Y-6980000D01*
X17920000Y-7480000D02*
X17975000Y-7425000D01*
X17920000Y-7370000D01*
X17865000Y-7425000D01*
X17920000Y-7480000D01*
X18221000Y-11650000D02*
X18276000Y-11595000D01*
X18221000Y-11540000D01*
X18166000Y-11595000D01*
X18221000Y-11650000D01*
X18221000Y-12150000D02*
X18276000Y-12095000D01*
X18221000Y-12040000D01*
X18166000Y-12095000D01*
X18221000Y-12150000D01*
X18475000Y-11650000D02*
X18530000Y-11595000D01*
X18475000Y-11540000D01*
X18420000Y-11595000D01*
X18475000Y-11650000D01*
X18475000Y-12150000D02*
X18530000Y-12095000D01*
X18475000Y-12040000D01*
X18420000Y-12095000D01*
X18475000Y-12150000D01*
X18706000Y-6990000D02*
X18761000Y-6935000D01*
X18706000Y-6880000D01*
X18651000Y-6935000D01*
X18706000Y-6990000D01*
X18706000Y-7490000D02*
X18761000Y-7435000D01*
X18706000Y-7380000D01*
X18651000Y-7435000D01*
X18706000Y-7490000D01*
X18960000Y-6990000D02*
X19015000Y-6935000D01*
X18960000Y-6880000D01*
X18905000Y-6935000D01*
X18960000Y-6990000D01*
X18960000Y-7490000D02*
X19015000Y-7435000D01*
X18960000Y-7380000D01*
X18905000Y-7435000D01*
X18960000Y-7490000D01*
X19086000Y-11645000D02*
X19141000Y-11590000D01*
X19086000Y-11535000D01*
X19031000Y-11590000D01*
X19086000Y-11645000D01*
X19086000Y-12145000D02*
X19141000Y-12090000D01*
X19086000Y-12035000D01*
X19031000Y-12090000D01*
X19086000Y-12145000D01*
X19340000Y-11645000D02*
X19395000Y-11590000D01*
X19340000Y-11535000D01*
X19285000Y-11590000D01*
X19340000Y-11645000D01*
X19340000Y-12145000D02*
X19395000Y-12090000D01*
X19340000Y-12035000D01*
X19285000Y-12090000D01*
X19340000Y-12145000D01*
X20225000Y-11660000D02*
X20280000Y-11605000D01*
X20225000Y-11550000D01*
X20170000Y-11605000D01*
X20225000Y-11660000D01*
X20225000Y-12160000D02*
X20280000Y-12105000D01*
X20225000Y-12050000D01*
X20170000Y-12105000D01*
X20225000Y-12160000D01*
X20479000Y-11660000D02*
X20534000Y-11605000D01*
X20479000Y-11550000D01*
X20424000Y-11605000D01*
X20479000Y-11660000D01*
X20479000Y-12160000D02*
X20534000Y-12105000D01*
X20479000Y-12050000D01*
X20424000Y-12105000D01*
X20479000Y-12160000D01*
D11*
X12808277Y-13263984D02*
X12808277Y-13063984D01*
X12808277Y-13063984D02*
X12855896Y-13063984D01*
X12855896Y-13063984D02*
X12884467Y-13073508D01*
X12884467Y-13073508D02*
X12903515Y-13092555D01*
X12903515Y-13092555D02*
X12913039Y-13111603D01*
X12913039Y-13111603D02*
X12922562Y-13149698D01*
X12922562Y-13149698D02*
X12922562Y-13178269D01*
X12922562Y-13178269D02*
X12913039Y-13216365D01*
X12913039Y-13216365D02*
X12903515Y-13235412D01*
X12903515Y-13235412D02*
X12884467Y-13254460D01*
X12884467Y-13254460D02*
X12855896Y-13263984D01*
X12855896Y-13263984D02*
X12808277Y-13263984D01*
X13008277Y-13263984D02*
X13008277Y-13130650D01*
X13008277Y-13168746D02*
X13017801Y-13149698D01*
X13017801Y-13149698D02*
X13027324Y-13140174D01*
X13027324Y-13140174D02*
X13046372Y-13130650D01*
X13046372Y-13130650D02*
X13065420Y-13130650D01*
X13132086Y-13263984D02*
X13132086Y-13130650D01*
X13132086Y-13063984D02*
X13122562Y-13073508D01*
X13122562Y-13073508D02*
X13132086Y-13083031D01*
X13132086Y-13083031D02*
X13141610Y-13073508D01*
X13141610Y-13073508D02*
X13132086Y-13063984D01*
X13132086Y-13063984D02*
X13132086Y-13083031D01*
X13255896Y-13263984D02*
X13236848Y-13254460D01*
X13236848Y-13254460D02*
X13227324Y-13235412D01*
X13227324Y-13235412D02*
X13227324Y-13063984D01*
X13360658Y-13263984D02*
X13341610Y-13254460D01*
X13341610Y-13254460D02*
X13332086Y-13235412D01*
X13332086Y-13235412D02*
X13332086Y-13063984D01*
X13589229Y-13263984D02*
X13589229Y-13063984D01*
X13589229Y-13063984D02*
X13655896Y-13206841D01*
X13655896Y-13206841D02*
X13722562Y-13063984D01*
X13722562Y-13063984D02*
X13722562Y-13263984D01*
X13903515Y-13263984D02*
X13903515Y-13159222D01*
X13903515Y-13159222D02*
X13893991Y-13140174D01*
X13893991Y-13140174D02*
X13874943Y-13130650D01*
X13874943Y-13130650D02*
X13836848Y-13130650D01*
X13836848Y-13130650D02*
X13817801Y-13140174D01*
X13903515Y-13254460D02*
X13884467Y-13263984D01*
X13884467Y-13263984D02*
X13836848Y-13263984D01*
X13836848Y-13263984D02*
X13817801Y-13254460D01*
X13817801Y-13254460D02*
X13808277Y-13235412D01*
X13808277Y-13235412D02*
X13808277Y-13216365D01*
X13808277Y-13216365D02*
X13817801Y-13197317D01*
X13817801Y-13197317D02*
X13836848Y-13187793D01*
X13836848Y-13187793D02*
X13884467Y-13187793D01*
X13884467Y-13187793D02*
X13903515Y-13178269D01*
X13998753Y-13130650D02*
X13998753Y-13330650D01*
X13998753Y-13140174D02*
X14017801Y-13130650D01*
X14017801Y-13130650D02*
X14055896Y-13130650D01*
X14055896Y-13130650D02*
X14074943Y-13140174D01*
X14074943Y-13140174D02*
X14084467Y-13149698D01*
X14084467Y-13149698D02*
X14093991Y-13168746D01*
X14093991Y-13168746D02*
X14093991Y-13225888D01*
X14093991Y-13225888D02*
X14084467Y-13244936D01*
X14084467Y-13244936D02*
X14074943Y-13254460D01*
X14074943Y-13254460D02*
X14055896Y-13263984D01*
X14055896Y-13263984D02*
X14017801Y-13263984D01*
X14017801Y-13263984D02*
X13998753Y-13254460D01*
X14179705Y-13244936D02*
X14189229Y-13254460D01*
X14189229Y-13254460D02*
X14179705Y-13263984D01*
X14179705Y-13263984D02*
X14170182Y-13254460D01*
X14170182Y-13254460D02*
X14179705Y-13244936D01*
X14179705Y-13244936D02*
X14179705Y-13263984D01*
X14179705Y-13140174D02*
X14189229Y-13149698D01*
X14189229Y-13149698D02*
X14179705Y-13159222D01*
X14179705Y-13159222D02*
X14170182Y-13149698D01*
X14170182Y-13149698D02*
X14179705Y-13140174D01*
X14179705Y-13140174D02*
X14179705Y-13159222D01*
D12*
X12517500Y-13577500D02*
X12547500Y-13607500D01*
X12547500Y-13577500D02*
X12517500Y-13607500D01*
D11*
X12846372Y-13483984D02*
X12865420Y-13483984D01*
X12865420Y-13483984D02*
X12884467Y-13493508D01*
X12884467Y-13493508D02*
X12893991Y-13503031D01*
X12893991Y-13503031D02*
X12903515Y-13522079D01*
X12903515Y-13522079D02*
X12913039Y-13560174D01*
X12913039Y-13560174D02*
X12913039Y-13607793D01*
X12913039Y-13607793D02*
X12903515Y-13645888D01*
X12903515Y-13645888D02*
X12893991Y-13664936D01*
X12893991Y-13664936D02*
X12884467Y-13674460D01*
X12884467Y-13674460D02*
X12865420Y-13683984D01*
X12865420Y-13683984D02*
X12846372Y-13683984D01*
X12846372Y-13683984D02*
X12827324Y-13674460D01*
X12827324Y-13674460D02*
X12817801Y-13664936D01*
X12817801Y-13664936D02*
X12808277Y-13645888D01*
X12808277Y-13645888D02*
X12798753Y-13607793D01*
X12798753Y-13607793D02*
X12798753Y-13560174D01*
X12798753Y-13560174D02*
X12808277Y-13522079D01*
X12808277Y-13522079D02*
X12817801Y-13503031D01*
X12817801Y-13503031D02*
X12827324Y-13493508D01*
X12827324Y-13493508D02*
X12846372Y-13483984D01*
X12998753Y-13664936D02*
X13008277Y-13674460D01*
X13008277Y-13674460D02*
X12998753Y-13683984D01*
X12998753Y-13683984D02*
X12989229Y-13674460D01*
X12989229Y-13674460D02*
X12998753Y-13664936D01*
X12998753Y-13664936D02*
X12998753Y-13683984D01*
X13074943Y-13483984D02*
X13198753Y-13483984D01*
X13198753Y-13483984D02*
X13132086Y-13560174D01*
X13132086Y-13560174D02*
X13160658Y-13560174D01*
X13160658Y-13560174D02*
X13179705Y-13569698D01*
X13179705Y-13569698D02*
X13189229Y-13579222D01*
X13189229Y-13579222D02*
X13198753Y-13598269D01*
X13198753Y-13598269D02*
X13198753Y-13645888D01*
X13198753Y-13645888D02*
X13189229Y-13664936D01*
X13189229Y-13664936D02*
X13179705Y-13674460D01*
X13179705Y-13674460D02*
X13160658Y-13683984D01*
X13160658Y-13683984D02*
X13103515Y-13683984D01*
X13103515Y-13683984D02*
X13084467Y-13674460D01*
X13084467Y-13674460D02*
X13074943Y-13664936D01*
X13322562Y-13483984D02*
X13341610Y-13483984D01*
X13341610Y-13483984D02*
X13360658Y-13493508D01*
X13360658Y-13493508D02*
X13370182Y-13503031D01*
X13370182Y-13503031D02*
X13379705Y-13522079D01*
X13379705Y-13522079D02*
X13389229Y-13560174D01*
X13389229Y-13560174D02*
X13389229Y-13607793D01*
X13389229Y-13607793D02*
X13379705Y-13645888D01*
X13379705Y-13645888D02*
X13370182Y-13664936D01*
X13370182Y-13664936D02*
X13360658Y-13674460D01*
X13360658Y-13674460D02*
X13341610Y-13683984D01*
X13341610Y-13683984D02*
X13322562Y-13683984D01*
X13322562Y-13683984D02*
X13303515Y-13674460D01*
X13303515Y-13674460D02*
X13293991Y-13664936D01*
X13293991Y-13664936D02*
X13284467Y-13645888D01*
X13284467Y-13645888D02*
X13274943Y-13607793D01*
X13274943Y-13607793D02*
X13274943Y-13560174D01*
X13274943Y-13560174D02*
X13284467Y-13522079D01*
X13284467Y-13522079D02*
X13293991Y-13503031D01*
X13293991Y-13503031D02*
X13303515Y-13493508D01*
X13303515Y-13493508D02*
X13322562Y-13483984D01*
X13513039Y-13483984D02*
X13532086Y-13483984D01*
X13532086Y-13483984D02*
X13551134Y-13493508D01*
X13551134Y-13493508D02*
X13560658Y-13503031D01*
X13560658Y-13503031D02*
X13570182Y-13522079D01*
X13570182Y-13522079D02*
X13579705Y-13560174D01*
X13579705Y-13560174D02*
X13579705Y-13607793D01*
X13579705Y-13607793D02*
X13570182Y-13645888D01*
X13570182Y-13645888D02*
X13560658Y-13664936D01*
X13560658Y-13664936D02*
X13551134Y-13674460D01*
X13551134Y-13674460D02*
X13532086Y-13683984D01*
X13532086Y-13683984D02*
X13513039Y-13683984D01*
X13513039Y-13683984D02*
X13493991Y-13674460D01*
X13493991Y-13674460D02*
X13484467Y-13664936D01*
X13484467Y-13664936D02*
X13474943Y-13645888D01*
X13474943Y-13645888D02*
X13465420Y-13607793D01*
X13465420Y-13607793D02*
X13465420Y-13560174D01*
X13465420Y-13560174D02*
X13474943Y-13522079D01*
X13474943Y-13522079D02*
X13484467Y-13503031D01*
X13484467Y-13503031D02*
X13493991Y-13493508D01*
X13493991Y-13493508D02*
X13513039Y-13483984D01*
X13665420Y-13683984D02*
X13665420Y-13550650D01*
X13665420Y-13569698D02*
X13674943Y-13560174D01*
X13674943Y-13560174D02*
X13693991Y-13550650D01*
X13693991Y-13550650D02*
X13722563Y-13550650D01*
X13722563Y-13550650D02*
X13741610Y-13560174D01*
X13741610Y-13560174D02*
X13751134Y-13579222D01*
X13751134Y-13579222D02*
X13751134Y-13683984D01*
X13751134Y-13579222D02*
X13760658Y-13560174D01*
X13760658Y-13560174D02*
X13779705Y-13550650D01*
X13779705Y-13550650D02*
X13808277Y-13550650D01*
X13808277Y-13550650D02*
X13827324Y-13560174D01*
X13827324Y-13560174D02*
X13836848Y-13579222D01*
X13836848Y-13579222D02*
X13836848Y-13683984D01*
X13932086Y-13683984D02*
X13932086Y-13550650D01*
X13932086Y-13569698D02*
X13941610Y-13560174D01*
X13941610Y-13560174D02*
X13960658Y-13550650D01*
X13960658Y-13550650D02*
X13989229Y-13550650D01*
X13989229Y-13550650D02*
X14008277Y-13560174D01*
X14008277Y-13560174D02*
X14017801Y-13579222D01*
X14017801Y-13579222D02*
X14017801Y-13683984D01*
X14017801Y-13579222D02*
X14027324Y-13560174D01*
X14027324Y-13560174D02*
X14046372Y-13550650D01*
X14046372Y-13550650D02*
X14074943Y-13550650D01*
X14074943Y-13550650D02*
X14093991Y-13560174D01*
X14093991Y-13560174D02*
X14103515Y-13579222D01*
X14103515Y-13579222D02*
X14103515Y-13683984D01*
X14493991Y-13474460D02*
X14322563Y-13731603D01*
X14751134Y-13483984D02*
X14770182Y-13483984D01*
X14770182Y-13483984D02*
X14789229Y-13493508D01*
X14789229Y-13493508D02*
X14798753Y-13503031D01*
X14798753Y-13503031D02*
X14808277Y-13522079D01*
X14808277Y-13522079D02*
X14817801Y-13560174D01*
X14817801Y-13560174D02*
X14817801Y-13607793D01*
X14817801Y-13607793D02*
X14808277Y-13645888D01*
X14808277Y-13645888D02*
X14798753Y-13664936D01*
X14798753Y-13664936D02*
X14789229Y-13674460D01*
X14789229Y-13674460D02*
X14770182Y-13683984D01*
X14770182Y-13683984D02*
X14751134Y-13683984D01*
X14751134Y-13683984D02*
X14732086Y-13674460D01*
X14732086Y-13674460D02*
X14722563Y-13664936D01*
X14722563Y-13664936D02*
X14713039Y-13645888D01*
X14713039Y-13645888D02*
X14703515Y-13607793D01*
X14703515Y-13607793D02*
X14703515Y-13560174D01*
X14703515Y-13560174D02*
X14713039Y-13522079D01*
X14713039Y-13522079D02*
X14722563Y-13503031D01*
X14722563Y-13503031D02*
X14732086Y-13493508D01*
X14732086Y-13493508D02*
X14751134Y-13483984D01*
X14903515Y-13664936D02*
X14913039Y-13674460D01*
X14913039Y-13674460D02*
X14903515Y-13683984D01*
X14903515Y-13683984D02*
X14893991Y-13674460D01*
X14893991Y-13674460D02*
X14903515Y-13664936D01*
X14903515Y-13664936D02*
X14903515Y-13683984D01*
X15036848Y-13483984D02*
X15055896Y-13483984D01*
X15055896Y-13483984D02*
X15074944Y-13493508D01*
X15074944Y-13493508D02*
X15084467Y-13503031D01*
X15084467Y-13503031D02*
X15093991Y-13522079D01*
X15093991Y-13522079D02*
X15103515Y-13560174D01*
X15103515Y-13560174D02*
X15103515Y-13607793D01*
X15103515Y-13607793D02*
X15093991Y-13645888D01*
X15093991Y-13645888D02*
X15084467Y-13664936D01*
X15084467Y-13664936D02*
X15074944Y-13674460D01*
X15074944Y-13674460D02*
X15055896Y-13683984D01*
X15055896Y-13683984D02*
X15036848Y-13683984D01*
X15036848Y-13683984D02*
X15017801Y-13674460D01*
X15017801Y-13674460D02*
X15008277Y-13664936D01*
X15008277Y-13664936D02*
X14998753Y-13645888D01*
X14998753Y-13645888D02*
X14989229Y-13607793D01*
X14989229Y-13607793D02*
X14989229Y-13560174D01*
X14989229Y-13560174D02*
X14998753Y-13522079D01*
X14998753Y-13522079D02*
X15008277Y-13503031D01*
X15008277Y-13503031D02*
X15017801Y-13493508D01*
X15017801Y-13493508D02*
X15036848Y-13483984D01*
X15293991Y-13683984D02*
X15179706Y-13683984D01*
X15236848Y-13683984D02*
X15236848Y-13483984D01*
X15236848Y-13483984D02*
X15217801Y-13512555D01*
X15217801Y-13512555D02*
X15198753Y-13531603D01*
X15198753Y-13531603D02*
X15179706Y-13541127D01*
X15484467Y-13683984D02*
X15370182Y-13683984D01*
X15427325Y-13683984D02*
X15427325Y-13483984D01*
X15427325Y-13483984D02*
X15408277Y-13512555D01*
X15408277Y-13512555D02*
X15389229Y-13531603D01*
X15389229Y-13531603D02*
X15370182Y-13541127D01*
X15598753Y-13569698D02*
X15579706Y-13560174D01*
X15579706Y-13560174D02*
X15570182Y-13550650D01*
X15570182Y-13550650D02*
X15560658Y-13531603D01*
X15560658Y-13531603D02*
X15560658Y-13522079D01*
X15560658Y-13522079D02*
X15570182Y-13503031D01*
X15570182Y-13503031D02*
X15579706Y-13493508D01*
X15579706Y-13493508D02*
X15598753Y-13483984D01*
X15598753Y-13483984D02*
X15636848Y-13483984D01*
X15636848Y-13483984D02*
X15655896Y-13493508D01*
X15655896Y-13493508D02*
X15665420Y-13503031D01*
X15665420Y-13503031D02*
X15674944Y-13522079D01*
X15674944Y-13522079D02*
X15674944Y-13531603D01*
X15674944Y-13531603D02*
X15665420Y-13550650D01*
X15665420Y-13550650D02*
X15655896Y-13560174D01*
X15655896Y-13560174D02*
X15636848Y-13569698D01*
X15636848Y-13569698D02*
X15598753Y-13569698D01*
X15598753Y-13569698D02*
X15579706Y-13579222D01*
X15579706Y-13579222D02*
X15570182Y-13588746D01*
X15570182Y-13588746D02*
X15560658Y-13607793D01*
X15560658Y-13607793D02*
X15560658Y-13645888D01*
X15560658Y-13645888D02*
X15570182Y-13664936D01*
X15570182Y-13664936D02*
X15579706Y-13674460D01*
X15579706Y-13674460D02*
X15598753Y-13683984D01*
X15598753Y-13683984D02*
X15636848Y-13683984D01*
X15636848Y-13683984D02*
X15655896Y-13674460D01*
X15655896Y-13674460D02*
X15665420Y-13664936D01*
X15665420Y-13664936D02*
X15674944Y-13645888D01*
X15674944Y-13645888D02*
X15674944Y-13607793D01*
X15674944Y-13607793D02*
X15665420Y-13588746D01*
X15665420Y-13588746D02*
X15655896Y-13579222D01*
X15655896Y-13579222D02*
X15636848Y-13569698D01*
X15751134Y-13483984D02*
X15751134Y-13522079D01*
X15827325Y-13483984D02*
X15827325Y-13522079D01*
X16122563Y-13760174D02*
X16113039Y-13750650D01*
X16113039Y-13750650D02*
X16093991Y-13722079D01*
X16093991Y-13722079D02*
X16084468Y-13703031D01*
X16084468Y-13703031D02*
X16074944Y-13674460D01*
X16074944Y-13674460D02*
X16065420Y-13626841D01*
X16065420Y-13626841D02*
X16065420Y-13588746D01*
X16065420Y-13588746D02*
X16074944Y-13541127D01*
X16074944Y-13541127D02*
X16084468Y-13512555D01*
X16084468Y-13512555D02*
X16093991Y-13493508D01*
X16093991Y-13493508D02*
X16113039Y-13464936D01*
X16113039Y-13464936D02*
X16122563Y-13455412D01*
X16227325Y-13569698D02*
X16208277Y-13560174D01*
X16208277Y-13560174D02*
X16198753Y-13550650D01*
X16198753Y-13550650D02*
X16189229Y-13531603D01*
X16189229Y-13531603D02*
X16189229Y-13522079D01*
X16189229Y-13522079D02*
X16198753Y-13503031D01*
X16198753Y-13503031D02*
X16208277Y-13493508D01*
X16208277Y-13493508D02*
X16227325Y-13483984D01*
X16227325Y-13483984D02*
X16265420Y-13483984D01*
X16265420Y-13483984D02*
X16284468Y-13493508D01*
X16284468Y-13493508D02*
X16293991Y-13503031D01*
X16293991Y-13503031D02*
X16303515Y-13522079D01*
X16303515Y-13522079D02*
X16303515Y-13531603D01*
X16303515Y-13531603D02*
X16293991Y-13550650D01*
X16293991Y-13550650D02*
X16284468Y-13560174D01*
X16284468Y-13560174D02*
X16265420Y-13569698D01*
X16265420Y-13569698D02*
X16227325Y-13569698D01*
X16227325Y-13569698D02*
X16208277Y-13579222D01*
X16208277Y-13579222D02*
X16198753Y-13588746D01*
X16198753Y-13588746D02*
X16189229Y-13607793D01*
X16189229Y-13607793D02*
X16189229Y-13645888D01*
X16189229Y-13645888D02*
X16198753Y-13664936D01*
X16198753Y-13664936D02*
X16208277Y-13674460D01*
X16208277Y-13674460D02*
X16227325Y-13683984D01*
X16227325Y-13683984D02*
X16265420Y-13683984D01*
X16265420Y-13683984D02*
X16284468Y-13674460D01*
X16284468Y-13674460D02*
X16293991Y-13664936D01*
X16293991Y-13664936D02*
X16303515Y-13645888D01*
X16303515Y-13645888D02*
X16303515Y-13607793D01*
X16303515Y-13607793D02*
X16293991Y-13588746D01*
X16293991Y-13588746D02*
X16284468Y-13579222D01*
X16284468Y-13579222D02*
X16265420Y-13569698D01*
X16541610Y-13683984D02*
X16541610Y-13483984D01*
X16627325Y-13683984D02*
X16627325Y-13579222D01*
X16627325Y-13579222D02*
X16617801Y-13560174D01*
X16617801Y-13560174D02*
X16598753Y-13550650D01*
X16598753Y-13550650D02*
X16570182Y-13550650D01*
X16570182Y-13550650D02*
X16551134Y-13560174D01*
X16551134Y-13560174D02*
X16541610Y-13569698D01*
X16751134Y-13683984D02*
X16732087Y-13674460D01*
X16732087Y-13674460D02*
X16722563Y-13664936D01*
X16722563Y-13664936D02*
X16713039Y-13645888D01*
X16713039Y-13645888D02*
X16713039Y-13588746D01*
X16713039Y-13588746D02*
X16722563Y-13569698D01*
X16722563Y-13569698D02*
X16732087Y-13560174D01*
X16732087Y-13560174D02*
X16751134Y-13550650D01*
X16751134Y-13550650D02*
X16779706Y-13550650D01*
X16779706Y-13550650D02*
X16798753Y-13560174D01*
X16798753Y-13560174D02*
X16808277Y-13569698D01*
X16808277Y-13569698D02*
X16817801Y-13588746D01*
X16817801Y-13588746D02*
X16817801Y-13645888D01*
X16817801Y-13645888D02*
X16808277Y-13664936D01*
X16808277Y-13664936D02*
X16798753Y-13674460D01*
X16798753Y-13674460D02*
X16779706Y-13683984D01*
X16779706Y-13683984D02*
X16751134Y-13683984D01*
X16932087Y-13683984D02*
X16913039Y-13674460D01*
X16913039Y-13674460D02*
X16903515Y-13655412D01*
X16903515Y-13655412D02*
X16903515Y-13483984D01*
X17084468Y-13674460D02*
X17065420Y-13683984D01*
X17065420Y-13683984D02*
X17027325Y-13683984D01*
X17027325Y-13683984D02*
X17008277Y-13674460D01*
X17008277Y-13674460D02*
X16998753Y-13655412D01*
X16998753Y-13655412D02*
X16998753Y-13579222D01*
X16998753Y-13579222D02*
X17008277Y-13560174D01*
X17008277Y-13560174D02*
X17027325Y-13550650D01*
X17027325Y-13550650D02*
X17065420Y-13550650D01*
X17065420Y-13550650D02*
X17084468Y-13560174D01*
X17084468Y-13560174D02*
X17093992Y-13579222D01*
X17093992Y-13579222D02*
X17093992Y-13598269D01*
X17093992Y-13598269D02*
X16998753Y-13617317D01*
X17170182Y-13674460D02*
X17189230Y-13683984D01*
X17189230Y-13683984D02*
X17227325Y-13683984D01*
X17227325Y-13683984D02*
X17246373Y-13674460D01*
X17246373Y-13674460D02*
X17255896Y-13655412D01*
X17255896Y-13655412D02*
X17255896Y-13645888D01*
X17255896Y-13645888D02*
X17246373Y-13626841D01*
X17246373Y-13626841D02*
X17227325Y-13617317D01*
X17227325Y-13617317D02*
X17198753Y-13617317D01*
X17198753Y-13617317D02*
X17179706Y-13607793D01*
X17179706Y-13607793D02*
X17170182Y-13588746D01*
X17170182Y-13588746D02*
X17170182Y-13579222D01*
X17170182Y-13579222D02*
X17179706Y-13560174D01*
X17179706Y-13560174D02*
X17198753Y-13550650D01*
X17198753Y-13550650D02*
X17227325Y-13550650D01*
X17227325Y-13550650D02*
X17246373Y-13560174D01*
X17322563Y-13760174D02*
X17332087Y-13750650D01*
X17332087Y-13750650D02*
X17351134Y-13722079D01*
X17351134Y-13722079D02*
X17360658Y-13703031D01*
X17360658Y-13703031D02*
X17370182Y-13674460D01*
X17370182Y-13674460D02*
X17379706Y-13626841D01*
X17379706Y-13626841D02*
X17379706Y-13588746D01*
X17379706Y-13588746D02*
X17370182Y-13541127D01*
X17370182Y-13541127D02*
X17360658Y-13512555D01*
X17360658Y-13512555D02*
X17351134Y-13493508D01*
X17351134Y-13493508D02*
X17332087Y-13464936D01*
X17332087Y-13464936D02*
X17322563Y-13455412D01*
D12*
X12547500Y-13856500D02*
G75*
G02*
X12472500Y-13856500I-37500J0D01*
G01*
X12472500Y-13856500D02*
G75*
G02*
X12547500Y-13856500I37500J0D01*
G01*
D11*
X12846372Y-13747984D02*
X12865420Y-13747984D01*
X12865420Y-13747984D02*
X12884467Y-13757508D01*
X12884467Y-13757508D02*
X12893991Y-13767031D01*
X12893991Y-13767031D02*
X12903515Y-13786079D01*
X12903515Y-13786079D02*
X12913039Y-13824174D01*
X12913039Y-13824174D02*
X12913039Y-13871793D01*
X12913039Y-13871793D02*
X12903515Y-13909888D01*
X12903515Y-13909888D02*
X12893991Y-13928936D01*
X12893991Y-13928936D02*
X12884467Y-13938460D01*
X12884467Y-13938460D02*
X12865420Y-13947984D01*
X12865420Y-13947984D02*
X12846372Y-13947984D01*
X12846372Y-13947984D02*
X12827324Y-13938460D01*
X12827324Y-13938460D02*
X12817801Y-13928936D01*
X12817801Y-13928936D02*
X12808277Y-13909888D01*
X12808277Y-13909888D02*
X12798753Y-13871793D01*
X12798753Y-13871793D02*
X12798753Y-13824174D01*
X12798753Y-13824174D02*
X12808277Y-13786079D01*
X12808277Y-13786079D02*
X12817801Y-13767031D01*
X12817801Y-13767031D02*
X12827324Y-13757508D01*
X12827324Y-13757508D02*
X12846372Y-13747984D01*
X12998753Y-13928936D02*
X13008277Y-13938460D01*
X13008277Y-13938460D02*
X12998753Y-13947984D01*
X12998753Y-13947984D02*
X12989229Y-13938460D01*
X12989229Y-13938460D02*
X12998753Y-13928936D01*
X12998753Y-13928936D02*
X12998753Y-13947984D01*
X13074943Y-13747984D02*
X13208277Y-13747984D01*
X13208277Y-13747984D02*
X13122562Y-13947984D01*
X13379705Y-13747984D02*
X13284467Y-13747984D01*
X13284467Y-13747984D02*
X13274943Y-13843222D01*
X13274943Y-13843222D02*
X13284467Y-13833698D01*
X13284467Y-13833698D02*
X13303515Y-13824174D01*
X13303515Y-13824174D02*
X13351134Y-13824174D01*
X13351134Y-13824174D02*
X13370182Y-13833698D01*
X13370182Y-13833698D02*
X13379705Y-13843222D01*
X13379705Y-13843222D02*
X13389229Y-13862269D01*
X13389229Y-13862269D02*
X13389229Y-13909888D01*
X13389229Y-13909888D02*
X13379705Y-13928936D01*
X13379705Y-13928936D02*
X13370182Y-13938460D01*
X13370182Y-13938460D02*
X13351134Y-13947984D01*
X13351134Y-13947984D02*
X13303515Y-13947984D01*
X13303515Y-13947984D02*
X13284467Y-13938460D01*
X13284467Y-13938460D02*
X13274943Y-13928936D01*
X13513039Y-13747984D02*
X13532086Y-13747984D01*
X13532086Y-13747984D02*
X13551134Y-13757508D01*
X13551134Y-13757508D02*
X13560658Y-13767031D01*
X13560658Y-13767031D02*
X13570182Y-13786079D01*
X13570182Y-13786079D02*
X13579705Y-13824174D01*
X13579705Y-13824174D02*
X13579705Y-13871793D01*
X13579705Y-13871793D02*
X13570182Y-13909888D01*
X13570182Y-13909888D02*
X13560658Y-13928936D01*
X13560658Y-13928936D02*
X13551134Y-13938460D01*
X13551134Y-13938460D02*
X13532086Y-13947984D01*
X13532086Y-13947984D02*
X13513039Y-13947984D01*
X13513039Y-13947984D02*
X13493991Y-13938460D01*
X13493991Y-13938460D02*
X13484467Y-13928936D01*
X13484467Y-13928936D02*
X13474943Y-13909888D01*
X13474943Y-13909888D02*
X13465420Y-13871793D01*
X13465420Y-13871793D02*
X13465420Y-13824174D01*
X13465420Y-13824174D02*
X13474943Y-13786079D01*
X13474943Y-13786079D02*
X13484467Y-13767031D01*
X13484467Y-13767031D02*
X13493991Y-13757508D01*
X13493991Y-13757508D02*
X13513039Y-13747984D01*
X13665420Y-13947984D02*
X13665420Y-13814650D01*
X13665420Y-13833698D02*
X13674943Y-13824174D01*
X13674943Y-13824174D02*
X13693991Y-13814650D01*
X13693991Y-13814650D02*
X13722563Y-13814650D01*
X13722563Y-13814650D02*
X13741610Y-13824174D01*
X13741610Y-13824174D02*
X13751134Y-13843222D01*
X13751134Y-13843222D02*
X13751134Y-13947984D01*
X13751134Y-13843222D02*
X13760658Y-13824174D01*
X13760658Y-13824174D02*
X13779705Y-13814650D01*
X13779705Y-13814650D02*
X13808277Y-13814650D01*
X13808277Y-13814650D02*
X13827324Y-13824174D01*
X13827324Y-13824174D02*
X13836848Y-13843222D01*
X13836848Y-13843222D02*
X13836848Y-13947984D01*
X13932086Y-13947984D02*
X13932086Y-13814650D01*
X13932086Y-13833698D02*
X13941610Y-13824174D01*
X13941610Y-13824174D02*
X13960658Y-13814650D01*
X13960658Y-13814650D02*
X13989229Y-13814650D01*
X13989229Y-13814650D02*
X14008277Y-13824174D01*
X14008277Y-13824174D02*
X14017801Y-13843222D01*
X14017801Y-13843222D02*
X14017801Y-13947984D01*
X14017801Y-13843222D02*
X14027324Y-13824174D01*
X14027324Y-13824174D02*
X14046372Y-13814650D01*
X14046372Y-13814650D02*
X14074943Y-13814650D01*
X14074943Y-13814650D02*
X14093991Y-13824174D01*
X14093991Y-13824174D02*
X14103515Y-13843222D01*
X14103515Y-13843222D02*
X14103515Y-13947984D01*
X14493991Y-13738460D02*
X14322563Y-13995603D01*
X14751134Y-13747984D02*
X14770182Y-13747984D01*
X14770182Y-13747984D02*
X14789229Y-13757508D01*
X14789229Y-13757508D02*
X14798753Y-13767031D01*
X14798753Y-13767031D02*
X14808277Y-13786079D01*
X14808277Y-13786079D02*
X14817801Y-13824174D01*
X14817801Y-13824174D02*
X14817801Y-13871793D01*
X14817801Y-13871793D02*
X14808277Y-13909888D01*
X14808277Y-13909888D02*
X14798753Y-13928936D01*
X14798753Y-13928936D02*
X14789229Y-13938460D01*
X14789229Y-13938460D02*
X14770182Y-13947984D01*
X14770182Y-13947984D02*
X14751134Y-13947984D01*
X14751134Y-13947984D02*
X14732086Y-13938460D01*
X14732086Y-13938460D02*
X14722563Y-13928936D01*
X14722563Y-13928936D02*
X14713039Y-13909888D01*
X14713039Y-13909888D02*
X14703515Y-13871793D01*
X14703515Y-13871793D02*
X14703515Y-13824174D01*
X14703515Y-13824174D02*
X14713039Y-13786079D01*
X14713039Y-13786079D02*
X14722563Y-13767031D01*
X14722563Y-13767031D02*
X14732086Y-13757508D01*
X14732086Y-13757508D02*
X14751134Y-13747984D01*
X14903515Y-13928936D02*
X14913039Y-13938460D01*
X14913039Y-13938460D02*
X14903515Y-13947984D01*
X14903515Y-13947984D02*
X14893991Y-13938460D01*
X14893991Y-13938460D02*
X14903515Y-13928936D01*
X14903515Y-13928936D02*
X14903515Y-13947984D01*
X15036848Y-13747984D02*
X15055896Y-13747984D01*
X15055896Y-13747984D02*
X15074944Y-13757508D01*
X15074944Y-13757508D02*
X15084467Y-13767031D01*
X15084467Y-13767031D02*
X15093991Y-13786079D01*
X15093991Y-13786079D02*
X15103515Y-13824174D01*
X15103515Y-13824174D02*
X15103515Y-13871793D01*
X15103515Y-13871793D02*
X15093991Y-13909888D01*
X15093991Y-13909888D02*
X15084467Y-13928936D01*
X15084467Y-13928936D02*
X15074944Y-13938460D01*
X15074944Y-13938460D02*
X15055896Y-13947984D01*
X15055896Y-13947984D02*
X15036848Y-13947984D01*
X15036848Y-13947984D02*
X15017801Y-13938460D01*
X15017801Y-13938460D02*
X15008277Y-13928936D01*
X15008277Y-13928936D02*
X14998753Y-13909888D01*
X14998753Y-13909888D02*
X14989229Y-13871793D01*
X14989229Y-13871793D02*
X14989229Y-13824174D01*
X14989229Y-13824174D02*
X14998753Y-13786079D01*
X14998753Y-13786079D02*
X15008277Y-13767031D01*
X15008277Y-13767031D02*
X15017801Y-13757508D01*
X15017801Y-13757508D02*
X15036848Y-13747984D01*
X15179706Y-13767031D02*
X15189229Y-13757508D01*
X15189229Y-13757508D02*
X15208277Y-13747984D01*
X15208277Y-13747984D02*
X15255896Y-13747984D01*
X15255896Y-13747984D02*
X15274944Y-13757508D01*
X15274944Y-13757508D02*
X15284467Y-13767031D01*
X15284467Y-13767031D02*
X15293991Y-13786079D01*
X15293991Y-13786079D02*
X15293991Y-13805127D01*
X15293991Y-13805127D02*
X15284467Y-13833698D01*
X15284467Y-13833698D02*
X15170182Y-13947984D01*
X15170182Y-13947984D02*
X15293991Y-13947984D01*
X15389229Y-13947984D02*
X15427325Y-13947984D01*
X15427325Y-13947984D02*
X15446372Y-13938460D01*
X15446372Y-13938460D02*
X15455896Y-13928936D01*
X15455896Y-13928936D02*
X15474944Y-13900365D01*
X15474944Y-13900365D02*
X15484467Y-13862269D01*
X15484467Y-13862269D02*
X15484467Y-13786079D01*
X15484467Y-13786079D02*
X15474944Y-13767031D01*
X15474944Y-13767031D02*
X15465420Y-13757508D01*
X15465420Y-13757508D02*
X15446372Y-13747984D01*
X15446372Y-13747984D02*
X15408277Y-13747984D01*
X15408277Y-13747984D02*
X15389229Y-13757508D01*
X15389229Y-13757508D02*
X15379706Y-13767031D01*
X15379706Y-13767031D02*
X15370182Y-13786079D01*
X15370182Y-13786079D02*
X15370182Y-13833698D01*
X15370182Y-13833698D02*
X15379706Y-13852746D01*
X15379706Y-13852746D02*
X15389229Y-13862269D01*
X15389229Y-13862269D02*
X15408277Y-13871793D01*
X15408277Y-13871793D02*
X15446372Y-13871793D01*
X15446372Y-13871793D02*
X15465420Y-13862269D01*
X15465420Y-13862269D02*
X15474944Y-13852746D01*
X15474944Y-13852746D02*
X15484467Y-13833698D01*
X15665420Y-13747984D02*
X15570182Y-13747984D01*
X15570182Y-13747984D02*
X15560658Y-13843222D01*
X15560658Y-13843222D02*
X15570182Y-13833698D01*
X15570182Y-13833698D02*
X15589229Y-13824174D01*
X15589229Y-13824174D02*
X15636848Y-13824174D01*
X15636848Y-13824174D02*
X15655896Y-13833698D01*
X15655896Y-13833698D02*
X15665420Y-13843222D01*
X15665420Y-13843222D02*
X15674944Y-13862269D01*
X15674944Y-13862269D02*
X15674944Y-13909888D01*
X15674944Y-13909888D02*
X15665420Y-13928936D01*
X15665420Y-13928936D02*
X15655896Y-13938460D01*
X15655896Y-13938460D02*
X15636848Y-13947984D01*
X15636848Y-13947984D02*
X15589229Y-13947984D01*
X15589229Y-13947984D02*
X15570182Y-13938460D01*
X15570182Y-13938460D02*
X15560658Y-13928936D01*
X15751134Y-13747984D02*
X15751134Y-13786079D01*
X15827325Y-13747984D02*
X15827325Y-13786079D01*
X16122563Y-14024174D02*
X16113039Y-14014650D01*
X16113039Y-14014650D02*
X16093991Y-13986079D01*
X16093991Y-13986079D02*
X16084468Y-13967031D01*
X16084468Y-13967031D02*
X16074944Y-13938460D01*
X16074944Y-13938460D02*
X16065420Y-13890841D01*
X16065420Y-13890841D02*
X16065420Y-13852746D01*
X16065420Y-13852746D02*
X16074944Y-13805127D01*
X16074944Y-13805127D02*
X16084468Y-13776555D01*
X16084468Y-13776555D02*
X16093991Y-13757508D01*
X16093991Y-13757508D02*
X16113039Y-13728936D01*
X16113039Y-13728936D02*
X16122563Y-13719412D01*
X16293991Y-13747984D02*
X16198753Y-13747984D01*
X16198753Y-13747984D02*
X16189229Y-13843222D01*
X16189229Y-13843222D02*
X16198753Y-13833698D01*
X16198753Y-13833698D02*
X16217801Y-13824174D01*
X16217801Y-13824174D02*
X16265420Y-13824174D01*
X16265420Y-13824174D02*
X16284468Y-13833698D01*
X16284468Y-13833698D02*
X16293991Y-13843222D01*
X16293991Y-13843222D02*
X16303515Y-13862269D01*
X16303515Y-13862269D02*
X16303515Y-13909888D01*
X16303515Y-13909888D02*
X16293991Y-13928936D01*
X16293991Y-13928936D02*
X16284468Y-13938460D01*
X16284468Y-13938460D02*
X16265420Y-13947984D01*
X16265420Y-13947984D02*
X16217801Y-13947984D01*
X16217801Y-13947984D02*
X16198753Y-13938460D01*
X16198753Y-13938460D02*
X16189229Y-13928936D01*
X16417801Y-13833698D02*
X16398753Y-13824174D01*
X16398753Y-13824174D02*
X16389229Y-13814650D01*
X16389229Y-13814650D02*
X16379706Y-13795603D01*
X16379706Y-13795603D02*
X16379706Y-13786079D01*
X16379706Y-13786079D02*
X16389229Y-13767031D01*
X16389229Y-13767031D02*
X16398753Y-13757508D01*
X16398753Y-13757508D02*
X16417801Y-13747984D01*
X16417801Y-13747984D02*
X16455896Y-13747984D01*
X16455896Y-13747984D02*
X16474944Y-13757508D01*
X16474944Y-13757508D02*
X16484468Y-13767031D01*
X16484468Y-13767031D02*
X16493991Y-13786079D01*
X16493991Y-13786079D02*
X16493991Y-13795603D01*
X16493991Y-13795603D02*
X16484468Y-13814650D01*
X16484468Y-13814650D02*
X16474944Y-13824174D01*
X16474944Y-13824174D02*
X16455896Y-13833698D01*
X16455896Y-13833698D02*
X16417801Y-13833698D01*
X16417801Y-13833698D02*
X16398753Y-13843222D01*
X16398753Y-13843222D02*
X16389229Y-13852746D01*
X16389229Y-13852746D02*
X16379706Y-13871793D01*
X16379706Y-13871793D02*
X16379706Y-13909888D01*
X16379706Y-13909888D02*
X16389229Y-13928936D01*
X16389229Y-13928936D02*
X16398753Y-13938460D01*
X16398753Y-13938460D02*
X16417801Y-13947984D01*
X16417801Y-13947984D02*
X16455896Y-13947984D01*
X16455896Y-13947984D02*
X16474944Y-13938460D01*
X16474944Y-13938460D02*
X16484468Y-13928936D01*
X16484468Y-13928936D02*
X16493991Y-13909888D01*
X16493991Y-13909888D02*
X16493991Y-13871793D01*
X16493991Y-13871793D02*
X16484468Y-13852746D01*
X16484468Y-13852746D02*
X16474944Y-13843222D01*
X16474944Y-13843222D02*
X16455896Y-13833698D01*
X16732087Y-13947984D02*
X16732087Y-13747984D01*
X16817801Y-13947984D02*
X16817801Y-13843222D01*
X16817801Y-13843222D02*
X16808277Y-13824174D01*
X16808277Y-13824174D02*
X16789230Y-13814650D01*
X16789230Y-13814650D02*
X16760658Y-13814650D01*
X16760658Y-13814650D02*
X16741610Y-13824174D01*
X16741610Y-13824174D02*
X16732087Y-13833698D01*
X16941611Y-13947984D02*
X16922563Y-13938460D01*
X16922563Y-13938460D02*
X16913039Y-13928936D01*
X16913039Y-13928936D02*
X16903515Y-13909888D01*
X16903515Y-13909888D02*
X16903515Y-13852746D01*
X16903515Y-13852746D02*
X16913039Y-13833698D01*
X16913039Y-13833698D02*
X16922563Y-13824174D01*
X16922563Y-13824174D02*
X16941611Y-13814650D01*
X16941611Y-13814650D02*
X16970182Y-13814650D01*
X16970182Y-13814650D02*
X16989230Y-13824174D01*
X16989230Y-13824174D02*
X16998753Y-13833698D01*
X16998753Y-13833698D02*
X17008277Y-13852746D01*
X17008277Y-13852746D02*
X17008277Y-13909888D01*
X17008277Y-13909888D02*
X16998753Y-13928936D01*
X16998753Y-13928936D02*
X16989230Y-13938460D01*
X16989230Y-13938460D02*
X16970182Y-13947984D01*
X16970182Y-13947984D02*
X16941611Y-13947984D01*
X17122563Y-13947984D02*
X17103515Y-13938460D01*
X17103515Y-13938460D02*
X17093992Y-13919412D01*
X17093992Y-13919412D02*
X17093992Y-13747984D01*
X17274944Y-13938460D02*
X17255896Y-13947984D01*
X17255896Y-13947984D02*
X17217801Y-13947984D01*
X17217801Y-13947984D02*
X17198753Y-13938460D01*
X17198753Y-13938460D02*
X17189230Y-13919412D01*
X17189230Y-13919412D02*
X17189230Y-13843222D01*
X17189230Y-13843222D02*
X17198753Y-13824174D01*
X17198753Y-13824174D02*
X17217801Y-13814650D01*
X17217801Y-13814650D02*
X17255896Y-13814650D01*
X17255896Y-13814650D02*
X17274944Y-13824174D01*
X17274944Y-13824174D02*
X17284468Y-13843222D01*
X17284468Y-13843222D02*
X17284468Y-13862269D01*
X17284468Y-13862269D02*
X17189230Y-13881317D01*
X17360658Y-13938460D02*
X17379706Y-13947984D01*
X17379706Y-13947984D02*
X17417801Y-13947984D01*
X17417801Y-13947984D02*
X17436849Y-13938460D01*
X17436849Y-13938460D02*
X17446373Y-13919412D01*
X17446373Y-13919412D02*
X17446373Y-13909888D01*
X17446373Y-13909888D02*
X17436849Y-13890841D01*
X17436849Y-13890841D02*
X17417801Y-13881317D01*
X17417801Y-13881317D02*
X17389230Y-13881317D01*
X17389230Y-13881317D02*
X17370182Y-13871793D01*
X17370182Y-13871793D02*
X17360658Y-13852746D01*
X17360658Y-13852746D02*
X17360658Y-13843222D01*
X17360658Y-13843222D02*
X17370182Y-13824174D01*
X17370182Y-13824174D02*
X17389230Y-13814650D01*
X17389230Y-13814650D02*
X17417801Y-13814650D01*
X17417801Y-13814650D02*
X17436849Y-13824174D01*
X17513039Y-14024174D02*
X17522563Y-14014650D01*
X17522563Y-14014650D02*
X17541611Y-13986079D01*
X17541611Y-13986079D02*
X17551134Y-13967031D01*
X17551134Y-13967031D02*
X17560658Y-13938460D01*
X17560658Y-13938460D02*
X17570182Y-13890841D01*
X17570182Y-13890841D02*
X17570182Y-13852746D01*
X17570182Y-13852746D02*
X17560658Y-13805127D01*
X17560658Y-13805127D02*
X17551134Y-13776555D01*
X17551134Y-13776555D02*
X17541611Y-13757508D01*
X17541611Y-13757508D02*
X17522563Y-13728936D01*
X17522563Y-13728936D02*
X17513039Y-13719412D01*
D12*
X12497500Y-14070500D02*
X12497500Y-14170500D01*
X12447500Y-14120500D02*
X12547500Y-14120500D01*
D11*
X12913039Y-14211984D02*
X12798753Y-14211984D01*
X12855896Y-14211984D02*
X12855896Y-14011984D01*
X12855896Y-14011984D02*
X12836848Y-14040555D01*
X12836848Y-14040555D02*
X12817801Y-14059603D01*
X12817801Y-14059603D02*
X12798753Y-14069127D01*
X12998753Y-14192936D02*
X13008277Y-14202460D01*
X13008277Y-14202460D02*
X12998753Y-14211984D01*
X12998753Y-14211984D02*
X12989229Y-14202460D01*
X12989229Y-14202460D02*
X12998753Y-14192936D01*
X12998753Y-14192936D02*
X12998753Y-14211984D01*
X13132086Y-14011984D02*
X13151134Y-14011984D01*
X13151134Y-14011984D02*
X13170182Y-14021508D01*
X13170182Y-14021508D02*
X13179705Y-14031031D01*
X13179705Y-14031031D02*
X13189229Y-14050079D01*
X13189229Y-14050079D02*
X13198753Y-14088174D01*
X13198753Y-14088174D02*
X13198753Y-14135793D01*
X13198753Y-14135793D02*
X13189229Y-14173888D01*
X13189229Y-14173888D02*
X13179705Y-14192936D01*
X13179705Y-14192936D02*
X13170182Y-14202460D01*
X13170182Y-14202460D02*
X13151134Y-14211984D01*
X13151134Y-14211984D02*
X13132086Y-14211984D01*
X13132086Y-14211984D02*
X13113039Y-14202460D01*
X13113039Y-14202460D02*
X13103515Y-14192936D01*
X13103515Y-14192936D02*
X13093991Y-14173888D01*
X13093991Y-14173888D02*
X13084467Y-14135793D01*
X13084467Y-14135793D02*
X13084467Y-14088174D01*
X13084467Y-14088174D02*
X13093991Y-14050079D01*
X13093991Y-14050079D02*
X13103515Y-14031031D01*
X13103515Y-14031031D02*
X13113039Y-14021508D01*
X13113039Y-14021508D02*
X13132086Y-14011984D01*
X13322562Y-14011984D02*
X13341610Y-14011984D01*
X13341610Y-14011984D02*
X13360658Y-14021508D01*
X13360658Y-14021508D02*
X13370182Y-14031031D01*
X13370182Y-14031031D02*
X13379705Y-14050079D01*
X13379705Y-14050079D02*
X13389229Y-14088174D01*
X13389229Y-14088174D02*
X13389229Y-14135793D01*
X13389229Y-14135793D02*
X13379705Y-14173888D01*
X13379705Y-14173888D02*
X13370182Y-14192936D01*
X13370182Y-14192936D02*
X13360658Y-14202460D01*
X13360658Y-14202460D02*
X13341610Y-14211984D01*
X13341610Y-14211984D02*
X13322562Y-14211984D01*
X13322562Y-14211984D02*
X13303515Y-14202460D01*
X13303515Y-14202460D02*
X13293991Y-14192936D01*
X13293991Y-14192936D02*
X13284467Y-14173888D01*
X13284467Y-14173888D02*
X13274943Y-14135793D01*
X13274943Y-14135793D02*
X13274943Y-14088174D01*
X13274943Y-14088174D02*
X13284467Y-14050079D01*
X13284467Y-14050079D02*
X13293991Y-14031031D01*
X13293991Y-14031031D02*
X13303515Y-14021508D01*
X13303515Y-14021508D02*
X13322562Y-14011984D01*
X13513039Y-14011984D02*
X13532086Y-14011984D01*
X13532086Y-14011984D02*
X13551134Y-14021508D01*
X13551134Y-14021508D02*
X13560658Y-14031031D01*
X13560658Y-14031031D02*
X13570182Y-14050079D01*
X13570182Y-14050079D02*
X13579705Y-14088174D01*
X13579705Y-14088174D02*
X13579705Y-14135793D01*
X13579705Y-14135793D02*
X13570182Y-14173888D01*
X13570182Y-14173888D02*
X13560658Y-14192936D01*
X13560658Y-14192936D02*
X13551134Y-14202460D01*
X13551134Y-14202460D02*
X13532086Y-14211984D01*
X13532086Y-14211984D02*
X13513039Y-14211984D01*
X13513039Y-14211984D02*
X13493991Y-14202460D01*
X13493991Y-14202460D02*
X13484467Y-14192936D01*
X13484467Y-14192936D02*
X13474943Y-14173888D01*
X13474943Y-14173888D02*
X13465420Y-14135793D01*
X13465420Y-14135793D02*
X13465420Y-14088174D01*
X13465420Y-14088174D02*
X13474943Y-14050079D01*
X13474943Y-14050079D02*
X13484467Y-14031031D01*
X13484467Y-14031031D02*
X13493991Y-14021508D01*
X13493991Y-14021508D02*
X13513039Y-14011984D01*
X13665420Y-14211984D02*
X13665420Y-14078650D01*
X13665420Y-14097698D02*
X13674943Y-14088174D01*
X13674943Y-14088174D02*
X13693991Y-14078650D01*
X13693991Y-14078650D02*
X13722563Y-14078650D01*
X13722563Y-14078650D02*
X13741610Y-14088174D01*
X13741610Y-14088174D02*
X13751134Y-14107222D01*
X13751134Y-14107222D02*
X13751134Y-14211984D01*
X13751134Y-14107222D02*
X13760658Y-14088174D01*
X13760658Y-14088174D02*
X13779705Y-14078650D01*
X13779705Y-14078650D02*
X13808277Y-14078650D01*
X13808277Y-14078650D02*
X13827324Y-14088174D01*
X13827324Y-14088174D02*
X13836848Y-14107222D01*
X13836848Y-14107222D02*
X13836848Y-14211984D01*
X13932086Y-14211984D02*
X13932086Y-14078650D01*
X13932086Y-14097698D02*
X13941610Y-14088174D01*
X13941610Y-14088174D02*
X13960658Y-14078650D01*
X13960658Y-14078650D02*
X13989229Y-14078650D01*
X13989229Y-14078650D02*
X14008277Y-14088174D01*
X14008277Y-14088174D02*
X14017801Y-14107222D01*
X14017801Y-14107222D02*
X14017801Y-14211984D01*
X14017801Y-14107222D02*
X14027324Y-14088174D01*
X14027324Y-14088174D02*
X14046372Y-14078650D01*
X14046372Y-14078650D02*
X14074943Y-14078650D01*
X14074943Y-14078650D02*
X14093991Y-14088174D01*
X14093991Y-14088174D02*
X14103515Y-14107222D01*
X14103515Y-14107222D02*
X14103515Y-14211984D01*
X14493991Y-14002460D02*
X14322563Y-14259603D01*
X14751134Y-14011984D02*
X14770182Y-14011984D01*
X14770182Y-14011984D02*
X14789229Y-14021508D01*
X14789229Y-14021508D02*
X14798753Y-14031031D01*
X14798753Y-14031031D02*
X14808277Y-14050079D01*
X14808277Y-14050079D02*
X14817801Y-14088174D01*
X14817801Y-14088174D02*
X14817801Y-14135793D01*
X14817801Y-14135793D02*
X14808277Y-14173888D01*
X14808277Y-14173888D02*
X14798753Y-14192936D01*
X14798753Y-14192936D02*
X14789229Y-14202460D01*
X14789229Y-14202460D02*
X14770182Y-14211984D01*
X14770182Y-14211984D02*
X14751134Y-14211984D01*
X14751134Y-14211984D02*
X14732086Y-14202460D01*
X14732086Y-14202460D02*
X14722563Y-14192936D01*
X14722563Y-14192936D02*
X14713039Y-14173888D01*
X14713039Y-14173888D02*
X14703515Y-14135793D01*
X14703515Y-14135793D02*
X14703515Y-14088174D01*
X14703515Y-14088174D02*
X14713039Y-14050079D01*
X14713039Y-14050079D02*
X14722563Y-14031031D01*
X14722563Y-14031031D02*
X14732086Y-14021508D01*
X14732086Y-14021508D02*
X14751134Y-14011984D01*
X14903515Y-14192936D02*
X14913039Y-14202460D01*
X14913039Y-14202460D02*
X14903515Y-14211984D01*
X14903515Y-14211984D02*
X14893991Y-14202460D01*
X14893991Y-14202460D02*
X14903515Y-14192936D01*
X14903515Y-14192936D02*
X14903515Y-14211984D01*
X15036848Y-14011984D02*
X15055896Y-14011984D01*
X15055896Y-14011984D02*
X15074944Y-14021508D01*
X15074944Y-14021508D02*
X15084467Y-14031031D01*
X15084467Y-14031031D02*
X15093991Y-14050079D01*
X15093991Y-14050079D02*
X15103515Y-14088174D01*
X15103515Y-14088174D02*
X15103515Y-14135793D01*
X15103515Y-14135793D02*
X15093991Y-14173888D01*
X15093991Y-14173888D02*
X15084467Y-14192936D01*
X15084467Y-14192936D02*
X15074944Y-14202460D01*
X15074944Y-14202460D02*
X15055896Y-14211984D01*
X15055896Y-14211984D02*
X15036848Y-14211984D01*
X15036848Y-14211984D02*
X15017801Y-14202460D01*
X15017801Y-14202460D02*
X15008277Y-14192936D01*
X15008277Y-14192936D02*
X14998753Y-14173888D01*
X14998753Y-14173888D02*
X14989229Y-14135793D01*
X14989229Y-14135793D02*
X14989229Y-14088174D01*
X14989229Y-14088174D02*
X14998753Y-14050079D01*
X14998753Y-14050079D02*
X15008277Y-14031031D01*
X15008277Y-14031031D02*
X15017801Y-14021508D01*
X15017801Y-14021508D02*
X15036848Y-14011984D01*
X15170182Y-14011984D02*
X15293991Y-14011984D01*
X15293991Y-14011984D02*
X15227325Y-14088174D01*
X15227325Y-14088174D02*
X15255896Y-14088174D01*
X15255896Y-14088174D02*
X15274944Y-14097698D01*
X15274944Y-14097698D02*
X15284467Y-14107222D01*
X15284467Y-14107222D02*
X15293991Y-14126269D01*
X15293991Y-14126269D02*
X15293991Y-14173888D01*
X15293991Y-14173888D02*
X15284467Y-14192936D01*
X15284467Y-14192936D02*
X15274944Y-14202460D01*
X15274944Y-14202460D02*
X15255896Y-14211984D01*
X15255896Y-14211984D02*
X15198753Y-14211984D01*
X15198753Y-14211984D02*
X15179706Y-14202460D01*
X15179706Y-14202460D02*
X15170182Y-14192936D01*
X15389229Y-14211984D02*
X15427325Y-14211984D01*
X15427325Y-14211984D02*
X15446372Y-14202460D01*
X15446372Y-14202460D02*
X15455896Y-14192936D01*
X15455896Y-14192936D02*
X15474944Y-14164365D01*
X15474944Y-14164365D02*
X15484467Y-14126269D01*
X15484467Y-14126269D02*
X15484467Y-14050079D01*
X15484467Y-14050079D02*
X15474944Y-14031031D01*
X15474944Y-14031031D02*
X15465420Y-14021508D01*
X15465420Y-14021508D02*
X15446372Y-14011984D01*
X15446372Y-14011984D02*
X15408277Y-14011984D01*
X15408277Y-14011984D02*
X15389229Y-14021508D01*
X15389229Y-14021508D02*
X15379706Y-14031031D01*
X15379706Y-14031031D02*
X15370182Y-14050079D01*
X15370182Y-14050079D02*
X15370182Y-14097698D01*
X15370182Y-14097698D02*
X15379706Y-14116746D01*
X15379706Y-14116746D02*
X15389229Y-14126269D01*
X15389229Y-14126269D02*
X15408277Y-14135793D01*
X15408277Y-14135793D02*
X15446372Y-14135793D01*
X15446372Y-14135793D02*
X15465420Y-14126269D01*
X15465420Y-14126269D02*
X15474944Y-14116746D01*
X15474944Y-14116746D02*
X15484467Y-14097698D01*
X15655896Y-14078650D02*
X15655896Y-14211984D01*
X15608277Y-14002460D02*
X15560658Y-14145317D01*
X15560658Y-14145317D02*
X15684467Y-14145317D01*
X15751134Y-14011984D02*
X15751134Y-14050079D01*
X15827325Y-14011984D02*
X15827325Y-14050079D01*
X16122563Y-14288174D02*
X16113039Y-14278650D01*
X16113039Y-14278650D02*
X16093991Y-14250079D01*
X16093991Y-14250079D02*
X16084468Y-14231031D01*
X16084468Y-14231031D02*
X16074944Y-14202460D01*
X16074944Y-14202460D02*
X16065420Y-14154841D01*
X16065420Y-14154841D02*
X16065420Y-14116746D01*
X16065420Y-14116746D02*
X16074944Y-14069127D01*
X16074944Y-14069127D02*
X16084468Y-14040555D01*
X16084468Y-14040555D02*
X16093991Y-14021508D01*
X16093991Y-14021508D02*
X16113039Y-13992936D01*
X16113039Y-13992936D02*
X16122563Y-13983412D01*
X16303515Y-14211984D02*
X16189229Y-14211984D01*
X16246372Y-14211984D02*
X16246372Y-14011984D01*
X16246372Y-14011984D02*
X16227325Y-14040555D01*
X16227325Y-14040555D02*
X16208277Y-14059603D01*
X16208277Y-14059603D02*
X16189229Y-14069127D01*
X16417801Y-14097698D02*
X16398753Y-14088174D01*
X16398753Y-14088174D02*
X16389229Y-14078650D01*
X16389229Y-14078650D02*
X16379706Y-14059603D01*
X16379706Y-14059603D02*
X16379706Y-14050079D01*
X16379706Y-14050079D02*
X16389229Y-14031031D01*
X16389229Y-14031031D02*
X16398753Y-14021508D01*
X16398753Y-14021508D02*
X16417801Y-14011984D01*
X16417801Y-14011984D02*
X16455896Y-14011984D01*
X16455896Y-14011984D02*
X16474944Y-14021508D01*
X16474944Y-14021508D02*
X16484468Y-14031031D01*
X16484468Y-14031031D02*
X16493991Y-14050079D01*
X16493991Y-14050079D02*
X16493991Y-14059603D01*
X16493991Y-14059603D02*
X16484468Y-14078650D01*
X16484468Y-14078650D02*
X16474944Y-14088174D01*
X16474944Y-14088174D02*
X16455896Y-14097698D01*
X16455896Y-14097698D02*
X16417801Y-14097698D01*
X16417801Y-14097698D02*
X16398753Y-14107222D01*
X16398753Y-14107222D02*
X16389229Y-14116746D01*
X16389229Y-14116746D02*
X16379706Y-14135793D01*
X16379706Y-14135793D02*
X16379706Y-14173888D01*
X16379706Y-14173888D02*
X16389229Y-14192936D01*
X16389229Y-14192936D02*
X16398753Y-14202460D01*
X16398753Y-14202460D02*
X16417801Y-14211984D01*
X16417801Y-14211984D02*
X16455896Y-14211984D01*
X16455896Y-14211984D02*
X16474944Y-14202460D01*
X16474944Y-14202460D02*
X16484468Y-14192936D01*
X16484468Y-14192936D02*
X16493991Y-14173888D01*
X16493991Y-14173888D02*
X16493991Y-14135793D01*
X16493991Y-14135793D02*
X16484468Y-14116746D01*
X16484468Y-14116746D02*
X16474944Y-14107222D01*
X16474944Y-14107222D02*
X16455896Y-14097698D01*
X16732087Y-14211984D02*
X16732087Y-14011984D01*
X16817801Y-14211984D02*
X16817801Y-14107222D01*
X16817801Y-14107222D02*
X16808277Y-14088174D01*
X16808277Y-14088174D02*
X16789230Y-14078650D01*
X16789230Y-14078650D02*
X16760658Y-14078650D01*
X16760658Y-14078650D02*
X16741610Y-14088174D01*
X16741610Y-14088174D02*
X16732087Y-14097698D01*
X16941611Y-14211984D02*
X16922563Y-14202460D01*
X16922563Y-14202460D02*
X16913039Y-14192936D01*
X16913039Y-14192936D02*
X16903515Y-14173888D01*
X16903515Y-14173888D02*
X16903515Y-14116746D01*
X16903515Y-14116746D02*
X16913039Y-14097698D01*
X16913039Y-14097698D02*
X16922563Y-14088174D01*
X16922563Y-14088174D02*
X16941611Y-14078650D01*
X16941611Y-14078650D02*
X16970182Y-14078650D01*
X16970182Y-14078650D02*
X16989230Y-14088174D01*
X16989230Y-14088174D02*
X16998753Y-14097698D01*
X16998753Y-14097698D02*
X17008277Y-14116746D01*
X17008277Y-14116746D02*
X17008277Y-14173888D01*
X17008277Y-14173888D02*
X16998753Y-14192936D01*
X16998753Y-14192936D02*
X16989230Y-14202460D01*
X16989230Y-14202460D02*
X16970182Y-14211984D01*
X16970182Y-14211984D02*
X16941611Y-14211984D01*
X17122563Y-14211984D02*
X17103515Y-14202460D01*
X17103515Y-14202460D02*
X17093992Y-14183412D01*
X17093992Y-14183412D02*
X17093992Y-14011984D01*
X17274944Y-14202460D02*
X17255896Y-14211984D01*
X17255896Y-14211984D02*
X17217801Y-14211984D01*
X17217801Y-14211984D02*
X17198753Y-14202460D01*
X17198753Y-14202460D02*
X17189230Y-14183412D01*
X17189230Y-14183412D02*
X17189230Y-14107222D01*
X17189230Y-14107222D02*
X17198753Y-14088174D01*
X17198753Y-14088174D02*
X17217801Y-14078650D01*
X17217801Y-14078650D02*
X17255896Y-14078650D01*
X17255896Y-14078650D02*
X17274944Y-14088174D01*
X17274944Y-14088174D02*
X17284468Y-14107222D01*
X17284468Y-14107222D02*
X17284468Y-14126269D01*
X17284468Y-14126269D02*
X17189230Y-14145317D01*
X17360658Y-14202460D02*
X17379706Y-14211984D01*
X17379706Y-14211984D02*
X17417801Y-14211984D01*
X17417801Y-14211984D02*
X17436849Y-14202460D01*
X17436849Y-14202460D02*
X17446373Y-14183412D01*
X17446373Y-14183412D02*
X17446373Y-14173888D01*
X17446373Y-14173888D02*
X17436849Y-14154841D01*
X17436849Y-14154841D02*
X17417801Y-14145317D01*
X17417801Y-14145317D02*
X17389230Y-14145317D01*
X17389230Y-14145317D02*
X17370182Y-14135793D01*
X17370182Y-14135793D02*
X17360658Y-14116746D01*
X17360658Y-14116746D02*
X17360658Y-14107222D01*
X17360658Y-14107222D02*
X17370182Y-14088174D01*
X17370182Y-14088174D02*
X17389230Y-14078650D01*
X17389230Y-14078650D02*
X17417801Y-14078650D01*
X17417801Y-14078650D02*
X17436849Y-14088174D01*
X17513039Y-14288174D02*
X17522563Y-14278650D01*
X17522563Y-14278650D02*
X17541611Y-14250079D01*
X17541611Y-14250079D02*
X17551134Y-14231031D01*
X17551134Y-14231031D02*
X17560658Y-14202460D01*
X17560658Y-14202460D02*
X17570182Y-14154841D01*
X17570182Y-14154841D02*
X17570182Y-14116746D01*
X17570182Y-14116746D02*
X17560658Y-14069127D01*
X17560658Y-14069127D02*
X17551134Y-14040555D01*
X17551134Y-14040555D02*
X17541611Y-14021508D01*
X17541611Y-14021508D02*
X17522563Y-13992936D01*
X17522563Y-13992936D02*
X17513039Y-13983412D01*
D13*
X12532563Y-14420563D02*
X12532563Y-14348437D01*
X12460437Y-14348437D01*
X12460437Y-14420563D01*
X12532563Y-14420563D01*
D11*
X12913039Y-14475984D02*
X12798753Y-14475984D01*
X12855896Y-14475984D02*
X12855896Y-14275984D01*
X12855896Y-14275984D02*
X12836848Y-14304555D01*
X12836848Y-14304555D02*
X12817801Y-14323603D01*
X12817801Y-14323603D02*
X12798753Y-14333127D01*
X12998753Y-14456936D02*
X13008277Y-14466460D01*
X13008277Y-14466460D02*
X12998753Y-14475984D01*
X12998753Y-14475984D02*
X12989229Y-14466460D01*
X12989229Y-14466460D02*
X12998753Y-14456936D01*
X12998753Y-14456936D02*
X12998753Y-14475984D01*
X13132086Y-14275984D02*
X13151134Y-14275984D01*
X13151134Y-14275984D02*
X13170182Y-14285508D01*
X13170182Y-14285508D02*
X13179705Y-14295031D01*
X13179705Y-14295031D02*
X13189229Y-14314079D01*
X13189229Y-14314079D02*
X13198753Y-14352174D01*
X13198753Y-14352174D02*
X13198753Y-14399793D01*
X13198753Y-14399793D02*
X13189229Y-14437888D01*
X13189229Y-14437888D02*
X13179705Y-14456936D01*
X13179705Y-14456936D02*
X13170182Y-14466460D01*
X13170182Y-14466460D02*
X13151134Y-14475984D01*
X13151134Y-14475984D02*
X13132086Y-14475984D01*
X13132086Y-14475984D02*
X13113039Y-14466460D01*
X13113039Y-14466460D02*
X13103515Y-14456936D01*
X13103515Y-14456936D02*
X13093991Y-14437888D01*
X13093991Y-14437888D02*
X13084467Y-14399793D01*
X13084467Y-14399793D02*
X13084467Y-14352174D01*
X13084467Y-14352174D02*
X13093991Y-14314079D01*
X13093991Y-14314079D02*
X13103515Y-14295031D01*
X13103515Y-14295031D02*
X13113039Y-14285508D01*
X13113039Y-14285508D02*
X13132086Y-14275984D01*
X13274943Y-14295031D02*
X13284467Y-14285508D01*
X13284467Y-14285508D02*
X13303515Y-14275984D01*
X13303515Y-14275984D02*
X13351134Y-14275984D01*
X13351134Y-14275984D02*
X13370182Y-14285508D01*
X13370182Y-14285508D02*
X13379705Y-14295031D01*
X13379705Y-14295031D02*
X13389229Y-14314079D01*
X13389229Y-14314079D02*
X13389229Y-14333127D01*
X13389229Y-14333127D02*
X13379705Y-14361698D01*
X13379705Y-14361698D02*
X13265420Y-14475984D01*
X13265420Y-14475984D02*
X13389229Y-14475984D01*
X13513039Y-14275984D02*
X13532086Y-14275984D01*
X13532086Y-14275984D02*
X13551134Y-14285508D01*
X13551134Y-14285508D02*
X13560658Y-14295031D01*
X13560658Y-14295031D02*
X13570182Y-14314079D01*
X13570182Y-14314079D02*
X13579705Y-14352174D01*
X13579705Y-14352174D02*
X13579705Y-14399793D01*
X13579705Y-14399793D02*
X13570182Y-14437888D01*
X13570182Y-14437888D02*
X13560658Y-14456936D01*
X13560658Y-14456936D02*
X13551134Y-14466460D01*
X13551134Y-14466460D02*
X13532086Y-14475984D01*
X13532086Y-14475984D02*
X13513039Y-14475984D01*
X13513039Y-14475984D02*
X13493991Y-14466460D01*
X13493991Y-14466460D02*
X13484467Y-14456936D01*
X13484467Y-14456936D02*
X13474943Y-14437888D01*
X13474943Y-14437888D02*
X13465420Y-14399793D01*
X13465420Y-14399793D02*
X13465420Y-14352174D01*
X13465420Y-14352174D02*
X13474943Y-14314079D01*
X13474943Y-14314079D02*
X13484467Y-14295031D01*
X13484467Y-14295031D02*
X13493991Y-14285508D01*
X13493991Y-14285508D02*
X13513039Y-14275984D01*
X13665420Y-14475984D02*
X13665420Y-14342650D01*
X13665420Y-14361698D02*
X13674943Y-14352174D01*
X13674943Y-14352174D02*
X13693991Y-14342650D01*
X13693991Y-14342650D02*
X13722563Y-14342650D01*
X13722563Y-14342650D02*
X13741610Y-14352174D01*
X13741610Y-14352174D02*
X13751134Y-14371222D01*
X13751134Y-14371222D02*
X13751134Y-14475984D01*
X13751134Y-14371222D02*
X13760658Y-14352174D01*
X13760658Y-14352174D02*
X13779705Y-14342650D01*
X13779705Y-14342650D02*
X13808277Y-14342650D01*
X13808277Y-14342650D02*
X13827324Y-14352174D01*
X13827324Y-14352174D02*
X13836848Y-14371222D01*
X13836848Y-14371222D02*
X13836848Y-14475984D01*
X13932086Y-14475984D02*
X13932086Y-14342650D01*
X13932086Y-14361698D02*
X13941610Y-14352174D01*
X13941610Y-14352174D02*
X13960658Y-14342650D01*
X13960658Y-14342650D02*
X13989229Y-14342650D01*
X13989229Y-14342650D02*
X14008277Y-14352174D01*
X14008277Y-14352174D02*
X14017801Y-14371222D01*
X14017801Y-14371222D02*
X14017801Y-14475984D01*
X14017801Y-14371222D02*
X14027324Y-14352174D01*
X14027324Y-14352174D02*
X14046372Y-14342650D01*
X14046372Y-14342650D02*
X14074943Y-14342650D01*
X14074943Y-14342650D02*
X14093991Y-14352174D01*
X14093991Y-14352174D02*
X14103515Y-14371222D01*
X14103515Y-14371222D02*
X14103515Y-14475984D01*
X14493991Y-14266460D02*
X14322563Y-14523603D01*
X14751134Y-14275984D02*
X14770182Y-14275984D01*
X14770182Y-14275984D02*
X14789229Y-14285508D01*
X14789229Y-14285508D02*
X14798753Y-14295031D01*
X14798753Y-14295031D02*
X14808277Y-14314079D01*
X14808277Y-14314079D02*
X14817801Y-14352174D01*
X14817801Y-14352174D02*
X14817801Y-14399793D01*
X14817801Y-14399793D02*
X14808277Y-14437888D01*
X14808277Y-14437888D02*
X14798753Y-14456936D01*
X14798753Y-14456936D02*
X14789229Y-14466460D01*
X14789229Y-14466460D02*
X14770182Y-14475984D01*
X14770182Y-14475984D02*
X14751134Y-14475984D01*
X14751134Y-14475984D02*
X14732086Y-14466460D01*
X14732086Y-14466460D02*
X14722563Y-14456936D01*
X14722563Y-14456936D02*
X14713039Y-14437888D01*
X14713039Y-14437888D02*
X14703515Y-14399793D01*
X14703515Y-14399793D02*
X14703515Y-14352174D01*
X14703515Y-14352174D02*
X14713039Y-14314079D01*
X14713039Y-14314079D02*
X14722563Y-14295031D01*
X14722563Y-14295031D02*
X14732086Y-14285508D01*
X14732086Y-14285508D02*
X14751134Y-14275984D01*
X14903515Y-14456936D02*
X14913039Y-14466460D01*
X14913039Y-14466460D02*
X14903515Y-14475984D01*
X14903515Y-14475984D02*
X14893991Y-14466460D01*
X14893991Y-14466460D02*
X14903515Y-14456936D01*
X14903515Y-14456936D02*
X14903515Y-14475984D01*
X15036848Y-14275984D02*
X15055896Y-14275984D01*
X15055896Y-14275984D02*
X15074944Y-14285508D01*
X15074944Y-14285508D02*
X15084467Y-14295031D01*
X15084467Y-14295031D02*
X15093991Y-14314079D01*
X15093991Y-14314079D02*
X15103515Y-14352174D01*
X15103515Y-14352174D02*
X15103515Y-14399793D01*
X15103515Y-14399793D02*
X15093991Y-14437888D01*
X15093991Y-14437888D02*
X15084467Y-14456936D01*
X15084467Y-14456936D02*
X15074944Y-14466460D01*
X15074944Y-14466460D02*
X15055896Y-14475984D01*
X15055896Y-14475984D02*
X15036848Y-14475984D01*
X15036848Y-14475984D02*
X15017801Y-14466460D01*
X15017801Y-14466460D02*
X15008277Y-14456936D01*
X15008277Y-14456936D02*
X14998753Y-14437888D01*
X14998753Y-14437888D02*
X14989229Y-14399793D01*
X14989229Y-14399793D02*
X14989229Y-14352174D01*
X14989229Y-14352174D02*
X14998753Y-14314079D01*
X14998753Y-14314079D02*
X15008277Y-14295031D01*
X15008277Y-14295031D02*
X15017801Y-14285508D01*
X15017801Y-14285508D02*
X15036848Y-14275984D01*
X15274944Y-14342650D02*
X15274944Y-14475984D01*
X15227325Y-14266460D02*
X15179706Y-14409317D01*
X15179706Y-14409317D02*
X15303515Y-14409317D01*
X15417801Y-14275984D02*
X15436848Y-14275984D01*
X15436848Y-14275984D02*
X15455896Y-14285508D01*
X15455896Y-14285508D02*
X15465420Y-14295031D01*
X15465420Y-14295031D02*
X15474944Y-14314079D01*
X15474944Y-14314079D02*
X15484467Y-14352174D01*
X15484467Y-14352174D02*
X15484467Y-14399793D01*
X15484467Y-14399793D02*
X15474944Y-14437888D01*
X15474944Y-14437888D02*
X15465420Y-14456936D01*
X15465420Y-14456936D02*
X15455896Y-14466460D01*
X15455896Y-14466460D02*
X15436848Y-14475984D01*
X15436848Y-14475984D02*
X15417801Y-14475984D01*
X15417801Y-14475984D02*
X15398753Y-14466460D01*
X15398753Y-14466460D02*
X15389229Y-14456936D01*
X15389229Y-14456936D02*
X15379706Y-14437888D01*
X15379706Y-14437888D02*
X15370182Y-14399793D01*
X15370182Y-14399793D02*
X15370182Y-14352174D01*
X15370182Y-14352174D02*
X15379706Y-14314079D01*
X15379706Y-14314079D02*
X15389229Y-14295031D01*
X15389229Y-14295031D02*
X15398753Y-14285508D01*
X15398753Y-14285508D02*
X15417801Y-14275984D01*
X15560658Y-14295031D02*
X15570182Y-14285508D01*
X15570182Y-14285508D02*
X15589229Y-14275984D01*
X15589229Y-14275984D02*
X15636848Y-14275984D01*
X15636848Y-14275984D02*
X15655896Y-14285508D01*
X15655896Y-14285508D02*
X15665420Y-14295031D01*
X15665420Y-14295031D02*
X15674944Y-14314079D01*
X15674944Y-14314079D02*
X15674944Y-14333127D01*
X15674944Y-14333127D02*
X15665420Y-14361698D01*
X15665420Y-14361698D02*
X15551134Y-14475984D01*
X15551134Y-14475984D02*
X15674944Y-14475984D01*
X15751134Y-14275984D02*
X15751134Y-14314079D01*
X15827325Y-14275984D02*
X15827325Y-14314079D01*
X16122563Y-14552174D02*
X16113039Y-14542650D01*
X16113039Y-14542650D02*
X16093991Y-14514079D01*
X16093991Y-14514079D02*
X16084468Y-14495031D01*
X16084468Y-14495031D02*
X16074944Y-14466460D01*
X16074944Y-14466460D02*
X16065420Y-14418841D01*
X16065420Y-14418841D02*
X16065420Y-14380746D01*
X16065420Y-14380746D02*
X16074944Y-14333127D01*
X16074944Y-14333127D02*
X16084468Y-14304555D01*
X16084468Y-14304555D02*
X16093991Y-14285508D01*
X16093991Y-14285508D02*
X16113039Y-14256936D01*
X16113039Y-14256936D02*
X16122563Y-14247412D01*
X16284468Y-14342650D02*
X16284468Y-14475984D01*
X16236848Y-14266460D02*
X16189229Y-14409317D01*
X16189229Y-14409317D02*
X16313039Y-14409317D01*
X16474944Y-14342650D02*
X16474944Y-14475984D01*
X16427325Y-14266460D02*
X16379706Y-14409317D01*
X16379706Y-14409317D02*
X16503515Y-14409317D01*
X16732087Y-14475984D02*
X16732087Y-14275984D01*
X16817801Y-14475984D02*
X16817801Y-14371222D01*
X16817801Y-14371222D02*
X16808277Y-14352174D01*
X16808277Y-14352174D02*
X16789230Y-14342650D01*
X16789230Y-14342650D02*
X16760658Y-14342650D01*
X16760658Y-14342650D02*
X16741610Y-14352174D01*
X16741610Y-14352174D02*
X16732087Y-14361698D01*
X16941611Y-14475984D02*
X16922563Y-14466460D01*
X16922563Y-14466460D02*
X16913039Y-14456936D01*
X16913039Y-14456936D02*
X16903515Y-14437888D01*
X16903515Y-14437888D02*
X16903515Y-14380746D01*
X16903515Y-14380746D02*
X16913039Y-14361698D01*
X16913039Y-14361698D02*
X16922563Y-14352174D01*
X16922563Y-14352174D02*
X16941611Y-14342650D01*
X16941611Y-14342650D02*
X16970182Y-14342650D01*
X16970182Y-14342650D02*
X16989230Y-14352174D01*
X16989230Y-14352174D02*
X16998753Y-14361698D01*
X16998753Y-14361698D02*
X17008277Y-14380746D01*
X17008277Y-14380746D02*
X17008277Y-14437888D01*
X17008277Y-14437888D02*
X16998753Y-14456936D01*
X16998753Y-14456936D02*
X16989230Y-14466460D01*
X16989230Y-14466460D02*
X16970182Y-14475984D01*
X16970182Y-14475984D02*
X16941611Y-14475984D01*
X17122563Y-14475984D02*
X17103515Y-14466460D01*
X17103515Y-14466460D02*
X17093992Y-14447412D01*
X17093992Y-14447412D02*
X17093992Y-14275984D01*
X17274944Y-14466460D02*
X17255896Y-14475984D01*
X17255896Y-14475984D02*
X17217801Y-14475984D01*
X17217801Y-14475984D02*
X17198753Y-14466460D01*
X17198753Y-14466460D02*
X17189230Y-14447412D01*
X17189230Y-14447412D02*
X17189230Y-14371222D01*
X17189230Y-14371222D02*
X17198753Y-14352174D01*
X17198753Y-14352174D02*
X17217801Y-14342650D01*
X17217801Y-14342650D02*
X17255896Y-14342650D01*
X17255896Y-14342650D02*
X17274944Y-14352174D01*
X17274944Y-14352174D02*
X17284468Y-14371222D01*
X17284468Y-14371222D02*
X17284468Y-14390269D01*
X17284468Y-14390269D02*
X17189230Y-14409317D01*
X17360658Y-14466460D02*
X17379706Y-14475984D01*
X17379706Y-14475984D02*
X17417801Y-14475984D01*
X17417801Y-14475984D02*
X17436849Y-14466460D01*
X17436849Y-14466460D02*
X17446373Y-14447412D01*
X17446373Y-14447412D02*
X17446373Y-14437888D01*
X17446373Y-14437888D02*
X17436849Y-14418841D01*
X17436849Y-14418841D02*
X17417801Y-14409317D01*
X17417801Y-14409317D02*
X17389230Y-14409317D01*
X17389230Y-14409317D02*
X17370182Y-14399793D01*
X17370182Y-14399793D02*
X17360658Y-14380746D01*
X17360658Y-14380746D02*
X17360658Y-14371222D01*
X17360658Y-14371222D02*
X17370182Y-14352174D01*
X17370182Y-14352174D02*
X17389230Y-14342650D01*
X17389230Y-14342650D02*
X17417801Y-14342650D01*
X17417801Y-14342650D02*
X17436849Y-14352174D01*
X17513039Y-14552174D02*
X17522563Y-14542650D01*
X17522563Y-14542650D02*
X17541611Y-14514079D01*
X17541611Y-14514079D02*
X17551134Y-14495031D01*
X17551134Y-14495031D02*
X17560658Y-14466460D01*
X17560658Y-14466460D02*
X17570182Y-14418841D01*
X17570182Y-14418841D02*
X17570182Y-14380746D01*
X17570182Y-14380746D02*
X17560658Y-14333127D01*
X17560658Y-14333127D02*
X17551134Y-14304555D01*
X17551134Y-14304555D02*
X17541611Y-14285508D01*
X17541611Y-14285508D02*
X17522563Y-14256936D01*
X17522563Y-14256936D02*
X17513039Y-14247412D01*
D14*
X12492500Y-14703500D02*
X12547500Y-14648500D01*
X12492500Y-14593500D01*
X12437500Y-14648500D01*
X12492500Y-14703500D01*
D11*
X12913039Y-14739984D02*
X12798753Y-14739984D01*
X12855896Y-14739984D02*
X12855896Y-14539984D01*
X12855896Y-14539984D02*
X12836848Y-14568555D01*
X12836848Y-14568555D02*
X12817801Y-14587603D01*
X12817801Y-14587603D02*
X12798753Y-14597127D01*
X12998753Y-14720936D02*
X13008277Y-14730460D01*
X13008277Y-14730460D02*
X12998753Y-14739984D01*
X12998753Y-14739984D02*
X12989229Y-14730460D01*
X12989229Y-14730460D02*
X12998753Y-14720936D01*
X12998753Y-14720936D02*
X12998753Y-14739984D01*
X13198753Y-14739984D02*
X13084467Y-14739984D01*
X13141610Y-14739984D02*
X13141610Y-14539984D01*
X13141610Y-14539984D02*
X13122562Y-14568555D01*
X13122562Y-14568555D02*
X13103515Y-14587603D01*
X13103515Y-14587603D02*
X13084467Y-14597127D01*
X13322562Y-14539984D02*
X13341610Y-14539984D01*
X13341610Y-14539984D02*
X13360658Y-14549508D01*
X13360658Y-14549508D02*
X13370182Y-14559031D01*
X13370182Y-14559031D02*
X13379705Y-14578079D01*
X13379705Y-14578079D02*
X13389229Y-14616174D01*
X13389229Y-14616174D02*
X13389229Y-14663793D01*
X13389229Y-14663793D02*
X13379705Y-14701888D01*
X13379705Y-14701888D02*
X13370182Y-14720936D01*
X13370182Y-14720936D02*
X13360658Y-14730460D01*
X13360658Y-14730460D02*
X13341610Y-14739984D01*
X13341610Y-14739984D02*
X13322562Y-14739984D01*
X13322562Y-14739984D02*
X13303515Y-14730460D01*
X13303515Y-14730460D02*
X13293991Y-14720936D01*
X13293991Y-14720936D02*
X13284467Y-14701888D01*
X13284467Y-14701888D02*
X13274943Y-14663793D01*
X13274943Y-14663793D02*
X13274943Y-14616174D01*
X13274943Y-14616174D02*
X13284467Y-14578079D01*
X13284467Y-14578079D02*
X13293991Y-14559031D01*
X13293991Y-14559031D02*
X13303515Y-14549508D01*
X13303515Y-14549508D02*
X13322562Y-14539984D01*
X13513039Y-14539984D02*
X13532086Y-14539984D01*
X13532086Y-14539984D02*
X13551134Y-14549508D01*
X13551134Y-14549508D02*
X13560658Y-14559031D01*
X13560658Y-14559031D02*
X13570182Y-14578079D01*
X13570182Y-14578079D02*
X13579705Y-14616174D01*
X13579705Y-14616174D02*
X13579705Y-14663793D01*
X13579705Y-14663793D02*
X13570182Y-14701888D01*
X13570182Y-14701888D02*
X13560658Y-14720936D01*
X13560658Y-14720936D02*
X13551134Y-14730460D01*
X13551134Y-14730460D02*
X13532086Y-14739984D01*
X13532086Y-14739984D02*
X13513039Y-14739984D01*
X13513039Y-14739984D02*
X13493991Y-14730460D01*
X13493991Y-14730460D02*
X13484467Y-14720936D01*
X13484467Y-14720936D02*
X13474943Y-14701888D01*
X13474943Y-14701888D02*
X13465420Y-14663793D01*
X13465420Y-14663793D02*
X13465420Y-14616174D01*
X13465420Y-14616174D02*
X13474943Y-14578079D01*
X13474943Y-14578079D02*
X13484467Y-14559031D01*
X13484467Y-14559031D02*
X13493991Y-14549508D01*
X13493991Y-14549508D02*
X13513039Y-14539984D01*
X13665420Y-14739984D02*
X13665420Y-14606650D01*
X13665420Y-14625698D02*
X13674943Y-14616174D01*
X13674943Y-14616174D02*
X13693991Y-14606650D01*
X13693991Y-14606650D02*
X13722563Y-14606650D01*
X13722563Y-14606650D02*
X13741610Y-14616174D01*
X13741610Y-14616174D02*
X13751134Y-14635222D01*
X13751134Y-14635222D02*
X13751134Y-14739984D01*
X13751134Y-14635222D02*
X13760658Y-14616174D01*
X13760658Y-14616174D02*
X13779705Y-14606650D01*
X13779705Y-14606650D02*
X13808277Y-14606650D01*
X13808277Y-14606650D02*
X13827324Y-14616174D01*
X13827324Y-14616174D02*
X13836848Y-14635222D01*
X13836848Y-14635222D02*
X13836848Y-14739984D01*
X13932086Y-14739984D02*
X13932086Y-14606650D01*
X13932086Y-14625698D02*
X13941610Y-14616174D01*
X13941610Y-14616174D02*
X13960658Y-14606650D01*
X13960658Y-14606650D02*
X13989229Y-14606650D01*
X13989229Y-14606650D02*
X14008277Y-14616174D01*
X14008277Y-14616174D02*
X14017801Y-14635222D01*
X14017801Y-14635222D02*
X14017801Y-14739984D01*
X14017801Y-14635222D02*
X14027324Y-14616174D01*
X14027324Y-14616174D02*
X14046372Y-14606650D01*
X14046372Y-14606650D02*
X14074943Y-14606650D01*
X14074943Y-14606650D02*
X14093991Y-14616174D01*
X14093991Y-14616174D02*
X14103515Y-14635222D01*
X14103515Y-14635222D02*
X14103515Y-14739984D01*
X14493991Y-14530460D02*
X14322563Y-14787603D01*
X14751134Y-14539984D02*
X14770182Y-14539984D01*
X14770182Y-14539984D02*
X14789229Y-14549508D01*
X14789229Y-14549508D02*
X14798753Y-14559031D01*
X14798753Y-14559031D02*
X14808277Y-14578079D01*
X14808277Y-14578079D02*
X14817801Y-14616174D01*
X14817801Y-14616174D02*
X14817801Y-14663793D01*
X14817801Y-14663793D02*
X14808277Y-14701888D01*
X14808277Y-14701888D02*
X14798753Y-14720936D01*
X14798753Y-14720936D02*
X14789229Y-14730460D01*
X14789229Y-14730460D02*
X14770182Y-14739984D01*
X14770182Y-14739984D02*
X14751134Y-14739984D01*
X14751134Y-14739984D02*
X14732086Y-14730460D01*
X14732086Y-14730460D02*
X14722563Y-14720936D01*
X14722563Y-14720936D02*
X14713039Y-14701888D01*
X14713039Y-14701888D02*
X14703515Y-14663793D01*
X14703515Y-14663793D02*
X14703515Y-14616174D01*
X14703515Y-14616174D02*
X14713039Y-14578079D01*
X14713039Y-14578079D02*
X14722563Y-14559031D01*
X14722563Y-14559031D02*
X14732086Y-14549508D01*
X14732086Y-14549508D02*
X14751134Y-14539984D01*
X14903515Y-14720936D02*
X14913039Y-14730460D01*
X14913039Y-14730460D02*
X14903515Y-14739984D01*
X14903515Y-14739984D02*
X14893991Y-14730460D01*
X14893991Y-14730460D02*
X14903515Y-14720936D01*
X14903515Y-14720936D02*
X14903515Y-14739984D01*
X15036848Y-14539984D02*
X15055896Y-14539984D01*
X15055896Y-14539984D02*
X15074944Y-14549508D01*
X15074944Y-14549508D02*
X15084467Y-14559031D01*
X15084467Y-14559031D02*
X15093991Y-14578079D01*
X15093991Y-14578079D02*
X15103515Y-14616174D01*
X15103515Y-14616174D02*
X15103515Y-14663793D01*
X15103515Y-14663793D02*
X15093991Y-14701888D01*
X15093991Y-14701888D02*
X15084467Y-14720936D01*
X15084467Y-14720936D02*
X15074944Y-14730460D01*
X15074944Y-14730460D02*
X15055896Y-14739984D01*
X15055896Y-14739984D02*
X15036848Y-14739984D01*
X15036848Y-14739984D02*
X15017801Y-14730460D01*
X15017801Y-14730460D02*
X15008277Y-14720936D01*
X15008277Y-14720936D02*
X14998753Y-14701888D01*
X14998753Y-14701888D02*
X14989229Y-14663793D01*
X14989229Y-14663793D02*
X14989229Y-14616174D01*
X14989229Y-14616174D02*
X14998753Y-14578079D01*
X14998753Y-14578079D02*
X15008277Y-14559031D01*
X15008277Y-14559031D02*
X15017801Y-14549508D01*
X15017801Y-14549508D02*
X15036848Y-14539984D01*
X15274944Y-14606650D02*
X15274944Y-14739984D01*
X15227325Y-14530460D02*
X15179706Y-14673317D01*
X15179706Y-14673317D02*
X15303515Y-14673317D01*
X15360658Y-14539984D02*
X15484467Y-14539984D01*
X15484467Y-14539984D02*
X15417801Y-14616174D01*
X15417801Y-14616174D02*
X15446372Y-14616174D01*
X15446372Y-14616174D02*
X15465420Y-14625698D01*
X15465420Y-14625698D02*
X15474944Y-14635222D01*
X15474944Y-14635222D02*
X15484467Y-14654269D01*
X15484467Y-14654269D02*
X15484467Y-14701888D01*
X15484467Y-14701888D02*
X15474944Y-14720936D01*
X15474944Y-14720936D02*
X15465420Y-14730460D01*
X15465420Y-14730460D02*
X15446372Y-14739984D01*
X15446372Y-14739984D02*
X15389229Y-14739984D01*
X15389229Y-14739984D02*
X15370182Y-14730460D01*
X15370182Y-14730460D02*
X15360658Y-14720936D01*
X15551134Y-14539984D02*
X15674944Y-14539984D01*
X15674944Y-14539984D02*
X15608277Y-14616174D01*
X15608277Y-14616174D02*
X15636848Y-14616174D01*
X15636848Y-14616174D02*
X15655896Y-14625698D01*
X15655896Y-14625698D02*
X15665420Y-14635222D01*
X15665420Y-14635222D02*
X15674944Y-14654269D01*
X15674944Y-14654269D02*
X15674944Y-14701888D01*
X15674944Y-14701888D02*
X15665420Y-14720936D01*
X15665420Y-14720936D02*
X15655896Y-14730460D01*
X15655896Y-14730460D02*
X15636848Y-14739984D01*
X15636848Y-14739984D02*
X15579706Y-14739984D01*
X15579706Y-14739984D02*
X15560658Y-14730460D01*
X15560658Y-14730460D02*
X15551134Y-14720936D01*
X15751134Y-14539984D02*
X15751134Y-14578079D01*
X15827325Y-14539984D02*
X15827325Y-14578079D01*
X16122563Y-14816174D02*
X16113039Y-14806650D01*
X16113039Y-14806650D02*
X16093991Y-14778079D01*
X16093991Y-14778079D02*
X16084468Y-14759031D01*
X16084468Y-14759031D02*
X16074944Y-14730460D01*
X16074944Y-14730460D02*
X16065420Y-14682841D01*
X16065420Y-14682841D02*
X16065420Y-14644746D01*
X16065420Y-14644746D02*
X16074944Y-14597127D01*
X16074944Y-14597127D02*
X16084468Y-14568555D01*
X16084468Y-14568555D02*
X16093991Y-14549508D01*
X16093991Y-14549508D02*
X16113039Y-14520936D01*
X16113039Y-14520936D02*
X16122563Y-14511412D01*
X16179706Y-14539984D02*
X16303515Y-14539984D01*
X16303515Y-14539984D02*
X16236848Y-14616174D01*
X16236848Y-14616174D02*
X16265420Y-14616174D01*
X16265420Y-14616174D02*
X16284468Y-14625698D01*
X16284468Y-14625698D02*
X16293991Y-14635222D01*
X16293991Y-14635222D02*
X16303515Y-14654269D01*
X16303515Y-14654269D02*
X16303515Y-14701888D01*
X16303515Y-14701888D02*
X16293991Y-14720936D01*
X16293991Y-14720936D02*
X16284468Y-14730460D01*
X16284468Y-14730460D02*
X16265420Y-14739984D01*
X16265420Y-14739984D02*
X16208277Y-14739984D01*
X16208277Y-14739984D02*
X16189229Y-14730460D01*
X16189229Y-14730460D02*
X16179706Y-14720936D01*
X16379706Y-14559031D02*
X16389229Y-14549508D01*
X16389229Y-14549508D02*
X16408277Y-14539984D01*
X16408277Y-14539984D02*
X16455896Y-14539984D01*
X16455896Y-14539984D02*
X16474944Y-14549508D01*
X16474944Y-14549508D02*
X16484468Y-14559031D01*
X16484468Y-14559031D02*
X16493991Y-14578079D01*
X16493991Y-14578079D02*
X16493991Y-14597127D01*
X16493991Y-14597127D02*
X16484468Y-14625698D01*
X16484468Y-14625698D02*
X16370182Y-14739984D01*
X16370182Y-14739984D02*
X16493991Y-14739984D01*
X16732087Y-14739984D02*
X16732087Y-14539984D01*
X16817801Y-14739984D02*
X16817801Y-14635222D01*
X16817801Y-14635222D02*
X16808277Y-14616174D01*
X16808277Y-14616174D02*
X16789230Y-14606650D01*
X16789230Y-14606650D02*
X16760658Y-14606650D01*
X16760658Y-14606650D02*
X16741610Y-14616174D01*
X16741610Y-14616174D02*
X16732087Y-14625698D01*
X16941611Y-14739984D02*
X16922563Y-14730460D01*
X16922563Y-14730460D02*
X16913039Y-14720936D01*
X16913039Y-14720936D02*
X16903515Y-14701888D01*
X16903515Y-14701888D02*
X16903515Y-14644746D01*
X16903515Y-14644746D02*
X16913039Y-14625698D01*
X16913039Y-14625698D02*
X16922563Y-14616174D01*
X16922563Y-14616174D02*
X16941611Y-14606650D01*
X16941611Y-14606650D02*
X16970182Y-14606650D01*
X16970182Y-14606650D02*
X16989230Y-14616174D01*
X16989230Y-14616174D02*
X16998753Y-14625698D01*
X16998753Y-14625698D02*
X17008277Y-14644746D01*
X17008277Y-14644746D02*
X17008277Y-14701888D01*
X17008277Y-14701888D02*
X16998753Y-14720936D01*
X16998753Y-14720936D02*
X16989230Y-14730460D01*
X16989230Y-14730460D02*
X16970182Y-14739984D01*
X16970182Y-14739984D02*
X16941611Y-14739984D01*
X17122563Y-14739984D02*
X17103515Y-14730460D01*
X17103515Y-14730460D02*
X17093992Y-14711412D01*
X17093992Y-14711412D02*
X17093992Y-14539984D01*
X17274944Y-14730460D02*
X17255896Y-14739984D01*
X17255896Y-14739984D02*
X17217801Y-14739984D01*
X17217801Y-14739984D02*
X17198753Y-14730460D01*
X17198753Y-14730460D02*
X17189230Y-14711412D01*
X17189230Y-14711412D02*
X17189230Y-14635222D01*
X17189230Y-14635222D02*
X17198753Y-14616174D01*
X17198753Y-14616174D02*
X17217801Y-14606650D01*
X17217801Y-14606650D02*
X17255896Y-14606650D01*
X17255896Y-14606650D02*
X17274944Y-14616174D01*
X17274944Y-14616174D02*
X17284468Y-14635222D01*
X17284468Y-14635222D02*
X17284468Y-14654269D01*
X17284468Y-14654269D02*
X17189230Y-14673317D01*
X17360658Y-14730460D02*
X17379706Y-14739984D01*
X17379706Y-14739984D02*
X17417801Y-14739984D01*
X17417801Y-14739984D02*
X17436849Y-14730460D01*
X17436849Y-14730460D02*
X17446373Y-14711412D01*
X17446373Y-14711412D02*
X17446373Y-14701888D01*
X17446373Y-14701888D02*
X17436849Y-14682841D01*
X17436849Y-14682841D02*
X17417801Y-14673317D01*
X17417801Y-14673317D02*
X17389230Y-14673317D01*
X17389230Y-14673317D02*
X17370182Y-14663793D01*
X17370182Y-14663793D02*
X17360658Y-14644746D01*
X17360658Y-14644746D02*
X17360658Y-14635222D01*
X17360658Y-14635222D02*
X17370182Y-14616174D01*
X17370182Y-14616174D02*
X17389230Y-14606650D01*
X17389230Y-14606650D02*
X17417801Y-14606650D01*
X17417801Y-14606650D02*
X17436849Y-14616174D01*
X17513039Y-14816174D02*
X17522563Y-14806650D01*
X17522563Y-14806650D02*
X17541611Y-14778079D01*
X17541611Y-14778079D02*
X17551134Y-14759031D01*
X17551134Y-14759031D02*
X17560658Y-14730460D01*
X17560658Y-14730460D02*
X17570182Y-14682841D01*
X17570182Y-14682841D02*
X17570182Y-14644746D01*
X17570182Y-14644746D02*
X17560658Y-14597127D01*
X17560658Y-14597127D02*
X17551134Y-14568555D01*
X17551134Y-14568555D02*
X17541611Y-14549508D01*
X17541611Y-14549508D02*
X17522563Y-14520936D01*
X17522563Y-14520936D02*
X17513039Y-14511412D01*
M02*
