M48
; DRILL file {KiCad 9.0.0} date 2025-04-21T23:38:41+0100
; FORMAT={-:-/ absolute / metric / decimal}
; #@! TF.CreationDate,2025-04-21T23:38:41+01:00
; #@! TF.GenerationSoftware,Kicad,Pcbnew,9.0.0
; #@! TF.FileFunction,Plated,1,2,PTH
FMAT,2
METRIC
; #@! TA.AperFunction,Plated,PTH,ViaDrill
T1C0.300
; #@! TA.AperFunction,Plated,PTH,ComponentDrill
T2C0.750
; #@! TA.AperFunction,Plated,PTH,ComponentDrill
T3C1.000
; #@! TA.AperFunction,Plated,PTH,ComponentDrill
T4C1.020
; #@! TA.AperFunction,Plated,PTH,ComponentDrill
T5C1.100
%
G90
G05
T1
X176.64Y-79.3
X199.5Y-99.0
X200.0Y-98.0
X200.5Y-111.35
X201.0Y-105.5
X206.343Y-108.858
X207.625Y-101.425
X208.275Y-91.9
T2
X139.25Y-122.1
X141.25Y-122.1
X143.25Y-122.1
X144.4Y-66.9
X145.25Y-122.1
X146.4Y-66.9
X147.25Y-122.1
X148.4Y-66.9
X149.25Y-122.1
X150.4Y-66.9
X151.25Y-122.1
X152.4Y-66.9
X153.25Y-122.1
X154.4Y-66.9
X156.4Y-66.9
X158.4Y-66.9
X158.6Y-114.0
X158.6Y-116.0
X158.6Y-118.0
X158.6Y-120.0
X158.6Y-122.0
X164.35Y-66.35
X164.35Y-68.35
X164.35Y-70.35
X164.35Y-72.35
X164.35Y-74.35
X198.45Y-66.65
X198.45Y-68.65
X198.45Y-70.65
X198.45Y-72.65
X206.0Y-66.55
X206.0Y-68.55
X206.0Y-70.55
X206.0Y-72.55
X213.5Y-66.55
X213.5Y-68.55
X213.5Y-70.55
X213.5Y-72.55
X213.5Y-81.6
X213.5Y-91.025
X213.5Y-101.1
X213.5Y-109.75
X213.5Y-118.425
X215.5Y-81.6
X215.5Y-91.025
X215.5Y-101.1
X215.5Y-109.75
X215.5Y-118.425
X217.5Y-81.6
X217.5Y-91.025
X217.5Y-101.1
X217.5Y-109.75
X217.5Y-118.425
X219.5Y-81.6
X219.5Y-91.025
X219.5Y-101.1
X219.5Y-109.75
X219.5Y-118.425
T3
X132.16Y-114.7
X132.16Y-117.24
X132.16Y-119.78
X132.16Y-122.32
X133.6Y-69.19
X133.6Y-71.73
X133.6Y-74.27
X133.6Y-76.81
X133.6Y-79.35
X134.7Y-114.7
X134.7Y-117.24
X134.7Y-119.78
X134.7Y-122.32
X136.14Y-69.19
X136.14Y-71.73
X136.14Y-74.27
X136.14Y-76.81
X136.14Y-79.35
T4
X137.765Y-83.995
X137.765Y-109.405
X140.305Y-83.995
X140.305Y-109.405
X142.845Y-83.995
X142.845Y-109.405
X145.385Y-83.995
X145.385Y-109.405
X147.925Y-83.995
X147.925Y-109.405
X150.465Y-83.995
X150.465Y-109.405
X153.005Y-83.995
X153.005Y-109.405
X155.545Y-83.995
X155.545Y-109.405
X158.085Y-83.995
X158.085Y-109.405
X160.625Y-83.995
X160.625Y-109.405
X163.165Y-83.995
X163.165Y-109.405
X165.705Y-83.995
X165.705Y-109.405
X168.245Y-83.995
X168.245Y-109.405
X170.785Y-83.995
X170.785Y-109.405
X173.325Y-83.995
X173.325Y-109.405
X175.865Y-83.995
X175.865Y-109.405
X178.405Y-83.995
X178.405Y-109.405
X180.945Y-83.995
X180.945Y-109.405
X183.485Y-83.995
X183.485Y-109.405
X186.025Y-83.995
X186.025Y-109.405
X188.565Y-83.995
X188.565Y-109.405
X191.105Y-83.995
X191.105Y-109.405
T5
X166.0Y-115.8
X166.0Y-120.8
X168.54Y-115.8
X168.54Y-120.8
X171.08Y-115.8
X171.08Y-120.8
X171.58Y-69.25
X171.58Y-74.25
X173.62Y-115.8
X173.62Y-120.8
X174.12Y-69.25
X174.12Y-74.25
X176.66Y-69.25
X176.66Y-74.25
X179.2Y-69.25
X179.2Y-74.25
X182.21Y-115.95
X182.21Y-120.95
X184.75Y-115.95
X184.75Y-120.95
X187.06Y-69.35
X187.06Y-74.35
X189.6Y-69.35
X189.6Y-74.35
X190.86Y-115.9
X190.86Y-120.9
X193.4Y-115.9
X193.4Y-120.9
X202.25Y-116.05
X202.25Y-121.05
X204.79Y-116.05
X204.79Y-121.05
M30
