%TF.GenerationSoftware,KiCad,Pcbnew,9.0.0*%
%TF.CreationDate,2025-04-21T23:38:42+01:00*%
%TF.ProjectId,CapyController,43617079-436f-46e7-9472-6f6c6c65722e,rev?*%
%TF.SameCoordinates,Original*%
%TF.FileFunction,Legend,Bot*%
%TF.FilePolarity,Positive*%
%FSLAX46Y46*%
G04 Gerber Fmt 4.6, Leading zero omitted, Abs format (unit mm)*
G04 Created by KiCad (PCBNEW 9.0.0) date 2025-04-21 23:38:42*
%MOMM*%
%LPD*%
G01*
G04 APERTURE LIST*
%ADD10C,0.250000*%
G04 APERTURE END LIST*
D10*
G36*
X215311139Y-74798971D02*
G01*
X215311139Y-75865000D01*
X214358408Y-75865000D01*
X214227454Y-75857464D01*
X214123220Y-75836904D01*
X214040905Y-75805729D01*
X213976474Y-75765348D01*
X213923655Y-75711155D01*
X213884665Y-75642490D01*
X213859622Y-75556092D01*
X213850536Y-75447436D01*
X213850536Y-75063394D01*
X214257658Y-75063394D01*
X214257658Y-75426370D01*
X214265389Y-75481764D01*
X214284797Y-75521661D01*
X214315243Y-75550077D01*
X214359122Y-75568473D01*
X214421331Y-75575389D01*
X214901910Y-75575389D01*
X214901910Y-74916482D01*
X214421331Y-74916482D01*
X214361327Y-74922253D01*
X214320452Y-74937238D01*
X214293379Y-74959530D01*
X214266785Y-75006405D01*
X214257658Y-75063394D01*
X213850536Y-75063394D01*
X213850536Y-75046542D01*
X213859603Y-74940264D01*
X213884709Y-74855010D01*
X213924020Y-74786540D01*
X213977573Y-74731835D01*
X214042585Y-74690868D01*
X214125031Y-74659360D01*
X214228771Y-74638653D01*
X214358408Y-74631085D01*
X215332113Y-74631085D01*
X215311139Y-74798971D01*
G37*
G36*
X213368856Y-74930487D02*
G01*
X213437867Y-74945572D01*
X213488843Y-74967865D01*
X213533709Y-75000415D01*
X213567163Y-75038027D01*
X213590601Y-75081255D01*
X213611648Y-75153950D01*
X213618902Y-75235403D01*
X213618902Y-75552308D01*
X213611749Y-75641215D01*
X213591700Y-75714973D01*
X213568684Y-75757846D01*
X213535282Y-75794362D01*
X213489942Y-75825157D01*
X213438506Y-75845758D01*
X213369074Y-75859742D01*
X213276901Y-75865000D01*
X212829845Y-75865000D01*
X212675537Y-75861063D01*
X212577054Y-75851352D01*
X212494919Y-75834703D01*
X212452215Y-75818838D01*
X212423840Y-75797585D01*
X212416495Y-75778995D01*
X212542432Y-75579602D01*
X212754374Y-75593249D01*
X213064959Y-75600576D01*
X213129989Y-75600576D01*
X213178488Y-75594273D01*
X213208272Y-75578165D01*
X213225248Y-75553344D01*
X213230739Y-75516679D01*
X213230739Y-75485171D01*
X213093261Y-75495704D01*
X212806764Y-75504039D01*
X212439576Y-75504039D01*
X212439576Y-75273230D01*
X212827830Y-75273230D01*
X212827830Y-75302630D01*
X213230739Y-75302630D01*
X213230739Y-75273230D01*
X213224411Y-75236407D01*
X213207033Y-75211510D01*
X213177383Y-75195467D01*
X213129989Y-75189241D01*
X213008265Y-75189241D01*
X212880312Y-75193454D01*
X212847870Y-75201943D01*
X212835157Y-75214520D01*
X212827830Y-75273230D01*
X212439576Y-75273230D01*
X212439576Y-75235403D01*
X212448067Y-75146806D01*
X212472090Y-75072828D01*
X212498799Y-75030664D01*
X212537855Y-74994380D01*
X212591708Y-74963652D01*
X212651311Y-74943735D01*
X212732985Y-74930014D01*
X212842485Y-74924817D01*
X213276901Y-74924817D01*
X213368856Y-74930487D01*
G37*
G36*
X211968614Y-75865000D02*
G01*
X212099008Y-75860526D01*
X212168008Y-75850345D01*
X212217400Y-75832635D01*
X212226718Y-75820944D01*
X212142821Y-75600576D01*
X211992794Y-75614223D01*
X211628628Y-75621550D01*
X211479701Y-75621550D01*
X211432396Y-75617781D01*
X211413572Y-75610010D01*
X211403814Y-75595369D01*
X211399925Y-75569069D01*
X211404632Y-75537946D01*
X211415679Y-75524006D01*
X211435635Y-75517566D01*
X211479701Y-75514572D01*
X211905691Y-75514572D01*
X212006554Y-75507164D01*
X212083940Y-75487161D01*
X212142821Y-75456870D01*
X212177558Y-75424782D01*
X212203497Y-75381671D01*
X212220455Y-75324764D01*
X212226718Y-75250149D01*
X212226718Y-75208200D01*
X212221287Y-75132688D01*
X212205744Y-75066509D01*
X212186962Y-75027479D01*
X212157500Y-74993393D01*
X212115526Y-74963652D01*
X212067488Y-74943825D01*
X211999511Y-74930077D01*
X211905691Y-74924817D01*
X211284521Y-74924817D01*
X211167752Y-74929324D01*
X211106193Y-74939563D01*
X211062356Y-74957009D01*
X211053711Y-74968964D01*
X211074685Y-75191347D01*
X211243579Y-75177792D01*
X211616080Y-75170373D01*
X211765099Y-75170373D01*
X211812404Y-75174143D01*
X211831228Y-75181913D01*
X211840992Y-75196285D01*
X211844783Y-75220748D01*
X211840992Y-75245211D01*
X211831228Y-75259583D01*
X211812404Y-75267353D01*
X211765099Y-75271123D01*
X211330683Y-75271123D01*
X211223696Y-75280426D01*
X211145595Y-75305170D01*
X211089340Y-75342472D01*
X211047140Y-75394698D01*
X211021011Y-75459877D01*
X211011671Y-75541866D01*
X211011671Y-75581708D01*
X211016557Y-75655456D01*
X211030630Y-75721293D01*
X211048063Y-75760427D01*
X211076142Y-75794829D01*
X211116634Y-75825157D01*
X211163517Y-75845299D01*
X211232477Y-75859493D01*
X211330683Y-75865000D01*
X211968614Y-75865000D01*
G37*
G36*
X210567912Y-74834600D02*
G01*
X210650805Y-74825892D01*
X210708203Y-74802989D01*
X210747060Y-74768197D01*
X210771071Y-74720149D01*
X210779854Y-74654166D01*
X210772854Y-74589377D01*
X210754443Y-74544695D01*
X210726365Y-74514581D01*
X210688607Y-74494372D01*
X210637131Y-74480830D01*
X210567912Y-74475746D01*
X210494336Y-74480980D01*
X210441878Y-74494647D01*
X210405338Y-74514581D01*
X210378429Y-74544513D01*
X210360650Y-74589164D01*
X210353864Y-74654166D01*
X210362690Y-74720006D01*
X210386853Y-74768027D01*
X210426035Y-74802872D01*
X210484031Y-74825853D01*
X210567912Y-74834600D01*
G37*
G36*
X210760986Y-75865000D02*
G01*
X210760986Y-74924817D01*
X210379051Y-74924817D01*
X210379051Y-75865000D01*
X210760986Y-75865000D01*
G37*
G36*
X209257152Y-74952111D02*
G01*
X209350484Y-74939563D01*
X209498495Y-74929030D01*
X209737731Y-74924817D01*
X209800654Y-74924817D01*
X209897928Y-74932917D01*
X209967533Y-74954218D01*
X210024968Y-74988862D01*
X210064070Y-75029781D01*
X210091373Y-75078122D01*
X210108125Y-75130531D01*
X210119665Y-75235403D01*
X210119665Y-75529227D01*
X210113729Y-75622010D01*
X210097592Y-75695006D01*
X210077953Y-75737480D01*
X210048321Y-75773223D01*
X210007375Y-75803084D01*
X209959994Y-75822925D01*
X209893023Y-75836665D01*
X209800654Y-75841919D01*
X209739837Y-75841919D01*
X209589322Y-75838821D01*
X209468087Y-75830378D01*
X209358204Y-75815940D01*
X209286553Y-75799970D01*
X209286553Y-75885974D01*
X209291658Y-75927116D01*
X209308627Y-75951004D01*
X209337331Y-75964463D01*
X209387212Y-75969963D01*
X209704117Y-75969963D01*
X209848179Y-75964756D01*
X209937124Y-75952103D01*
X210039890Y-75927923D01*
X210144853Y-76148291D01*
X210139411Y-76161642D01*
X210117559Y-76178699D01*
X210084144Y-76192079D01*
X210016809Y-76207001D01*
X209806974Y-76226967D01*
X209454348Y-76234386D01*
X209286553Y-76234386D01*
X209181205Y-76227724D01*
X209100246Y-76209791D01*
X209038752Y-76182919D01*
X208992729Y-76148291D01*
X208944341Y-76086110D01*
X208914929Y-76012407D01*
X208904618Y-75923801D01*
X208904618Y-75203987D01*
X209286553Y-75203987D01*
X209286553Y-75514572D01*
X209289474Y-75555848D01*
X209294979Y-75569160D01*
X209308433Y-75574575D01*
X209351583Y-75577495D01*
X209630661Y-75577495D01*
X209679159Y-75571192D01*
X209708944Y-75555084D01*
X209725919Y-75530263D01*
X209731411Y-75493598D01*
X209731411Y-75273230D01*
X209725083Y-75236407D01*
X209707704Y-75211510D01*
X209678054Y-75195467D01*
X209630661Y-75189241D01*
X209607580Y-75189241D01*
X209472208Y-75191347D01*
X209375763Y-75196659D01*
X209286553Y-75203987D01*
X208904618Y-75203987D01*
X208904618Y-74924817D01*
X209202564Y-74924817D01*
X209257152Y-74952111D01*
G37*
G36*
X208652010Y-75865000D02*
G01*
X208652010Y-74924817D01*
X208347745Y-74924817D01*
X208263847Y-74966857D01*
X208050806Y-74937457D01*
X207927730Y-74927862D01*
X207816791Y-74924817D01*
X207711919Y-74924817D01*
X207613752Y-74933173D01*
X207550353Y-74954218D01*
X207500575Y-74988415D01*
X207469569Y-75027674D01*
X207449949Y-75072553D01*
X207440169Y-75116884D01*
X207434856Y-75193454D01*
X207434856Y-75865000D01*
X207818898Y-75865000D01*
X207818898Y-75273230D01*
X207825226Y-75236407D01*
X207842604Y-75211510D01*
X207872254Y-75195467D01*
X207919648Y-75189241D01*
X208200833Y-75189241D01*
X208237119Y-75191649D01*
X208252307Y-75196659D01*
X208260251Y-75207834D01*
X208263847Y-75235403D01*
X208263847Y-75865000D01*
X208652010Y-75865000D01*
G37*
G36*
X206964809Y-74930487D02*
G01*
X207033819Y-74945572D01*
X207084795Y-74967865D01*
X207129662Y-75000415D01*
X207163115Y-75038027D01*
X207186553Y-75081255D01*
X207207601Y-75153950D01*
X207214855Y-75235403D01*
X207214855Y-75552308D01*
X207207701Y-75641215D01*
X207187652Y-75714973D01*
X207164637Y-75757846D01*
X207131235Y-75794362D01*
X207085894Y-75825157D01*
X207034459Y-75845758D01*
X206965027Y-75859742D01*
X206872854Y-75865000D01*
X206425798Y-75865000D01*
X206271489Y-75861063D01*
X206173006Y-75851352D01*
X206090872Y-75834703D01*
X206048168Y-75818838D01*
X206019792Y-75797585D01*
X206012447Y-75778995D01*
X206138385Y-75579602D01*
X206350327Y-75593249D01*
X206660912Y-75600576D01*
X206725942Y-75600576D01*
X206774440Y-75594273D01*
X206804225Y-75578165D01*
X206821200Y-75553344D01*
X206826692Y-75516679D01*
X206826692Y-75485171D01*
X206689214Y-75495704D01*
X206402717Y-75504039D01*
X206035528Y-75504039D01*
X206035528Y-75273230D01*
X206423783Y-75273230D01*
X206423783Y-75302630D01*
X206826692Y-75302630D01*
X206826692Y-75273230D01*
X206820364Y-75236407D01*
X206802985Y-75211510D01*
X206773335Y-75195467D01*
X206725942Y-75189241D01*
X206604217Y-75189241D01*
X206476264Y-75193454D01*
X206443823Y-75201943D01*
X206431110Y-75214520D01*
X206423783Y-75273230D01*
X206035528Y-75273230D01*
X206035528Y-75235403D01*
X206044020Y-75146806D01*
X206068043Y-75072828D01*
X206094752Y-75030664D01*
X206133808Y-74994380D01*
X206187661Y-74963652D01*
X206247263Y-74943735D01*
X206328937Y-74930014D01*
X206438437Y-74924817D01*
X206872854Y-74924817D01*
X206964809Y-74930487D01*
G37*
G36*
X204989558Y-74947898D02*
G01*
X205160650Y-74933244D01*
X205438721Y-74924817D01*
X205503750Y-74924817D01*
X205595616Y-74930852D01*
X205662602Y-74946729D01*
X205710471Y-74969972D01*
X205751544Y-75003650D01*
X205781181Y-75041915D01*
X205800689Y-75085468D01*
X205817068Y-75157353D01*
X205822670Y-75235403D01*
X205822670Y-75552308D01*
X205816887Y-75639628D01*
X205800689Y-75712867D01*
X205781057Y-75756116D01*
X205751409Y-75792902D01*
X205710471Y-75824058D01*
X205662933Y-75845026D01*
X205595958Y-75859482D01*
X205503750Y-75865000D01*
X205440736Y-75865000D01*
X205286656Y-75861187D01*
X205177411Y-75851352D01*
X204987452Y-75823051D01*
X204905661Y-75865000D01*
X204601395Y-75865000D01*
X204601395Y-75203987D01*
X204989558Y-75203987D01*
X204989558Y-75537653D01*
X204992977Y-75575254D01*
X205000091Y-75590135D01*
X205015132Y-75597143D01*
X205054679Y-75600576D01*
X205333757Y-75600576D01*
X205383350Y-75594513D01*
X205411427Y-75579602D01*
X205428274Y-75554613D01*
X205434508Y-75516679D01*
X205434508Y-75273230D01*
X205428180Y-75236407D01*
X205410801Y-75211510D01*
X205381151Y-75195467D01*
X205333757Y-75189241D01*
X205270834Y-75189241D01*
X205113389Y-75194553D01*
X204989558Y-75203987D01*
X204601395Y-75203987D01*
X204601395Y-74534548D01*
X204989558Y-74534548D01*
X204989558Y-74947898D01*
G37*
G36*
X203887809Y-75865000D02*
G01*
X203589863Y-75865000D01*
X203533169Y-75835599D01*
X203317105Y-75855566D01*
X203012748Y-75865000D01*
X202991774Y-75865000D01*
X202905716Y-75859123D01*
X202840772Y-75843407D01*
X202792380Y-75819937D01*
X202750424Y-75786239D01*
X202718968Y-75747296D01*
X202696942Y-75702425D01*
X202677239Y-75628742D01*
X202670655Y-75552308D01*
X202670655Y-75273230D01*
X203058910Y-75273230D01*
X203058910Y-75514572D01*
X203065235Y-75551346D01*
X203082608Y-75576217D01*
X203112257Y-75592247D01*
X203159660Y-75598469D01*
X203440845Y-75598469D01*
X203482020Y-75594961D01*
X203496441Y-75588028D01*
X203502751Y-75573040D01*
X203505874Y-75533440D01*
X203505874Y-75206093D01*
X203377922Y-75195560D01*
X203180635Y-75189241D01*
X203159660Y-75189241D01*
X203104590Y-75195017D01*
X203077778Y-75208200D01*
X203063233Y-75231738D01*
X203058910Y-75273230D01*
X202670655Y-75273230D01*
X202670655Y-75235403D01*
X202676684Y-75150008D01*
X202693736Y-75077042D01*
X202714021Y-75033795D01*
X202744385Y-74996965D01*
X202786152Y-74965758D01*
X202834296Y-74944701D01*
X202901054Y-74930286D01*
X202991774Y-74924817D01*
X203012748Y-74924817D01*
X203292925Y-74932236D01*
X203505874Y-74950005D01*
X203505874Y-74534548D01*
X203887809Y-74534548D01*
X203887809Y-75865000D01*
G37*
G36*
X202309878Y-76276335D02*
G01*
X202422383Y-76270567D01*
X202519713Y-76254262D01*
X202606294Y-76230187D01*
X202649773Y-76211214D01*
X202565875Y-75953110D01*
X202501202Y-75977055D01*
X202430595Y-75995059D01*
X202358874Y-76006236D01*
X202293025Y-76009805D01*
X202269945Y-76009805D01*
X202182039Y-76000067D01*
X202110878Y-75972670D01*
X202052719Y-75928317D01*
X202005521Y-75865000D01*
X202133565Y-75865000D01*
X202544901Y-74924817D01*
X202123124Y-74924817D01*
X201942598Y-75483065D01*
X201911091Y-75611109D01*
X201890116Y-75611109D01*
X201858701Y-75483065D01*
X201676068Y-74924817D01*
X201260611Y-74924817D01*
X201294133Y-75052862D01*
X201385450Y-75240715D01*
X201491420Y-75459984D01*
X201597391Y-75678245D01*
X201688708Y-75865000D01*
X201765226Y-75999593D01*
X201844317Y-76101282D01*
X201925837Y-76175585D01*
X201995163Y-76218906D01*
X202071916Y-76250248D01*
X202157390Y-76269617D01*
X202253183Y-76276335D01*
X202309878Y-76276335D01*
G37*
G36*
X200985838Y-75256468D02*
G01*
X201068731Y-75247760D01*
X201126129Y-75224857D01*
X201164986Y-75190065D01*
X201188997Y-75142018D01*
X201197780Y-75076034D01*
X201190780Y-75011245D01*
X201172369Y-74966564D01*
X201144290Y-74936449D01*
X201106533Y-74916240D01*
X201055057Y-74902699D01*
X200985838Y-74897615D01*
X200912261Y-74902848D01*
X200859804Y-74916515D01*
X200823264Y-74936449D01*
X200796355Y-74966381D01*
X200778576Y-75011033D01*
X200771789Y-75076034D01*
X200780616Y-75141875D01*
X200804778Y-75189895D01*
X200843961Y-75224741D01*
X200901957Y-75247721D01*
X200985838Y-75256468D01*
G37*
G36*
X200985838Y-75865000D02*
G01*
X201068731Y-75856291D01*
X201126129Y-75833388D01*
X201164986Y-75798596D01*
X201188997Y-75750549D01*
X201197780Y-75684565D01*
X201190780Y-75619776D01*
X201172369Y-75575095D01*
X201144290Y-75544980D01*
X201106533Y-75524771D01*
X201055057Y-75511230D01*
X200985838Y-75506146D01*
X200912261Y-75511379D01*
X200859804Y-75525046D01*
X200823264Y-75544980D01*
X200796355Y-75574912D01*
X200778576Y-75619564D01*
X200771789Y-75684565D01*
X200780616Y-75750406D01*
X200804778Y-75798426D01*
X200843961Y-75833272D01*
X200901957Y-75856252D01*
X200985838Y-75865000D01*
G37*
G36*
X215311139Y-77318971D02*
G01*
X215311139Y-78385000D01*
X214901910Y-78385000D01*
X214901910Y-77979984D01*
X214885149Y-77979984D01*
X214778709Y-77985492D01*
X214700501Y-77999951D01*
X214630336Y-78025136D01*
X214569343Y-78059760D01*
X214512159Y-78103765D01*
X214448626Y-78162525D01*
X214360515Y-78250727D01*
X214289381Y-78313565D01*
X214221913Y-78355446D01*
X214157000Y-78379779D01*
X214056007Y-78399820D01*
X213970154Y-78405974D01*
X213860061Y-78398647D01*
X213783400Y-78385000D01*
X213720477Y-78147870D01*
X213766639Y-78143657D01*
X213866290Y-78121675D01*
X213926361Y-78099231D01*
X213995341Y-78063881D01*
X214103510Y-77995737D01*
X214203070Y-77931715D01*
X214116085Y-77895736D01*
X214049811Y-77848544D01*
X214000654Y-77790116D01*
X213965288Y-77721221D01*
X213943931Y-77646498D01*
X213936632Y-77564435D01*
X213936632Y-77535126D01*
X214343662Y-77535126D01*
X214343662Y-77558207D01*
X214350483Y-77607515D01*
X214369949Y-77647325D01*
X214404415Y-77675532D01*
X214467493Y-77692479D01*
X214556703Y-77698799D01*
X214658461Y-77700906D01*
X214786505Y-77697792D01*
X214901910Y-77692479D01*
X214901910Y-77438589D01*
X214465387Y-77438589D01*
X214402819Y-77446034D01*
X214369949Y-77463777D01*
X214350650Y-77493101D01*
X214343662Y-77535126D01*
X213936632Y-77535126D01*
X213936632Y-77524593D01*
X213940823Y-77455871D01*
X213953393Y-77388214D01*
X213977209Y-77324574D01*
X214015308Y-77267588D01*
X214067878Y-77220597D01*
X214143261Y-77181493D01*
X214233140Y-77158017D01*
X214360515Y-77148978D01*
X215332113Y-77148978D01*
X215311139Y-77318971D01*
G37*
G36*
X213485454Y-78796335D02*
G01*
X213597959Y-78790567D01*
X213695289Y-78774262D01*
X213781870Y-78750187D01*
X213825348Y-78731214D01*
X213741451Y-78473110D01*
X213676778Y-78497055D01*
X213606171Y-78515059D01*
X213534450Y-78526236D01*
X213468601Y-78529805D01*
X213445520Y-78529805D01*
X213357614Y-78520067D01*
X213286453Y-78492670D01*
X213228294Y-78448317D01*
X213181097Y-78385000D01*
X213309141Y-78385000D01*
X213720477Y-77444817D01*
X213298700Y-77444817D01*
X213118174Y-78003065D01*
X213086666Y-78131109D01*
X213065692Y-78131109D01*
X213034276Y-78003065D01*
X212851644Y-77444817D01*
X212436187Y-77444817D01*
X212469709Y-77572862D01*
X212561025Y-77760715D01*
X212666996Y-77979984D01*
X212772967Y-78198245D01*
X212864283Y-78385000D01*
X212940802Y-78519593D01*
X213019892Y-78621282D01*
X213101413Y-78695585D01*
X213170739Y-78738906D01*
X213247492Y-78770248D01*
X213332966Y-78789617D01*
X213428759Y-78796335D01*
X213485454Y-78796335D01*
G37*
G36*
X211980796Y-78385000D02*
G01*
X212073003Y-78379482D01*
X212139978Y-78365026D01*
X212187517Y-78344058D01*
X212228430Y-78312850D01*
X212258126Y-78275717D01*
X212277826Y-78231768D01*
X212294116Y-78158142D01*
X212299808Y-78074414D01*
X212299808Y-77444817D01*
X211913660Y-77444817D01*
X211913660Y-78036679D01*
X211907335Y-78073453D01*
X211889962Y-78098323D01*
X211860312Y-78114354D01*
X211812909Y-78120576D01*
X211573674Y-78120576D01*
X211532399Y-78117681D01*
X211519177Y-78112241D01*
X211513672Y-78098929D01*
X211510751Y-78057653D01*
X211510751Y-77444817D01*
X211122496Y-77444817D01*
X211122496Y-78385000D01*
X211426762Y-78385000D01*
X211506537Y-78343051D01*
X211699611Y-78372452D01*
X211809070Y-78381852D01*
X211919979Y-78385000D01*
X211980796Y-78385000D01*
G37*
G36*
X210633583Y-78385000D02*
G01*
X210763977Y-78380526D01*
X210832977Y-78370345D01*
X210882369Y-78352635D01*
X210891687Y-78340944D01*
X210807789Y-78120576D01*
X210657763Y-78134223D01*
X210293597Y-78141550D01*
X210144670Y-78141550D01*
X210097365Y-78137781D01*
X210078541Y-78130010D01*
X210068783Y-78115369D01*
X210064894Y-78089069D01*
X210069600Y-78057946D01*
X210080648Y-78044006D01*
X210100603Y-78037566D01*
X210144670Y-78034572D01*
X210570660Y-78034572D01*
X210671523Y-78027164D01*
X210748909Y-78007161D01*
X210807789Y-77976870D01*
X210842526Y-77944782D01*
X210868466Y-77901671D01*
X210885423Y-77844764D01*
X210891687Y-77770149D01*
X210891687Y-77728200D01*
X210886255Y-77652688D01*
X210870712Y-77586509D01*
X210851931Y-77547479D01*
X210822469Y-77513393D01*
X210780495Y-77483652D01*
X210732456Y-77463825D01*
X210664479Y-77450077D01*
X210570660Y-77444817D01*
X209949489Y-77444817D01*
X209832720Y-77449324D01*
X209771161Y-77459563D01*
X209727325Y-77477009D01*
X209718680Y-77488964D01*
X209739654Y-77711347D01*
X209908548Y-77697792D01*
X210281049Y-77690373D01*
X210430068Y-77690373D01*
X210477372Y-77694143D01*
X210496196Y-77701913D01*
X210505960Y-77716285D01*
X210509752Y-77740748D01*
X210505960Y-77765211D01*
X210496196Y-77779583D01*
X210477372Y-77787353D01*
X210430068Y-77791123D01*
X209995651Y-77791123D01*
X209888665Y-77800426D01*
X209810563Y-77825170D01*
X209754309Y-77862472D01*
X209712109Y-77914698D01*
X209685980Y-77979877D01*
X209676639Y-78061866D01*
X209676639Y-78101708D01*
X209681526Y-78175456D01*
X209695599Y-78241293D01*
X209713031Y-78280427D01*
X209741110Y-78314829D01*
X209781603Y-78345157D01*
X209828485Y-78365299D01*
X209897446Y-78379493D01*
X209995651Y-78385000D01*
X210633583Y-78385000D01*
G37*
G36*
X209215751Y-77450487D02*
G01*
X209284761Y-77465572D01*
X209335737Y-77487865D01*
X209380604Y-77520415D01*
X209414057Y-77558027D01*
X209437495Y-77601255D01*
X209458543Y-77673950D01*
X209465797Y-77755403D01*
X209465797Y-78072308D01*
X209458643Y-78161215D01*
X209438594Y-78234973D01*
X209415579Y-78277846D01*
X209382177Y-78314362D01*
X209336837Y-78345157D01*
X209285401Y-78365758D01*
X209215969Y-78379742D01*
X209123796Y-78385000D01*
X208676740Y-78385000D01*
X208522432Y-78381063D01*
X208423948Y-78371352D01*
X208341814Y-78354703D01*
X208299110Y-78338838D01*
X208270734Y-78317585D01*
X208263389Y-78298995D01*
X208389327Y-78099602D01*
X208601269Y-78113249D01*
X208911854Y-78120576D01*
X208976884Y-78120576D01*
X209025382Y-78114273D01*
X209055167Y-78098165D01*
X209072142Y-78073344D01*
X209077634Y-78036679D01*
X209077634Y-78005171D01*
X208940156Y-78015704D01*
X208653659Y-78024039D01*
X208286470Y-78024039D01*
X208286470Y-77793230D01*
X208674725Y-77793230D01*
X208674725Y-77822630D01*
X209077634Y-77822630D01*
X209077634Y-77793230D01*
X209071306Y-77756407D01*
X209053927Y-77731510D01*
X209024277Y-77715467D01*
X208976884Y-77709241D01*
X208855159Y-77709241D01*
X208727206Y-77713454D01*
X208694765Y-77721943D01*
X208682052Y-77734520D01*
X208674725Y-77793230D01*
X208286470Y-77793230D01*
X208286470Y-77755403D01*
X208294962Y-77666806D01*
X208318985Y-77592828D01*
X208345694Y-77550664D01*
X208384750Y-77514380D01*
X208438603Y-77483652D01*
X208498206Y-77463735D01*
X208579879Y-77450014D01*
X208689379Y-77444817D01*
X209123796Y-77444817D01*
X209215751Y-77450487D01*
G37*
G36*
X207840696Y-77354600D02*
G01*
X207923590Y-77345892D01*
X207980987Y-77322989D01*
X208019845Y-77288197D01*
X208043855Y-77240149D01*
X208052638Y-77174166D01*
X208045639Y-77109377D01*
X208027227Y-77064695D01*
X207999149Y-77034581D01*
X207961392Y-77014372D01*
X207909915Y-77000830D01*
X207840696Y-76995746D01*
X207767120Y-77000980D01*
X207714663Y-77014647D01*
X207678122Y-77034581D01*
X207651214Y-77064513D01*
X207633434Y-77109164D01*
X207626648Y-77174166D01*
X207635475Y-77240006D01*
X207659637Y-77288027D01*
X207698819Y-77322872D01*
X207756815Y-77345853D01*
X207840696Y-77354600D01*
G37*
G36*
X208033770Y-78385000D02*
G01*
X208033770Y-77444817D01*
X207651836Y-77444817D01*
X207651836Y-78385000D01*
X208033770Y-78385000D01*
G37*
G36*
X205514283Y-78405974D02*
G01*
X205615281Y-78395545D01*
X205713677Y-78364025D01*
X205804710Y-78314534D01*
X205883579Y-78250727D01*
X205959233Y-78175164D01*
X206034704Y-78099602D01*
X206118000Y-78027107D01*
X206203689Y-77972657D01*
X206264889Y-77947395D01*
X206338544Y-77931201D01*
X206427172Y-77925396D01*
X206448146Y-77925396D01*
X206448146Y-78385000D01*
X206851055Y-78385000D01*
X206851055Y-77318971D01*
X206872029Y-77151085D01*
X206448146Y-77151085D01*
X206448146Y-77635785D01*
X206385131Y-77635785D01*
X206351680Y-77633114D01*
X206329627Y-77626351D01*
X206286579Y-77591729D01*
X206174289Y-77458556D01*
X206052564Y-77296898D01*
X205950806Y-77151085D01*
X205436614Y-77151085D01*
X205522710Y-77276931D01*
X205639122Y-77400762D01*
X205766159Y-77531920D01*
X205881564Y-77648424D01*
X205965461Y-77730215D01*
X205903373Y-77760025D01*
X205852163Y-77792131D01*
X205747199Y-77870899D01*
X205655975Y-77944355D01*
X205562552Y-78019826D01*
X205484044Y-78075310D01*
X205419475Y-78110613D01*
X205366364Y-78130102D01*
X205260393Y-78152083D01*
X205344290Y-78385000D01*
X205410419Y-78398647D01*
X205514283Y-78405974D01*
G37*
G36*
X204900990Y-77354600D02*
G01*
X204983883Y-77345892D01*
X205041280Y-77322989D01*
X205080138Y-77288197D01*
X205104149Y-77240149D01*
X205112931Y-77174166D01*
X205105932Y-77109377D01*
X205087520Y-77064695D01*
X205059442Y-77034581D01*
X205021685Y-77014372D01*
X204970209Y-77000830D01*
X204900990Y-76995746D01*
X204827413Y-77000980D01*
X204774956Y-77014647D01*
X204738415Y-77034581D01*
X204711507Y-77064513D01*
X204693728Y-77109164D01*
X204686941Y-77174166D01*
X204695768Y-77240006D01*
X204719930Y-77288027D01*
X204759112Y-77322872D01*
X204817108Y-77345853D01*
X204900990Y-77354600D01*
G37*
G36*
X205094064Y-78385000D02*
G01*
X205094064Y-77444817D01*
X204712129Y-77444817D01*
X204712129Y-78385000D01*
X205094064Y-78385000D01*
G37*
G36*
X204435890Y-78385000D02*
G01*
X204435890Y-77444817D01*
X204131625Y-77444817D01*
X204047727Y-77486857D01*
X203834686Y-77457457D01*
X203711610Y-77447862D01*
X203600671Y-77444817D01*
X203495799Y-77444817D01*
X203397632Y-77453173D01*
X203334233Y-77474218D01*
X203284455Y-77508415D01*
X203253449Y-77547674D01*
X203233829Y-77592553D01*
X203224049Y-77636884D01*
X203218736Y-77713454D01*
X203218736Y-78385000D01*
X203602778Y-78385000D01*
X203602778Y-77793230D01*
X203609106Y-77756407D01*
X203626484Y-77731510D01*
X203656134Y-77715467D01*
X203703528Y-77709241D01*
X203984713Y-77709241D01*
X204020999Y-77711649D01*
X204036187Y-77716659D01*
X204044131Y-77727834D01*
X204047727Y-77755403D01*
X204047727Y-78385000D01*
X204435890Y-78385000D01*
G37*
G36*
X202769915Y-77450334D02*
G01*
X202836891Y-77464790D01*
X202884429Y-77485758D01*
X202925443Y-77516887D01*
X202955446Y-77553711D01*
X202975654Y-77597042D01*
X202992706Y-77670008D01*
X202998735Y-77755403D01*
X202998735Y-78072308D01*
X202992915Y-78161493D01*
X202976753Y-78234973D01*
X202957019Y-78278083D01*
X202927037Y-78314528D01*
X202885437Y-78345157D01*
X202837350Y-78365573D01*
X202769981Y-78379640D01*
X202677708Y-78385000D01*
X202094273Y-78385000D01*
X202001978Y-78379618D01*
X201935041Y-78365533D01*
X201887643Y-78345157D01*
X201846688Y-78314591D01*
X201817043Y-78278153D01*
X201797426Y-78234973D01*
X201781196Y-78161488D01*
X201775353Y-78072308D01*
X201775353Y-77793230D01*
X202161501Y-77793230D01*
X202161501Y-78036679D01*
X202166917Y-78073508D01*
X202183625Y-78098319D01*
X202212780Y-78114332D01*
X202260053Y-78120576D01*
X202509822Y-78120576D01*
X202557145Y-78114330D01*
X202586327Y-78098313D01*
X202603046Y-78073501D01*
X202608465Y-78036679D01*
X202608465Y-77793230D01*
X202602232Y-77755295D01*
X202585384Y-77730307D01*
X202557298Y-77715328D01*
X202507715Y-77709241D01*
X202260053Y-77709241D01*
X202210728Y-77715368D01*
X202183574Y-77730307D01*
X202167498Y-77755198D01*
X202161501Y-77793230D01*
X201775353Y-77793230D01*
X201775353Y-77755403D01*
X201781125Y-77669960D01*
X201797426Y-77597042D01*
X201817018Y-77553742D01*
X201846663Y-77516927D01*
X201887643Y-77485758D01*
X201935125Y-77464794D01*
X202002064Y-77450336D01*
X202094273Y-77444817D01*
X202677708Y-77444817D01*
X202769915Y-77450334D01*
G37*
G36*
X201307414Y-78385000D02*
G01*
X201437808Y-78380526D01*
X201506808Y-78370345D01*
X201556200Y-78352635D01*
X201565518Y-78340944D01*
X201481620Y-78120576D01*
X201331594Y-78134223D01*
X200967428Y-78141550D01*
X200818501Y-78141550D01*
X200771196Y-78137781D01*
X200752372Y-78130010D01*
X200742614Y-78115369D01*
X200738725Y-78089069D01*
X200743432Y-78057946D01*
X200754479Y-78044006D01*
X200774434Y-78037566D01*
X200818501Y-78034572D01*
X201244491Y-78034572D01*
X201345354Y-78027164D01*
X201422740Y-78007161D01*
X201481620Y-77976870D01*
X201516358Y-77944782D01*
X201542297Y-77901671D01*
X201559254Y-77844764D01*
X201565518Y-77770149D01*
X201565518Y-77728200D01*
X201560087Y-77652688D01*
X201544543Y-77586509D01*
X201525762Y-77547479D01*
X201496300Y-77513393D01*
X201454326Y-77483652D01*
X201406287Y-77463825D01*
X201338310Y-77450077D01*
X201244491Y-77444817D01*
X200623320Y-77444817D01*
X200506551Y-77449324D01*
X200444993Y-77459563D01*
X200401156Y-77477009D01*
X200392511Y-77488964D01*
X200413485Y-77711347D01*
X200582379Y-77697792D01*
X200954880Y-77690373D01*
X201103899Y-77690373D01*
X201151204Y-77694143D01*
X201170027Y-77701913D01*
X201179792Y-77716285D01*
X201183583Y-77740748D01*
X201179792Y-77765211D01*
X201170027Y-77779583D01*
X201151204Y-77787353D01*
X201103899Y-77791123D01*
X200669482Y-77791123D01*
X200562496Y-77800426D01*
X200484395Y-77825170D01*
X200428140Y-77862472D01*
X200385940Y-77914698D01*
X200359811Y-77979877D01*
X200350471Y-78061866D01*
X200350471Y-78101708D01*
X200355357Y-78175456D01*
X200369430Y-78241293D01*
X200386862Y-78280427D01*
X200414941Y-78314829D01*
X200455434Y-78345157D01*
X200502317Y-78365299D01*
X200571277Y-78379493D01*
X200669482Y-78385000D01*
X201307414Y-78385000D01*
G37*
G36*
X199791307Y-77452236D02*
G01*
X199912388Y-77461852D01*
X199992807Y-77473210D01*
X200054055Y-77491994D01*
X200066172Y-77507832D01*
X200043091Y-77730215D01*
X199889951Y-77716659D01*
X199537417Y-77709241D01*
X199432453Y-77709241D01*
X199382523Y-77713514D01*
X199356262Y-77723421D01*
X199344343Y-77736535D01*
X199334845Y-77764434D01*
X199331703Y-77793230D01*
X199331703Y-77826752D01*
X199516442Y-77809991D01*
X199740932Y-77801564D01*
X199805962Y-77801564D01*
X199923568Y-77810536D01*
X200007945Y-77834089D01*
X200067271Y-77868792D01*
X200101846Y-77905134D01*
X200127532Y-77951580D01*
X200144120Y-78010459D01*
X200150161Y-78084947D01*
X200144163Y-78166650D01*
X200127888Y-78229979D01*
X200103124Y-78278714D01*
X200070477Y-78315757D01*
X200012775Y-78351240D01*
X199927804Y-78375607D01*
X199805962Y-78385000D01*
X199743039Y-78385000D01*
X199604334Y-78380799D01*
X199490156Y-78369246D01*
X199329596Y-78343051D01*
X199247806Y-78385000D01*
X198949768Y-78385000D01*
X198949768Y-78076521D01*
X199331703Y-78076521D01*
X199334598Y-78115923D01*
X199340129Y-78129002D01*
X199353430Y-78134446D01*
X199394718Y-78137337D01*
X199684237Y-78137337D01*
X199721192Y-78133979D01*
X199743039Y-78125797D01*
X199756380Y-78109250D01*
X199761906Y-78074414D01*
X199756432Y-78037142D01*
X199743039Y-78017811D01*
X199720886Y-78007272D01*
X199684237Y-78003065D01*
X199331703Y-78003065D01*
X199331703Y-78076521D01*
X198949768Y-78076521D01*
X198949768Y-77755403D01*
X198956927Y-77668497D01*
X198977062Y-77595942D01*
X198999926Y-77553575D01*
X199033005Y-77517040D01*
X199077813Y-77485758D01*
X199128633Y-77464604D01*
X199197641Y-77450230D01*
X199289754Y-77444817D01*
X199499590Y-77444817D01*
X199791307Y-77452236D01*
G37*
G36*
X197618309Y-78405974D02*
G01*
X197717630Y-78400368D01*
X197797736Y-78385000D01*
X197870538Y-78353147D01*
X197943549Y-78294782D01*
X198027538Y-78210885D01*
X198111435Y-78126896D01*
X198166024Y-78071300D01*
X198206965Y-78044006D01*
X198262561Y-78036679D01*
X198303837Y-78039600D01*
X198317149Y-78045105D01*
X198322564Y-78058559D01*
X198325484Y-78101708D01*
X198325484Y-78385000D01*
X198707418Y-78385000D01*
X198707418Y-77056654D01*
X198325484Y-77056654D01*
X198325484Y-77768042D01*
X198258347Y-77768042D01*
X198224576Y-77761049D01*
X198191211Y-77738641D01*
X198133509Y-77669398D01*
X198048512Y-77558207D01*
X197964523Y-77446924D01*
X197523879Y-77446924D01*
X197557493Y-77512045D01*
X197673905Y-77650531D01*
X197801949Y-77789016D01*
X197861952Y-77846130D01*
X197901600Y-77877127D01*
X197822047Y-77933830D01*
X197748460Y-77993631D01*
X197670016Y-78050354D01*
X197565827Y-78103815D01*
X197494430Y-78130881D01*
X197440989Y-78144756D01*
X197368540Y-78154190D01*
X197427342Y-78385000D01*
X197497684Y-78398647D01*
X197618309Y-78405974D01*
G37*
G36*
X197030020Y-77354600D02*
G01*
X197112913Y-77345892D01*
X197170310Y-77322989D01*
X197209168Y-77288197D01*
X197233179Y-77240149D01*
X197241961Y-77174166D01*
X197234962Y-77109377D01*
X197216550Y-77064695D01*
X197188472Y-77034581D01*
X197150715Y-77014372D01*
X197099239Y-77000830D01*
X197030020Y-76995746D01*
X196956443Y-77000980D01*
X196903986Y-77014647D01*
X196867445Y-77034581D01*
X196840537Y-77064513D01*
X196822758Y-77109164D01*
X196815971Y-77174166D01*
X196824798Y-77240006D01*
X196848960Y-77288027D01*
X196888142Y-77322872D01*
X196946138Y-77345853D01*
X197030020Y-77354600D01*
G37*
G36*
X197223094Y-78385000D02*
G01*
X197223094Y-77444817D01*
X196841159Y-77444817D01*
X196841159Y-78385000D01*
X197223094Y-78385000D01*
G37*
M02*
