%TF.GenerationSoftware,KiCad,Pcbnew,9.0.0*%
%TF.CreationDate,2025-04-21T23:38:42+01:00*%
%TF.ProjectId,CapyController,43617079-436f-46e7-9472-6f6c6c65722e,rev?*%
%TF.SameCoordinates,Original*%
%TF.FileFunction,Copper,L2,Bot*%
%TF.FilePolarity,Positive*%
%FSLAX46Y46*%
G04 Gerber Fmt 4.6, Leading zero omitted, Abs format (unit mm)*
G04 Created by KiCad (PCBNEW 9.0.0) date 2025-04-21 23:38:42*
%MOMM*%
%LPD*%
G01*
G04 APERTURE LIST*
G04 Aperture macros list*
%AMRoundRect*
0 Rectangle with rounded corners*
0 $1 Rounding radius*
0 $2 $3 $4 $5 $6 $7 $8 $9 X,Y pos of 4 corners*
0 Add a 4 corners polygon primitive as box body*
4,1,4,$2,$3,$4,$5,$6,$7,$8,$9,$2,$3,0*
0 Add four circle primitives for the rounded corners*
1,1,$1+$1,$2,$3*
1,1,$1+$1,$4,$5*
1,1,$1+$1,$6,$7*
1,1,$1+$1,$8,$9*
0 Add four rect primitives between the rounded corners*
20,1,$1+$1,$2,$3,$4,$5,0*
20,1,$1+$1,$4,$5,$6,$7,0*
20,1,$1+$1,$6,$7,$8,$9,0*
20,1,$1+$1,$8,$9,$2,$3,0*%
G04 Aperture macros list end*
%TA.AperFunction,ComponentPad*%
%ADD10RoundRect,0.250000X-0.350000X-0.625000X0.350000X-0.625000X0.350000X0.625000X-0.350000X0.625000X0*%
%TD*%
%TA.AperFunction,ComponentPad*%
%ADD11O,1.200000X1.750000*%
%TD*%
%TA.AperFunction,ComponentPad*%
%ADD12RoundRect,0.250000X0.650000X1.350000X-0.650000X1.350000X-0.650000X-1.350000X0.650000X-1.350000X0*%
%TD*%
%TA.AperFunction,ComponentPad*%
%ADD13O,1.800000X3.200000*%
%TD*%
%TA.AperFunction,ComponentPad*%
%ADD14RoundRect,0.250000X0.625000X-0.350000X0.625000X0.350000X-0.625000X0.350000X-0.625000X-0.350000X0*%
%TD*%
%TA.AperFunction,ComponentPad*%
%ADD15O,1.750000X1.200000*%
%TD*%
%TA.AperFunction,ComponentPad*%
%ADD16R,1.530000X1.530000*%
%TD*%
%TA.AperFunction,ComponentPad*%
%ADD17C,1.530000*%
%TD*%
%TA.AperFunction,ComponentPad*%
%ADD18R,1.700000X1.700000*%
%TD*%
%TA.AperFunction,ComponentPad*%
%ADD19O,1.700000X1.700000*%
%TD*%
%TA.AperFunction,ComponentPad*%
%ADD20RoundRect,0.250000X-0.625000X0.350000X-0.625000X-0.350000X0.625000X-0.350000X0.625000X0.350000X0*%
%TD*%
%TA.AperFunction,ComponentPad*%
%ADD21RoundRect,0.250000X0.350000X0.625000X-0.350000X0.625000X-0.350000X-0.625000X0.350000X-0.625000X0*%
%TD*%
%TA.AperFunction,ComponentPad*%
%ADD22RoundRect,0.250000X-0.650000X-1.350000X0.650000X-1.350000X0.650000X1.350000X-0.650000X1.350000X0*%
%TD*%
%TA.AperFunction,ViaPad*%
%ADD23C,0.600000*%
%TD*%
%TA.AperFunction,Conductor*%
%ADD24C,0.254000*%
%TD*%
%TA.AperFunction,Conductor*%
%ADD25C,0.508000*%
%TD*%
%TA.AperFunction,Conductor*%
%ADD26C,0.200000*%
%TD*%
G04 APERTURE END LIST*
D10*
%TO.P,J7,1,Pin_1*%
%TO.N,GND*%
X213500000Y-109750000D03*
D11*
%TO.P,J7,2,Pin_2*%
%TO.N,/SCL1*%
X215500000Y-109750000D03*
%TO.P,J7,3,Pin_3*%
%TO.N,/SDA1*%
X217500000Y-109750000D03*
%TO.P,J7,4,Pin_4*%
%TO.N,+3.3V*%
X219500000Y-109750000D03*
%TD*%
D12*
%TO.P,J16,1,Pin_1*%
%TO.N,GND*%
X179200000Y-74250000D03*
X179200000Y-69250000D03*
D13*
%TO.P,J16,2,Pin_2*%
%TO.N,/SERVO_PWM1*%
X176660000Y-74250000D03*
X176660000Y-69250000D03*
%TO.P,J16,3,Pin_3*%
%TO.N,+6V*%
X174120000Y-74250000D03*
X174120000Y-69250000D03*
%TO.P,J16,4,Pin_4*%
X171580000Y-74250000D03*
X171580000Y-69250000D03*
%TD*%
D10*
%TO.P,J10,1,Pin_1*%
%TO.N,GND*%
X213500000Y-81600000D03*
D11*
%TO.P,J10,2,Pin_2*%
%TO.N,/SCL4*%
X215500000Y-81600000D03*
%TO.P,J10,3,Pin_3*%
%TO.N,/SDA4*%
X217500000Y-81600000D03*
%TO.P,J10,4,Pin_4*%
%TO.N,+3.3V*%
X219500000Y-81600000D03*
%TD*%
D14*
%TO.P,J13,1,Pin_1*%
%TO.N,GND*%
X198450000Y-72650000D03*
D15*
%TO.P,J13,2,Pin_2*%
%TO.N,/SCL7*%
X198450000Y-70650000D03*
%TO.P,J13,3,Pin_3*%
%TO.N,/SDA7*%
X198450000Y-68650000D03*
%TO.P,J13,4,Pin_4*%
%TO.N,+3.3V*%
X198450000Y-66650000D03*
%TD*%
D12*
%TO.P,J17,1,Pin_1*%
%TO.N,GND*%
X189600000Y-74350000D03*
X189600000Y-69350000D03*
D13*
%TO.P,J17,2,Pin_2*%
%TO.N,+6V*%
X187060000Y-74350000D03*
X187060000Y-69350000D03*
%TD*%
D16*
%TO.P,U1,J1_1,3V3*%
%TO.N,+3.3V*%
X137765000Y-109405000D03*
D17*
%TO.P,U1,J1_2,3V3__1*%
X140305000Y-109405000D03*
%TO.P,U1,J1_3,RST*%
%TO.N,/RST_ESP*%
X142845000Y-109405000D03*
%TO.P,U1,J1_4,GPIO4*%
%TO.N,/ENA_L*%
X145385000Y-109405000D03*
%TO.P,U1,J1_5,GPIO5*%
%TO.N,/ENB_L*%
X147925000Y-109405000D03*
%TO.P,U1,J1_6,GPIO6*%
%TO.N,/IN3_L*%
X150465000Y-109405000D03*
%TO.P,U1,J1_7,GPIO7*%
%TO.N,/IN4_L*%
X153005000Y-109405000D03*
%TO.P,U1,J1_8,GPIO15*%
%TO.N,/IN1_L*%
X155545000Y-109405000D03*
%TO.P,U1,J1_9,GPIO16*%
%TO.N,/IN2_L*%
X158085000Y-109405000D03*
%TO.P,U1,J1_10,GPIO17*%
%TO.N,/STPR_PUL2*%
X160625000Y-109405000D03*
%TO.P,U1,J1_11,GPIO18*%
%TO.N,/STPR_DIR2*%
X163165000Y-109405000D03*
%TO.P,U1,J1_12,GPIO8*%
%TO.N,/STPR_EN2*%
X165705000Y-109405000D03*
%TO.P,U1,J1_13,GPIO3*%
%TO.N,/SERVO_PWM2*%
X168245000Y-109405000D03*
%TO.P,U1,J1_14,GPIO46*%
%TO.N,/IO46*%
X170785000Y-109405000D03*
%TO.P,U1,J1_15,GPIO9*%
%TO.N,/IO9*%
X173325000Y-109405000D03*
%TO.P,U1,J1_16,GPIO10*%
%TO.N,/LimSwitch_IN1*%
X175865000Y-109405000D03*
%TO.P,U1,J1_17,GPIO11*%
%TO.N,/LimSwitch_IN2*%
X178405000Y-109405000D03*
%TO.P,U1,J1_18,GPIO12*%
%TO.N,/SCL*%
X180945000Y-109405000D03*
%TO.P,U1,J1_19,GPIO13*%
%TO.N,/SDA*%
X183485000Y-109405000D03*
%TO.P,U1,J1_20,GPIO14*%
%TO.N,/RST*%
X186025000Y-109405000D03*
%TO.P,U1,J1_21,5V0*%
%TO.N,+5V*%
X188565000Y-109405000D03*
%TO.P,U1,J1_22,GND*%
%TO.N,GND*%
X191105000Y-109405000D03*
%TO.P,U1,J3_1,GND__1*%
X137765000Y-83995000D03*
%TO.P,U1,J3_2,U0TXD/GPIO43*%
%TO.N,/Rx*%
X140305000Y-83995000D03*
%TO.P,U1,J3_3,U0RXD/GPIO44*%
%TO.N,/Tx*%
X142845000Y-83995000D03*
%TO.P,U1,J3_4,GPIO1*%
%TO.N,/IN2_R*%
X145385000Y-83995000D03*
%TO.P,U1,J3_5,GPIO2*%
%TO.N,/IN1_R*%
X147925000Y-83995000D03*
%TO.P,U1,J3_6,MTMS/GPIO42*%
%TO.N,/IN4_R*%
X150465000Y-83995000D03*
%TO.P,U1,J3_7,MTDI/GPIO41*%
%TO.N,/IN3_R*%
X153005000Y-83995000D03*
%TO.P,U1,J3_8,MTDO/GPIO40*%
%TO.N,/ENB_R*%
X155545000Y-83995000D03*
%TO.P,U1,J3_9,MTCK/GPIO39*%
%TO.N,/ENA_R*%
X158085000Y-83995000D03*
%TO.P,U1,J3_10,GPIO38*%
%TO.N,/STPR_EN1*%
X160625000Y-83995000D03*
%TO.P,U1,J3_11,GPIO37*%
%TO.N,/STPR_DIR1*%
X163165000Y-83995000D03*
%TO.P,U1,J3_12,GPIO36*%
%TO.N,/STPR_PUL1*%
X165705000Y-83995000D03*
%TO.P,U1,J3_13,GPIO35*%
%TO.N,/SERVO_PWM1*%
X168245000Y-83995000D03*
%TO.P,U1,J3_14,GPIO0*%
%TO.N,/IO0*%
X170785000Y-83995000D03*
%TO.P,U1,J3_15,GPIO45*%
%TO.N,/IO45*%
X173325000Y-83995000D03*
%TO.P,U1,J3_16,GPIO48*%
%TO.N,/IO48*%
X175865000Y-83995000D03*
%TO.P,U1,J3_17,GPIO47*%
%TO.N,/IO47*%
X178405000Y-83995000D03*
%TO.P,U1,J3_18,GPIO21*%
%TO.N,/IO21*%
X180945000Y-83995000D03*
%TO.P,U1,J3_19,USB_D+/GPIO20*%
%TO.N,/IO20*%
X183485000Y-83995000D03*
%TO.P,U1,J3_20,USB_D-/GPIO19*%
%TO.N,/IO19*%
X186025000Y-83995000D03*
%TO.P,U1,J3_21,GND__2*%
%TO.N,GND*%
X188565000Y-83995000D03*
%TO.P,U1,J3_22,GND__3*%
X191105000Y-83995000D03*
%TD*%
D14*
%TO.P,J12,1,Pin_1*%
%TO.N,GND*%
X206000000Y-72550000D03*
D15*
%TO.P,J12,2,Pin_2*%
%TO.N,/SCL6*%
X206000000Y-70550000D03*
%TO.P,J12,3,Pin_3*%
%TO.N,/SDA6*%
X206000000Y-68550000D03*
%TO.P,J12,4,Pin_4*%
%TO.N,+3.3V*%
X206000000Y-66550000D03*
%TD*%
D10*
%TO.P,J8,1,Pin_1*%
%TO.N,GND*%
X213500000Y-101100000D03*
D11*
%TO.P,J8,2,Pin_2*%
%TO.N,/SCL2*%
X215500000Y-101100000D03*
%TO.P,J8,3,Pin_3*%
%TO.N,/SDA2*%
X217500000Y-101100000D03*
%TO.P,J8,4,Pin_4*%
%TO.N,+3.3V*%
X219500000Y-101100000D03*
%TD*%
D18*
%TO.P,J19,1,Pin_1*%
%TO.N,/RST_ESP*%
X132160000Y-114700000D03*
D19*
%TO.P,J19,2,Pin_2*%
%TO.N,/IO46*%
X134700000Y-114700000D03*
%TO.P,J19,3,Pin_3*%
%TO.N,/IO9*%
X132160000Y-117240000D03*
%TO.P,J19,4,Pin_4*%
%TO.N,GND*%
X134700000Y-117240000D03*
%TO.P,J19,5,Pin_5*%
%TO.N,+3.3V*%
X132160000Y-119780000D03*
%TO.P,J19,6,Pin_6*%
%TO.N,GND*%
X134700000Y-119780000D03*
%TO.P,J19,7,Pin_7*%
%TO.N,+5V*%
X132160000Y-122320000D03*
%TO.P,J19,8,Pin_8*%
%TO.N,GND*%
X134700000Y-122320000D03*
%TD*%
D20*
%TO.P,J4,1,Pin_1*%
%TO.N,+3.3V*%
X164350000Y-66350000D03*
D15*
%TO.P,J4,2,Pin_2*%
%TO.N,/STPR_EN1*%
X164350000Y-68350000D03*
%TO.P,J4,3,Pin_3*%
%TO.N,/STPR_DIR1*%
X164350000Y-70350000D03*
%TO.P,J4,4,Pin_4*%
%TO.N,/STPR_PUL1*%
X164350000Y-72350000D03*
%TO.P,J4,5,Pin_5*%
%TO.N,GND*%
X164350000Y-74350000D03*
%TD*%
D10*
%TO.P,J3,1,Pin_1*%
%TO.N,/IN2_R*%
X144400000Y-66900000D03*
D11*
%TO.P,J3,2,Pin_2*%
%TO.N,/IN1_R*%
X146400000Y-66900000D03*
%TO.P,J3,3,Pin_3*%
%TO.N,/IN4_R*%
X148400000Y-66900000D03*
%TO.P,J3,4,Pin_4*%
%TO.N,/IN3_R*%
X150400000Y-66900000D03*
%TO.P,J3,5,Pin_5*%
%TO.N,/ENB_R*%
X152400000Y-66900000D03*
%TO.P,J3,6,Pin_6*%
%TO.N,/ENA_R*%
X154400000Y-66900000D03*
%TO.P,J3,7,Pin_7*%
%TO.N,+3.3V*%
X156400000Y-66900000D03*
%TO.P,J3,8,Pin_8*%
%TO.N,GND*%
X158400000Y-66900000D03*
%TD*%
D21*
%TO.P,J2,1,Pin_1*%
%TO.N,/IN2_L*%
X153250000Y-122100000D03*
D11*
%TO.P,J2,2,Pin_2*%
%TO.N,/IN1_L*%
X151250000Y-122100000D03*
%TO.P,J2,3,Pin_3*%
%TO.N,/IN4_L*%
X149250000Y-122100000D03*
%TO.P,J2,4,Pin_4*%
%TO.N,/IN3_L*%
X147250000Y-122100000D03*
%TO.P,J2,5,Pin_5*%
%TO.N,/ENB_L*%
X145250000Y-122100000D03*
%TO.P,J2,6,Pin_6*%
%TO.N,/ENA_L*%
X143250000Y-122100000D03*
%TO.P,J2,7,Pin_7*%
%TO.N,+3.3V*%
X141250000Y-122100000D03*
%TO.P,J2,8,Pin_8*%
%TO.N,GND*%
X139250000Y-122100000D03*
%TD*%
D10*
%TO.P,J9,1,Pin_1*%
%TO.N,GND*%
X213500000Y-91025000D03*
D11*
%TO.P,J9,2,Pin_2*%
%TO.N,/SCL3*%
X215500000Y-91025000D03*
%TO.P,J9,3,Pin_3*%
%TO.N,/SDA3*%
X217500000Y-91025000D03*
%TO.P,J9,4,Pin_4*%
%TO.N,+3.3V*%
X219500000Y-91025000D03*
%TD*%
D22*
%TO.P,J14,1,Pin_1*%
%TO.N,Net-(J14-Pin_1)*%
X182210000Y-115950000D03*
X182210000Y-120950000D03*
D13*
%TO.P,J14,2,Pin_2*%
%TO.N,/LimSwitch_IN1*%
X184750000Y-115950000D03*
X184750000Y-120950000D03*
%TD*%
D14*
%TO.P,J11,1,Pin_1*%
%TO.N,GND*%
X213500000Y-72550000D03*
D15*
%TO.P,J11,2,Pin_2*%
%TO.N,/SCL5*%
X213500000Y-70550000D03*
%TO.P,J11,3,Pin_3*%
%TO.N,/SDA5*%
X213500000Y-68550000D03*
%TO.P,J11,4,Pin_4*%
%TO.N,+3.3V*%
X213500000Y-66550000D03*
%TD*%
D22*
%TO.P,J15,1,Pin_1*%
%TO.N,Net-(J15-Pin_1)*%
X190860000Y-115900000D03*
X190860000Y-120900000D03*
D13*
%TO.P,J15,2,Pin_2*%
%TO.N,/LimSwitch_IN2*%
X193400000Y-115900000D03*
X193400000Y-120900000D03*
%TD*%
D10*
%TO.P,J6,1,Pin_1*%
%TO.N,GND*%
X213500000Y-118425000D03*
D11*
%TO.P,J6,2,Pin_2*%
%TO.N,/SCL0*%
X215500000Y-118425000D03*
%TO.P,J6,3,Pin_3*%
%TO.N,/SDA0*%
X217500000Y-118425000D03*
%TO.P,J6,4,Pin_4*%
%TO.N,+3.3V*%
X219500000Y-118425000D03*
%TD*%
D18*
%TO.P,J20,1,Pin_1*%
%TO.N,/IO19*%
X136140000Y-69190000D03*
D19*
%TO.P,J20,2,Pin_2*%
%TO.N,/IO20*%
X133600000Y-69190000D03*
%TO.P,J20,3,Pin_3*%
%TO.N,/IO47*%
X136140000Y-71730000D03*
%TO.P,J20,4,Pin_4*%
%TO.N,/IO21*%
X133600000Y-71730000D03*
%TO.P,J20,5,Pin_5*%
%TO.N,/IO48*%
X136140000Y-74270000D03*
%TO.P,J20,6,Pin_6*%
%TO.N,/Rx*%
X133600000Y-74270000D03*
%TO.P,J20,7,Pin_7*%
%TO.N,/IO45*%
X136140000Y-76810000D03*
%TO.P,J20,8,Pin_8*%
%TO.N,/Tx*%
X133600000Y-76810000D03*
%TO.P,J20,9,Pin_9*%
%TO.N,/IO0*%
X136140000Y-79350000D03*
%TO.P,J20,10,Pin_10*%
%TO.N,GND*%
X133600000Y-79350000D03*
%TD*%
D14*
%TO.P,J5,1,Pin_1*%
%TO.N,+3.3V*%
X158600000Y-122000000D03*
D15*
%TO.P,J5,2,Pin_2*%
%TO.N,/STPR_EN2*%
X158600000Y-120000000D03*
%TO.P,J5,3,Pin_3*%
%TO.N,/STPR_DIR2*%
X158600000Y-118000000D03*
%TO.P,J5,4,Pin_4*%
%TO.N,/STPR_PUL2*%
X158600000Y-116000000D03*
%TO.P,J5,5,Pin_5*%
%TO.N,GND*%
X158600000Y-114000000D03*
%TD*%
D22*
%TO.P,J18,1,Pin_1*%
%TO.N,GND*%
X166000000Y-115800000D03*
X166000000Y-120800000D03*
D13*
%TO.P,J18,2,Pin_2*%
%TO.N,/SERVO_PWM2*%
X168540000Y-115800000D03*
X168540000Y-120800000D03*
%TO.P,J18,3,Pin_3*%
%TO.N,+6V*%
X171080000Y-115800000D03*
X171080000Y-120800000D03*
%TO.P,J18,4,Pin_4*%
X173620000Y-115800000D03*
X173620000Y-120800000D03*
%TD*%
D22*
%TO.P,J1,1,Pin_1*%
%TO.N,+5V*%
X202250000Y-116050000D03*
X202250000Y-121050000D03*
D13*
%TO.P,J1,2,Pin_2*%
%TO.N,GND*%
X204790000Y-116050000D03*
X204790000Y-121050000D03*
%TD*%
D23*
%TO.N,GND*%
X206342500Y-108857500D03*
X208275000Y-91900000D03*
X207625000Y-101425000D03*
%TO.N,+5V*%
X200500000Y-111350000D03*
%TO.N,/SERVO_PWM1*%
X176640000Y-79300000D03*
%TO.N,/SCL*%
X200000000Y-98000000D03*
%TO.N,/SDA*%
X199500000Y-99000000D03*
%TO.N,/RST*%
X201000000Y-105500000D03*
%TD*%
D24*
%TO.N,/RST*%
X189930000Y-105500000D02*
X186025000Y-109405000D01*
X201000000Y-105500000D02*
X189930000Y-105500000D01*
D25*
%TO.N,+5V*%
X200550000Y-111350000D02*
X202250000Y-113050000D01*
X133750000Y-124500000D02*
X201100000Y-124500000D01*
X202250000Y-113050000D02*
X202250000Y-116050000D01*
X132160000Y-122320000D02*
X132160000Y-122910000D01*
X200500000Y-111350000D02*
X200550000Y-111350000D01*
X132160000Y-122910000D02*
X133750000Y-124500000D01*
X188565000Y-109405000D02*
X190510000Y-111350000D01*
X202250000Y-123350000D02*
X202250000Y-121050000D01*
X201100000Y-124500000D02*
X202250000Y-123350000D01*
X190510000Y-111350000D02*
X200500000Y-111350000D01*
X202250000Y-121050000D02*
X202250000Y-116050000D01*
D24*
%TO.N,/LimSwitch_IN1*%
X175865000Y-109405000D02*
X179060000Y-112600000D01*
X179060000Y-112600000D02*
X183600000Y-112600000D01*
X184750000Y-113750000D02*
X184750000Y-115950000D01*
X183600000Y-112600000D02*
X184750000Y-113750000D01*
X184750000Y-115950000D02*
X184750000Y-120950000D01*
%TO.N,/SERVO_PWM1*%
X176640000Y-75800000D02*
X176640000Y-70800000D01*
X176640000Y-79300000D02*
X176640000Y-75800000D01*
%TO.N,/SCL*%
X200000000Y-98000000D02*
X192350000Y-98000000D01*
X192350000Y-98000000D02*
X180945000Y-109405000D01*
%TO.N,/SDA*%
X193890000Y-99000000D02*
X183485000Y-109405000D01*
X199500000Y-99000000D02*
X193890000Y-99000000D01*
D26*
%TO.N,/Tx*%
X132200000Y-78210000D02*
X132200000Y-80700000D01*
X132200000Y-80700000D02*
X133200000Y-81700000D01*
X133600000Y-76810000D02*
X132200000Y-78210000D01*
D24*
X140550000Y-81700000D02*
X142845000Y-83995000D01*
D26*
X133200000Y-81700000D02*
X140550000Y-81700000D01*
D24*
%TO.N,/IO47*%
X140445000Y-71705000D02*
X140420000Y-71730000D01*
X147390000Y-78650000D02*
X140445000Y-71705000D01*
X173060000Y-78650000D02*
X147390000Y-78650000D01*
X178405000Y-83995000D02*
X173060000Y-78650000D01*
X140420000Y-71730000D02*
X136140000Y-71730000D01*
D26*
%TO.N,/IO0*%
X140470000Y-79350000D02*
X140560000Y-79440000D01*
X136140000Y-79350000D02*
X140470000Y-79350000D01*
D24*
X142620000Y-81500000D02*
X168290000Y-81500000D01*
X168290000Y-81500000D02*
X170785000Y-83995000D01*
X140560000Y-79440000D02*
X142620000Y-81500000D01*
%TO.N,/IO45*%
X169830000Y-80500000D02*
X144160000Y-80500000D01*
X144160000Y-80500000D02*
X140505000Y-76845000D01*
D26*
X136140000Y-76810000D02*
X140470000Y-76810000D01*
X140470000Y-76810000D02*
X140505000Y-76845000D01*
D24*
X173325000Y-83995000D02*
X169830000Y-80500000D01*
%TO.N,/IO9*%
X173325000Y-109405000D02*
X171470000Y-107550000D01*
X129700000Y-107550000D02*
X129700000Y-114780000D01*
X129700000Y-114780000D02*
X132160000Y-117240000D01*
X171470000Y-107550000D02*
X129700000Y-107550000D01*
%TO.N,/IO48*%
X171320000Y-79450000D02*
X145650000Y-79450000D01*
X140470000Y-74270000D02*
X136140000Y-74270000D01*
X175865000Y-83995000D02*
X171320000Y-79450000D01*
X145650000Y-79450000D02*
X140470000Y-74270000D01*
%TO.N,/IO46*%
X136750000Y-112650000D02*
X134700000Y-114700000D01*
X167540000Y-112650000D02*
X136750000Y-112650000D01*
X170785000Y-109405000D02*
X167540000Y-112650000D01*
%TO.N,/LimSwitch_IN2*%
X187075000Y-112875000D02*
X186000000Y-111800000D01*
X193400000Y-120900000D02*
X193400000Y-115900000D01*
X191025000Y-112875000D02*
X187075000Y-112875000D01*
X180800000Y-111800000D02*
X186000000Y-111800000D01*
X191025000Y-112875000D02*
X193400000Y-115250000D01*
X178405000Y-109405000D02*
X180800000Y-111800000D01*
X193400000Y-115250000D02*
X193400000Y-115445000D01*
%TO.N,/Rx*%
X138465000Y-82155000D02*
X132905000Y-82155000D01*
X131250000Y-76620000D02*
X133600000Y-74270000D01*
X140305000Y-83995000D02*
X138465000Y-82155000D01*
X132905000Y-82155000D02*
X131250000Y-80500000D01*
X131250000Y-80500000D02*
X131250000Y-76620000D01*
%TD*%
%TA.AperFunction,Conductor*%
%TO.N,GND*%
G36*
X174666446Y-109871773D02*
G01*
X174705485Y-109916827D01*
X174782647Y-110068266D01*
X174899731Y-110229418D01*
X175040582Y-110370269D01*
X175201734Y-110487353D01*
X175375351Y-110575815D01*
X175379219Y-110577786D01*
X175568657Y-110639338D01*
X175568658Y-110639338D01*
X175568661Y-110639339D01*
X175765403Y-110670500D01*
X175765404Y-110670500D01*
X175964596Y-110670500D01*
X175964597Y-110670500D01*
X176049959Y-110656980D01*
X176142601Y-110642307D01*
X176211895Y-110651262D01*
X176249679Y-110677098D01*
X178572589Y-113000008D01*
X178622589Y-113050008D01*
X178659993Y-113087412D01*
X178762760Y-113156079D01*
X178762773Y-113156086D01*
X178876960Y-113203383D01*
X178876965Y-113203385D01*
X178876969Y-113203385D01*
X178876970Y-113203386D01*
X178998194Y-113227500D01*
X178998197Y-113227500D01*
X183288719Y-113227500D01*
X183355758Y-113247185D01*
X183376400Y-113263819D01*
X183999493Y-113886912D01*
X184032978Y-113948235D01*
X184027994Y-114017927D01*
X183986122Y-114073860D01*
X183984697Y-114074911D01*
X183837642Y-114181751D01*
X183729682Y-114289711D01*
X183668359Y-114323195D01*
X183598667Y-114318211D01*
X183542734Y-114276339D01*
X183536462Y-114267125D01*
X183483806Y-114181756D01*
X183452712Y-114131344D01*
X183328656Y-114007288D01*
X183207225Y-113932389D01*
X183179336Y-113915187D01*
X183179331Y-113915185D01*
X183177862Y-113914698D01*
X183012797Y-113860001D01*
X183012795Y-113860000D01*
X182910010Y-113849500D01*
X181509998Y-113849500D01*
X181509981Y-113849501D01*
X181407203Y-113860000D01*
X181407200Y-113860001D01*
X181240668Y-113915185D01*
X181240663Y-113915187D01*
X181091342Y-114007289D01*
X180967289Y-114131342D01*
X180875187Y-114280663D01*
X180875185Y-114280668D01*
X180869673Y-114297302D01*
X180820001Y-114447203D01*
X180820001Y-114447204D01*
X180820000Y-114447204D01*
X180809500Y-114549983D01*
X180809500Y-117350001D01*
X180809501Y-117350018D01*
X180820000Y-117452796D01*
X180820001Y-117452799D01*
X180875185Y-117619331D01*
X180875187Y-117619336D01*
X180905353Y-117668243D01*
X180967288Y-117768656D01*
X181091344Y-117892712D01*
X181240666Y-117984814D01*
X181407203Y-118039999D01*
X181509991Y-118050500D01*
X182910008Y-118050499D01*
X183012797Y-118039999D01*
X183179334Y-117984814D01*
X183328656Y-117892712D01*
X183452712Y-117768656D01*
X183536463Y-117632872D01*
X183588410Y-117586149D01*
X183657372Y-117574926D01*
X183721454Y-117602769D01*
X183729682Y-117610289D01*
X183837636Y-117718243D01*
X183837641Y-117718247D01*
X184015973Y-117847812D01*
X184015975Y-117847813D01*
X184015978Y-117847815D01*
X184054795Y-117867593D01*
X184105591Y-117915567D01*
X184122500Y-117978078D01*
X184122500Y-118921921D01*
X184102815Y-118988960D01*
X184054796Y-119032405D01*
X184015983Y-119052181D01*
X184015974Y-119052186D01*
X183837642Y-119181751D01*
X183729682Y-119289711D01*
X183668359Y-119323195D01*
X183598667Y-119318211D01*
X183542734Y-119276339D01*
X183536462Y-119267125D01*
X183505622Y-119217125D01*
X183452712Y-119131344D01*
X183328656Y-119007288D01*
X183207225Y-118932389D01*
X183179336Y-118915187D01*
X183179331Y-118915185D01*
X183163352Y-118909890D01*
X183012797Y-118860001D01*
X183012795Y-118860000D01*
X182910010Y-118849500D01*
X181509998Y-118849500D01*
X181509981Y-118849501D01*
X181407203Y-118860000D01*
X181407200Y-118860001D01*
X181240668Y-118915185D01*
X181240663Y-118915187D01*
X181091342Y-119007289D01*
X180967289Y-119131342D01*
X180875187Y-119280663D01*
X180875185Y-119280668D01*
X180869673Y-119297302D01*
X180820001Y-119447203D01*
X180820001Y-119447204D01*
X180820000Y-119447204D01*
X180809500Y-119549983D01*
X180809500Y-119549996D01*
X180809501Y-122350000D01*
X180809501Y-122350018D01*
X180820000Y-122452796D01*
X180820001Y-122452799D01*
X180875185Y-122619331D01*
X180875187Y-122619336D01*
X180905353Y-122668243D01*
X180967288Y-122768656D01*
X181091344Y-122892712D01*
X181240666Y-122984814D01*
X181407203Y-123039999D01*
X181509991Y-123050500D01*
X182910008Y-123050499D01*
X183012797Y-123039999D01*
X183179334Y-122984814D01*
X183328656Y-122892712D01*
X183452712Y-122768656D01*
X183536463Y-122632872D01*
X183588410Y-122586149D01*
X183657372Y-122574926D01*
X183721454Y-122602769D01*
X183729682Y-122610289D01*
X183837636Y-122718243D01*
X183837641Y-122718247D01*
X183947270Y-122797896D01*
X184015978Y-122847815D01*
X184118392Y-122899998D01*
X184212393Y-122947895D01*
X184212396Y-122947896D01*
X184267765Y-122965886D01*
X184422049Y-123016015D01*
X184639778Y-123050500D01*
X184639779Y-123050500D01*
X184860221Y-123050500D01*
X184860222Y-123050500D01*
X185077951Y-123016015D01*
X185287606Y-122947895D01*
X185484022Y-122847815D01*
X185662365Y-122718242D01*
X185818242Y-122562365D01*
X185947815Y-122384022D01*
X186047895Y-122187606D01*
X186116015Y-121977951D01*
X186150500Y-121760222D01*
X186150500Y-120139778D01*
X186116015Y-119922049D01*
X186072950Y-119789505D01*
X186047896Y-119712396D01*
X186047895Y-119712393D01*
X185979190Y-119577555D01*
X185947815Y-119515978D01*
X185909877Y-119463760D01*
X185818247Y-119337641D01*
X185818243Y-119337636D01*
X185662363Y-119181756D01*
X185662358Y-119181752D01*
X185484025Y-119052186D01*
X185484016Y-119052181D01*
X185445204Y-119032405D01*
X185394409Y-118984431D01*
X185377500Y-118921921D01*
X185377500Y-117978078D01*
X185397185Y-117911039D01*
X185445204Y-117867593D01*
X185484022Y-117847815D01*
X185662365Y-117718242D01*
X185818242Y-117562365D01*
X185947815Y-117384022D01*
X186047895Y-117187606D01*
X186116015Y-116977951D01*
X186150500Y-116760222D01*
X186150500Y-115139778D01*
X186116015Y-114922049D01*
X186067277Y-114772047D01*
X186047896Y-114712396D01*
X186047895Y-114712393D01*
X185971465Y-114562394D01*
X185947815Y-114515978D01*
X185897848Y-114447204D01*
X185818247Y-114337641D01*
X185818243Y-114337636D01*
X185662363Y-114181756D01*
X185662358Y-114181752D01*
X185484025Y-114052186D01*
X185484016Y-114052181D01*
X185445204Y-114032405D01*
X185394409Y-113984431D01*
X185377500Y-113921921D01*
X185377500Y-113688194D01*
X185364929Y-113625000D01*
X185361482Y-113607669D01*
X185353386Y-113566966D01*
X185322522Y-113492454D01*
X185306083Y-113452767D01*
X185306082Y-113452766D01*
X185306079Y-113452760D01*
X185237412Y-113349993D01*
X185201238Y-113313819D01*
X185150008Y-113262589D01*
X184526600Y-112639181D01*
X184493115Y-112577858D01*
X184498099Y-112508166D01*
X184539971Y-112452233D01*
X184605435Y-112427816D01*
X184614281Y-112427500D01*
X185688719Y-112427500D01*
X185755758Y-112447185D01*
X185776400Y-112463819D01*
X186587589Y-113275008D01*
X186636967Y-113324386D01*
X186674993Y-113362412D01*
X186777760Y-113431079D01*
X186777773Y-113431086D01*
X186819677Y-113448443D01*
X186819678Y-113448443D01*
X186891966Y-113478386D01*
X186962682Y-113492452D01*
X187013192Y-113502499D01*
X187013196Y-113502500D01*
X187013197Y-113502500D01*
X190713719Y-113502500D01*
X190743159Y-113511144D01*
X190773146Y-113517668D01*
X190778161Y-113521422D01*
X190780758Y-113522185D01*
X190801400Y-113538819D01*
X190850400Y-113587819D01*
X190883885Y-113649142D01*
X190878901Y-113718834D01*
X190837029Y-113774767D01*
X190771565Y-113799184D01*
X190762719Y-113799500D01*
X190159998Y-113799500D01*
X190159980Y-113799501D01*
X190057203Y-113810000D01*
X190057200Y-113810001D01*
X189890668Y-113865185D01*
X189890663Y-113865187D01*
X189741342Y-113957289D01*
X189617289Y-114081342D01*
X189525187Y-114230663D01*
X189525185Y-114230668D01*
X189506308Y-114287635D01*
X189470001Y-114397203D01*
X189470001Y-114397204D01*
X189470000Y-114397204D01*
X189459500Y-114499983D01*
X189459500Y-117300001D01*
X189459501Y-117300018D01*
X189470000Y-117402796D01*
X189470001Y-117402799D01*
X189525185Y-117569331D01*
X189525187Y-117569336D01*
X189545809Y-117602769D01*
X189617288Y-117718656D01*
X189741344Y-117842712D01*
X189890666Y-117934814D01*
X190057203Y-117989999D01*
X190159991Y-118000500D01*
X191560008Y-118000499D01*
X191662797Y-117989999D01*
X191829334Y-117934814D01*
X191978656Y-117842712D01*
X192102712Y-117718656D01*
X192186463Y-117582872D01*
X192238410Y-117536149D01*
X192307372Y-117524926D01*
X192371454Y-117552769D01*
X192379682Y-117560289D01*
X192487636Y-117668243D01*
X192487641Y-117668247D01*
X192665973Y-117797812D01*
X192665975Y-117797813D01*
X192665978Y-117797815D01*
X192704795Y-117817593D01*
X192755591Y-117865567D01*
X192772500Y-117928078D01*
X192772500Y-118871921D01*
X192752815Y-118938960D01*
X192704796Y-118982405D01*
X192665983Y-119002181D01*
X192665974Y-119002186D01*
X192487642Y-119131751D01*
X192379682Y-119239711D01*
X192318359Y-119273195D01*
X192248667Y-119268211D01*
X192192734Y-119226339D01*
X192186462Y-119217125D01*
X192159590Y-119173558D01*
X192102712Y-119081344D01*
X191978656Y-118957288D01*
X191840850Y-118872289D01*
X191829336Y-118865187D01*
X191829331Y-118865185D01*
X191813684Y-118860000D01*
X191662797Y-118810001D01*
X191662795Y-118810000D01*
X191560010Y-118799500D01*
X190159998Y-118799500D01*
X190159981Y-118799501D01*
X190057203Y-118810000D01*
X190057200Y-118810001D01*
X189890668Y-118865185D01*
X189890663Y-118865187D01*
X189741342Y-118957289D01*
X189617289Y-119081342D01*
X189525187Y-119230663D01*
X189525185Y-119230668D01*
X189507821Y-119283069D01*
X189470001Y-119397203D01*
X189470001Y-119397204D01*
X189470000Y-119397204D01*
X189459500Y-119499983D01*
X189459500Y-122300001D01*
X189459501Y-122300018D01*
X189470000Y-122402796D01*
X189470001Y-122402799D01*
X189525185Y-122569331D01*
X189525187Y-122569336D01*
X189545809Y-122602769D01*
X189617288Y-122718656D01*
X189741344Y-122842712D01*
X189890666Y-122934814D01*
X190057203Y-122989999D01*
X190159991Y-123000500D01*
X191560008Y-123000499D01*
X191662797Y-122989999D01*
X191829334Y-122934814D01*
X191978656Y-122842712D01*
X192102712Y-122718656D01*
X192186463Y-122582872D01*
X192238410Y-122536149D01*
X192307372Y-122524926D01*
X192371454Y-122552769D01*
X192379682Y-122560289D01*
X192487636Y-122668243D01*
X192487641Y-122668247D01*
X192557960Y-122719336D01*
X192665978Y-122797815D01*
X192794375Y-122863237D01*
X192862393Y-122897895D01*
X192862396Y-122897896D01*
X192967221Y-122931955D01*
X193072049Y-122966015D01*
X193289778Y-123000500D01*
X193289779Y-123000500D01*
X193510221Y-123000500D01*
X193510222Y-123000500D01*
X193727951Y-122966015D01*
X193937606Y-122897895D01*
X194134022Y-122797815D01*
X194312365Y-122668242D01*
X194468242Y-122512365D01*
X194597815Y-122334022D01*
X194697895Y-122137606D01*
X194766015Y-121927951D01*
X194800500Y-121710222D01*
X194800500Y-120089778D01*
X194766015Y-119872049D01*
X194714719Y-119714174D01*
X194697896Y-119662396D01*
X194697895Y-119662393D01*
X194646941Y-119562393D01*
X194597815Y-119465978D01*
X194547848Y-119397204D01*
X194468247Y-119287641D01*
X194468243Y-119287636D01*
X194312363Y-119131756D01*
X194312358Y-119131752D01*
X194134025Y-119002186D01*
X194134016Y-119002181D01*
X194095204Y-118982405D01*
X194044409Y-118934431D01*
X194027500Y-118871921D01*
X194027500Y-117928078D01*
X194047185Y-117861039D01*
X194095204Y-117817593D01*
X194134022Y-117797815D01*
X194312365Y-117668242D01*
X194468242Y-117512365D01*
X194597815Y-117334022D01*
X194697895Y-117137606D01*
X194766015Y-116927951D01*
X194800500Y-116710222D01*
X194800500Y-115089778D01*
X194766015Y-114872049D01*
X194715508Y-114716602D01*
X194697896Y-114662396D01*
X194697895Y-114662393D01*
X194662900Y-114593713D01*
X194597815Y-114465978D01*
X194547848Y-114397204D01*
X194468247Y-114287641D01*
X194468243Y-114287636D01*
X194312363Y-114131756D01*
X194312358Y-114131752D01*
X194134025Y-114002187D01*
X194134024Y-114002186D01*
X194134022Y-114002185D01*
X194032841Y-113950630D01*
X193937606Y-113902104D01*
X193937603Y-113902103D01*
X193727952Y-113833985D01*
X193576516Y-113810000D01*
X193510222Y-113799500D01*
X193289778Y-113799500D01*
X193260008Y-113804214D01*
X193072049Y-113833984D01*
X192992874Y-113859709D01*
X192923033Y-113861703D01*
X192866877Y-113829458D01*
X191425013Y-112387593D01*
X191425008Y-112387589D01*
X191415698Y-112381368D01*
X191415698Y-112381367D01*
X191341218Y-112331602D01*
X191296413Y-112277990D01*
X191287706Y-112208665D01*
X191317860Y-112145637D01*
X191377303Y-112108918D01*
X191410109Y-112104500D01*
X200186113Y-112104500D01*
X200253152Y-112124185D01*
X200273794Y-112140819D01*
X201459181Y-113326206D01*
X201492666Y-113387529D01*
X201495500Y-113413887D01*
X201495500Y-113854456D01*
X201475815Y-113921495D01*
X201423011Y-113967250D01*
X201410504Y-113972162D01*
X201280668Y-114015185D01*
X201280663Y-114015187D01*
X201131342Y-114107289D01*
X201007289Y-114231342D01*
X200915187Y-114380663D01*
X200915185Y-114380668D01*
X200901405Y-114422255D01*
X200860001Y-114547203D01*
X200860001Y-114547204D01*
X200860000Y-114547204D01*
X200849500Y-114649983D01*
X200849500Y-117450001D01*
X200849501Y-117450018D01*
X200860000Y-117552796D01*
X200860001Y-117552799D01*
X200908054Y-117697812D01*
X200915186Y-117719334D01*
X201007288Y-117868656D01*
X201131344Y-117992712D01*
X201280666Y-118084814D01*
X201410505Y-118127838D01*
X201467949Y-118167609D01*
X201494772Y-118232125D01*
X201495500Y-118245543D01*
X201495500Y-118854456D01*
X201475815Y-118921495D01*
X201423011Y-118967250D01*
X201410506Y-118972161D01*
X201381859Y-118981654D01*
X201280668Y-119015185D01*
X201280663Y-119015187D01*
X201131342Y-119107289D01*
X201007289Y-119231342D01*
X200915187Y-119380663D01*
X200915185Y-119380668D01*
X200896201Y-119437958D01*
X200860001Y-119547203D01*
X200860001Y-119547204D01*
X200860000Y-119547204D01*
X200849500Y-119649983D01*
X200849500Y-122450001D01*
X200849501Y-122450018D01*
X200860000Y-122552796D01*
X200860001Y-122552799D01*
X200898618Y-122669336D01*
X200915186Y-122719334D01*
X201007288Y-122868656D01*
X201131344Y-122992712D01*
X201220060Y-123047432D01*
X201250786Y-123066384D01*
X201297510Y-123118332D01*
X201308733Y-123187295D01*
X201280889Y-123251377D01*
X201273370Y-123259604D01*
X200823794Y-123709181D01*
X200762471Y-123742666D01*
X200736113Y-123745500D01*
X135392426Y-123745500D01*
X135325387Y-123725815D01*
X135279632Y-123673011D01*
X135269688Y-123603853D01*
X135298713Y-123540297D01*
X135336131Y-123511015D01*
X135407557Y-123474620D01*
X135579459Y-123349727D01*
X135579464Y-123349723D01*
X135729723Y-123199464D01*
X135729727Y-123199459D01*
X135854620Y-123027557D01*
X135951095Y-122838217D01*
X136016757Y-122636129D01*
X136016757Y-122636126D01*
X136027231Y-122570000D01*
X135133012Y-122570000D01*
X135165925Y-122512993D01*
X135200000Y-122385826D01*
X135200000Y-122254174D01*
X135165925Y-122127007D01*
X135133012Y-122070000D01*
X136027231Y-122070000D01*
X136016757Y-122003873D01*
X136016757Y-122003870D01*
X135951095Y-121801782D01*
X135945016Y-121789851D01*
X135918814Y-121738428D01*
X138150000Y-121738428D01*
X138150000Y-121850000D01*
X138969670Y-121850000D01*
X138949925Y-121869745D01*
X138900556Y-121955255D01*
X138875000Y-122050630D01*
X138875000Y-122149370D01*
X138900556Y-122244745D01*
X138949925Y-122330255D01*
X138969670Y-122350000D01*
X138150000Y-122350000D01*
X138150000Y-122461571D01*
X138177085Y-122632584D01*
X138230591Y-122797257D01*
X138309195Y-122951524D01*
X138410967Y-123091602D01*
X138533397Y-123214032D01*
X138673475Y-123315804D01*
X138827744Y-123394408D01*
X138992415Y-123447914D01*
X138992414Y-123447914D01*
X138999999Y-123449115D01*
X139000000Y-123449114D01*
X139000000Y-122380330D01*
X139019745Y-122400075D01*
X139105255Y-122449444D01*
X139200630Y-122475000D01*
X139299370Y-122475000D01*
X139394745Y-122449444D01*
X139480255Y-122400075D01*
X139500000Y-122380330D01*
X139500000Y-123449115D01*
X139507584Y-123447914D01*
X139672255Y-123394408D01*
X139826524Y-123315804D01*
X139966602Y-123214032D01*
X140089036Y-123091598D01*
X140149371Y-123008552D01*
X140204700Y-122965886D01*
X140274313Y-122959905D01*
X140336109Y-122992510D01*
X140350008Y-123008550D01*
X140350318Y-123008976D01*
X140410586Y-123091928D01*
X140533072Y-123214414D01*
X140673212Y-123316232D01*
X140827555Y-123394873D01*
X140992299Y-123448402D01*
X141163389Y-123475500D01*
X141163390Y-123475500D01*
X141336610Y-123475500D01*
X141336611Y-123475500D01*
X141507701Y-123448402D01*
X141672445Y-123394873D01*
X141826788Y-123316232D01*
X141966928Y-123214414D01*
X142089414Y-123091928D01*
X142149682Y-123008975D01*
X142205012Y-122966311D01*
X142274626Y-122960332D01*
X142336421Y-122992938D01*
X142350315Y-123008973D01*
X142410586Y-123091928D01*
X142533072Y-123214414D01*
X142673212Y-123316232D01*
X142827555Y-123394873D01*
X142992299Y-123448402D01*
X143163389Y-123475500D01*
X143163390Y-123475500D01*
X143336610Y-123475500D01*
X143336611Y-123475500D01*
X143507701Y-123448402D01*
X143672445Y-123394873D01*
X143826788Y-123316232D01*
X143966928Y-123214414D01*
X144089414Y-123091928D01*
X144149682Y-123008975D01*
X144205012Y-122966311D01*
X144274626Y-122960332D01*
X144336421Y-122992938D01*
X144350315Y-123008973D01*
X144410586Y-123091928D01*
X144533072Y-123214414D01*
X144673212Y-123316232D01*
X144827555Y-123394873D01*
X144992299Y-123448402D01*
X145163389Y-123475500D01*
X145163390Y-123475500D01*
X145336610Y-123475500D01*
X145336611Y-123475500D01*
X145507701Y-123448402D01*
X145672445Y-123394873D01*
X145826788Y-123316232D01*
X145966928Y-123214414D01*
X146089414Y-123091928D01*
X146149682Y-123008975D01*
X146205012Y-122966311D01*
X146274626Y-122960332D01*
X146336421Y-122992938D01*
X146350315Y-123008973D01*
X146410586Y-123091928D01*
X146533072Y-123214414D01*
X146673212Y-123316232D01*
X146827555Y-123394873D01*
X146992299Y-123448402D01*
X147163389Y-123475500D01*
X147163390Y-123475500D01*
X147336610Y-123475500D01*
X147336611Y-123475500D01*
X147507701Y-123448402D01*
X147672445Y-123394873D01*
X147826788Y-123316232D01*
X147966928Y-123214414D01*
X148089414Y-123091928D01*
X148149682Y-123008975D01*
X148205012Y-122966311D01*
X148274626Y-122960332D01*
X148336421Y-122992938D01*
X148350315Y-123008973D01*
X148410586Y-123091928D01*
X148533072Y-123214414D01*
X148673212Y-123316232D01*
X148827555Y-123394873D01*
X148992299Y-123448402D01*
X149163389Y-123475500D01*
X149163390Y-123475500D01*
X149336610Y-123475500D01*
X149336611Y-123475500D01*
X149507701Y-123448402D01*
X149672445Y-123394873D01*
X149826788Y-123316232D01*
X149966928Y-123214414D01*
X150089414Y-123091928D01*
X150149682Y-123008975D01*
X150205012Y-122966311D01*
X150274626Y-122960332D01*
X150336421Y-122992938D01*
X150350315Y-123008973D01*
X150410586Y-123091928D01*
X150533072Y-123214414D01*
X150673212Y-123316232D01*
X150827555Y-123394873D01*
X150992299Y-123448402D01*
X151163389Y-123475500D01*
X151163390Y-123475500D01*
X151336610Y-123475500D01*
X151336611Y-123475500D01*
X151507701Y-123448402D01*
X151672445Y-123394873D01*
X151826788Y-123316232D01*
X151966928Y-123214414D01*
X152074472Y-123106869D01*
X152135791Y-123073387D01*
X152205483Y-123078371D01*
X152261417Y-123120242D01*
X152267688Y-123129456D01*
X152307285Y-123193652D01*
X152307288Y-123193656D01*
X152431344Y-123317712D01*
X152580666Y-123409814D01*
X152747203Y-123464999D01*
X152849991Y-123475500D01*
X153650008Y-123475499D01*
X153650016Y-123475498D01*
X153650019Y-123475498D01*
X153706302Y-123469748D01*
X153752797Y-123464999D01*
X153919334Y-123409814D01*
X154068656Y-123317712D01*
X154192712Y-123193656D01*
X154284814Y-123044334D01*
X154339999Y-122877797D01*
X154350500Y-122775009D01*
X154350499Y-121424992D01*
X154342838Y-121350000D01*
X154339999Y-121322203D01*
X154339998Y-121322200D01*
X154329418Y-121290272D01*
X154284814Y-121155666D01*
X154192712Y-121006344D01*
X154068656Y-120882288D01*
X153951635Y-120810109D01*
X153919336Y-120790187D01*
X153919331Y-120790185D01*
X153917862Y-120789698D01*
X153752797Y-120735001D01*
X153752795Y-120735000D01*
X153650010Y-120724500D01*
X152849998Y-120724500D01*
X152849980Y-120724501D01*
X152747203Y-120735000D01*
X152747200Y-120735001D01*
X152580668Y-120790185D01*
X152580663Y-120790187D01*
X152431342Y-120882289D01*
X152307287Y-121006344D01*
X152267688Y-121070544D01*
X152215739Y-121117268D01*
X152146777Y-121128489D01*
X152082695Y-121100645D01*
X152074469Y-121093127D01*
X151966930Y-120985588D01*
X151966928Y-120985586D01*
X151826788Y-120883768D01*
X151672445Y-120805127D01*
X151507701Y-120751598D01*
X151507699Y-120751597D01*
X151507698Y-120751597D01*
X151376271Y-120730781D01*
X151336611Y-120724500D01*
X151163389Y-120724500D01*
X151123728Y-120730781D01*
X150992302Y-120751597D01*
X150827552Y-120805128D01*
X150673211Y-120883768D01*
X150602627Y-120935051D01*
X150533072Y-120985586D01*
X150533070Y-120985588D01*
X150533069Y-120985588D01*
X150410588Y-121108069D01*
X150410581Y-121108078D01*
X150350317Y-121191023D01*
X150294987Y-121233689D01*
X150225374Y-121239667D01*
X150163579Y-121207061D01*
X150149683Y-121191023D01*
X150099830Y-121122409D01*
X150089414Y-121108072D01*
X149966928Y-120985586D01*
X149826788Y-120883768D01*
X149672445Y-120805127D01*
X149507701Y-120751598D01*
X149507699Y-120751597D01*
X149507698Y-120751597D01*
X149376271Y-120730781D01*
X149336611Y-120724500D01*
X149163389Y-120724500D01*
X149123728Y-120730781D01*
X148992302Y-120751597D01*
X148827552Y-120805128D01*
X148673211Y-120883768D01*
X148602627Y-120935051D01*
X148533072Y-120985586D01*
X148533070Y-120985588D01*
X148533069Y-120985588D01*
X148410588Y-121108069D01*
X148410581Y-121108078D01*
X148350317Y-121191023D01*
X148294987Y-121233689D01*
X148225374Y-121239667D01*
X148163579Y-121207061D01*
X148149683Y-121191023D01*
X148099830Y-121122409D01*
X148089414Y-121108072D01*
X147966928Y-120985586D01*
X147826788Y-120883768D01*
X147672445Y-120805127D01*
X147507701Y-120751598D01*
X147507699Y-120751597D01*
X147507698Y-120751597D01*
X147376271Y-120730781D01*
X147336611Y-120724500D01*
X147163389Y-120724500D01*
X147123728Y-120730781D01*
X146992302Y-120751597D01*
X146827552Y-120805128D01*
X146673211Y-120883768D01*
X146602627Y-120935051D01*
X146533072Y-120985586D01*
X146533070Y-120985588D01*
X146533069Y-120985588D01*
X146410588Y-121108069D01*
X146410581Y-121108078D01*
X146350317Y-121191023D01*
X146294987Y-121233689D01*
X146225374Y-121239667D01*
X146163579Y-121207061D01*
X146149683Y-121191023D01*
X146099830Y-121122409D01*
X146089414Y-121108072D01*
X145966928Y-120985586D01*
X145826788Y-120883768D01*
X145672445Y-120805127D01*
X145507701Y-120751598D01*
X145507699Y-120751597D01*
X145507698Y-120751597D01*
X145376271Y-120730781D01*
X145336611Y-120724500D01*
X145163389Y-120724500D01*
X145123728Y-120730781D01*
X144992302Y-120751597D01*
X144827552Y-120805128D01*
X144673211Y-120883768D01*
X144602627Y-120935051D01*
X144533072Y-120985586D01*
X144533070Y-120985588D01*
X144533069Y-120985588D01*
X144410588Y-121108069D01*
X144410581Y-121108078D01*
X144350317Y-121191023D01*
X144294987Y-121233689D01*
X144225374Y-121239667D01*
X144163579Y-121207061D01*
X144149683Y-121191023D01*
X144099830Y-121122409D01*
X144089414Y-121108072D01*
X143966928Y-120985586D01*
X143826788Y-120883768D01*
X143672445Y-120805127D01*
X143507701Y-120751598D01*
X143507699Y-120751597D01*
X143507698Y-120751597D01*
X143376271Y-120730781D01*
X143336611Y-120724500D01*
X143163389Y-120724500D01*
X143123728Y-120730781D01*
X142992302Y-120751597D01*
X142827552Y-120805128D01*
X142673211Y-120883768D01*
X142602627Y-120935051D01*
X142533072Y-120985586D01*
X142533070Y-120985588D01*
X142533069Y-120985588D01*
X142410588Y-121108069D01*
X142410581Y-121108078D01*
X142350317Y-121191023D01*
X142294987Y-121233689D01*
X142225374Y-121239667D01*
X142163579Y-121207061D01*
X142149683Y-121191023D01*
X142099830Y-121122409D01*
X142089414Y-121108072D01*
X141966928Y-120985586D01*
X141826788Y-120883768D01*
X141672445Y-120805127D01*
X141507701Y-120751598D01*
X141507699Y-120751597D01*
X141507698Y-120751597D01*
X141376271Y-120730781D01*
X141336611Y-120724500D01*
X141163389Y-120724500D01*
X141123728Y-120730781D01*
X140992302Y-120751597D01*
X140827552Y-120805128D01*
X140673211Y-120883768D01*
X140602627Y-120935051D01*
X140533072Y-120985586D01*
X140533070Y-120985588D01*
X140533069Y-120985588D01*
X140410585Y-121108072D01*
X140350007Y-121191450D01*
X140294677Y-121234115D01*
X140225063Y-121240093D01*
X140163269Y-121207486D01*
X140149371Y-121191447D01*
X140089036Y-121108401D01*
X139966602Y-120985967D01*
X139826524Y-120884195D01*
X139672257Y-120805591D01*
X139507589Y-120752087D01*
X139507581Y-120752085D01*
X139500000Y-120750884D01*
X139500000Y-121819670D01*
X139480255Y-121799925D01*
X139394745Y-121750556D01*
X139299370Y-121725000D01*
X139200630Y-121725000D01*
X139105255Y-121750556D01*
X139019745Y-121799925D01*
X139000000Y-121819670D01*
X139000000Y-120750884D01*
X138999999Y-120750884D01*
X138992418Y-120752085D01*
X138992410Y-120752087D01*
X138827742Y-120805591D01*
X138673475Y-120884195D01*
X138533397Y-120985967D01*
X138410967Y-121108397D01*
X138309195Y-121248475D01*
X138230591Y-121402742D01*
X138177085Y-121567415D01*
X138150000Y-121738428D01*
X135918814Y-121738428D01*
X135854620Y-121612442D01*
X135729727Y-121440540D01*
X135729723Y-121440535D01*
X135579464Y-121290276D01*
X135579459Y-121290272D01*
X135407558Y-121165379D01*
X135397954Y-121160486D01*
X135347157Y-121112512D01*
X135330361Y-121044692D01*
X135352897Y-120978556D01*
X135397954Y-120939514D01*
X135407558Y-120934620D01*
X135579459Y-120809727D01*
X135579464Y-120809723D01*
X135729723Y-120659464D01*
X135729727Y-120659459D01*
X135854620Y-120487557D01*
X135951095Y-120298217D01*
X136016757Y-120096129D01*
X136016757Y-120096126D01*
X136027231Y-120030000D01*
X135133012Y-120030000D01*
X135165925Y-119972993D01*
X135200000Y-119845826D01*
X135200000Y-119714174D01*
X135165925Y-119587007D01*
X135133012Y-119530000D01*
X136027231Y-119530000D01*
X136016757Y-119463873D01*
X136016757Y-119463870D01*
X135951095Y-119261782D01*
X135854620Y-119072442D01*
X135729727Y-118900540D01*
X135729723Y-118900535D01*
X135579464Y-118750276D01*
X135579459Y-118750272D01*
X135407558Y-118625379D01*
X135397954Y-118620486D01*
X135347157Y-118572512D01*
X135330361Y-118504692D01*
X135352897Y-118438556D01*
X135397954Y-118399514D01*
X135407558Y-118394620D01*
X135579459Y-118269727D01*
X135579464Y-118269723D01*
X135729723Y-118119464D01*
X135729727Y-118119459D01*
X135854620Y-117947557D01*
X135951095Y-117758217D01*
X136016757Y-117556129D01*
X136016757Y-117556126D01*
X136027231Y-117490000D01*
X135133012Y-117490000D01*
X135165925Y-117432993D01*
X135200000Y-117305826D01*
X135200000Y-117174174D01*
X135165925Y-117047007D01*
X135133012Y-116990000D01*
X136027231Y-116990000D01*
X136016757Y-116923873D01*
X136016757Y-116923870D01*
X135951095Y-116721782D01*
X135854620Y-116532442D01*
X135729727Y-116360540D01*
X135729723Y-116360535D01*
X135579464Y-116210276D01*
X135579459Y-116210272D01*
X135407555Y-116085377D01*
X135398500Y-116080763D01*
X135395165Y-116077613D01*
X135390729Y-116076446D01*
X135369998Y-116053842D01*
X135347706Y-116032788D01*
X135346603Y-116028335D01*
X135343502Y-116024954D01*
X135338282Y-115994730D01*
X135330912Y-115964966D01*
X135332391Y-115960623D01*
X135331611Y-115956103D01*
X135343558Y-115927859D01*
X135353451Y-115898832D01*
X135357542Y-115894800D01*
X135358831Y-115891754D01*
X135368703Y-115883801D01*
X135384842Y-115867898D01*
X135391409Y-115863410D01*
X135407816Y-115855051D01*
X135579792Y-115730104D01*
X135730104Y-115579792D01*
X135730106Y-115579788D01*
X135730109Y-115579786D01*
X135855048Y-115407820D01*
X135855047Y-115407820D01*
X135855051Y-115407816D01*
X135951557Y-115218412D01*
X136017246Y-115016243D01*
X136050500Y-114806287D01*
X136050500Y-114593713D01*
X136017246Y-114383757D01*
X136012872Y-114370298D01*
X136010874Y-114300459D01*
X136043119Y-114244298D01*
X136973600Y-113313819D01*
X137034923Y-113280334D01*
X137061281Y-113277500D01*
X157256224Y-113277500D01*
X157323263Y-113297185D01*
X157369018Y-113349989D01*
X157378962Y-113419147D01*
X157366709Y-113457795D01*
X157305591Y-113577744D01*
X157252085Y-113742415D01*
X157250884Y-113749999D01*
X157250885Y-113750000D01*
X158319670Y-113750000D01*
X158299925Y-113769745D01*
X158250556Y-113855255D01*
X158225000Y-113950630D01*
X158225000Y-114049370D01*
X158250556Y-114144745D01*
X158299925Y-114230255D01*
X158319670Y-114250000D01*
X157250885Y-114250000D01*
X157252085Y-114257584D01*
X157305591Y-114422255D01*
X157384195Y-114576524D01*
X157485967Y-114716602D01*
X157608401Y-114839036D01*
X157691447Y-114899371D01*
X157734114Y-114954701D01*
X157740093Y-115024314D01*
X157707488Y-115086109D01*
X157691450Y-115100007D01*
X157608072Y-115160585D01*
X157485588Y-115283069D01*
X157485588Y-115283070D01*
X157485586Y-115283072D01*
X157482382Y-115287482D01*
X157383768Y-115423211D01*
X157305128Y-115577552D01*
X157251597Y-115742302D01*
X157224500Y-115913389D01*
X157224500Y-116086610D01*
X157244086Y-116210276D01*
X157251598Y-116257701D01*
X157305127Y-116422445D01*
X157383768Y-116576788D01*
X157485586Y-116716928D01*
X157608072Y-116839414D01*
X157625257Y-116851899D01*
X157691023Y-116899683D01*
X157733689Y-116955013D01*
X157739667Y-117024626D01*
X157707061Y-117086421D01*
X157691023Y-117100317D01*
X157608078Y-117160581D01*
X157608069Y-117160588D01*
X157485588Y-117283069D01*
X157485588Y-117283070D01*
X157485586Y-117283072D01*
X157450289Y-117331654D01*
X157383768Y-117423211D01*
X157305128Y-117577552D01*
X157251597Y-117742302D01*
X157224500Y-117913389D01*
X157224500Y-118086610D01*
X157249672Y-118245544D01*
X157251598Y-118257701D01*
X157305127Y-118422445D01*
X157383768Y-118576788D01*
X157485586Y-118716928D01*
X157608072Y-118839414D01*
X157608078Y-118839418D01*
X157691023Y-118899683D01*
X157733689Y-118955013D01*
X157739667Y-119024626D01*
X157707061Y-119086421D01*
X157691023Y-119100317D01*
X157608078Y-119160581D01*
X157608069Y-119160588D01*
X157485588Y-119283069D01*
X157485588Y-119283070D01*
X157485586Y-119283072D01*
X157460056Y-119318211D01*
X157383768Y-119423211D01*
X157305128Y-119577552D01*
X157251597Y-119742302D01*
X157224500Y-119913389D01*
X157224500Y-120086610D01*
X157248765Y-120239818D01*
X157251598Y-120257701D01*
X157305127Y-120422445D01*
X157383768Y-120576788D01*
X157485586Y-120716928D01*
X157485588Y-120716930D01*
X157593127Y-120824469D01*
X157626612Y-120885792D01*
X157621628Y-120955484D01*
X157579756Y-121011417D01*
X157570544Y-121017688D01*
X157506344Y-121057287D01*
X157382289Y-121181342D01*
X157290187Y-121330663D01*
X157290186Y-121330666D01*
X157235001Y-121497203D01*
X157235001Y-121497204D01*
X157235000Y-121497204D01*
X157224500Y-121599983D01*
X157224500Y-122400001D01*
X157224501Y-122400019D01*
X157235000Y-122502796D01*
X157235001Y-122502799D01*
X157290185Y-122669331D01*
X157290187Y-122669336D01*
X157320353Y-122718243D01*
X157382288Y-122818656D01*
X157506344Y-122942712D01*
X157655666Y-123034814D01*
X157822203Y-123089999D01*
X157924991Y-123100500D01*
X159275008Y-123100499D01*
X159377797Y-123089999D01*
X159544334Y-123034814D01*
X159693656Y-122942712D01*
X159817712Y-122818656D01*
X159909814Y-122669334D01*
X159964999Y-122502797D01*
X159975500Y-122400009D01*
X159975499Y-121599992D01*
X159972159Y-121567299D01*
X159964999Y-121497203D01*
X159964998Y-121497200D01*
X159962649Y-121490110D01*
X159909814Y-121330666D01*
X159817712Y-121181344D01*
X159693656Y-121057288D01*
X159624779Y-121014804D01*
X159620358Y-121011503D01*
X159602560Y-120987786D01*
X159582731Y-120965740D01*
X159581821Y-120960148D01*
X159578422Y-120955619D01*
X159576271Y-120926043D01*
X159571510Y-120896777D01*
X159573766Y-120891583D01*
X159573356Y-120885933D01*
X159587535Y-120859893D01*
X159599353Y-120832695D01*
X159606758Y-120824592D01*
X159606768Y-120824573D01*
X159606772Y-120824569D01*
X159606785Y-120824562D01*
X159606847Y-120824494D01*
X159714414Y-120716928D01*
X159816232Y-120576788D01*
X159894873Y-120422445D01*
X159948402Y-120257701D01*
X159975500Y-120086611D01*
X159975500Y-119913389D01*
X159948402Y-119742299D01*
X159894873Y-119577555D01*
X159880829Y-119549991D01*
X159831491Y-119453158D01*
X159816233Y-119423214D01*
X159816231Y-119423211D01*
X159799377Y-119400013D01*
X164600000Y-119400013D01*
X164600000Y-120550000D01*
X165509252Y-120550000D01*
X165487482Y-120587708D01*
X165450000Y-120727591D01*
X165450000Y-120872409D01*
X165487482Y-121012292D01*
X165509252Y-121050000D01*
X164600001Y-121050000D01*
X164600001Y-122199986D01*
X164610494Y-122302697D01*
X164665641Y-122469119D01*
X164665643Y-122469124D01*
X164757684Y-122618345D01*
X164881654Y-122742315D01*
X165030875Y-122834356D01*
X165030880Y-122834358D01*
X165197302Y-122889505D01*
X165197309Y-122889506D01*
X165300019Y-122899999D01*
X165749999Y-122899999D01*
X165750000Y-122899998D01*
X165750000Y-121290747D01*
X165787708Y-121312518D01*
X165927591Y-121350000D01*
X166072409Y-121350000D01*
X166212292Y-121312518D01*
X166250000Y-121290747D01*
X166250000Y-122899999D01*
X166699972Y-122899999D01*
X166699986Y-122899998D01*
X166802697Y-122889505D01*
X166969119Y-122834358D01*
X166969124Y-122834356D01*
X167118345Y-122742315D01*
X167242317Y-122618343D01*
X167326099Y-122482511D01*
X167378047Y-122435786D01*
X167447009Y-122424563D01*
X167511092Y-122452407D01*
X167519319Y-122459926D01*
X167627636Y-122568243D01*
X167627641Y-122568247D01*
X167721070Y-122636126D01*
X167805978Y-122697815D01*
X167934375Y-122763237D01*
X168002393Y-122797895D01*
X168002396Y-122797896D01*
X168070427Y-122820000D01*
X168212049Y-122866015D01*
X168429778Y-122900500D01*
X168429779Y-122900500D01*
X168650221Y-122900500D01*
X168650222Y-122900500D01*
X168867951Y-122866015D01*
X169077606Y-122797895D01*
X169274022Y-122697815D01*
X169452365Y-122568242D01*
X169608242Y-122412365D01*
X169628834Y-122384022D01*
X169709682Y-122272745D01*
X169765011Y-122230079D01*
X169834625Y-122224100D01*
X169896420Y-122256705D01*
X169910318Y-122272745D01*
X170011752Y-122412358D01*
X170011756Y-122412363D01*
X170167636Y-122568243D01*
X170167641Y-122568247D01*
X170261070Y-122636126D01*
X170345978Y-122697815D01*
X170474375Y-122763237D01*
X170542393Y-122797895D01*
X170542396Y-122797896D01*
X170610427Y-122820000D01*
X170752049Y-122866015D01*
X170969778Y-122900500D01*
X170969779Y-122900500D01*
X171190221Y-122900500D01*
X171190222Y-122900500D01*
X171407951Y-122866015D01*
X171617606Y-122797895D01*
X171814022Y-122697815D01*
X171992365Y-122568242D01*
X172148242Y-122412365D01*
X172168834Y-122384022D01*
X172249682Y-122272745D01*
X172305011Y-122230079D01*
X172374625Y-122224100D01*
X172436420Y-122256705D01*
X172450318Y-122272745D01*
X172551752Y-122412358D01*
X172551756Y-122412363D01*
X172707636Y-122568243D01*
X172707641Y-122568247D01*
X172801070Y-122636126D01*
X172885978Y-122697815D01*
X173014375Y-122763237D01*
X173082393Y-122797895D01*
X173082396Y-122797896D01*
X173150427Y-122820000D01*
X173292049Y-122866015D01*
X173509778Y-122900500D01*
X173509779Y-122900500D01*
X173730221Y-122900500D01*
X173730222Y-122900500D01*
X173947951Y-122866015D01*
X174157606Y-122797895D01*
X174354022Y-122697815D01*
X174532365Y-122568242D01*
X174688242Y-122412365D01*
X174817815Y-122234022D01*
X174917895Y-122037606D01*
X174986015Y-121827951D01*
X175020500Y-121610222D01*
X175020500Y-119989778D01*
X174986015Y-119772049D01*
X174917895Y-119562394D01*
X174917895Y-119562393D01*
X174868766Y-119465974D01*
X174817815Y-119365978D01*
X174786732Y-119323195D01*
X174688247Y-119187641D01*
X174688243Y-119187636D01*
X174532363Y-119031756D01*
X174532358Y-119031752D01*
X174354025Y-118902187D01*
X174354024Y-118902186D01*
X174354022Y-118902185D01*
X174260350Y-118854456D01*
X174157606Y-118802104D01*
X174157603Y-118802103D01*
X173947952Y-118733985D01*
X173799635Y-118710494D01*
X173730222Y-118699500D01*
X173509778Y-118699500D01*
X173440371Y-118710493D01*
X173292047Y-118733985D01*
X173082396Y-118802103D01*
X173082393Y-118802104D01*
X172885974Y-118902187D01*
X172707641Y-119031752D01*
X172707636Y-119031756D01*
X172551756Y-119187636D01*
X172551752Y-119187641D01*
X172450318Y-119327254D01*
X172394988Y-119369920D01*
X172325375Y-119375899D01*
X172263580Y-119343293D01*
X172249682Y-119327254D01*
X172148247Y-119187641D01*
X172148243Y-119187636D01*
X171992363Y-119031756D01*
X171992358Y-119031752D01*
X171814025Y-118902187D01*
X171814024Y-118902186D01*
X171814022Y-118902185D01*
X171720350Y-118854456D01*
X171617606Y-118802104D01*
X171617603Y-118802103D01*
X171407952Y-118733985D01*
X171259635Y-118710494D01*
X171190222Y-118699500D01*
X170969778Y-118699500D01*
X170900371Y-118710493D01*
X170752047Y-118733985D01*
X170542396Y-118802103D01*
X170542393Y-118802104D01*
X170345974Y-118902187D01*
X170167641Y-119031752D01*
X170167636Y-119031756D01*
X170011756Y-119187636D01*
X170011752Y-119187641D01*
X169910318Y-119327254D01*
X169854988Y-119369920D01*
X169785375Y-119375899D01*
X169723580Y-119343293D01*
X169709682Y-119327254D01*
X169608247Y-119187641D01*
X169608243Y-119187636D01*
X169452363Y-119031756D01*
X169452358Y-119031752D01*
X169274025Y-118902187D01*
X169274024Y-118902186D01*
X169274022Y-118902185D01*
X169180350Y-118854456D01*
X169077606Y-118802104D01*
X169077603Y-118802103D01*
X168867952Y-118733985D01*
X168719635Y-118710494D01*
X168650222Y-118699500D01*
X168429778Y-118699500D01*
X168360371Y-118710493D01*
X168212047Y-118733985D01*
X168002396Y-118802103D01*
X168002393Y-118802104D01*
X167805974Y-118902187D01*
X167627642Y-119031751D01*
X167519319Y-119140074D01*
X167457996Y-119173558D01*
X167388304Y-119168574D01*
X167332371Y-119126702D01*
X167326099Y-119117489D01*
X167242315Y-118981654D01*
X167118345Y-118857684D01*
X166969124Y-118765643D01*
X166969119Y-118765641D01*
X166802697Y-118710494D01*
X166802690Y-118710493D01*
X166699986Y-118700000D01*
X166250000Y-118700000D01*
X166250000Y-120309252D01*
X166212292Y-120287482D01*
X166072409Y-120250000D01*
X165927591Y-120250000D01*
X165787708Y-120287482D01*
X165750000Y-120309252D01*
X165750000Y-118700000D01*
X165300028Y-118700000D01*
X165300012Y-118700001D01*
X165197302Y-118710494D01*
X165030880Y-118765641D01*
X165030875Y-118765643D01*
X164881654Y-118857684D01*
X164757684Y-118981654D01*
X164665643Y-119130875D01*
X164665641Y-119130880D01*
X164610494Y-119297302D01*
X164610493Y-119297309D01*
X164600000Y-119400013D01*
X159799377Y-119400013D01*
X159714414Y-119283072D01*
X159591928Y-119160586D01*
X159508975Y-119100317D01*
X159466311Y-119044988D01*
X159460332Y-118975374D01*
X159492938Y-118913579D01*
X159508976Y-118899682D01*
X159591928Y-118839414D01*
X159714414Y-118716928D01*
X159816232Y-118576788D01*
X159894873Y-118422445D01*
X159948402Y-118257701D01*
X159975500Y-118086611D01*
X159975500Y-117913389D01*
X159948402Y-117742299D01*
X159894873Y-117577555D01*
X159816232Y-117423212D01*
X159714414Y-117283072D01*
X159591928Y-117160586D01*
X159508975Y-117100317D01*
X159466311Y-117044988D01*
X159460332Y-116975374D01*
X159492938Y-116913579D01*
X159508976Y-116899682D01*
X159591928Y-116839414D01*
X159714414Y-116716928D01*
X159816232Y-116576788D01*
X159894873Y-116422445D01*
X159948402Y-116257701D01*
X159975500Y-116086611D01*
X159975500Y-115913389D01*
X159948402Y-115742299D01*
X159894873Y-115577555D01*
X159816232Y-115423212D01*
X159714414Y-115283072D01*
X159591928Y-115160586D01*
X159508550Y-115100008D01*
X159465885Y-115044677D01*
X159459906Y-114975064D01*
X159492512Y-114913269D01*
X159508552Y-114899371D01*
X159591598Y-114839036D01*
X159714032Y-114716602D01*
X159815804Y-114576524D01*
X159894408Y-114422256D01*
X159901636Y-114400013D01*
X164600000Y-114400013D01*
X164600000Y-115550000D01*
X165509252Y-115550000D01*
X165487482Y-115587708D01*
X165450000Y-115727591D01*
X165450000Y-115872409D01*
X165487482Y-116012292D01*
X165509252Y-116050000D01*
X164600001Y-116050000D01*
X164600001Y-117199986D01*
X164610494Y-117302697D01*
X164665641Y-117469119D01*
X164665643Y-117469124D01*
X164757684Y-117618345D01*
X164881654Y-117742315D01*
X165030875Y-117834356D01*
X165030880Y-117834358D01*
X165197302Y-117889505D01*
X165197309Y-117889506D01*
X165300019Y-117899999D01*
X165749999Y-117899999D01*
X165750000Y-117899998D01*
X165750000Y-116290747D01*
X165787708Y-116312518D01*
X165927591Y-116350000D01*
X166072409Y-116350000D01*
X166212292Y-116312518D01*
X166250000Y-116290747D01*
X166250000Y-117899999D01*
X166699972Y-117899999D01*
X166699986Y-117899998D01*
X166802697Y-117889505D01*
X166969119Y-117834358D01*
X166969124Y-117834356D01*
X167118345Y-117742315D01*
X167242317Y-117618343D01*
X167326099Y-117482511D01*
X167378047Y-117435786D01*
X167447009Y-117424563D01*
X167511092Y-117452407D01*
X167519319Y-117459926D01*
X167627636Y-117568243D01*
X167627641Y-117568247D01*
X167726538Y-117640099D01*
X167805978Y-117697815D01*
X167924905Y-117758412D01*
X168002393Y-117797895D01*
X168002396Y-117797896D01*
X168107221Y-117831955D01*
X168212049Y-117866015D01*
X168429778Y-117900500D01*
X168429779Y-117900500D01*
X168650221Y-117900500D01*
X168650222Y-117900500D01*
X168867951Y-117866015D01*
X169077606Y-117797895D01*
X169274022Y-117697815D01*
X169452365Y-117568242D01*
X169608242Y-117412365D01*
X169643381Y-117364000D01*
X169709682Y-117272745D01*
X169765011Y-117230079D01*
X169834625Y-117224100D01*
X169896420Y-117256705D01*
X169910318Y-117272745D01*
X170011752Y-117412358D01*
X170011756Y-117412363D01*
X170167636Y-117568243D01*
X170167641Y-117568247D01*
X170266538Y-117640099D01*
X170345978Y-117697815D01*
X170464905Y-117758412D01*
X170542393Y-117797895D01*
X170542396Y-117797896D01*
X170647221Y-117831955D01*
X170752049Y-117866015D01*
X170969778Y-117900500D01*
X170969779Y-117900500D01*
X171190221Y-117900500D01*
X171190222Y-117900500D01*
X171407951Y-117866015D01*
X171617606Y-117797895D01*
X171814022Y-117697815D01*
X171992365Y-117568242D01*
X172148242Y-117412365D01*
X172183381Y-117364000D01*
X172249682Y-117272745D01*
X172305011Y-117230079D01*
X172374625Y-117224100D01*
X172436420Y-117256705D01*
X172450318Y-117272745D01*
X172551752Y-117412358D01*
X172551756Y-117412363D01*
X172707636Y-117568243D01*
X172707641Y-117568247D01*
X172806538Y-117640099D01*
X172885978Y-117697815D01*
X173004905Y-117758412D01*
X173082393Y-117797895D01*
X173082396Y-117797896D01*
X173187221Y-117831955D01*
X173292049Y-117866015D01*
X173509778Y-117900500D01*
X173509779Y-117900500D01*
X173730221Y-117900500D01*
X173730222Y-117900500D01*
X173947951Y-117866015D01*
X174157606Y-117797895D01*
X174354022Y-117697815D01*
X174532365Y-117568242D01*
X174688242Y-117412365D01*
X174817815Y-117234022D01*
X174917895Y-117037606D01*
X174986015Y-116827951D01*
X175020500Y-116610222D01*
X175020500Y-114989778D01*
X174986015Y-114772049D01*
X174917895Y-114562394D01*
X174917895Y-114562393D01*
X174859202Y-114447204D01*
X174817815Y-114365978D01*
X174786732Y-114323195D01*
X174688247Y-114187641D01*
X174688243Y-114187636D01*
X174532363Y-114031756D01*
X174532358Y-114031752D01*
X174354025Y-113902187D01*
X174354024Y-113902186D01*
X174354022Y-113902185D01*
X174281406Y-113865185D01*
X174157606Y-113802104D01*
X174157603Y-113802103D01*
X173947952Y-113733985D01*
X173799635Y-113710494D01*
X173730222Y-113699500D01*
X173509778Y-113699500D01*
X173440371Y-113710493D01*
X173292047Y-113733985D01*
X173082396Y-113802103D01*
X173082393Y-113802104D01*
X172885974Y-113902187D01*
X172707641Y-114031752D01*
X172707636Y-114031756D01*
X172551756Y-114187636D01*
X172551752Y-114187641D01*
X172450318Y-114327254D01*
X172394988Y-114369920D01*
X172325375Y-114375899D01*
X172263580Y-114343293D01*
X172249682Y-114327254D01*
X172148247Y-114187641D01*
X172148243Y-114187636D01*
X171992363Y-114031756D01*
X171992358Y-114031752D01*
X171814025Y-113902187D01*
X171814024Y-113902186D01*
X171814022Y-113902185D01*
X171741406Y-113865185D01*
X171617606Y-113802104D01*
X171617603Y-113802103D01*
X171407952Y-113733985D01*
X171259635Y-113710494D01*
X171190222Y-113699500D01*
X170969778Y-113699500D01*
X170900371Y-113710493D01*
X170752047Y-113733985D01*
X170542396Y-113802103D01*
X170542393Y-113802104D01*
X170345974Y-113902187D01*
X170167641Y-114031752D01*
X170167636Y-114031756D01*
X170011756Y-114187636D01*
X170011752Y-114187641D01*
X169910318Y-114327254D01*
X169854988Y-114369920D01*
X169785375Y-114375899D01*
X169723580Y-114343293D01*
X169709682Y-114327254D01*
X169608247Y-114187641D01*
X169608243Y-114187636D01*
X169452363Y-114031756D01*
X169452358Y-114031752D01*
X169274025Y-113902187D01*
X169274024Y-113902186D01*
X169274022Y-113902185D01*
X169201406Y-113865185D01*
X169077606Y-113802104D01*
X169077603Y-113802103D01*
X168867952Y-113733985D01*
X168719635Y-113710494D01*
X168650222Y-113699500D01*
X168429778Y-113699500D01*
X168360371Y-113710493D01*
X168212047Y-113733985D01*
X168002396Y-113802103D01*
X168002393Y-113802104D01*
X167805974Y-113902187D01*
X167627642Y-114031751D01*
X167519319Y-114140074D01*
X167457996Y-114173558D01*
X167388304Y-114168574D01*
X167332371Y-114126702D01*
X167326099Y-114117489D01*
X167242315Y-113981654D01*
X167118345Y-113857684D01*
X166969124Y-113765643D01*
X166969119Y-113765641D01*
X166802697Y-113710494D01*
X166802690Y-113710493D01*
X166699986Y-113700000D01*
X166250000Y-113700000D01*
X166250000Y-115309252D01*
X166212292Y-115287482D01*
X166072409Y-115250000D01*
X165927591Y-115250000D01*
X165787708Y-115287482D01*
X165750000Y-115309252D01*
X165750000Y-113700000D01*
X165300028Y-113700000D01*
X165300012Y-113700001D01*
X165197302Y-113710494D01*
X165030880Y-113765641D01*
X165030875Y-113765643D01*
X164881654Y-113857684D01*
X164757684Y-113981654D01*
X164665643Y-114130875D01*
X164665641Y-114130880D01*
X164610494Y-114297302D01*
X164610493Y-114297309D01*
X164600000Y-114400013D01*
X159901636Y-114400013D01*
X159915110Y-114358545D01*
X159915110Y-114358544D01*
X159947914Y-114257584D01*
X159949115Y-114250000D01*
X158880330Y-114250000D01*
X158900075Y-114230255D01*
X158949444Y-114144745D01*
X158975000Y-114049370D01*
X158975000Y-113950630D01*
X158949444Y-113855255D01*
X158900075Y-113769745D01*
X158880330Y-113750000D01*
X159949115Y-113750000D01*
X159949115Y-113749999D01*
X159947914Y-113742415D01*
X159894408Y-113577744D01*
X159833291Y-113457795D01*
X159820395Y-113389126D01*
X159846671Y-113324386D01*
X159903777Y-113284128D01*
X159943776Y-113277500D01*
X167601804Y-113277500D01*
X167601805Y-113277499D01*
X167723035Y-113253386D01*
X167803784Y-113219937D01*
X167837233Y-113206083D01*
X167940008Y-113137411D01*
X168027411Y-113050008D01*
X170400321Y-110677096D01*
X170461642Y-110643613D01*
X170507394Y-110642306D01*
X170685403Y-110670500D01*
X170685404Y-110670500D01*
X170884596Y-110670500D01*
X170884597Y-110670500D01*
X171081339Y-110639339D01*
X171081342Y-110639338D01*
X171081343Y-110639338D01*
X171270780Y-110577786D01*
X171270780Y-110577785D01*
X171270783Y-110577785D01*
X171448266Y-110487353D01*
X171609418Y-110370269D01*
X171750269Y-110229418D01*
X171867353Y-110068266D01*
X171944515Y-109916827D01*
X171992490Y-109866031D01*
X172060311Y-109849236D01*
X172126446Y-109871773D01*
X172165485Y-109916827D01*
X172242647Y-110068266D01*
X172359731Y-110229418D01*
X172500582Y-110370269D01*
X172661734Y-110487353D01*
X172835351Y-110575815D01*
X172839219Y-110577786D01*
X173028657Y-110639338D01*
X173028658Y-110639338D01*
X173028661Y-110639339D01*
X173225403Y-110670500D01*
X173225404Y-110670500D01*
X173424596Y-110670500D01*
X173424597Y-110670500D01*
X173621339Y-110639339D01*
X173621342Y-110639338D01*
X173621343Y-110639338D01*
X173810780Y-110577786D01*
X173810780Y-110577785D01*
X173810783Y-110577785D01*
X173988266Y-110487353D01*
X174149418Y-110370269D01*
X174290269Y-110229418D01*
X174407353Y-110068266D01*
X174484515Y-109916827D01*
X174532490Y-109866031D01*
X174600311Y-109849236D01*
X174666446Y-109871773D01*
G37*
%TD.AperFunction*%
%TA.AperFunction,Conductor*%
G36*
X134950000Y-121886988D02*
G01*
X134892993Y-121854075D01*
X134765826Y-121820000D01*
X134634174Y-121820000D01*
X134507007Y-121854075D01*
X134450000Y-121886988D01*
X134450000Y-120213012D01*
X134507007Y-120245925D01*
X134634174Y-120280000D01*
X134765826Y-120280000D01*
X134892993Y-120245925D01*
X134950000Y-120213012D01*
X134950000Y-121886988D01*
G37*
%TD.AperFunction*%
%TA.AperFunction,Conductor*%
G36*
X134950000Y-119346988D02*
G01*
X134892993Y-119314075D01*
X134765826Y-119280000D01*
X134634174Y-119280000D01*
X134507007Y-119314075D01*
X134450000Y-119346988D01*
X134450000Y-117673012D01*
X134507007Y-117705925D01*
X134634174Y-117740000D01*
X134765826Y-117740000D01*
X134892993Y-117705925D01*
X134950000Y-117673012D01*
X134950000Y-119346988D01*
G37*
%TD.AperFunction*%
%TA.AperFunction,Conductor*%
G36*
X133850000Y-80677230D02*
G01*
X133916126Y-80666757D01*
X133916129Y-80666757D01*
X134118217Y-80601095D01*
X134307557Y-80504620D01*
X134479459Y-80379727D01*
X134479464Y-80379723D01*
X134629723Y-80229464D01*
X134629727Y-80229459D01*
X134754620Y-80057558D01*
X134759232Y-80048507D01*
X134807205Y-79997709D01*
X134875025Y-79980912D01*
X134941161Y-80003447D01*
X134980204Y-80048504D01*
X134984949Y-80057817D01*
X135109890Y-80229786D01*
X135260213Y-80380109D01*
X135432179Y-80505048D01*
X135432181Y-80505049D01*
X135432184Y-80505051D01*
X135621588Y-80601557D01*
X135823757Y-80667246D01*
X136033713Y-80700500D01*
X136033714Y-80700500D01*
X136246286Y-80700500D01*
X136246287Y-80700500D01*
X136456243Y-80667246D01*
X136658412Y-80601557D01*
X136847816Y-80505051D01*
X136921848Y-80451264D01*
X137019786Y-80380109D01*
X137019788Y-80380106D01*
X137019792Y-80380104D01*
X137170104Y-80229792D01*
X137170106Y-80229788D01*
X137170109Y-80229786D01*
X137228661Y-80149193D01*
X137295051Y-80057816D01*
X137299796Y-80048504D01*
X137315235Y-80018205D01*
X137363209Y-79967409D01*
X137425719Y-79950500D01*
X140131719Y-79950500D01*
X140198758Y-79970185D01*
X140219400Y-79986819D01*
X142132589Y-81900008D01*
X142182025Y-81949444D01*
X142219993Y-81987412D01*
X142322760Y-82056079D01*
X142322764Y-82056081D01*
X142322767Y-82056083D01*
X142353262Y-82068714D01*
X142353264Y-82068716D01*
X142353265Y-82068716D01*
X142387935Y-82083076D01*
X142436965Y-82103386D01*
X142558192Y-82127499D01*
X142558196Y-82127500D01*
X142558197Y-82127500D01*
X142681803Y-82127500D01*
X167978719Y-82127500D01*
X168045758Y-82147185D01*
X168066400Y-82163819D01*
X168420400Y-82517819D01*
X168453885Y-82579142D01*
X168448901Y-82648834D01*
X168407029Y-82704767D01*
X168341565Y-82729184D01*
X168332719Y-82729500D01*
X168145403Y-82729500D01*
X168079822Y-82739887D01*
X167948659Y-82760661D01*
X167948656Y-82760661D01*
X167759219Y-82822213D01*
X167581733Y-82912647D01*
X167510356Y-82964506D01*
X167420582Y-83029731D01*
X167420580Y-83029733D01*
X167420579Y-83029733D01*
X167279733Y-83170579D01*
X167279733Y-83170580D01*
X167279731Y-83170582D01*
X167229447Y-83239790D01*
X167162647Y-83331733D01*
X167085485Y-83483172D01*
X167037510Y-83533968D01*
X166969689Y-83550763D01*
X166903554Y-83528225D01*
X166864515Y-83483172D01*
X166787486Y-83331996D01*
X166787353Y-83331734D01*
X166670269Y-83170582D01*
X166529418Y-83029731D01*
X166368266Y-82912647D01*
X166255106Y-82854989D01*
X166190780Y-82822213D01*
X166001342Y-82760661D01*
X165853782Y-82737290D01*
X165804597Y-82729500D01*
X165605403Y-82729500D01*
X165539822Y-82739887D01*
X165408659Y-82760661D01*
X165408656Y-82760661D01*
X165219219Y-82822213D01*
X165041733Y-82912647D01*
X164970356Y-82964506D01*
X164880582Y-83029731D01*
X164880580Y-83029733D01*
X164880579Y-83029733D01*
X164739733Y-83170579D01*
X164739733Y-83170580D01*
X164739731Y-83170582D01*
X164689447Y-83239790D01*
X164622647Y-83331733D01*
X164545485Y-83483172D01*
X164497510Y-83533968D01*
X164429689Y-83550763D01*
X164363554Y-83528225D01*
X164324515Y-83483172D01*
X164247486Y-83331996D01*
X164247353Y-83331734D01*
X164130269Y-83170582D01*
X163989418Y-83029731D01*
X163828266Y-82912647D01*
X163715106Y-82854989D01*
X163650780Y-82822213D01*
X163461342Y-82760661D01*
X163313782Y-82737290D01*
X163264597Y-82729500D01*
X163065403Y-82729500D01*
X162999822Y-82739887D01*
X162868659Y-82760661D01*
X162868656Y-82760661D01*
X162679219Y-82822213D01*
X162501733Y-82912647D01*
X162430356Y-82964506D01*
X162340582Y-83029731D01*
X162340580Y-83029733D01*
X162340579Y-83029733D01*
X162199733Y-83170579D01*
X162199733Y-83170580D01*
X162199731Y-83170582D01*
X162149447Y-83239790D01*
X162082647Y-83331733D01*
X162005485Y-83483172D01*
X161957510Y-83533968D01*
X161889689Y-83550763D01*
X161823554Y-83528225D01*
X161784515Y-83483172D01*
X161707486Y-83331996D01*
X161707353Y-83331734D01*
X161590269Y-83170582D01*
X161449418Y-83029731D01*
X161288266Y-82912647D01*
X161175106Y-82854989D01*
X161110780Y-82822213D01*
X160921342Y-82760661D01*
X160773782Y-82737290D01*
X160724597Y-82729500D01*
X160525403Y-82729500D01*
X160459822Y-82739887D01*
X160328659Y-82760661D01*
X160328656Y-82760661D01*
X160139219Y-82822213D01*
X159961733Y-82912647D01*
X159890356Y-82964506D01*
X159800582Y-83029731D01*
X159800580Y-83029733D01*
X159800579Y-83029733D01*
X159659733Y-83170579D01*
X159659733Y-83170580D01*
X159659731Y-83170582D01*
X159609447Y-83239790D01*
X159542647Y-83331733D01*
X159465485Y-83483172D01*
X159417510Y-83533968D01*
X159349689Y-83550763D01*
X159283554Y-83528225D01*
X159244515Y-83483172D01*
X159167486Y-83331996D01*
X159167353Y-83331734D01*
X159050269Y-83170582D01*
X158909418Y-83029731D01*
X158748266Y-82912647D01*
X158635106Y-82854989D01*
X158570780Y-82822213D01*
X158381342Y-82760661D01*
X158233782Y-82737290D01*
X158184597Y-82729500D01*
X157985403Y-82729500D01*
X157919822Y-82739887D01*
X157788659Y-82760661D01*
X157788656Y-82760661D01*
X157599219Y-82822213D01*
X157421733Y-82912647D01*
X157350356Y-82964506D01*
X157260582Y-83029731D01*
X157260580Y-83029733D01*
X157260579Y-83029733D01*
X157119733Y-83170579D01*
X157119733Y-83170580D01*
X157119731Y-83170582D01*
X157069447Y-83239790D01*
X157002647Y-83331733D01*
X156925485Y-83483172D01*
X156877510Y-83533968D01*
X156809689Y-83550763D01*
X156743554Y-83528225D01*
X156704515Y-83483172D01*
X156627486Y-83331996D01*
X156627353Y-83331734D01*
X156510269Y-83170582D01*
X156369418Y-83029731D01*
X156208266Y-82912647D01*
X156095106Y-82854989D01*
X156030780Y-82822213D01*
X155841342Y-82760661D01*
X155693782Y-82737290D01*
X155644597Y-82729500D01*
X155445403Y-82729500D01*
X155379822Y-82739887D01*
X155248659Y-82760661D01*
X155248656Y-82760661D01*
X155059219Y-82822213D01*
X154881733Y-82912647D01*
X154810356Y-82964506D01*
X154720582Y-83029731D01*
X154720580Y-83029733D01*
X154720579Y-83029733D01*
X154579733Y-83170579D01*
X154579733Y-83170580D01*
X154579731Y-83170582D01*
X154529447Y-83239790D01*
X154462647Y-83331733D01*
X154385485Y-83483172D01*
X154337510Y-83533968D01*
X154269689Y-83550763D01*
X154203554Y-83528225D01*
X154164515Y-83483172D01*
X154087486Y-83331996D01*
X154087353Y-83331734D01*
X153970269Y-83170582D01*
X153829418Y-83029731D01*
X153668266Y-82912647D01*
X153555106Y-82854989D01*
X153490780Y-82822213D01*
X153301342Y-82760661D01*
X153153782Y-82737290D01*
X153104597Y-82729500D01*
X152905403Y-82729500D01*
X152839822Y-82739887D01*
X152708659Y-82760661D01*
X152708656Y-82760661D01*
X152519219Y-82822213D01*
X152341733Y-82912647D01*
X152270356Y-82964506D01*
X152180582Y-83029731D01*
X152180580Y-83029733D01*
X152180579Y-83029733D01*
X152039733Y-83170579D01*
X152039733Y-83170580D01*
X152039731Y-83170582D01*
X151989447Y-83239790D01*
X151922647Y-83331733D01*
X151845485Y-83483172D01*
X151797510Y-83533968D01*
X151729689Y-83550763D01*
X151663554Y-83528225D01*
X151624515Y-83483172D01*
X151547486Y-83331996D01*
X151547353Y-83331734D01*
X151430269Y-83170582D01*
X151289418Y-83029731D01*
X151128266Y-82912647D01*
X151015106Y-82854989D01*
X150950780Y-82822213D01*
X150761342Y-82760661D01*
X150613782Y-82737290D01*
X150564597Y-82729500D01*
X150365403Y-82729500D01*
X150299822Y-82739887D01*
X150168659Y-82760661D01*
X150168656Y-82760661D01*
X149979219Y-82822213D01*
X149801733Y-82912647D01*
X149730356Y-82964506D01*
X149640582Y-83029731D01*
X149640580Y-83029733D01*
X149640579Y-83029733D01*
X149499733Y-83170579D01*
X149499733Y-83170580D01*
X149499731Y-83170582D01*
X149449447Y-83239790D01*
X149382647Y-83331733D01*
X149305485Y-83483172D01*
X149257510Y-83533968D01*
X149189689Y-83550763D01*
X149123554Y-83528225D01*
X149084515Y-83483172D01*
X149007486Y-83331996D01*
X149007353Y-83331734D01*
X148890269Y-83170582D01*
X148749418Y-83029731D01*
X148588266Y-82912647D01*
X148475106Y-82854989D01*
X148410780Y-82822213D01*
X148221342Y-82760661D01*
X148073782Y-82737290D01*
X148024597Y-82729500D01*
X147825403Y-82729500D01*
X147759822Y-82739887D01*
X147628659Y-82760661D01*
X147628656Y-82760661D01*
X147439219Y-82822213D01*
X147261733Y-82912647D01*
X147190356Y-82964506D01*
X147100582Y-83029731D01*
X147100580Y-83029733D01*
X147100579Y-83029733D01*
X146959733Y-83170579D01*
X146959733Y-83170580D01*
X146959731Y-83170582D01*
X146909447Y-83239790D01*
X146842647Y-83331733D01*
X146765485Y-83483172D01*
X146717510Y-83533968D01*
X146649689Y-83550763D01*
X146583554Y-83528225D01*
X146544515Y-83483172D01*
X146467486Y-83331996D01*
X146467353Y-83331734D01*
X146350269Y-83170582D01*
X146209418Y-83029731D01*
X146048266Y-82912647D01*
X145935106Y-82854989D01*
X145870780Y-82822213D01*
X145681342Y-82760661D01*
X145533782Y-82737290D01*
X145484597Y-82729500D01*
X145285403Y-82729500D01*
X145219822Y-82739887D01*
X145088659Y-82760661D01*
X145088656Y-82760661D01*
X144899219Y-82822213D01*
X144721733Y-82912647D01*
X144650356Y-82964506D01*
X144560582Y-83029731D01*
X144560580Y-83029733D01*
X144560579Y-83029733D01*
X144419733Y-83170579D01*
X144419733Y-83170580D01*
X144419731Y-83170582D01*
X144369447Y-83239790D01*
X144302647Y-83331733D01*
X144225485Y-83483172D01*
X144177510Y-83533968D01*
X144109689Y-83550763D01*
X144043554Y-83528225D01*
X144004515Y-83483172D01*
X143927486Y-83331996D01*
X143927353Y-83331734D01*
X143810269Y-83170582D01*
X143669418Y-83029731D01*
X143508266Y-82912647D01*
X143395106Y-82854989D01*
X143330780Y-82822213D01*
X143141342Y-82760661D01*
X142993782Y-82737290D01*
X142944597Y-82729500D01*
X142745403Y-82729500D01*
X142662117Y-82742691D01*
X142567399Y-82757693D01*
X142498105Y-82748738D01*
X142460320Y-82722901D01*
X140950013Y-81212593D01*
X140950006Y-81212587D01*
X140847233Y-81143917D01*
X140733035Y-81096614D01*
X140733027Y-81096612D01*
X140611807Y-81072500D01*
X140611803Y-81072500D01*
X140488197Y-81072500D01*
X140488192Y-81072500D01*
X140364434Y-81097117D01*
X140340243Y-81099500D01*
X133500098Y-81099500D01*
X133433059Y-81079815D01*
X133412417Y-81063181D01*
X133235435Y-80886199D01*
X133201950Y-80824876D01*
X133206934Y-80755184D01*
X133248806Y-80699251D01*
X133314270Y-80674834D01*
X133342515Y-80676045D01*
X133350000Y-80677230D01*
X133350000Y-79783012D01*
X133407007Y-79815925D01*
X133534174Y-79850000D01*
X133665826Y-79850000D01*
X133792993Y-79815925D01*
X133850000Y-79783012D01*
X133850000Y-80677230D01*
G37*
%TD.AperFunction*%
%TA.AperFunction,Conductor*%
G36*
X144000588Y-64100005D02*
G01*
X222377473Y-64898751D01*
X222444307Y-64919118D01*
X222489521Y-64972386D01*
X222500208Y-65022534D01*
X222599896Y-123539509D01*
X222580325Y-123606582D01*
X222552389Y-123637315D01*
X219313727Y-126175726D01*
X219248820Y-126201588D01*
X219237098Y-126202131D01*
X129690703Y-126103619D01*
X129623685Y-126083861D01*
X129583452Y-126041619D01*
X129541939Y-125969717D01*
X129541936Y-125969711D01*
X129394265Y-125777262D01*
X129394260Y-125777256D01*
X129222743Y-125605739D01*
X129222736Y-125605733D01*
X129030293Y-125458067D01*
X129030292Y-125458066D01*
X129030289Y-125458064D01*
X128820212Y-125336776D01*
X128820205Y-125336773D01*
X128596104Y-125243947D01*
X128361785Y-125181161D01*
X128121289Y-125149500D01*
X128121288Y-125149500D01*
X128086144Y-125149500D01*
X128019105Y-125129815D01*
X127973350Y-125077011D01*
X127962144Y-125025398D01*
X127963256Y-123673011D01*
X127973816Y-110820858D01*
X127976555Y-107488194D01*
X129072500Y-107488194D01*
X129072500Y-114841807D01*
X129089366Y-114926598D01*
X129096614Y-114963035D01*
X129128441Y-115039870D01*
X129143917Y-115077233D01*
X129181863Y-115134023D01*
X129198145Y-115158391D01*
X129212587Y-115180006D01*
X129212591Y-115180011D01*
X130816877Y-116784296D01*
X130850362Y-116845619D01*
X130847128Y-116910293D01*
X130842754Y-116923755D01*
X130834170Y-116977951D01*
X130809500Y-117133713D01*
X130809500Y-117346287D01*
X130815477Y-117384022D01*
X130842208Y-117552799D01*
X130842754Y-117556243D01*
X130895746Y-117719336D01*
X130908444Y-117758414D01*
X131004951Y-117947820D01*
X131129890Y-118119786D01*
X131280213Y-118270109D01*
X131452182Y-118395050D01*
X131460946Y-118399516D01*
X131511742Y-118447491D01*
X131528536Y-118515312D01*
X131505998Y-118581447D01*
X131460946Y-118620484D01*
X131452182Y-118624949D01*
X131280213Y-118749890D01*
X131129890Y-118900213D01*
X131004951Y-119072179D01*
X130908444Y-119261585D01*
X130908443Y-119261587D01*
X130908443Y-119261588D01*
X130891389Y-119314075D01*
X130842753Y-119463760D01*
X130814473Y-119642315D01*
X130809500Y-119673713D01*
X130809500Y-119886287D01*
X130842754Y-120096243D01*
X130856899Y-120139778D01*
X130908444Y-120298414D01*
X131004951Y-120487820D01*
X131129890Y-120659786D01*
X131280213Y-120810109D01*
X131452182Y-120935050D01*
X131460946Y-120939516D01*
X131511742Y-120987491D01*
X131528536Y-121055312D01*
X131505998Y-121121447D01*
X131460946Y-121160484D01*
X131452182Y-121164949D01*
X131280213Y-121289890D01*
X131129890Y-121440213D01*
X131004951Y-121612179D01*
X130908444Y-121801585D01*
X130842753Y-122003760D01*
X130835330Y-122050630D01*
X130809500Y-122213713D01*
X130809500Y-122426287D01*
X130815095Y-122461611D01*
X130832156Y-122569334D01*
X130842754Y-122636243D01*
X130902024Y-122818657D01*
X130908444Y-122838414D01*
X131004951Y-123027820D01*
X131129890Y-123199786D01*
X131280213Y-123350109D01*
X131452179Y-123475048D01*
X131452181Y-123475049D01*
X131452184Y-123475051D01*
X131541256Y-123520435D01*
X131641587Y-123571557D01*
X131641593Y-123571559D01*
X131780580Y-123616718D01*
X131829944Y-123646968D01*
X133159600Y-124976624D01*
X133159621Y-124976647D01*
X133269029Y-125086055D01*
X133269032Y-125086057D01*
X133269034Y-125086059D01*
X133351605Y-125141230D01*
X133392611Y-125168630D01*
X133473045Y-125201946D01*
X133529920Y-125225505D01*
X133529929Y-125225506D01*
X133529930Y-125225507D01*
X133554103Y-125230315D01*
X133554110Y-125230316D01*
X133675686Y-125254501D01*
X133675688Y-125254501D01*
X133830426Y-125254501D01*
X133830446Y-125254500D01*
X201019554Y-125254500D01*
X201019574Y-125254501D01*
X201025688Y-125254501D01*
X201174314Y-125254501D01*
X201211009Y-125247200D01*
X201295894Y-125230315D01*
X201320080Y-125225505D01*
X201376955Y-125201946D01*
X201457389Y-125168630D01*
X201580966Y-125086059D01*
X202730963Y-123936060D01*
X202730966Y-123936059D01*
X202836059Y-123830966D01*
X202906318Y-123725815D01*
X202918630Y-123707389D01*
X202918633Y-123707385D01*
X202974892Y-123571559D01*
X202975505Y-123570079D01*
X202999567Y-123449115D01*
X203004501Y-123424314D01*
X203004501Y-123270578D01*
X203004500Y-123270552D01*
X203004500Y-123245544D01*
X203024185Y-123178505D01*
X203076989Y-123132750D01*
X203089496Y-123127838D01*
X203093528Y-123126502D01*
X203219334Y-123084814D01*
X203368656Y-122992712D01*
X203492712Y-122868656D01*
X203576733Y-122732434D01*
X203628679Y-122685711D01*
X203697642Y-122674488D01*
X203761724Y-122702331D01*
X203769952Y-122709851D01*
X203877958Y-122817857D01*
X204056239Y-122947386D01*
X204252589Y-123047432D01*
X204462163Y-123115526D01*
X204539999Y-123127854D01*
X204540000Y-123127854D01*
X204540000Y-121540747D01*
X204577708Y-121562518D01*
X204717591Y-121600000D01*
X204862409Y-121600000D01*
X205002292Y-121562518D01*
X205040000Y-121540747D01*
X205040000Y-123127854D01*
X205117834Y-123115526D01*
X205117837Y-123115526D01*
X205327410Y-123047432D01*
X205523760Y-122947386D01*
X205702041Y-122817857D01*
X205857857Y-122662041D01*
X205987386Y-122483760D01*
X206087432Y-122287410D01*
X206155526Y-122077835D01*
X206190000Y-121860181D01*
X206190000Y-121300000D01*
X205280748Y-121300000D01*
X205302518Y-121262292D01*
X205340000Y-121122409D01*
X205340000Y-120977591D01*
X205302518Y-120837708D01*
X205280748Y-120800000D01*
X206190000Y-120800000D01*
X206190000Y-120239818D01*
X206155526Y-120022164D01*
X206087432Y-119812589D01*
X205987386Y-119616239D01*
X205857857Y-119437958D01*
X205702041Y-119282142D01*
X205523760Y-119152613D01*
X205327410Y-119052567D01*
X205117836Y-118984473D01*
X205040000Y-118972144D01*
X205040000Y-120559252D01*
X205002292Y-120537482D01*
X204862409Y-120500000D01*
X204717591Y-120500000D01*
X204577708Y-120537482D01*
X204540000Y-120559252D01*
X204540000Y-118972144D01*
X204462164Y-118984473D01*
X204462161Y-118984473D01*
X204252589Y-119052567D01*
X204056239Y-119152613D01*
X203877962Y-119282139D01*
X203769952Y-119390149D01*
X203708629Y-119423633D01*
X203638937Y-119418649D01*
X203583004Y-119376777D01*
X203576732Y-119367563D01*
X203492712Y-119231344D01*
X203368657Y-119107289D01*
X203368656Y-119107288D01*
X203246202Y-119031758D01*
X203219336Y-119015187D01*
X203219331Y-119015185D01*
X203180100Y-119002185D01*
X203089495Y-118972161D01*
X203069463Y-118958291D01*
X203047297Y-118948169D01*
X203041248Y-118938756D01*
X203032051Y-118932389D01*
X203022697Y-118909890D01*
X203009523Y-118889391D01*
X203007064Y-118872289D01*
X203005228Y-118867873D01*
X203004500Y-118854456D01*
X203004500Y-118245544D01*
X203024185Y-118178505D01*
X203076989Y-118132750D01*
X203089496Y-118127838D01*
X203098287Y-118124925D01*
X203219334Y-118084814D01*
X203368656Y-117992712D01*
X203492712Y-117868656D01*
X203576733Y-117732434D01*
X203628679Y-117685711D01*
X203697642Y-117674488D01*
X203761724Y-117702331D01*
X203769952Y-117709851D01*
X203877958Y-117817857D01*
X204056239Y-117947386D01*
X204252589Y-118047432D01*
X204462163Y-118115526D01*
X204539999Y-118127854D01*
X204540000Y-118127854D01*
X204540000Y-116540747D01*
X204577708Y-116562518D01*
X204717591Y-116600000D01*
X204862409Y-116600000D01*
X205002292Y-116562518D01*
X205040000Y-116540747D01*
X205040000Y-118127854D01*
X205117834Y-118115526D01*
X205117837Y-118115526D01*
X205327410Y-118047432D01*
X205523760Y-117947386D01*
X205702041Y-117817857D01*
X205769885Y-117750013D01*
X212400000Y-117750013D01*
X212400000Y-118175000D01*
X213219670Y-118175000D01*
X213199925Y-118194745D01*
X213150556Y-118280255D01*
X213125000Y-118375630D01*
X213125000Y-118474370D01*
X213150556Y-118569745D01*
X213199925Y-118655255D01*
X213219670Y-118675000D01*
X212400001Y-118675000D01*
X212400001Y-119099986D01*
X212410494Y-119202697D01*
X212465641Y-119369119D01*
X212465643Y-119369124D01*
X212557684Y-119518345D01*
X212681654Y-119642315D01*
X212830875Y-119734356D01*
X212830880Y-119734358D01*
X212997302Y-119789505D01*
X212997309Y-119789506D01*
X213100019Y-119799999D01*
X213249999Y-119799999D01*
X213250000Y-119799998D01*
X213250000Y-118705330D01*
X213269745Y-118725075D01*
X213355255Y-118774444D01*
X213450630Y-118800000D01*
X213549370Y-118800000D01*
X213644745Y-118774444D01*
X213730255Y-118725075D01*
X213750000Y-118705330D01*
X213750000Y-119799999D01*
X213899972Y-119799999D01*
X213899986Y-119799998D01*
X214002697Y-119789505D01*
X214169119Y-119734358D01*
X214169124Y-119734356D01*
X214318345Y-119642315D01*
X214442315Y-119518345D01*
X214481945Y-119454094D01*
X214533893Y-119407368D01*
X214602855Y-119396145D01*
X214666937Y-119423988D01*
X214675166Y-119431508D01*
X214783072Y-119539414D01*
X214923212Y-119641232D01*
X215077555Y-119719873D01*
X215242299Y-119773402D01*
X215413389Y-119800500D01*
X215413390Y-119800500D01*
X215586610Y-119800500D01*
X215586611Y-119800500D01*
X215757701Y-119773402D01*
X215922445Y-119719873D01*
X216076788Y-119641232D01*
X216216928Y-119539414D01*
X216339414Y-119416928D01*
X216399682Y-119333975D01*
X216455012Y-119291311D01*
X216524626Y-119285332D01*
X216586421Y-119317938D01*
X216600315Y-119333973D01*
X216660586Y-119416928D01*
X216783072Y-119539414D01*
X216923212Y-119641232D01*
X217077555Y-119719873D01*
X217242299Y-119773402D01*
X217413389Y-119800500D01*
X217413390Y-119800500D01*
X217586610Y-119800500D01*
X217586611Y-119800500D01*
X217757701Y-119773402D01*
X217922445Y-119719873D01*
X218076788Y-119641232D01*
X218216928Y-119539414D01*
X218339414Y-119416928D01*
X218399682Y-119333975D01*
X218455012Y-119291311D01*
X218524626Y-119285332D01*
X218586421Y-119317938D01*
X218600315Y-119333973D01*
X218660586Y-119416928D01*
X218783072Y-119539414D01*
X218923212Y-119641232D01*
X219077555Y-119719873D01*
X219242299Y-119773402D01*
X219413389Y-119800500D01*
X219413390Y-119800500D01*
X219586610Y-119800500D01*
X219586611Y-119800500D01*
X219757701Y-119773402D01*
X219922445Y-119719873D01*
X220076788Y-119641232D01*
X220216928Y-119539414D01*
X220339414Y-119416928D01*
X220441232Y-119276788D01*
X220519873Y-119122445D01*
X220573402Y-118957701D01*
X220600500Y-118786611D01*
X220600500Y-118063389D01*
X220573402Y-117892299D01*
X220519873Y-117727555D01*
X220441232Y-117573212D01*
X220339414Y-117433072D01*
X220216928Y-117310586D01*
X220076788Y-117208768D01*
X219982215Y-117160581D01*
X219922447Y-117130128D01*
X219922446Y-117130127D01*
X219922445Y-117130127D01*
X219757701Y-117076598D01*
X219757699Y-117076597D01*
X219757698Y-117076597D01*
X219626271Y-117055781D01*
X219586611Y-117049500D01*
X219413389Y-117049500D01*
X219373728Y-117055781D01*
X219242302Y-117076597D01*
X219077552Y-117130128D01*
X218923211Y-117208768D01*
X218843256Y-117266859D01*
X218783072Y-117310586D01*
X218783070Y-117310588D01*
X218783069Y-117310588D01*
X218660588Y-117433069D01*
X218660581Y-117433078D01*
X218600317Y-117516023D01*
X218544987Y-117558689D01*
X218475374Y-117564667D01*
X218413579Y-117532061D01*
X218399683Y-117516023D01*
X218351714Y-117450001D01*
X218339414Y-117433072D01*
X218216928Y-117310586D01*
X218076788Y-117208768D01*
X217982215Y-117160581D01*
X217922447Y-117130128D01*
X217922446Y-117130127D01*
X217922445Y-117130127D01*
X217757701Y-117076598D01*
X217757699Y-117076597D01*
X217757698Y-117076597D01*
X217626271Y-117055781D01*
X217586611Y-117049500D01*
X217413389Y-117049500D01*
X217373728Y-117055781D01*
X217242302Y-117076597D01*
X217077552Y-117130128D01*
X216923211Y-117208768D01*
X216843256Y-117266859D01*
X216783072Y-117310586D01*
X216783070Y-117310588D01*
X216783069Y-117310588D01*
X216660588Y-117433069D01*
X216660581Y-117433078D01*
X216600317Y-117516023D01*
X216544987Y-117558689D01*
X216475374Y-117564667D01*
X216413579Y-117532061D01*
X216399683Y-117516023D01*
X216351714Y-117450001D01*
X216339414Y-117433072D01*
X216216928Y-117310586D01*
X216076788Y-117208768D01*
X215982215Y-117160581D01*
X215922447Y-117130128D01*
X215922446Y-117130127D01*
X215922445Y-117130127D01*
X215757701Y-117076598D01*
X215757699Y-117076597D01*
X215757698Y-117076597D01*
X215626271Y-117055781D01*
X215586611Y-117049500D01*
X215413389Y-117049500D01*
X215373728Y-117055781D01*
X215242302Y-117076597D01*
X215077552Y-117130128D01*
X214923211Y-117208768D01*
X214783073Y-117310585D01*
X214675166Y-117418492D01*
X214613843Y-117451976D01*
X214544151Y-117446992D01*
X214488218Y-117405120D01*
X214481946Y-117395906D01*
X214442317Y-117331656D01*
X214318345Y-117207684D01*
X214169124Y-117115643D01*
X214169119Y-117115641D01*
X214002697Y-117060494D01*
X214002690Y-117060493D01*
X213899986Y-117050000D01*
X213750000Y-117050000D01*
X213750000Y-118144670D01*
X213730255Y-118124925D01*
X213644745Y-118075556D01*
X213549370Y-118050000D01*
X213450630Y-118050000D01*
X213355255Y-118075556D01*
X213269745Y-118124925D01*
X213250000Y-118144670D01*
X213250000Y-117050000D01*
X213100027Y-117050000D01*
X213100012Y-117050001D01*
X212997302Y-117060494D01*
X212830880Y-117115641D01*
X212830875Y-117115643D01*
X212681654Y-117207684D01*
X212557684Y-117331654D01*
X212465643Y-117480875D01*
X212465641Y-117480880D01*
X212410494Y-117647302D01*
X212410493Y-117647309D01*
X212400000Y-117750013D01*
X205769885Y-117750013D01*
X205857857Y-117662041D01*
X205987386Y-117483760D01*
X206087432Y-117287410D01*
X206155526Y-117077835D01*
X206190000Y-116860181D01*
X206190000Y-116300000D01*
X205280748Y-116300000D01*
X205302518Y-116262292D01*
X205340000Y-116122409D01*
X205340000Y-115977591D01*
X205302518Y-115837708D01*
X205280748Y-115800000D01*
X206190000Y-115800000D01*
X206190000Y-115239818D01*
X206155526Y-115022164D01*
X206087432Y-114812589D01*
X205987386Y-114616239D01*
X205857857Y-114437958D01*
X205702041Y-114282142D01*
X205523760Y-114152613D01*
X205327410Y-114052567D01*
X205117836Y-113984473D01*
X205040000Y-113972144D01*
X205040000Y-115559252D01*
X205002292Y-115537482D01*
X204862409Y-115500000D01*
X204717591Y-115500000D01*
X204577708Y-115537482D01*
X204540000Y-115559252D01*
X204540000Y-113972144D01*
X204462164Y-113984473D01*
X204462161Y-113984473D01*
X204252589Y-114052567D01*
X204056239Y-114152613D01*
X203877962Y-114282139D01*
X203769952Y-114390149D01*
X203708629Y-114423633D01*
X203638937Y-114418649D01*
X203583004Y-114376777D01*
X203576732Y-114367563D01*
X203492712Y-114231344D01*
X203368657Y-114107289D01*
X203368656Y-114107288D01*
X203246202Y-114031758D01*
X203219336Y-114015187D01*
X203219331Y-114015185D01*
X203179427Y-114001962D01*
X203089495Y-113972161D01*
X203032051Y-113932389D01*
X203005228Y-113867873D01*
X203004500Y-113854456D01*
X203004500Y-113130446D01*
X203004501Y-113130425D01*
X203004501Y-112975685D01*
X202982200Y-112863581D01*
X202980315Y-112854105D01*
X202975505Y-112829920D01*
X202926579Y-112711803D01*
X202918630Y-112692611D01*
X202836059Y-112569034D01*
X202836057Y-112569031D01*
X202836056Y-112569030D01*
X201160738Y-110893713D01*
X201145316Y-110874922D01*
X201121787Y-110839708D01*
X201010292Y-110728213D01*
X201010288Y-110728210D01*
X200879185Y-110640609D01*
X200879172Y-110640602D01*
X200733501Y-110580264D01*
X200733489Y-110580261D01*
X200578845Y-110549500D01*
X200578842Y-110549500D01*
X200421158Y-110549500D01*
X200421155Y-110549500D01*
X200266511Y-110580260D01*
X200266506Y-110580262D01*
X200266504Y-110580262D01*
X200266503Y-110580263D01*
X200252501Y-110586062D01*
X200205053Y-110595500D01*
X191929296Y-110595500D01*
X191862257Y-110575815D01*
X191816502Y-110523011D01*
X191805678Y-110461772D01*
X191805863Y-110459417D01*
X191242574Y-109896128D01*
X191301853Y-109880245D01*
X191418147Y-109813102D01*
X191513102Y-109718147D01*
X191580245Y-109601853D01*
X191596128Y-109542574D01*
X192159417Y-110105863D01*
X192159418Y-110105863D01*
X192186924Y-110068005D01*
X192276430Y-109892343D01*
X192276431Y-109892341D01*
X192277319Y-109890597D01*
X192338852Y-109701222D01*
X192370000Y-109504563D01*
X192370000Y-109305436D01*
X192338852Y-109108780D01*
X192327880Y-109075013D01*
X212400000Y-109075013D01*
X212400000Y-109500000D01*
X213219670Y-109500000D01*
X213199925Y-109519745D01*
X213150556Y-109605255D01*
X213125000Y-109700630D01*
X213125000Y-109799370D01*
X213150556Y-109894745D01*
X213199925Y-109980255D01*
X213219670Y-110000000D01*
X212400001Y-110000000D01*
X212400001Y-110424986D01*
X212410494Y-110527697D01*
X212465641Y-110694119D01*
X212465643Y-110694124D01*
X212557684Y-110843345D01*
X212681654Y-110967315D01*
X212830875Y-111059356D01*
X212830880Y-111059358D01*
X212997302Y-111114505D01*
X212997309Y-111114506D01*
X213100019Y-111124999D01*
X213249999Y-111124999D01*
X213250000Y-111124998D01*
X213250000Y-110030330D01*
X213269745Y-110050075D01*
X213355255Y-110099444D01*
X213450630Y-110125000D01*
X213549370Y-110125000D01*
X213644745Y-110099444D01*
X213730255Y-110050075D01*
X213750000Y-110030330D01*
X213750000Y-111124999D01*
X213899972Y-111124999D01*
X213899986Y-111124998D01*
X214002697Y-111114505D01*
X214169119Y-111059358D01*
X214169124Y-111059356D01*
X214318345Y-110967315D01*
X214442315Y-110843345D01*
X214481945Y-110779094D01*
X214533893Y-110732368D01*
X214602855Y-110721145D01*
X214666937Y-110748988D01*
X214675166Y-110756508D01*
X214783072Y-110864414D01*
X214923212Y-110966232D01*
X215077555Y-111044873D01*
X215242299Y-111098402D01*
X215413389Y-111125500D01*
X215413390Y-111125500D01*
X215586610Y-111125500D01*
X215586611Y-111125500D01*
X215757701Y-111098402D01*
X215922445Y-111044873D01*
X216076788Y-110966232D01*
X216216928Y-110864414D01*
X216339414Y-110741928D01*
X216399682Y-110658975D01*
X216455012Y-110616311D01*
X216524626Y-110610332D01*
X216586421Y-110642938D01*
X216600315Y-110658973D01*
X216660586Y-110741928D01*
X216783072Y-110864414D01*
X216923212Y-110966232D01*
X217077555Y-111044873D01*
X217242299Y-111098402D01*
X217413389Y-111125500D01*
X217413390Y-111125500D01*
X217586610Y-111125500D01*
X217586611Y-111125500D01*
X217757701Y-111098402D01*
X217922445Y-111044873D01*
X218076788Y-110966232D01*
X218216928Y-110864414D01*
X218339414Y-110741928D01*
X218399682Y-110658975D01*
X218455012Y-110616311D01*
X218524626Y-110610332D01*
X218586421Y-110642938D01*
X218600315Y-110658973D01*
X218660586Y-110741928D01*
X218783072Y-110864414D01*
X218923212Y-110966232D01*
X219077555Y-111044873D01*
X219242299Y-111098402D01*
X219413389Y-111125500D01*
X219413390Y-111125500D01*
X219586610Y-111125500D01*
X219586611Y-111125500D01*
X219757701Y-111098402D01*
X219922445Y-111044873D01*
X220076788Y-110966232D01*
X220216928Y-110864414D01*
X220339414Y-110741928D01*
X220441232Y-110601788D01*
X220519873Y-110447445D01*
X220573402Y-110282701D01*
X220600500Y-110111611D01*
X220600500Y-109388389D01*
X220573402Y-109217299D01*
X220519873Y-109052555D01*
X220441232Y-108898212D01*
X220339414Y-108758072D01*
X220216928Y-108635586D01*
X220076788Y-108533768D01*
X219922445Y-108455127D01*
X219757701Y-108401598D01*
X219757699Y-108401597D01*
X219757698Y-108401597D01*
X219594888Y-108375811D01*
X219586611Y-108374500D01*
X219413389Y-108374500D01*
X219405112Y-108375811D01*
X219242302Y-108401597D01*
X219242299Y-108401598D01*
X219124933Y-108439733D01*
X219077552Y-108455128D01*
X218923211Y-108533768D01*
X218858782Y-108580579D01*
X218783072Y-108635586D01*
X218783070Y-108635588D01*
X218783069Y-108635588D01*
X218660588Y-108758069D01*
X218660581Y-108758078D01*
X218600317Y-108841023D01*
X218544987Y-108883689D01*
X218475374Y-108889667D01*
X218413579Y-108857061D01*
X218399683Y-108841023D01*
X218351899Y-108775257D01*
X218339414Y-108758072D01*
X218216928Y-108635586D01*
X218076788Y-108533768D01*
X217922445Y-108455127D01*
X217757701Y-108401598D01*
X217757699Y-108401597D01*
X217757698Y-108401597D01*
X217594888Y-108375811D01*
X217586611Y-108374500D01*
X217413389Y-108374500D01*
X217405112Y-108375811D01*
X217242302Y-108401597D01*
X217242299Y-108401598D01*
X217124933Y-108439733D01*
X217077552Y-108455128D01*
X216923211Y-108533768D01*
X216858782Y-108580579D01*
X216783072Y-108635586D01*
X216783070Y-108635588D01*
X216783069Y-108635588D01*
X216660588Y-108758069D01*
X216660581Y-108758078D01*
X216600317Y-108841023D01*
X216544987Y-108883689D01*
X216475374Y-108889667D01*
X216413579Y-108857061D01*
X216399683Y-108841023D01*
X216351899Y-108775257D01*
X216339414Y-108758072D01*
X216216928Y-108635586D01*
X216076788Y-108533768D01*
X215922445Y-108455127D01*
X215757701Y-108401598D01*
X215757699Y-108401597D01*
X215757698Y-108401597D01*
X215594888Y-108375811D01*
X215586611Y-108374500D01*
X215413389Y-108374500D01*
X215405112Y-108375811D01*
X215242302Y-108401597D01*
X215242299Y-108401598D01*
X215124933Y-108439733D01*
X215077552Y-108455128D01*
X214923211Y-108533768D01*
X214783073Y-108635585D01*
X214675166Y-108743492D01*
X214613843Y-108776976D01*
X214544151Y-108771992D01*
X214488218Y-108730120D01*
X214481946Y-108720906D01*
X214442317Y-108656656D01*
X214318345Y-108532684D01*
X214169124Y-108440643D01*
X214169119Y-108440641D01*
X214002697Y-108385494D01*
X214002690Y-108385493D01*
X213899986Y-108375000D01*
X213750000Y-108375000D01*
X213750000Y-109469670D01*
X213730255Y-109449925D01*
X213644745Y-109400556D01*
X213549370Y-109375000D01*
X213450630Y-109375000D01*
X213355255Y-109400556D01*
X213269745Y-109449925D01*
X213250000Y-109469670D01*
X213250000Y-108375000D01*
X213100027Y-108375000D01*
X213100012Y-108375001D01*
X212997302Y-108385494D01*
X212830880Y-108440641D01*
X212830875Y-108440643D01*
X212681654Y-108532684D01*
X212557684Y-108656654D01*
X212465643Y-108805875D01*
X212465641Y-108805880D01*
X212410494Y-108972302D01*
X212410493Y-108972309D01*
X212400000Y-109075013D01*
X192327880Y-109075013D01*
X192277320Y-108919405D01*
X192186924Y-108741994D01*
X192159417Y-108704135D01*
X192159417Y-108704134D01*
X191596128Y-109267424D01*
X191580245Y-109208147D01*
X191513102Y-109091853D01*
X191418147Y-108996898D01*
X191301853Y-108929755D01*
X191242574Y-108913871D01*
X191805864Y-108350581D01*
X191805863Y-108350580D01*
X191768008Y-108323077D01*
X191590594Y-108232679D01*
X191401222Y-108171147D01*
X191204563Y-108140000D01*
X191005437Y-108140000D01*
X190808777Y-108171147D01*
X190619405Y-108232679D01*
X190441990Y-108323077D01*
X190404135Y-108350580D01*
X190404135Y-108350581D01*
X190967425Y-108913871D01*
X190908147Y-108929755D01*
X190791853Y-108996898D01*
X190696898Y-109091853D01*
X190629755Y-109208147D01*
X190613871Y-109267425D01*
X190050581Y-108704135D01*
X190050580Y-108704135D01*
X190023075Y-108741993D01*
X189945764Y-108893723D01*
X189897790Y-108944518D01*
X189829969Y-108961313D01*
X189763834Y-108938775D01*
X189724795Y-108893722D01*
X189680034Y-108805875D01*
X189647353Y-108741734D01*
X189530269Y-108580582D01*
X189389418Y-108439731D01*
X189228266Y-108322647D01*
X189149383Y-108282454D01*
X189050780Y-108232213D01*
X188861342Y-108170661D01*
X188713782Y-108147290D01*
X188664597Y-108139500D01*
X188477280Y-108139500D01*
X188410241Y-108119815D01*
X188364486Y-108067011D01*
X188354542Y-107997853D01*
X188383567Y-107934297D01*
X188389599Y-107927819D01*
X189167427Y-107149992D01*
X190153600Y-106163819D01*
X190214923Y-106130334D01*
X190241281Y-106127500D01*
X200460643Y-106127500D01*
X200527682Y-106147185D01*
X200529534Y-106148398D01*
X200620814Y-106209390D01*
X200620827Y-106209397D01*
X200766498Y-106269735D01*
X200766503Y-106269737D01*
X200921153Y-106300499D01*
X200921156Y-106300500D01*
X200921158Y-106300500D01*
X201078844Y-106300500D01*
X201078845Y-106300499D01*
X201233497Y-106269737D01*
X201379179Y-106209394D01*
X201510289Y-106121789D01*
X201621789Y-106010289D01*
X201709394Y-105879179D01*
X201769737Y-105733497D01*
X201800500Y-105578842D01*
X201800500Y-105421158D01*
X201800500Y-105421155D01*
X201800499Y-105421153D01*
X201769738Y-105266510D01*
X201769737Y-105266503D01*
X201769735Y-105266498D01*
X201709397Y-105120827D01*
X201709390Y-105120814D01*
X201621789Y-104989711D01*
X201621786Y-104989707D01*
X201510292Y-104878213D01*
X201510288Y-104878210D01*
X201379185Y-104790609D01*
X201379172Y-104790602D01*
X201233501Y-104730264D01*
X201233489Y-104730261D01*
X201078845Y-104699500D01*
X201078842Y-104699500D01*
X200921158Y-104699500D01*
X200921155Y-104699500D01*
X200766510Y-104730261D01*
X200766498Y-104730264D01*
X200620827Y-104790602D01*
X200620814Y-104790609D01*
X200529534Y-104851602D01*
X200462857Y-104872480D01*
X200460643Y-104872500D01*
X189868192Y-104872500D01*
X189746972Y-104896612D01*
X189746964Y-104896614D01*
X189666215Y-104930062D01*
X189632766Y-104943917D01*
X189632764Y-104943918D01*
X189556728Y-104994724D01*
X189556728Y-104994725D01*
X189529989Y-105012590D01*
X186409679Y-108132900D01*
X186348356Y-108166385D01*
X186302601Y-108167692D01*
X186124597Y-108139500D01*
X185937280Y-108139500D01*
X185870241Y-108119815D01*
X185824486Y-108067011D01*
X185814542Y-107997853D01*
X185843567Y-107934297D01*
X185849599Y-107927819D01*
X192566462Y-101210957D01*
X193352406Y-100425013D01*
X212400000Y-100425013D01*
X212400000Y-100850000D01*
X213219670Y-100850000D01*
X213199925Y-100869745D01*
X213150556Y-100955255D01*
X213125000Y-101050630D01*
X213125000Y-101149370D01*
X213150556Y-101244745D01*
X213199925Y-101330255D01*
X213219670Y-101350000D01*
X212400001Y-101350000D01*
X212400001Y-101774986D01*
X212410494Y-101877697D01*
X212465641Y-102044119D01*
X212465643Y-102044124D01*
X212557684Y-102193345D01*
X212681654Y-102317315D01*
X212830875Y-102409356D01*
X212830880Y-102409358D01*
X212997302Y-102464505D01*
X212997309Y-102464506D01*
X213100019Y-102474999D01*
X213249999Y-102474999D01*
X213250000Y-102474998D01*
X213250000Y-101380330D01*
X213269745Y-101400075D01*
X213355255Y-101449444D01*
X213450630Y-101475000D01*
X213549370Y-101475000D01*
X213644745Y-101449444D01*
X213730255Y-101400075D01*
X213750000Y-101380330D01*
X213750000Y-102474999D01*
X213899972Y-102474999D01*
X213899986Y-102474998D01*
X214002697Y-102464505D01*
X214169119Y-102409358D01*
X214169124Y-102409356D01*
X214318345Y-102317315D01*
X214442315Y-102193345D01*
X214481945Y-102129094D01*
X214533893Y-102082368D01*
X214602855Y-102071145D01*
X214666937Y-102098988D01*
X214675166Y-102106508D01*
X214783072Y-102214414D01*
X214923212Y-102316232D01*
X215077555Y-102394873D01*
X215242299Y-102448402D01*
X215413389Y-102475500D01*
X215413390Y-102475500D01*
X215586610Y-102475500D01*
X215586611Y-102475500D01*
X215757701Y-102448402D01*
X215922445Y-102394873D01*
X216076788Y-102316232D01*
X216216928Y-102214414D01*
X216339414Y-102091928D01*
X216399682Y-102008975D01*
X216455012Y-101966311D01*
X216524626Y-101960332D01*
X216586421Y-101992938D01*
X216600315Y-102008973D01*
X216660586Y-102091928D01*
X216783072Y-102214414D01*
X216923212Y-102316232D01*
X217077555Y-102394873D01*
X217242299Y-102448402D01*
X217413389Y-102475500D01*
X217413390Y-102475500D01*
X217586610Y-102475500D01*
X217586611Y-102475500D01*
X217757701Y-102448402D01*
X217922445Y-102394873D01*
X218076788Y-102316232D01*
X218216928Y-102214414D01*
X218339414Y-102091928D01*
X218399682Y-102008975D01*
X218455012Y-101966311D01*
X218524626Y-101960332D01*
X218586421Y-101992938D01*
X218600315Y-102008973D01*
X218660586Y-102091928D01*
X218783072Y-102214414D01*
X218923212Y-102316232D01*
X219077555Y-102394873D01*
X219242299Y-102448402D01*
X219413389Y-102475500D01*
X219413390Y-102475500D01*
X219586610Y-102475500D01*
X219586611Y-102475500D01*
X219757701Y-102448402D01*
X219922445Y-102394873D01*
X220076788Y-102316232D01*
X220216928Y-102214414D01*
X220339414Y-102091928D01*
X220441232Y-101951788D01*
X220519873Y-101797445D01*
X220573402Y-101632701D01*
X220600500Y-101461611D01*
X220600500Y-100738389D01*
X220573402Y-100567299D01*
X220519873Y-100402555D01*
X220441232Y-100248212D01*
X220339414Y-100108072D01*
X220216928Y-99985586D01*
X220076788Y-99883768D01*
X219922445Y-99805127D01*
X219757701Y-99751598D01*
X219757699Y-99751597D01*
X219757698Y-99751597D01*
X219626271Y-99730781D01*
X219586611Y-99724500D01*
X219413389Y-99724500D01*
X219373728Y-99730781D01*
X219242302Y-99751597D01*
X219077552Y-99805128D01*
X218923211Y-99883768D01*
X218843256Y-99941859D01*
X218783072Y-99985586D01*
X218783070Y-99985588D01*
X218783069Y-99985588D01*
X218660588Y-100108069D01*
X218660581Y-100108078D01*
X218600317Y-100191023D01*
X218544987Y-100233689D01*
X218475374Y-100239667D01*
X218413579Y-100207061D01*
X218399683Y-100191023D01*
X218351899Y-100125257D01*
X218339414Y-100108072D01*
X218216928Y-99985586D01*
X218076788Y-99883768D01*
X217922445Y-99805127D01*
X217757701Y-99751598D01*
X217757699Y-99751597D01*
X217757698Y-99751597D01*
X217626271Y-99730781D01*
X217586611Y-99724500D01*
X217413389Y-99724500D01*
X217373728Y-99730781D01*
X217242302Y-99751597D01*
X217077552Y-99805128D01*
X216923211Y-99883768D01*
X216843256Y-99941859D01*
X216783072Y-99985586D01*
X216783070Y-99985588D01*
X216783069Y-99985588D01*
X216660588Y-100108069D01*
X216660581Y-100108078D01*
X216600317Y-100191023D01*
X216544987Y-100233689D01*
X216475374Y-100239667D01*
X216413579Y-100207061D01*
X216399683Y-100191023D01*
X216351899Y-100125257D01*
X216339414Y-100108072D01*
X216216928Y-99985586D01*
X216076788Y-99883768D01*
X215922445Y-99805127D01*
X215757701Y-99751598D01*
X215757699Y-99751597D01*
X215757698Y-99751597D01*
X215626271Y-99730781D01*
X215586611Y-99724500D01*
X215413389Y-99724500D01*
X215373728Y-99730781D01*
X215242302Y-99751597D01*
X215077552Y-99805128D01*
X214923211Y-99883768D01*
X214783073Y-99985585D01*
X214675166Y-100093492D01*
X214613843Y-100126976D01*
X214544151Y-100121992D01*
X214488218Y-100080120D01*
X214481946Y-100070906D01*
X214442317Y-100006656D01*
X214318345Y-99882684D01*
X214169124Y-99790643D01*
X214169119Y-99790641D01*
X214002697Y-99735494D01*
X214002690Y-99735493D01*
X213899986Y-99725000D01*
X213750000Y-99725000D01*
X213750000Y-100819670D01*
X213730255Y-100799925D01*
X213644745Y-100750556D01*
X213549370Y-100725000D01*
X213450630Y-100725000D01*
X213355255Y-100750556D01*
X213269745Y-100799925D01*
X213250000Y-100819670D01*
X213250000Y-99725000D01*
X213100027Y-99725000D01*
X213100012Y-99725001D01*
X212997302Y-99735494D01*
X212830880Y-99790641D01*
X212830875Y-99790643D01*
X212681654Y-99882684D01*
X212557684Y-100006654D01*
X212465643Y-100155875D01*
X212465641Y-100155880D01*
X212410494Y-100322302D01*
X212410493Y-100322309D01*
X212400000Y-100425013D01*
X193352406Y-100425013D01*
X194113600Y-99663819D01*
X194174923Y-99630334D01*
X194201281Y-99627500D01*
X198960643Y-99627500D01*
X199027682Y-99647185D01*
X199029534Y-99648398D01*
X199120814Y-99709390D01*
X199120827Y-99709397D01*
X199222711Y-99751598D01*
X199266503Y-99769737D01*
X199421153Y-99800499D01*
X199421156Y-99800500D01*
X199421158Y-99800500D01*
X199578844Y-99800500D01*
X199578845Y-99800499D01*
X199733497Y-99769737D01*
X199879179Y-99709394D01*
X200010289Y-99621789D01*
X200121789Y-99510289D01*
X200209394Y-99379179D01*
X200269737Y-99233497D01*
X200300500Y-99078842D01*
X200300500Y-98921158D01*
X200300500Y-98921155D01*
X200287426Y-98855431D01*
X200293653Y-98785840D01*
X200336515Y-98730662D01*
X200361589Y-98716679D01*
X200379179Y-98709394D01*
X200510289Y-98621789D01*
X200621789Y-98510289D01*
X200709394Y-98379179D01*
X200769737Y-98233497D01*
X200800500Y-98078842D01*
X200800500Y-97921158D01*
X200800500Y-97921155D01*
X200800499Y-97921153D01*
X200769738Y-97766510D01*
X200769737Y-97766503D01*
X200769735Y-97766498D01*
X200709397Y-97620827D01*
X200709390Y-97620814D01*
X200621789Y-97489711D01*
X200621786Y-97489707D01*
X200510292Y-97378213D01*
X200510288Y-97378210D01*
X200379185Y-97290609D01*
X200379172Y-97290602D01*
X200233501Y-97230264D01*
X200233489Y-97230261D01*
X200078845Y-97199500D01*
X200078842Y-97199500D01*
X199921158Y-97199500D01*
X199921155Y-97199500D01*
X199766510Y-97230261D01*
X199766498Y-97230264D01*
X199620827Y-97290602D01*
X199620814Y-97290609D01*
X199529534Y-97351602D01*
X199462857Y-97372480D01*
X199460643Y-97372500D01*
X192288192Y-97372500D01*
X192166973Y-97396612D01*
X192166965Y-97396614D01*
X192108881Y-97420673D01*
X192108874Y-97420676D01*
X192101974Y-97423535D01*
X192052767Y-97443917D01*
X191976729Y-97494724D01*
X191972811Y-97497342D01*
X191949989Y-97512590D01*
X181329679Y-108132900D01*
X181268356Y-108166385D01*
X181222601Y-108167692D01*
X181044597Y-108139500D01*
X180845403Y-108139500D01*
X180779822Y-108149887D01*
X180648659Y-108170661D01*
X180648656Y-108170661D01*
X180459219Y-108232213D01*
X180281733Y-108322647D01*
X180209676Y-108375000D01*
X180120582Y-108439731D01*
X180120580Y-108439733D01*
X180120579Y-108439733D01*
X179979733Y-108580579D01*
X179979733Y-108580580D01*
X179979731Y-108580582D01*
X179947772Y-108624570D01*
X179862647Y-108741733D01*
X179785485Y-108893172D01*
X179737510Y-108943968D01*
X179669689Y-108960763D01*
X179603554Y-108938225D01*
X179564515Y-108893172D01*
X179520034Y-108805875D01*
X179487353Y-108741734D01*
X179370269Y-108580582D01*
X179229418Y-108439731D01*
X179068266Y-108322647D01*
X178989383Y-108282454D01*
X178890780Y-108232213D01*
X178701342Y-108170661D01*
X178553782Y-108147290D01*
X178504597Y-108139500D01*
X178305403Y-108139500D01*
X178239822Y-108149887D01*
X178108659Y-108170661D01*
X178108656Y-108170661D01*
X177919219Y-108232213D01*
X177741733Y-108322647D01*
X177669676Y-108375000D01*
X177580582Y-108439731D01*
X177580580Y-108439733D01*
X177580579Y-108439733D01*
X177439733Y-108580579D01*
X177439733Y-108580580D01*
X177439731Y-108580582D01*
X177407772Y-108624570D01*
X177322647Y-108741733D01*
X177245485Y-108893172D01*
X177197510Y-108943968D01*
X177129689Y-108960763D01*
X177063554Y-108938225D01*
X177024515Y-108893172D01*
X176980034Y-108805875D01*
X176947353Y-108741734D01*
X176830269Y-108580582D01*
X176689418Y-108439731D01*
X176528266Y-108322647D01*
X176449383Y-108282454D01*
X176350780Y-108232213D01*
X176161342Y-108170661D01*
X176013782Y-108147290D01*
X175964597Y-108139500D01*
X175765403Y-108139500D01*
X175699822Y-108149887D01*
X175568659Y-108170661D01*
X175568656Y-108170661D01*
X175379219Y-108232213D01*
X175201733Y-108322647D01*
X175129676Y-108375000D01*
X175040582Y-108439731D01*
X175040580Y-108439733D01*
X175040579Y-108439733D01*
X174899733Y-108580579D01*
X174899733Y-108580580D01*
X174899731Y-108580582D01*
X174867772Y-108624570D01*
X174782647Y-108741733D01*
X174705485Y-108893172D01*
X174657510Y-108943968D01*
X174589689Y-108960763D01*
X174523554Y-108938225D01*
X174484515Y-108893172D01*
X174440034Y-108805875D01*
X174407353Y-108741734D01*
X174290269Y-108580582D01*
X174149418Y-108439731D01*
X173988266Y-108322647D01*
X173909383Y-108282454D01*
X173810780Y-108232213D01*
X173621342Y-108170661D01*
X173473782Y-108147290D01*
X173424597Y-108139500D01*
X173225403Y-108139500D01*
X173142117Y-108152691D01*
X173047399Y-108167693D01*
X172978105Y-108158738D01*
X172940320Y-108132901D01*
X171870011Y-107062591D01*
X171870007Y-107062588D01*
X171767239Y-106993920D01*
X171767226Y-106993913D01*
X171733785Y-106980062D01*
X171653035Y-106946614D01*
X171653027Y-106946612D01*
X171531807Y-106922500D01*
X171531803Y-106922500D01*
X129761803Y-106922500D01*
X129638197Y-106922500D01*
X129638195Y-106922500D01*
X129516970Y-106946613D01*
X129516960Y-106946616D01*
X129402773Y-106993913D01*
X129402760Y-106993920D01*
X129299992Y-107062588D01*
X129299988Y-107062591D01*
X129212591Y-107149988D01*
X129212588Y-107149992D01*
X129143920Y-107252760D01*
X129143913Y-107252773D01*
X129096616Y-107366960D01*
X129096613Y-107366970D01*
X129072500Y-107488194D01*
X127976555Y-107488194D01*
X127976560Y-107482003D01*
X127989920Y-91223536D01*
X127990637Y-90350013D01*
X212400000Y-90350013D01*
X212400000Y-90775000D01*
X213219670Y-90775000D01*
X213199925Y-90794745D01*
X213150556Y-90880255D01*
X213125000Y-90975630D01*
X213125000Y-91074370D01*
X213150556Y-91169745D01*
X213199925Y-91255255D01*
X213219670Y-91275000D01*
X212400001Y-91275000D01*
X212400001Y-91699986D01*
X212410494Y-91802697D01*
X212465641Y-91969119D01*
X212465643Y-91969124D01*
X212557684Y-92118345D01*
X212681654Y-92242315D01*
X212830875Y-92334356D01*
X212830880Y-92334358D01*
X212997302Y-92389505D01*
X212997309Y-92389506D01*
X213100019Y-92399999D01*
X213249999Y-92399999D01*
X213250000Y-92399998D01*
X213250000Y-91305330D01*
X213269745Y-91325075D01*
X213355255Y-91374444D01*
X213450630Y-91400000D01*
X213549370Y-91400000D01*
X213644745Y-91374444D01*
X213730255Y-91325075D01*
X213750000Y-91305330D01*
X213750000Y-92399999D01*
X213899972Y-92399999D01*
X213899986Y-92399998D01*
X214002697Y-92389505D01*
X214169119Y-92334358D01*
X214169124Y-92334356D01*
X214318345Y-92242315D01*
X214442315Y-92118345D01*
X214481945Y-92054094D01*
X214533893Y-92007368D01*
X214602855Y-91996145D01*
X214666937Y-92023988D01*
X214675166Y-92031508D01*
X214783072Y-92139414D01*
X214923212Y-92241232D01*
X215077555Y-92319873D01*
X215242299Y-92373402D01*
X215413389Y-92400500D01*
X215413390Y-92400500D01*
X215586610Y-92400500D01*
X215586611Y-92400500D01*
X215757701Y-92373402D01*
X215922445Y-92319873D01*
X216076788Y-92241232D01*
X216216928Y-92139414D01*
X216339414Y-92016928D01*
X216399682Y-91933975D01*
X216455012Y-91891311D01*
X216524626Y-91885332D01*
X216586421Y-91917938D01*
X216600315Y-91933973D01*
X216660586Y-92016928D01*
X216783072Y-92139414D01*
X216923212Y-92241232D01*
X217077555Y-92319873D01*
X217242299Y-92373402D01*
X217413389Y-92400500D01*
X217413390Y-92400500D01*
X217586610Y-92400500D01*
X217586611Y-92400500D01*
X217757701Y-92373402D01*
X217922445Y-92319873D01*
X218076788Y-92241232D01*
X218216928Y-92139414D01*
X218339414Y-92016928D01*
X218399682Y-91933975D01*
X218455012Y-91891311D01*
X218524626Y-91885332D01*
X218586421Y-91917938D01*
X218600315Y-91933973D01*
X218660586Y-92016928D01*
X218783072Y-92139414D01*
X218923212Y-92241232D01*
X219077555Y-92319873D01*
X219242299Y-92373402D01*
X219413389Y-92400500D01*
X219413390Y-92400500D01*
X219586610Y-92400500D01*
X219586611Y-92400500D01*
X219757701Y-92373402D01*
X219922445Y-92319873D01*
X220076788Y-92241232D01*
X220216928Y-92139414D01*
X220339414Y-92016928D01*
X220441232Y-91876788D01*
X220519873Y-91722445D01*
X220573402Y-91557701D01*
X220600500Y-91386611D01*
X220600500Y-90663389D01*
X220573402Y-90492299D01*
X220519873Y-90327555D01*
X220441232Y-90173212D01*
X220339414Y-90033072D01*
X220216928Y-89910586D01*
X220076788Y-89808768D01*
X219922445Y-89730127D01*
X219757701Y-89676598D01*
X219757699Y-89676597D01*
X219757698Y-89676597D01*
X219626271Y-89655781D01*
X219586611Y-89649500D01*
X219413389Y-89649500D01*
X219373728Y-89655781D01*
X219242302Y-89676597D01*
X219077552Y-89730128D01*
X218923211Y-89808768D01*
X218843256Y-89866859D01*
X218783072Y-89910586D01*
X218783070Y-89910588D01*
X218783069Y-89910588D01*
X218660588Y-90033069D01*
X218660581Y-90033078D01*
X218600317Y-90116023D01*
X218544987Y-90158689D01*
X218475374Y-90164667D01*
X218413579Y-90132061D01*
X218399683Y-90116023D01*
X218351899Y-90050257D01*
X218339414Y-90033072D01*
X218216928Y-89910586D01*
X218076788Y-89808768D01*
X217922445Y-89730127D01*
X217757701Y-89676598D01*
X217757699Y-89676597D01*
X217757698Y-89676597D01*
X217626271Y-89655781D01*
X217586611Y-89649500D01*
X217413389Y-89649500D01*
X217373728Y-89655781D01*
X217242302Y-89676597D01*
X217077552Y-89730128D01*
X216923211Y-89808768D01*
X216843256Y-89866859D01*
X216783072Y-89910586D01*
X216783070Y-89910588D01*
X216783069Y-89910588D01*
X216660588Y-90033069D01*
X216660581Y-90033078D01*
X216600317Y-90116023D01*
X216544987Y-90158689D01*
X216475374Y-90164667D01*
X216413579Y-90132061D01*
X216399683Y-90116023D01*
X216351899Y-90050257D01*
X216339414Y-90033072D01*
X216216928Y-89910586D01*
X216076788Y-89808768D01*
X215922445Y-89730127D01*
X215757701Y-89676598D01*
X215757699Y-89676597D01*
X215757698Y-89676597D01*
X215626271Y-89655781D01*
X215586611Y-89649500D01*
X215413389Y-89649500D01*
X215373728Y-89655781D01*
X215242302Y-89676597D01*
X215077552Y-89730128D01*
X214923211Y-89808768D01*
X214783073Y-89910585D01*
X214675166Y-90018492D01*
X214613843Y-90051976D01*
X214544151Y-90046992D01*
X214488218Y-90005120D01*
X214481946Y-89995906D01*
X214442317Y-89931656D01*
X214318345Y-89807684D01*
X214169124Y-89715643D01*
X214169119Y-89715641D01*
X214002697Y-89660494D01*
X214002690Y-89660493D01*
X213899986Y-89650000D01*
X213750000Y-89650000D01*
X213750000Y-90744670D01*
X213730255Y-90724925D01*
X213644745Y-90675556D01*
X213549370Y-90650000D01*
X213450630Y-90650000D01*
X213355255Y-90675556D01*
X213269745Y-90724925D01*
X213250000Y-90744670D01*
X213250000Y-89650000D01*
X213100027Y-89650000D01*
X213100012Y-89650001D01*
X212997302Y-89660494D01*
X212830880Y-89715641D01*
X212830875Y-89715643D01*
X212681654Y-89807684D01*
X212557684Y-89931654D01*
X212465643Y-90080875D01*
X212465641Y-90080880D01*
X212410494Y-90247302D01*
X212410493Y-90247309D01*
X212400000Y-90350013D01*
X127990637Y-90350013D01*
X127990640Y-90346762D01*
X127995032Y-85002056D01*
X127995945Y-83890468D01*
X127996237Y-83535068D01*
X128001970Y-76558197D01*
X130622500Y-76558197D01*
X130622500Y-76563425D01*
X130622500Y-80561807D01*
X130646612Y-80683028D01*
X130646613Y-80683034D01*
X130646614Y-80683035D01*
X130663790Y-80724500D01*
X130693917Y-80797233D01*
X130711897Y-80824142D01*
X130716446Y-80830950D01*
X130716448Y-80830954D01*
X130762585Y-80900003D01*
X130762591Y-80900011D01*
X132504988Y-82642408D01*
X132504992Y-82642411D01*
X132607760Y-82711079D01*
X132607773Y-82711086D01*
X132698675Y-82748738D01*
X132721965Y-82758385D01*
X132721969Y-82758385D01*
X132721970Y-82758386D01*
X132843193Y-82782500D01*
X132843196Y-82782500D01*
X132843197Y-82782500D01*
X136942434Y-82782500D01*
X137009473Y-82802185D01*
X137055228Y-82854989D01*
X137066052Y-82916230D01*
X137064135Y-82940581D01*
X137627425Y-83503871D01*
X137568147Y-83519755D01*
X137451853Y-83586898D01*
X137356898Y-83681853D01*
X137289755Y-83798147D01*
X137273871Y-83857425D01*
X136710581Y-83294135D01*
X136710580Y-83294135D01*
X136683077Y-83331990D01*
X136592679Y-83509405D01*
X136531147Y-83698777D01*
X136500000Y-83895436D01*
X136500000Y-84094563D01*
X136531147Y-84291222D01*
X136592679Y-84480594D01*
X136683077Y-84658008D01*
X136710580Y-84695863D01*
X136710581Y-84695864D01*
X137273871Y-84132574D01*
X137289755Y-84191853D01*
X137356898Y-84308147D01*
X137451853Y-84403102D01*
X137568147Y-84470245D01*
X137627425Y-84486128D01*
X137064134Y-85049417D01*
X137101994Y-85076924D01*
X137279405Y-85167320D01*
X137468777Y-85228852D01*
X137665437Y-85260000D01*
X137864563Y-85260000D01*
X138061222Y-85228852D01*
X138250594Y-85167320D01*
X138428005Y-85076924D01*
X138465863Y-85049418D01*
X138465863Y-85049417D01*
X137902574Y-84486128D01*
X137961853Y-84470245D01*
X138078147Y-84403102D01*
X138173102Y-84308147D01*
X138240245Y-84191853D01*
X138256128Y-84132574D01*
X138819417Y-84695863D01*
X138819418Y-84695863D01*
X138846924Y-84658005D01*
X138924234Y-84506277D01*
X138972208Y-84455481D01*
X139040029Y-84438686D01*
X139106164Y-84461223D01*
X139145204Y-84506277D01*
X139222514Y-84658005D01*
X139222647Y-84658266D01*
X139339731Y-84819418D01*
X139480582Y-84960269D01*
X139641734Y-85077353D01*
X139818304Y-85167320D01*
X139819219Y-85167786D01*
X140008657Y-85229338D01*
X140008658Y-85229338D01*
X140008661Y-85229339D01*
X140205403Y-85260500D01*
X140205404Y-85260500D01*
X140404596Y-85260500D01*
X140404597Y-85260500D01*
X140601339Y-85229339D01*
X140601342Y-85229338D01*
X140601343Y-85229338D01*
X140790780Y-85167786D01*
X140790780Y-85167785D01*
X140790783Y-85167785D01*
X140968266Y-85077353D01*
X141129418Y-84960269D01*
X141270269Y-84819418D01*
X141387353Y-84658266D01*
X141464515Y-84506827D01*
X141512490Y-84456031D01*
X141580311Y-84439236D01*
X141646446Y-84461773D01*
X141685485Y-84506827D01*
X141762647Y-84658266D01*
X141879731Y-84819418D01*
X142020582Y-84960269D01*
X142181734Y-85077353D01*
X142358304Y-85167320D01*
X142359219Y-85167786D01*
X142548657Y-85229338D01*
X142548658Y-85229338D01*
X142548661Y-85229339D01*
X142745403Y-85260500D01*
X142745404Y-85260500D01*
X142944596Y-85260500D01*
X142944597Y-85260500D01*
X143141339Y-85229339D01*
X143141342Y-85229338D01*
X143141343Y-85229338D01*
X143330780Y-85167786D01*
X143330780Y-85167785D01*
X143330783Y-85167785D01*
X143508266Y-85077353D01*
X143669418Y-84960269D01*
X143810269Y-84819418D01*
X143927353Y-84658266D01*
X144004515Y-84506827D01*
X144052490Y-84456031D01*
X144120311Y-84439236D01*
X144186446Y-84461773D01*
X144225485Y-84506827D01*
X144302647Y-84658266D01*
X144419731Y-84819418D01*
X144560582Y-84960269D01*
X144721734Y-85077353D01*
X144898304Y-85167320D01*
X144899219Y-85167786D01*
X145088657Y-85229338D01*
X145088658Y-85229338D01*
X145088661Y-85229339D01*
X145285403Y-85260500D01*
X145285404Y-85260500D01*
X145484596Y-85260500D01*
X145484597Y-85260500D01*
X145681339Y-85229339D01*
X145681342Y-85229338D01*
X145681343Y-85229338D01*
X145870780Y-85167786D01*
X145870780Y-85167785D01*
X145870783Y-85167785D01*
X146048266Y-85077353D01*
X146209418Y-84960269D01*
X146350269Y-84819418D01*
X146467353Y-84658266D01*
X146544515Y-84506827D01*
X146592490Y-84456031D01*
X146660311Y-84439236D01*
X146726446Y-84461773D01*
X146765485Y-84506827D01*
X146842647Y-84658266D01*
X146959731Y-84819418D01*
X147100582Y-84960269D01*
X147261734Y-85077353D01*
X147438304Y-85167320D01*
X147439219Y-85167786D01*
X147628657Y-85229338D01*
X147628658Y-85229338D01*
X147628661Y-85229339D01*
X147825403Y-85260500D01*
X147825404Y-85260500D01*
X148024596Y-85260500D01*
X148024597Y-85260500D01*
X148221339Y-85229339D01*
X148221342Y-85229338D01*
X148221343Y-85229338D01*
X148410780Y-85167786D01*
X148410780Y-85167785D01*
X148410783Y-85167785D01*
X148588266Y-85077353D01*
X148749418Y-84960269D01*
X148890269Y-84819418D01*
X149007353Y-84658266D01*
X149084515Y-84506827D01*
X149132490Y-84456031D01*
X149200311Y-84439236D01*
X149266446Y-84461773D01*
X149305485Y-84506827D01*
X149382647Y-84658266D01*
X149499731Y-84819418D01*
X149640582Y-84960269D01*
X149801734Y-85077353D01*
X149978304Y-85167320D01*
X149979219Y-85167786D01*
X150168657Y-85229338D01*
X150168658Y-85229338D01*
X150168661Y-85229339D01*
X150365403Y-85260500D01*
X150365404Y-85260500D01*
X150564596Y-85260500D01*
X150564597Y-85260500D01*
X150761339Y-85229339D01*
X150761342Y-85229338D01*
X150761343Y-85229338D01*
X150950780Y-85167786D01*
X150950780Y-85167785D01*
X150950783Y-85167785D01*
X151128266Y-85077353D01*
X151289418Y-84960269D01*
X151430269Y-84819418D01*
X151547353Y-84658266D01*
X151624515Y-84506827D01*
X151672490Y-84456031D01*
X151740311Y-84439236D01*
X151806446Y-84461773D01*
X151845485Y-84506827D01*
X151922647Y-84658266D01*
X152039731Y-84819418D01*
X152180582Y-84960269D01*
X152341734Y-85077353D01*
X152518304Y-85167320D01*
X152519219Y-85167786D01*
X152708657Y-85229338D01*
X152708658Y-85229338D01*
X152708661Y-85229339D01*
X152905403Y-85260500D01*
X152905404Y-85260500D01*
X153104596Y-85260500D01*
X153104597Y-85260500D01*
X153301339Y-85229339D01*
X153301342Y-85229338D01*
X153301343Y-85229338D01*
X153490780Y-85167786D01*
X153490780Y-85167785D01*
X153490783Y-85167785D01*
X153668266Y-85077353D01*
X153829418Y-84960269D01*
X153970269Y-84819418D01*
X154087353Y-84658266D01*
X154164515Y-84506827D01*
X154212490Y-84456031D01*
X154280311Y-84439236D01*
X154346446Y-84461773D01*
X154385485Y-84506827D01*
X154462647Y-84658266D01*
X154579731Y-84819418D01*
X154720582Y-84960269D01*
X154881734Y-85077353D01*
X155058304Y-85167320D01*
X155059219Y-85167786D01*
X155248657Y-85229338D01*
X155248658Y-85229338D01*
X155248661Y-85229339D01*
X155445403Y-85260500D01*
X155445404Y-85260500D01*
X155644596Y-85260500D01*
X155644597Y-85260500D01*
X155841339Y-85229339D01*
X155841342Y-85229338D01*
X155841343Y-85229338D01*
X156030780Y-85167786D01*
X156030780Y-85167785D01*
X156030783Y-85167785D01*
X156208266Y-85077353D01*
X156369418Y-84960269D01*
X156510269Y-84819418D01*
X156627353Y-84658266D01*
X156704515Y-84506827D01*
X156752490Y-84456031D01*
X156820311Y-84439236D01*
X156886446Y-84461773D01*
X156925485Y-84506827D01*
X157002647Y-84658266D01*
X157119731Y-84819418D01*
X157260582Y-84960269D01*
X157421734Y-85077353D01*
X157598304Y-85167320D01*
X157599219Y-85167786D01*
X157788657Y-85229338D01*
X157788658Y-85229338D01*
X157788661Y-85229339D01*
X157985403Y-85260500D01*
X157985404Y-85260500D01*
X158184596Y-85260500D01*
X158184597Y-85260500D01*
X158381339Y-85229339D01*
X158381342Y-85229338D01*
X158381343Y-85229338D01*
X158570780Y-85167786D01*
X158570780Y-85167785D01*
X158570783Y-85167785D01*
X158748266Y-85077353D01*
X158909418Y-84960269D01*
X159050269Y-84819418D01*
X159167353Y-84658266D01*
X159244515Y-84506827D01*
X159292490Y-84456031D01*
X159360311Y-84439236D01*
X159426446Y-84461773D01*
X159465485Y-84506827D01*
X159542647Y-84658266D01*
X159659731Y-84819418D01*
X159800582Y-84960269D01*
X159961734Y-85077353D01*
X160138304Y-85167320D01*
X160139219Y-85167786D01*
X160328657Y-85229338D01*
X160328658Y-85229338D01*
X160328661Y-85229339D01*
X160525403Y-85260500D01*
X160525404Y-85260500D01*
X160724596Y-85260500D01*
X160724597Y-85260500D01*
X160921339Y-85229339D01*
X160921342Y-85229338D01*
X160921343Y-85229338D01*
X161110780Y-85167786D01*
X161110780Y-85167785D01*
X161110783Y-85167785D01*
X161288266Y-85077353D01*
X161449418Y-84960269D01*
X161590269Y-84819418D01*
X161707353Y-84658266D01*
X161784515Y-84506827D01*
X161832490Y-84456031D01*
X161900311Y-84439236D01*
X161966446Y-84461773D01*
X162005485Y-84506827D01*
X162082647Y-84658266D01*
X162199731Y-84819418D01*
X162340582Y-84960269D01*
X162501734Y-85077353D01*
X162678304Y-85167320D01*
X162679219Y-85167786D01*
X162868657Y-85229338D01*
X162868658Y-85229338D01*
X162868661Y-85229339D01*
X163065403Y-85260500D01*
X163065404Y-85260500D01*
X163264596Y-85260500D01*
X163264597Y-85260500D01*
X163461339Y-85229339D01*
X163461342Y-85229338D01*
X163461343Y-85229338D01*
X163650780Y-85167786D01*
X163650780Y-85167785D01*
X163650783Y-85167785D01*
X163828266Y-85077353D01*
X163989418Y-84960269D01*
X164130269Y-84819418D01*
X164247353Y-84658266D01*
X164324515Y-84506827D01*
X164372490Y-84456031D01*
X164440311Y-84439236D01*
X164506446Y-84461773D01*
X164545485Y-84506827D01*
X164622647Y-84658266D01*
X164739731Y-84819418D01*
X164880582Y-84960269D01*
X165041734Y-85077353D01*
X165218304Y-85167320D01*
X165219219Y-85167786D01*
X165408657Y-85229338D01*
X165408658Y-85229338D01*
X165408661Y-85229339D01*
X165605403Y-85260500D01*
X165605404Y-85260500D01*
X165804596Y-85260500D01*
X165804597Y-85260500D01*
X166001339Y-85229339D01*
X166001342Y-85229338D01*
X166001343Y-85229338D01*
X166190780Y-85167786D01*
X166190780Y-85167785D01*
X166190783Y-85167785D01*
X166368266Y-85077353D01*
X166529418Y-84960269D01*
X166670269Y-84819418D01*
X166787353Y-84658266D01*
X166864515Y-84506827D01*
X166912490Y-84456031D01*
X166980311Y-84439236D01*
X167046446Y-84461773D01*
X167085485Y-84506827D01*
X167162647Y-84658266D01*
X167279731Y-84819418D01*
X167420582Y-84960269D01*
X167581734Y-85077353D01*
X167758304Y-85167320D01*
X167759219Y-85167786D01*
X167948657Y-85229338D01*
X167948658Y-85229338D01*
X167948661Y-85229339D01*
X168145403Y-85260500D01*
X168145404Y-85260500D01*
X168344596Y-85260500D01*
X168344597Y-85260500D01*
X168541339Y-85229339D01*
X168541342Y-85229338D01*
X168541343Y-85229338D01*
X168730780Y-85167786D01*
X168730780Y-85167785D01*
X168730783Y-85167785D01*
X168908266Y-85077353D01*
X169069418Y-84960269D01*
X169210269Y-84819418D01*
X169327353Y-84658266D01*
X169404515Y-84506827D01*
X169452490Y-84456031D01*
X169520311Y-84439236D01*
X169586446Y-84461773D01*
X169625485Y-84506827D01*
X169702647Y-84658266D01*
X169819731Y-84819418D01*
X169960582Y-84960269D01*
X170121734Y-85077353D01*
X170298304Y-85167320D01*
X170299219Y-85167786D01*
X170488657Y-85229338D01*
X170488658Y-85229338D01*
X170488661Y-85229339D01*
X170685403Y-85260500D01*
X170685404Y-85260500D01*
X170884596Y-85260500D01*
X170884597Y-85260500D01*
X171081339Y-85229339D01*
X171081342Y-85229338D01*
X171081343Y-85229338D01*
X171270780Y-85167786D01*
X171270780Y-85167785D01*
X171270783Y-85167785D01*
X171448266Y-85077353D01*
X171609418Y-84960269D01*
X171750269Y-84819418D01*
X171867353Y-84658266D01*
X171944515Y-84506827D01*
X171992490Y-84456031D01*
X172060311Y-84439236D01*
X172126446Y-84461773D01*
X172165485Y-84506827D01*
X172242647Y-84658266D01*
X172359731Y-84819418D01*
X172500582Y-84960269D01*
X172661734Y-85077353D01*
X172838304Y-85167320D01*
X172839219Y-85167786D01*
X173028657Y-85229338D01*
X173028658Y-85229338D01*
X173028661Y-85229339D01*
X173225403Y-85260500D01*
X173225404Y-85260500D01*
X173424596Y-85260500D01*
X173424597Y-85260500D01*
X173621339Y-85229339D01*
X173621342Y-85229338D01*
X173621343Y-85229338D01*
X173810780Y-85167786D01*
X173810780Y-85167785D01*
X173810783Y-85167785D01*
X173988266Y-85077353D01*
X174149418Y-84960269D01*
X174290269Y-84819418D01*
X174407353Y-84658266D01*
X174484515Y-84506827D01*
X174532490Y-84456031D01*
X174600311Y-84439236D01*
X174666446Y-84461773D01*
X174705485Y-84506827D01*
X174782647Y-84658266D01*
X174899731Y-84819418D01*
X175040582Y-84960269D01*
X175201734Y-85077353D01*
X175378304Y-85167320D01*
X175379219Y-85167786D01*
X175568657Y-85229338D01*
X175568658Y-85229338D01*
X175568661Y-85229339D01*
X175765403Y-85260500D01*
X175765404Y-85260500D01*
X175964596Y-85260500D01*
X175964597Y-85260500D01*
X176161339Y-85229339D01*
X176161342Y-85229338D01*
X176161343Y-85229338D01*
X176350780Y-85167786D01*
X176350780Y-85167785D01*
X176350783Y-85167785D01*
X176528266Y-85077353D01*
X176689418Y-84960269D01*
X176830269Y-84819418D01*
X176947353Y-84658266D01*
X177024515Y-84506827D01*
X177072490Y-84456031D01*
X177140311Y-84439236D01*
X177206446Y-84461773D01*
X177245485Y-84506827D01*
X177322647Y-84658266D01*
X177439731Y-84819418D01*
X177580582Y-84960269D01*
X177741734Y-85077353D01*
X177918304Y-85167320D01*
X177919219Y-85167786D01*
X178108657Y-85229338D01*
X178108658Y-85229338D01*
X178108661Y-85229339D01*
X178305403Y-85260500D01*
X178305404Y-85260500D01*
X178504596Y-85260500D01*
X178504597Y-85260500D01*
X178701339Y-85229339D01*
X178701342Y-85229338D01*
X178701343Y-85229338D01*
X178890780Y-85167786D01*
X178890780Y-85167785D01*
X178890783Y-85167785D01*
X179068266Y-85077353D01*
X179229418Y-84960269D01*
X179370269Y-84819418D01*
X179487353Y-84658266D01*
X179564515Y-84506827D01*
X179612490Y-84456031D01*
X179680311Y-84439236D01*
X179746446Y-84461773D01*
X179785485Y-84506827D01*
X179862647Y-84658266D01*
X179979731Y-84819418D01*
X180120582Y-84960269D01*
X180281734Y-85077353D01*
X180458304Y-85167320D01*
X180459219Y-85167786D01*
X180648657Y-85229338D01*
X180648658Y-85229338D01*
X180648661Y-85229339D01*
X180845403Y-85260500D01*
X180845404Y-85260500D01*
X181044596Y-85260500D01*
X181044597Y-85260500D01*
X181241339Y-85229339D01*
X181241342Y-85229338D01*
X181241343Y-85229338D01*
X181430780Y-85167786D01*
X181430780Y-85167785D01*
X181430783Y-85167785D01*
X181608266Y-85077353D01*
X181769418Y-84960269D01*
X181910269Y-84819418D01*
X182027353Y-84658266D01*
X182104515Y-84506827D01*
X182152490Y-84456031D01*
X182220311Y-84439236D01*
X182286446Y-84461773D01*
X182325485Y-84506827D01*
X182402647Y-84658266D01*
X182519731Y-84819418D01*
X182660582Y-84960269D01*
X182821734Y-85077353D01*
X182998304Y-85167320D01*
X182999219Y-85167786D01*
X183188657Y-85229338D01*
X183188658Y-85229338D01*
X183188661Y-85229339D01*
X183385403Y-85260500D01*
X183385404Y-85260500D01*
X183584596Y-85260500D01*
X183584597Y-85260500D01*
X183781339Y-85229339D01*
X183781342Y-85229338D01*
X183781343Y-85229338D01*
X183970780Y-85167786D01*
X183970780Y-85167785D01*
X183970783Y-85167785D01*
X184148266Y-85077353D01*
X184309418Y-84960269D01*
X184450269Y-84819418D01*
X184567353Y-84658266D01*
X184644515Y-84506827D01*
X184692490Y-84456031D01*
X184760311Y-84439236D01*
X184826446Y-84461773D01*
X184865485Y-84506827D01*
X184942647Y-84658266D01*
X185059731Y-84819418D01*
X185200582Y-84960269D01*
X185361734Y-85077353D01*
X185538304Y-85167320D01*
X185539219Y-85167786D01*
X185728657Y-85229338D01*
X185728658Y-85229338D01*
X185728661Y-85229339D01*
X185925403Y-85260500D01*
X185925404Y-85260500D01*
X186124596Y-85260500D01*
X186124597Y-85260500D01*
X186321339Y-85229339D01*
X186321342Y-85229338D01*
X186321343Y-85229338D01*
X186510780Y-85167786D01*
X186510780Y-85167785D01*
X186510783Y-85167785D01*
X186688266Y-85077353D01*
X186849418Y-84960269D01*
X186990269Y-84819418D01*
X187107353Y-84658266D01*
X187184795Y-84506276D01*
X187232769Y-84455481D01*
X187300590Y-84438686D01*
X187366725Y-84461223D01*
X187405765Y-84506277D01*
X187483077Y-84658008D01*
X187510580Y-84695863D01*
X187510581Y-84695864D01*
X188073871Y-84132574D01*
X188089755Y-84191853D01*
X188156898Y-84308147D01*
X188251853Y-84403102D01*
X188368147Y-84470245D01*
X188427425Y-84486128D01*
X187864134Y-85049417D01*
X187901994Y-85076924D01*
X188079405Y-85167320D01*
X188268777Y-85228852D01*
X188465437Y-85260000D01*
X188664563Y-85260000D01*
X188861222Y-85228852D01*
X189050594Y-85167320D01*
X189228005Y-85076924D01*
X189265863Y-85049418D01*
X189265863Y-85049417D01*
X188702574Y-84486128D01*
X188761853Y-84470245D01*
X188878147Y-84403102D01*
X188973102Y-84308147D01*
X189040245Y-84191853D01*
X189056128Y-84132574D01*
X189619417Y-84695863D01*
X189619418Y-84695863D01*
X189646924Y-84658005D01*
X189724515Y-84505727D01*
X189772490Y-84454931D01*
X189840311Y-84438136D01*
X189906446Y-84460674D01*
X189945485Y-84505727D01*
X190023077Y-84658008D01*
X190050580Y-84695863D01*
X190050581Y-84695864D01*
X190613871Y-84132574D01*
X190629755Y-84191853D01*
X190696898Y-84308147D01*
X190791853Y-84403102D01*
X190908147Y-84470245D01*
X190967425Y-84486128D01*
X190404134Y-85049417D01*
X190441994Y-85076924D01*
X190619405Y-85167320D01*
X190808777Y-85228852D01*
X191005437Y-85260000D01*
X191204563Y-85260000D01*
X191401222Y-85228852D01*
X191590594Y-85167320D01*
X191768005Y-85076924D01*
X191805863Y-85049418D01*
X191805863Y-85049417D01*
X191242574Y-84486128D01*
X191301853Y-84470245D01*
X191418147Y-84403102D01*
X191513102Y-84308147D01*
X191580245Y-84191853D01*
X191596128Y-84132574D01*
X192159417Y-84695863D01*
X192159418Y-84695863D01*
X192186924Y-84658005D01*
X192277320Y-84480594D01*
X192338852Y-84291222D01*
X192370000Y-84094563D01*
X192370000Y-83895436D01*
X192338852Y-83698777D01*
X192277320Y-83509405D01*
X192186924Y-83331994D01*
X192159417Y-83294135D01*
X192159417Y-83294134D01*
X191596128Y-83857424D01*
X191580245Y-83798147D01*
X191513102Y-83681853D01*
X191418147Y-83586898D01*
X191301853Y-83519755D01*
X191242574Y-83503871D01*
X191805864Y-82940581D01*
X191805863Y-82940580D01*
X191768008Y-82913077D01*
X191590594Y-82822679D01*
X191401222Y-82761147D01*
X191204563Y-82730000D01*
X191005437Y-82730000D01*
X190808777Y-82761147D01*
X190619405Y-82822679D01*
X190441990Y-82913077D01*
X190404135Y-82940580D01*
X190404135Y-82940581D01*
X190967425Y-83503871D01*
X190908147Y-83519755D01*
X190791853Y-83586898D01*
X190696898Y-83681853D01*
X190629755Y-83798147D01*
X190613871Y-83857425D01*
X190050581Y-83294135D01*
X190050580Y-83294135D01*
X190023074Y-83331995D01*
X190023073Y-83331996D01*
X189945484Y-83484272D01*
X189897510Y-83535068D01*
X189829689Y-83551863D01*
X189763554Y-83529325D01*
X189724516Y-83484272D01*
X189646928Y-83331999D01*
X189619417Y-83294135D01*
X189619417Y-83294134D01*
X189056128Y-83857424D01*
X189040245Y-83798147D01*
X188973102Y-83681853D01*
X188878147Y-83586898D01*
X188761853Y-83519755D01*
X188702574Y-83503871D01*
X189265864Y-82940581D01*
X189265863Y-82940580D01*
X189228008Y-82913077D01*
X189050594Y-82822679D01*
X188861222Y-82761147D01*
X188664563Y-82730000D01*
X188465437Y-82730000D01*
X188268777Y-82761147D01*
X188079405Y-82822679D01*
X187901990Y-82913077D01*
X187864135Y-82940580D01*
X187864135Y-82940581D01*
X188427425Y-83503871D01*
X188368147Y-83519755D01*
X188251853Y-83586898D01*
X188156898Y-83681853D01*
X188089755Y-83798147D01*
X188073871Y-83857425D01*
X187510581Y-83294135D01*
X187510580Y-83294135D01*
X187483075Y-83331993D01*
X187405764Y-83483723D01*
X187357790Y-83534518D01*
X187289969Y-83551313D01*
X187223834Y-83528775D01*
X187184795Y-83483722D01*
X187107486Y-83331996D01*
X187107353Y-83331734D01*
X186990269Y-83170582D01*
X186849418Y-83029731D01*
X186688266Y-82912647D01*
X186575106Y-82854989D01*
X186510780Y-82822213D01*
X186321342Y-82760661D01*
X186173782Y-82737290D01*
X186124597Y-82729500D01*
X185925403Y-82729500D01*
X185859822Y-82739887D01*
X185728659Y-82760661D01*
X185728656Y-82760661D01*
X185539219Y-82822213D01*
X185361733Y-82912647D01*
X185290356Y-82964506D01*
X185200582Y-83029731D01*
X185200580Y-83029733D01*
X185200579Y-83029733D01*
X185059733Y-83170579D01*
X185059733Y-83170580D01*
X185059731Y-83170582D01*
X185009447Y-83239790D01*
X184942647Y-83331733D01*
X184865485Y-83483172D01*
X184817510Y-83533968D01*
X184749689Y-83550763D01*
X184683554Y-83528225D01*
X184644515Y-83483172D01*
X184567486Y-83331996D01*
X184567353Y-83331734D01*
X184450269Y-83170582D01*
X184309418Y-83029731D01*
X184148266Y-82912647D01*
X184035106Y-82854989D01*
X183970780Y-82822213D01*
X183781342Y-82760661D01*
X183633782Y-82737290D01*
X183584597Y-82729500D01*
X183385403Y-82729500D01*
X183319822Y-82739887D01*
X183188659Y-82760661D01*
X183188656Y-82760661D01*
X182999219Y-82822213D01*
X182821733Y-82912647D01*
X182750356Y-82964506D01*
X182660582Y-83029731D01*
X182660580Y-83029733D01*
X182660579Y-83029733D01*
X182519733Y-83170579D01*
X182519733Y-83170580D01*
X182519731Y-83170582D01*
X182469447Y-83239790D01*
X182402647Y-83331733D01*
X182325485Y-83483172D01*
X182277510Y-83533968D01*
X182209689Y-83550763D01*
X182143554Y-83528225D01*
X182104515Y-83483172D01*
X182027486Y-83331996D01*
X182027353Y-83331734D01*
X181910269Y-83170582D01*
X181769418Y-83029731D01*
X181608266Y-82912647D01*
X181495106Y-82854989D01*
X181430780Y-82822213D01*
X181241342Y-82760661D01*
X181093782Y-82737290D01*
X181044597Y-82729500D01*
X180845403Y-82729500D01*
X180779822Y-82739887D01*
X180648659Y-82760661D01*
X180648656Y-82760661D01*
X180459219Y-82822213D01*
X180281733Y-82912647D01*
X180210356Y-82964506D01*
X180120582Y-83029731D01*
X180120580Y-83029733D01*
X180120579Y-83029733D01*
X179979733Y-83170579D01*
X179979733Y-83170580D01*
X179979731Y-83170582D01*
X179929447Y-83239790D01*
X179862647Y-83331733D01*
X179785485Y-83483172D01*
X179737510Y-83533968D01*
X179669689Y-83550763D01*
X179603554Y-83528225D01*
X179564515Y-83483172D01*
X179487486Y-83331996D01*
X179487353Y-83331734D01*
X179370269Y-83170582D01*
X179229418Y-83029731D01*
X179068266Y-82912647D01*
X178955106Y-82854989D01*
X178890780Y-82822213D01*
X178701342Y-82760661D01*
X178553782Y-82737290D01*
X178504597Y-82729500D01*
X178305403Y-82729500D01*
X178222117Y-82742691D01*
X178127399Y-82757693D01*
X178058105Y-82748738D01*
X178020320Y-82722901D01*
X176306964Y-81009545D01*
X176222432Y-80925013D01*
X212400000Y-80925013D01*
X212400000Y-81350000D01*
X213219670Y-81350000D01*
X213199925Y-81369745D01*
X213150556Y-81455255D01*
X213125000Y-81550630D01*
X213125000Y-81649370D01*
X213150556Y-81744745D01*
X213199925Y-81830255D01*
X213219670Y-81850000D01*
X212400001Y-81850000D01*
X212400001Y-82274986D01*
X212410494Y-82377697D01*
X212465641Y-82544119D01*
X212465643Y-82544124D01*
X212557684Y-82693345D01*
X212681654Y-82817315D01*
X212830875Y-82909356D01*
X212830880Y-82909358D01*
X212997302Y-82964505D01*
X212997309Y-82964506D01*
X213100019Y-82974999D01*
X213249999Y-82974999D01*
X213250000Y-82974998D01*
X213250000Y-81880330D01*
X213269745Y-81900075D01*
X213355255Y-81949444D01*
X213450630Y-81975000D01*
X213549370Y-81975000D01*
X213644745Y-81949444D01*
X213730255Y-81900075D01*
X213750000Y-81880330D01*
X213750000Y-82974999D01*
X213899972Y-82974999D01*
X213899986Y-82974998D01*
X214002697Y-82964505D01*
X214169119Y-82909358D01*
X214169124Y-82909356D01*
X214318345Y-82817315D01*
X214442315Y-82693345D01*
X214481945Y-82629094D01*
X214533893Y-82582368D01*
X214602855Y-82571145D01*
X214666937Y-82598988D01*
X214675166Y-82606508D01*
X214783072Y-82714414D01*
X214923212Y-82816232D01*
X215077555Y-82894873D01*
X215242299Y-82948402D01*
X215413389Y-82975500D01*
X215413390Y-82975500D01*
X215586610Y-82975500D01*
X215586611Y-82975500D01*
X215757701Y-82948402D01*
X215922445Y-82894873D01*
X216076788Y-82816232D01*
X216216928Y-82714414D01*
X216339414Y-82591928D01*
X216399682Y-82508975D01*
X216455012Y-82466311D01*
X216524626Y-82460332D01*
X216586421Y-82492938D01*
X216600315Y-82508973D01*
X216660586Y-82591928D01*
X216783072Y-82714414D01*
X216923212Y-82816232D01*
X217077555Y-82894873D01*
X217242299Y-82948402D01*
X217413389Y-82975500D01*
X217413390Y-82975500D01*
X217586610Y-82975500D01*
X217586611Y-82975500D01*
X217757701Y-82948402D01*
X217922445Y-82894873D01*
X218076788Y-82816232D01*
X218216928Y-82714414D01*
X218339414Y-82591928D01*
X218399682Y-82508975D01*
X218455012Y-82466311D01*
X218524626Y-82460332D01*
X218586421Y-82492938D01*
X218600315Y-82508973D01*
X218660586Y-82591928D01*
X218783072Y-82714414D01*
X218923212Y-82816232D01*
X219077555Y-82894873D01*
X219242299Y-82948402D01*
X219413389Y-82975500D01*
X219413390Y-82975500D01*
X219586610Y-82975500D01*
X219586611Y-82975500D01*
X219757701Y-82948402D01*
X219922445Y-82894873D01*
X220076788Y-82816232D01*
X220216928Y-82714414D01*
X220339414Y-82591928D01*
X220441232Y-82451788D01*
X220519873Y-82297445D01*
X220573402Y-82132701D01*
X220600500Y-81961611D01*
X220600500Y-81238389D01*
X220573402Y-81067299D01*
X220519873Y-80902555D01*
X220441232Y-80748212D01*
X220339414Y-80608072D01*
X220216928Y-80485586D01*
X220076788Y-80383768D01*
X219922445Y-80305127D01*
X219757701Y-80251598D01*
X219757699Y-80251597D01*
X219757698Y-80251597D01*
X219617921Y-80229459D01*
X219586611Y-80224500D01*
X219413389Y-80224500D01*
X219382079Y-80229459D01*
X219242302Y-80251597D01*
X219077552Y-80305128D01*
X218923211Y-80383768D01*
X218848297Y-80438197D01*
X218783072Y-80485586D01*
X218783070Y-80485588D01*
X218783069Y-80485588D01*
X218660588Y-80608069D01*
X218660581Y-80608078D01*
X218600317Y-80691023D01*
X218544987Y-80733689D01*
X218475374Y-80739667D01*
X218413579Y-80707061D01*
X218399683Y-80691023D01*
X218351899Y-80625257D01*
X218339414Y-80608072D01*
X218216928Y-80485586D01*
X218076788Y-80383768D01*
X217922445Y-80305127D01*
X217757701Y-80251598D01*
X217757699Y-80251597D01*
X217757698Y-80251597D01*
X217617921Y-80229459D01*
X217586611Y-80224500D01*
X217413389Y-80224500D01*
X217382079Y-80229459D01*
X217242302Y-80251597D01*
X217077552Y-80305128D01*
X216923211Y-80383768D01*
X216848297Y-80438197D01*
X216783072Y-80485586D01*
X216783070Y-80485588D01*
X216783069Y-80485588D01*
X216660588Y-80608069D01*
X216660581Y-80608078D01*
X216600317Y-80691023D01*
X216544987Y-80733689D01*
X216475374Y-80739667D01*
X216413579Y-80707061D01*
X216399683Y-80691023D01*
X216351899Y-80625257D01*
X216339414Y-80608072D01*
X216216928Y-80485586D01*
X216076788Y-80383768D01*
X215922445Y-80305127D01*
X215757701Y-80251598D01*
X215757699Y-80251597D01*
X215757698Y-80251597D01*
X215617921Y-80229459D01*
X215586611Y-80224500D01*
X215413389Y-80224500D01*
X215382079Y-80229459D01*
X215242302Y-80251597D01*
X215077552Y-80305128D01*
X214923211Y-80383768D01*
X214783073Y-80485585D01*
X214675166Y-80593492D01*
X214613843Y-80626976D01*
X214544151Y-80621992D01*
X214488218Y-80580120D01*
X214481946Y-80570906D01*
X214442317Y-80506656D01*
X214318345Y-80382684D01*
X214169124Y-80290643D01*
X214169119Y-80290641D01*
X214002697Y-80235494D01*
X214002690Y-80235493D01*
X213899986Y-80225000D01*
X213750000Y-80225000D01*
X213750000Y-81319670D01*
X213730255Y-81299925D01*
X213644745Y-81250556D01*
X213549370Y-81225000D01*
X213450630Y-81225000D01*
X213355255Y-81250556D01*
X213269745Y-81299925D01*
X213250000Y-81319670D01*
X213250000Y-80225000D01*
X213100027Y-80225000D01*
X213100012Y-80225001D01*
X212997302Y-80235494D01*
X212830880Y-80290641D01*
X212830875Y-80290643D01*
X212681654Y-80382684D01*
X212557684Y-80506654D01*
X212465643Y-80655875D01*
X212465641Y-80655880D01*
X212410494Y-80822302D01*
X212410493Y-80822309D01*
X212400000Y-80925013D01*
X176222432Y-80925013D01*
X173460013Y-78162593D01*
X173460010Y-78162590D01*
X173407113Y-78127246D01*
X173357233Y-78093917D01*
X173357229Y-78093915D01*
X173357227Y-78093914D01*
X173357228Y-78093914D01*
X173323785Y-78080062D01*
X173243035Y-78046614D01*
X173243027Y-78046612D01*
X173121807Y-78022500D01*
X173121803Y-78022500D01*
X147701281Y-78022500D01*
X147634242Y-78002815D01*
X147613600Y-77986181D01*
X144278035Y-74650616D01*
X140845013Y-71217593D01*
X140845006Y-71217587D01*
X140742233Y-71148917D01*
X140628035Y-71101614D01*
X140628027Y-71101612D01*
X140506807Y-71077500D01*
X140506803Y-71077500D01*
X140383197Y-71077500D01*
X140383192Y-71077500D01*
X140269490Y-71100117D01*
X140245299Y-71102500D01*
X137411961Y-71102500D01*
X137344922Y-71082815D01*
X137301475Y-71034792D01*
X137295050Y-71022181D01*
X137170109Y-70850213D01*
X137056569Y-70736673D01*
X137023084Y-70675350D01*
X137028068Y-70605658D01*
X137069940Y-70549725D01*
X137100915Y-70532810D01*
X137232331Y-70483796D01*
X137347546Y-70397546D01*
X137433796Y-70282331D01*
X137484091Y-70147483D01*
X137490500Y-70087873D01*
X137490499Y-68292128D01*
X137484091Y-68232517D01*
X137482810Y-68229083D01*
X137433797Y-68097671D01*
X137433793Y-68097664D01*
X137347547Y-67982455D01*
X137347544Y-67982452D01*
X137232335Y-67896206D01*
X137232328Y-67896202D01*
X137097482Y-67845908D01*
X137097483Y-67845908D01*
X137037883Y-67839501D01*
X137037881Y-67839500D01*
X137037873Y-67839500D01*
X137037864Y-67839500D01*
X135242129Y-67839500D01*
X135242123Y-67839501D01*
X135182516Y-67845908D01*
X135047671Y-67896202D01*
X135047664Y-67896206D01*
X134932455Y-67982452D01*
X134932452Y-67982455D01*
X134846206Y-68097664D01*
X134846203Y-68097669D01*
X134797189Y-68229083D01*
X134755317Y-68285016D01*
X134689853Y-68309433D01*
X134621580Y-68294581D01*
X134593326Y-68273430D01*
X134479786Y-68159890D01*
X134307820Y-68034951D01*
X134118414Y-67938444D01*
X134118413Y-67938443D01*
X134118412Y-67938443D01*
X133916243Y-67872754D01*
X133916241Y-67872753D01*
X133916240Y-67872753D01*
X133754957Y-67847208D01*
X133706287Y-67839500D01*
X133493713Y-67839500D01*
X133445042Y-67847208D01*
X133283760Y-67872753D01*
X133081585Y-67938444D01*
X132892179Y-68034951D01*
X132720213Y-68159890D01*
X132569890Y-68310213D01*
X132444951Y-68482179D01*
X132348444Y-68671585D01*
X132282753Y-68873760D01*
X132249500Y-69083713D01*
X132249500Y-69296286D01*
X132280088Y-69489414D01*
X132282754Y-69506243D01*
X132344081Y-69694988D01*
X132348444Y-69708414D01*
X132444951Y-69897820D01*
X132569890Y-70069786D01*
X132720213Y-70220109D01*
X132892182Y-70345050D01*
X132900946Y-70349516D01*
X132951742Y-70397491D01*
X132968536Y-70465312D01*
X132945998Y-70531447D01*
X132900946Y-70570484D01*
X132892182Y-70574949D01*
X132720213Y-70699890D01*
X132569890Y-70850213D01*
X132444951Y-71022179D01*
X132348444Y-71211585D01*
X132282753Y-71413760D01*
X132249500Y-71623713D01*
X132249500Y-71836286D01*
X132272400Y-71980875D01*
X132282754Y-72046243D01*
X132336524Y-72211730D01*
X132348444Y-72248414D01*
X132444951Y-72437820D01*
X132569890Y-72609786D01*
X132720213Y-72760109D01*
X132892182Y-72885050D01*
X132900946Y-72889516D01*
X132951742Y-72937491D01*
X132968536Y-73005312D01*
X132945998Y-73071447D01*
X132900946Y-73110484D01*
X132892182Y-73114949D01*
X132720213Y-73239890D01*
X132569890Y-73390213D01*
X132444951Y-73562179D01*
X132348444Y-73751585D01*
X132282753Y-73953760D01*
X132249500Y-74163713D01*
X132249500Y-74376286D01*
X132282753Y-74586240D01*
X132282754Y-74586245D01*
X132287128Y-74599707D01*
X132289121Y-74669549D01*
X132256877Y-74725702D01*
X131198559Y-75784022D01*
X130849992Y-76132589D01*
X130826583Y-76155998D01*
X130762586Y-76219994D01*
X130762585Y-76219996D01*
X130693923Y-76322756D01*
X130693912Y-76322776D01*
X130691135Y-76329480D01*
X130691136Y-76329481D01*
X130646615Y-76436962D01*
X130646612Y-76436972D01*
X130635490Y-76492886D01*
X130635474Y-76492970D01*
X130635318Y-76493757D01*
X130622500Y-76558197D01*
X128001970Y-76558197D01*
X128010461Y-66224983D01*
X143299500Y-66224983D01*
X143299500Y-67575001D01*
X143299501Y-67575018D01*
X143310000Y-67677796D01*
X143310001Y-67677799D01*
X143365185Y-67844331D01*
X143365187Y-67844336D01*
X143382715Y-67872753D01*
X143457288Y-67993656D01*
X143581344Y-68117712D01*
X143730666Y-68209814D01*
X143897203Y-68264999D01*
X143999991Y-68275500D01*
X144800008Y-68275499D01*
X144800016Y-68275498D01*
X144800019Y-68275498D01*
X144856302Y-68269748D01*
X144902797Y-68264999D01*
X145069334Y-68209814D01*
X145218656Y-68117712D01*
X145342712Y-67993656D01*
X145382310Y-67929456D01*
X145434258Y-67882732D01*
X145503220Y-67871509D01*
X145567303Y-67899352D01*
X145575530Y-67906872D01*
X145683072Y-68014414D01*
X145823212Y-68116232D01*
X145977555Y-68194873D01*
X146142299Y-68248402D01*
X146313389Y-68275500D01*
X146313390Y-68275500D01*
X146486610Y-68275500D01*
X146486611Y-68275500D01*
X146657701Y-68248402D01*
X146822445Y-68194873D01*
X146976788Y-68116232D01*
X147116928Y-68014414D01*
X147239414Y-67891928D01*
X147299682Y-67808975D01*
X147355012Y-67766311D01*
X147424626Y-67760332D01*
X147486421Y-67792938D01*
X147500315Y-67808973D01*
X147560586Y-67891928D01*
X147683072Y-68014414D01*
X147823212Y-68116232D01*
X147977555Y-68194873D01*
X148142299Y-68248402D01*
X148313389Y-68275500D01*
X148313390Y-68275500D01*
X148486610Y-68275500D01*
X148486611Y-68275500D01*
X148657701Y-68248402D01*
X148822445Y-68194873D01*
X148976788Y-68116232D01*
X149116928Y-68014414D01*
X149239414Y-67891928D01*
X149299682Y-67808975D01*
X149355012Y-67766311D01*
X149424626Y-67760332D01*
X149486421Y-67792938D01*
X149500315Y-67808973D01*
X149560586Y-67891928D01*
X149683072Y-68014414D01*
X149823212Y-68116232D01*
X149977555Y-68194873D01*
X150142299Y-68248402D01*
X150313389Y-68275500D01*
X150313390Y-68275500D01*
X150486610Y-68275500D01*
X150486611Y-68275500D01*
X150657701Y-68248402D01*
X150822445Y-68194873D01*
X150976788Y-68116232D01*
X151116928Y-68014414D01*
X151239414Y-67891928D01*
X151299682Y-67808975D01*
X151355012Y-67766311D01*
X151424626Y-67760332D01*
X151486421Y-67792938D01*
X151500315Y-67808973D01*
X151560586Y-67891928D01*
X151683072Y-68014414D01*
X151823212Y-68116232D01*
X151977555Y-68194873D01*
X152142299Y-68248402D01*
X152313389Y-68275500D01*
X152313390Y-68275500D01*
X152486610Y-68275500D01*
X152486611Y-68275500D01*
X152657701Y-68248402D01*
X152822445Y-68194873D01*
X152976788Y-68116232D01*
X153116928Y-68014414D01*
X153239414Y-67891928D01*
X153299682Y-67808975D01*
X153355012Y-67766311D01*
X153424626Y-67760332D01*
X153486421Y-67792938D01*
X153500315Y-67808973D01*
X153560586Y-67891928D01*
X153683072Y-68014414D01*
X153823212Y-68116232D01*
X153977555Y-68194873D01*
X154142299Y-68248402D01*
X154313389Y-68275500D01*
X154313390Y-68275500D01*
X154486610Y-68275500D01*
X154486611Y-68275500D01*
X154657701Y-68248402D01*
X154822445Y-68194873D01*
X154976788Y-68116232D01*
X155116928Y-68014414D01*
X155239414Y-67891928D01*
X155299682Y-67808975D01*
X155355012Y-67766311D01*
X155424626Y-67760332D01*
X155486421Y-67792938D01*
X155500315Y-67808973D01*
X155560586Y-67891928D01*
X155683072Y-68014414D01*
X155823212Y-68116232D01*
X155977555Y-68194873D01*
X156142299Y-68248402D01*
X156313389Y-68275500D01*
X156313390Y-68275500D01*
X156486610Y-68275500D01*
X156486611Y-68275500D01*
X156657701Y-68248402D01*
X156822445Y-68194873D01*
X156976788Y-68116232D01*
X157116928Y-68014414D01*
X157239414Y-67891928D01*
X157299991Y-67808550D01*
X157355321Y-67765885D01*
X157424934Y-67759906D01*
X157486729Y-67792512D01*
X157500628Y-67808551D01*
X157560967Y-67891602D01*
X157683397Y-68014032D01*
X157823475Y-68115804D01*
X157977744Y-68194408D01*
X158142415Y-68247914D01*
X158142414Y-68247914D01*
X158149999Y-68249115D01*
X158150000Y-68249114D01*
X158150000Y-67180330D01*
X158169745Y-67200075D01*
X158255255Y-67249444D01*
X158350630Y-67275000D01*
X158449370Y-67275000D01*
X158544745Y-67249444D01*
X158630255Y-67200075D01*
X158650000Y-67180330D01*
X158650000Y-68249115D01*
X158657584Y-68247914D01*
X158822255Y-68194408D01*
X158976524Y-68115804D01*
X159116602Y-68014032D01*
X159239032Y-67891602D01*
X159340804Y-67751524D01*
X159419408Y-67597257D01*
X159472914Y-67432584D01*
X159500000Y-67261571D01*
X159500000Y-67150000D01*
X158680330Y-67150000D01*
X158700075Y-67130255D01*
X158749444Y-67044745D01*
X158775000Y-66949370D01*
X158775000Y-66850630D01*
X158749444Y-66755255D01*
X158700075Y-66669745D01*
X158680330Y-66650000D01*
X159500000Y-66650000D01*
X159500000Y-66538428D01*
X159472914Y-66367415D01*
X159419408Y-66202742D01*
X159340802Y-66048472D01*
X159319912Y-66019718D01*
X159319911Y-66019717D01*
X159269247Y-65949983D01*
X162974500Y-65949983D01*
X162974500Y-66750001D01*
X162974501Y-66750019D01*
X162985000Y-66852796D01*
X162985001Y-66852799D01*
X163040185Y-67019331D01*
X163040187Y-67019336D01*
X163072945Y-67072445D01*
X163132288Y-67168656D01*
X163256344Y-67292712D01*
X163320543Y-67332310D01*
X163367268Y-67384258D01*
X163378489Y-67453221D01*
X163350646Y-67517303D01*
X163343128Y-67525530D01*
X163235585Y-67633073D01*
X163133768Y-67773211D01*
X163055128Y-67927552D01*
X163001597Y-68092302D01*
X162974500Y-68263389D01*
X162974500Y-68436610D01*
X162994579Y-68563389D01*
X163001598Y-68607701D01*
X163055127Y-68772445D01*
X163133768Y-68926788D01*
X163235586Y-69066928D01*
X163358072Y-69189414D01*
X163358078Y-69189418D01*
X163441023Y-69249683D01*
X163483689Y-69305013D01*
X163489667Y-69374626D01*
X163457061Y-69436421D01*
X163441023Y-69450317D01*
X163358078Y-69510581D01*
X163358069Y-69510588D01*
X163235588Y-69633069D01*
X163235588Y-69633070D01*
X163235586Y-69633072D01*
X163194145Y-69690110D01*
X163133768Y-69773211D01*
X163055128Y-69927552D01*
X163001597Y-70092302D01*
X162974500Y-70263389D01*
X162974500Y-70436611D01*
X162978741Y-70463389D01*
X162998414Y-70587603D01*
X163001598Y-70607701D01*
X163055127Y-70772445D01*
X163133768Y-70926788D01*
X163235586Y-71066928D01*
X163358072Y-71189414D01*
X163358078Y-71189418D01*
X163441023Y-71249683D01*
X163483689Y-71305013D01*
X163489667Y-71374626D01*
X163457061Y-71436421D01*
X163441023Y-71450317D01*
X163358078Y-71510581D01*
X163358069Y-71510588D01*
X163235588Y-71633069D01*
X163235588Y-71633070D01*
X163235586Y-71633072D01*
X163191859Y-71693256D01*
X163133768Y-71773211D01*
X163055128Y-71927552D01*
X163001597Y-72092302D01*
X162976287Y-72252104D01*
X162974500Y-72263389D01*
X162974500Y-72436611D01*
X162976967Y-72452185D01*
X162997488Y-72581756D01*
X163001598Y-72607701D01*
X163046957Y-72747302D01*
X163055128Y-72772447D01*
X163082363Y-72825899D01*
X163133768Y-72926788D01*
X163235586Y-73066928D01*
X163358072Y-73189414D01*
X163441449Y-73249991D01*
X163484114Y-73305322D01*
X163490093Y-73374935D01*
X163457487Y-73436730D01*
X163441448Y-73450627D01*
X163358404Y-73510961D01*
X163358399Y-73510965D01*
X163235967Y-73633397D01*
X163134195Y-73773475D01*
X163055591Y-73927744D01*
X163002085Y-74092415D01*
X163000884Y-74099999D01*
X163000885Y-74100000D01*
X164069670Y-74100000D01*
X164049925Y-74119745D01*
X164000556Y-74205255D01*
X163975000Y-74300630D01*
X163975000Y-74399370D01*
X164000556Y-74494745D01*
X164049925Y-74580255D01*
X164069670Y-74600000D01*
X163000885Y-74600000D01*
X163002085Y-74607584D01*
X163055591Y-74772255D01*
X163134195Y-74926524D01*
X163235967Y-75066602D01*
X163358397Y-75189032D01*
X163498475Y-75290804D01*
X163652742Y-75369408D01*
X163817415Y-75422914D01*
X163988429Y-75450000D01*
X164100000Y-75450000D01*
X164100000Y-74630330D01*
X164119745Y-74650075D01*
X164205255Y-74699444D01*
X164300630Y-74725000D01*
X164399370Y-74725000D01*
X164494745Y-74699444D01*
X164580255Y-74650075D01*
X164600000Y-74630330D01*
X164600000Y-75450000D01*
X164711571Y-75450000D01*
X164882584Y-75422914D01*
X165047257Y-75369408D01*
X165201524Y-75290804D01*
X165341602Y-75189032D01*
X165464032Y-75066602D01*
X165565804Y-74926524D01*
X165644408Y-74772255D01*
X165697914Y-74607584D01*
X165699115Y-74600000D01*
X164630330Y-74600000D01*
X164650075Y-74580255D01*
X164699444Y-74494745D01*
X164725000Y-74399370D01*
X164725000Y-74300630D01*
X164699444Y-74205255D01*
X164650075Y-74119745D01*
X164630330Y-74100000D01*
X165699115Y-74100000D01*
X165699115Y-74099999D01*
X165697914Y-74092415D01*
X165644408Y-73927744D01*
X165565804Y-73773475D01*
X165464032Y-73633397D01*
X165341602Y-73510967D01*
X165258551Y-73450628D01*
X165215885Y-73395298D01*
X165209906Y-73325685D01*
X165242511Y-73263889D01*
X165258551Y-73249991D01*
X165341928Y-73189414D01*
X165464414Y-73066928D01*
X165566232Y-72926788D01*
X165644873Y-72772445D01*
X165698402Y-72607701D01*
X165725500Y-72436611D01*
X165725500Y-72263389D01*
X165698402Y-72092299D01*
X165644873Y-71927555D01*
X165566232Y-71773212D01*
X165464414Y-71633072D01*
X165341928Y-71510586D01*
X165258975Y-71450317D01*
X165216311Y-71394988D01*
X165210332Y-71325374D01*
X165242938Y-71263579D01*
X165258976Y-71249682D01*
X165341928Y-71189414D01*
X165464414Y-71066928D01*
X165566232Y-70926788D01*
X165644873Y-70772445D01*
X165698402Y-70607701D01*
X165725500Y-70436611D01*
X165725500Y-70263389D01*
X165698402Y-70092299D01*
X165644873Y-69927555D01*
X165566232Y-69773212D01*
X165464414Y-69633072D01*
X165341928Y-69510586D01*
X165258975Y-69450317D01*
X165216311Y-69394988D01*
X165210332Y-69325374D01*
X165242938Y-69263579D01*
X165258976Y-69249682D01*
X165341928Y-69189414D01*
X165464414Y-69066928D01*
X165566232Y-68926788D01*
X165644873Y-68772445D01*
X165698402Y-68607701D01*
X165724998Y-68439778D01*
X170179500Y-68439778D01*
X170179500Y-70060222D01*
X170196742Y-70169086D01*
X170213985Y-70277952D01*
X170282103Y-70487603D01*
X170282104Y-70487606D01*
X170333058Y-70587606D01*
X170377766Y-70675350D01*
X170382187Y-70684025D01*
X170511752Y-70862358D01*
X170511756Y-70862363D01*
X170667636Y-71018243D01*
X170667641Y-71018247D01*
X170782387Y-71101614D01*
X170845978Y-71147815D01*
X170958943Y-71205374D01*
X171042393Y-71247895D01*
X171042396Y-71247896D01*
X171147221Y-71281955D01*
X171252049Y-71316015D01*
X171469778Y-71350500D01*
X171469779Y-71350500D01*
X171690221Y-71350500D01*
X171690222Y-71350500D01*
X171907951Y-71316015D01*
X172117606Y-71247895D01*
X172314022Y-71147815D01*
X172492365Y-71018242D01*
X172648242Y-70862365D01*
X172658804Y-70847826D01*
X172749682Y-70722745D01*
X172805011Y-70680079D01*
X172874625Y-70674100D01*
X172936420Y-70706705D01*
X172950318Y-70722745D01*
X173051752Y-70862358D01*
X173051756Y-70862363D01*
X173207636Y-71018243D01*
X173207641Y-71018247D01*
X173322387Y-71101614D01*
X173385978Y-71147815D01*
X173498943Y-71205374D01*
X173582393Y-71247895D01*
X173582396Y-71247896D01*
X173687221Y-71281955D01*
X173792049Y-71316015D01*
X174009778Y-71350500D01*
X174009779Y-71350500D01*
X174230221Y-71350500D01*
X174230222Y-71350500D01*
X174447951Y-71316015D01*
X174657606Y-71247895D01*
X174854022Y-71147815D01*
X175032365Y-71018242D01*
X175188242Y-70862365D01*
X175198804Y-70847826D01*
X175289682Y-70722745D01*
X175345011Y-70680079D01*
X175414625Y-70674100D01*
X175476420Y-70706705D01*
X175490318Y-70722745D01*
X175591752Y-70862358D01*
X175591756Y-70862363D01*
X175747636Y-71018243D01*
X175747641Y-71018247D01*
X175925973Y-71147812D01*
X175925975Y-71147813D01*
X175925978Y-71147815D01*
X175944794Y-71157402D01*
X175995590Y-71205374D01*
X176012500Y-71267887D01*
X176012500Y-72232112D01*
X175992815Y-72299151D01*
X175944796Y-72342596D01*
X175925976Y-72352185D01*
X175747641Y-72481752D01*
X175747636Y-72481756D01*
X175591756Y-72637636D01*
X175591752Y-72637641D01*
X175490318Y-72777254D01*
X175434988Y-72819920D01*
X175365375Y-72825899D01*
X175303580Y-72793293D01*
X175289682Y-72777254D01*
X175188247Y-72637641D01*
X175188243Y-72637636D01*
X175032363Y-72481756D01*
X175032358Y-72481752D01*
X174854025Y-72352187D01*
X174854024Y-72352186D01*
X174854022Y-72352185D01*
X174782301Y-72315641D01*
X174657606Y-72252104D01*
X174657603Y-72252103D01*
X174447952Y-72183985D01*
X174299635Y-72160494D01*
X174230222Y-72149500D01*
X174009778Y-72149500D01*
X173940371Y-72160493D01*
X173792047Y-72183985D01*
X173582396Y-72252103D01*
X173582393Y-72252104D01*
X173385974Y-72352187D01*
X173207641Y-72481752D01*
X173207636Y-72481756D01*
X173051756Y-72637636D01*
X173051752Y-72637641D01*
X172950318Y-72777254D01*
X172894988Y-72819920D01*
X172825375Y-72825899D01*
X172763580Y-72793293D01*
X172749682Y-72777254D01*
X172648247Y-72637641D01*
X172648243Y-72637636D01*
X172492363Y-72481756D01*
X172492358Y-72481752D01*
X172314025Y-72352187D01*
X172314024Y-72352186D01*
X172314022Y-72352185D01*
X172242301Y-72315641D01*
X172117606Y-72252104D01*
X172117603Y-72252103D01*
X171907952Y-72183985D01*
X171759635Y-72160494D01*
X171690222Y-72149500D01*
X171469778Y-72149500D01*
X171400371Y-72160493D01*
X171252047Y-72183985D01*
X171042396Y-72252103D01*
X171042393Y-72252104D01*
X170845974Y-72352187D01*
X170667641Y-72481752D01*
X170667636Y-72481756D01*
X170511756Y-72637636D01*
X170511752Y-72637641D01*
X170382187Y-72815974D01*
X170282104Y-73012393D01*
X170282103Y-73012396D01*
X170213985Y-73222047D01*
X170190814Y-73368345D01*
X170179500Y-73439778D01*
X170179500Y-75060222D01*
X170196742Y-75169086D01*
X170213985Y-75277952D01*
X170282103Y-75487603D01*
X170282104Y-75487606D01*
X170333058Y-75587606D01*
X170377129Y-75674100D01*
X170382187Y-75684025D01*
X170511752Y-75862358D01*
X170511756Y-75862363D01*
X170667636Y-76018243D01*
X170667641Y-76018247D01*
X170687273Y-76032510D01*
X170845978Y-76147815D01*
X170967040Y-76209500D01*
X171042393Y-76247895D01*
X171042396Y-76247896D01*
X171103924Y-76267887D01*
X171252049Y-76316015D01*
X171469778Y-76350500D01*
X171469779Y-76350500D01*
X171690221Y-76350500D01*
X171690222Y-76350500D01*
X171907951Y-76316015D01*
X172117606Y-76247895D01*
X172314022Y-76147815D01*
X172492365Y-76018242D01*
X172648242Y-75862365D01*
X172705159Y-75784025D01*
X172749682Y-75722745D01*
X172805011Y-75680079D01*
X172874625Y-75674100D01*
X172936420Y-75706705D01*
X172950318Y-75722745D01*
X173051752Y-75862358D01*
X173051756Y-75862363D01*
X173207636Y-76018243D01*
X173207641Y-76018247D01*
X173227273Y-76032510D01*
X173385978Y-76147815D01*
X173507040Y-76209500D01*
X173582393Y-76247895D01*
X173582396Y-76247896D01*
X173643924Y-76267887D01*
X173792049Y-76316015D01*
X174009778Y-76350500D01*
X174009779Y-76350500D01*
X174230221Y-76350500D01*
X174230222Y-76350500D01*
X174447951Y-76316015D01*
X174657606Y-76247895D01*
X174854022Y-76147815D01*
X175032365Y-76018242D01*
X175188242Y-75862365D01*
X175245159Y-75784025D01*
X175289682Y-75722745D01*
X175345011Y-75680079D01*
X175414625Y-75674100D01*
X175476420Y-75706705D01*
X175490318Y-75722745D01*
X175591752Y-75862358D01*
X175591756Y-75862363D01*
X175747636Y-76018243D01*
X175747641Y-76018247D01*
X175925973Y-76147812D01*
X175925975Y-76147813D01*
X175925978Y-76147815D01*
X175944794Y-76157402D01*
X175995590Y-76205374D01*
X176012500Y-76267887D01*
X176012500Y-78760642D01*
X175992815Y-78827681D01*
X175991602Y-78829533D01*
X175930609Y-78920814D01*
X175930602Y-78920827D01*
X175870264Y-79066498D01*
X175870261Y-79066510D01*
X175839500Y-79221153D01*
X175839500Y-79378846D01*
X175870261Y-79533489D01*
X175870264Y-79533501D01*
X175930602Y-79679172D01*
X175930609Y-79679185D01*
X176018210Y-79810288D01*
X176018213Y-79810292D01*
X176129707Y-79921786D01*
X176129711Y-79921789D01*
X176260814Y-80009390D01*
X176260827Y-80009397D01*
X176377723Y-80057816D01*
X176406503Y-80069737D01*
X176561153Y-80100499D01*
X176561156Y-80100500D01*
X176561158Y-80100500D01*
X176718844Y-80100500D01*
X176718845Y-80100499D01*
X176873497Y-80069737D01*
X177019179Y-80009394D01*
X177150289Y-79921789D01*
X177261789Y-79810289D01*
X177349394Y-79679179D01*
X177409737Y-79533497D01*
X177440500Y-79378842D01*
X177440500Y-79221158D01*
X177440500Y-79221155D01*
X177440499Y-79221153D01*
X177409738Y-79066510D01*
X177409737Y-79066503D01*
X177396173Y-79033757D01*
X177349397Y-78920827D01*
X177349390Y-78920814D01*
X177288398Y-78829533D01*
X177267520Y-78762855D01*
X177267500Y-78760642D01*
X177267500Y-76288268D01*
X177287185Y-76221229D01*
X177335206Y-76177783D01*
X177353729Y-76168345D01*
X177394022Y-76147815D01*
X177572365Y-76018242D01*
X177680683Y-75909923D01*
X177742002Y-75876441D01*
X177811694Y-75881425D01*
X177867628Y-75923296D01*
X177873900Y-75932510D01*
X177957684Y-76068345D01*
X178081654Y-76192315D01*
X178230875Y-76284356D01*
X178230880Y-76284358D01*
X178397302Y-76339505D01*
X178397309Y-76339506D01*
X178500019Y-76349999D01*
X178949999Y-76349999D01*
X178950000Y-76349998D01*
X178950000Y-74740747D01*
X178987708Y-74762518D01*
X179127591Y-74800000D01*
X179272409Y-74800000D01*
X179412292Y-74762518D01*
X179450000Y-74740747D01*
X179450000Y-76349999D01*
X179899972Y-76349999D01*
X179899986Y-76349998D01*
X180002697Y-76339505D01*
X180169119Y-76284358D01*
X180169124Y-76284356D01*
X180318345Y-76192315D01*
X180442315Y-76068345D01*
X180534356Y-75919124D01*
X180534358Y-75919119D01*
X180589505Y-75752697D01*
X180589506Y-75752690D01*
X180599999Y-75649986D01*
X180600000Y-75649973D01*
X180600000Y-74500000D01*
X179690748Y-74500000D01*
X179712518Y-74462292D01*
X179750000Y-74322409D01*
X179750000Y-74177591D01*
X179712518Y-74037708D01*
X179690748Y-74000000D01*
X180599999Y-74000000D01*
X180599999Y-73539778D01*
X185659500Y-73539778D01*
X185659500Y-75160221D01*
X185693985Y-75377952D01*
X185762103Y-75587603D01*
X185762104Y-75587606D01*
X185830122Y-75721096D01*
X185846220Y-75752690D01*
X185862187Y-75784025D01*
X185991752Y-75962358D01*
X185991756Y-75962363D01*
X186147636Y-76118243D01*
X186147641Y-76118247D01*
X186277069Y-76212281D01*
X186325978Y-76247815D01*
X186454375Y-76313237D01*
X186522393Y-76347895D01*
X186522396Y-76347896D01*
X186627221Y-76381955D01*
X186732049Y-76416015D01*
X186949778Y-76450500D01*
X186949779Y-76450500D01*
X187170221Y-76450500D01*
X187170222Y-76450500D01*
X187387951Y-76416015D01*
X187597606Y-76347895D01*
X187794022Y-76247815D01*
X187972365Y-76118242D01*
X188080683Y-76009923D01*
X188142002Y-75976441D01*
X188211694Y-75981425D01*
X188267628Y-76023296D01*
X188273900Y-76032510D01*
X188357684Y-76168345D01*
X188481654Y-76292315D01*
X188630875Y-76384356D01*
X188630880Y-76384358D01*
X188797302Y-76439505D01*
X188797309Y-76439506D01*
X188900019Y-76449999D01*
X189349999Y-76449999D01*
X189350000Y-76449998D01*
X189350000Y-74840747D01*
X189387708Y-74862518D01*
X189527591Y-74900000D01*
X189672409Y-74900000D01*
X189812292Y-74862518D01*
X189850000Y-74840747D01*
X189850000Y-76449999D01*
X190299972Y-76449999D01*
X190299986Y-76449998D01*
X190402697Y-76439505D01*
X190569119Y-76384358D01*
X190569124Y-76384356D01*
X190718345Y-76292315D01*
X190842315Y-76168345D01*
X190934356Y-76019124D01*
X190934358Y-76019119D01*
X190989505Y-75852697D01*
X190989506Y-75852690D01*
X190999999Y-75749986D01*
X191000000Y-75749973D01*
X191000000Y-74600000D01*
X190090748Y-74600000D01*
X190112518Y-74562292D01*
X190150000Y-74422409D01*
X190150000Y-74277591D01*
X190112518Y-74137708D01*
X190090748Y-74100000D01*
X190999999Y-74100000D01*
X190999999Y-72950028D01*
X190999998Y-72950010D01*
X190991943Y-72871156D01*
X190968612Y-72784252D01*
X190934358Y-72680880D01*
X190934356Y-72680875D01*
X190842315Y-72531654D01*
X190718345Y-72407684D01*
X190569124Y-72315643D01*
X190569119Y-72315641D01*
X190402697Y-72260494D01*
X190402690Y-72260493D01*
X190299986Y-72250000D01*
X189850000Y-72250000D01*
X189850000Y-73859252D01*
X189812292Y-73837482D01*
X189672409Y-73800000D01*
X189527591Y-73800000D01*
X189387708Y-73837482D01*
X189350000Y-73859252D01*
X189350000Y-72250000D01*
X188900028Y-72250000D01*
X188900012Y-72250001D01*
X188797302Y-72260494D01*
X188630880Y-72315641D01*
X188630875Y-72315643D01*
X188481654Y-72407684D01*
X188357683Y-72531655D01*
X188357680Y-72531659D01*
X188273899Y-72667489D01*
X188221951Y-72714214D01*
X188152989Y-72725435D01*
X188088907Y-72697592D01*
X188080680Y-72690073D01*
X187972363Y-72581756D01*
X187972358Y-72581752D01*
X187794025Y-72452187D01*
X187794024Y-72452186D01*
X187794022Y-72452185D01*
X187701918Y-72405255D01*
X187597606Y-72352104D01*
X187597603Y-72352103D01*
X187387952Y-72283985D01*
X187239635Y-72260494D01*
X187170222Y-72249500D01*
X186949778Y-72249500D01*
X186880371Y-72260493D01*
X186732047Y-72283985D01*
X186522396Y-72352103D01*
X186522393Y-72352104D01*
X186325974Y-72452187D01*
X186147641Y-72581752D01*
X186147636Y-72581756D01*
X185991756Y-72737636D01*
X185991752Y-72737641D01*
X185862187Y-72915974D01*
X185762104Y-73112393D01*
X185762103Y-73112396D01*
X185693985Y-73322047D01*
X185659500Y-73539778D01*
X180599999Y-73539778D01*
X180599999Y-72850028D01*
X180599998Y-72850013D01*
X180589505Y-72747302D01*
X180534358Y-72580880D01*
X180534356Y-72580875D01*
X180442315Y-72431654D01*
X180318345Y-72307684D01*
X180169124Y-72215643D01*
X180169119Y-72215641D01*
X180002697Y-72160494D01*
X180002690Y-72160493D01*
X179899986Y-72150000D01*
X179450000Y-72150000D01*
X179450000Y-73759252D01*
X179412292Y-73737482D01*
X179272409Y-73700000D01*
X179127591Y-73700000D01*
X178987708Y-73737482D01*
X178950000Y-73759252D01*
X178950000Y-72150000D01*
X178500028Y-72150000D01*
X178500012Y-72150001D01*
X178397302Y-72160494D01*
X178230880Y-72215641D01*
X178230875Y-72215643D01*
X178081654Y-72307684D01*
X177957683Y-72431655D01*
X177957680Y-72431659D01*
X177873899Y-72567489D01*
X177821951Y-72614214D01*
X177752989Y-72625435D01*
X177688907Y-72597592D01*
X177680680Y-72590073D01*
X177572363Y-72481756D01*
X177572358Y-72481752D01*
X177394025Y-72352186D01*
X177335203Y-72322214D01*
X177284408Y-72274239D01*
X177267500Y-72211730D01*
X177267500Y-71288268D01*
X177287185Y-71221229D01*
X177335206Y-71177783D01*
X177375208Y-71157401D01*
X177394022Y-71147815D01*
X177552727Y-71032510D01*
X177572357Y-71018248D01*
X177572357Y-71018247D01*
X177572365Y-71018242D01*
X177680683Y-70909923D01*
X177742002Y-70876441D01*
X177811694Y-70881425D01*
X177867628Y-70923296D01*
X177873900Y-70932510D01*
X177957684Y-71068345D01*
X178081654Y-71192315D01*
X178230875Y-71284356D01*
X178230880Y-71284358D01*
X178397302Y-71339505D01*
X178397309Y-71339506D01*
X178500019Y-71349999D01*
X178949999Y-71349999D01*
X178950000Y-71349998D01*
X178950000Y-69740747D01*
X178987708Y-69762518D01*
X179127591Y-69800000D01*
X179272409Y-69800000D01*
X179412292Y-69762518D01*
X179450000Y-69740747D01*
X179450000Y-71349999D01*
X179899972Y-71349999D01*
X179899986Y-71349998D01*
X180002697Y-71339505D01*
X180169119Y-71284358D01*
X180169124Y-71284356D01*
X180318345Y-71192315D01*
X180442315Y-71068345D01*
X180534356Y-70919124D01*
X180534358Y-70919119D01*
X180589505Y-70752697D01*
X180589506Y-70752690D01*
X180599999Y-70649986D01*
X180600000Y-70649973D01*
X180600000Y-69500000D01*
X179690748Y-69500000D01*
X179712518Y-69462292D01*
X179750000Y-69322409D01*
X179750000Y-69177591D01*
X179712518Y-69037708D01*
X179690748Y-69000000D01*
X180599999Y-69000000D01*
X180599999Y-68539778D01*
X185659500Y-68539778D01*
X185659500Y-70160221D01*
X185693985Y-70377952D01*
X185762103Y-70587603D01*
X185762104Y-70587606D01*
X185823662Y-70708418D01*
X185856287Y-70772447D01*
X185862187Y-70784025D01*
X185991752Y-70962358D01*
X185991756Y-70962363D01*
X186147636Y-71118243D01*
X186147641Y-71118247D01*
X186277069Y-71212281D01*
X186325978Y-71247815D01*
X186438234Y-71305013D01*
X186522393Y-71347895D01*
X186522396Y-71347896D01*
X186604665Y-71374626D01*
X186732049Y-71416015D01*
X186949778Y-71450500D01*
X186949779Y-71450500D01*
X187170221Y-71450500D01*
X187170222Y-71450500D01*
X187387951Y-71416015D01*
X187597606Y-71347895D01*
X187794022Y-71247815D01*
X187939153Y-71142371D01*
X187972357Y-71118248D01*
X187972357Y-71118247D01*
X187972365Y-71118242D01*
X188080683Y-71009923D01*
X188142002Y-70976441D01*
X188211694Y-70981425D01*
X188267628Y-71023296D01*
X188273900Y-71032510D01*
X188357684Y-71168345D01*
X188481654Y-71292315D01*
X188630875Y-71384356D01*
X188630880Y-71384358D01*
X188797302Y-71439505D01*
X188797309Y-71439506D01*
X188900019Y-71449999D01*
X189349999Y-71449999D01*
X189350000Y-71449998D01*
X189350000Y-69840747D01*
X189387708Y-69862518D01*
X189527591Y-69900000D01*
X189672409Y-69900000D01*
X189812292Y-69862518D01*
X189850000Y-69840747D01*
X189850000Y-71449999D01*
X190299972Y-71449999D01*
X190299986Y-71449998D01*
X190402697Y-71439505D01*
X190569119Y-71384358D01*
X190569124Y-71384356D01*
X190718345Y-71292315D01*
X190842315Y-71168345D01*
X190934356Y-71019124D01*
X190934358Y-71019119D01*
X190989505Y-70852697D01*
X190989506Y-70852690D01*
X190999999Y-70749986D01*
X191000000Y-70749973D01*
X191000000Y-69600000D01*
X190090748Y-69600000D01*
X190112518Y-69562292D01*
X190150000Y-69422409D01*
X190150000Y-69277591D01*
X190112518Y-69137708D01*
X190090748Y-69100000D01*
X190999999Y-69100000D01*
X190999999Y-67950028D01*
X190999998Y-67950013D01*
X190989505Y-67847302D01*
X190934358Y-67680880D01*
X190934356Y-67680875D01*
X190842315Y-67531654D01*
X190718345Y-67407684D01*
X190569124Y-67315643D01*
X190569119Y-67315641D01*
X190402697Y-67260494D01*
X190402690Y-67260493D01*
X190299986Y-67250000D01*
X189850000Y-67250000D01*
X189850000Y-68859252D01*
X189812292Y-68837482D01*
X189672409Y-68800000D01*
X189527591Y-68800000D01*
X189387708Y-68837482D01*
X189350000Y-68859252D01*
X189350000Y-67250000D01*
X188900028Y-67250000D01*
X188900012Y-67250001D01*
X188797302Y-67260494D01*
X188630880Y-67315641D01*
X188630875Y-67315643D01*
X188481654Y-67407684D01*
X188357683Y-67531655D01*
X188357680Y-67531659D01*
X188273899Y-67667489D01*
X188221951Y-67714214D01*
X188152989Y-67725435D01*
X188088907Y-67697592D01*
X188080680Y-67690073D01*
X187972363Y-67581756D01*
X187972358Y-67581752D01*
X187794025Y-67452187D01*
X187794024Y-67452186D01*
X187794022Y-67452185D01*
X187706685Y-67407684D01*
X187597606Y-67352104D01*
X187597603Y-67352103D01*
X187387952Y-67283985D01*
X187279086Y-67266742D01*
X187170222Y-67249500D01*
X186949778Y-67249500D01*
X186880371Y-67260493D01*
X186732047Y-67283985D01*
X186522396Y-67352103D01*
X186522393Y-67352104D01*
X186325974Y-67452187D01*
X186147641Y-67581752D01*
X186147636Y-67581756D01*
X185991756Y-67737636D01*
X185991752Y-67737641D01*
X185862187Y-67915974D01*
X185762104Y-68112393D01*
X185762103Y-68112396D01*
X185693985Y-68322047D01*
X185659500Y-68539778D01*
X180599999Y-68539778D01*
X180599999Y-67850028D01*
X180599998Y-67850013D01*
X180589505Y-67747302D01*
X180534358Y-67580880D01*
X180534356Y-67580875D01*
X180442315Y-67431654D01*
X180318345Y-67307684D01*
X180169124Y-67215643D01*
X180169119Y-67215641D01*
X180002697Y-67160494D01*
X180002690Y-67160493D01*
X179899986Y-67150000D01*
X179450000Y-67150000D01*
X179450000Y-68759252D01*
X179412292Y-68737482D01*
X179272409Y-68700000D01*
X179127591Y-68700000D01*
X178987708Y-68737482D01*
X178950000Y-68759252D01*
X178950000Y-67150000D01*
X178500028Y-67150000D01*
X178500012Y-67150001D01*
X178397302Y-67160494D01*
X178230880Y-67215641D01*
X178230875Y-67215643D01*
X178081654Y-67307684D01*
X177957683Y-67431655D01*
X177957680Y-67431659D01*
X177873899Y-67567489D01*
X177821951Y-67614214D01*
X177752989Y-67625435D01*
X177688907Y-67597592D01*
X177680680Y-67590073D01*
X177572363Y-67481756D01*
X177572358Y-67481752D01*
X177394025Y-67352187D01*
X177394024Y-67352186D01*
X177394022Y-67352185D01*
X177306685Y-67307684D01*
X177197606Y-67252104D01*
X177197603Y-67252103D01*
X176987952Y-67183985D01*
X176839635Y-67160494D01*
X176770222Y-67149500D01*
X176549778Y-67149500D01*
X176480371Y-67160493D01*
X176332047Y-67183985D01*
X176122396Y-67252103D01*
X176122393Y-67252104D01*
X175925974Y-67352187D01*
X175747641Y-67481752D01*
X175747636Y-67481756D01*
X175591756Y-67637636D01*
X175591752Y-67637641D01*
X175490318Y-67777254D01*
X175434988Y-67819920D01*
X175365375Y-67825899D01*
X175303580Y-67793293D01*
X175289682Y-67777254D01*
X175188247Y-67637641D01*
X175188243Y-67637636D01*
X175032363Y-67481756D01*
X175032358Y-67481752D01*
X174854025Y-67352187D01*
X174854024Y-67352186D01*
X174854022Y-67352185D01*
X174766685Y-67307684D01*
X174657606Y-67252104D01*
X174657603Y-67252103D01*
X174447952Y-67183985D01*
X174299635Y-67160494D01*
X174230222Y-67149500D01*
X174009778Y-67149500D01*
X173940371Y-67160493D01*
X173792047Y-67183985D01*
X173582396Y-67252103D01*
X173582393Y-67252104D01*
X173385974Y-67352187D01*
X173207641Y-67481752D01*
X173207636Y-67481756D01*
X173051756Y-67637636D01*
X173051752Y-67637641D01*
X172950318Y-67777254D01*
X172894988Y-67819920D01*
X172825375Y-67825899D01*
X172763580Y-67793293D01*
X172749682Y-67777254D01*
X172648247Y-67637641D01*
X172648243Y-67637636D01*
X172492363Y-67481756D01*
X172492358Y-67481752D01*
X172314025Y-67352187D01*
X172314024Y-67352186D01*
X172314022Y-67352185D01*
X172226685Y-67307684D01*
X172117606Y-67252104D01*
X172117603Y-67252103D01*
X171907952Y-67183985D01*
X171759635Y-67160494D01*
X171690222Y-67149500D01*
X171469778Y-67149500D01*
X171400371Y-67160493D01*
X171252047Y-67183985D01*
X171042396Y-67252103D01*
X171042393Y-67252104D01*
X170845974Y-67352187D01*
X170667641Y-67481752D01*
X170667636Y-67481756D01*
X170511756Y-67637636D01*
X170511752Y-67637641D01*
X170382187Y-67815974D01*
X170282104Y-68012393D01*
X170282103Y-68012396D01*
X170213985Y-68222047D01*
X170187020Y-68392299D01*
X170179500Y-68439778D01*
X165724998Y-68439778D01*
X165725500Y-68436611D01*
X165725500Y-68263389D01*
X165698402Y-68092299D01*
X165644873Y-67927555D01*
X165566232Y-67773212D01*
X165464414Y-67633072D01*
X165356872Y-67525530D01*
X165323387Y-67464207D01*
X165328371Y-67394515D01*
X165370243Y-67338582D01*
X165379457Y-67332310D01*
X165443656Y-67292712D01*
X165567712Y-67168656D01*
X165659814Y-67019334D01*
X165714999Y-66852797D01*
X165725500Y-66750009D01*
X165725500Y-66563389D01*
X197074500Y-66563389D01*
X197074500Y-66736610D01*
X197085759Y-66807701D01*
X197101598Y-66907701D01*
X197155127Y-67072445D01*
X197233768Y-67226788D01*
X197335586Y-67366928D01*
X197458072Y-67489414D01*
X197475257Y-67501899D01*
X197541023Y-67549683D01*
X197583689Y-67605013D01*
X197589667Y-67674626D01*
X197557061Y-67736421D01*
X197541023Y-67750317D01*
X197458078Y-67810581D01*
X197458069Y-67810588D01*
X197335588Y-67933069D01*
X197335588Y-67933070D01*
X197335586Y-67933072D01*
X197299709Y-67982452D01*
X197233768Y-68073211D01*
X197155128Y-68227552D01*
X197101597Y-68392302D01*
X197074500Y-68563389D01*
X197074500Y-68736610D01*
X197085759Y-68807701D01*
X197101598Y-68907701D01*
X197155127Y-69072445D01*
X197233768Y-69226788D01*
X197335586Y-69366928D01*
X197458072Y-69489414D01*
X197472642Y-69500000D01*
X197541023Y-69549683D01*
X197583689Y-69605013D01*
X197589667Y-69674626D01*
X197557061Y-69736421D01*
X197541023Y-69750317D01*
X197458078Y-69810581D01*
X197458069Y-69810588D01*
X197335588Y-69933069D01*
X197335588Y-69933070D01*
X197335586Y-69933072D01*
X197291859Y-69993256D01*
X197233768Y-70073211D01*
X197155128Y-70227552D01*
X197101597Y-70392302D01*
X197093796Y-70441557D01*
X197074500Y-70563389D01*
X197074500Y-70736611D01*
X197077047Y-70752690D01*
X197085759Y-70807701D01*
X197101598Y-70907701D01*
X197155127Y-71072445D01*
X197233768Y-71226788D01*
X197335586Y-71366928D01*
X197335588Y-71366930D01*
X197443491Y-71474833D01*
X197476976Y-71536156D01*
X197471992Y-71605848D01*
X197430120Y-71661781D01*
X197420907Y-71668053D01*
X197356654Y-71707684D01*
X197232684Y-71831654D01*
X197140643Y-71980875D01*
X197140641Y-71980880D01*
X197085494Y-72147302D01*
X197085493Y-72147309D01*
X197075000Y-72250013D01*
X197075000Y-72400000D01*
X198169670Y-72400000D01*
X198149925Y-72419745D01*
X198100556Y-72505255D01*
X198075000Y-72600630D01*
X198075000Y-72699370D01*
X198100556Y-72794745D01*
X198149925Y-72880255D01*
X198169670Y-72900000D01*
X197075001Y-72900000D01*
X197075001Y-73049986D01*
X197085494Y-73152697D01*
X197140641Y-73319119D01*
X197140643Y-73319124D01*
X197232684Y-73468345D01*
X197356654Y-73592315D01*
X197505875Y-73684356D01*
X197505880Y-73684358D01*
X197672302Y-73739505D01*
X197672309Y-73739506D01*
X197775019Y-73749999D01*
X198199999Y-73749999D01*
X198200000Y-73749998D01*
X198200000Y-72930330D01*
X198219745Y-72950075D01*
X198305255Y-72999444D01*
X198400630Y-73025000D01*
X198499370Y-73025000D01*
X198594745Y-72999444D01*
X198680255Y-72950075D01*
X198700000Y-72930330D01*
X198700000Y-73749999D01*
X199124972Y-73749999D01*
X199124986Y-73749998D01*
X199227697Y-73739505D01*
X199394119Y-73684358D01*
X199394124Y-73684356D01*
X199543345Y-73592315D01*
X199667315Y-73468345D01*
X199759356Y-73319124D01*
X199759358Y-73319119D01*
X199814505Y-73152697D01*
X199814506Y-73152690D01*
X199824999Y-73049986D01*
X199825000Y-73049973D01*
X199825000Y-72900000D01*
X198730330Y-72900000D01*
X198750075Y-72880255D01*
X198799444Y-72794745D01*
X198825000Y-72699370D01*
X198825000Y-72600630D01*
X198799444Y-72505255D01*
X198750075Y-72419745D01*
X198730330Y-72400000D01*
X199824999Y-72400000D01*
X199824999Y-72250028D01*
X199824998Y-72250013D01*
X199814505Y-72147302D01*
X199759358Y-71980880D01*
X199759356Y-71980875D01*
X199667315Y-71831654D01*
X199543343Y-71707682D01*
X199479093Y-71668053D01*
X199432368Y-71616105D01*
X199421145Y-71547143D01*
X199448988Y-71483061D01*
X199456486Y-71474855D01*
X199564414Y-71366928D01*
X199666232Y-71226788D01*
X199744873Y-71072445D01*
X199798402Y-70907701D01*
X199825500Y-70736611D01*
X199825500Y-70563389D01*
X199798402Y-70392299D01*
X199744873Y-70227555D01*
X199666232Y-70073212D01*
X199564414Y-69933072D01*
X199441928Y-69810586D01*
X199358975Y-69750317D01*
X199316311Y-69694988D01*
X199310332Y-69625374D01*
X199342938Y-69563579D01*
X199358976Y-69549682D01*
X199441928Y-69489414D01*
X199564414Y-69366928D01*
X199666232Y-69226788D01*
X199744873Y-69072445D01*
X199798402Y-68907701D01*
X199825500Y-68736611D01*
X199825500Y-68563389D01*
X199798402Y-68392299D01*
X199744873Y-68227555D01*
X199666232Y-68073212D01*
X199564414Y-67933072D01*
X199441928Y-67810586D01*
X199358975Y-67750317D01*
X199316311Y-67694988D01*
X199310332Y-67625374D01*
X199342938Y-67563579D01*
X199358976Y-67549682D01*
X199441928Y-67489414D01*
X199564414Y-67366928D01*
X199666232Y-67226788D01*
X199744873Y-67072445D01*
X199798402Y-66907701D01*
X199825500Y-66736611D01*
X199825500Y-66563389D01*
X199809662Y-66463389D01*
X204624500Y-66463389D01*
X204624500Y-66636610D01*
X204642461Y-66750016D01*
X204651598Y-66807701D01*
X204705127Y-66972445D01*
X204783768Y-67126788D01*
X204885586Y-67266928D01*
X205008072Y-67389414D01*
X205008078Y-67389418D01*
X205091023Y-67449683D01*
X205133689Y-67505013D01*
X205139667Y-67574626D01*
X205107061Y-67636421D01*
X205091023Y-67650317D01*
X205008078Y-67710581D01*
X205008069Y-67710588D01*
X204885588Y-67833069D01*
X204885588Y-67833070D01*
X204885586Y-67833072D01*
X204873278Y-67850013D01*
X204783768Y-67973211D01*
X204705128Y-68127552D01*
X204651597Y-68292302D01*
X204635759Y-68392302D01*
X204624500Y-68463389D01*
X204624500Y-68636611D01*
X204651598Y-68807701D01*
X204705127Y-68972445D01*
X204783768Y-69126788D01*
X204885586Y-69266928D01*
X205008072Y-69389414D01*
X205008078Y-69389418D01*
X205091023Y-69449683D01*
X205133689Y-69505013D01*
X205139667Y-69574626D01*
X205107061Y-69636421D01*
X205091023Y-69650317D01*
X205008078Y-69710581D01*
X205008069Y-69710588D01*
X204885588Y-69833069D01*
X204885588Y-69833070D01*
X204885586Y-69833072D01*
X204864192Y-69862518D01*
X204783768Y-69973211D01*
X204705128Y-70127552D01*
X204651597Y-70292302D01*
X204634928Y-70397547D01*
X204624500Y-70463389D01*
X204624500Y-70636611D01*
X204630438Y-70674100D01*
X204647847Y-70784022D01*
X204651598Y-70807701D01*
X204705127Y-70972445D01*
X204783768Y-71126788D01*
X204885586Y-71266928D01*
X204885588Y-71266930D01*
X204993491Y-71374833D01*
X205026976Y-71436156D01*
X205021992Y-71505848D01*
X204980120Y-71561781D01*
X204970907Y-71568053D01*
X204906654Y-71607684D01*
X204782684Y-71731654D01*
X204690643Y-71880875D01*
X204690641Y-71880880D01*
X204635494Y-72047302D01*
X204635493Y-72047309D01*
X204625000Y-72150013D01*
X204625000Y-72300000D01*
X205719670Y-72300000D01*
X205699925Y-72319745D01*
X205650556Y-72405255D01*
X205625000Y-72500630D01*
X205625000Y-72599370D01*
X205650556Y-72694745D01*
X205699925Y-72780255D01*
X205719670Y-72800000D01*
X204625001Y-72800000D01*
X204625001Y-72949986D01*
X204635494Y-73052697D01*
X204690641Y-73219119D01*
X204690643Y-73219124D01*
X204782684Y-73368345D01*
X204906654Y-73492315D01*
X205055875Y-73584356D01*
X205055880Y-73584358D01*
X205222302Y-73639505D01*
X205222309Y-73639506D01*
X205325019Y-73649999D01*
X205749999Y-73649999D01*
X205750000Y-73649998D01*
X205750000Y-72830330D01*
X205769745Y-72850075D01*
X205855255Y-72899444D01*
X205950630Y-72925000D01*
X206049370Y-72925000D01*
X206144745Y-72899444D01*
X206230255Y-72850075D01*
X206250000Y-72830330D01*
X206250000Y-73649999D01*
X206674972Y-73649999D01*
X206674986Y-73649998D01*
X206777697Y-73639505D01*
X206944119Y-73584358D01*
X206944124Y-73584356D01*
X207093345Y-73492315D01*
X207217315Y-73368345D01*
X207309356Y-73219124D01*
X207309358Y-73219119D01*
X207364505Y-73052697D01*
X207364506Y-73052690D01*
X207374999Y-72949986D01*
X207375000Y-72949973D01*
X207375000Y-72800000D01*
X206280330Y-72800000D01*
X206300075Y-72780255D01*
X206349444Y-72694745D01*
X206375000Y-72599370D01*
X206375000Y-72500630D01*
X206349444Y-72405255D01*
X206300075Y-72319745D01*
X206280330Y-72300000D01*
X207374999Y-72300000D01*
X207374999Y-72150028D01*
X207374998Y-72150013D01*
X207364505Y-72047302D01*
X207309358Y-71880880D01*
X207309356Y-71880875D01*
X207217315Y-71731654D01*
X207093343Y-71607682D01*
X207029093Y-71568053D01*
X206982368Y-71516105D01*
X206971145Y-71447143D01*
X206998988Y-71383061D01*
X207006486Y-71374855D01*
X207114414Y-71266928D01*
X207216232Y-71126788D01*
X207294873Y-70972445D01*
X207348402Y-70807701D01*
X207375500Y-70636611D01*
X207375500Y-70463389D01*
X207348402Y-70292299D01*
X207294873Y-70127555D01*
X207216232Y-69973212D01*
X207114414Y-69833072D01*
X206991928Y-69710586D01*
X206908975Y-69650317D01*
X206866311Y-69594988D01*
X206860332Y-69525374D01*
X206892938Y-69463579D01*
X206908976Y-69449682D01*
X206991928Y-69389414D01*
X207114414Y-69266928D01*
X207216232Y-69126788D01*
X207294873Y-68972445D01*
X207348402Y-68807701D01*
X207375500Y-68636611D01*
X207375500Y-68463389D01*
X207348402Y-68292299D01*
X207294873Y-68127555D01*
X207216232Y-67973212D01*
X207114414Y-67833072D01*
X206991928Y-67710586D01*
X206908975Y-67650317D01*
X206866311Y-67594988D01*
X206860332Y-67525374D01*
X206892938Y-67463579D01*
X206908976Y-67449682D01*
X206991928Y-67389414D01*
X207114414Y-67266928D01*
X207216232Y-67126788D01*
X207294873Y-66972445D01*
X207348402Y-66807701D01*
X207375500Y-66636611D01*
X207375500Y-66463389D01*
X212124500Y-66463389D01*
X212124500Y-66636610D01*
X212142461Y-66750016D01*
X212151598Y-66807701D01*
X212205127Y-66972445D01*
X212283768Y-67126788D01*
X212385586Y-67266928D01*
X212508072Y-67389414D01*
X212508078Y-67389418D01*
X212591023Y-67449683D01*
X212633689Y-67505013D01*
X212639667Y-67574626D01*
X212607061Y-67636421D01*
X212591023Y-67650317D01*
X212508078Y-67710581D01*
X212508069Y-67710588D01*
X212385588Y-67833069D01*
X212385588Y-67833070D01*
X212385586Y-67833072D01*
X212373278Y-67850013D01*
X212283768Y-67973211D01*
X212205128Y-68127552D01*
X212151597Y-68292302D01*
X212135759Y-68392302D01*
X212124500Y-68463389D01*
X212124500Y-68636611D01*
X212151598Y-68807701D01*
X212205127Y-68972445D01*
X212283768Y-69126788D01*
X212385586Y-69266928D01*
X212508072Y-69389414D01*
X212508078Y-69389418D01*
X212591023Y-69449683D01*
X212633689Y-69505013D01*
X212639667Y-69574626D01*
X212607061Y-69636421D01*
X212591023Y-69650317D01*
X212508078Y-69710581D01*
X212508069Y-69710588D01*
X212385588Y-69833069D01*
X212385588Y-69833070D01*
X212385586Y-69833072D01*
X212364192Y-69862518D01*
X212283768Y-69973211D01*
X212205128Y-70127552D01*
X212151597Y-70292302D01*
X212134928Y-70397547D01*
X212124500Y-70463389D01*
X212124500Y-70636611D01*
X212130438Y-70674100D01*
X212147847Y-70784022D01*
X212151598Y-70807701D01*
X212205127Y-70972445D01*
X212283768Y-71126788D01*
X212385586Y-71266928D01*
X212385588Y-71266930D01*
X212493491Y-71374833D01*
X212526976Y-71436156D01*
X212521992Y-71505848D01*
X212480120Y-71561781D01*
X212470907Y-71568053D01*
X212406654Y-71607684D01*
X212282684Y-71731654D01*
X212190643Y-71880875D01*
X212190641Y-71880880D01*
X212135494Y-72047302D01*
X212135493Y-72047309D01*
X212125000Y-72150013D01*
X212125000Y-72300000D01*
X213219670Y-72300000D01*
X213199925Y-72319745D01*
X213150556Y-72405255D01*
X213125000Y-72500630D01*
X213125000Y-72599370D01*
X213150556Y-72694745D01*
X213199925Y-72780255D01*
X213219670Y-72800000D01*
X212125001Y-72800000D01*
X212125001Y-72949986D01*
X212135494Y-73052697D01*
X212190641Y-73219119D01*
X212190643Y-73219124D01*
X212282684Y-73368345D01*
X212406654Y-73492315D01*
X212555875Y-73584356D01*
X212555880Y-73584358D01*
X212722302Y-73639505D01*
X212722309Y-73639506D01*
X212825019Y-73649999D01*
X213249999Y-73649999D01*
X213250000Y-73649998D01*
X213250000Y-72830330D01*
X213269745Y-72850075D01*
X213355255Y-72899444D01*
X213450630Y-72925000D01*
X213549370Y-72925000D01*
X213644745Y-72899444D01*
X213730255Y-72850075D01*
X213750000Y-72830330D01*
X213750000Y-73649999D01*
X214174972Y-73649999D01*
X214174986Y-73649998D01*
X214277697Y-73639505D01*
X214444119Y-73584358D01*
X214444124Y-73584356D01*
X214593345Y-73492315D01*
X214717315Y-73368345D01*
X214809356Y-73219124D01*
X214809358Y-73219119D01*
X214864505Y-73052697D01*
X214864506Y-73052690D01*
X214874999Y-72949986D01*
X214875000Y-72949973D01*
X214875000Y-72800000D01*
X213780330Y-72800000D01*
X213800075Y-72780255D01*
X213849444Y-72694745D01*
X213875000Y-72599370D01*
X213875000Y-72500630D01*
X213849444Y-72405255D01*
X213800075Y-72319745D01*
X213780330Y-72300000D01*
X214874999Y-72300000D01*
X214874999Y-72150028D01*
X214874998Y-72150013D01*
X214864505Y-72047302D01*
X214809358Y-71880880D01*
X214809356Y-71880875D01*
X214717315Y-71731654D01*
X214593343Y-71607682D01*
X214529093Y-71568053D01*
X214482368Y-71516105D01*
X214471145Y-71447143D01*
X214498988Y-71383061D01*
X214506486Y-71374855D01*
X214614414Y-71266928D01*
X214716232Y-71126788D01*
X214794873Y-70972445D01*
X214848402Y-70807701D01*
X214875500Y-70636611D01*
X214875500Y-70463389D01*
X214848402Y-70292299D01*
X214794873Y-70127555D01*
X214716232Y-69973212D01*
X214614414Y-69833072D01*
X214491928Y-69710586D01*
X214408975Y-69650317D01*
X214366311Y-69594988D01*
X214360332Y-69525374D01*
X214392938Y-69463579D01*
X214408976Y-69449682D01*
X214491928Y-69389414D01*
X214614414Y-69266928D01*
X214716232Y-69126788D01*
X214794873Y-68972445D01*
X214848402Y-68807701D01*
X214875500Y-68636611D01*
X214875500Y-68463389D01*
X214848402Y-68292299D01*
X214794873Y-68127555D01*
X214716232Y-67973212D01*
X214614414Y-67833072D01*
X214491928Y-67710586D01*
X214408975Y-67650317D01*
X214366311Y-67594988D01*
X214360332Y-67525374D01*
X214392938Y-67463579D01*
X214408976Y-67449682D01*
X214491928Y-67389414D01*
X214614414Y-67266928D01*
X214716232Y-67126788D01*
X214794873Y-66972445D01*
X214848402Y-66807701D01*
X214875500Y-66636611D01*
X214875500Y-66463389D01*
X214848402Y-66292299D01*
X214794873Y-66127555D01*
X214716232Y-65973212D01*
X214614414Y-65833072D01*
X214491928Y-65710586D01*
X214351788Y-65608768D01*
X214197445Y-65530127D01*
X214032701Y-65476598D01*
X214032699Y-65476597D01*
X214032698Y-65476597D01*
X213901271Y-65455781D01*
X213861611Y-65449500D01*
X213138389Y-65449500D01*
X213098728Y-65455781D01*
X212967302Y-65476597D01*
X212802552Y-65530128D01*
X212648211Y-65608768D01*
X212568256Y-65666859D01*
X212508072Y-65710586D01*
X212508070Y-65710588D01*
X212508069Y-65710588D01*
X212385588Y-65833069D01*
X212385588Y-65833070D01*
X212385586Y-65833072D01*
X212358362Y-65870543D01*
X212283768Y-65973211D01*
X212205128Y-66127552D01*
X212151597Y-66292302D01*
X212124500Y-66463389D01*
X207375500Y-66463389D01*
X207348402Y-66292299D01*
X207294873Y-66127555D01*
X207216232Y-65973212D01*
X207114414Y-65833072D01*
X206991928Y-65710586D01*
X206851788Y-65608768D01*
X206697445Y-65530127D01*
X206532701Y-65476598D01*
X206532699Y-65476597D01*
X206532698Y-65476597D01*
X206401271Y-65455781D01*
X206361611Y-65449500D01*
X205638389Y-65449500D01*
X205598728Y-65455781D01*
X205467302Y-65476597D01*
X205302552Y-65530128D01*
X205148211Y-65608768D01*
X205068256Y-65666859D01*
X205008072Y-65710586D01*
X205008070Y-65710588D01*
X205008069Y-65710588D01*
X204885588Y-65833069D01*
X204885588Y-65833070D01*
X204885586Y-65833072D01*
X204858362Y-65870543D01*
X204783768Y-65973211D01*
X204705128Y-66127552D01*
X204651597Y-66292302D01*
X204624500Y-66463389D01*
X199809662Y-66463389D01*
X199798402Y-66392299D01*
X199744873Y-66227555D01*
X199666232Y-66073212D01*
X199564414Y-65933072D01*
X199441928Y-65810586D01*
X199301788Y-65708768D01*
X199147445Y-65630127D01*
X198982701Y-65576598D01*
X198982699Y-65576597D01*
X198982698Y-65576597D01*
X198851271Y-65555781D01*
X198811611Y-65549500D01*
X198088389Y-65549500D01*
X198048728Y-65555781D01*
X197917302Y-65576597D01*
X197752552Y-65630128D01*
X197598211Y-65708768D01*
X197518256Y-65766859D01*
X197458072Y-65810586D01*
X197458070Y-65810588D01*
X197458069Y-65810588D01*
X197335588Y-65933069D01*
X197335588Y-65933070D01*
X197335586Y-65933072D01*
X197291859Y-65993256D01*
X197233768Y-66073211D01*
X197155128Y-66227552D01*
X197101597Y-66392302D01*
X197074500Y-66563389D01*
X165725500Y-66563389D01*
X165725499Y-66292302D01*
X165725499Y-65949998D01*
X165725498Y-65949980D01*
X165714999Y-65847203D01*
X165714998Y-65847200D01*
X165702865Y-65810586D01*
X165659814Y-65680666D01*
X165567712Y-65531344D01*
X165443656Y-65407288D01*
X165294334Y-65315186D01*
X165127797Y-65260001D01*
X165127795Y-65260000D01*
X165025010Y-65249500D01*
X163674998Y-65249500D01*
X163674981Y-65249501D01*
X163572203Y-65260000D01*
X163572200Y-65260001D01*
X163405668Y-65315185D01*
X163405663Y-65315187D01*
X163256342Y-65407289D01*
X163132289Y-65531342D01*
X163040187Y-65680663D01*
X163040185Y-65680668D01*
X163030874Y-65708768D01*
X162985001Y-65847203D01*
X162985001Y-65847204D01*
X162985000Y-65847204D01*
X162974500Y-65949983D01*
X159269247Y-65949983D01*
X159239038Y-65908404D01*
X159239034Y-65908399D01*
X159116602Y-65785967D01*
X158976524Y-65684195D01*
X158822257Y-65605591D01*
X158657589Y-65552087D01*
X158657581Y-65552085D01*
X158650000Y-65550884D01*
X158650000Y-66619670D01*
X158630255Y-66599925D01*
X158544745Y-66550556D01*
X158449370Y-66525000D01*
X158350630Y-66525000D01*
X158255255Y-66550556D01*
X158169745Y-66599925D01*
X158150000Y-66619670D01*
X158150000Y-65550884D01*
X158149999Y-65550884D01*
X158142418Y-65552085D01*
X158142410Y-65552087D01*
X157977742Y-65605591D01*
X157823475Y-65684195D01*
X157683397Y-65785967D01*
X157560965Y-65908399D01*
X157560961Y-65908404D01*
X157500627Y-65991448D01*
X157445297Y-66034114D01*
X157375684Y-66040093D01*
X157313889Y-66007488D01*
X157299991Y-65991449D01*
X157299990Y-65991448D01*
X157239414Y-65908072D01*
X157116928Y-65785586D01*
X156976788Y-65683768D01*
X156822445Y-65605127D01*
X156657701Y-65551598D01*
X156657699Y-65551597D01*
X156657698Y-65551597D01*
X156522138Y-65530127D01*
X156486611Y-65524500D01*
X156313389Y-65524500D01*
X156277862Y-65530127D01*
X156142302Y-65551597D01*
X155977552Y-65605128D01*
X155823211Y-65683768D01*
X155743256Y-65741859D01*
X155683072Y-65785586D01*
X155683070Y-65785588D01*
X155683069Y-65785588D01*
X155560588Y-65908069D01*
X155560581Y-65908078D01*
X155500317Y-65991023D01*
X155444987Y-66033689D01*
X155375374Y-66039667D01*
X155313579Y-66007061D01*
X155299683Y-65991023D01*
X155239655Y-65908404D01*
X155239414Y-65908072D01*
X155116928Y-65785586D01*
X154976788Y-65683768D01*
X154822445Y-65605127D01*
X154657701Y-65551598D01*
X154657699Y-65551597D01*
X154657698Y-65551597D01*
X154522138Y-65530127D01*
X154486611Y-65524500D01*
X154313389Y-65524500D01*
X154277862Y-65530127D01*
X154142302Y-65551597D01*
X153977552Y-65605128D01*
X153823211Y-65683768D01*
X153743256Y-65741859D01*
X153683072Y-65785586D01*
X153683070Y-65785588D01*
X153683069Y-65785588D01*
X153560588Y-65908069D01*
X153560581Y-65908078D01*
X153500317Y-65991023D01*
X153444987Y-66033689D01*
X153375374Y-66039667D01*
X153313579Y-66007061D01*
X153299683Y-65991023D01*
X153239655Y-65908404D01*
X153239414Y-65908072D01*
X153116928Y-65785586D01*
X152976788Y-65683768D01*
X152822445Y-65605127D01*
X152657701Y-65551598D01*
X152657699Y-65551597D01*
X152657698Y-65551597D01*
X152522138Y-65530127D01*
X152486611Y-65524500D01*
X152313389Y-65524500D01*
X152277862Y-65530127D01*
X152142302Y-65551597D01*
X151977552Y-65605128D01*
X151823211Y-65683768D01*
X151743256Y-65741859D01*
X151683072Y-65785586D01*
X151683070Y-65785588D01*
X151683069Y-65785588D01*
X151560588Y-65908069D01*
X151560581Y-65908078D01*
X151500317Y-65991023D01*
X151444987Y-66033689D01*
X151375374Y-66039667D01*
X151313579Y-66007061D01*
X151299683Y-65991023D01*
X151239655Y-65908404D01*
X151239414Y-65908072D01*
X151116928Y-65785586D01*
X150976788Y-65683768D01*
X150822445Y-65605127D01*
X150657701Y-65551598D01*
X150657699Y-65551597D01*
X150657698Y-65551597D01*
X150522138Y-65530127D01*
X150486611Y-65524500D01*
X150313389Y-65524500D01*
X150277862Y-65530127D01*
X150142302Y-65551597D01*
X149977552Y-65605128D01*
X149823211Y-65683768D01*
X149743256Y-65741859D01*
X149683072Y-65785586D01*
X149683070Y-65785588D01*
X149683069Y-65785588D01*
X149560588Y-65908069D01*
X149560581Y-65908078D01*
X149500317Y-65991023D01*
X149444987Y-66033689D01*
X149375374Y-66039667D01*
X149313579Y-66007061D01*
X149299683Y-65991023D01*
X149239655Y-65908404D01*
X149239414Y-65908072D01*
X149116928Y-65785586D01*
X148976788Y-65683768D01*
X148822445Y-65605127D01*
X148657701Y-65551598D01*
X148657699Y-65551597D01*
X148657698Y-65551597D01*
X148522138Y-65530127D01*
X148486611Y-65524500D01*
X148313389Y-65524500D01*
X148277862Y-65530127D01*
X148142302Y-65551597D01*
X147977552Y-65605128D01*
X147823211Y-65683768D01*
X147743256Y-65741859D01*
X147683072Y-65785586D01*
X147683070Y-65785588D01*
X147683069Y-65785588D01*
X147560588Y-65908069D01*
X147560581Y-65908078D01*
X147500317Y-65991023D01*
X147444987Y-66033689D01*
X147375374Y-66039667D01*
X147313579Y-66007061D01*
X147299683Y-65991023D01*
X147239655Y-65908404D01*
X147239414Y-65908072D01*
X147116928Y-65785586D01*
X146976788Y-65683768D01*
X146822445Y-65605127D01*
X146657701Y-65551598D01*
X146657699Y-65551597D01*
X146657698Y-65551597D01*
X146522138Y-65530127D01*
X146486611Y-65524500D01*
X146313389Y-65524500D01*
X146277862Y-65530127D01*
X146142302Y-65551597D01*
X145977552Y-65605128D01*
X145823211Y-65683768D01*
X145683073Y-65785585D01*
X145575530Y-65893128D01*
X145514207Y-65926612D01*
X145444515Y-65921628D01*
X145388582Y-65879756D01*
X145382310Y-65870543D01*
X145342712Y-65806344D01*
X145218656Y-65682288D01*
X145125888Y-65625069D01*
X145069336Y-65590187D01*
X145069331Y-65590185D01*
X145028325Y-65576597D01*
X144902797Y-65535001D01*
X144902795Y-65535000D01*
X144800010Y-65524500D01*
X143999998Y-65524500D01*
X143999980Y-65524501D01*
X143897203Y-65535000D01*
X143897200Y-65535001D01*
X143730668Y-65590185D01*
X143730663Y-65590187D01*
X143581342Y-65682289D01*
X143457289Y-65806342D01*
X143365187Y-65955663D01*
X143365185Y-65955668D01*
X143343961Y-66019718D01*
X143310001Y-66122203D01*
X143310001Y-66122204D01*
X143310000Y-66122204D01*
X143299500Y-66224983D01*
X128010461Y-66224983D01*
X128012105Y-64223897D01*
X128031845Y-64156875D01*
X128084686Y-64111163D01*
X128136105Y-64100000D01*
X143999325Y-64100000D01*
X144000588Y-64100005D01*
G37*
%TD.AperFunction*%
%TD*%
M02*
